<?xml version="1.0" encoding="UTF-8" standalone="no"?>
<!DOCTYPE svg PUBLIC "-//W3C//DTD SVG 1.1//EN"
 "http://www.w3.org/Graphics/SVG/1.1/DTD/svg11.dtd">
<!-- Generated by graphviz version 2.40.1 (20161225.0304)
 -->
<!-- Title: dependencies Pages: 1 -->
<svg width="1748pt" height="211pt"
 viewBox="0.00 0.00 1748.00 211.00" xmlns="http://www.w3.org/2000/svg" xmlns:xlink="http://www.w3.org/1999/xlink">
<g id="graph0" class="graph" transform="scale(1 1) rotate(0) translate(4 207)">
<title>dependencies</title>
<polygon fill="#ffffff" stroke="transparent" points="-4,4 -4,-207 1744,-207 1744,4 -4,4"/>
<text text-anchor="start" x="849.0091" y="-42.4" font-family="sans-serif" font-weight="bold" font-size="14.00" fill="#000000">Legend</text>
<polygon fill="#ffffb3" stroke="transparent" points="636,-10 636,-30 656,-30 656,-10 636,-10"/>
<text text-anchor="start" x="659.629" y="-15.4" font-family="sans-serif" font-size="14.00" fill="#000000"> &#160;Declarations</text>
<polygon fill="#8dd3c7" stroke="transparent" points="749,-10 749,-30 769,-30 769,-10 749,-10"/>
<text text-anchor="start" x="772.7251" y="-15.4" font-family="sans-serif" font-size="14.00" fill="#000000"> &#160;Module</text>
<polygon fill="#80b1d3" stroke="transparent" points="835,-10 835,-30 855,-30 855,-10 835,-10"/>
<text text-anchor="start" x="858.7812" y="-15.4" font-family="sans-serif" font-size="14.00" fill="#000000"> &#160;Bootstrap</text>
<polygon fill="#fdb462" stroke="transparent" points="932,-10 932,-30 952,-30 952,-10 932,-10"/>
<text text-anchor="start" x="955.6732" y="-15.4" font-family="sans-serif" font-size="14.00" fill="#000000"> &#160;Providers</text>
<polygon fill="#fb8072" stroke="transparent" points="1028,-10 1028,-30 1048,-30 1048,-10 1028,-10"/>
<text text-anchor="start" x="1051.7258" y="-15.4" font-family="sans-serif" font-size="14.00" fill="#000000"> &#160;Exports</text>
<g id="clust1" class="cluster">
<title>cluster_ClavesBasicasModule</title>
<polygon fill="none" stroke="#000000" stroke-dasharray="1,5" points="8,-70 8,-195 1732,-195 1732,-70 8,-70"/>
</g>
<g id="clust2" class="cluster">
<title>cluster_ClavesBasicasModule_declarations</title>
<polygon fill="none" stroke="#000000" points="1276,-78 1276,-130 1724,-130 1724,-78 1276,-78"/>
</g>
<g id="clust6" class="cluster">
<title>cluster_ClavesBasicasModule_imports</title>
<polygon fill="none" stroke="#000000" points="16,-78 16,-130 1268,-130 1268,-78 16,-78"/>
</g>
<!-- ListaComponent -->
<g id="node1" class="node">
<title>ListaComponent</title>
<polygon fill="#ffffb3" stroke="#000000" points="1715.8259,-122 1606.1741,-122 1606.1741,-86 1715.8259,-86 1715.8259,-122"/>
<text text-anchor="middle" x="1661" y="-99.8" font-family="Times,serif" font-size="14.00" fill="#000000">ListaComponent</text>
</g>
<!-- ClavesBasicasModule -->
<g id="node4" class="node">
<title>ClavesBasicasModule</title>
<polygon fill="#8dd3c7" stroke="#000000" points="979.4116,-187 976.4116,-191 955.4116,-191 952.4116,-187 838.5884,-187 838.5884,-151 979.4116,-151 979.4116,-187"/>
<text text-anchor="middle" x="909" y="-164.8" font-family="Times,serif" font-size="14.00" fill="#000000">ClavesBasicasModule</text>
</g>
<!-- ListaComponent&#45;&gt;ClavesBasicasModule -->
<g id="edge1" class="edge">
<title>ListaComponent&#45;&gt;ClavesBasicasModule</title>
<path fill="none" stroke="#000000" d="M1661,-122.0109C1661,-144.4852 1661,-180 1661,-180 1661,-180 989.4084,-180 989.4084,-180"/>
<polygon fill="#000000" stroke="#000000" points="989.4084,-176.5001 979.4084,-180 989.4083,-183.5001 989.4084,-176.5001"/>
</g>
<!-- FormularioComponent -->
<g id="node2" class="node">
<title>FormularioComponent</title>
<polygon fill="#ffffb3" stroke="#000000" points="1588.323,-122 1443.677,-122 1443.677,-86 1588.323,-86 1588.323,-122"/>
<text text-anchor="middle" x="1516" y="-99.8" font-family="Times,serif" font-size="14.00" fill="#000000">FormularioComponent</text>
</g>
<!-- FormularioComponent&#45;&gt;ClavesBasicasModule -->
<g id="edge2" class="edge">
<title>FormularioComponent&#45;&gt;ClavesBasicasModule</title>
<path fill="none" stroke="#000000" d="M1516,-122.1289C1516,-142.5724 1516,-173 1516,-173 1516,-173 989.2236,-173 989.2236,-173"/>
<polygon fill="#000000" stroke="#000000" points="989.2236,-169.5001 979.2236,-173 989.2236,-176.5001 989.2236,-169.5001"/>
</g>
<!-- ListaCluesComponent -->
<g id="node3" class="node">
<title>ListaCluesComponent</title>
<polygon fill="#ffffb3" stroke="#000000" points="1425.712,-122 1284.288,-122 1284.288,-86 1425.712,-86 1425.712,-122"/>
<text text-anchor="middle" x="1355" y="-99.8" font-family="Times,serif" font-size="14.00" fill="#000000">ListaCluesComponent</text>
</g>
<!-- ListaCluesComponent&#45;&gt;ClavesBasicasModule -->
<g id="edge3" class="edge">
<title>ListaCluesComponent&#45;&gt;ClavesBasicasModule</title>
<path fill="none" stroke="#000000" d="M1355,-122.2667C1355,-140.5552 1355,-166 1355,-166 1355,-166 989.67,-166 989.67,-166"/>
<polygon fill="#000000" stroke="#000000" points="989.6701,-162.5001 979.67,-166 989.67,-169.5001 989.6701,-162.5001"/>
</g>
<!-- ClavesBasicasRoutingModule -->
<g id="node5" class="node">
<title>ClavesBasicasRoutingModule</title>
<polygon fill="#8dd3c7" stroke="#000000" points="1259.5294,-122 1256.5294,-126 1235.5294,-126 1232.5294,-122 1074.4706,-122 1074.4706,-86 1259.5294,-86 1259.5294,-122"/>
<text text-anchor="middle" x="1167" y="-99.8" font-family="Times,serif" font-size="14.00" fill="#000000">ClavesBasicasRoutingModule</text>
</g>
<!-- ClavesBasicasRoutingModule&#45;&gt;ClavesBasicasModule -->
<g id="edge4" class="edge">
<title>ClavesBasicasRoutingModule&#45;&gt;ClavesBasicasModule</title>
<path fill="none" stroke="#000000" d="M1167,-122.0091C1167,-138.0494 1167,-159 1167,-159 1167,-159 989.4996,-159 989.4996,-159"/>
<polygon fill="#000000" stroke="#000000" points="989.4997,-155.5001 979.4996,-159 989.4996,-162.5001 989.4997,-155.5001"/>
</g>
<!-- HubModule -->
<g id="node6" class="node">
<title>HubModule</title>
<polygon fill="#8dd3c7" stroke="#000000" points="1055.6571,-122 1052.6571,-126 1031.6571,-126 1028.6571,-122 972.3429,-122 972.3429,-86 1055.6571,-86 1055.6571,-122"/>
<text text-anchor="middle" x="1014" y="-99.8" font-family="Times,serif" font-size="14.00" fill="#000000">HubModule</text>
</g>
<!-- HubModule&#45;&gt;ClavesBasicasModule -->
<g id="edge5" class="edge">
<title>HubModule&#45;&gt;ClavesBasicasModule</title>
<path fill="none" stroke="#000000" d="M975.6887,-122.1061C975.6887,-122.1061 975.6887,-140.991 975.6887,-140.991"/>
<polygon fill="#000000" stroke="#000000" points="972.1887,-140.9909 975.6887,-150.991 979.1887,-140.991 972.1887,-140.9909"/>
</g>
<!-- PerfilModule -->
<g id="node7" class="node">
<title>PerfilModule</title>
<polygon fill="#8dd3c7" stroke="#000000" points="954.1501,-122 951.1501,-126 930.1501,-126 927.1501,-122 863.8499,-122 863.8499,-86 954.1501,-86 954.1501,-122"/>
<text text-anchor="middle" x="909" y="-99.8" font-family="Times,serif" font-size="14.00" fill="#000000">PerfilModule</text>
</g>
<!-- PerfilModule&#45;&gt;ClavesBasicasModule -->
<g id="edge6" class="edge">
<title>PerfilModule&#45;&gt;ClavesBasicasModule</title>
<path fill="none" stroke="#000000" d="M909,-122.1061C909,-122.1061 909,-140.991 909,-140.991"/>
<polygon fill="#000000" stroke="#000000" points="905.5001,-140.9909 909,-150.991 912.5001,-140.991 905.5001,-140.9909"/>
</g>
<!-- BloquearPantallaModule -->
<g id="node8" class="node">
<title>BloquearPantallaModule</title>
<polygon fill="#8dd3c7" stroke="#000000" points="845.965,-122 842.965,-126 821.965,-126 818.965,-122 690.035,-122 690.035,-86 845.965,-86 845.965,-122"/>
<text text-anchor="middle" x="768" y="-99.8" font-family="Times,serif" font-size="14.00" fill="#000000">BloquearPantallaModule</text>
</g>
<!-- BloquearPantallaModule&#45;&gt;ClavesBasicasModule -->
<g id="edge7" class="edge">
<title>BloquearPantallaModule&#45;&gt;ClavesBasicasModule</title>
<path fill="none" stroke="#000000" d="M842.3885,-122.1061C842.3885,-122.1061 842.3885,-140.991 842.3885,-140.991"/>
<polygon fill="#000000" stroke="#000000" points="838.8886,-140.9909 842.3885,-150.991 845.8886,-140.991 838.8886,-140.9909"/>
</g>
<!-- PaginacionModule -->
<g id="node9" class="node">
<title>PaginacionModule</title>
<polygon fill="#8dd3c7" stroke="#000000" points="671.7576,-122 668.7576,-126 647.7576,-126 644.7576,-122 550.2424,-122 550.2424,-86 671.7576,-86 671.7576,-122"/>
<text text-anchor="middle" x="611" y="-99.8" font-family="Times,serif" font-size="14.00" fill="#000000">PaginacionModule</text>
</g>
<!-- PaginacionModule&#45;&gt;ClavesBasicasModule -->
<g id="edge8" class="edge">
<title>PaginacionModule&#45;&gt;ClavesBasicasModule</title>
<path fill="none" stroke="#000000" d="M611,-122.0091C611,-138.0494 611,-159 611,-159 611,-159 828.7555,-159 828.7555,-159"/>
<polygon fill="#000000" stroke="#000000" points="828.7555,-162.5001 838.7555,-159 828.7555,-155.5001 828.7555,-162.5001"/>
</g>
<!-- IndexFarmaciaModule -->
<g id="node10" class="node">
<title>IndexFarmaciaModule</title>
<polygon fill="#8dd3c7" stroke="#000000" points="531.5086,-122 528.5086,-126 507.5086,-126 504.5086,-122 388.4914,-122 388.4914,-86 531.5086,-86 531.5086,-122"/>
<text text-anchor="middle" x="460" y="-99.8" font-family="Times,serif" font-size="14.00" fill="#000000">IndexFarmaciaModule</text>
</g>
<!-- IndexFarmaciaModule&#45;&gt;ClavesBasicasModule -->
<g id="edge9" class="edge">
<title>IndexFarmaciaModule&#45;&gt;ClavesBasicasModule</title>
<path fill="none" stroke="#000000" d="M460,-122.2667C460,-140.5552 460,-166 460,-166 460,-166 828.3498,-166 828.3498,-166"/>
<polygon fill="#000000" stroke="#000000" points="828.3499,-169.5001 838.3498,-166 828.3498,-162.5001 828.3499,-169.5001"/>
</g>
<!-- BuscarInsumosModule -->
<g id="node11" class="node">
<title>BuscarInsumosModule</title>
<polygon fill="#8dd3c7" stroke="#000000" points="369.8613,-122 366.8613,-126 345.8613,-126 342.8613,-122 224.1387,-122 224.1387,-86 369.8613,-86 369.8613,-122"/>
<text text-anchor="middle" x="297" y="-99.8" font-family="Times,serif" font-size="14.00" fill="#000000">BuscarInsumosModule</text>
</g>
<!-- BuscarInsumosModule&#45;&gt;ClavesBasicasModule -->
<g id="edge10" class="edge">
<title>BuscarInsumosModule&#45;&gt;ClavesBasicasModule</title>
<path fill="none" stroke="#000000" d="M297,-122.1289C297,-142.5724 297,-173 297,-173 297,-173 828.4971,-173 828.4971,-173"/>
<polygon fill="#000000" stroke="#000000" points="828.4972,-176.5001 838.4971,-173 828.4971,-169.5001 828.4972,-176.5001"/>
</g>
<!-- AdministradorCentralModule -->
<g id="node12" class="node">
<title>AdministradorCentralModule</title>
<polygon fill="#8dd3c7" stroke="#000000" points="206.4073,-122 203.4073,-126 182.4073,-126 179.4073,-122 23.5927,-122 23.5927,-86 206.4073,-86 206.4073,-122"/>
<text text-anchor="middle" x="115" y="-99.8" font-family="Times,serif" font-size="14.00" fill="#000000">AdministradorCentralModule</text>
</g>
<!-- AdministradorCentralModule&#45;&gt;ClavesBasicasModule -->
<g id="edge11" class="edge">
<title>AdministradorCentralModule&#45;&gt;ClavesBasicasModule</title>
<path fill="none" stroke="#000000" d="M115,-122.0109C115,-144.4852 115,-180 115,-180 115,-180 828.5378,-180 828.5378,-180"/>
<polygon fill="#000000" stroke="#000000" points="828.5378,-183.5001 838.5378,-180 828.5378,-176.5001 828.5378,-183.5001"/>
</g>
</g>
</svg>
