<?xml version="1.0" encoding="UTF-8" standalone="no"?>
<!DOCTYPE svg PUBLIC "-//W3C//DTD SVG 1.1//EN"
 "http://www.w3.org/Graphics/SVG/1.1/DTD/svg11.dtd">
<!-- Generated by graphviz version 2.40.1 (20161225.0304)
 -->
<!-- Title: dependencies Pages: 1 -->
<svg width="1427pt" height="211pt"
 viewBox="0.00 0.00 1427.00 211.00" xmlns="http://www.w3.org/2000/svg" xmlns:xlink="http://www.w3.org/1999/xlink">
<g id="graph0" class="graph" transform="scale(1 1) rotate(0) translate(4 207)">
<title>dependencies</title>
<polygon fill="#ffffff" stroke="transparent" points="-4,4 -4,-207 1423,-207 1423,4 -4,4"/>
<text text-anchor="start" x="688.5091" y="-42.4" font-family="sans-serif" font-weight="bold" font-size="14.00" fill="#000000">Legend</text>
<polygon fill="#ffffb3" stroke="transparent" points="475.5,-10 475.5,-30 495.5,-30 495.5,-10 475.5,-10"/>
<text text-anchor="start" x="499.129" y="-15.4" font-family="sans-serif" font-size="14.00" fill="#000000"> &#160;Declarations</text>
<polygon fill="#8dd3c7" stroke="transparent" points="588.5,-10 588.5,-30 608.5,-30 608.5,-10 588.5,-10"/>
<text text-anchor="start" x="612.2251" y="-15.4" font-family="sans-serif" font-size="14.00" fill="#000000"> &#160;Module</text>
<polygon fill="#80b1d3" stroke="transparent" points="674.5,-10 674.5,-30 694.5,-30 694.5,-10 674.5,-10"/>
<text text-anchor="start" x="698.2812" y="-15.4" font-family="sans-serif" font-size="14.00" fill="#000000"> &#160;Bootstrap</text>
<polygon fill="#fdb462" stroke="transparent" points="771.5,-10 771.5,-30 791.5,-30 791.5,-10 771.5,-10"/>
<text text-anchor="start" x="795.1732" y="-15.4" font-family="sans-serif" font-size="14.00" fill="#000000"> &#160;Providers</text>
<polygon fill="#fb8072" stroke="transparent" points="867.5,-10 867.5,-30 887.5,-30 887.5,-10 867.5,-10"/>
<text text-anchor="start" x="891.2258" y="-15.4" font-family="sans-serif" font-size="14.00" fill="#000000"> &#160;Exports</text>
<g id="clust1" class="cluster">
<title>cluster_InventarioModule</title>
<polygon fill="none" stroke="#000000" stroke-dasharray="1,5" points="8,-70 8,-195 1411,-195 1411,-70 8,-70"/>
</g>
<g id="clust2" class="cluster">
<title>cluster_InventarioModule_declarations</title>
<polygon fill="none" stroke="#000000" points="1277,-78 1277,-130 1403,-130 1403,-78 1277,-78"/>
</g>
<g id="clust4" class="cluster">
<title>cluster_InventarioModule_imports</title>
<polygon fill="none" stroke="#000000" points="295,-78 295,-130 1269,-130 1269,-78 295,-78"/>
</g>
<g id="clust7" class="cluster">
<title>cluster_InventarioModule_providers</title>
<polygon fill="none" stroke="#000000" points="16,-78 16,-130 287,-130 287,-78 16,-78"/>
</g>
<!-- ListaComponent -->
<g id="node1" class="node">
<title>ListaComponent</title>
<polygon fill="#ffffb3" stroke="#000000" points="1394.8259,-122 1285.1741,-122 1285.1741,-86 1394.8259,-86 1394.8259,-122"/>
<text text-anchor="middle" x="1340" y="-99.8" font-family="Times,serif" font-size="14.00" fill="#000000">ListaComponent</text>
</g>
<!-- InventarioModule -->
<g id="node2" class="node">
<title>InventarioModule</title>
<polygon fill="#8dd3c7" stroke="#000000" points="772.5814,-187 769.5814,-191 748.5814,-191 745.5814,-187 655.4186,-187 655.4186,-151 772.5814,-151 772.5814,-187"/>
<text text-anchor="middle" x="714" y="-164.8" font-family="Times,serif" font-size="14.00" fill="#000000">InventarioModule</text>
</g>
<!-- ListaComponent&#45;&gt;InventarioModule -->
<g id="edge1" class="edge">
<title>ListaComponent&#45;&gt;InventarioModule</title>
<path fill="none" stroke="#000000" d="M1340,-122.0109C1340,-144.4852 1340,-180 1340,-180 1340,-180 782.6112,-180 782.6112,-180"/>
<polygon fill="#000000" stroke="#000000" points="782.6112,-176.5001 772.6112,-180 782.6112,-183.5001 782.6112,-176.5001"/>
</g>
<!-- InventarioRoutingModule -->
<g id="node3" class="node">
<title>InventarioRoutingModule</title>
<polygon fill="#8dd3c7" stroke="#000000" points="1261.1993,-122 1258.1993,-126 1237.1993,-126 1234.1993,-122 1098.8007,-122 1098.8007,-86 1261.1993,-86 1261.1993,-122"/>
<text text-anchor="middle" x="1180" y="-99.8" font-family="Times,serif" font-size="14.00" fill="#000000">InventarioRoutingModule</text>
</g>
<!-- InventarioRoutingModule&#45;&gt;InventarioModule -->
<g id="edge2" class="edge">
<title>InventarioRoutingModule&#45;&gt;InventarioModule</title>
<path fill="none" stroke="#000000" d="M1180,-122.1289C1180,-142.5724 1180,-173 1180,-173 1180,-173 782.5474,-173 782.5474,-173"/>
<polygon fill="#000000" stroke="#000000" points="782.5474,-169.5001 772.5474,-173 782.5473,-176.5001 782.5474,-169.5001"/>
</g>
<!-- HubModule -->
<g id="node4" class="node">
<title>HubModule</title>
<polygon fill="#8dd3c7" stroke="#000000" points="1080.6571,-122 1077.6571,-126 1056.6571,-126 1053.6571,-122 997.3429,-122 997.3429,-86 1080.6571,-86 1080.6571,-122"/>
<text text-anchor="middle" x="1039" y="-99.8" font-family="Times,serif" font-size="14.00" fill="#000000">HubModule</text>
</g>
<!-- HubModule&#45;&gt;InventarioModule -->
<g id="edge3" class="edge">
<title>HubModule&#45;&gt;InventarioModule</title>
<path fill="none" stroke="#000000" d="M1039,-122.2667C1039,-140.5552 1039,-166 1039,-166 1039,-166 782.855,-166 782.855,-166"/>
<polygon fill="#000000" stroke="#000000" points="782.8551,-162.5001 772.855,-166 782.855,-169.5001 782.8551,-162.5001"/>
</g>
<!-- PerfilModule -->
<g id="node5" class="node">
<title>PerfilModule</title>
<polygon fill="#8dd3c7" stroke="#000000" points="979.1501,-122 976.1501,-126 955.1501,-126 952.1501,-122 888.8499,-122 888.8499,-86 979.1501,-86 979.1501,-122"/>
<text text-anchor="middle" x="934" y="-99.8" font-family="Times,serif" font-size="14.00" fill="#000000">PerfilModule</text>
</g>
<!-- PerfilModule&#45;&gt;InventarioModule -->
<g id="edge4" class="edge">
<title>PerfilModule&#45;&gt;InventarioModule</title>
<path fill="none" stroke="#000000" d="M934,-122.0091C934,-138.0494 934,-159 934,-159 934,-159 782.667,-159 782.667,-159"/>
<polygon fill="#000000" stroke="#000000" points="782.667,-155.5001 772.667,-159 782.6669,-162.5001 782.667,-155.5001"/>
</g>
<!-- BloquearPantallaModule -->
<g id="node6" class="node">
<title>BloquearPantallaModule</title>
<polygon fill="#8dd3c7" stroke="#000000" points="870.965,-122 867.965,-126 846.965,-126 843.965,-122 715.035,-122 715.035,-86 870.965,-86 870.965,-122"/>
<text text-anchor="middle" x="793" y="-99.8" font-family="Times,serif" font-size="14.00" fill="#000000">BloquearPantallaModule</text>
</g>
<!-- BloquearPantallaModule&#45;&gt;InventarioModule -->
<g id="edge5" class="edge">
<title>BloquearPantallaModule&#45;&gt;InventarioModule</title>
<path fill="none" stroke="#000000" d="M743.7791,-122.1061C743.7791,-122.1061 743.7791,-140.991 743.7791,-140.991"/>
<polygon fill="#000000" stroke="#000000" points="740.2792,-140.9909 743.7791,-150.991 747.2792,-140.991 740.2792,-140.9909"/>
</g>
<!-- PaginacionModule -->
<g id="node7" class="node">
<title>PaginacionModule</title>
<polygon fill="#8dd3c7" stroke="#000000" points="696.7576,-122 693.7576,-126 672.7576,-126 669.7576,-122 575.2424,-122 575.2424,-86 696.7576,-86 696.7576,-122"/>
<text text-anchor="middle" x="636" y="-99.8" font-family="Times,serif" font-size="14.00" fill="#000000">PaginacionModule</text>
</g>
<!-- PaginacionModule&#45;&gt;InventarioModule -->
<g id="edge6" class="edge">
<title>PaginacionModule&#45;&gt;InventarioModule</title>
<path fill="none" stroke="#000000" d="M676.169,-122.1061C676.169,-122.1061 676.169,-140.991 676.169,-140.991"/>
<polygon fill="#000000" stroke="#000000" points="672.6691,-140.9909 676.169,-150.991 679.6691,-140.991 672.6691,-140.9909"/>
</g>
<!-- IndexInventarioModule -->
<g id="node8" class="node">
<title>IndexInventarioModule</title>
<polygon fill="#8dd3c7" stroke="#000000" points="557.4566,-122 554.4566,-126 533.4566,-126 530.4566,-122 408.5434,-122 408.5434,-86 557.4566,-86 557.4566,-122"/>
<text text-anchor="middle" x="483" y="-99.8" font-family="Times,serif" font-size="14.00" fill="#000000">IndexInventarioModule</text>
</g>
<!-- IndexInventarioModule&#45;&gt;InventarioModule -->
<g id="edge7" class="edge">
<title>IndexInventarioModule&#45;&gt;InventarioModule</title>
<path fill="none" stroke="#000000" d="M483,-122.0091C483,-138.0494 483,-159 483,-159 483,-159 645.4103,-159 645.4103,-159"/>
<polygon fill="#000000" stroke="#000000" points="645.4104,-162.5001 655.4103,-159 645.4103,-155.5001 645.4104,-162.5001"/>
</g>
<!-- CrudModule -->
<g id="node9" class="node">
<title>CrudModule</title>
<polygon fill="#8dd3c7" stroke="#000000" points="390.5482,-122 387.5482,-126 366.5482,-126 363.5482,-122 303.4518,-122 303.4518,-86 390.5482,-86 390.5482,-122"/>
<text text-anchor="middle" x="347" y="-99.8" font-family="Times,serif" font-size="14.00" fill="#000000">CrudModule</text>
</g>
<!-- CrudModule&#45;&gt;InventarioModule -->
<g id="edge8" class="edge">
<title>CrudModule&#45;&gt;InventarioModule</title>
<path fill="none" stroke="#000000" d="M347,-122.2667C347,-140.5552 347,-166 347,-166 347,-166 645.4419,-166 645.4419,-166"/>
<polygon fill="#000000" stroke="#000000" points="645.442,-169.5001 655.4419,-166 645.4419,-162.5001 645.442,-169.5001"/>
</g>
<!-- AuthService -->
<g id="node10" class="node">
<title>AuthService</title>
<ellipse fill="#fdb462" stroke="#000000" cx="220" cy="-104" rx="59.1083" ry="18"/>
<text text-anchor="middle" x="220" y="-99.8" font-family="Times,serif" font-size="14.00" fill="#000000">AuthService</text>
</g>
<!-- AuthService&#45;&gt;InventarioModule -->
<g id="edge9" class="edge">
<title>AuthService&#45;&gt;InventarioModule</title>
<path fill="none" stroke="#000000" d="M220,-122.1289C220,-142.5724 220,-173 220,-173 220,-173 645.3918,-173 645.3918,-173"/>
<polygon fill="#000000" stroke="#000000" points="645.3918,-176.5001 655.3918,-173 645.3918,-169.5001 645.3918,-176.5001"/>
</g>
<!-- CrudService -->
<g id="node11" class="node">
<title>CrudService</title>
<ellipse fill="#fdb462" stroke="#000000" cx="83" cy="-104" rx="59.1083" ry="18"/>
<text text-anchor="middle" x="83" y="-99.8" font-family="Times,serif" font-size="14.00" fill="#000000">CrudService</text>
</g>
<!-- CrudService&#45;&gt;InventarioModule -->
<g id="edge10" class="edge">
<title>CrudService&#45;&gt;InventarioModule</title>
<path fill="none" stroke="#000000" d="M83,-122.0109C83,-144.4852 83,-180 83,-180 83,-180 645.2037,-180 645.2037,-180"/>
<polygon fill="#000000" stroke="#000000" points="645.2037,-183.5001 655.2037,-180 645.2036,-176.5001 645.2037,-183.5001"/>
</g>
</g>
</svg>
