<?xml version="1.0" encoding="UTF-8" standalone="no"?>
<!DOCTYPE svg PUBLIC "-//W3C//DTD SVG 1.1//EN"
 "http://www.w3.org/Graphics/SVG/1.1/DTD/svg11.dtd">
<!-- Generated by graphviz version 2.40.1 (20161225.0304)
 -->
<!-- Title: dependencies Pages: 1 -->
<svg width="1689pt" height="211pt"
 viewBox="0.00 0.00 1689.00 211.00" xmlns="http://www.w3.org/2000/svg" xmlns:xlink="http://www.w3.org/1999/xlink">
<g id="graph0" class="graph" transform="scale(1 1) rotate(0) translate(4 207)">
<title>dependencies</title>
<polygon fill="#ffffff" stroke="transparent" points="-4,4 -4,-207 1685,-207 1685,4 -4,4"/>
<text text-anchor="start" x="819.5091" y="-42.4" font-family="sans-serif" font-weight="bold" font-size="14.00" fill="#000000">Legend</text>
<polygon fill="#ffffb3" stroke="transparent" points="606.5,-10 606.5,-30 626.5,-30 626.5,-10 606.5,-10"/>
<text text-anchor="start" x="630.129" y="-15.4" font-family="sans-serif" font-size="14.00" fill="#000000"> &#160;Declarations</text>
<polygon fill="#8dd3c7" stroke="transparent" points="719.5,-10 719.5,-30 739.5,-30 739.5,-10 719.5,-10"/>
<text text-anchor="start" x="743.2251" y="-15.4" font-family="sans-serif" font-size="14.00" fill="#000000"> &#160;Module</text>
<polygon fill="#80b1d3" stroke="transparent" points="805.5,-10 805.5,-30 825.5,-30 825.5,-10 805.5,-10"/>
<text text-anchor="start" x="829.2812" y="-15.4" font-family="sans-serif" font-size="14.00" fill="#000000"> &#160;Bootstrap</text>
<polygon fill="#fdb462" stroke="transparent" points="902.5,-10 902.5,-30 922.5,-30 922.5,-10 902.5,-10"/>
<text text-anchor="start" x="926.1732" y="-15.4" font-family="sans-serif" font-size="14.00" fill="#000000"> &#160;Providers</text>
<polygon fill="#fb8072" stroke="transparent" points="998.5,-10 998.5,-30 1018.5,-30 1018.5,-10 998.5,-10"/>
<text text-anchor="start" x="1022.2258" y="-15.4" font-family="sans-serif" font-size="14.00" fill="#000000"> &#160;Exports</text>
<g id="clust1" class="cluster">
<title>cluster_InicializacionInventarioModule</title>
<polygon fill="none" stroke="#000000" stroke-dasharray="1,5" points="8,-70 8,-195 1673,-195 1673,-70 8,-70"/>
</g>
<g id="clust2" class="cluster">
<title>cluster_InicializacionInventarioModule_declarations</title>
<polygon fill="none" stroke="#000000" points="1257,-78 1257,-130 1665,-130 1665,-78 1257,-78"/>
</g>
<g id="clust6" class="cluster">
<title>cluster_InicializacionInventarioModule_imports</title>
<polygon fill="none" stroke="#000000" points="304,-78 304,-130 1249,-130 1249,-78 304,-78"/>
</g>
<g id="clust9" class="cluster">
<title>cluster_InicializacionInventarioModule_providers</title>
<polygon fill="none" stroke="#000000" points="16,-78 16,-130 296,-130 296,-78 16,-78"/>
</g>
<!-- ListaComponent -->
<g id="node1" class="node">
<title>ListaComponent</title>
<polygon fill="#ffffb3" stroke="#000000" points="1656.8259,-122 1547.1741,-122 1547.1741,-86 1656.8259,-86 1656.8259,-122"/>
<text text-anchor="middle" x="1602" y="-99.8" font-family="Times,serif" font-size="14.00" fill="#000000">ListaComponent</text>
</g>
<!-- InicializacionInventarioModule -->
<g id="node4" class="node">
<title>InicializacionInventarioModule</title>
<polygon fill="#8dd3c7" stroke="#000000" points="1119.7682,-187 1116.7682,-191 1095.7682,-191 1092.7682,-187 926.2318,-187 926.2318,-151 1119.7682,-151 1119.7682,-187"/>
<text text-anchor="middle" x="1023" y="-164.8" font-family="Times,serif" font-size="14.00" fill="#000000">InicializacionInventarioModule</text>
</g>
<!-- ListaComponent&#45;&gt;InicializacionInventarioModule -->
<g id="edge1" class="edge">
<title>ListaComponent&#45;&gt;InicializacionInventarioModule</title>
<path fill="none" stroke="#000000" d="M1602,-122.0109C1602,-144.4852 1602,-180 1602,-180 1602,-180 1129.9116,-180 1129.9116,-180"/>
<polygon fill="#000000" stroke="#000000" points="1129.9116,-176.5001 1119.9116,-180 1129.9115,-183.5001 1129.9116,-176.5001"/>
</g>
<!-- FormularioComponent -->
<g id="node2" class="node">
<title>FormularioComponent</title>
<polygon fill="#ffffb3" stroke="#000000" points="1529.323,-122 1384.677,-122 1384.677,-86 1529.323,-86 1529.323,-122"/>
<text text-anchor="middle" x="1457" y="-99.8" font-family="Times,serif" font-size="14.00" fill="#000000">FormularioComponent</text>
</g>
<!-- FormularioComponent&#45;&gt;InicializacionInventarioModule -->
<g id="edge2" class="edge">
<title>FormularioComponent&#45;&gt;InicializacionInventarioModule</title>
<path fill="none" stroke="#000000" d="M1457,-122.1289C1457,-142.5724 1457,-173 1457,-173 1457,-173 1129.8579,-173 1129.8579,-173"/>
<polygon fill="#000000" stroke="#000000" points="1129.8579,-169.5001 1119.8579,-173 1129.8579,-176.5001 1129.8579,-169.5001"/>
</g>
<!-- VerComponent -->
<g id="node3" class="node">
<title>VerComponent</title>
<polygon fill="#ffffb3" stroke="#000000" points="1367.3147,-122 1264.6853,-122 1264.6853,-86 1367.3147,-86 1367.3147,-122"/>
<text text-anchor="middle" x="1316" y="-99.8" font-family="Times,serif" font-size="14.00" fill="#000000">VerComponent</text>
</g>
<!-- VerComponent&#45;&gt;InicializacionInventarioModule -->
<g id="edge3" class="edge">
<title>VerComponent&#45;&gt;InicializacionInventarioModule</title>
<path fill="none" stroke="#000000" d="M1316,-122.2667C1316,-140.5552 1316,-166 1316,-166 1316,-166 1129.7512,-166 1129.7512,-166"/>
<polygon fill="#000000" stroke="#000000" points="1129.7512,-162.5001 1119.7512,-166 1129.7512,-169.5001 1129.7512,-162.5001"/>
</g>
<!-- HubModule -->
<g id="node5" class="node">
<title>HubModule</title>
<polygon fill="#8dd3c7" stroke="#000000" points="1240.6571,-122 1237.6571,-126 1216.6571,-126 1213.6571,-122 1157.3429,-122 1157.3429,-86 1240.6571,-86 1240.6571,-122"/>
<text text-anchor="middle" x="1199" y="-99.8" font-family="Times,serif" font-size="14.00" fill="#000000">HubModule</text>
</g>
<!-- HubModule&#45;&gt;InicializacionInventarioModule -->
<g id="edge4" class="edge">
<title>HubModule&#45;&gt;InicializacionInventarioModule</title>
<path fill="none" stroke="#000000" d="M1199,-122.0091C1199,-138.0494 1199,-159 1199,-159 1199,-159 1129.7527,-159 1129.7527,-159"/>
<polygon fill="#000000" stroke="#000000" points="1129.7528,-155.5001 1119.7527,-159 1129.7527,-162.5001 1129.7528,-155.5001"/>
</g>
<!-- PerfilModule -->
<g id="node6" class="node">
<title>PerfilModule</title>
<polygon fill="#8dd3c7" stroke="#000000" points="1139.1501,-122 1136.1501,-126 1115.1501,-126 1112.1501,-122 1048.8499,-122 1048.8499,-86 1139.1501,-86 1139.1501,-122"/>
<text text-anchor="middle" x="1094" y="-99.8" font-family="Times,serif" font-size="14.00" fill="#000000">PerfilModule</text>
</g>
<!-- PerfilModule&#45;&gt;InicializacionInventarioModule -->
<g id="edge5" class="edge">
<title>PerfilModule&#45;&gt;InicializacionInventarioModule</title>
<path fill="none" stroke="#000000" d="M1084.1547,-122.1061C1084.1547,-122.1061 1084.1547,-140.991 1084.1547,-140.991"/>
<polygon fill="#000000" stroke="#000000" points="1080.6547,-140.9909 1084.1547,-150.991 1087.6547,-140.991 1080.6547,-140.9909"/>
</g>
<!-- BloquearPantallaModule -->
<g id="node7" class="node">
<title>BloquearPantallaModule</title>
<polygon fill="#8dd3c7" stroke="#000000" points="1030.965,-122 1027.965,-126 1006.965,-126 1003.965,-122 875.035,-122 875.035,-86 1030.965,-86 1030.965,-122"/>
<text text-anchor="middle" x="953" y="-99.8" font-family="Times,serif" font-size="14.00" fill="#000000">BloquearPantallaModule</text>
</g>
<!-- BloquearPantallaModule&#45;&gt;InicializacionInventarioModule -->
<g id="edge6" class="edge">
<title>BloquearPantallaModule&#45;&gt;InicializacionInventarioModule</title>
<path fill="none" stroke="#000000" d="M978.6743,-122.1061C978.6743,-122.1061 978.6743,-140.991 978.6743,-140.991"/>
<polygon fill="#000000" stroke="#000000" points="975.1743,-140.9909 978.6743,-150.991 982.1743,-140.991 975.1743,-140.9909"/>
</g>
<!-- PaginacionModule -->
<g id="node8" class="node">
<title>PaginacionModule</title>
<polygon fill="#8dd3c7" stroke="#000000" points="856.7576,-122 853.7576,-126 832.7576,-126 829.7576,-122 735.2424,-122 735.2424,-86 856.7576,-86 856.7576,-122"/>
<text text-anchor="middle" x="796" y="-99.8" font-family="Times,serif" font-size="14.00" fill="#000000">PaginacionModule</text>
</g>
<!-- PaginacionModule&#45;&gt;InicializacionInventarioModule -->
<g id="edge7" class="edge">
<title>PaginacionModule&#45;&gt;InicializacionInventarioModule</title>
<path fill="none" stroke="#000000" d="M796,-122.0091C796,-138.0494 796,-159 796,-159 796,-159 916.0731,-159 916.0731,-159"/>
<polygon fill="#000000" stroke="#000000" points="916.0732,-162.5001 926.0731,-159 916.0731,-155.5001 916.0732,-162.5001"/>
</g>
<!-- InicializacionInventarioRoutingModule -->
<g id="node9" class="node">
<title>InicializacionInventarioRoutingModule</title>
<polygon fill="#8dd3c7" stroke="#000000" points="717.3861,-122 714.3861,-126 693.3861,-126 690.3861,-122 478.6139,-122 478.6139,-86 717.3861,-86 717.3861,-122"/>
<text text-anchor="middle" x="598" y="-99.8" font-family="Times,serif" font-size="14.00" fill="#000000">InicializacionInventarioRoutingModule</text>
</g>
<!-- InicializacionInventarioRoutingModule&#45;&gt;InicializacionInventarioModule -->
<g id="edge8" class="edge">
<title>InicializacionInventarioRoutingModule&#45;&gt;InicializacionInventarioModule</title>
<path fill="none" stroke="#000000" d="M598,-122.2667C598,-140.5552 598,-166 598,-166 598,-166 916.2951,-166 916.2951,-166"/>
<polygon fill="#000000" stroke="#000000" points="916.2952,-169.5001 926.2951,-166 916.2951,-162.5001 916.2952,-169.5001"/>
</g>
<!-- IndexInventarioModule -->
<g id="node10" class="node">
<title>IndexInventarioModule</title>
<polygon fill="#8dd3c7" stroke="#000000" points="460.4566,-122 457.4566,-126 436.4566,-126 433.4566,-122 311.5434,-122 311.5434,-86 460.4566,-86 460.4566,-122"/>
<text text-anchor="middle" x="386" y="-99.8" font-family="Times,serif" font-size="14.00" fill="#000000">IndexInventarioModule</text>
</g>
<!-- IndexInventarioModule&#45;&gt;InicializacionInventarioModule -->
<g id="edge9" class="edge">
<title>IndexInventarioModule&#45;&gt;InicializacionInventarioModule</title>
<path fill="none" stroke="#000000" d="M386,-122.1289C386,-142.5724 386,-173 386,-173 386,-173 916.2534,-173 916.2534,-173"/>
<polygon fill="#000000" stroke="#000000" points="916.2534,-176.5001 926.2534,-173 916.2534,-169.5001 916.2534,-176.5001"/>
</g>
<!-- InicializacionInventarioService -->
<g id="node11" class="node">
<title>InicializacionInventarioService</title>
<ellipse fill="#fdb462" stroke="#000000" cx="156" cy="-104" rx="132.4569" ry="18"/>
<text text-anchor="middle" x="156" y="-99.8" font-family="Times,serif" font-size="14.00" fill="#000000">InicializacionInventarioService</text>
</g>
<!-- InicializacionInventarioService&#45;&gt;InicializacionInventarioModule -->
<g id="edge10" class="edge">
<title>InicializacionInventarioService&#45;&gt;InicializacionInventarioModule</title>
<path fill="none" stroke="#000000" d="M156,-122.0109C156,-144.4852 156,-180 156,-180 156,-180 916.0678,-180 916.0678,-180"/>
<polygon fill="#000000" stroke="#000000" points="916.0678,-183.5001 926.0678,-180 916.0677,-176.5001 916.0678,-183.5001"/>
</g>
</g>
</svg>
