<?xml version="1.0" encoding="UTF-8" standalone="no"?>
<!DOCTYPE svg PUBLIC "-//W3C//DTD SVG 1.1//EN"
 "http://www.w3.org/Graphics/SVG/1.1/DTD/svg11.dtd">
<!-- Generated by graphviz version 2.40.1 (20161225.0304)
 -->
<!-- Title: dependencies Pages: 1 -->
<svg width="1500pt" height="211pt"
 viewBox="0.00 0.00 1500.00 211.00" xmlns="http://www.w3.org/2000/svg" xmlns:xlink="http://www.w3.org/1999/xlink">
<g id="graph0" class="graph" transform="scale(1 1) rotate(0) translate(4 207)">
<title>dependencies</title>
<polygon fill="#ffffff" stroke="transparent" points="-4,4 -4,-207 1496,-207 1496,4 -4,4"/>
<text text-anchor="start" x="725.0091" y="-42.4" font-family="sans-serif" font-weight="bold" font-size="14.00" fill="#000000">Legend</text>
<polygon fill="#ffffb3" stroke="transparent" points="512,-10 512,-30 532,-30 532,-10 512,-10"/>
<text text-anchor="start" x="535.629" y="-15.4" font-family="sans-serif" font-size="14.00" fill="#000000"> &#160;Declarations</text>
<polygon fill="#8dd3c7" stroke="transparent" points="625,-10 625,-30 645,-30 645,-10 625,-10"/>
<text text-anchor="start" x="648.7251" y="-15.4" font-family="sans-serif" font-size="14.00" fill="#000000"> &#160;Module</text>
<polygon fill="#80b1d3" stroke="transparent" points="711,-10 711,-30 731,-30 731,-10 711,-10"/>
<text text-anchor="start" x="734.7812" y="-15.4" font-family="sans-serif" font-size="14.00" fill="#000000"> &#160;Bootstrap</text>
<polygon fill="#fdb462" stroke="transparent" points="808,-10 808,-30 828,-30 828,-10 808,-10"/>
<text text-anchor="start" x="831.6732" y="-15.4" font-family="sans-serif" font-size="14.00" fill="#000000"> &#160;Providers</text>
<polygon fill="#fb8072" stroke="transparent" points="904,-10 904,-30 924,-30 924,-10 904,-10"/>
<text text-anchor="start" x="927.7258" y="-15.4" font-family="sans-serif" font-size="14.00" fill="#000000"> &#160;Exports</text>
<g id="clust1" class="cluster">
<title>cluster_MovimientosGeneralesModule</title>
<polygon fill="none" stroke="#000000" stroke-dasharray="1,5" points="8,-70 8,-195 1484,-195 1484,-70 8,-70"/>
</g>
<g id="clust2" class="cluster">
<title>cluster_MovimientosGeneralesModule_declarations</title>
<polygon fill="none" stroke="#000000" points="1350,-78 1350,-130 1476,-130 1476,-78 1350,-78"/>
</g>
<g id="clust4" class="cluster">
<title>cluster_MovimientosGeneralesModule_imports</title>
<polygon fill="none" stroke="#000000" points="295,-78 295,-130 1342,-130 1342,-78 295,-78"/>
</g>
<g id="clust7" class="cluster">
<title>cluster_MovimientosGeneralesModule_providers</title>
<polygon fill="none" stroke="#000000" points="16,-78 16,-130 287,-130 287,-78 16,-78"/>
</g>
<!-- ListaComponent -->
<g id="node1" class="node">
<title>ListaComponent</title>
<polygon fill="#ffffb3" stroke="#000000" points="1467.8259,-122 1358.1741,-122 1358.1741,-86 1467.8259,-86 1467.8259,-122"/>
<text text-anchor="middle" x="1413" y="-99.8" font-family="Times,serif" font-size="14.00" fill="#000000">ListaComponent</text>
</g>
<!-- MovimientosGeneralesModule -->
<g id="node2" class="node">
<title>MovimientosGeneralesModule</title>
<polygon fill="#8dd3c7" stroke="#000000" points="809.1769,-187 806.1769,-191 785.1769,-191 782.1769,-187 618.8231,-187 618.8231,-151 809.1769,-151 809.1769,-187"/>
<text text-anchor="middle" x="714" y="-164.8" font-family="Times,serif" font-size="14.00" fill="#000000">MovimientosGeneralesModule</text>
</g>
<!-- ListaComponent&#45;&gt;MovimientosGeneralesModule -->
<g id="edge1" class="edge">
<title>ListaComponent&#45;&gt;MovimientosGeneralesModule</title>
<path fill="none" stroke="#000000" d="M1413,-122.0109C1413,-144.4852 1413,-180 1413,-180 1413,-180 819.3622,-180 819.3622,-180"/>
<polygon fill="#000000" stroke="#000000" points="819.3623,-176.5001 809.3622,-180 819.3622,-183.5001 819.3623,-176.5001"/>
</g>
<!-- MovimientosGeneralesRoutingModule -->
<g id="node3" class="node">
<title>MovimientosGeneralesRoutingModule</title>
<polygon fill="#8dd3c7" stroke="#000000" points="1333.7948,-122 1330.7948,-126 1309.7948,-126 1306.7948,-122 1098.2052,-122 1098.2052,-86 1333.7948,-86 1333.7948,-122"/>
<text text-anchor="middle" x="1216" y="-99.8" font-family="Times,serif" font-size="14.00" fill="#000000">MovimientosGeneralesRoutingModule</text>
</g>
<!-- MovimientosGeneralesRoutingModule&#45;&gt;MovimientosGeneralesModule -->
<g id="edge2" class="edge">
<title>MovimientosGeneralesRoutingModule&#45;&gt;MovimientosGeneralesModule</title>
<path fill="none" stroke="#000000" d="M1216,-122.1289C1216,-142.5724 1216,-173 1216,-173 1216,-173 819.3081,-173 819.3081,-173"/>
<polygon fill="#000000" stroke="#000000" points="819.3081,-169.5001 809.3081,-173 819.3081,-176.5001 819.3081,-169.5001"/>
</g>
<!-- HubModule -->
<g id="node4" class="node">
<title>HubModule</title>
<polygon fill="#8dd3c7" stroke="#000000" points="1080.6571,-122 1077.6571,-126 1056.6571,-126 1053.6571,-122 997.3429,-122 997.3429,-86 1080.6571,-86 1080.6571,-122"/>
<text text-anchor="middle" x="1039" y="-99.8" font-family="Times,serif" font-size="14.00" fill="#000000">HubModule</text>
</g>
<!-- HubModule&#45;&gt;MovimientosGeneralesModule -->
<g id="edge3" class="edge">
<title>HubModule&#45;&gt;MovimientosGeneralesModule</title>
<path fill="none" stroke="#000000" d="M1039,-122.2667C1039,-140.5552 1039,-166 1039,-166 1039,-166 819.3148,-166 819.3148,-166"/>
<polygon fill="#000000" stroke="#000000" points="819.3148,-162.5001 809.3148,-166 819.3147,-169.5001 819.3148,-162.5001"/>
</g>
<!-- PerfilModule -->
<g id="node5" class="node">
<title>PerfilModule</title>
<polygon fill="#8dd3c7" stroke="#000000" points="979.1501,-122 976.1501,-126 955.1501,-126 952.1501,-122 888.8499,-122 888.8499,-86 979.1501,-86 979.1501,-122"/>
<text text-anchor="middle" x="934" y="-99.8" font-family="Times,serif" font-size="14.00" fill="#000000">PerfilModule</text>
</g>
<!-- PerfilModule&#45;&gt;MovimientosGeneralesModule -->
<g id="edge4" class="edge">
<title>PerfilModule&#45;&gt;MovimientosGeneralesModule</title>
<path fill="none" stroke="#000000" d="M934,-122.0091C934,-138.0494 934,-159 934,-159 934,-159 819.2157,-159 819.2157,-159"/>
<polygon fill="#000000" stroke="#000000" points="819.2157,-155.5001 809.2157,-159 819.2156,-162.5001 819.2157,-155.5001"/>
</g>
<!-- BloquearPantallaModule -->
<g id="node6" class="node">
<title>BloquearPantallaModule</title>
<polygon fill="#8dd3c7" stroke="#000000" points="870.965,-122 867.965,-126 846.965,-126 843.965,-122 715.035,-122 715.035,-86 870.965,-86 870.965,-122"/>
<text text-anchor="middle" x="793" y="-99.8" font-family="Times,serif" font-size="14.00" fill="#000000">BloquearPantallaModule</text>
</g>
<!-- BloquearPantallaModule&#45;&gt;MovimientosGeneralesModule -->
<g id="edge5" class="edge">
<title>BloquearPantallaModule&#45;&gt;MovimientosGeneralesModule</title>
<path fill="none" stroke="#000000" d="M762.053,-122.1061C762.053,-122.1061 762.053,-140.991 762.053,-140.991"/>
<polygon fill="#000000" stroke="#000000" points="758.553,-140.9909 762.053,-150.991 765.553,-140.991 758.553,-140.9909"/>
</g>
<!-- PaginacionModule -->
<g id="node7" class="node">
<title>PaginacionModule</title>
<polygon fill="#8dd3c7" stroke="#000000" points="696.7576,-122 693.7576,-126 672.7576,-126 669.7576,-122 575.2424,-122 575.2424,-86 696.7576,-86 696.7576,-122"/>
<text text-anchor="middle" x="636" y="-99.8" font-family="Times,serif" font-size="14.00" fill="#000000">PaginacionModule</text>
</g>
<!-- PaginacionModule&#45;&gt;MovimientosGeneralesModule -->
<g id="edge6" class="edge">
<title>PaginacionModule&#45;&gt;MovimientosGeneralesModule</title>
<path fill="none" stroke="#000000" d="M657.8952,-122.1061C657.8952,-122.1061 657.8952,-140.991 657.8952,-140.991"/>
<polygon fill="#000000" stroke="#000000" points="654.3952,-140.9909 657.8952,-150.991 661.3952,-140.991 654.3952,-140.9909"/>
</g>
<!-- IndexInventarioModule -->
<g id="node8" class="node">
<title>IndexInventarioModule</title>
<polygon fill="#8dd3c7" stroke="#000000" points="557.4566,-122 554.4566,-126 533.4566,-126 530.4566,-122 408.5434,-122 408.5434,-86 557.4566,-86 557.4566,-122"/>
<text text-anchor="middle" x="483" y="-99.8" font-family="Times,serif" font-size="14.00" fill="#000000">IndexInventarioModule</text>
</g>
<!-- IndexInventarioModule&#45;&gt;MovimientosGeneralesModule -->
<g id="edge7" class="edge">
<title>IndexInventarioModule&#45;&gt;MovimientosGeneralesModule</title>
<path fill="none" stroke="#000000" d="M483,-122.0091C483,-138.0494 483,-159 483,-159 483,-159 608.7098,-159 608.7098,-159"/>
<polygon fill="#000000" stroke="#000000" points="608.7098,-162.5001 618.7098,-159 608.7098,-155.5001 608.7098,-162.5001"/>
</g>
<!-- CrudModule -->
<g id="node9" class="node">
<title>CrudModule</title>
<polygon fill="#8dd3c7" stroke="#000000" points="390.5482,-122 387.5482,-126 366.5482,-126 363.5482,-122 303.4518,-122 303.4518,-86 390.5482,-86 390.5482,-122"/>
<text text-anchor="middle" x="347" y="-99.8" font-family="Times,serif" font-size="14.00" fill="#000000">CrudModule</text>
</g>
<!-- CrudModule&#45;&gt;MovimientosGeneralesModule -->
<g id="edge8" class="edge">
<title>CrudModule&#45;&gt;MovimientosGeneralesModule</title>
<path fill="none" stroke="#000000" d="M347,-122.2667C347,-140.5552 347,-166 347,-166 347,-166 608.5331,-166 608.5331,-166"/>
<polygon fill="#000000" stroke="#000000" points="608.5332,-169.5001 618.5331,-166 608.5331,-162.5001 608.5332,-169.5001"/>
</g>
<!-- AuthService -->
<g id="node10" class="node">
<title>AuthService</title>
<ellipse fill="#fdb462" stroke="#000000" cx="220" cy="-104" rx="59.1083" ry="18"/>
<text text-anchor="middle" x="220" y="-99.8" font-family="Times,serif" font-size="14.00" fill="#000000">AuthService</text>
</g>
<!-- AuthService&#45;&gt;MovimientosGeneralesModule -->
<g id="edge9" class="edge">
<title>AuthService&#45;&gt;MovimientosGeneralesModule</title>
<path fill="none" stroke="#000000" d="M220,-122.1289C220,-142.5724 220,-173 220,-173 220,-173 608.7518,-173 608.7518,-173"/>
<polygon fill="#000000" stroke="#000000" points="608.7519,-176.5001 618.7518,-173 608.7518,-169.5001 608.7519,-176.5001"/>
</g>
<!-- CrudService -->
<g id="node11" class="node">
<title>CrudService</title>
<ellipse fill="#fdb462" stroke="#000000" cx="83" cy="-104" rx="59.1083" ry="18"/>
<text text-anchor="middle" x="83" y="-99.8" font-family="Times,serif" font-size="14.00" fill="#000000">CrudService</text>
</g>
<!-- CrudService&#45;&gt;MovimientosGeneralesModule -->
<g id="edge10" class="edge">
<title>CrudService&#45;&gt;MovimientosGeneralesModule</title>
<path fill="none" stroke="#000000" d="M83,-122.0109C83,-144.4852 83,-180 83,-180 83,-180 608.8497,-180 608.8497,-180"/>
<polygon fill="#000000" stroke="#000000" points="608.8498,-183.5001 618.8497,-180 608.8497,-176.5001 608.8498,-183.5001"/>
</g>
</g>
</svg>
