<?xml version="1.0" encoding="UTF-8" standalone="no"?>
<!DOCTYPE svg PUBLIC "-//W3C//DTD SVG 1.1//EN"
 "http://www.w3.org/Graphics/SVG/1.1/DTD/svg11.dtd">
<!-- Generated by graphviz version 2.40.1 (20161225.0304)
 -->
<!-- Title: dependencies Pages: 1 -->
<svg width="1431pt" height="211pt"
 viewBox="0.00 0.00 1431.00 211.00" xmlns="http://www.w3.org/2000/svg" xmlns:xlink="http://www.w3.org/1999/xlink">
<g id="graph0" class="graph" transform="scale(1 1) rotate(0) translate(4 207)">
<title>dependencies</title>
<polygon fill="#ffffff" stroke="transparent" points="-4,4 -4,-207 1427,-207 1427,4 -4,4"/>
<text text-anchor="start" x="690.5091" y="-42.4" font-family="sans-serif" font-weight="bold" font-size="14.00" fill="#000000">Legend</text>
<polygon fill="#ffffb3" stroke="transparent" points="477.5,-10 477.5,-30 497.5,-30 497.5,-10 477.5,-10"/>
<text text-anchor="start" x="501.129" y="-15.4" font-family="sans-serif" font-size="14.00" fill="#000000"> &#160;Declarations</text>
<polygon fill="#8dd3c7" stroke="transparent" points="590.5,-10 590.5,-30 610.5,-30 610.5,-10 590.5,-10"/>
<text text-anchor="start" x="614.2251" y="-15.4" font-family="sans-serif" font-size="14.00" fill="#000000"> &#160;Module</text>
<polygon fill="#80b1d3" stroke="transparent" points="676.5,-10 676.5,-30 696.5,-30 696.5,-10 676.5,-10"/>
<text text-anchor="start" x="700.2812" y="-15.4" font-family="sans-serif" font-size="14.00" fill="#000000"> &#160;Bootstrap</text>
<polygon fill="#fdb462" stroke="transparent" points="773.5,-10 773.5,-30 793.5,-30 793.5,-10 773.5,-10"/>
<text text-anchor="start" x="797.1732" y="-15.4" font-family="sans-serif" font-size="14.00" fill="#000000"> &#160;Providers</text>
<polygon fill="#fb8072" stroke="transparent" points="869.5,-10 869.5,-30 889.5,-30 889.5,-10 869.5,-10"/>
<text text-anchor="start" x="893.2258" y="-15.4" font-family="sans-serif" font-size="14.00" fill="#000000"> &#160;Exports</text>
<g id="clust1" class="cluster">
<title>cluster_CaducadosModule</title>
<polygon fill="none" stroke="#000000" stroke-dasharray="1,5" points="8,-70 8,-195 1415,-195 1415,-70 8,-70"/>
</g>
<g id="clust2" class="cluster">
<title>cluster_CaducadosModule_declarations</title>
<polygon fill="none" stroke="#000000" points="1281,-78 1281,-130 1407,-130 1407,-78 1281,-78"/>
</g>
<g id="clust4" class="cluster">
<title>cluster_CaducadosModule_imports</title>
<polygon fill="none" stroke="#000000" points="295,-78 295,-130 1273,-130 1273,-78 295,-78"/>
</g>
<g id="clust7" class="cluster">
<title>cluster_CaducadosModule_providers</title>
<polygon fill="none" stroke="#000000" points="16,-78 16,-130 287,-130 287,-78 16,-78"/>
</g>
<!-- ListaComponent -->
<g id="node1" class="node">
<title>ListaComponent</title>
<polygon fill="#ffffb3" stroke="#000000" points="1398.8259,-122 1289.1741,-122 1289.1741,-86 1398.8259,-86 1398.8259,-122"/>
<text text-anchor="middle" x="1344" y="-99.8" font-family="Times,serif" font-size="14.00" fill="#000000">ListaComponent</text>
</g>
<!-- CaducadosModule -->
<g id="node2" class="node">
<title>CaducadosModule</title>
<polygon fill="#8dd3c7" stroke="#000000" points="774.4748,-187 771.4748,-191 750.4748,-191 747.4748,-187 653.5252,-187 653.5252,-151 774.4748,-151 774.4748,-187"/>
<text text-anchor="middle" x="714" y="-164.8" font-family="Times,serif" font-size="14.00" fill="#000000">CaducadosModule</text>
</g>
<!-- ListaComponent&#45;&gt;CaducadosModule -->
<g id="edge1" class="edge">
<title>ListaComponent&#45;&gt;CaducadosModule</title>
<path fill="none" stroke="#000000" d="M1344,-122.0109C1344,-144.4852 1344,-180 1344,-180 1344,-180 784.693,-180 784.693,-180"/>
<polygon fill="#000000" stroke="#000000" points="784.693,-176.5001 774.693,-180 784.693,-183.5001 784.693,-176.5001"/>
</g>
<!-- CaducadosRoutingModule -->
<g id="node3" class="node">
<title>CaducadosRoutingModule</title>
<polygon fill="#8dd3c7" stroke="#000000" points="1265.0926,-122 1262.0926,-126 1241.0926,-126 1238.0926,-122 1098.9074,-122 1098.9074,-86 1265.0926,-86 1265.0926,-122"/>
<text text-anchor="middle" x="1182" y="-99.8" font-family="Times,serif" font-size="14.00" fill="#000000">CaducadosRoutingModule</text>
</g>
<!-- CaducadosRoutingModule&#45;&gt;CaducadosModule -->
<g id="edge2" class="edge">
<title>CaducadosRoutingModule&#45;&gt;CaducadosModule</title>
<path fill="none" stroke="#000000" d="M1182,-122.1289C1182,-142.5724 1182,-173 1182,-173 1182,-173 784.703,-173 784.703,-173"/>
<polygon fill="#000000" stroke="#000000" points="784.7031,-169.5001 774.703,-173 784.703,-176.5001 784.7031,-169.5001"/>
</g>
<!-- HubModule -->
<g id="node4" class="node">
<title>HubModule</title>
<polygon fill="#8dd3c7" stroke="#000000" points="1080.6571,-122 1077.6571,-126 1056.6571,-126 1053.6571,-122 997.3429,-122 997.3429,-86 1080.6571,-86 1080.6571,-122"/>
<text text-anchor="middle" x="1039" y="-99.8" font-family="Times,serif" font-size="14.00" fill="#000000">HubModule</text>
</g>
<!-- HubModule&#45;&gt;CaducadosModule -->
<g id="edge3" class="edge">
<title>HubModule&#45;&gt;CaducadosModule</title>
<path fill="none" stroke="#000000" d="M1039,-122.2667C1039,-140.5552 1039,-166 1039,-166 1039,-166 784.7488,-166 784.7488,-166"/>
<polygon fill="#000000" stroke="#000000" points="784.7488,-162.5001 774.7488,-166 784.7487,-169.5001 784.7488,-162.5001"/>
</g>
<!-- PerfilModule -->
<g id="node5" class="node">
<title>PerfilModule</title>
<polygon fill="#8dd3c7" stroke="#000000" points="979.1501,-122 976.1501,-126 955.1501,-126 952.1501,-122 888.8499,-122 888.8499,-86 979.1501,-86 979.1501,-122"/>
<text text-anchor="middle" x="934" y="-99.8" font-family="Times,serif" font-size="14.00" fill="#000000">PerfilModule</text>
</g>
<!-- PerfilModule&#45;&gt;CaducadosModule -->
<g id="edge4" class="edge">
<title>PerfilModule&#45;&gt;CaducadosModule</title>
<path fill="none" stroke="#000000" d="M934,-122.0091C934,-138.0494 934,-159 934,-159 934,-159 784.6983,-159 784.6983,-159"/>
<polygon fill="#000000" stroke="#000000" points="784.6984,-155.5001 774.6983,-159 784.6983,-162.5001 784.6984,-155.5001"/>
</g>
<!-- BloquearPantallaModule -->
<g id="node6" class="node">
<title>BloquearPantallaModule</title>
<polygon fill="#8dd3c7" stroke="#000000" points="870.965,-122 867.965,-126 846.965,-126 843.965,-122 715.035,-122 715.035,-86 870.965,-86 870.965,-122"/>
<text text-anchor="middle" x="793" y="-99.8" font-family="Times,serif" font-size="14.00" fill="#000000">BloquearPantallaModule</text>
</g>
<!-- BloquearPantallaModule&#45;&gt;CaducadosModule -->
<g id="edge5" class="edge">
<title>BloquearPantallaModule&#45;&gt;CaducadosModule</title>
<path fill="none" stroke="#000000" d="M744.7525,-122.1061C744.7525,-122.1061 744.7525,-140.991 744.7525,-140.991"/>
<polygon fill="#000000" stroke="#000000" points="741.2525,-140.9909 744.7525,-150.991 748.2525,-140.991 741.2525,-140.9909"/>
</g>
<!-- PaginacionModule -->
<g id="node7" class="node">
<title>PaginacionModule</title>
<polygon fill="#8dd3c7" stroke="#000000" points="696.7576,-122 693.7576,-126 672.7576,-126 669.7576,-122 575.2424,-122 575.2424,-86 696.7576,-86 696.7576,-122"/>
<text text-anchor="middle" x="636" y="-99.8" font-family="Times,serif" font-size="14.00" fill="#000000">PaginacionModule</text>
</g>
<!-- PaginacionModule&#45;&gt;CaducadosModule -->
<g id="edge6" class="edge">
<title>PaginacionModule&#45;&gt;CaducadosModule</title>
<path fill="none" stroke="#000000" d="M675.1957,-122.1061C675.1957,-122.1061 675.1957,-140.991 675.1957,-140.991"/>
<polygon fill="#000000" stroke="#000000" points="671.6957,-140.9909 675.1957,-150.991 678.6957,-140.991 671.6957,-140.9909"/>
</g>
<!-- IndexInventarioModule -->
<g id="node8" class="node">
<title>IndexInventarioModule</title>
<polygon fill="#8dd3c7" stroke="#000000" points="557.4566,-122 554.4566,-126 533.4566,-126 530.4566,-122 408.5434,-122 408.5434,-86 557.4566,-86 557.4566,-122"/>
<text text-anchor="middle" x="483" y="-99.8" font-family="Times,serif" font-size="14.00" fill="#000000">IndexInventarioModule</text>
</g>
<!-- IndexInventarioModule&#45;&gt;CaducadosModule -->
<g id="edge7" class="edge">
<title>IndexInventarioModule&#45;&gt;CaducadosModule</title>
<path fill="none" stroke="#000000" d="M483,-122.0091C483,-138.0494 483,-159 483,-159 483,-159 643.3075,-159 643.3075,-159"/>
<polygon fill="#000000" stroke="#000000" points="643.3075,-162.5001 653.3075,-159 643.3074,-155.5001 643.3075,-162.5001"/>
</g>
<!-- CrudModule -->
<g id="node9" class="node">
<title>CrudModule</title>
<polygon fill="#8dd3c7" stroke="#000000" points="390.5482,-122 387.5482,-126 366.5482,-126 363.5482,-122 303.4518,-122 303.4518,-86 390.5482,-86 390.5482,-122"/>
<text text-anchor="middle" x="347" y="-99.8" font-family="Times,serif" font-size="14.00" fill="#000000">CrudModule</text>
</g>
<!-- CrudModule&#45;&gt;CaducadosModule -->
<g id="edge8" class="edge">
<title>CrudModule&#45;&gt;CaducadosModule</title>
<path fill="none" stroke="#000000" d="M347,-122.2667C347,-140.5552 347,-166 347,-166 347,-166 643.3974,-166 643.3974,-166"/>
<polygon fill="#000000" stroke="#000000" points="643.3974,-169.5001 653.3974,-166 643.3974,-162.5001 643.3974,-169.5001"/>
</g>
<!-- AuthService -->
<g id="node10" class="node">
<title>AuthService</title>
<ellipse fill="#fdb462" stroke="#000000" cx="220" cy="-104" rx="59.1083" ry="18"/>
<text text-anchor="middle" x="220" y="-99.8" font-family="Times,serif" font-size="14.00" fill="#000000">AuthService</text>
</g>
<!-- AuthService&#45;&gt;CaducadosModule -->
<g id="edge9" class="edge">
<title>AuthService&#45;&gt;CaducadosModule</title>
<path fill="none" stroke="#000000" d="M220,-122.1289C220,-142.5724 220,-173 220,-173 220,-173 643.4259,-173 643.4259,-173"/>
<polygon fill="#000000" stroke="#000000" points="643.4259,-176.5001 653.4259,-173 643.4259,-169.5001 643.4259,-176.5001"/>
</g>
<!-- CrudService -->
<g id="node11" class="node">
<title>CrudService</title>
<ellipse fill="#fdb462" stroke="#000000" cx="83" cy="-104" rx="59.1083" ry="18"/>
<text text-anchor="middle" x="83" y="-99.8" font-family="Times,serif" font-size="14.00" fill="#000000">CrudService</text>
</g>
<!-- CrudService&#45;&gt;CaducadosModule -->
<g id="edge10" class="edge">
<title>CrudService&#45;&gt;CaducadosModule</title>
<path fill="none" stroke="#000000" d="M83,-122.0109C83,-144.4852 83,-180 83,-180 83,-180 643.4971,-180 643.4971,-180"/>
<polygon fill="#000000" stroke="#000000" points="643.4971,-183.5001 653.4971,-180 643.497,-176.5001 643.4971,-183.5001"/>
</g>
</g>
</svg>
