<?xml version="1.0" encoding="UTF-8" standalone="no"?>
<!DOCTYPE svg PUBLIC "-//W3C//DTD SVG 1.1//EN"
 "http://www.w3.org/Graphics/SVG/1.1/DTD/svg11.dtd">
<!-- Generated by graphviz version 2.40.1 (20161225.0304)
 -->
<!-- Title: dependencies Pages: 1 -->
<svg width="724pt" height="284pt"
 viewBox="0.00 0.00 724.00 284.00" xmlns="http://www.w3.org/2000/svg" xmlns:xlink="http://www.w3.org/1999/xlink">
<g id="graph0" class="graph" transform="scale(1 1) rotate(0) translate(4 280)">
<title>dependencies</title>
<polygon fill="#ffffff" stroke="transparent" points="-4,4 -4,-280 720,-280 720,4 -4,4"/>
<text text-anchor="start" x="337.0091" y="-42.4" font-family="sans-serif" font-weight="bold" font-size="14.00" fill="#000000">Legend</text>
<polygon fill="#ffffb3" stroke="transparent" points="124,-10 124,-30 144,-30 144,-10 124,-10"/>
<text text-anchor="start" x="147.629" y="-15.4" font-family="sans-serif" font-size="14.00" fill="#000000"> &#160;Declarations</text>
<polygon fill="#8dd3c7" stroke="transparent" points="237,-10 237,-30 257,-30 257,-10 237,-10"/>
<text text-anchor="start" x="260.7251" y="-15.4" font-family="sans-serif" font-size="14.00" fill="#000000"> &#160;Module</text>
<polygon fill="#80b1d3" stroke="transparent" points="323,-10 323,-30 343,-30 343,-10 323,-10"/>
<text text-anchor="start" x="346.7812" y="-15.4" font-family="sans-serif" font-size="14.00" fill="#000000"> &#160;Bootstrap</text>
<polygon fill="#fdb462" stroke="transparent" points="420,-10 420,-30 440,-30 440,-10 420,-10"/>
<text text-anchor="start" x="443.6732" y="-15.4" font-family="sans-serif" font-size="14.00" fill="#000000"> &#160;Providers</text>
<polygon fill="#fb8072" stroke="transparent" points="516,-10 516,-30 536,-30 536,-10 516,-10"/>
<text text-anchor="start" x="539.7258" y="-15.4" font-family="sans-serif" font-size="14.00" fill="#000000"> &#160;Exports</text>
<g id="clust1" class="cluster">
<title>cluster_MenuModule</title>
<polygon fill="none" stroke="#000000" stroke-dasharray="1,5" points="8,-70 8,-268 708,-268 708,-70 8,-70"/>
</g>
<g id="clust2" class="cluster">
<title>cluster_MenuModule_declarations</title>
<polygon fill="none" stroke="#000000" points="406,-78 406,-130 700,-130 700,-78 406,-78"/>
</g>
<g id="clust5" class="cluster">
<title>cluster_MenuModule_imports</title>
<polygon fill="none" stroke="#000000" points="16,-78 16,-130 398,-130 398,-78 16,-78"/>
</g>
<g id="clust6" class="cluster">
<title>cluster_MenuModule_exports</title>
<polygon fill="none" stroke="#000000" points="189,-208 189,-260 491,-260 491,-208 189,-208"/>
</g>
<!-- MenuComponent -->
<g id="node1" class="node">
<title>MenuComponent</title>
<polygon fill="#ffffb3" stroke="#000000" points="691.9916,-122 578.0084,-122 578.0084,-86 691.9916,-86 691.9916,-122"/>
<text text-anchor="middle" x="635" y="-99.8" font-family="Times,serif" font-size="14.00" fill="#000000">MenuComponent</text>
</g>
<!-- MenuModule -->
<g id="node3" class="node">
<title>MenuModule</title>
<polygon fill="#8dd3c7" stroke="#000000" points="394.2092,-187 391.2092,-191 370.2092,-191 367.2092,-187 301.7908,-187 301.7908,-151 394.2092,-151 394.2092,-187"/>
<text text-anchor="middle" x="348" y="-164.8" font-family="Times,serif" font-size="14.00" fill="#000000">MenuModule</text>
</g>
<!-- MenuComponent&#45;&gt;MenuModule -->
<g id="edge1" class="edge">
<title>MenuComponent&#45;&gt;MenuModule</title>
<path fill="none" stroke="#000000" d="M635,-122.2843C635,-143.3211 635,-175 635,-175 635,-175 404.1115,-175 404.1115,-175"/>
<polygon fill="#000000" stroke="#000000" points="404.1116,-171.5001 394.1115,-175 404.1115,-178.5001 404.1116,-171.5001"/>
</g>
<!-- MenuAsideComponent -->
<g id="node2" class="node">
<title>MenuAsideComponent</title>
<polygon fill="#ffffb3" stroke="#000000" points="560.1484,-122 413.8516,-122 413.8516,-86 560.1484,-86 560.1484,-122"/>
<text text-anchor="middle" x="487" y="-99.8" font-family="Times,serif" font-size="14.00" fill="#000000">MenuAsideComponent</text>
</g>
<!-- MenuAsideComponent&#45;&gt;MenuModule -->
<g id="edge2" class="edge">
<title>MenuAsideComponent&#45;&gt;MenuModule</title>
<path fill="none" stroke="#000000" d="M448.2109,-122.0225C448.2109,-139.3734 448.2109,-163 448.2109,-163 448.2109,-163 404.2921,-163 404.2921,-163"/>
<polygon fill="#000000" stroke="#000000" points="404.2921,-159.5001 394.2921,-163 404.2921,-166.5001 404.2921,-159.5001"/>
</g>
<!-- MenuComponent  -->
<g id="node7" class="node">
<title>MenuComponent </title>
<polygon fill="#fb8072" stroke="#000000" points="482.9926,-252 365.0074,-252 365.0074,-216 482.9926,-216 482.9926,-252"/>
<text text-anchor="middle" x="424" y="-229.8" font-family="Times,serif" font-size="14.00" fill="#000000">MenuComponent </text>
</g>
<!-- MenuModule&#45;&gt;MenuComponent  -->
<g id="edge6" class="edge">
<title>MenuModule&#45;&gt;MenuComponent </title>
<path fill="none" stroke="#000000" stroke-dasharray="5,2" d="M379.6794,-187.1061C379.6794,-187.1061 379.6794,-205.991 379.6794,-205.991"/>
<polygon fill="#000000" stroke="#000000" points="376.1794,-205.9909 379.6794,-215.991 383.1794,-205.991 376.1794,-205.9909"/>
</g>
<!-- MenuAsideComponent  -->
<g id="node8" class="node">
<title>MenuAsideComponent </title>
<polygon fill="#fb8072" stroke="#000000" points="347.1481,-252 196.8519,-252 196.8519,-216 347.1481,-216 347.1481,-252"/>
<text text-anchor="middle" x="272" y="-229.8" font-family="Times,serif" font-size="14.00" fill="#000000">MenuAsideComponent </text>
</g>
<!-- MenuModule&#45;&gt;MenuAsideComponent  -->
<g id="edge7" class="edge">
<title>MenuModule&#45;&gt;MenuAsideComponent </title>
<path fill="none" stroke="#000000" stroke-dasharray="5,2" d="M324.4848,-187.1061C324.4848,-187.1061 324.4848,-205.991 324.4848,-205.991"/>
<polygon fill="#000000" stroke="#000000" points="320.9848,-205.9909 324.4848,-215.991 327.9848,-205.991 320.9848,-205.9909"/>
</g>
<!-- HubModule -->
<g id="node4" class="node">
<title>HubModule</title>
<polygon fill="#8dd3c7" stroke="#000000" points="389.6571,-122 386.6571,-126 365.6571,-126 362.6571,-122 306.3429,-122 306.3429,-86 389.6571,-86 389.6571,-122"/>
<text text-anchor="middle" x="348" y="-99.8" font-family="Times,serif" font-size="14.00" fill="#000000">HubModule</text>
</g>
<!-- HubModule&#45;&gt;MenuModule -->
<g id="edge3" class="edge">
<title>HubModule&#45;&gt;MenuModule</title>
<path fill="none" stroke="#000000" d="M348,-122.1061C348,-122.1061 348,-140.991 348,-140.991"/>
<polygon fill="#000000" stroke="#000000" points="344.5001,-140.9909 348,-150.991 351.5001,-140.991 344.5001,-140.9909"/>
</g>
<!-- PerfilModule -->
<g id="node5" class="node">
<title>PerfilModule</title>
<polygon fill="#8dd3c7" stroke="#000000" points="288.1501,-122 285.1501,-126 264.1501,-126 261.1501,-122 197.8499,-122 197.8499,-86 288.1501,-86 288.1501,-122"/>
<text text-anchor="middle" x="243" y="-99.8" font-family="Times,serif" font-size="14.00" fill="#000000">PerfilModule</text>
</g>
<!-- PerfilModule&#45;&gt;MenuModule -->
<g id="edge4" class="edge">
<title>PerfilModule&#45;&gt;MenuModule</title>
<path fill="none" stroke="#000000" d="M243,-122.0225C243,-139.3734 243,-163 243,-163 243,-163 291.6398,-163 291.6398,-163"/>
<polygon fill="#000000" stroke="#000000" points="291.6399,-166.5001 301.6398,-163 291.6398,-159.5001 291.6399,-166.5001"/>
</g>
<!-- BloquearPantallaModule -->
<g id="node6" class="node">
<title>BloquearPantallaModule</title>
<polygon fill="#8dd3c7" stroke="#000000" points="179.965,-122 176.965,-126 155.965,-126 152.965,-122 24.035,-122 24.035,-86 179.965,-86 179.965,-122"/>
<text text-anchor="middle" x="102" y="-99.8" font-family="Times,serif" font-size="14.00" fill="#000000">BloquearPantallaModule</text>
</g>
<!-- BloquearPantallaModule&#45;&gt;MenuModule -->
<g id="edge5" class="edge">
<title>BloquearPantallaModule&#45;&gt;MenuModule</title>
<path fill="none" stroke="#000000" d="M102,-122.2843C102,-143.3211 102,-175 102,-175 102,-175 291.7293,-175 291.7293,-175"/>
<polygon fill="#000000" stroke="#000000" points="291.7293,-178.5001 301.7293,-175 291.7292,-171.5001 291.7293,-178.5001"/>
</g>
</g>
</svg>
