<?xml version="1.0" encoding="UTF-8" standalone="no"?>
<!DOCTYPE svg PUBLIC "-//W3C//DTD SVG 1.1//EN"
 "http://www.w3.org/Graphics/SVG/1.1/DTD/svg11.dtd">
<!-- Generated by graphviz version 2.40.1 (20161225.0304)
 -->
<!-- Title: dependencies Pages: 1 -->
<svg width="1031pt" height="211pt"
 viewBox="0.00 0.00 1031.00 211.00" xmlns="http://www.w3.org/2000/svg" xmlns:xlink="http://www.w3.org/1999/xlink">
<g id="graph0" class="graph" transform="scale(1 1) rotate(0) translate(4 207)">
<title>dependencies</title>
<polygon fill="#ffffff" stroke="transparent" points="-4,4 -4,-207 1027,-207 1027,4 -4,4"/>
<text text-anchor="start" x="490.5091" y="-42.4" font-family="sans-serif" font-weight="bold" font-size="14.00" fill="#000000">Legend</text>
<polygon fill="#ffffb3" stroke="transparent" points="277.5,-10 277.5,-30 297.5,-30 297.5,-10 277.5,-10"/>
<text text-anchor="start" x="301.129" y="-15.4" font-family="sans-serif" font-size="14.00" fill="#000000"> &#160;Declarations</text>
<polygon fill="#8dd3c7" stroke="transparent" points="390.5,-10 390.5,-30 410.5,-30 410.5,-10 390.5,-10"/>
<text text-anchor="start" x="414.2251" y="-15.4" font-family="sans-serif" font-size="14.00" fill="#000000"> &#160;Module</text>
<polygon fill="#80b1d3" stroke="transparent" points="476.5,-10 476.5,-30 496.5,-30 496.5,-10 476.5,-10"/>
<text text-anchor="start" x="500.2812" y="-15.4" font-family="sans-serif" font-size="14.00" fill="#000000"> &#160;Bootstrap</text>
<polygon fill="#fdb462" stroke="transparent" points="573.5,-10 573.5,-30 593.5,-30 593.5,-10 573.5,-10"/>
<text text-anchor="start" x="597.1732" y="-15.4" font-family="sans-serif" font-size="14.00" fill="#000000"> &#160;Providers</text>
<polygon fill="#fb8072" stroke="transparent" points="669.5,-10 669.5,-30 689.5,-30 689.5,-10 669.5,-10"/>
<text text-anchor="start" x="693.2258" y="-15.4" font-family="sans-serif" font-size="14.00" fill="#000000"> &#160;Exports</text>
<g id="clust1" class="cluster">
<title>cluster_AvancesModule</title>
<polygon fill="none" stroke="#000000" stroke-dasharray="1,5" points="8,-70 8,-195 1015,-195 1015,-70 8,-70"/>
</g>
<g id="clust2" class="cluster">
<title>cluster_AvancesModule_declarations</title>
<polygon fill="none" stroke="#000000" points="741,-78 741,-130 1007,-130 1007,-78 741,-78"/>
</g>
<g id="clust5" class="cluster">
<title>cluster_AvancesModule_imports</title>
<polygon fill="none" stroke="#000000" points="315,-78 315,-130 733,-130 733,-78 315,-78"/>
</g>
<g id="clust8" class="cluster">
<title>cluster_AvancesModule_providers</title>
<polygon fill="none" stroke="#000000" points="16,-78 16,-130 307,-130 307,-78 16,-78"/>
</g>
<!-- ListaComponent -->
<g id="node1" class="node">
<title>ListaComponent</title>
<polygon fill="#ffffb3" stroke="#000000" points="998.8259,-122 889.1741,-122 889.1741,-86 998.8259,-86 998.8259,-122"/>
<text text-anchor="middle" x="944" y="-99.8" font-family="Times,serif" font-size="14.00" fill="#000000">ListaComponent</text>
</g>
<!-- AvancesModule -->
<g id="node3" class="node">
<title>AvancesModule</title>
<polygon fill="#8dd3c7" stroke="#000000" points="547.7451,-187 544.7451,-191 523.7451,-191 520.7451,-187 440.2549,-187 440.2549,-151 547.7451,-151 547.7451,-187"/>
<text text-anchor="middle" x="494" y="-164.8" font-family="Times,serif" font-size="14.00" fill="#000000">AvancesModule</text>
</g>
<!-- ListaComponent&#45;&gt;AvancesModule -->
<g id="edge1" class="edge">
<title>ListaComponent&#45;&gt;AvancesModule</title>
<path fill="none" stroke="#000000" d="M944,-122.2921C944,-144.2057 944,-178 944,-178 944,-178 557.8335,-178 557.8335,-178"/>
<polygon fill="#000000" stroke="#000000" points="557.8336,-174.5001 547.8335,-178 557.8335,-181.5001 557.8336,-174.5001"/>
</g>
<!-- DetalleComponent -->
<g id="node2" class="node">
<title>DetalleComponent</title>
<polygon fill="#ffffb3" stroke="#000000" points="870.7548,-122 749.2452,-122 749.2452,-86 870.7548,-86 870.7548,-122"/>
<text text-anchor="middle" x="810" y="-99.8" font-family="Times,serif" font-size="14.00" fill="#000000">DetalleComponent</text>
</g>
<!-- DetalleComponent&#45;&gt;AvancesModule -->
<g id="edge2" class="edge">
<title>DetalleComponent&#45;&gt;AvancesModule</title>
<path fill="none" stroke="#000000" d="M810,-122.1061C810,-141.3391 810,-169 810,-169 810,-169 557.9633,-169 557.9633,-169"/>
<polygon fill="#000000" stroke="#000000" points="557.9633,-165.5001 547.9633,-169 557.9633,-172.5001 557.9633,-165.5001"/>
</g>
<!-- AvancesRoutingModule -->
<g id="node4" class="node">
<title>AvancesRoutingModule</title>
<polygon fill="#8dd3c7" stroke="#000000" points="725.3627,-122 722.3627,-126 701.3627,-126 698.3627,-122 572.6373,-122 572.6373,-86 725.3627,-86 725.3627,-122"/>
<text text-anchor="middle" x="649" y="-99.8" font-family="Times,serif" font-size="14.00" fill="#000000">AvancesRoutingModule</text>
</g>
<!-- AvancesRoutingModule&#45;&gt;AvancesModule -->
<g id="edge3" class="edge">
<title>AvancesRoutingModule&#45;&gt;AvancesModule</title>
<path fill="none" stroke="#000000" d="M649,-122.027C649,-138.3976 649,-160 649,-160 649,-160 557.7765,-160 557.7765,-160"/>
<polygon fill="#000000" stroke="#000000" points="557.7765,-156.5001 547.7765,-160 557.7764,-163.5001 557.7765,-156.5001"/>
</g>
<!-- PaginacionModule -->
<g id="node5" class="node">
<title>PaginacionModule</title>
<polygon fill="#8dd3c7" stroke="#000000" points="554.7576,-122 551.7576,-126 530.7576,-126 527.7576,-122 433.2424,-122 433.2424,-86 554.7576,-86 554.7576,-122"/>
<text text-anchor="middle" x="494" y="-99.8" font-family="Times,serif" font-size="14.00" fill="#000000">PaginacionModule</text>
</g>
<!-- PaginacionModule&#45;&gt;AvancesModule -->
<g id="edge4" class="edge">
<title>PaginacionModule&#45;&gt;AvancesModule</title>
<path fill="none" stroke="#000000" d="M494,-122.1061C494,-122.1061 494,-140.991 494,-140.991"/>
<polygon fill="#000000" stroke="#000000" points="490.5001,-140.9909 494,-150.991 497.5001,-140.991 490.5001,-140.9909"/>
</g>
<!-- MenuModule -->
<g id="node6" class="node">
<title>MenuModule</title>
<polygon fill="#8dd3c7" stroke="#000000" points="415.2092,-122 412.2092,-126 391.2092,-126 388.2092,-122 322.7908,-122 322.7908,-86 415.2092,-86 415.2092,-122"/>
<text text-anchor="middle" x="369" y="-99.8" font-family="Times,serif" font-size="14.00" fill="#000000">MenuModule</text>
</g>
<!-- MenuModule&#45;&gt;AvancesModule -->
<g id="edge5" class="edge">
<title>MenuModule&#45;&gt;AvancesModule</title>
<path fill="none" stroke="#000000" d="M369,-122.027C369,-138.3976 369,-160 369,-160 369,-160 429.9002,-160 429.9002,-160"/>
<polygon fill="#000000" stroke="#000000" points="429.9002,-163.5001 439.9002,-160 429.9002,-156.5001 429.9002,-163.5001"/>
</g>
<!-- AuthService -->
<g id="node7" class="node">
<title>AuthService</title>
<ellipse fill="#fdb462" stroke="#000000" cx="240" cy="-104" rx="59.1083" ry="18"/>
<text text-anchor="middle" x="240" y="-99.8" font-family="Times,serif" font-size="14.00" fill="#000000">AuthService</text>
</g>
<!-- AuthService&#45;&gt;AvancesModule -->
<g id="edge6" class="edge">
<title>AuthService&#45;&gt;AvancesModule</title>
<path fill="none" stroke="#000000" d="M240,-122.1061C240,-141.3391 240,-169 240,-169 240,-169 430.1331,-169 430.1331,-169"/>
<polygon fill="#000000" stroke="#000000" points="430.1332,-172.5001 440.1331,-169 430.1331,-165.5001 430.1332,-172.5001"/>
</g>
<!-- AvanceService -->
<g id="node8" class="node">
<title>AvanceService</title>
<ellipse fill="#fdb462" stroke="#000000" cx="93" cy="-104" rx="69.4607" ry="18"/>
<text text-anchor="middle" x="93" y="-99.8" font-family="Times,serif" font-size="14.00" fill="#000000">AvanceService</text>
</g>
<!-- AvanceService&#45;&gt;AvancesModule -->
<g id="edge7" class="edge">
<title>AvanceService&#45;&gt;AvancesModule</title>
<path fill="none" stroke="#000000" d="M93,-122.2921C93,-144.2057 93,-178 93,-178 93,-178 429.9194,-178 429.9194,-178"/>
<polygon fill="#000000" stroke="#000000" points="429.9194,-181.5001 439.9194,-178 429.9193,-174.5001 429.9194,-181.5001"/>
</g>
</g>
</svg>
