<?xml version="1.0" encoding="UTF-8" standalone="no"?>
<!DOCTYPE svg PUBLIC "-//W3C//DTD SVG 1.1//EN"
 "http://www.w3.org/Graphics/SVG/1.1/DTD/svg11.dtd">
<!-- Generated by graphviz version 2.40.1 (20161225.0304)
 -->
<!-- Title: dependencies Pages: 1 -->
<svg width="2060pt" height="211pt"
 viewBox="0.00 0.00 2060.00 211.00" xmlns="http://www.w3.org/2000/svg" xmlns:xlink="http://www.w3.org/1999/xlink">
<g id="graph0" class="graph" transform="scale(1 1) rotate(0) translate(4 207)">
<title>dependencies</title>
<polygon fill="#ffffff" stroke="transparent" points="-4,4 -4,-207 2056,-207 2056,4 -4,4"/>
<text text-anchor="start" x="1005.0091" y="-42.4" font-family="sans-serif" font-weight="bold" font-size="14.00" fill="#000000">Legend</text>
<polygon fill="#ffffb3" stroke="transparent" points="792,-10 792,-30 812,-30 812,-10 792,-10"/>
<text text-anchor="start" x="815.629" y="-15.4" font-family="sans-serif" font-size="14.00" fill="#000000"> &#160;Declarations</text>
<polygon fill="#8dd3c7" stroke="transparent" points="905,-10 905,-30 925,-30 925,-10 905,-10"/>
<text text-anchor="start" x="928.7251" y="-15.4" font-family="sans-serif" font-size="14.00" fill="#000000"> &#160;Module</text>
<polygon fill="#80b1d3" stroke="transparent" points="991,-10 991,-30 1011,-30 1011,-10 991,-10"/>
<text text-anchor="start" x="1014.7812" y="-15.4" font-family="sans-serif" font-size="14.00" fill="#000000"> &#160;Bootstrap</text>
<polygon fill="#fdb462" stroke="transparent" points="1088,-10 1088,-30 1108,-30 1108,-10 1088,-10"/>
<text text-anchor="start" x="1111.6732" y="-15.4" font-family="sans-serif" font-size="14.00" fill="#000000"> &#160;Providers</text>
<polygon fill="#fb8072" stroke="transparent" points="1184,-10 1184,-30 1204,-30 1204,-10 1184,-10"/>
<text text-anchor="start" x="1207.7258" y="-15.4" font-family="sans-serif" font-size="14.00" fill="#000000"> &#160;Exports</text>
<g id="clust1" class="cluster">
<title>cluster_SincronizarRecetasModule</title>
<polygon fill="none" stroke="#000000" stroke-dasharray="1,5" points="8,-70 8,-195 2044,-195 2044,-70 8,-70"/>
</g>
<g id="clust2" class="cluster">
<title>cluster_SincronizarRecetasModule_declarations</title>
<polygon fill="none" stroke="#000000" points="1387,-78 1387,-130 2036,-130 2036,-78 1387,-78"/>
</g>
<g id="clust7" class="cluster">
<title>cluster_SincronizarRecetasModule_imports</title>
<polygon fill="none" stroke="#000000" points="295,-78 295,-130 1379,-130 1379,-78 295,-78"/>
</g>
<g id="clust10" class="cluster">
<title>cluster_SincronizarRecetasModule_providers</title>
<polygon fill="none" stroke="#000000" points="16,-78 16,-130 287,-130 287,-78 16,-78"/>
</g>
<!-- ListaComponent -->
<g id="node1" class="node">
<title>ListaComponent</title>
<polygon fill="#ffffb3" stroke="#000000" points="2027.8259,-122 1918.1741,-122 1918.1741,-86 2027.8259,-86 2027.8259,-122"/>
<text text-anchor="middle" x="1973" y="-99.8" font-family="Times,serif" font-size="14.00" fill="#000000">ListaComponent</text>
</g>
<!-- SincronizarRecetasModule -->
<g id="node5" class="node">
<title>SincronizarRecetasModule</title>
<polygon fill="#8dd3c7" stroke="#000000" points="1077.6093,-187 1074.6093,-191 1053.6093,-191 1050.6093,-187 910.3907,-187 910.3907,-151 1077.6093,-151 1077.6093,-187"/>
<text text-anchor="middle" x="994" y="-164.8" font-family="Times,serif" font-size="14.00" fill="#000000">SincronizarRecetasModule</text>
</g>
<!-- ListaComponent&#45;&gt;SincronizarRecetasModule -->
<g id="edge1" class="edge">
<title>ListaComponent&#45;&gt;SincronizarRecetasModule</title>
<path fill="none" stroke="#000000" d="M1973,-122.0908C1973,-145.1328 1973,-182 1973,-182 1973,-182 1087.8922,-182 1087.8922,-182"/>
<polygon fill="#000000" stroke="#000000" points="1087.8922,-178.5001 1077.8922,-182 1087.8922,-185.5001 1087.8922,-178.5001"/>
</g>
<!-- FormularioComponent -->
<g id="node2" class="node">
<title>FormularioComponent</title>
<polygon fill="#ffffb3" stroke="#000000" points="1900.323,-122 1755.677,-122 1755.677,-86 1900.323,-86 1900.323,-122"/>
<text text-anchor="middle" x="1828" y="-99.8" font-family="Times,serif" font-size="14.00" fill="#000000">FormularioComponent</text>
</g>
<!-- FormularioComponent&#45;&gt;SincronizarRecetasModule -->
<g id="edge2" class="edge">
<title>FormularioComponent&#45;&gt;SincronizarRecetasModule</title>
<path fill="none" stroke="#000000" d="M1828,-122.2843C1828,-143.3211 1828,-175 1828,-175 1828,-175 1087.7856,-175 1087.7856,-175"/>
<polygon fill="#000000" stroke="#000000" points="1087.7857,-171.5001 1077.7856,-175 1087.7856,-178.5001 1087.7857,-171.5001"/>
</g>
<!-- ListaSincronizacionesComponent -->
<g id="node3" class="node">
<title>ListaSincronizacionesComponent</title>
<polygon fill="#ffffb3" stroke="#000000" points="1737.458,-122 1532.542,-122 1532.542,-86 1737.458,-86 1737.458,-122"/>
<text text-anchor="middle" x="1635" y="-99.8" font-family="Times,serif" font-size="14.00" fill="#000000">ListaSincronizacionesComponent</text>
</g>
<!-- ListaSincronizacionesComponent&#45;&gt;SincronizarRecetasModule -->
<g id="edge3" class="edge">
<title>ListaSincronizacionesComponent&#45;&gt;SincronizarRecetasModule</title>
<path fill="none" stroke="#000000" d="M1635,-122.1061C1635,-141.3391 1635,-169 1635,-169 1635,-169 1087.7996,-169 1087.7996,-169"/>
<polygon fill="#000000" stroke="#000000" points="1087.7996,-165.5001 1077.7996,-169 1087.7995,-172.5001 1087.7996,-165.5001"/>
</g>
<!-- CargarComponent -->
<g id="node4" class="node">
<title>CargarComponent</title>
<polygon fill="#ffffb3" stroke="#000000" points="1514.9201,-122 1395.0799,-122 1395.0799,-86 1514.9201,-86 1514.9201,-122"/>
<text text-anchor="middle" x="1455" y="-99.8" font-family="Times,serif" font-size="14.00" fill="#000000">CargarComponent</text>
</g>
<!-- CargarComponent&#45;&gt;SincronizarRecetasModule -->
<g id="edge4" class="edge">
<title>CargarComponent&#45;&gt;SincronizarRecetasModule</title>
<path fill="none" stroke="#000000" d="M1455,-122.0225C1455,-139.3734 1455,-163 1455,-163 1455,-163 1087.7509,-163 1087.7509,-163"/>
<polygon fill="#000000" stroke="#000000" points="1087.7509,-159.5001 1077.7509,-163 1087.7509,-166.5001 1087.7509,-159.5001"/>
</g>
<!-- SincronizarRecetasRoutingModule -->
<g id="node6" class="node">
<title>SincronizarRecetasRoutingModule</title>
<polygon fill="#8dd3c7" stroke="#000000" points="1371.2268,-122 1368.2268,-126 1347.2268,-126 1344.2268,-122 1158.7732,-122 1158.7732,-86 1371.2268,-86 1371.2268,-122"/>
<text text-anchor="middle" x="1265" y="-99.8" font-family="Times,serif" font-size="14.00" fill="#000000">SincronizarRecetasRoutingModule</text>
</g>
<!-- SincronizarRecetasRoutingModule&#45;&gt;SincronizarRecetasModule -->
<g id="edge5" class="edge">
<title>SincronizarRecetasRoutingModule&#45;&gt;SincronizarRecetasModule</title>
<path fill="none" stroke="#000000" d="M1265,-122.2396C1265,-137.5706 1265,-157 1265,-157 1265,-157 1087.8902,-157 1087.8902,-157"/>
<polygon fill="#000000" stroke="#000000" points="1087.8902,-153.5001 1077.8902,-157 1087.8902,-160.5001 1087.8902,-153.5001"/>
</g>
<!-- HubModule -->
<g id="node7" class="node">
<title>HubModule</title>
<polygon fill="#8dd3c7" stroke="#000000" points="1140.6571,-122 1137.6571,-126 1116.6571,-126 1113.6571,-122 1057.3429,-122 1057.3429,-86 1140.6571,-86 1140.6571,-122"/>
<text text-anchor="middle" x="1099" y="-99.8" font-family="Times,serif" font-size="14.00" fill="#000000">HubModule</text>
</g>
<!-- HubModule&#45;&gt;SincronizarRecetasModule -->
<g id="edge6" class="edge">
<title>HubModule&#45;&gt;SincronizarRecetasModule</title>
<path fill="none" stroke="#000000" d="M1067.4881,-122.1061C1067.4881,-122.1061 1067.4881,-140.991 1067.4881,-140.991"/>
<polygon fill="#000000" stroke="#000000" points="1063.9882,-140.9909 1067.4881,-150.991 1070.9882,-140.991 1063.9882,-140.9909"/>
</g>
<!-- PerfilModule -->
<g id="node8" class="node">
<title>PerfilModule</title>
<polygon fill="#8dd3c7" stroke="#000000" points="1039.1501,-122 1036.1501,-126 1015.1501,-126 1012.1501,-122 948.8499,-122 948.8499,-86 1039.1501,-86 1039.1501,-122"/>
<text text-anchor="middle" x="994" y="-99.8" font-family="Times,serif" font-size="14.00" fill="#000000">PerfilModule</text>
</g>
<!-- PerfilModule&#45;&gt;SincronizarRecetasModule -->
<g id="edge7" class="edge">
<title>PerfilModule&#45;&gt;SincronizarRecetasModule</title>
<path fill="none" stroke="#000000" d="M994,-122.1061C994,-122.1061 994,-140.991 994,-140.991"/>
<polygon fill="#000000" stroke="#000000" points="990.5001,-140.9909 994,-150.991 997.5001,-140.991 990.5001,-140.9909"/>
</g>
<!-- BloquearPantallaModule -->
<g id="node9" class="node">
<title>BloquearPantallaModule</title>
<polygon fill="#8dd3c7" stroke="#000000" points="930.965,-122 927.965,-126 906.965,-126 903.965,-122 775.035,-122 775.035,-86 930.965,-86 930.965,-122"/>
<text text-anchor="middle" x="853" y="-99.8" font-family="Times,serif" font-size="14.00" fill="#000000">BloquearPantallaModule</text>
</g>
<!-- BloquearPantallaModule&#45;&gt;SincronizarRecetasModule -->
<g id="edge8" class="edge">
<title>BloquearPantallaModule&#45;&gt;SincronizarRecetasModule</title>
<path fill="none" stroke="#000000" d="M920.5891,-122.1061C920.5891,-122.1061 920.5891,-140.991 920.5891,-140.991"/>
<polygon fill="#000000" stroke="#000000" points="917.0891,-140.9909 920.5891,-150.991 924.0891,-140.991 917.0891,-140.9909"/>
</g>
<!-- PaginacionModule -->
<g id="node10" class="node">
<title>PaginacionModule</title>
<polygon fill="#8dd3c7" stroke="#000000" points="756.7576,-122 753.7576,-126 732.7576,-126 729.7576,-122 635.2424,-122 635.2424,-86 756.7576,-86 756.7576,-122"/>
<text text-anchor="middle" x="696" y="-99.8" font-family="Times,serif" font-size="14.00" fill="#000000">PaginacionModule</text>
</g>
<!-- PaginacionModule&#45;&gt;SincronizarRecetasModule -->
<g id="edge9" class="edge">
<title>PaginacionModule&#45;&gt;SincronizarRecetasModule</title>
<path fill="none" stroke="#000000" d="M696,-122.2396C696,-137.5706 696,-157 696,-157 696,-157 900.1974,-157 900.1974,-157"/>
<polygon fill="#000000" stroke="#000000" points="900.1974,-160.5001 910.1974,-157 900.1973,-153.5001 900.1974,-160.5001"/>
</g>
<!-- IndexFarmaciaSubrrogadaModule -->
<g id="node11" class="node">
<title>IndexFarmaciaSubrrogadaModule</title>
<polygon fill="#8dd3c7" stroke="#000000" points="617.0408,-122 614.0408,-126 593.0408,-126 590.0408,-122 408.9592,-122 408.9592,-86 617.0408,-86 617.0408,-122"/>
<text text-anchor="middle" x="513" y="-99.8" font-family="Times,serif" font-size="14.00" fill="#000000">IndexFarmaciaSubrrogadaModule</text>
</g>
<!-- IndexFarmaciaSubrrogadaModule&#45;&gt;SincronizarRecetasModule -->
<g id="edge10" class="edge">
<title>IndexFarmaciaSubrrogadaModule&#45;&gt;SincronizarRecetasModule</title>
<path fill="none" stroke="#000000" d="M513,-122.0225C513,-139.3734 513,-163 513,-163 513,-163 900.2162,-163 900.2162,-163"/>
<polygon fill="#000000" stroke="#000000" points="900.2162,-166.5001 910.2162,-163 900.2162,-159.5001 900.2162,-166.5001"/>
</g>
<!-- CrudModule -->
<g id="node12" class="node">
<title>CrudModule</title>
<polygon fill="#8dd3c7" stroke="#000000" points="390.5482,-122 387.5482,-126 366.5482,-126 363.5482,-122 303.4518,-122 303.4518,-86 390.5482,-86 390.5482,-122"/>
<text text-anchor="middle" x="347" y="-99.8" font-family="Times,serif" font-size="14.00" fill="#000000">CrudModule</text>
</g>
<!-- CrudModule&#45;&gt;SincronizarRecetasModule -->
<g id="edge11" class="edge">
<title>CrudModule&#45;&gt;SincronizarRecetasModule</title>
<path fill="none" stroke="#000000" d="M347,-122.1061C347,-141.3391 347,-169 347,-169 347,-169 900.0793,-169 900.0793,-169"/>
<polygon fill="#000000" stroke="#000000" points="900.0794,-172.5001 910.0793,-169 900.0793,-165.5001 900.0794,-172.5001"/>
</g>
<!-- AuthService -->
<g id="node13" class="node">
<title>AuthService</title>
<ellipse fill="#fdb462" stroke="#000000" cx="220" cy="-104" rx="59.1083" ry="18"/>
<text text-anchor="middle" x="220" y="-99.8" font-family="Times,serif" font-size="14.00" fill="#000000">AuthService</text>
</g>
<!-- AuthService&#45;&gt;SincronizarRecetasModule -->
<g id="edge12" class="edge">
<title>AuthService&#45;&gt;SincronizarRecetasModule</title>
<path fill="none" stroke="#000000" d="M220,-122.2843C220,-143.3211 220,-175 220,-175 220,-175 900.0644,-175 900.0644,-175"/>
<polygon fill="#000000" stroke="#000000" points="900.0644,-178.5001 910.0644,-175 900.0643,-171.5001 900.0644,-178.5001"/>
</g>
<!-- CrudService -->
<g id="node14" class="node">
<title>CrudService</title>
<ellipse fill="#fdb462" stroke="#000000" cx="83" cy="-104" rx="59.1083" ry="18"/>
<text text-anchor="middle" x="83" y="-99.8" font-family="Times,serif" font-size="14.00" fill="#000000">CrudService</text>
</g>
<!-- CrudService&#45;&gt;SincronizarRecetasModule -->
<g id="edge13" class="edge">
<title>CrudService&#45;&gt;SincronizarRecetasModule</title>
<path fill="none" stroke="#000000" d="M83,-122.0908C83,-145.1328 83,-182 83,-182 83,-182 900.3344,-182 900.3344,-182"/>
<polygon fill="#000000" stroke="#000000" points="900.3344,-185.5001 910.3344,-182 900.3344,-178.5001 900.3344,-185.5001"/>
</g>
</g>
</svg>
