<?xml version="1.0" encoding="UTF-8" standalone="no"?>
<!DOCTYPE svg PUBLIC "-//W3C//DTD SVG 1.1//EN"
 "http://www.w3.org/Graphics/SVG/1.1/DTD/svg11.dtd">
<!-- Generated by graphviz version 2.40.1 (20161225.0304)
 -->
<!-- Title: dependencies Pages: 1 -->
<svg width="1018pt" height="284pt"
 viewBox="0.00 0.00 1018.00 284.00" xmlns="http://www.w3.org/2000/svg" xmlns:xlink="http://www.w3.org/1999/xlink">
<g id="graph0" class="graph" transform="scale(1 1) rotate(0) translate(4 280)">
<title>dependencies</title>
<polygon fill="#ffffff" stroke="transparent" points="-4,4 -4,-280 1014,-280 1014,4 -4,4"/>
<text text-anchor="start" x="484.0091" y="-42.4" font-family="sans-serif" font-weight="bold" font-size="14.00" fill="#000000">Legend</text>
<polygon fill="#ffffb3" stroke="transparent" points="271,-10 271,-30 291,-30 291,-10 271,-10"/>
<text text-anchor="start" x="294.629" y="-15.4" font-family="sans-serif" font-size="14.00" fill="#000000"> &#160;Declarations</text>
<polygon fill="#8dd3c7" stroke="transparent" points="384,-10 384,-30 404,-30 404,-10 384,-10"/>
<text text-anchor="start" x="407.7251" y="-15.4" font-family="sans-serif" font-size="14.00" fill="#000000"> &#160;Module</text>
<polygon fill="#80b1d3" stroke="transparent" points="470,-10 470,-30 490,-30 490,-10 470,-10"/>
<text text-anchor="start" x="493.7812" y="-15.4" font-family="sans-serif" font-size="14.00" fill="#000000"> &#160;Bootstrap</text>
<polygon fill="#fdb462" stroke="transparent" points="567,-10 567,-30 587,-30 587,-10 567,-10"/>
<text text-anchor="start" x="590.6732" y="-15.4" font-family="sans-serif" font-size="14.00" fill="#000000"> &#160;Providers</text>
<polygon fill="#fb8072" stroke="transparent" points="663,-10 663,-30 683,-30 683,-10 663,-10"/>
<text text-anchor="start" x="686.7258" y="-15.4" font-family="sans-serif" font-size="14.00" fill="#000000"> &#160;Exports</text>
<g id="clust1" class="cluster">
<title>cluster_IndexInventarioModule</title>
<polygon fill="none" stroke="#000000" stroke-dasharray="1,5" points="8,-70 8,-268 1002,-268 1002,-70 8,-70"/>
</g>
<g id="clust2" class="cluster">
<title>cluster_IndexInventarioModule_declarations</title>
<polygon fill="none" stroke="#000000" points="618,-78 618,-130 994,-130 994,-78 618,-78"/>
</g>
<g id="clust5" class="cluster">
<title>cluster_IndexInventarioModule_imports</title>
<polygon fill="none" stroke="#000000" points="16,-78 16,-130 610,-130 610,-78 16,-78"/>
</g>
<g id="clust6" class="cluster">
<title>cluster_IndexInventarioModule_exports</title>
<polygon fill="none" stroke="#000000" points="330,-208 330,-260 522,-260 522,-208 330,-208"/>
</g>
<!-- IndexInventarioComponent -->
<g id="node1" class="node">
<title>IndexInventarioComponent</title>
<polygon fill="#ffffb3" stroke="#000000" points="986.2394,-122 815.7606,-122 815.7606,-86 986.2394,-86 986.2394,-122"/>
<text text-anchor="middle" x="901" y="-99.8" font-family="Times,serif" font-size="14.00" fill="#000000">IndexInventarioComponent</text>
</g>
<!-- IndexInventarioModule -->
<g id="node3" class="node">
<title>IndexInventarioModule</title>
<polygon fill="#8dd3c7" stroke="#000000" points="500.4566,-187 497.4566,-191 476.4566,-191 473.4566,-187 351.5434,-187 351.5434,-151 500.4566,-151 500.4566,-187"/>
<text text-anchor="middle" x="426" y="-164.8" font-family="Times,serif" font-size="14.00" fill="#000000">IndexInventarioModule</text>
</g>
<!-- IndexInventarioComponent&#45;&gt;IndexInventarioModule -->
<g id="edge1" class="edge">
<title>IndexInventarioComponent&#45;&gt;IndexInventarioModule</title>
<path fill="none" stroke="#000000" d="M901,-122.2843C901,-143.3211 901,-175 901,-175 901,-175 510.4798,-175 510.4798,-175"/>
<polygon fill="#000000" stroke="#000000" points="510.4799,-171.5001 500.4798,-175 510.4798,-178.5001 510.4799,-171.5001"/>
</g>
<!-- MenuInventarioComponent -->
<g id="node2" class="node">
<title>MenuInventarioComponent</title>
<polygon fill="#ffffb3" stroke="#000000" points="797.5239,-122 626.4761,-122 626.4761,-86 797.5239,-86 797.5239,-122"/>
<text text-anchor="middle" x="712" y="-99.8" font-family="Times,serif" font-size="14.00" fill="#000000">MenuInventarioComponent</text>
</g>
<!-- MenuInventarioComponent&#45;&gt;IndexInventarioModule -->
<g id="edge2" class="edge">
<title>MenuInventarioComponent&#45;&gt;IndexInventarioModule</title>
<path fill="none" stroke="#000000" d="M712,-122.0225C712,-139.3734 712,-163 712,-163 712,-163 510.7696,-163 510.7696,-163"/>
<polygon fill="#000000" stroke="#000000" points="510.7696,-159.5001 500.7696,-163 510.7695,-166.5001 510.7696,-159.5001"/>
</g>
<!-- MenuInventarioComponent  -->
<g id="node8" class="node">
<title>MenuInventarioComponent </title>
<polygon fill="#fb8072" stroke="#000000" points="513.5232,-252 338.4768,-252 338.4768,-216 513.5232,-216 513.5232,-252"/>
<text text-anchor="middle" x="426" y="-229.8" font-family="Times,serif" font-size="14.00" fill="#000000">MenuInventarioComponent </text>
</g>
<!-- IndexInventarioModule&#45;&gt;MenuInventarioComponent  -->
<g id="edge7" class="edge">
<title>IndexInventarioModule&#45;&gt;MenuInventarioComponent </title>
<path fill="none" stroke="#000000" stroke-dasharray="5,2" d="M426,-187.1061C426,-187.1061 426,-205.991 426,-205.991"/>
<polygon fill="#000000" stroke="#000000" points="422.5001,-205.9909 426,-215.991 429.5001,-205.991 422.5001,-205.9909"/>
</g>
<!-- IndexInventarioRoutingModule -->
<g id="node4" class="node">
<title>IndexInventarioRoutingModule</title>
<polygon fill="#8dd3c7" stroke="#000000" points="602.0744,-122 599.0744,-126 578.0744,-126 575.0744,-122 407.9256,-122 407.9256,-86 602.0744,-86 602.0744,-122"/>
<text text-anchor="middle" x="505" y="-99.8" font-family="Times,serif" font-size="14.00" fill="#000000">IndexInventarioRoutingModule</text>
</g>
<!-- IndexInventarioRoutingModule&#45;&gt;IndexInventarioModule -->
<g id="edge3" class="edge">
<title>IndexInventarioRoutingModule&#45;&gt;IndexInventarioModule</title>
<path fill="none" stroke="#000000" d="M454.2206,-122.1061C454.2206,-122.1061 454.2206,-140.991 454.2206,-140.991"/>
<polygon fill="#000000" stroke="#000000" points="450.7206,-140.9909 454.2206,-150.991 457.7206,-140.991 450.7206,-140.9909"/>
</g>
<!-- HubModule -->
<g id="node5" class="node">
<title>HubModule</title>
<polygon fill="#8dd3c7" stroke="#000000" points="389.6571,-122 386.6571,-126 365.6571,-126 362.6571,-122 306.3429,-122 306.3429,-86 389.6571,-86 389.6571,-122"/>
<text text-anchor="middle" x="348" y="-99.8" font-family="Times,serif" font-size="14.00" fill="#000000">HubModule</text>
</g>
<!-- HubModule&#45;&gt;IndexInventarioModule -->
<g id="edge4" class="edge">
<title>HubModule&#45;&gt;IndexInventarioModule</title>
<path fill="none" stroke="#000000" d="M370.6749,-122.1061C370.6749,-122.1061 370.6749,-140.991 370.6749,-140.991"/>
<polygon fill="#000000" stroke="#000000" points="367.175,-140.9909 370.6749,-150.991 374.175,-140.991 367.175,-140.9909"/>
</g>
<!-- PerfilModule -->
<g id="node6" class="node">
<title>PerfilModule</title>
<polygon fill="#8dd3c7" stroke="#000000" points="288.1501,-122 285.1501,-126 264.1501,-126 261.1501,-122 197.8499,-122 197.8499,-86 288.1501,-86 288.1501,-122"/>
<text text-anchor="middle" x="243" y="-99.8" font-family="Times,serif" font-size="14.00" fill="#000000">PerfilModule</text>
</g>
<!-- PerfilModule&#45;&gt;IndexInventarioModule -->
<g id="edge5" class="edge">
<title>PerfilModule&#45;&gt;IndexInventarioModule</title>
<path fill="none" stroke="#000000" d="M243,-122.0225C243,-139.3734 243,-163 243,-163 243,-163 341.303,-163 341.303,-163"/>
<polygon fill="#000000" stroke="#000000" points="341.303,-166.5001 351.303,-163 341.3029,-159.5001 341.303,-166.5001"/>
</g>
<!-- BloquearPantallaModule -->
<g id="node7" class="node">
<title>BloquearPantallaModule</title>
<polygon fill="#8dd3c7" stroke="#000000" points="179.965,-122 176.965,-126 155.965,-126 152.965,-122 24.035,-122 24.035,-86 179.965,-86 179.965,-122"/>
<text text-anchor="middle" x="102" y="-99.8" font-family="Times,serif" font-size="14.00" fill="#000000">BloquearPantallaModule</text>
</g>
<!-- BloquearPantallaModule&#45;&gt;IndexInventarioModule -->
<g id="edge6" class="edge">
<title>BloquearPantallaModule&#45;&gt;IndexInventarioModule</title>
<path fill="none" stroke="#000000" d="M102,-122.2843C102,-143.3211 102,-175 102,-175 102,-175 341.261,-175 341.261,-175"/>
<polygon fill="#000000" stroke="#000000" points="341.2611,-178.5001 351.261,-175 341.261,-171.5001 341.2611,-178.5001"/>
</g>
</g>
</svg>
