<?xml version="1.0" encoding="UTF-8" standalone="no"?>
<!DOCTYPE svg PUBLIC "-//W3C//DTD SVG 1.1//EN"
 "http://www.w3.org/Graphics/SVG/1.1/DTD/svg11.dtd">
<!-- Generated by graphviz version 2.40.1 (20161225.0304)
 -->
<!-- Title: dependencies Pages: 1 -->
<svg width="1537pt" height="211pt"
 viewBox="0.00 0.00 1537.00 211.00" xmlns="http://www.w3.org/2000/svg" xmlns:xlink="http://www.w3.org/1999/xlink">
<g id="graph0" class="graph" transform="scale(1 1) rotate(0) translate(4 207)">
<title>dependencies</title>
<polygon fill="#ffffff" stroke="transparent" points="-4,4 -4,-207 1533,-207 1533,4 -4,4"/>
<text text-anchor="start" x="743.5091" y="-42.4" font-family="sans-serif" font-weight="bold" font-size="14.00" fill="#000000">Legend</text>
<polygon fill="#ffffb3" stroke="transparent" points="530.5,-10 530.5,-30 550.5,-30 550.5,-10 530.5,-10"/>
<text text-anchor="start" x="554.129" y="-15.4" font-family="sans-serif" font-size="14.00" fill="#000000"> &#160;Declarations</text>
<polygon fill="#8dd3c7" stroke="transparent" points="643.5,-10 643.5,-30 663.5,-30 663.5,-10 643.5,-10"/>
<text text-anchor="start" x="667.2251" y="-15.4" font-family="sans-serif" font-size="14.00" fill="#000000"> &#160;Module</text>
<polygon fill="#80b1d3" stroke="transparent" points="729.5,-10 729.5,-30 749.5,-30 749.5,-10 729.5,-10"/>
<text text-anchor="start" x="753.2812" y="-15.4" font-family="sans-serif" font-size="14.00" fill="#000000"> &#160;Bootstrap</text>
<polygon fill="#fdb462" stroke="transparent" points="826.5,-10 826.5,-30 846.5,-30 846.5,-10 826.5,-10"/>
<text text-anchor="start" x="850.1732" y="-15.4" font-family="sans-serif" font-size="14.00" fill="#000000"> &#160;Providers</text>
<polygon fill="#fb8072" stroke="transparent" points="922.5,-10 922.5,-30 942.5,-30 942.5,-10 922.5,-10"/>
<text text-anchor="start" x="946.2258" y="-15.4" font-family="sans-serif" font-size="14.00" fill="#000000"> &#160;Exports</text>
<g id="clust1" class="cluster">
<title>cluster_MisAlmacenesModule</title>
<polygon fill="none" stroke="#000000" stroke-dasharray="1,5" points="8,-70 8,-195 1521,-195 1521,-70 8,-70"/>
</g>
<g id="clust2" class="cluster">
<title>cluster_MisAlmacenesModule_declarations</title>
<polygon fill="none" stroke="#000000" points="1225,-78 1225,-130 1513,-130 1513,-78 1225,-78"/>
</g>
<g id="clust5" class="cluster">
<title>cluster_MisAlmacenesModule_imports</title>
<polygon fill="none" stroke="#000000" points="295,-78 295,-130 1217,-130 1217,-78 295,-78"/>
</g>
<g id="clust8" class="cluster">
<title>cluster_MisAlmacenesModule_providers</title>
<polygon fill="none" stroke="#000000" points="16,-78 16,-130 287,-130 287,-78 16,-78"/>
</g>
<!-- ListaComponent -->
<g id="node1" class="node">
<title>ListaComponent</title>
<polygon fill="#ffffb3" stroke="#000000" points="1504.8259,-122 1395.1741,-122 1395.1741,-86 1504.8259,-86 1504.8259,-122"/>
<text text-anchor="middle" x="1450" y="-99.8" font-family="Times,serif" font-size="14.00" fill="#000000">ListaComponent</text>
</g>
<!-- MisAlmacenesModule -->
<g id="node3" class="node">
<title>MisAlmacenesModule</title>
<polygon fill="#8dd3c7" stroke="#000000" points="808.5212,-187 805.5212,-191 784.5212,-191 781.5212,-187 665.4788,-187 665.4788,-151 808.5212,-151 808.5212,-187"/>
<text text-anchor="middle" x="737" y="-164.8" font-family="Times,serif" font-size="14.00" fill="#000000">MisAlmacenesModule</text>
</g>
<!-- ListaComponent&#45;&gt;MisAlmacenesModule -->
<g id="edge1" class="edge">
<title>ListaComponent&#45;&gt;MisAlmacenesModule</title>
<path fill="none" stroke="#000000" d="M1450,-122.0908C1450,-145.1328 1450,-182 1450,-182 1450,-182 818.6297,-182 818.6297,-182"/>
<polygon fill="#000000" stroke="#000000" points="818.6297,-178.5001 808.6297,-182 818.6296,-185.5001 818.6297,-178.5001"/>
</g>
<!-- FormularioComponent -->
<g id="node2" class="node">
<title>FormularioComponent</title>
<polygon fill="#ffffb3" stroke="#000000" points="1377.323,-122 1232.677,-122 1232.677,-86 1377.323,-86 1377.323,-122"/>
<text text-anchor="middle" x="1305" y="-99.8" font-family="Times,serif" font-size="14.00" fill="#000000">FormularioComponent</text>
</g>
<!-- FormularioComponent&#45;&gt;MisAlmacenesModule -->
<g id="edge2" class="edge">
<title>FormularioComponent&#45;&gt;MisAlmacenesModule</title>
<path fill="none" stroke="#000000" d="M1305,-122.2843C1305,-143.3211 1305,-175 1305,-175 1305,-175 818.6498,-175 818.6498,-175"/>
<polygon fill="#000000" stroke="#000000" points="818.6498,-171.5001 808.6498,-175 818.6498,-178.5001 818.6498,-171.5001"/>
</g>
<!-- AlmacenesRoutingModule -->
<g id="node4" class="node">
<title>AlmacenesRoutingModule</title>
<polygon fill="#8dd3c7" stroke="#000000" points="1209.3585,-122 1206.3585,-126 1185.3585,-126 1182.3585,-122 1042.6415,-122 1042.6415,-86 1209.3585,-86 1209.3585,-122"/>
<text text-anchor="middle" x="1126" y="-99.8" font-family="Times,serif" font-size="14.00" fill="#000000">AlmacenesRoutingModule</text>
</g>
<!-- AlmacenesRoutingModule&#45;&gt;MisAlmacenesModule -->
<g id="edge3" class="edge">
<title>AlmacenesRoutingModule&#45;&gt;MisAlmacenesModule</title>
<path fill="none" stroke="#000000" d="M1126,-122.1061C1126,-141.3391 1126,-169 1126,-169 1126,-169 818.8019,-169 818.8019,-169"/>
<polygon fill="#000000" stroke="#000000" points="818.802,-165.5001 808.8019,-169 818.8019,-172.5001 818.802,-165.5001"/>
</g>
<!-- HubModule -->
<g id="node5" class="node">
<title>HubModule</title>
<polygon fill="#8dd3c7" stroke="#000000" points="1024.6571,-122 1021.6571,-126 1000.6571,-126 997.6571,-122 941.3429,-122 941.3429,-86 1024.6571,-86 1024.6571,-122"/>
<text text-anchor="middle" x="983" y="-99.8" font-family="Times,serif" font-size="14.00" fill="#000000">HubModule</text>
</g>
<!-- HubModule&#45;&gt;MisAlmacenesModule -->
<g id="edge4" class="edge">
<title>HubModule&#45;&gt;MisAlmacenesModule</title>
<path fill="none" stroke="#000000" d="M983,-122.0225C983,-139.3734 983,-163 983,-163 983,-163 818.8147,-163 818.8147,-163"/>
<polygon fill="#000000" stroke="#000000" points="818.8147,-159.5001 808.8147,-163 818.8147,-166.5001 818.8147,-159.5001"/>
</g>
<!-- PerfilModule -->
<g id="node6" class="node">
<title>PerfilModule</title>
<polygon fill="#8dd3c7" stroke="#000000" points="923.1501,-122 920.1501,-126 899.1501,-126 896.1501,-122 832.8499,-122 832.8499,-86 923.1501,-86 923.1501,-122"/>
<text text-anchor="middle" x="878" y="-99.8" font-family="Times,serif" font-size="14.00" fill="#000000">PerfilModule</text>
</g>
<!-- PerfilModule&#45;&gt;MisAlmacenesModule -->
<g id="edge5" class="edge">
<title>PerfilModule&#45;&gt;MisAlmacenesModule</title>
<path fill="none" stroke="#000000" d="M878,-122.2396C878,-137.5706 878,-157 878,-157 878,-157 818.7392,-157 818.7392,-157"/>
<polygon fill="#000000" stroke="#000000" points="818.7392,-153.5001 808.7392,-157 818.7392,-160.5001 818.7392,-153.5001"/>
</g>
<!-- BloquearPantallaModule -->
<g id="node7" class="node">
<title>BloquearPantallaModule</title>
<polygon fill="#8dd3c7" stroke="#000000" points="814.965,-122 811.965,-126 790.965,-126 787.965,-122 659.035,-122 659.035,-86 814.965,-86 814.965,-122"/>
<text text-anchor="middle" x="737" y="-99.8" font-family="Times,serif" font-size="14.00" fill="#000000">BloquearPantallaModule</text>
</g>
<!-- BloquearPantallaModule&#45;&gt;MisAlmacenesModule -->
<g id="edge6" class="edge">
<title>BloquearPantallaModule&#45;&gt;MisAlmacenesModule</title>
<path fill="none" stroke="#000000" d="M737,-122.1061C737,-122.1061 737,-140.991 737,-140.991"/>
<polygon fill="#000000" stroke="#000000" points="733.5001,-140.9909 737,-150.991 740.5001,-140.991 733.5001,-140.9909"/>
</g>
<!-- PaginacionModule -->
<g id="node8" class="node">
<title>PaginacionModule</title>
<polygon fill="#8dd3c7" stroke="#000000" points="640.7576,-122 637.7576,-126 616.7576,-126 613.7576,-122 519.2424,-122 519.2424,-86 640.7576,-86 640.7576,-122"/>
<text text-anchor="middle" x="580" y="-99.8" font-family="Times,serif" font-size="14.00" fill="#000000">PaginacionModule</text>
</g>
<!-- PaginacionModule&#45;&gt;MisAlmacenesModule -->
<g id="edge7" class="edge">
<title>PaginacionModule&#45;&gt;MisAlmacenesModule</title>
<path fill="none" stroke="#000000" d="M580,-122.2396C580,-137.5706 580,-157 580,-157 580,-157 655.3915,-157 655.3915,-157"/>
<polygon fill="#000000" stroke="#000000" points="655.3916,-160.5001 665.3915,-157 655.3915,-153.5001 655.3916,-160.5001"/>
</g>
<!-- MenuModule -->
<g id="node9" class="node">
<title>MenuModule</title>
<polygon fill="#8dd3c7" stroke="#000000" points="501.2092,-122 498.2092,-126 477.2092,-126 474.2092,-122 408.7908,-122 408.7908,-86 501.2092,-86 501.2092,-122"/>
<text text-anchor="middle" x="455" y="-99.8" font-family="Times,serif" font-size="14.00" fill="#000000">MenuModule</text>
</g>
<!-- MenuModule&#45;&gt;MisAlmacenesModule -->
<g id="edge8" class="edge">
<title>MenuModule&#45;&gt;MisAlmacenesModule</title>
<path fill="none" stroke="#000000" d="M455,-122.0225C455,-139.3734 455,-163 455,-163 455,-163 655.4749,-163 655.4749,-163"/>
<polygon fill="#000000" stroke="#000000" points="655.475,-166.5001 665.4749,-163 655.4749,-159.5001 655.475,-166.5001"/>
</g>
<!-- CrudModule -->
<g id="node10" class="node">
<title>CrudModule</title>
<polygon fill="#8dd3c7" stroke="#000000" points="390.5482,-122 387.5482,-126 366.5482,-126 363.5482,-122 303.4518,-122 303.4518,-86 390.5482,-86 390.5482,-122"/>
<text text-anchor="middle" x="347" y="-99.8" font-family="Times,serif" font-size="14.00" fill="#000000">CrudModule</text>
</g>
<!-- CrudModule&#45;&gt;MisAlmacenesModule -->
<g id="edge9" class="edge">
<title>CrudModule&#45;&gt;MisAlmacenesModule</title>
<path fill="none" stroke="#000000" d="M347,-122.1061C347,-141.3391 347,-169 347,-169 347,-169 655.468,-169 655.468,-169"/>
<polygon fill="#000000" stroke="#000000" points="655.468,-172.5001 665.468,-169 655.468,-165.5001 655.468,-172.5001"/>
</g>
<!-- AuthService -->
<g id="node11" class="node">
<title>AuthService</title>
<ellipse fill="#fdb462" stroke="#000000" cx="220" cy="-104" rx="59.1083" ry="18"/>
<text text-anchor="middle" x="220" y="-99.8" font-family="Times,serif" font-size="14.00" fill="#000000">AuthService</text>
</g>
<!-- AuthService&#45;&gt;MisAlmacenesModule -->
<g id="edge10" class="edge">
<title>AuthService&#45;&gt;MisAlmacenesModule</title>
<path fill="none" stroke="#000000" d="M220,-122.2843C220,-143.3211 220,-175 220,-175 220,-175 655.385,-175 655.385,-175"/>
<polygon fill="#000000" stroke="#000000" points="655.385,-178.5001 665.385,-175 655.3849,-171.5001 655.385,-178.5001"/>
</g>
<!-- CrudService -->
<g id="node12" class="node">
<title>CrudService</title>
<ellipse fill="#fdb462" stroke="#000000" cx="83" cy="-104" rx="59.1083" ry="18"/>
<text text-anchor="middle" x="83" y="-99.8" font-family="Times,serif" font-size="14.00" fill="#000000">CrudService</text>
</g>
<!-- CrudService&#45;&gt;MisAlmacenesModule -->
<g id="edge11" class="edge">
<title>CrudService&#45;&gt;MisAlmacenesModule</title>
<path fill="none" stroke="#000000" d="M83,-122.0908C83,-145.1328 83,-182 83,-182 83,-182 655.4529,-182 655.4529,-182"/>
<polygon fill="#000000" stroke="#000000" points="655.453,-185.5001 665.4529,-182 655.4529,-178.5001 655.453,-185.5001"/>
</g>
</g>
</svg>
