<?xml version="1.0" encoding="UTF-8" standalone="no"?>
<!DOCTYPE svg PUBLIC "-//W3C//DTD SVG 1.1//EN"
 "http://www.w3.org/Graphics/SVG/1.1/DTD/svg11.dtd">
<!-- Generated by graphviz version 2.40.1 (20161225.0304)
 -->
<!-- Title: dependencies Pages: 1 -->
<svg width="1909pt" height="211pt"
 viewBox="0.00 0.00 1909.00 211.00" xmlns="http://www.w3.org/2000/svg" xmlns:xlink="http://www.w3.org/1999/xlink">
<g id="graph0" class="graph" transform="scale(1 1) rotate(0) translate(4 207)">
<title>dependencies</title>
<polygon fill="#ffffff" stroke="transparent" points="-4,4 -4,-207 1905,-207 1905,4 -4,4"/>
<text text-anchor="start" x="929.5091" y="-42.4" font-family="sans-serif" font-weight="bold" font-size="14.00" fill="#000000">Legend</text>
<polygon fill="#ffffb3" stroke="transparent" points="716.5,-10 716.5,-30 736.5,-30 736.5,-10 716.5,-10"/>
<text text-anchor="start" x="740.129" y="-15.4" font-family="sans-serif" font-size="14.00" fill="#000000"> &#160;Declarations</text>
<polygon fill="#8dd3c7" stroke="transparent" points="829.5,-10 829.5,-30 849.5,-30 849.5,-10 829.5,-10"/>
<text text-anchor="start" x="853.2251" y="-15.4" font-family="sans-serif" font-size="14.00" fill="#000000"> &#160;Module</text>
<polygon fill="#80b1d3" stroke="transparent" points="915.5,-10 915.5,-30 935.5,-30 935.5,-10 915.5,-10"/>
<text text-anchor="start" x="939.2812" y="-15.4" font-family="sans-serif" font-size="14.00" fill="#000000"> &#160;Bootstrap</text>
<polygon fill="#fdb462" stroke="transparent" points="1012.5,-10 1012.5,-30 1032.5,-30 1032.5,-10 1012.5,-10"/>
<text text-anchor="start" x="1036.1732" y="-15.4" font-family="sans-serif" font-size="14.00" fill="#000000"> &#160;Providers</text>
<polygon fill="#fb8072" stroke="transparent" points="1108.5,-10 1108.5,-30 1128.5,-30 1128.5,-10 1108.5,-10"/>
<text text-anchor="start" x="1132.2258" y="-15.4" font-family="sans-serif" font-size="14.00" fill="#000000"> &#160;Exports</text>
<g id="clust1" class="cluster">
<title>cluster_FormaFarmaceuticaModule</title>
<polygon fill="none" stroke="#000000" stroke-dasharray="1,5" points="8,-70 8,-195 1893,-195 1893,-70 8,-70"/>
</g>
<g id="clust2" class="cluster">
<title>cluster_FormaFarmaceuticaModule_declarations</title>
<polygon fill="none" stroke="#000000" points="1597,-78 1597,-130 1885,-130 1885,-78 1597,-78"/>
</g>
<g id="clust5" class="cluster">
<title>cluster_FormaFarmaceuticaModule_imports</title>
<polygon fill="none" stroke="#000000" points="295,-78 295,-130 1589,-130 1589,-78 295,-78"/>
</g>
<g id="clust8" class="cluster">
<title>cluster_FormaFarmaceuticaModule_providers</title>
<polygon fill="none" stroke="#000000" points="16,-78 16,-130 287,-130 287,-78 16,-78"/>
</g>
<!-- ListaComponent -->
<g id="node1" class="node">
<title>ListaComponent</title>
<polygon fill="#ffffb3" stroke="#000000" points="1876.8259,-122 1767.1741,-122 1767.1741,-86 1876.8259,-86 1876.8259,-122"/>
<text text-anchor="middle" x="1822" y="-99.8" font-family="Times,serif" font-size="14.00" fill="#000000">ListaComponent</text>
</g>
<!-- FormaFarmaceuticaModule -->
<g id="node3" class="node">
<title>FormaFarmaceuticaModule</title>
<polygon fill="#8dd3c7" stroke="#000000" points="987.5015,-187 984.5015,-191 963.5015,-191 960.5015,-187 816.4985,-187 816.4985,-151 987.5015,-151 987.5015,-187"/>
<text text-anchor="middle" x="902" y="-164.8" font-family="Times,serif" font-size="14.00" fill="#000000">FormaFarmaceuticaModule</text>
</g>
<!-- ListaComponent&#45;&gt;FormaFarmaceuticaModule -->
<g id="edge1" class="edge">
<title>ListaComponent&#45;&gt;FormaFarmaceuticaModule</title>
<path fill="none" stroke="#000000" d="M1822,-122.0908C1822,-145.1328 1822,-182 1822,-182 1822,-182 997.7252,-182 997.7252,-182"/>
<polygon fill="#000000" stroke="#000000" points="997.7253,-178.5001 987.7252,-182 997.7252,-185.5001 997.7253,-178.5001"/>
</g>
<!-- FormularioComponent -->
<g id="node2" class="node">
<title>FormularioComponent</title>
<polygon fill="#ffffb3" stroke="#000000" points="1749.323,-122 1604.677,-122 1604.677,-86 1749.323,-86 1749.323,-122"/>
<text text-anchor="middle" x="1677" y="-99.8" font-family="Times,serif" font-size="14.00" fill="#000000">FormularioComponent</text>
</g>
<!-- FormularioComponent&#45;&gt;FormaFarmaceuticaModule -->
<g id="edge2" class="edge">
<title>FormularioComponent&#45;&gt;FormaFarmaceuticaModule</title>
<path fill="none" stroke="#000000" d="M1677,-122.2843C1677,-143.3211 1677,-175 1677,-175 1677,-175 997.5273,-175 997.5273,-175"/>
<polygon fill="#000000" stroke="#000000" points="997.5273,-171.5001 987.5273,-175 997.5272,-178.5001 997.5273,-171.5001"/>
</g>
<!-- FormaFarmaceuticaRoutingModule -->
<g id="node4" class="node">
<title>FormaFarmaceuticaRoutingModule</title>
<polygon fill="#8dd3c7" stroke="#000000" points="1581.1189,-122 1578.1189,-126 1557.1189,-126 1554.1189,-122 1364.8811,-122 1364.8811,-86 1581.1189,-86 1581.1189,-122"/>
<text text-anchor="middle" x="1473" y="-99.8" font-family="Times,serif" font-size="14.00" fill="#000000">FormaFarmaceuticaRoutingModule</text>
</g>
<!-- FormaFarmaceuticaRoutingModule&#45;&gt;FormaFarmaceuticaModule -->
<g id="edge3" class="edge">
<title>FormaFarmaceuticaRoutingModule&#45;&gt;FormaFarmaceuticaModule</title>
<path fill="none" stroke="#000000" d="M1473,-122.1061C1473,-141.3391 1473,-169 1473,-169 1473,-169 997.7934,-169 997.7934,-169"/>
<polygon fill="#000000" stroke="#000000" points="997.7934,-165.5001 987.7934,-169 997.7933,-172.5001 997.7934,-165.5001"/>
</g>
<!-- HubModule -->
<g id="node5" class="node">
<title>HubModule</title>
<polygon fill="#8dd3c7" stroke="#000000" points="1346.6571,-122 1343.6571,-126 1322.6571,-126 1319.6571,-122 1263.3429,-122 1263.3429,-86 1346.6571,-86 1346.6571,-122"/>
<text text-anchor="middle" x="1305" y="-99.8" font-family="Times,serif" font-size="14.00" fill="#000000">HubModule</text>
</g>
<!-- HubModule&#45;&gt;FormaFarmaceuticaModule -->
<g id="edge4" class="edge">
<title>HubModule&#45;&gt;FormaFarmaceuticaModule</title>
<path fill="none" stroke="#000000" d="M1305,-122.0225C1305,-139.3734 1305,-163 1305,-163 1305,-163 997.9593,-163 997.9593,-163"/>
<polygon fill="#000000" stroke="#000000" points="997.9593,-159.5001 987.9593,-163 997.9593,-166.5001 997.9593,-159.5001"/>
</g>
<!-- PerfilModule -->
<g id="node6" class="node">
<title>PerfilModule</title>
<polygon fill="#8dd3c7" stroke="#000000" points="1245.1501,-122 1242.1501,-126 1221.1501,-126 1218.1501,-122 1154.8499,-122 1154.8499,-86 1245.1501,-86 1245.1501,-122"/>
<text text-anchor="middle" x="1200" y="-99.8" font-family="Times,serif" font-size="14.00" fill="#000000">PerfilModule</text>
</g>
<!-- PerfilModule&#45;&gt;FormaFarmaceuticaModule -->
<g id="edge5" class="edge">
<title>PerfilModule&#45;&gt;FormaFarmaceuticaModule</title>
<path fill="none" stroke="#000000" d="M1200,-122.2396C1200,-137.5706 1200,-157 1200,-157 1200,-157 997.7941,-157 997.7941,-157"/>
<polygon fill="#000000" stroke="#000000" points="997.7942,-153.5001 987.7941,-157 997.7941,-160.5001 997.7942,-153.5001"/>
</g>
<!-- BloquearPantallaModule -->
<g id="node7" class="node">
<title>BloquearPantallaModule</title>
<polygon fill="#8dd3c7" stroke="#000000" points="1136.965,-122 1133.965,-126 1112.965,-126 1109.965,-122 981.035,-122 981.035,-86 1136.965,-86 1136.965,-122"/>
<text text-anchor="middle" x="1059" y="-99.8" font-family="Times,serif" font-size="14.00" fill="#000000">BloquearPantallaModule</text>
</g>
<!-- BloquearPantallaModule&#45;&gt;FormaFarmaceuticaModule -->
<g id="edge6" class="edge">
<title>BloquearPantallaModule&#45;&gt;FormaFarmaceuticaModule</title>
<path fill="none" stroke="#000000" d="M980.9363,-104C975.403,-104 971.9481,-104 971.9481,-104 971.9481,-104 971.9481,-140.8939 971.9481,-140.8939"/>
<polygon fill="#000000" stroke="#000000" points="968.4482,-140.8938 971.9481,-150.8939 975.4482,-140.8939 968.4482,-140.8938"/>
</g>
<!-- PaginacionModule -->
<g id="node8" class="node">
<title>PaginacionModule</title>
<polygon fill="#8dd3c7" stroke="#000000" points="962.7576,-122 959.7576,-126 938.7576,-126 935.7576,-122 841.2424,-122 841.2424,-86 962.7576,-86 962.7576,-122"/>
<text text-anchor="middle" x="902" y="-99.8" font-family="Times,serif" font-size="14.00" fill="#000000">PaginacionModule</text>
</g>
<!-- PaginacionModule&#45;&gt;FormaFarmaceuticaModule -->
<g id="edge7" class="edge">
<title>PaginacionModule&#45;&gt;FormaFarmaceuticaModule</title>
<path fill="none" stroke="#000000" d="M902,-122.1061C902,-122.1061 902,-140.991 902,-140.991"/>
<polygon fill="#000000" stroke="#000000" points="898.5001,-140.9909 902,-150.991 905.5001,-140.991 898.5001,-140.9909"/>
</g>
<!-- MenuPanelModule -->
<g id="node9" class="node">
<title>MenuPanelModule</title>
<polygon fill="#8dd3c7" stroke="#000000" points="822.8118,-122 819.8118,-126 798.8118,-126 795.8118,-122 699.1882,-122 699.1882,-86 822.8118,-86 822.8118,-122"/>
<text text-anchor="middle" x="761" y="-99.8" font-family="Times,serif" font-size="14.00" fill="#000000">MenuPanelModule</text>
</g>
<!-- MenuPanelModule&#45;&gt;FormaFarmaceuticaModule -->
<g id="edge8" class="edge">
<title>MenuPanelModule&#45;&gt;FormaFarmaceuticaModule</title>
<path fill="none" stroke="#000000" d="M822.9104,-104C828.3741,-104 831.8885,-104 831.8885,-104 831.8885,-104 831.8885,-140.8939 831.8885,-140.8939"/>
<polygon fill="#000000" stroke="#000000" points="828.3886,-140.8938 831.8885,-150.8939 835.3886,-140.8939 828.3886,-140.8938"/>
</g>
<!-- MenuAsidePanelModule -->
<g id="node10" class="node">
<title>MenuAsidePanelModule</title>
<polygon fill="#8dd3c7" stroke="#000000" points="680.9678,-122 677.9678,-126 656.9678,-126 653.9678,-122 525.0322,-122 525.0322,-86 680.9678,-86 680.9678,-122"/>
<text text-anchor="middle" x="603" y="-99.8" font-family="Times,serif" font-size="14.00" fill="#000000">MenuAsidePanelModule</text>
</g>
<!-- MenuAsidePanelModule&#45;&gt;FormaFarmaceuticaModule -->
<g id="edge9" class="edge">
<title>MenuAsidePanelModule&#45;&gt;FormaFarmaceuticaModule</title>
<path fill="none" stroke="#000000" d="M603,-122.2396C603,-137.5706 603,-157 603,-157 603,-157 806.3186,-157 806.3186,-157"/>
<polygon fill="#000000" stroke="#000000" points="806.3186,-160.5001 816.3186,-157 806.3186,-153.5001 806.3186,-160.5001"/>
</g>
<!-- CrudModule -->
<g id="node11" class="node">
<title>CrudModule</title>
<polygon fill="#8dd3c7" stroke="#000000" points="506.5482,-122 503.5482,-126 482.5482,-126 479.5482,-122 419.4518,-122 419.4518,-86 506.5482,-86 506.5482,-122"/>
<text text-anchor="middle" x="463" y="-99.8" font-family="Times,serif" font-size="14.00" fill="#000000">CrudModule</text>
</g>
<!-- CrudModule&#45;&gt;FormaFarmaceuticaModule -->
<g id="edge10" class="edge">
<title>CrudModule&#45;&gt;FormaFarmaceuticaModule</title>
<path fill="none" stroke="#000000" d="M463,-122.0225C463,-139.3734 463,-163 463,-163 463,-163 806.3142,-163 806.3142,-163"/>
<polygon fill="#000000" stroke="#000000" points="806.3143,-166.5001 816.3142,-163 806.3142,-159.5001 806.3143,-166.5001"/>
</g>
<!-- ParcialModule -->
<g id="node12" class="node">
<title>ParcialModule</title>
<polygon fill="#8dd3c7" stroke="#000000" points="401.4189,-122 398.4189,-126 377.4189,-126 374.4189,-122 302.5811,-122 302.5811,-86 401.4189,-86 401.4189,-122"/>
<text text-anchor="middle" x="352" y="-99.8" font-family="Times,serif" font-size="14.00" fill="#000000">ParcialModule</text>
</g>
<!-- ParcialModule&#45;&gt;FormaFarmaceuticaModule -->
<g id="edge11" class="edge">
<title>ParcialModule&#45;&gt;FormaFarmaceuticaModule</title>
<path fill="none" stroke="#000000" d="M352,-122.1061C352,-141.3391 352,-169 352,-169 352,-169 806.3644,-169 806.3644,-169"/>
<polygon fill="#000000" stroke="#000000" points="806.3645,-172.5001 816.3644,-169 806.3644,-165.5001 806.3645,-172.5001"/>
</g>
<!-- AuthService -->
<g id="node13" class="node">
<title>AuthService</title>
<ellipse fill="#fdb462" stroke="#000000" cx="220" cy="-104" rx="59.1083" ry="18"/>
<text text-anchor="middle" x="220" y="-99.8" font-family="Times,serif" font-size="14.00" fill="#000000">AuthService</text>
</g>
<!-- AuthService&#45;&gt;FormaFarmaceuticaModule -->
<g id="edge12" class="edge">
<title>AuthService&#45;&gt;FormaFarmaceuticaModule</title>
<path fill="none" stroke="#000000" d="M220,-122.2843C220,-143.3211 220,-175 220,-175 220,-175 806.3148,-175 806.3148,-175"/>
<polygon fill="#000000" stroke="#000000" points="806.3148,-178.5001 816.3148,-175 806.3148,-171.5001 806.3148,-178.5001"/>
</g>
<!-- CrudService -->
<g id="node14" class="node">
<title>CrudService</title>
<ellipse fill="#fdb462" stroke="#000000" cx="83" cy="-104" rx="59.1083" ry="18"/>
<text text-anchor="middle" x="83" y="-99.8" font-family="Times,serif" font-size="14.00" fill="#000000">CrudService</text>
</g>
<!-- CrudService&#45;&gt;FormaFarmaceuticaModule -->
<g id="edge13" class="edge">
<title>CrudService&#45;&gt;FormaFarmaceuticaModule</title>
<path fill="none" stroke="#000000" d="M83,-122.0908C83,-145.1328 83,-182 83,-182 83,-182 806.2858,-182 806.2858,-182"/>
<polygon fill="#000000" stroke="#000000" points="806.2859,-185.5001 816.2858,-182 806.2858,-178.5001 806.2859,-185.5001"/>
</g>
</g>
</svg>
