<?xml version="1.0" encoding="UTF-8" standalone="no"?>
<!DOCTYPE svg PUBLIC "-//W3C//DTD SVG 1.1//EN"
 "http://www.w3.org/Graphics/SVG/1.1/DTD/svg11.dtd">
<!-- Generated by graphviz version 2.40.1 (20161225.0304)
 -->
<!-- Title: dependencies Pages: 1 -->
<svg width="1859pt" height="211pt"
 viewBox="0.00 0.00 1859.00 211.00" xmlns="http://www.w3.org/2000/svg" xmlns:xlink="http://www.w3.org/1999/xlink">
<g id="graph0" class="graph" transform="scale(1 1) rotate(0) translate(4 207)">
<title>dependencies</title>
<polygon fill="#ffffff" stroke="transparent" points="-4,4 -4,-207 1855,-207 1855,4 -4,4"/>
<text text-anchor="start" x="904.5091" y="-42.4" font-family="sans-serif" font-weight="bold" font-size="14.00" fill="#000000">Legend</text>
<polygon fill="#ffffb3" stroke="transparent" points="691.5,-10 691.5,-30 711.5,-30 711.5,-10 691.5,-10"/>
<text text-anchor="start" x="715.129" y="-15.4" font-family="sans-serif" font-size="14.00" fill="#000000"> &#160;Declarations</text>
<polygon fill="#8dd3c7" stroke="transparent" points="804.5,-10 804.5,-30 824.5,-30 824.5,-10 804.5,-10"/>
<text text-anchor="start" x="828.2251" y="-15.4" font-family="sans-serif" font-size="14.00" fill="#000000"> &#160;Module</text>
<polygon fill="#80b1d3" stroke="transparent" points="890.5,-10 890.5,-30 910.5,-30 910.5,-10 890.5,-10"/>
<text text-anchor="start" x="914.2812" y="-15.4" font-family="sans-serif" font-size="14.00" fill="#000000"> &#160;Bootstrap</text>
<polygon fill="#fdb462" stroke="transparent" points="987.5,-10 987.5,-30 1007.5,-30 1007.5,-10 987.5,-10"/>
<text text-anchor="start" x="1011.1732" y="-15.4" font-family="sans-serif" font-size="14.00" fill="#000000"> &#160;Providers</text>
<polygon fill="#fb8072" stroke="transparent" points="1083.5,-10 1083.5,-30 1103.5,-30 1103.5,-10 1083.5,-10"/>
<text text-anchor="start" x="1107.2258" y="-15.4" font-family="sans-serif" font-size="14.00" fill="#000000"> &#160;Exports</text>
<g id="clust1" class="cluster">
<title>cluster_AlmacenesModule</title>
<polygon fill="none" stroke="#000000" stroke-dasharray="1,5" points="8,-70 8,-195 1843,-195 1843,-70 8,-70"/>
</g>
<g id="clust2" class="cluster">
<title>cluster_AlmacenesModule_declarations</title>
<polygon fill="none" stroke="#000000" points="1547,-78 1547,-130 1835,-130 1835,-78 1547,-78"/>
</g>
<g id="clust5" class="cluster">
<title>cluster_AlmacenesModule_imports</title>
<polygon fill="none" stroke="#000000" points="295,-78 295,-130 1539,-130 1539,-78 295,-78"/>
</g>
<g id="clust8" class="cluster">
<title>cluster_AlmacenesModule_providers</title>
<polygon fill="none" stroke="#000000" points="16,-78 16,-130 287,-130 287,-78 16,-78"/>
</g>
<!-- ListaComponent -->
<g id="node1" class="node">
<title>ListaComponent</title>
<polygon fill="#ffffb3" stroke="#000000" points="1826.8259,-122 1717.1741,-122 1717.1741,-86 1826.8259,-86 1826.8259,-122"/>
<text text-anchor="middle" x="1772" y="-99.8" font-family="Times,serif" font-size="14.00" fill="#000000">ListaComponent</text>
</g>
<!-- AlmacenesModule -->
<g id="node3" class="node">
<title>AlmacenesModule</title>
<polygon fill="#8dd3c7" stroke="#000000" points="962.7409,-187 959.7409,-191 938.7409,-191 935.7409,-187 841.2591,-187 841.2591,-151 962.7409,-151 962.7409,-187"/>
<text text-anchor="middle" x="902" y="-164.8" font-family="Times,serif" font-size="14.00" fill="#000000">AlmacenesModule</text>
</g>
<!-- ListaComponent&#45;&gt;AlmacenesModule -->
<g id="edge1" class="edge">
<title>ListaComponent&#45;&gt;AlmacenesModule</title>
<path fill="none" stroke="#000000" d="M1772,-122.0908C1772,-145.1328 1772,-182 1772,-182 1772,-182 972.8309,-182 972.8309,-182"/>
<polygon fill="#000000" stroke="#000000" points="972.831,-178.5001 962.8309,-182 972.8309,-185.5001 972.831,-178.5001"/>
</g>
<!-- FormularioComponent -->
<g id="node2" class="node">
<title>FormularioComponent</title>
<polygon fill="#ffffb3" stroke="#000000" points="1699.323,-122 1554.677,-122 1554.677,-86 1699.323,-86 1699.323,-122"/>
<text text-anchor="middle" x="1627" y="-99.8" font-family="Times,serif" font-size="14.00" fill="#000000">FormularioComponent</text>
</g>
<!-- FormularioComponent&#45;&gt;AlmacenesModule -->
<g id="edge2" class="edge">
<title>FormularioComponent&#45;&gt;AlmacenesModule</title>
<path fill="none" stroke="#000000" d="M1627,-122.0449C1627,-143.6623 1627,-177 1627,-177 1627,-177 972.8768,-177 972.8768,-177"/>
<polygon fill="#000000" stroke="#000000" points="972.8769,-173.5001 962.8768,-177 972.8768,-180.5001 972.8769,-173.5001"/>
</g>
<!-- AlmacenesRoutingModule -->
<g id="node4" class="node">
<title>AlmacenesRoutingModule</title>
<polygon fill="#8dd3c7" stroke="#000000" points="1531.3585,-122 1528.3585,-126 1507.3585,-126 1504.3585,-122 1364.6415,-122 1364.6415,-86 1531.3585,-86 1531.3585,-122"/>
<text text-anchor="middle" x="1448" y="-99.8" font-family="Times,serif" font-size="14.00" fill="#000000">AlmacenesRoutingModule</text>
</g>
<!-- AlmacenesRoutingModule&#45;&gt;AlmacenesModule -->
<g id="edge3" class="edge">
<title>AlmacenesRoutingModule&#45;&gt;AlmacenesModule</title>
<path fill="none" stroke="#000000" d="M1448,-122.2228C1448,-142.3652 1448,-172 1448,-172 1448,-172 972.7805,-172 972.7805,-172"/>
<polygon fill="#000000" stroke="#000000" points="972.7806,-168.5001 962.7805,-172 972.7805,-175.5001 972.7806,-168.5001"/>
</g>
<!-- HubModule -->
<g id="node5" class="node">
<title>HubModule</title>
<polygon fill="#8dd3c7" stroke="#000000" points="1346.6571,-122 1343.6571,-126 1322.6571,-126 1319.6571,-122 1263.3429,-122 1263.3429,-86 1346.6571,-86 1346.6571,-122"/>
<text text-anchor="middle" x="1305" y="-99.8" font-family="Times,serif" font-size="14.00" fill="#000000">HubModule</text>
</g>
<!-- HubModule&#45;&gt;AlmacenesModule -->
<g id="edge4" class="edge">
<title>HubModule&#45;&gt;AlmacenesModule</title>
<path fill="none" stroke="#000000" d="M1305,-122.2222C1305,-140.8285 1305,-167 1305,-167 1305,-167 972.7695,-167 972.7695,-167"/>
<polygon fill="#000000" stroke="#000000" points="972.7695,-163.5001 962.7695,-167 972.7695,-170.5001 972.7695,-163.5001"/>
</g>
<!-- PerfilModule -->
<g id="node6" class="node">
<title>PerfilModule</title>
<polygon fill="#8dd3c7" stroke="#000000" points="1245.1501,-122 1242.1501,-126 1221.1501,-126 1218.1501,-122 1154.8499,-122 1154.8499,-86 1245.1501,-86 1245.1501,-122"/>
<text text-anchor="middle" x="1200" y="-99.8" font-family="Times,serif" font-size="14.00" fill="#000000">PerfilModule</text>
</g>
<!-- PerfilModule&#45;&gt;AlmacenesModule -->
<g id="edge5" class="edge">
<title>PerfilModule&#45;&gt;AlmacenesModule</title>
<path fill="none" stroke="#000000" d="M1200,-122.0336C1200,-139.0597 1200,-162 1200,-162 1200,-162 973.0238,-162 973.0238,-162"/>
<polygon fill="#000000" stroke="#000000" points="973.0239,-158.5001 963.0238,-162 973.0238,-165.5001 973.0239,-158.5001"/>
</g>
<!-- BloquearPantallaModule -->
<g id="node7" class="node">
<title>BloquearPantallaModule</title>
<polygon fill="#8dd3c7" stroke="#000000" points="1136.965,-122 1133.965,-126 1112.965,-126 1109.965,-122 981.035,-122 981.035,-86 1136.965,-86 1136.965,-122"/>
<text text-anchor="middle" x="1059" y="-99.8" font-family="Times,serif" font-size="14.00" fill="#000000">BloquearPantallaModule</text>
</g>
<!-- BloquearPantallaModule&#45;&gt;AlmacenesModule -->
<g id="edge6" class="edge">
<title>BloquearPantallaModule&#45;&gt;AlmacenesModule</title>
<path fill="none" stroke="#000000" d="M1059,-122.2396C1059,-137.5706 1059,-157 1059,-157 1059,-157 973.1499,-157 973.1499,-157"/>
<polygon fill="#000000" stroke="#000000" points="973.1499,-153.5001 963.1499,-157 973.1498,-160.5001 973.1499,-153.5001"/>
</g>
<!-- PaginacionModule -->
<g id="node8" class="node">
<title>PaginacionModule</title>
<polygon fill="#8dd3c7" stroke="#000000" points="962.7576,-122 959.7576,-126 938.7576,-126 935.7576,-122 841.2424,-122 841.2424,-86 962.7576,-86 962.7576,-122"/>
<text text-anchor="middle" x="902" y="-99.8" font-family="Times,serif" font-size="14.00" fill="#000000">PaginacionModule</text>
</g>
<!-- PaginacionModule&#45;&gt;AlmacenesModule -->
<g id="edge7" class="edge">
<title>PaginacionModule&#45;&gt;AlmacenesModule</title>
<path fill="none" stroke="#000000" d="M902,-122.1061C902,-122.1061 902,-140.991 902,-140.991"/>
<polygon fill="#000000" stroke="#000000" points="898.5001,-140.9909 902,-150.991 905.5001,-140.991 898.5001,-140.9909"/>
</g>
<!-- MenuPanelModule -->
<g id="node9" class="node">
<title>MenuPanelModule</title>
<polygon fill="#8dd3c7" stroke="#000000" points="822.8118,-122 819.8118,-126 798.8118,-126 795.8118,-122 699.1882,-122 699.1882,-86 822.8118,-86 822.8118,-122"/>
<text text-anchor="middle" x="761" y="-99.8" font-family="Times,serif" font-size="14.00" fill="#000000">MenuPanelModule</text>
</g>
<!-- MenuPanelModule&#45;&gt;AlmacenesModule -->
<g id="edge8" class="edge">
<title>MenuPanelModule&#45;&gt;AlmacenesModule</title>
<path fill="none" stroke="#000000" d="M761,-122.2396C761,-137.5706 761,-157 761,-157 761,-157 830.9754,-157 830.9754,-157"/>
<polygon fill="#000000" stroke="#000000" points="830.9754,-160.5001 840.9754,-157 830.9754,-153.5001 830.9754,-160.5001"/>
</g>
<!-- MenuAsidePanelModule -->
<g id="node10" class="node">
<title>MenuAsidePanelModule</title>
<polygon fill="#8dd3c7" stroke="#000000" points="680.9678,-122 677.9678,-126 656.9678,-126 653.9678,-122 525.0322,-122 525.0322,-86 680.9678,-86 680.9678,-122"/>
<text text-anchor="middle" x="603" y="-99.8" font-family="Times,serif" font-size="14.00" fill="#000000">MenuAsidePanelModule</text>
</g>
<!-- MenuAsidePanelModule&#45;&gt;AlmacenesModule -->
<g id="edge9" class="edge">
<title>MenuAsidePanelModule&#45;&gt;AlmacenesModule</title>
<path fill="none" stroke="#000000" d="M603,-122.0336C603,-139.0597 603,-162 603,-162 603,-162 831.1325,-162 831.1325,-162"/>
<polygon fill="#000000" stroke="#000000" points="831.1325,-165.5001 841.1325,-162 831.1325,-158.5001 831.1325,-165.5001"/>
</g>
<!-- CrudModule -->
<g id="node11" class="node">
<title>CrudModule</title>
<polygon fill="#8dd3c7" stroke="#000000" points="506.5482,-122 503.5482,-126 482.5482,-126 479.5482,-122 419.4518,-122 419.4518,-86 506.5482,-86 506.5482,-122"/>
<text text-anchor="middle" x="463" y="-99.8" font-family="Times,serif" font-size="14.00" fill="#000000">CrudModule</text>
</g>
<!-- CrudModule&#45;&gt;AlmacenesModule -->
<g id="edge10" class="edge">
<title>CrudModule&#45;&gt;AlmacenesModule</title>
<path fill="none" stroke="#000000" d="M463,-122.2222C463,-140.8285 463,-167 463,-167 463,-167 830.9589,-167 830.9589,-167"/>
<polygon fill="#000000" stroke="#000000" points="830.959,-170.5001 840.9589,-167 830.9589,-163.5001 830.959,-170.5001"/>
</g>
<!-- ParcialModule -->
<g id="node12" class="node">
<title>ParcialModule</title>
<polygon fill="#8dd3c7" stroke="#000000" points="401.4189,-122 398.4189,-126 377.4189,-126 374.4189,-122 302.5811,-122 302.5811,-86 401.4189,-86 401.4189,-122"/>
<text text-anchor="middle" x="352" y="-99.8" font-family="Times,serif" font-size="14.00" fill="#000000">ParcialModule</text>
</g>
<!-- ParcialModule&#45;&gt;AlmacenesModule -->
<g id="edge11" class="edge">
<title>ParcialModule&#45;&gt;AlmacenesModule</title>
<path fill="none" stroke="#000000" d="M352,-122.2228C352,-142.3652 352,-172 352,-172 352,-172 831.0389,-172 831.0389,-172"/>
<polygon fill="#000000" stroke="#000000" points="831.039,-175.5001 841.0389,-172 831.0389,-168.5001 831.039,-175.5001"/>
</g>
<!-- AuthService -->
<g id="node13" class="node">
<title>AuthService</title>
<ellipse fill="#fdb462" stroke="#000000" cx="220" cy="-104" rx="59.1083" ry="18"/>
<text text-anchor="middle" x="220" y="-99.8" font-family="Times,serif" font-size="14.00" fill="#000000">AuthService</text>
</g>
<!-- AuthService&#45;&gt;AlmacenesModule -->
<g id="edge12" class="edge">
<title>AuthService&#45;&gt;AlmacenesModule</title>
<path fill="none" stroke="#000000" d="M220,-122.0449C220,-143.6623 220,-177 220,-177 220,-177 831.1773,-177 831.1773,-177"/>
<polygon fill="#000000" stroke="#000000" points="831.1773,-180.5001 841.1773,-177 831.1772,-173.5001 831.1773,-180.5001"/>
</g>
<!-- CrudService -->
<g id="node14" class="node">
<title>CrudService</title>
<ellipse fill="#fdb462" stroke="#000000" cx="83" cy="-104" rx="59.1083" ry="18"/>
<text text-anchor="middle" x="83" y="-99.8" font-family="Times,serif" font-size="14.00" fill="#000000">CrudService</text>
</g>
<!-- CrudService&#45;&gt;AlmacenesModule -->
<g id="edge13" class="edge">
<title>CrudService&#45;&gt;AlmacenesModule</title>
<path fill="none" stroke="#000000" d="M83,-122.0908C83,-145.1328 83,-182 83,-182 83,-182 831.111,-182 831.111,-182"/>
<polygon fill="#000000" stroke="#000000" points="831.111,-185.5001 841.111,-182 831.111,-178.5001 831.111,-185.5001"/>
</g>
</g>
</svg>
