<?xml version="1.0" encoding="UTF-8" standalone="no"?>
<!DOCTYPE svg PUBLIC "-//W3C//DTD SVG 1.1//EN"
 "http://www.w3.org/Graphics/SVG/1.1/DTD/svg11.dtd">
<!-- Generated by graphviz version 2.40.1 (20161225.0304)
 -->
<!-- Title: dependencies Pages: 1 -->
<svg width="2071pt" height="211pt"
 viewBox="0.00 0.00 2071.00 211.00" xmlns="http://www.w3.org/2000/svg" xmlns:xlink="http://www.w3.org/1999/xlink">
<g id="graph0" class="graph" transform="scale(1 1) rotate(0) translate(4 207)">
<title>dependencies</title>
<polygon fill="#ffffff" stroke="transparent" points="-4,4 -4,-207 2067,-207 2067,4 -4,4"/>
<text text-anchor="start" x="1010.5091" y="-42.4" font-family="sans-serif" font-weight="bold" font-size="14.00" fill="#000000">Legend</text>
<polygon fill="#ffffb3" stroke="transparent" points="797.5,-10 797.5,-30 817.5,-30 817.5,-10 797.5,-10"/>
<text text-anchor="start" x="821.129" y="-15.4" font-family="sans-serif" font-size="14.00" fill="#000000"> &#160;Declarations</text>
<polygon fill="#8dd3c7" stroke="transparent" points="910.5,-10 910.5,-30 930.5,-30 930.5,-10 910.5,-10"/>
<text text-anchor="start" x="934.2251" y="-15.4" font-family="sans-serif" font-size="14.00" fill="#000000"> &#160;Module</text>
<polygon fill="#80b1d3" stroke="transparent" points="996.5,-10 996.5,-30 1016.5,-30 1016.5,-10 996.5,-10"/>
<text text-anchor="start" x="1020.2812" y="-15.4" font-family="sans-serif" font-size="14.00" fill="#000000"> &#160;Bootstrap</text>
<polygon fill="#fdb462" stroke="transparent" points="1093.5,-10 1093.5,-30 1113.5,-30 1113.5,-10 1093.5,-10"/>
<text text-anchor="start" x="1117.1732" y="-15.4" font-family="sans-serif" font-size="14.00" fill="#000000"> &#160;Providers</text>
<polygon fill="#fb8072" stroke="transparent" points="1189.5,-10 1189.5,-30 1209.5,-30 1209.5,-10 1189.5,-10"/>
<text text-anchor="start" x="1213.2258" y="-15.4" font-family="sans-serif" font-size="14.00" fill="#000000"> &#160;Exports</text>
<g id="clust1" class="cluster">
<title>cluster_ViasAdministracionModule</title>
<polygon fill="none" stroke="#000000" stroke-dasharray="1,5" points="8,-70 8,-195 2055,-195 2055,-70 8,-70"/>
</g>
<g id="clust2" class="cluster">
<title>cluster_ViasAdministracionModule_declarations</title>
<polygon fill="none" stroke="#000000" points="1759,-78 1759,-130 2047,-130 2047,-78 1759,-78"/>
</g>
<g id="clust5" class="cluster">
<title>cluster_ViasAdministracionModule_imports</title>
<polygon fill="none" stroke="#000000" points="295,-78 295,-130 1751,-130 1751,-78 295,-78"/>
</g>
<g id="clust8" class="cluster">
<title>cluster_ViasAdministracionModule_providers</title>
<polygon fill="none" stroke="#000000" points="16,-78 16,-130 287,-130 287,-78 16,-78"/>
</g>
<!-- ListaComponent -->
<g id="node1" class="node">
<title>ListaComponent</title>
<polygon fill="#ffffb3" stroke="#000000" points="2038.8259,-122 1929.1741,-122 1929.1741,-86 2038.8259,-86 2038.8259,-122"/>
<text text-anchor="middle" x="1984" y="-99.8" font-family="Times,serif" font-size="14.00" fill="#000000">ListaComponent</text>
</g>
<!-- ViasAdministracionModule -->
<g id="node3" class="node">
<title>ViasAdministracionModule</title>
<polygon fill="#8dd3c7" stroke="#000000" points="1077.3005,-187 1074.3005,-191 1053.3005,-191 1050.3005,-187 904.6995,-187 904.6995,-151 1077.3005,-151 1077.3005,-187"/>
<text text-anchor="middle" x="991" y="-164.8" font-family="Times,serif" font-size="14.00" fill="#000000">ViasAdministracionModule</text>
</g>
<!-- ListaComponent&#45;&gt;ViasAdministracionModule -->
<g id="edge1" class="edge">
<title>ListaComponent&#45;&gt;ViasAdministracionModule</title>
<path fill="none" stroke="#000000" d="M1984,-122.0908C1984,-145.1328 1984,-182 1984,-182 1984,-182 1087.3851,-182 1087.3851,-182"/>
<polygon fill="#000000" stroke="#000000" points="1087.3852,-178.5001 1077.3851,-182 1087.3851,-185.5001 1087.3852,-178.5001"/>
</g>
<!-- FormularioComponent -->
<g id="node2" class="node">
<title>FormularioComponent</title>
<polygon fill="#ffffb3" stroke="#000000" points="1911.323,-122 1766.677,-122 1766.677,-86 1911.323,-86 1911.323,-122"/>
<text text-anchor="middle" x="1839" y="-99.8" font-family="Times,serif" font-size="14.00" fill="#000000">FormularioComponent</text>
</g>
<!-- FormularioComponent&#45;&gt;ViasAdministracionModule -->
<g id="edge2" class="edge">
<title>FormularioComponent&#45;&gt;ViasAdministracionModule</title>
<path fill="none" stroke="#000000" d="M1839,-122.0449C1839,-143.6623 1839,-177 1839,-177 1839,-177 1087.3712,-177 1087.3712,-177"/>
<polygon fill="#000000" stroke="#000000" points="1087.3713,-173.5001 1077.3712,-177 1087.3712,-180.5001 1087.3713,-173.5001"/>
</g>
<!-- ViasAdministracionRoutingModule -->
<g id="node4" class="node">
<title>ViasAdministracionRoutingModule</title>
<polygon fill="#8dd3c7" stroke="#000000" points="1742.9184,-122 1739.9184,-126 1718.9184,-126 1715.9184,-122 1525.0816,-122 1525.0816,-86 1742.9184,-86 1742.9184,-122"/>
<text text-anchor="middle" x="1634" y="-99.8" font-family="Times,serif" font-size="14.00" fill="#000000">ViasAdministracionRoutingModule</text>
</g>
<!-- ViasAdministracionRoutingModule&#45;&gt;ViasAdministracionModule -->
<g id="edge3" class="edge">
<title>ViasAdministracionRoutingModule&#45;&gt;ViasAdministracionModule</title>
<path fill="none" stroke="#000000" d="M1634,-122.2228C1634,-142.3652 1634,-172 1634,-172 1634,-172 1087.384,-172 1087.384,-172"/>
<polygon fill="#000000" stroke="#000000" points="1087.384,-168.5001 1077.384,-172 1087.384,-175.5001 1087.384,-168.5001"/>
</g>
<!-- HubModule -->
<g id="node5" class="node">
<title>HubModule</title>
<polygon fill="#8dd3c7" stroke="#000000" points="1506.6571,-122 1503.6571,-126 1482.6571,-126 1479.6571,-122 1423.3429,-122 1423.3429,-86 1506.6571,-86 1506.6571,-122"/>
<text text-anchor="middle" x="1465" y="-99.8" font-family="Times,serif" font-size="14.00" fill="#000000">HubModule</text>
</g>
<!-- HubModule&#45;&gt;ViasAdministracionModule -->
<g id="edge4" class="edge">
<title>HubModule&#45;&gt;ViasAdministracionModule</title>
<path fill="none" stroke="#000000" d="M1465,-122.2222C1465,-140.8285 1465,-167 1465,-167 1465,-167 1087.3877,-167 1087.3877,-167"/>
<polygon fill="#000000" stroke="#000000" points="1087.3878,-163.5001 1077.3877,-167 1087.3877,-170.5001 1087.3878,-163.5001"/>
</g>
<!-- PerfilModule -->
<g id="node6" class="node">
<title>PerfilModule</title>
<polygon fill="#8dd3c7" stroke="#000000" points="1405.1501,-122 1402.1501,-126 1381.1501,-126 1378.1501,-122 1314.8499,-122 1314.8499,-86 1405.1501,-86 1405.1501,-122"/>
<text text-anchor="middle" x="1360" y="-99.8" font-family="Times,serif" font-size="14.00" fill="#000000">PerfilModule</text>
</g>
<!-- PerfilModule&#45;&gt;ViasAdministracionModule -->
<g id="edge5" class="edge">
<title>PerfilModule&#45;&gt;ViasAdministracionModule</title>
<path fill="none" stroke="#000000" d="M1360,-122.0336C1360,-139.0597 1360,-162 1360,-162 1360,-162 1087.5141,-162 1087.5141,-162"/>
<polygon fill="#000000" stroke="#000000" points="1087.5141,-158.5001 1077.5141,-162 1087.5141,-165.5001 1087.5141,-158.5001"/>
</g>
<!-- BloquearPantallaModule -->
<g id="node7" class="node">
<title>BloquearPantallaModule</title>
<polygon fill="#8dd3c7" stroke="#000000" points="1296.965,-122 1293.965,-126 1272.965,-126 1269.965,-122 1141.035,-122 1141.035,-86 1296.965,-86 1296.965,-122"/>
<text text-anchor="middle" x="1219" y="-99.8" font-family="Times,serif" font-size="14.00" fill="#000000">BloquearPantallaModule</text>
</g>
<!-- BloquearPantallaModule&#45;&gt;ViasAdministracionModule -->
<g id="edge6" class="edge">
<title>BloquearPantallaModule&#45;&gt;ViasAdministracionModule</title>
<path fill="none" stroke="#000000" d="M1219,-122.2396C1219,-137.5706 1219,-157 1219,-157 1219,-157 1087.197,-157 1087.197,-157"/>
<polygon fill="#000000" stroke="#000000" points="1087.1971,-153.5001 1077.197,-157 1087.197,-160.5001 1087.1971,-153.5001"/>
</g>
<!-- PaginacionModule -->
<g id="node8" class="node">
<title>PaginacionModule</title>
<polygon fill="#8dd3c7" stroke="#000000" points="1122.7576,-122 1119.7576,-126 1098.7576,-126 1095.7576,-122 1001.2424,-122 1001.2424,-86 1122.7576,-86 1122.7576,-122"/>
<text text-anchor="middle" x="1062" y="-99.8" font-family="Times,serif" font-size="14.00" fill="#000000">PaginacionModule</text>
</g>
<!-- PaginacionModule&#45;&gt;ViasAdministracionModule -->
<g id="edge7" class="edge">
<title>PaginacionModule&#45;&gt;ViasAdministracionModule</title>
<path fill="none" stroke="#000000" d="M1039.1357,-122.1061C1039.1357,-122.1061 1039.1357,-140.991 1039.1357,-140.991"/>
<polygon fill="#000000" stroke="#000000" points="1035.6358,-140.9909 1039.1357,-150.991 1042.6358,-140.991 1035.6358,-140.9909"/>
</g>
<!-- MenuPanelModule -->
<g id="node9" class="node">
<title>MenuPanelModule</title>
<polygon fill="#8dd3c7" stroke="#000000" points="982.8118,-122 979.8118,-126 958.8118,-126 955.8118,-122 859.1882,-122 859.1882,-86 982.8118,-86 982.8118,-122"/>
<text text-anchor="middle" x="921" y="-99.8" font-family="Times,serif" font-size="14.00" fill="#000000">MenuPanelModule</text>
</g>
<!-- MenuPanelModule&#45;&gt;ViasAdministracionModule -->
<g id="edge8" class="edge">
<title>MenuPanelModule&#45;&gt;ViasAdministracionModule</title>
<path fill="none" stroke="#000000" d="M943.7528,-122.1061C943.7528,-122.1061 943.7528,-140.991 943.7528,-140.991"/>
<polygon fill="#000000" stroke="#000000" points="940.2529,-140.9909 943.7528,-150.991 947.2529,-140.991 940.2529,-140.9909"/>
</g>
<!-- MenuAsidePanelModule -->
<g id="node10" class="node">
<title>MenuAsidePanelModule</title>
<polygon fill="#8dd3c7" stroke="#000000" points="840.9678,-122 837.9678,-126 816.9678,-126 813.9678,-122 685.0322,-122 685.0322,-86 840.9678,-86 840.9678,-122"/>
<text text-anchor="middle" x="763" y="-99.8" font-family="Times,serif" font-size="14.00" fill="#000000">MenuAsidePanelModule</text>
</g>
<!-- MenuAsidePanelModule&#45;&gt;ViasAdministracionModule -->
<g id="edge9" class="edge">
<title>MenuAsidePanelModule&#45;&gt;ViasAdministracionModule</title>
<path fill="none" stroke="#000000" d="M763,-122.2396C763,-137.5706 763,-157 763,-157 763,-157 894.803,-157 894.803,-157"/>
<polygon fill="#000000" stroke="#000000" points="894.803,-160.5001 904.803,-157 894.8029,-153.5001 894.803,-160.5001"/>
</g>
<!-- CrudModule -->
<g id="node11" class="node">
<title>CrudModule</title>
<polygon fill="#8dd3c7" stroke="#000000" points="666.5482,-122 663.5482,-126 642.5482,-126 639.5482,-122 579.4518,-122 579.4518,-86 666.5482,-86 666.5482,-122"/>
<text text-anchor="middle" x="623" y="-99.8" font-family="Times,serif" font-size="14.00" fill="#000000">CrudModule</text>
</g>
<!-- CrudModule&#45;&gt;ViasAdministracionModule -->
<g id="edge10" class="edge">
<title>CrudModule&#45;&gt;ViasAdministracionModule</title>
<path fill="none" stroke="#000000" d="M623,-122.0336C623,-139.0597 623,-162 623,-162 623,-162 894.7204,-162 894.7204,-162"/>
<polygon fill="#000000" stroke="#000000" points="894.7204,-165.5001 904.7204,-162 894.7203,-158.5001 894.7204,-165.5001"/>
</g>
<!-- IndexCatalogoModule -->
<g id="node12" class="node">
<title>IndexCatalogoModule</title>
<polygon fill="#8dd3c7" stroke="#000000" points="560.972,-122 557.972,-126 536.972,-126 533.972,-122 419.028,-122 419.028,-86 560.972,-86 560.972,-122"/>
<text text-anchor="middle" x="490" y="-99.8" font-family="Times,serif" font-size="14.00" fill="#000000">IndexCatalogoModule</text>
</g>
<!-- IndexCatalogoModule&#45;&gt;ViasAdministracionModule -->
<g id="edge11" class="edge">
<title>IndexCatalogoModule&#45;&gt;ViasAdministracionModule</title>
<path fill="none" stroke="#000000" d="M490,-122.2222C490,-140.8285 490,-167 490,-167 490,-167 894.5899,-167 894.5899,-167"/>
<polygon fill="#000000" stroke="#000000" points="894.5899,-170.5001 904.5899,-167 894.5899,-163.5001 894.5899,-170.5001"/>
</g>
<!-- ParcialModule -->
<g id="node13" class="node">
<title>ParcialModule</title>
<polygon fill="#8dd3c7" stroke="#000000" points="401.4189,-122 398.4189,-126 377.4189,-126 374.4189,-122 302.5811,-122 302.5811,-86 401.4189,-86 401.4189,-122"/>
<text text-anchor="middle" x="352" y="-99.8" font-family="Times,serif" font-size="14.00" fill="#000000">ParcialModule</text>
</g>
<!-- ParcialModule&#45;&gt;ViasAdministracionModule -->
<g id="edge12" class="edge">
<title>ParcialModule&#45;&gt;ViasAdministracionModule</title>
<path fill="none" stroke="#000000" d="M352,-122.2228C352,-142.3652 352,-172 352,-172 352,-172 894.8216,-172 894.8216,-172"/>
<polygon fill="#000000" stroke="#000000" points="894.8217,-175.5001 904.8216,-172 894.8216,-168.5001 894.8217,-175.5001"/>
</g>
<!-- AuthService -->
<g id="node14" class="node">
<title>AuthService</title>
<ellipse fill="#fdb462" stroke="#000000" cx="220" cy="-104" rx="59.1083" ry="18"/>
<text text-anchor="middle" x="220" y="-99.8" font-family="Times,serif" font-size="14.00" fill="#000000">AuthService</text>
</g>
<!-- AuthService&#45;&gt;ViasAdministracionModule -->
<g id="edge13" class="edge">
<title>AuthService&#45;&gt;ViasAdministracionModule</title>
<path fill="none" stroke="#000000" d="M220,-122.0449C220,-143.6623 220,-177 220,-177 220,-177 894.8007,-177 894.8007,-177"/>
<polygon fill="#000000" stroke="#000000" points="894.8008,-180.5001 904.8007,-177 894.8007,-173.5001 894.8008,-180.5001"/>
</g>
<!-- CrudService -->
<g id="node15" class="node">
<title>CrudService</title>
<ellipse fill="#fdb462" stroke="#000000" cx="83" cy="-104" rx="59.1083" ry="18"/>
<text text-anchor="middle" x="83" y="-99.8" font-family="Times,serif" font-size="14.00" fill="#000000">CrudService</text>
</g>
<!-- CrudService&#45;&gt;ViasAdministracionModule -->
<g id="edge14" class="edge">
<title>CrudService&#45;&gt;ViasAdministracionModule</title>
<path fill="none" stroke="#000000" d="M83,-122.0908C83,-145.1328 83,-182 83,-182 83,-182 894.759,-182 894.759,-182"/>
<polygon fill="#000000" stroke="#000000" points="894.759,-185.5001 904.759,-182 894.7589,-178.5001 894.759,-185.5001"/>
</g>
</g>
</svg>
