<?xml version="1.0" encoding="UTF-8" standalone="no"?>
<!DOCTYPE svg PUBLIC "-//W3C//DTD SVG 1.1//EN"
 "http://www.w3.org/Graphics/SVG/1.1/DTD/svg11.dtd">
<!-- Generated by graphviz version 2.40.1 (20161225.0304)
 -->
<!-- Title: dependencies Pages: 1 -->
<svg width="1897pt" height="211pt"
 viewBox="0.00 0.00 1897.00 211.00" xmlns="http://www.w3.org/2000/svg" xmlns:xlink="http://www.w3.org/1999/xlink">
<g id="graph0" class="graph" transform="scale(1 1) rotate(0) translate(4 207)">
<title>dependencies</title>
<polygon fill="#ffffff" stroke="transparent" points="-4,4 -4,-207 1893,-207 1893,4 -4,4"/>
<text text-anchor="start" x="923.5091" y="-42.4" font-family="sans-serif" font-weight="bold" font-size="14.00" fill="#000000">Legend</text>
<polygon fill="#ffffb3" stroke="transparent" points="710.5,-10 710.5,-30 730.5,-30 730.5,-10 710.5,-10"/>
<text text-anchor="start" x="734.129" y="-15.4" font-family="sans-serif" font-size="14.00" fill="#000000"> &#160;Declarations</text>
<polygon fill="#8dd3c7" stroke="transparent" points="823.5,-10 823.5,-30 843.5,-30 843.5,-10 823.5,-10"/>
<text text-anchor="start" x="847.2251" y="-15.4" font-family="sans-serif" font-size="14.00" fill="#000000"> &#160;Module</text>
<polygon fill="#80b1d3" stroke="transparent" points="909.5,-10 909.5,-30 929.5,-30 929.5,-10 909.5,-10"/>
<text text-anchor="start" x="933.2812" y="-15.4" font-family="sans-serif" font-size="14.00" fill="#000000"> &#160;Bootstrap</text>
<polygon fill="#fdb462" stroke="transparent" points="1006.5,-10 1006.5,-30 1026.5,-30 1026.5,-10 1006.5,-10"/>
<text text-anchor="start" x="1030.1732" y="-15.4" font-family="sans-serif" font-size="14.00" fill="#000000"> &#160;Providers</text>
<polygon fill="#fb8072" stroke="transparent" points="1102.5,-10 1102.5,-30 1122.5,-30 1122.5,-10 1102.5,-10"/>
<text text-anchor="start" x="1126.2258" y="-15.4" font-family="sans-serif" font-size="14.00" fill="#000000"> &#160;Exports</text>
<g id="clust1" class="cluster">
<title>cluster_MaterialCuracionModule</title>
<polygon fill="none" stroke="#000000" stroke-dasharray="1,5" points="8,-70 8,-195 1881,-195 1881,-70 8,-70"/>
</g>
<g id="clust2" class="cluster">
<title>cluster_MaterialCuracionModule_declarations</title>
<polygon fill="none" stroke="#000000" points="1585,-78 1585,-130 1873,-130 1873,-78 1585,-78"/>
</g>
<g id="clust5" class="cluster">
<title>cluster_MaterialCuracionModule_imports</title>
<polygon fill="none" stroke="#000000" points="295,-78 295,-130 1577,-130 1577,-78 295,-78"/>
</g>
<g id="clust8" class="cluster">
<title>cluster_MaterialCuracionModule_providers</title>
<polygon fill="none" stroke="#000000" points="16,-78 16,-130 287,-130 287,-78 16,-78"/>
</g>
<!-- ListaComponent -->
<g id="node1" class="node">
<title>ListaComponent</title>
<polygon fill="#ffffb3" stroke="#000000" points="1864.8259,-122 1755.1741,-122 1755.1741,-86 1864.8259,-86 1864.8259,-122"/>
<text text-anchor="middle" x="1810" y="-99.8" font-family="Times,serif" font-size="14.00" fill="#000000">ListaComponent</text>
</g>
<!-- MaterialCuracionModule -->
<g id="node3" class="node">
<title>MaterialCuracionModule</title>
<polygon fill="#8dd3c7" stroke="#000000" points="981.2879,-187 978.2879,-191 957.2879,-191 954.2879,-187 822.7121,-187 822.7121,-151 981.2879,-151 981.2879,-187"/>
<text text-anchor="middle" x="902" y="-164.8" font-family="Times,serif" font-size="14.00" fill="#000000">MaterialCuracionModule</text>
</g>
<!-- ListaComponent&#45;&gt;MaterialCuracionModule -->
<g id="edge1" class="edge">
<title>ListaComponent&#45;&gt;MaterialCuracionModule</title>
<path fill="none" stroke="#000000" d="M1810,-122.0908C1810,-145.1328 1810,-182 1810,-182 1810,-182 991.3865,-182 991.3865,-182"/>
<polygon fill="#000000" stroke="#000000" points="991.3865,-178.5001 981.3865,-182 991.3864,-185.5001 991.3865,-178.5001"/>
</g>
<!-- FormularioComponent -->
<g id="node2" class="node">
<title>FormularioComponent</title>
<polygon fill="#ffffb3" stroke="#000000" points="1737.323,-122 1592.677,-122 1592.677,-86 1737.323,-86 1737.323,-122"/>
<text text-anchor="middle" x="1665" y="-99.8" font-family="Times,serif" font-size="14.00" fill="#000000">FormularioComponent</text>
</g>
<!-- FormularioComponent&#45;&gt;MaterialCuracionModule -->
<g id="edge2" class="edge">
<title>FormularioComponent&#45;&gt;MaterialCuracionModule</title>
<path fill="none" stroke="#000000" d="M1665,-122.2843C1665,-143.3211 1665,-175 1665,-175 1665,-175 991.4951,-175 991.4951,-175"/>
<polygon fill="#000000" stroke="#000000" points="991.4951,-171.5001 981.4951,-175 991.4951,-178.5001 991.4951,-171.5001"/>
</g>
<!-- MaterialCuracionRoutingModule -->
<g id="node4" class="node">
<title>MaterialCuracionRoutingModule</title>
<polygon fill="#8dd3c7" stroke="#000000" points="1568.9058,-122 1565.9058,-126 1544.9058,-126 1541.9058,-122 1365.0942,-122 1365.0942,-86 1568.9058,-86 1568.9058,-122"/>
<text text-anchor="middle" x="1467" y="-99.8" font-family="Times,serif" font-size="14.00" fill="#000000">MaterialCuracionRoutingModule</text>
</g>
<!-- MaterialCuracionRoutingModule&#45;&gt;MaterialCuracionModule -->
<g id="edge3" class="edge">
<title>MaterialCuracionRoutingModule&#45;&gt;MaterialCuracionModule</title>
<path fill="none" stroke="#000000" d="M1467,-122.1061C1467,-141.3391 1467,-169 1467,-169 1467,-169 991.1557,-169 991.1557,-169"/>
<polygon fill="#000000" stroke="#000000" points="991.1558,-165.5001 981.1557,-169 991.1557,-172.5001 991.1558,-165.5001"/>
</g>
<!-- HubModule -->
<g id="node5" class="node">
<title>HubModule</title>
<polygon fill="#8dd3c7" stroke="#000000" points="1346.6571,-122 1343.6571,-126 1322.6571,-126 1319.6571,-122 1263.3429,-122 1263.3429,-86 1346.6571,-86 1346.6571,-122"/>
<text text-anchor="middle" x="1305" y="-99.8" font-family="Times,serif" font-size="14.00" fill="#000000">HubModule</text>
</g>
<!-- HubModule&#45;&gt;MaterialCuracionModule -->
<g id="edge4" class="edge">
<title>HubModule&#45;&gt;MaterialCuracionModule</title>
<path fill="none" stroke="#000000" d="M1305,-122.0225C1305,-139.3734 1305,-163 1305,-163 1305,-163 991.6198,-163 991.6198,-163"/>
<polygon fill="#000000" stroke="#000000" points="991.6199,-159.5001 981.6198,-163 991.6198,-166.5001 991.6199,-159.5001"/>
</g>
<!-- PerfilModule -->
<g id="node6" class="node">
<title>PerfilModule</title>
<polygon fill="#8dd3c7" stroke="#000000" points="1245.1501,-122 1242.1501,-126 1221.1501,-126 1218.1501,-122 1154.8499,-122 1154.8499,-86 1245.1501,-86 1245.1501,-122"/>
<text text-anchor="middle" x="1200" y="-99.8" font-family="Times,serif" font-size="14.00" fill="#000000">PerfilModule</text>
</g>
<!-- PerfilModule&#45;&gt;MaterialCuracionModule -->
<g id="edge5" class="edge">
<title>PerfilModule&#45;&gt;MaterialCuracionModule</title>
<path fill="none" stroke="#000000" d="M1200,-122.2396C1200,-137.5706 1200,-157 1200,-157 1200,-157 991.4671,-157 991.4671,-157"/>
<polygon fill="#000000" stroke="#000000" points="991.4671,-153.5001 981.4671,-157 991.467,-160.5001 991.4671,-153.5001"/>
</g>
<!-- BloquearPantallaModule -->
<g id="node7" class="node">
<title>BloquearPantallaModule</title>
<polygon fill="#8dd3c7" stroke="#000000" points="1136.965,-122 1133.965,-126 1112.965,-126 1109.965,-122 981.035,-122 981.035,-86 1136.965,-86 1136.965,-122"/>
<text text-anchor="middle" x="1059" y="-99.8" font-family="Times,serif" font-size="14.00" fill="#000000">BloquearPantallaModule</text>
</g>
<!-- BloquearPantallaModule&#45;&gt;MaterialCuracionModule -->
<g id="edge6" class="edge">
<title>BloquearPantallaModule&#45;&gt;MaterialCuracionModule</title>
<path fill="none" stroke="#000000" d="M980.9363,-104C975.403,-104 971.9481,-104 971.9481,-104 971.9481,-104 971.9481,-140.8939 971.9481,-140.8939"/>
<polygon fill="#000000" stroke="#000000" points="968.4482,-140.8938 971.9481,-150.8939 975.4482,-140.8939 968.4482,-140.8938"/>
</g>
<!-- PaginacionModule -->
<g id="node8" class="node">
<title>PaginacionModule</title>
<polygon fill="#8dd3c7" stroke="#000000" points="962.7576,-122 959.7576,-126 938.7576,-126 935.7576,-122 841.2424,-122 841.2424,-86 962.7576,-86 962.7576,-122"/>
<text text-anchor="middle" x="902" y="-99.8" font-family="Times,serif" font-size="14.00" fill="#000000">PaginacionModule</text>
</g>
<!-- PaginacionModule&#45;&gt;MaterialCuracionModule -->
<g id="edge7" class="edge">
<title>PaginacionModule&#45;&gt;MaterialCuracionModule</title>
<path fill="none" stroke="#000000" d="M902,-122.1061C902,-122.1061 902,-140.991 902,-140.991"/>
<polygon fill="#000000" stroke="#000000" points="898.5001,-140.9909 902,-150.991 905.5001,-140.991 898.5001,-140.9909"/>
</g>
<!-- MenuPanelModule -->
<g id="node9" class="node">
<title>MenuPanelModule</title>
<polygon fill="#8dd3c7" stroke="#000000" points="822.8118,-122 819.8118,-126 798.8118,-126 795.8118,-122 699.1882,-122 699.1882,-86 822.8118,-86 822.8118,-122"/>
<text text-anchor="middle" x="761" y="-99.8" font-family="Times,serif" font-size="14.00" fill="#000000">MenuPanelModule</text>
</g>
<!-- MenuPanelModule&#45;&gt;MaterialCuracionModule -->
<g id="edge8" class="edge">
<title>MenuPanelModule&#45;&gt;MaterialCuracionModule</title>
<path fill="none" stroke="#000000" d="M822.7082,-104C828.3449,-104 831.9888,-104 831.9888,-104 831.9888,-104 831.9888,-140.8939 831.9888,-140.8939"/>
<polygon fill="#000000" stroke="#000000" points="828.4888,-140.8938 831.9888,-150.8939 835.4888,-140.8939 828.4888,-140.8938"/>
</g>
<!-- MenuAsidePanelModule -->
<g id="node10" class="node">
<title>MenuAsidePanelModule</title>
<polygon fill="#8dd3c7" stroke="#000000" points="680.9678,-122 677.9678,-126 656.9678,-126 653.9678,-122 525.0322,-122 525.0322,-86 680.9678,-86 680.9678,-122"/>
<text text-anchor="middle" x="603" y="-99.8" font-family="Times,serif" font-size="14.00" fill="#000000">MenuAsidePanelModule</text>
</g>
<!-- MenuAsidePanelModule&#45;&gt;MaterialCuracionModule -->
<g id="edge9" class="edge">
<title>MenuAsidePanelModule&#45;&gt;MaterialCuracionModule</title>
<path fill="none" stroke="#000000" d="M603,-122.2396C603,-137.5706 603,-157 603,-157 603,-157 812.6585,-157 812.6585,-157"/>
<polygon fill="#000000" stroke="#000000" points="812.6585,-160.5001 822.6585,-157 812.6585,-153.5001 812.6585,-160.5001"/>
</g>
<!-- CrudModule -->
<g id="node11" class="node">
<title>CrudModule</title>
<polygon fill="#8dd3c7" stroke="#000000" points="506.5482,-122 503.5482,-126 482.5482,-126 479.5482,-122 419.4518,-122 419.4518,-86 506.5482,-86 506.5482,-122"/>
<text text-anchor="middle" x="463" y="-99.8" font-family="Times,serif" font-size="14.00" fill="#000000">CrudModule</text>
</g>
<!-- CrudModule&#45;&gt;MaterialCuracionModule -->
<g id="edge10" class="edge">
<title>CrudModule&#45;&gt;MaterialCuracionModule</title>
<path fill="none" stroke="#000000" d="M463,-122.0225C463,-139.3734 463,-163 463,-163 463,-163 812.7546,-163 812.7546,-163"/>
<polygon fill="#000000" stroke="#000000" points="812.7547,-166.5001 822.7546,-163 812.7546,-159.5001 812.7547,-166.5001"/>
</g>
<!-- ParcialModule -->
<g id="node12" class="node">
<title>ParcialModule</title>
<polygon fill="#8dd3c7" stroke="#000000" points="401.4189,-122 398.4189,-126 377.4189,-126 374.4189,-122 302.5811,-122 302.5811,-86 401.4189,-86 401.4189,-122"/>
<text text-anchor="middle" x="352" y="-99.8" font-family="Times,serif" font-size="14.00" fill="#000000">ParcialModule</text>
</g>
<!-- ParcialModule&#45;&gt;MaterialCuracionModule -->
<g id="edge11" class="edge">
<title>ParcialModule&#45;&gt;MaterialCuracionModule</title>
<path fill="none" stroke="#000000" d="M352,-122.1061C352,-141.3391 352,-169 352,-169 352,-169 812.6127,-169 812.6127,-169"/>
<polygon fill="#000000" stroke="#000000" points="812.6127,-172.5001 822.6127,-169 812.6126,-165.5001 812.6127,-172.5001"/>
</g>
<!-- AuthService -->
<g id="node13" class="node">
<title>AuthService</title>
<ellipse fill="#fdb462" stroke="#000000" cx="220" cy="-104" rx="59.1083" ry="18"/>
<text text-anchor="middle" x="220" y="-99.8" font-family="Times,serif" font-size="14.00" fill="#000000">AuthService</text>
</g>
<!-- AuthService&#45;&gt;MaterialCuracionModule -->
<g id="edge12" class="edge">
<title>AuthService&#45;&gt;MaterialCuracionModule</title>
<path fill="none" stroke="#000000" d="M220,-122.2843C220,-143.3211 220,-175 220,-175 220,-175 812.7657,-175 812.7657,-175"/>
<polygon fill="#000000" stroke="#000000" points="812.7657,-178.5001 822.7657,-175 812.7657,-171.5001 812.7657,-178.5001"/>
</g>
<!-- CrudService -->
<g id="node14" class="node">
<title>CrudService</title>
<ellipse fill="#fdb462" stroke="#000000" cx="83" cy="-104" rx="59.1083" ry="18"/>
<text text-anchor="middle" x="83" y="-99.8" font-family="Times,serif" font-size="14.00" fill="#000000">CrudService</text>
</g>
<!-- CrudService&#45;&gt;MaterialCuracionModule -->
<g id="edge13" class="edge">
<title>CrudService&#45;&gt;MaterialCuracionModule</title>
<path fill="none" stroke="#000000" d="M83,-122.0908C83,-145.1328 83,-182 83,-182 83,-182 812.7267,-182 812.7267,-182"/>
<polygon fill="#000000" stroke="#000000" points="812.7267,-185.5001 822.7267,-182 812.7266,-178.5001 812.7267,-185.5001"/>
</g>
</g>
</svg>
