<?xml version="1.0" encoding="UTF-8" standalone="no"?>
<!DOCTYPE svg PUBLIC "-//W3C//DTD SVG 1.1//EN"
 "http://www.w3.org/Graphics/SVG/1.1/DTD/svg11.dtd">
<!-- Generated by graphviz version 2.40.1 (20161225.0304)
 -->
<!-- Title: dependencies Pages: 1 -->
<svg width="504pt" height="284pt"
 viewBox="0.00 0.00 504.00 284.00" xmlns="http://www.w3.org/2000/svg" xmlns:xlink="http://www.w3.org/1999/xlink">
<g id="graph0" class="graph" transform="scale(1 1) rotate(0) translate(4 280)">
<title>dependencies</title>
<polygon fill="#ffffff" stroke="transparent" points="-4,4 -4,-280 500,-280 500,4 -4,4"/>
<text text-anchor="start" x="227.0091" y="-42.4" font-family="sans-serif" font-weight="bold" font-size="14.00" fill="#000000">Legend</text>
<polygon fill="#ffffb3" stroke="transparent" points="14,-10 14,-30 34,-30 34,-10 14,-10"/>
<text text-anchor="start" x="37.629" y="-15.4" font-family="sans-serif" font-size="14.00" fill="#000000"> &#160;Declarations</text>
<polygon fill="#8dd3c7" stroke="transparent" points="127,-10 127,-30 147,-30 147,-10 127,-10"/>
<text text-anchor="start" x="150.7251" y="-15.4" font-family="sans-serif" font-size="14.00" fill="#000000"> &#160;Module</text>
<polygon fill="#80b1d3" stroke="transparent" points="213,-10 213,-30 233,-30 233,-10 213,-10"/>
<text text-anchor="start" x="236.7812" y="-15.4" font-family="sans-serif" font-size="14.00" fill="#000000"> &#160;Bootstrap</text>
<polygon fill="#fdb462" stroke="transparent" points="310,-10 310,-30 330,-30 330,-10 310,-10"/>
<text text-anchor="start" x="333.6732" y="-15.4" font-family="sans-serif" font-size="14.00" fill="#000000"> &#160;Providers</text>
<polygon fill="#fb8072" stroke="transparent" points="406,-10 406,-30 426,-30 426,-10 406,-10"/>
<text text-anchor="start" x="429.7258" y="-15.4" font-family="sans-serif" font-size="14.00" fill="#000000"> &#160;Exports</text>
<g id="clust1" class="cluster">
<title>cluster_PerfilModule</title>
<polygon fill="none" stroke="#000000" stroke-dasharray="1,5" points="60,-70 60,-268 436,-268 436,-70 60,-70"/>
</g>
<g id="clust2" class="cluster">
<title>cluster_PerfilModule_declarations</title>
<polygon fill="none" stroke="#000000" points="300,-78 300,-130 428,-130 428,-78 300,-78"/>
</g>
<g id="clust5" class="cluster">
<title>cluster_PerfilModule_exports</title>
<polygon fill="none" stroke="#000000" points="205,-208 205,-260 337,-260 337,-208 205,-208"/>
</g>
<g id="clust7" class="cluster">
<title>cluster_PerfilModule_providers</title>
<polygon fill="none" stroke="#000000" points="68,-78 68,-130 292,-130 292,-78 68,-78"/>
</g>
<!-- PerfilComponent -->
<g id="node1" class="node">
<title>PerfilComponent</title>
<polygon fill="#ffffb3" stroke="#000000" points="420.4328,-122 307.5672,-122 307.5672,-86 420.4328,-86 420.4328,-122"/>
<text text-anchor="middle" x="364" y="-99.8" font-family="Times,serif" font-size="14.00" fill="#000000">PerfilComponent</text>
</g>
<!-- PerfilModule -->
<g id="node2" class="node">
<title>PerfilModule</title>
<polygon fill="#8dd3c7" stroke="#000000" points="316.1501,-187 313.1501,-191 292.1501,-191 289.1501,-187 225.8499,-187 225.8499,-151 316.1501,-151 316.1501,-187"/>
<text text-anchor="middle" x="271" y="-164.8" font-family="Times,serif" font-size="14.00" fill="#000000">PerfilModule</text>
</g>
<!-- PerfilComponent&#45;&gt;PerfilModule -->
<g id="edge1" class="edge">
<title>PerfilComponent&#45;&gt;PerfilModule</title>
<path fill="none" stroke="#000000" d="M312.0544,-122.1061C312.0544,-122.1061 312.0544,-140.991 312.0544,-140.991"/>
<polygon fill="#000000" stroke="#000000" points="308.5544,-140.9909 312.0544,-150.991 315.5544,-140.991 308.5544,-140.9909"/>
</g>
<!-- PerfilComponent  -->
<g id="node3" class="node">
<title>PerfilComponent </title>
<polygon fill="#fb8072" stroke="#000000" points="328.932,-252 213.068,-252 213.068,-216 328.932,-216 328.932,-252"/>
<text text-anchor="middle" x="271" y="-229.8" font-family="Times,serif" font-size="14.00" fill="#000000">PerfilComponent </text>
</g>
<!-- PerfilModule&#45;&gt;PerfilComponent  -->
<g id="edge2" class="edge">
<title>PerfilModule&#45;&gt;PerfilComponent </title>
<path fill="none" stroke="#000000" stroke-dasharray="5,2" d="M271,-187.1061C271,-187.1061 271,-205.991 271,-205.991"/>
<polygon fill="#000000" stroke="#000000" points="267.5001,-205.9909 271,-215.991 274.5001,-205.991 267.5001,-205.9909"/>
</g>
<!-- CambiarEntornoService -->
<g id="node4" class="node">
<title>CambiarEntornoService</title>
<ellipse fill="#fdb462" stroke="#000000" cx="180" cy="-104" rx="104.213" ry="18"/>
<text text-anchor="middle" x="180" y="-99.8" font-family="Times,serif" font-size="14.00" fill="#000000">CambiarEntornoService</text>
</g>
<!-- CambiarEntornoService&#45;&gt;PerfilModule -->
<g id="edge3" class="edge">
<title>CambiarEntornoService&#45;&gt;PerfilModule</title>
<path fill="none" stroke="#000000" d="M255.0158,-116.5327C255.0158,-116.5327 255.0158,-140.8507 255.0158,-140.8507"/>
<polygon fill="#000000" stroke="#000000" points="251.5159,-140.8506 255.0158,-150.8507 258.5159,-140.8507 251.5159,-140.8506"/>
</g>
</g>
</svg>
