<?xml version="1.0" encoding="UTF-8" standalone="no"?>
<!DOCTYPE svg PUBLIC "-//W3C//DTD SVG 1.1//EN"
 "http://www.w3.org/Graphics/SVG/1.1/DTD/svg11.dtd">
<!-- Generated by graphviz version 2.40.1 (20161225.0304)
 -->
<!-- Title: dependencies Pages: 1 -->
<svg width="1868pt" height="211pt"
 viewBox="0.00 0.00 1868.00 211.00" xmlns="http://www.w3.org/2000/svg" xmlns:xlink="http://www.w3.org/1999/xlink">
<g id="graph0" class="graph" transform="scale(1 1) rotate(0) translate(4 207)">
<title>dependencies</title>
<polygon fill="#ffffff" stroke="transparent" points="-4,4 -4,-207 1864,-207 1864,4 -4,4"/>
<text text-anchor="start" x="909.0091" y="-42.4" font-family="sans-serif" font-weight="bold" font-size="14.00" fill="#000000">Legend</text>
<polygon fill="#ffffb3" stroke="transparent" points="696,-10 696,-30 716,-30 716,-10 696,-10"/>
<text text-anchor="start" x="719.629" y="-15.4" font-family="sans-serif" font-size="14.00" fill="#000000"> &#160;Declarations</text>
<polygon fill="#8dd3c7" stroke="transparent" points="809,-10 809,-30 829,-30 829,-10 809,-10"/>
<text text-anchor="start" x="832.7251" y="-15.4" font-family="sans-serif" font-size="14.00" fill="#000000"> &#160;Module</text>
<polygon fill="#80b1d3" stroke="transparent" points="895,-10 895,-30 915,-30 915,-10 895,-10"/>
<text text-anchor="start" x="918.7812" y="-15.4" font-family="sans-serif" font-size="14.00" fill="#000000"> &#160;Bootstrap</text>
<polygon fill="#fdb462" stroke="transparent" points="992,-10 992,-30 1012,-30 1012,-10 992,-10"/>
<text text-anchor="start" x="1015.6732" y="-15.4" font-family="sans-serif" font-size="14.00" fill="#000000"> &#160;Providers</text>
<polygon fill="#fb8072" stroke="transparent" points="1088,-10 1088,-30 1108,-30 1108,-10 1088,-10"/>
<text text-anchor="start" x="1111.7258" y="-15.4" font-family="sans-serif" font-size="14.00" fill="#000000"> &#160;Exports</text>
<g id="clust1" class="cluster">
<title>cluster_SalidasRecetasModule</title>
<polygon fill="none" stroke="#000000" stroke-dasharray="1,5" points="8,-70 8,-195 1852,-195 1852,-70 8,-70"/>
</g>
<g id="clust2" class="cluster">
<title>cluster_SalidasRecetasModule_declarations</title>
<polygon fill="none" stroke="#000000" points="1299,-78 1299,-130 1844,-130 1844,-78 1299,-78"/>
</g>
<g id="clust6" class="cluster">
<title>cluster_SalidasRecetasModule_imports</title>
<polygon fill="none" stroke="#000000" points="295,-78 295,-130 1291,-130 1291,-78 295,-78"/>
</g>
<g id="clust9" class="cluster">
<title>cluster_SalidasRecetasModule_providers</title>
<polygon fill="none" stroke="#000000" points="16,-78 16,-130 287,-130 287,-78 16,-78"/>
</g>
<!-- ListaRecetasComponent -->
<g id="node1" class="node">
<title>ListaRecetasComponent</title>
<polygon fill="#ffffb3" stroke="#000000" points="1836.3557,-122 1683.6443,-122 1683.6443,-86 1836.3557,-86 1836.3557,-122"/>
<text text-anchor="middle" x="1760" y="-99.8" font-family="Times,serif" font-size="14.00" fill="#000000">ListaRecetasComponent</text>
</g>
<!-- SalidasRecetasModule -->
<g id="node4" class="node">
<title>SalidasRecetasModule</title>
<polygon fill="#8dd3c7" stroke="#000000" points="930.5184,-187 927.5184,-191 906.5184,-191 903.5184,-187 787.4816,-187 787.4816,-151 930.5184,-151 930.5184,-187"/>
<text text-anchor="middle" x="859" y="-164.8" font-family="Times,serif" font-size="14.00" fill="#000000">SalidasRecetasModule</text>
</g>
<!-- ListaRecetasComponent&#45;&gt;SalidasRecetasModule -->
<g id="edge1" class="edge">
<title>ListaRecetasComponent&#45;&gt;SalidasRecetasModule</title>
<path fill="none" stroke="#000000" d="M1760,-122.0908C1760,-145.1328 1760,-182 1760,-182 1760,-182 940.8309,-182 940.8309,-182"/>
<polygon fill="#000000" stroke="#000000" points="940.8309,-178.5001 930.8309,-182 940.8309,-185.5001 940.8309,-178.5001"/>
</g>
<!-- FormularioRecetaComponent -->
<g id="node2" class="node">
<title>FormularioRecetaComponent</title>
<polygon fill="#ffffb3" stroke="#000000" points="1665.4087,-122 1482.5913,-122 1482.5913,-86 1665.4087,-86 1665.4087,-122"/>
<text text-anchor="middle" x="1574" y="-99.8" font-family="Times,serif" font-size="14.00" fill="#000000">FormularioRecetaComponent</text>
</g>
<!-- FormularioRecetaComponent&#45;&gt;SalidasRecetasModule -->
<g id="edge2" class="edge">
<title>FormularioRecetaComponent&#45;&gt;SalidasRecetasModule</title>
<path fill="none" stroke="#000000" d="M1574,-122.2843C1574,-143.3211 1574,-175 1574,-175 1574,-175 940.8306,-175 940.8306,-175"/>
<polygon fill="#000000" stroke="#000000" points="940.8306,-171.5001 930.8306,-175 940.8306,-178.5001 940.8306,-171.5001"/>
</g>
<!-- ModalTurnosComponent -->
<g id="node3" class="node">
<title>ModalTurnosComponent</title>
<polygon fill="#ffffb3" stroke="#000000" points="1464.5407,-122 1307.4593,-122 1307.4593,-86 1464.5407,-86 1464.5407,-122"/>
<text text-anchor="middle" x="1386" y="-99.8" font-family="Times,serif" font-size="14.00" fill="#000000">ModalTurnosComponent</text>
</g>
<!-- ModalTurnosComponent&#45;&gt;SalidasRecetasModule -->
<g id="edge3" class="edge">
<title>ModalTurnosComponent&#45;&gt;SalidasRecetasModule</title>
<path fill="none" stroke="#000000" d="M1386,-122.1061C1386,-141.3391 1386,-169 1386,-169 1386,-169 940.622,-169 940.622,-169"/>
<polygon fill="#000000" stroke="#000000" points="940.6221,-165.5001 930.622,-169 940.622,-172.5001 940.6221,-165.5001"/>
</g>
<!-- SalidasRecetasRoutingModule -->
<g id="node5" class="node">
<title>SalidasRecetasRoutingModule</title>
<polygon fill="#8dd3c7" stroke="#000000" points="1283.1358,-122 1280.1358,-126 1259.1358,-126 1256.1358,-122 1094.8642,-122 1094.8642,-86 1283.1358,-86 1283.1358,-122"/>
<text text-anchor="middle" x="1189" y="-99.8" font-family="Times,serif" font-size="14.00" fill="#000000">SalidasRecetasRoutingModule</text>
</g>
<!-- SalidasRecetasRoutingModule&#45;&gt;SalidasRecetasModule -->
<g id="edge4" class="edge">
<title>SalidasRecetasRoutingModule&#45;&gt;SalidasRecetasModule</title>
<path fill="none" stroke="#000000" d="M1189,-122.0225C1189,-139.3734 1189,-163 1189,-163 1189,-163 940.6051,-163 940.6051,-163"/>
<polygon fill="#000000" stroke="#000000" points="940.6051,-159.5001 930.6051,-163 940.6051,-166.5001 940.6051,-159.5001"/>
</g>
<!-- HubModule -->
<g id="node6" class="node">
<title>HubModule</title>
<polygon fill="#8dd3c7" stroke="#000000" points="1076.6571,-122 1073.6571,-126 1052.6571,-126 1049.6571,-122 993.3429,-122 993.3429,-86 1076.6571,-86 1076.6571,-122"/>
<text text-anchor="middle" x="1035" y="-99.8" font-family="Times,serif" font-size="14.00" fill="#000000">HubModule</text>
</g>
<!-- HubModule&#45;&gt;SalidasRecetasModule -->
<g id="edge5" class="edge">
<title>HubModule&#45;&gt;SalidasRecetasModule</title>
<path fill="none" stroke="#000000" d="M1035,-122.2396C1035,-137.5706 1035,-157 1035,-157 1035,-157 940.5859,-157 940.5859,-157"/>
<polygon fill="#000000" stroke="#000000" points="940.586,-153.5001 930.5859,-157 940.5859,-160.5001 940.586,-153.5001"/>
</g>
<!-- PerfilModule -->
<g id="node7" class="node">
<title>PerfilModule</title>
<polygon fill="#8dd3c7" stroke="#000000" points="975.1501,-122 972.1501,-126 951.1501,-126 948.1501,-122 884.8499,-122 884.8499,-86 975.1501,-86 975.1501,-122"/>
<text text-anchor="middle" x="930" y="-99.8" font-family="Times,serif" font-size="14.00" fill="#000000">PerfilModule</text>
</g>
<!-- PerfilModule&#45;&gt;SalidasRecetasModule -->
<g id="edge6" class="edge">
<title>PerfilModule&#45;&gt;SalidasRecetasModule</title>
<path fill="none" stroke="#000000" d="M907.7171,-122.1061C907.7171,-122.1061 907.7171,-140.991 907.7171,-140.991"/>
<polygon fill="#000000" stroke="#000000" points="904.2171,-140.9909 907.7171,-150.991 911.2171,-140.991 904.2171,-140.9909"/>
</g>
<!-- BloquearPantallaModule -->
<g id="node8" class="node">
<title>BloquearPantallaModule</title>
<polygon fill="#8dd3c7" stroke="#000000" points="866.965,-122 863.965,-126 842.965,-126 839.965,-122 711.035,-122 711.035,-86 866.965,-86 866.965,-122"/>
<text text-anchor="middle" x="789" y="-99.8" font-family="Times,serif" font-size="14.00" fill="#000000">BloquearPantallaModule</text>
</g>
<!-- BloquearPantallaModule&#45;&gt;SalidasRecetasModule -->
<g id="edge7" class="edge">
<title>BloquearPantallaModule&#45;&gt;SalidasRecetasModule</title>
<path fill="none" stroke="#000000" d="M827.1119,-122.1061C827.1119,-122.1061 827.1119,-140.991 827.1119,-140.991"/>
<polygon fill="#000000" stroke="#000000" points="823.6119,-140.9909 827.1119,-150.991 830.6119,-140.991 823.6119,-140.9909"/>
</g>
<!-- PaginacionModule -->
<g id="node9" class="node">
<title>PaginacionModule</title>
<polygon fill="#8dd3c7" stroke="#000000" points="692.7576,-122 689.7576,-126 668.7576,-126 665.7576,-122 571.2424,-122 571.2424,-86 692.7576,-86 692.7576,-122"/>
<text text-anchor="middle" x="632" y="-99.8" font-family="Times,serif" font-size="14.00" fill="#000000">PaginacionModule</text>
</g>
<!-- PaginacionModule&#45;&gt;SalidasRecetasModule -->
<g id="edge8" class="edge">
<title>PaginacionModule&#45;&gt;SalidasRecetasModule</title>
<path fill="none" stroke="#000000" d="M632,-122.2396C632,-137.5706 632,-157 632,-157 632,-157 777.1758,-157 777.1758,-157"/>
<polygon fill="#000000" stroke="#000000" points="777.1758,-160.5001 787.1758,-157 777.1757,-153.5001 777.1758,-160.5001"/>
</g>
<!-- IndexFarmaciaModule -->
<g id="node10" class="node">
<title>IndexFarmaciaModule</title>
<polygon fill="#8dd3c7" stroke="#000000" points="552.5086,-122 549.5086,-126 528.5086,-126 525.5086,-122 409.4914,-122 409.4914,-86 552.5086,-86 552.5086,-122"/>
<text text-anchor="middle" x="481" y="-99.8" font-family="Times,serif" font-size="14.00" fill="#000000">IndexFarmaciaModule</text>
</g>
<!-- IndexFarmaciaModule&#45;&gt;SalidasRecetasModule -->
<g id="edge9" class="edge">
<title>IndexFarmaciaModule&#45;&gt;SalidasRecetasModule</title>
<path fill="none" stroke="#000000" d="M481,-122.0225C481,-139.3734 481,-163 481,-163 481,-163 777.4567,-163 777.4567,-163"/>
<polygon fill="#000000" stroke="#000000" points="777.4567,-166.5001 787.4567,-163 777.4567,-159.5001 777.4567,-166.5001"/>
</g>
<!-- CrudModule -->
<g id="node11" class="node">
<title>CrudModule</title>
<polygon fill="#8dd3c7" stroke="#000000" points="390.5482,-122 387.5482,-126 366.5482,-126 363.5482,-122 303.4518,-122 303.4518,-86 390.5482,-86 390.5482,-122"/>
<text text-anchor="middle" x="347" y="-99.8" font-family="Times,serif" font-size="14.00" fill="#000000">CrudModule</text>
</g>
<!-- CrudModule&#45;&gt;SalidasRecetasModule -->
<g id="edge10" class="edge">
<title>CrudModule&#45;&gt;SalidasRecetasModule</title>
<path fill="none" stroke="#000000" d="M347,-122.1061C347,-141.3391 347,-169 347,-169 347,-169 777.2695,-169 777.2695,-169"/>
<polygon fill="#000000" stroke="#000000" points="777.2695,-172.5001 787.2695,-169 777.2695,-165.5001 777.2695,-172.5001"/>
</g>
<!-- AuthService -->
<g id="node12" class="node">
<title>AuthService</title>
<ellipse fill="#fdb462" stroke="#000000" cx="220" cy="-104" rx="59.1083" ry="18"/>
<text text-anchor="middle" x="220" y="-99.8" font-family="Times,serif" font-size="14.00" fill="#000000">AuthService</text>
</g>
<!-- AuthService&#45;&gt;SalidasRecetasModule -->
<g id="edge11" class="edge">
<title>AuthService&#45;&gt;SalidasRecetasModule</title>
<path fill="none" stroke="#000000" d="M220,-122.2843C220,-143.3211 220,-175 220,-175 220,-175 777.2499,-175 777.2499,-175"/>
<polygon fill="#000000" stroke="#000000" points="777.2499,-178.5001 787.2499,-175 777.2499,-171.5001 777.2499,-178.5001"/>
</g>
<!-- CrudService -->
<g id="node13" class="node">
<title>CrudService</title>
<ellipse fill="#fdb462" stroke="#000000" cx="83" cy="-104" rx="59.1083" ry="18"/>
<text text-anchor="middle" x="83" y="-99.8" font-family="Times,serif" font-size="14.00" fill="#000000">CrudService</text>
</g>
<!-- CrudService&#45;&gt;SalidasRecetasModule -->
<g id="edge12" class="edge">
<title>CrudService&#45;&gt;SalidasRecetasModule</title>
<path fill="none" stroke="#000000" d="M83,-122.0908C83,-145.1328 83,-182 83,-182 83,-182 777.3867,-182 777.3867,-182"/>
<polygon fill="#000000" stroke="#000000" points="777.3868,-185.5001 787.3867,-182 777.3867,-178.5001 777.3868,-185.5001"/>
</g>
</g>
</svg>
