<?xml version="1.0" encoding="UTF-8" standalone="no"?>
<!DOCTYPE svg PUBLIC "-//W3C//DTD SVG 1.1//EN"
 "http://www.w3.org/Graphics/SVG/1.1/DTD/svg11.dtd">
<!-- Generated by graphviz version 2.40.1 (20161225.0304)
 -->
<!-- Title: dependencies Pages: 1 -->
<svg width="1387pt" height="211pt"
 viewBox="0.00 0.00 1387.00 211.00" xmlns="http://www.w3.org/2000/svg" xmlns:xlink="http://www.w3.org/1999/xlink">
<g id="graph0" class="graph" transform="scale(1 1) rotate(0) translate(4 207)">
<title>dependencies</title>
<polygon fill="#ffffff" stroke="transparent" points="-4,4 -4,-207 1383,-207 1383,4 -4,4"/>
<text text-anchor="start" x="668.5091" y="-42.4" font-family="sans-serif" font-weight="bold" font-size="14.00" fill="#000000">Legend</text>
<polygon fill="#ffffb3" stroke="transparent" points="455.5,-10 455.5,-30 475.5,-30 475.5,-10 455.5,-10"/>
<text text-anchor="start" x="479.129" y="-15.4" font-family="sans-serif" font-size="14.00" fill="#000000"> &#160;Declarations</text>
<polygon fill="#8dd3c7" stroke="transparent" points="568.5,-10 568.5,-30 588.5,-30 588.5,-10 568.5,-10"/>
<text text-anchor="start" x="592.2251" y="-15.4" font-family="sans-serif" font-size="14.00" fill="#000000"> &#160;Module</text>
<polygon fill="#80b1d3" stroke="transparent" points="654.5,-10 654.5,-30 674.5,-30 674.5,-10 654.5,-10"/>
<text text-anchor="start" x="678.2812" y="-15.4" font-family="sans-serif" font-size="14.00" fill="#000000"> &#160;Bootstrap</text>
<polygon fill="#fdb462" stroke="transparent" points="751.5,-10 751.5,-30 771.5,-30 771.5,-10 751.5,-10"/>
<text text-anchor="start" x="775.1732" y="-15.4" font-family="sans-serif" font-size="14.00" fill="#000000"> &#160;Providers</text>
<polygon fill="#fb8072" stroke="transparent" points="847.5,-10 847.5,-30 867.5,-30 867.5,-10 847.5,-10"/>
<text text-anchor="start" x="871.2258" y="-15.4" font-family="sans-serif" font-size="14.00" fill="#000000"> &#160;Exports</text>
<g id="clust1" class="cluster">
<title>cluster_MisTurnosModule</title>
<polygon fill="none" stroke="#000000" stroke-dasharray="1,5" points="8,-70 8,-195 1371,-195 1371,-70 8,-70"/>
</g>
<g id="clust2" class="cluster">
<title>cluster_MisTurnosModule_declarations</title>
<polygon fill="none" stroke="#000000" points="1203,-78 1203,-130 1363,-130 1363,-78 1203,-78"/>
</g>
<g id="clust4" class="cluster">
<title>cluster_MisTurnosModule_imports</title>
<polygon fill="none" stroke="#000000" points="295,-78 295,-130 1195,-130 1195,-78 295,-78"/>
</g>
<g id="clust7" class="cluster">
<title>cluster_MisTurnosModule_providers</title>
<polygon fill="none" stroke="#000000" points="16,-78 16,-130 287,-130 287,-78 16,-78"/>
</g>
<!-- FormularioComponent -->
<g id="node1" class="node">
<title>FormularioComponent</title>
<polygon fill="#ffffb3" stroke="#000000" points="1355.323,-122 1210.677,-122 1210.677,-86 1355.323,-86 1355.323,-122"/>
<text text-anchor="middle" x="1283" y="-99.8" font-family="Times,serif" font-size="14.00" fill="#000000">FormularioComponent</text>
</g>
<!-- MisTurnosModule -->
<g id="node2" class="node">
<title>MisTurnosModule</title>
<polygon fill="#8dd3c7" stroke="#000000" points="718.4874,-187 715.4874,-191 694.4874,-191 691.4874,-187 597.5126,-187 597.5126,-151 718.4874,-151 718.4874,-187"/>
<text text-anchor="middle" x="658" y="-164.8" font-family="Times,serif" font-size="14.00" fill="#000000">MisTurnosModule</text>
</g>
<!-- FormularioComponent&#45;&gt;MisTurnosModule -->
<g id="edge1" class="edge">
<title>FormularioComponent&#45;&gt;MisTurnosModule</title>
<path fill="none" stroke="#000000" d="M1283,-122.0109C1283,-144.4852 1283,-180 1283,-180 1283,-180 728.4955,-180 728.4955,-180"/>
<polygon fill="#000000" stroke="#000000" points="728.4955,-176.5001 718.4955,-180 728.4955,-183.5001 728.4955,-176.5001"/>
</g>
<!-- TurnosRoutingModule -->
<g id="node3" class="node">
<title>TurnosRoutingModule</title>
<polygon fill="#8dd3c7" stroke="#000000" points="1187.3258,-122 1184.3258,-126 1163.3258,-126 1160.3258,-122 1042.6742,-122 1042.6742,-86 1187.3258,-86 1187.3258,-122"/>
<text text-anchor="middle" x="1115" y="-99.8" font-family="Times,serif" font-size="14.00" fill="#000000">TurnosRoutingModule</text>
</g>
<!-- TurnosRoutingModule&#45;&gt;MisTurnosModule -->
<g id="edge2" class="edge">
<title>TurnosRoutingModule&#45;&gt;MisTurnosModule</title>
<path fill="none" stroke="#000000" d="M1115,-122.1289C1115,-142.5724 1115,-173 1115,-173 1115,-173 728.6861,-173 728.6861,-173"/>
<polygon fill="#000000" stroke="#000000" points="728.6861,-169.5001 718.6861,-173 728.686,-176.5001 728.6861,-169.5001"/>
</g>
<!-- HubModule -->
<g id="node4" class="node">
<title>HubModule</title>
<polygon fill="#8dd3c7" stroke="#000000" points="1024.6571,-122 1021.6571,-126 1000.6571,-126 997.6571,-122 941.3429,-122 941.3429,-86 1024.6571,-86 1024.6571,-122"/>
<text text-anchor="middle" x="983" y="-99.8" font-family="Times,serif" font-size="14.00" fill="#000000">HubModule</text>
</g>
<!-- HubModule&#45;&gt;MisTurnosModule -->
<g id="edge3" class="edge">
<title>HubModule&#45;&gt;MisTurnosModule</title>
<path fill="none" stroke="#000000" d="M983,-122.2667C983,-140.5552 983,-166 983,-166 983,-166 728.7488,-166 728.7488,-166"/>
<polygon fill="#000000" stroke="#000000" points="728.7488,-162.5001 718.7488,-166 728.7487,-169.5001 728.7488,-162.5001"/>
</g>
<!-- PerfilModule -->
<g id="node5" class="node">
<title>PerfilModule</title>
<polygon fill="#8dd3c7" stroke="#000000" points="923.1501,-122 920.1501,-126 899.1501,-126 896.1501,-122 832.8499,-122 832.8499,-86 923.1501,-86 923.1501,-122"/>
<text text-anchor="middle" x="878" y="-99.8" font-family="Times,serif" font-size="14.00" fill="#000000">PerfilModule</text>
</g>
<!-- PerfilModule&#45;&gt;MisTurnosModule -->
<g id="edge4" class="edge">
<title>PerfilModule&#45;&gt;MisTurnosModule</title>
<path fill="none" stroke="#000000" d="M878,-122.0091C878,-138.0494 878,-159 878,-159 878,-159 728.6983,-159 728.6983,-159"/>
<polygon fill="#000000" stroke="#000000" points="728.6984,-155.5001 718.6983,-159 728.6983,-162.5001 728.6984,-155.5001"/>
</g>
<!-- BloquearPantallaModule -->
<g id="node6" class="node">
<title>BloquearPantallaModule</title>
<polygon fill="#8dd3c7" stroke="#000000" points="814.965,-122 811.965,-126 790.965,-126 787.965,-122 659.035,-122 659.035,-86 814.965,-86 814.965,-122"/>
<text text-anchor="middle" x="737" y="-99.8" font-family="Times,serif" font-size="14.00" fill="#000000">BloquearPantallaModule</text>
</g>
<!-- BloquearPantallaModule&#45;&gt;MisTurnosModule -->
<g id="edge5" class="edge">
<title>BloquearPantallaModule&#45;&gt;MisTurnosModule</title>
<path fill="none" stroke="#000000" d="M688.7556,-122.1061C688.7556,-122.1061 688.7556,-140.991 688.7556,-140.991"/>
<polygon fill="#000000" stroke="#000000" points="685.2557,-140.9909 688.7556,-150.991 692.2557,-140.991 685.2557,-140.9909"/>
</g>
<!-- PaginacionModule -->
<g id="node7" class="node">
<title>PaginacionModule</title>
<polygon fill="#8dd3c7" stroke="#000000" points="640.7576,-122 637.7576,-126 616.7576,-126 613.7576,-122 519.2424,-122 519.2424,-86 640.7576,-86 640.7576,-122"/>
<text text-anchor="middle" x="580" y="-99.8" font-family="Times,serif" font-size="14.00" fill="#000000">PaginacionModule</text>
</g>
<!-- PaginacionModule&#45;&gt;MisTurnosModule -->
<g id="edge6" class="edge">
<title>PaginacionModule&#45;&gt;MisTurnosModule</title>
<path fill="none" stroke="#000000" d="M619.1925,-122.1061C619.1925,-122.1061 619.1925,-140.991 619.1925,-140.991"/>
<polygon fill="#000000" stroke="#000000" points="615.6926,-140.9909 619.1925,-150.991 622.6926,-140.991 615.6926,-140.9909"/>
</g>
<!-- MenuModule -->
<g id="node8" class="node">
<title>MenuModule</title>
<polygon fill="#8dd3c7" stroke="#000000" points="501.2092,-122 498.2092,-126 477.2092,-126 474.2092,-122 408.7908,-122 408.7908,-86 501.2092,-86 501.2092,-122"/>
<text text-anchor="middle" x="455" y="-99.8" font-family="Times,serif" font-size="14.00" fill="#000000">MenuModule</text>
</g>
<!-- MenuModule&#45;&gt;MisTurnosModule -->
<g id="edge7" class="edge">
<title>MenuModule&#45;&gt;MisTurnosModule</title>
<path fill="none" stroke="#000000" d="M455,-122.0091C455,-138.0494 455,-159 455,-159 455,-159 587.3683,-159 587.3683,-159"/>
<polygon fill="#000000" stroke="#000000" points="587.3683,-162.5001 597.3683,-159 587.3682,-155.5001 587.3683,-162.5001"/>
</g>
<!-- CrudModule -->
<g id="node9" class="node">
<title>CrudModule</title>
<polygon fill="#8dd3c7" stroke="#000000" points="390.5482,-122 387.5482,-126 366.5482,-126 363.5482,-122 303.4518,-122 303.4518,-86 390.5482,-86 390.5482,-122"/>
<text text-anchor="middle" x="347" y="-99.8" font-family="Times,serif" font-size="14.00" fill="#000000">CrudModule</text>
</g>
<!-- CrudModule&#45;&gt;MisTurnosModule -->
<g id="edge8" class="edge">
<title>CrudModule&#45;&gt;MisTurnosModule</title>
<path fill="none" stroke="#000000" d="M347,-122.2667C347,-140.5552 347,-166 347,-166 347,-166 587.2978,-166 587.2978,-166"/>
<polygon fill="#000000" stroke="#000000" points="587.2978,-169.5001 597.2978,-166 587.2977,-162.5001 587.2978,-169.5001"/>
</g>
<!-- AuthService -->
<g id="node10" class="node">
<title>AuthService</title>
<ellipse fill="#fdb462" stroke="#000000" cx="220" cy="-104" rx="59.1083" ry="18"/>
<text text-anchor="middle" x="220" y="-99.8" font-family="Times,serif" font-size="14.00" fill="#000000">AuthService</text>
</g>
<!-- AuthService&#45;&gt;MisTurnosModule -->
<g id="edge9" class="edge">
<title>AuthService&#45;&gt;MisTurnosModule</title>
<path fill="none" stroke="#000000" d="M220,-122.1289C220,-142.5724 220,-173 220,-173 220,-173 587.098,-173 587.098,-173"/>
<polygon fill="#000000" stroke="#000000" points="587.098,-176.5001 597.098,-173 587.0979,-169.5001 587.098,-176.5001"/>
</g>
<!-- CrudService -->
<g id="node11" class="node">
<title>CrudService</title>
<ellipse fill="#fdb462" stroke="#000000" cx="83" cy="-104" rx="59.1083" ry="18"/>
<text text-anchor="middle" x="83" y="-99.8" font-family="Times,serif" font-size="14.00" fill="#000000">CrudService</text>
</g>
<!-- CrudService&#45;&gt;MisTurnosModule -->
<g id="edge10" class="edge">
<title>CrudService&#45;&gt;MisTurnosModule</title>
<path fill="none" stroke="#000000" d="M83,-122.0109C83,-144.4852 83,-180 83,-180 83,-180 587.2807,-180 587.2807,-180"/>
<polygon fill="#000000" stroke="#000000" points="587.2808,-183.5001 597.2807,-180 587.2807,-176.5001 587.2808,-183.5001"/>
</g>
</g>
</svg>
