<?xml version="1.0" encoding="UTF-8" standalone="no"?>
<!DOCTYPE svg PUBLIC "-//W3C//DTD SVG 1.1//EN"
 "http://www.w3.org/Graphics/SVG/1.1/DTD/svg11.dtd">
<!-- Generated by graphviz version 2.40.1 (20161225.0304)
 -->
<!-- Title: dependencies Pages: 1 -->
<svg width="1385pt" height="211pt"
 viewBox="0.00 0.00 1385.00 211.00" xmlns="http://www.w3.org/2000/svg" xmlns:xlink="http://www.w3.org/1999/xlink">
<g id="graph0" class="graph" transform="scale(1 1) rotate(0) translate(4 207)">
<title>dependencies</title>
<polygon fill="#ffffff" stroke="transparent" points="-4,4 -4,-207 1381,-207 1381,4 -4,4"/>
<text text-anchor="start" x="667.5091" y="-42.4" font-family="sans-serif" font-weight="bold" font-size="14.00" fill="#000000">Legend</text>
<polygon fill="#ffffb3" stroke="transparent" points="454.5,-10 454.5,-30 474.5,-30 474.5,-10 454.5,-10"/>
<text text-anchor="start" x="478.129" y="-15.4" font-family="sans-serif" font-size="14.00" fill="#000000"> &#160;Declarations</text>
<polygon fill="#8dd3c7" stroke="transparent" points="567.5,-10 567.5,-30 587.5,-30 587.5,-10 567.5,-10"/>
<text text-anchor="start" x="591.2251" y="-15.4" font-family="sans-serif" font-size="14.00" fill="#000000"> &#160;Module</text>
<polygon fill="#80b1d3" stroke="transparent" points="653.5,-10 653.5,-30 673.5,-30 673.5,-10 653.5,-10"/>
<text text-anchor="start" x="677.2812" y="-15.4" font-family="sans-serif" font-size="14.00" fill="#000000"> &#160;Bootstrap</text>
<polygon fill="#fdb462" stroke="transparent" points="750.5,-10 750.5,-30 770.5,-30 770.5,-10 750.5,-10"/>
<text text-anchor="start" x="774.1732" y="-15.4" font-family="sans-serif" font-size="14.00" fill="#000000"> &#160;Providers</text>
<polygon fill="#fb8072" stroke="transparent" points="846.5,-10 846.5,-30 866.5,-30 866.5,-10 846.5,-10"/>
<text text-anchor="start" x="870.2258" y="-15.4" font-family="sans-serif" font-size="14.00" fill="#000000"> &#160;Exports</text>
<g id="clust1" class="cluster">
<title>cluster_MisClavesModule</title>
<polygon fill="none" stroke="#000000" stroke-dasharray="1,5" points="8,-70 8,-195 1369,-195 1369,-70 8,-70"/>
</g>
<g id="clust2" class="cluster">
<title>cluster_MisClavesModule_declarations</title>
<polygon fill="none" stroke="#000000" points="1201,-78 1201,-130 1361,-130 1361,-78 1201,-78"/>
</g>
<g id="clust4" class="cluster">
<title>cluster_MisClavesModule_imports</title>
<polygon fill="none" stroke="#000000" points="295,-78 295,-130 1193,-130 1193,-78 295,-78"/>
</g>
<g id="clust7" class="cluster">
<title>cluster_MisClavesModule_providers</title>
<polygon fill="none" stroke="#000000" points="16,-78 16,-130 287,-130 287,-78 16,-78"/>
</g>
<!-- FormularioComponent -->
<g id="node1" class="node">
<title>FormularioComponent</title>
<polygon fill="#ffffb3" stroke="#000000" points="1353.323,-122 1208.677,-122 1208.677,-86 1353.323,-86 1353.323,-122"/>
<text text-anchor="middle" x="1281" y="-99.8" font-family="Times,serif" font-size="14.00" fill="#000000">FormularioComponent</text>
</g>
<!-- MisClavesModule -->
<g id="node2" class="node">
<title>MisClavesModule</title>
<polygon fill="#8dd3c7" stroke="#000000" points="717.9314,-187 714.9314,-191 693.9314,-191 690.9314,-187 598.0686,-187 598.0686,-151 717.9314,-151 717.9314,-187"/>
<text text-anchor="middle" x="658" y="-164.8" font-family="Times,serif" font-size="14.00" fill="#000000">MisClavesModule</text>
</g>
<!-- FormularioComponent&#45;&gt;MisClavesModule -->
<g id="edge1" class="edge">
<title>FormularioComponent&#45;&gt;MisClavesModule</title>
<path fill="none" stroke="#000000" d="M1281,-122.0109C1281,-144.4852 1281,-180 1281,-180 1281,-180 727.7359,-180 727.7359,-180"/>
<polygon fill="#000000" stroke="#000000" points="727.7359,-176.5001 717.7359,-180 727.7358,-183.5001 727.7359,-176.5001"/>
</g>
<!-- ClavesRoutingModule -->
<g id="node3" class="node">
<title>ClavesRoutingModule</title>
<polygon fill="#8dd3c7" stroke="#000000" points="1185.2688,-122 1182.2688,-126 1161.2688,-126 1158.2688,-122 1042.7312,-122 1042.7312,-86 1185.2688,-86 1185.2688,-122"/>
<text text-anchor="middle" x="1114" y="-99.8" font-family="Times,serif" font-size="14.00" fill="#000000">ClavesRoutingModule</text>
</g>
<!-- ClavesRoutingModule&#45;&gt;MisClavesModule -->
<g id="edge2" class="edge">
<title>ClavesRoutingModule&#45;&gt;MisClavesModule</title>
<path fill="none" stroke="#000000" d="M1114,-122.1289C1114,-142.5724 1114,-173 1114,-173 1114,-173 728.0829,-173 728.0829,-173"/>
<polygon fill="#000000" stroke="#000000" points="728.083,-169.5001 718.0829,-173 728.0829,-176.5001 728.083,-169.5001"/>
</g>
<!-- HubModule -->
<g id="node4" class="node">
<title>HubModule</title>
<polygon fill="#8dd3c7" stroke="#000000" points="1024.6571,-122 1021.6571,-126 1000.6571,-126 997.6571,-122 941.3429,-122 941.3429,-86 1024.6571,-86 1024.6571,-122"/>
<text text-anchor="middle" x="983" y="-99.8" font-family="Times,serif" font-size="14.00" fill="#000000">HubModule</text>
</g>
<!-- HubModule&#45;&gt;MisClavesModule -->
<g id="edge3" class="edge">
<title>HubModule&#45;&gt;MisClavesModule</title>
<path fill="none" stroke="#000000" d="M983,-122.2667C983,-140.5552 983,-166 983,-166 983,-166 727.9888,-166 727.9888,-166"/>
<polygon fill="#000000" stroke="#000000" points="727.9888,-162.5001 717.9888,-166 727.9887,-169.5001 727.9888,-162.5001"/>
</g>
<!-- PerfilModule -->
<g id="node5" class="node">
<title>PerfilModule</title>
<polygon fill="#8dd3c7" stroke="#000000" points="923.1501,-122 920.1501,-126 899.1501,-126 896.1501,-122 832.8499,-122 832.8499,-86 923.1501,-86 923.1501,-122"/>
<text text-anchor="middle" x="878" y="-99.8" font-family="Times,serif" font-size="14.00" fill="#000000">PerfilModule</text>
</g>
<!-- PerfilModule&#45;&gt;MisClavesModule -->
<g id="edge4" class="edge">
<title>PerfilModule&#45;&gt;MisClavesModule</title>
<path fill="none" stroke="#000000" d="M878,-122.0091C878,-138.0494 878,-159 878,-159 878,-159 727.8254,-159 727.8254,-159"/>
<polygon fill="#000000" stroke="#000000" points="727.8254,-155.5001 717.8254,-159 727.8253,-162.5001 727.8254,-155.5001"/>
</g>
<!-- BloquearPantallaModule -->
<g id="node6" class="node">
<title>BloquearPantallaModule</title>
<polygon fill="#8dd3c7" stroke="#000000" points="814.965,-122 811.965,-126 790.965,-126 787.965,-122 659.035,-122 659.035,-86 814.965,-86 814.965,-122"/>
<text text-anchor="middle" x="737" y="-99.8" font-family="Times,serif" font-size="14.00" fill="#000000">BloquearPantallaModule</text>
</g>
<!-- BloquearPantallaModule&#45;&gt;MisClavesModule -->
<g id="edge5" class="edge">
<title>BloquearPantallaModule&#45;&gt;MisClavesModule</title>
<path fill="none" stroke="#000000" d="M688.3664,-122.1061C688.3664,-122.1061 688.3664,-140.991 688.3664,-140.991"/>
<polygon fill="#000000" stroke="#000000" points="684.8665,-140.9909 688.3664,-150.991 691.8665,-140.991 684.8665,-140.9909"/>
</g>
<!-- PaginacionModule -->
<g id="node7" class="node">
<title>PaginacionModule</title>
<polygon fill="#8dd3c7" stroke="#000000" points="640.7576,-122 637.7576,-126 616.7576,-126 613.7576,-122 519.2424,-122 519.2424,-86 640.7576,-86 640.7576,-122"/>
<text text-anchor="middle" x="580" y="-99.8" font-family="Times,serif" font-size="14.00" fill="#000000">PaginacionModule</text>
</g>
<!-- PaginacionModule&#45;&gt;MisClavesModule -->
<g id="edge6" class="edge">
<title>PaginacionModule&#45;&gt;MisClavesModule</title>
<path fill="none" stroke="#000000" d="M619.5817,-122.1061C619.5817,-122.1061 619.5817,-140.991 619.5817,-140.991"/>
<polygon fill="#000000" stroke="#000000" points="616.0818,-140.9909 619.5817,-150.991 623.0818,-140.991 616.0818,-140.9909"/>
</g>
<!-- MenuModule -->
<g id="node8" class="node">
<title>MenuModule</title>
<polygon fill="#8dd3c7" stroke="#000000" points="501.2092,-122 498.2092,-126 477.2092,-126 474.2092,-122 408.7908,-122 408.7908,-86 501.2092,-86 501.2092,-122"/>
<text text-anchor="middle" x="455" y="-99.8" font-family="Times,serif" font-size="14.00" fill="#000000">MenuModule</text>
</g>
<!-- MenuModule&#45;&gt;MisClavesModule -->
<g id="edge7" class="edge">
<title>MenuModule&#45;&gt;MisClavesModule</title>
<path fill="none" stroke="#000000" d="M455,-122.0091C455,-138.0494 455,-159 455,-159 455,-159 588.1913,-159 588.1913,-159"/>
<polygon fill="#000000" stroke="#000000" points="588.1913,-162.5001 598.1913,-159 588.1912,-155.5001 588.1913,-162.5001"/>
</g>
<!-- CrudModule -->
<g id="node9" class="node">
<title>CrudModule</title>
<polygon fill="#8dd3c7" stroke="#000000" points="390.5482,-122 387.5482,-126 366.5482,-126 363.5482,-122 303.4518,-122 303.4518,-86 390.5482,-86 390.5482,-122"/>
<text text-anchor="middle" x="347" y="-99.8" font-family="Times,serif" font-size="14.00" fill="#000000">CrudModule</text>
</g>
<!-- CrudModule&#45;&gt;MisClavesModule -->
<g id="edge8" class="edge">
<title>CrudModule&#45;&gt;MisClavesModule</title>
<path fill="none" stroke="#000000" d="M347,-122.2667C347,-140.5552 347,-166 347,-166 347,-166 588.0361,-166 588.0361,-166"/>
<polygon fill="#000000" stroke="#000000" points="588.0361,-169.5001 598.0361,-166 588.036,-162.5001 588.0361,-169.5001"/>
</g>
<!-- AuthService -->
<g id="node10" class="node">
<title>AuthService</title>
<ellipse fill="#fdb462" stroke="#000000" cx="220" cy="-104" rx="59.1083" ry="18"/>
<text text-anchor="middle" x="220" y="-99.8" font-family="Times,serif" font-size="14.00" fill="#000000">AuthService</text>
</g>
<!-- AuthService&#45;&gt;MisClavesModule -->
<g id="edge9" class="edge">
<title>AuthService&#45;&gt;MisClavesModule</title>
<path fill="none" stroke="#000000" d="M220,-122.1289C220,-142.5724 220,-173 220,-173 220,-173 588.0164,-173 588.0164,-173"/>
<polygon fill="#000000" stroke="#000000" points="588.0164,-176.5001 598.0164,-173 588.0163,-169.5001 588.0164,-176.5001"/>
</g>
<!-- CrudService -->
<g id="node11" class="node">
<title>CrudService</title>
<ellipse fill="#fdb462" stroke="#000000" cx="83" cy="-104" rx="59.1083" ry="18"/>
<text text-anchor="middle" x="83" y="-99.8" font-family="Times,serif" font-size="14.00" fill="#000000">CrudService</text>
</g>
<!-- CrudService&#45;&gt;MisClavesModule -->
<g id="edge10" class="edge">
<title>CrudService&#45;&gt;MisClavesModule</title>
<path fill="none" stroke="#000000" d="M83,-122.0109C83,-144.4852 83,-180 83,-180 83,-180 588.0921,-180 588.0921,-180"/>
<polygon fill="#000000" stroke="#000000" points="588.0922,-183.5001 598.0921,-180 588.0921,-176.5001 588.0922,-183.5001"/>
</g>
</g>
</svg>
