<?xml version="1.0" encoding="UTF-8" standalone="no"?>
<!DOCTYPE svg PUBLIC "-//W3C//DTD SVG 1.1//EN"
 "http://www.w3.org/Graphics/SVG/1.1/DTD/svg11.dtd">
<!-- Generated by graphviz version 2.40.1 (20161225.0304)
 -->
<!-- Title: dependencies Pages: 1 -->
<svg width="1015pt" height="211pt"
 viewBox="0.00 0.00 1015.00 211.00" xmlns="http://www.w3.org/2000/svg" xmlns:xlink="http://www.w3.org/1999/xlink">
<g id="graph0" class="graph" transform="scale(1 1) rotate(0) translate(4 207)">
<title>dependencies</title>
<polygon fill="#ffffff" stroke="transparent" points="-4,4 -4,-207 1011,-207 1011,4 -4,4"/>
<text text-anchor="start" x="482.5091" y="-42.4" font-family="sans-serif" font-weight="bold" font-size="14.00" fill="#000000">Legend</text>
<polygon fill="#ffffb3" stroke="transparent" points="269.5,-10 269.5,-30 289.5,-30 289.5,-10 269.5,-10"/>
<text text-anchor="start" x="293.129" y="-15.4" font-family="sans-serif" font-size="14.00" fill="#000000"> &#160;Declarations</text>
<polygon fill="#8dd3c7" stroke="transparent" points="382.5,-10 382.5,-30 402.5,-30 402.5,-10 382.5,-10"/>
<text text-anchor="start" x="406.2251" y="-15.4" font-family="sans-serif" font-size="14.00" fill="#000000"> &#160;Module</text>
<polygon fill="#80b1d3" stroke="transparent" points="468.5,-10 468.5,-30 488.5,-30 488.5,-10 468.5,-10"/>
<text text-anchor="start" x="492.2812" y="-15.4" font-family="sans-serif" font-size="14.00" fill="#000000"> &#160;Bootstrap</text>
<polygon fill="#fdb462" stroke="transparent" points="565.5,-10 565.5,-30 585.5,-30 585.5,-10 565.5,-10"/>
<text text-anchor="start" x="589.1732" y="-15.4" font-family="sans-serif" font-size="14.00" fill="#000000"> &#160;Providers</text>
<polygon fill="#fb8072" stroke="transparent" points="661.5,-10 661.5,-30 681.5,-30 681.5,-10 661.5,-10"/>
<text text-anchor="start" x="685.2258" y="-15.4" font-family="sans-serif" font-size="14.00" fill="#000000"> &#160;Exports</text>
<g id="clust1" class="cluster">
<title>cluster_OpcionesAvanzadasModule</title>
<polygon fill="none" stroke="#000000" stroke-dasharray="1,5" points="8,-70 8,-195 999,-195 999,-70 8,-70"/>
</g>
<g id="clust2" class="cluster">
<title>cluster_OpcionesAvanzadasModule_declarations</title>
<polygon fill="none" stroke="#000000" points="631,-78 631,-130 991,-130 991,-78 631,-78"/>
</g>
<g id="clust5" class="cluster">
<title>cluster_OpcionesAvanzadasModule_imports</title>
<polygon fill="none" stroke="#000000" points="278,-78 278,-130 623,-130 623,-78 278,-78"/>
</g>
<g id="clust8" class="cluster">
<title>cluster_OpcionesAvanzadasModule_providers</title>
<polygon fill="none" stroke="#000000" points="16,-78 16,-130 270,-130 270,-78 16,-78"/>
</g>
<!-- ActualizarSistemaComponent -->
<g id="node1" class="node">
<title>ActualizarSistemaComponent</title>
<polygon fill="#ffffb3" stroke="#000000" points="982.958,-122 799.042,-122 799.042,-86 982.958,-86 982.958,-122"/>
<text text-anchor="middle" x="891" y="-99.8" font-family="Times,serif" font-size="14.00" fill="#000000">ActualizarSistemaComponent</text>
</g>
<!-- OpcionesAvanzadasModule -->
<g id="node3" class="node">
<title>OpcionesAvanzadasModule</title>
<polygon fill="#8dd3c7" stroke="#000000" points="655.8305,-187 652.8305,-191 631.8305,-191 628.8305,-187 482.1695,-187 482.1695,-151 655.8305,-151 655.8305,-187"/>
<text text-anchor="middle" x="569" y="-164.8" font-family="Times,serif" font-size="14.00" fill="#000000">OpcionesAvanzadasModule</text>
</g>
<!-- ActualizarSistemaComponent&#45;&gt;OpcionesAvanzadasModule -->
<g id="edge1" class="edge">
<title>ActualizarSistemaComponent&#45;&gt;OpcionesAvanzadasModule</title>
<path fill="none" stroke="#000000" d="M891,-122.1061C891,-141.3391 891,-169 891,-169 891,-169 666.1378,-169 666.1378,-169"/>
<polygon fill="#000000" stroke="#000000" points="666.1379,-165.5001 656.1378,-169 666.1378,-172.5001 666.1379,-165.5001"/>
</g>
<!-- BaseDatosComponent -->
<g id="node2" class="node">
<title>BaseDatosComponent</title>
<polygon fill="#ffffb3" stroke="#000000" points="780.6993,-122 639.3007,-122 639.3007,-86 780.6993,-86 780.6993,-122"/>
<text text-anchor="middle" x="710" y="-99.8" font-family="Times,serif" font-size="14.00" fill="#000000">BaseDatosComponent</text>
</g>
<!-- BaseDatosComponent&#45;&gt;OpcionesAvanzadasModule -->
<g id="edge2" class="edge">
<title>BaseDatosComponent&#45;&gt;OpcionesAvanzadasModule</title>
<path fill="none" stroke="#000000" d="M647.6578,-122.1061C647.6578,-122.1061 647.6578,-140.991 647.6578,-140.991"/>
<polygon fill="#000000" stroke="#000000" points="644.1579,-140.9909 647.6578,-150.991 651.1579,-140.991 644.1579,-140.9909"/>
</g>
<!-- MenuModule -->
<g id="node4" class="node">
<title>MenuModule</title>
<polygon fill="#8dd3c7" stroke="#000000" points="615.2092,-122 612.2092,-126 591.2092,-126 588.2092,-122 522.7908,-122 522.7908,-86 615.2092,-86 615.2092,-122"/>
<text text-anchor="middle" x="569" y="-99.8" font-family="Times,serif" font-size="14.00" fill="#000000">MenuModule</text>
</g>
<!-- MenuModule&#45;&gt;OpcionesAvanzadasModule -->
<g id="edge3" class="edge">
<title>MenuModule&#45;&gt;OpcionesAvanzadasModule</title>
<path fill="none" stroke="#000000" d="M569,-122.1061C569,-122.1061 569,-140.991 569,-140.991"/>
<polygon fill="#000000" stroke="#000000" points="565.5001,-140.9909 569,-150.991 572.5001,-140.991 565.5001,-140.9909"/>
</g>
<!-- OpcionesAvanzadasRoutingModule -->
<g id="node5" class="node">
<title>OpcionesAvanzadasRoutingModule</title>
<polygon fill="#8dd3c7" stroke="#000000" points="504.4482,-122 501.4482,-126 480.4482,-126 477.4482,-122 285.5518,-122 285.5518,-86 504.4482,-86 504.4482,-122"/>
<text text-anchor="middle" x="395" y="-99.8" font-family="Times,serif" font-size="14.00" fill="#000000">OpcionesAvanzadasRoutingModule</text>
</g>
<!-- OpcionesAvanzadasRoutingModule&#45;&gt;OpcionesAvanzadasModule -->
<g id="edge4" class="edge">
<title>OpcionesAvanzadasRoutingModule&#45;&gt;OpcionesAvanzadasModule</title>
<path fill="none" stroke="#000000" d="M493.2795,-122.1061C493.2795,-122.1061 493.2795,-140.991 493.2795,-140.991"/>
<polygon fill="#000000" stroke="#000000" points="489.7795,-140.9909 493.2795,-150.991 496.7795,-140.991 489.7795,-140.9909"/>
</g>
<!-- OpcionesAvanzadasService -->
<g id="node6" class="node">
<title>OpcionesAvanzadasService</title>
<ellipse fill="#fdb462" stroke="#000000" cx="143" cy="-104" rx="118.6414" ry="18"/>
<text text-anchor="middle" x="143" y="-99.8" font-family="Times,serif" font-size="14.00" fill="#000000">OpcionesAvanzadasService</text>
</g>
<!-- OpcionesAvanzadasService&#45;&gt;OpcionesAvanzadasModule -->
<g id="edge5" class="edge">
<title>OpcionesAvanzadasService&#45;&gt;OpcionesAvanzadasModule</title>
<path fill="none" stroke="#000000" d="M143,-122.1061C143,-141.3391 143,-169 143,-169 143,-169 472.0219,-169 472.0219,-169"/>
<polygon fill="#000000" stroke="#000000" points="472.022,-172.5001 482.0219,-169 472.0219,-165.5001 472.022,-172.5001"/>
</g>
</g>
</svg>
