<?xml version="1.0" encoding="UTF-8" standalone="no"?>
<!DOCTYPE svg PUBLIC "-//W3C//DTD SVG 1.1//EN"
 "http://www.w3.org/Graphics/SVG/1.1/DTD/svg11.dtd">
<!-- Generated by graphviz version 2.40.1 (20161225.0304)
 -->
<!-- Title: dependencies Pages: 1 -->
<svg width="1648pt" height="211pt"
 viewBox="0.00 0.00 1648.00 211.00" xmlns="http://www.w3.org/2000/svg" xmlns:xlink="http://www.w3.org/1999/xlink">
<g id="graph0" class="graph" transform="scale(1 1) rotate(0) translate(4 207)">
<title>dependencies</title>
<polygon fill="#ffffff" stroke="transparent" points="-4,4 -4,-207 1644,-207 1644,4 -4,4"/>
<text text-anchor="start" x="799.0091" y="-42.4" font-family="sans-serif" font-weight="bold" font-size="14.00" fill="#000000">Legend</text>
<polygon fill="#ffffb3" stroke="transparent" points="586,-10 586,-30 606,-30 606,-10 586,-10"/>
<text text-anchor="start" x="609.629" y="-15.4" font-family="sans-serif" font-size="14.00" fill="#000000"> &#160;Declarations</text>
<polygon fill="#8dd3c7" stroke="transparent" points="699,-10 699,-30 719,-30 719,-10 699,-10"/>
<text text-anchor="start" x="722.7251" y="-15.4" font-family="sans-serif" font-size="14.00" fill="#000000"> &#160;Module</text>
<polygon fill="#80b1d3" stroke="transparent" points="785,-10 785,-30 805,-30 805,-10 785,-10"/>
<text text-anchor="start" x="808.7812" y="-15.4" font-family="sans-serif" font-size="14.00" fill="#000000"> &#160;Bootstrap</text>
<polygon fill="#fdb462" stroke="transparent" points="882,-10 882,-30 902,-30 902,-10 882,-10"/>
<text text-anchor="start" x="905.6732" y="-15.4" font-family="sans-serif" font-size="14.00" fill="#000000"> &#160;Providers</text>
<polygon fill="#fb8072" stroke="transparent" points="978,-10 978,-30 998,-30 998,-10 978,-10"/>
<text text-anchor="start" x="1001.7258" y="-15.4" font-family="sans-serif" font-size="14.00" fill="#000000"> &#160;Exports</text>
<g id="clust1" class="cluster">
<title>cluster_SalidasLaboratorioModule</title>
<polygon fill="none" stroke="#000000" stroke-dasharray="1,5" points="8,-70 8,-195 1632,-195 1632,-70 8,-70"/>
</g>
<g id="clust2" class="cluster">
<title>cluster_SalidasLaboratorioModule_declarations</title>
<polygon fill="none" stroke="#000000" points="1336,-78 1336,-130 1624,-130 1624,-78 1336,-78"/>
</g>
<g id="clust5" class="cluster">
<title>cluster_SalidasLaboratorioModule_imports</title>
<polygon fill="none" stroke="#000000" points="295,-78 295,-130 1328,-130 1328,-78 295,-78"/>
</g>
<g id="clust8" class="cluster">
<title>cluster_SalidasLaboratorioModule_providers</title>
<polygon fill="none" stroke="#000000" points="16,-78 16,-130 287,-130 287,-78 16,-78"/>
</g>
<!-- ListaComponent -->
<g id="node1" class="node">
<title>ListaComponent</title>
<polygon fill="#ffffb3" stroke="#000000" points="1615.8259,-122 1506.1741,-122 1506.1741,-86 1615.8259,-86 1615.8259,-122"/>
<text text-anchor="middle" x="1561" y="-99.8" font-family="Times,serif" font-size="14.00" fill="#000000">ListaComponent</text>
</g>
<!-- SalidasLaboratorioModule -->
<g id="node3" class="node">
<title>SalidasLaboratorioModule</title>
<polygon fill="#8dd3c7" stroke="#000000" points="886.0716,-187 883.0716,-191 862.0716,-191 859.0716,-187 719.9284,-187 719.9284,-151 886.0716,-151 886.0716,-187"/>
<text text-anchor="middle" x="803" y="-164.8" font-family="Times,serif" font-size="14.00" fill="#000000">SalidasLaboratorioModule</text>
</g>
<!-- ListaComponent&#45;&gt;SalidasLaboratorioModule -->
<g id="edge1" class="edge">
<title>ListaComponent&#45;&gt;SalidasLaboratorioModule</title>
<path fill="none" stroke="#000000" d="M1561,-122.0908C1561,-145.1328 1561,-182 1561,-182 1561,-182 896.2876,-182 896.2876,-182"/>
<polygon fill="#000000" stroke="#000000" points="896.2876,-178.5001 886.2876,-182 896.2875,-185.5001 896.2876,-178.5001"/>
</g>
<!-- FormularioComponent -->
<g id="node2" class="node">
<title>FormularioComponent</title>
<polygon fill="#ffffb3" stroke="#000000" points="1488.323,-122 1343.677,-122 1343.677,-86 1488.323,-86 1488.323,-122"/>
<text text-anchor="middle" x="1416" y="-99.8" font-family="Times,serif" font-size="14.00" fill="#000000">FormularioComponent</text>
</g>
<!-- FormularioComponent&#45;&gt;SalidasLaboratorioModule -->
<g id="edge2" class="edge">
<title>FormularioComponent&#45;&gt;SalidasLaboratorioModule</title>
<path fill="none" stroke="#000000" d="M1416,-122.2843C1416,-143.3211 1416,-175 1416,-175 1416,-175 896.3099,-175 896.3099,-175"/>
<polygon fill="#000000" stroke="#000000" points="896.3099,-171.5001 886.3099,-175 896.3098,-178.5001 896.3099,-171.5001"/>
</g>
<!-- SalidasLaboratorioRoutingModule -->
<g id="node4" class="node">
<title>SalidasLaboratorioRoutingModule</title>
<polygon fill="#8dd3c7" stroke="#000000" points="1319.6895,-122 1316.6895,-126 1295.6895,-126 1292.6895,-122 1108.3105,-122 1108.3105,-86 1319.6895,-86 1319.6895,-122"/>
<text text-anchor="middle" x="1214" y="-99.8" font-family="Times,serif" font-size="14.00" fill="#000000">SalidasLaboratorioRoutingModule</text>
</g>
<!-- SalidasLaboratorioRoutingModule&#45;&gt;SalidasLaboratorioModule -->
<g id="edge3" class="edge">
<title>SalidasLaboratorioRoutingModule&#45;&gt;SalidasLaboratorioModule</title>
<path fill="none" stroke="#000000" d="M1214,-122.1061C1214,-141.3391 1214,-169 1214,-169 1214,-169 896.172,-169 896.172,-169"/>
<polygon fill="#000000" stroke="#000000" points="896.172,-165.5001 886.172,-169 896.1719,-172.5001 896.172,-165.5001"/>
</g>
<!-- HubModule -->
<g id="node5" class="node">
<title>HubModule</title>
<polygon fill="#8dd3c7" stroke="#000000" points="1090.6571,-122 1087.6571,-126 1066.6571,-126 1063.6571,-122 1007.3429,-122 1007.3429,-86 1090.6571,-86 1090.6571,-122"/>
<text text-anchor="middle" x="1049" y="-99.8" font-family="Times,serif" font-size="14.00" fill="#000000">HubModule</text>
</g>
<!-- HubModule&#45;&gt;SalidasLaboratorioModule -->
<g id="edge4" class="edge">
<title>HubModule&#45;&gt;SalidasLaboratorioModule</title>
<path fill="none" stroke="#000000" d="M1049,-122.0225C1049,-139.3734 1049,-163 1049,-163 1049,-163 896.2844,-163 896.2844,-163"/>
<polygon fill="#000000" stroke="#000000" points="896.2844,-159.5001 886.2844,-163 896.2843,-166.5001 896.2844,-159.5001"/>
</g>
<!-- PerfilModule -->
<g id="node6" class="node">
<title>PerfilModule</title>
<polygon fill="#8dd3c7" stroke="#000000" points="989.1501,-122 986.1501,-126 965.1501,-126 962.1501,-122 898.8499,-122 898.8499,-86 989.1501,-86 989.1501,-122"/>
<text text-anchor="middle" x="944" y="-99.8" font-family="Times,serif" font-size="14.00" fill="#000000">PerfilModule</text>
</g>
<!-- PerfilModule&#45;&gt;SalidasLaboratorioModule -->
<g id="edge5" class="edge">
<title>PerfilModule&#45;&gt;SalidasLaboratorioModule</title>
<path fill="none" stroke="#000000" d="M944,-122.2396C944,-137.5706 944,-157 944,-157 944,-157 896.2431,-157 896.2431,-157"/>
<polygon fill="#000000" stroke="#000000" points="896.2431,-153.5001 886.2431,-157 896.243,-160.5001 896.2431,-153.5001"/>
</g>
<!-- BloquearPantallaModule -->
<g id="node7" class="node">
<title>BloquearPantallaModule</title>
<polygon fill="#8dd3c7" stroke="#000000" points="880.965,-122 877.965,-126 856.965,-126 853.965,-122 725.035,-122 725.035,-86 880.965,-86 880.965,-122"/>
<text text-anchor="middle" x="803" y="-99.8" font-family="Times,serif" font-size="14.00" fill="#000000">BloquearPantallaModule</text>
</g>
<!-- BloquearPantallaModule&#45;&gt;SalidasLaboratorioModule -->
<g id="edge6" class="edge">
<title>BloquearPantallaModule&#45;&gt;SalidasLaboratorioModule</title>
<path fill="none" stroke="#000000" d="M803,-122.1061C803,-122.1061 803,-140.991 803,-140.991"/>
<polygon fill="#000000" stroke="#000000" points="799.5001,-140.9909 803,-150.991 806.5001,-140.991 799.5001,-140.9909"/>
</g>
<!-- PaginacionModule -->
<g id="node8" class="node">
<title>PaginacionModule</title>
<polygon fill="#8dd3c7" stroke="#000000" points="706.7576,-122 703.7576,-126 682.7576,-126 679.7576,-122 585.2424,-122 585.2424,-86 706.7576,-86 706.7576,-122"/>
<text text-anchor="middle" x="646" y="-99.8" font-family="Times,serif" font-size="14.00" fill="#000000">PaginacionModule</text>
</g>
<!-- PaginacionModule&#45;&gt;SalidasLaboratorioModule -->
<g id="edge7" class="edge">
<title>PaginacionModule&#45;&gt;SalidasLaboratorioModule</title>
<path fill="none" stroke="#000000" d="M646,-122.2396C646,-137.5706 646,-157 646,-157 646,-157 709.9027,-157 709.9027,-157"/>
<polygon fill="#000000" stroke="#000000" points="709.9028,-160.5001 719.9027,-157 709.9027,-153.5001 709.9028,-160.5001"/>
</g>
<!-- IndexLaboratorioModule -->
<g id="node9" class="node">
<title>IndexLaboratorioModule</title>
<polygon fill="#8dd3c7" stroke="#000000" points="566.51,-122 563.51,-126 542.51,-126 539.51,-122 409.49,-122 409.49,-86 566.51,-86 566.51,-122"/>
<text text-anchor="middle" x="488" y="-99.8" font-family="Times,serif" font-size="14.00" fill="#000000">IndexLaboratorioModule</text>
</g>
<!-- IndexLaboratorioModule&#45;&gt;SalidasLaboratorioModule -->
<g id="edge8" class="edge">
<title>IndexLaboratorioModule&#45;&gt;SalidasLaboratorioModule</title>
<path fill="none" stroke="#000000" d="M488,-122.0225C488,-139.3734 488,-163 488,-163 488,-163 709.8254,-163 709.8254,-163"/>
<polygon fill="#000000" stroke="#000000" points="709.8255,-166.5001 719.8254,-163 709.8254,-159.5001 709.8255,-166.5001"/>
</g>
<!-- CrudModule -->
<g id="node10" class="node">
<title>CrudModule</title>
<polygon fill="#8dd3c7" stroke="#000000" points="390.5482,-122 387.5482,-126 366.5482,-126 363.5482,-122 303.4518,-122 303.4518,-86 390.5482,-86 390.5482,-122"/>
<text text-anchor="middle" x="347" y="-99.8" font-family="Times,serif" font-size="14.00" fill="#000000">CrudModule</text>
</g>
<!-- CrudModule&#45;&gt;SalidasLaboratorioModule -->
<g id="edge9" class="edge">
<title>CrudModule&#45;&gt;SalidasLaboratorioModule</title>
<path fill="none" stroke="#000000" d="M347,-122.1061C347,-141.3391 347,-169 347,-169 347,-169 709.8928,-169 709.8928,-169"/>
<polygon fill="#000000" stroke="#000000" points="709.8928,-172.5001 719.8928,-169 709.8928,-165.5001 709.8928,-172.5001"/>
</g>
<!-- AuthService -->
<g id="node11" class="node">
<title>AuthService</title>
<ellipse fill="#fdb462" stroke="#000000" cx="220" cy="-104" rx="59.1083" ry="18"/>
<text text-anchor="middle" x="220" y="-99.8" font-family="Times,serif" font-size="14.00" fill="#000000">AuthService</text>
</g>
<!-- AuthService&#45;&gt;SalidasLaboratorioModule -->
<g id="edge10" class="edge">
<title>AuthService&#45;&gt;SalidasLaboratorioModule</title>
<path fill="none" stroke="#000000" d="M220,-122.2843C220,-143.3211 220,-175 220,-175 220,-175 709.7801,-175 709.7801,-175"/>
<polygon fill="#000000" stroke="#000000" points="709.7801,-178.5001 719.7801,-175 709.7801,-171.5001 709.7801,-178.5001"/>
</g>
<!-- CrudService -->
<g id="node12" class="node">
<title>CrudService</title>
<ellipse fill="#fdb462" stroke="#000000" cx="83" cy="-104" rx="59.1083" ry="18"/>
<text text-anchor="middle" x="83" y="-99.8" font-family="Times,serif" font-size="14.00" fill="#000000">CrudService</text>
</g>
<!-- CrudService&#45;&gt;SalidasLaboratorioModule -->
<g id="edge11" class="edge">
<title>CrudService&#45;&gt;SalidasLaboratorioModule</title>
<path fill="none" stroke="#000000" d="M83,-122.0908C83,-145.1328 83,-182 83,-182 83,-182 709.7035,-182 709.7035,-182"/>
<polygon fill="#000000" stroke="#000000" points="709.7035,-185.5001 719.7035,-182 709.7034,-178.5001 709.7035,-185.5001"/>
</g>
</g>
</svg>
