<?xml version="1.0" encoding="UTF-8" standalone="no"?>
<!DOCTYPE svg PUBLIC "-//W3C//DTD SVG 1.1//EN"
 "http://www.w3.org/Graphics/SVG/1.1/DTD/svg11.dtd">
<!-- Generated by graphviz version 2.40.1 (20161225.0304)
 -->
<!-- Title: dependencies Pages: 1 -->
<svg width="2259pt" height="211pt"
 viewBox="0.00 0.00 2259.00 211.00" xmlns="http://www.w3.org/2000/svg" xmlns:xlink="http://www.w3.org/1999/xlink">
<g id="graph0" class="graph" transform="scale(1 1) rotate(0) translate(4 207)">
<title>dependencies</title>
<polygon fill="#ffffff" stroke="transparent" points="-4,4 -4,-207 2255,-207 2255,4 -4,4"/>
<text text-anchor="start" x="1104.5091" y="-42.4" font-family="sans-serif" font-weight="bold" font-size="14.00" fill="#000000">Legend</text>
<polygon fill="#ffffb3" stroke="transparent" points="891.5,-10 891.5,-30 911.5,-30 911.5,-10 891.5,-10"/>
<text text-anchor="start" x="915.129" y="-15.4" font-family="sans-serif" font-size="14.00" fill="#000000"> &#160;Declarations</text>
<polygon fill="#8dd3c7" stroke="transparent" points="1004.5,-10 1004.5,-30 1024.5,-30 1024.5,-10 1004.5,-10"/>
<text text-anchor="start" x="1028.2251" y="-15.4" font-family="sans-serif" font-size="14.00" fill="#000000"> &#160;Module</text>
<polygon fill="#80b1d3" stroke="transparent" points="1090.5,-10 1090.5,-30 1110.5,-30 1110.5,-10 1090.5,-10"/>
<text text-anchor="start" x="1114.2812" y="-15.4" font-family="sans-serif" font-size="14.00" fill="#000000"> &#160;Bootstrap</text>
<polygon fill="#fdb462" stroke="transparent" points="1187.5,-10 1187.5,-30 1207.5,-30 1207.5,-10 1187.5,-10"/>
<text text-anchor="start" x="1211.1732" y="-15.4" font-family="sans-serif" font-size="14.00" fill="#000000"> &#160;Providers</text>
<polygon fill="#fb8072" stroke="transparent" points="1283.5,-10 1283.5,-30 1303.5,-30 1303.5,-10 1283.5,-10"/>
<text text-anchor="start" x="1307.2258" y="-15.4" font-family="sans-serif" font-size="14.00" fill="#000000"> &#160;Exports</text>
<g id="clust1" class="cluster">
<title>cluster_TransferenciaAlmacenModule</title>
<polygon fill="none" stroke="#000000" stroke-dasharray="1,5" points="8,-70 8,-195 2243,-195 2243,-70 8,-70"/>
</g>
<g id="clust2" class="cluster">
<title>cluster_TransferenciaAlmacenModule_declarations</title>
<polygon fill="none" stroke="#000000" points="1644,-78 1644,-130 2235,-130 2235,-78 1644,-78"/>
</g>
<g id="clust7" class="cluster">
<title>cluster_TransferenciaAlmacenModule_imports</title>
<polygon fill="none" stroke="#000000" points="432,-78 432,-130 1636,-130 1636,-78 432,-78"/>
</g>
<g id="clust10" class="cluster">
<title>cluster_TransferenciaAlmacenModule_providers</title>
<polygon fill="none" stroke="#000000" points="16,-78 16,-130 424,-130 424,-78 16,-78"/>
</g>
<!-- ListaComponent -->
<g id="node1" class="node">
<title>ListaComponent</title>
<polygon fill="#ffffb3" stroke="#000000" points="2226.8259,-122 2117.1741,-122 2117.1741,-86 2226.8259,-86 2226.8259,-122"/>
<text text-anchor="middle" x="2172" y="-99.8" font-family="Times,serif" font-size="14.00" fill="#000000">ListaComponent</text>
</g>
<!-- TransferenciaAlmacenModule -->
<g id="node5" class="node">
<title>TransferenciaAlmacenModule</title>
<polygon fill="#8dd3c7" stroke="#000000" points="1354.524,-187 1351.524,-191 1330.524,-191 1327.524,-187 1167.476,-187 1167.476,-151 1354.524,-151 1354.524,-187"/>
<text text-anchor="middle" x="1261" y="-164.8" font-family="Times,serif" font-size="14.00" fill="#000000">TransferenciaAlmacenModule</text>
</g>
<!-- ListaComponent&#45;&gt;TransferenciaAlmacenModule -->
<g id="edge1" class="edge">
<title>ListaComponent&#45;&gt;TransferenciaAlmacenModule</title>
<path fill="none" stroke="#000000" d="M2172,-122.0908C2172,-145.1328 2172,-182 2172,-182 2172,-182 1364.6364,-182 1364.6364,-182"/>
<polygon fill="#000000" stroke="#000000" points="1364.6364,-178.5001 1354.6364,-182 1364.6363,-185.5001 1364.6364,-178.5001"/>
</g>
<!-- FormularioComponent -->
<g id="node2" class="node">
<title>FormularioComponent</title>
<polygon fill="#ffffb3" stroke="#000000" points="2099.323,-122 1954.677,-122 1954.677,-86 2099.323,-86 2099.323,-122"/>
<text text-anchor="middle" x="2027" y="-99.8" font-family="Times,serif" font-size="14.00" fill="#000000">FormularioComponent</text>
</g>
<!-- FormularioComponent&#45;&gt;TransferenciaAlmacenModule -->
<g id="edge2" class="edge">
<title>FormularioComponent&#45;&gt;TransferenciaAlmacenModule</title>
<path fill="none" stroke="#000000" d="M2027,-122.0449C2027,-143.6623 2027,-177 2027,-177 2027,-177 1364.5434,-177 1364.5434,-177"/>
<polygon fill="#000000" stroke="#000000" points="1364.5435,-173.5001 1354.5434,-177 1364.5434,-180.5001 1364.5435,-173.5001"/>
</g>
<!-- MenuLateralComponent -->
<g id="node3" class="node">
<title>MenuLateralComponent</title>
<polygon fill="#ffffb3" stroke="#000000" points="1936.6302,-122 1783.3698,-122 1783.3698,-86 1936.6302,-86 1936.6302,-122"/>
<text text-anchor="middle" x="1860" y="-99.8" font-family="Times,serif" font-size="14.00" fill="#000000">MenuLateralComponent</text>
</g>
<!-- MenuLateralComponent&#45;&gt;TransferenciaAlmacenModule -->
<g id="edge3" class="edge">
<title>MenuLateralComponent&#45;&gt;TransferenciaAlmacenModule</title>
<path fill="none" stroke="#000000" d="M1860,-122.2228C1860,-142.3652 1860,-172 1860,-172 1860,-172 1364.5938,-172 1364.5938,-172"/>
<polygon fill="#000000" stroke="#000000" points="1364.5938,-168.5001 1354.5938,-172 1364.5937,-175.5001 1364.5938,-168.5001"/>
</g>
<!-- SurtirComponent -->
<g id="node4" class="node">
<title>SurtirComponent</title>
<polygon fill="#ffffb3" stroke="#000000" points="1765.7176,-122 1652.2824,-122 1652.2824,-86 1765.7176,-86 1765.7176,-122"/>
<text text-anchor="middle" x="1709" y="-99.8" font-family="Times,serif" font-size="14.00" fill="#000000">SurtirComponent</text>
</g>
<!-- SurtirComponent&#45;&gt;TransferenciaAlmacenModule -->
<g id="edge4" class="edge">
<title>SurtirComponent&#45;&gt;TransferenciaAlmacenModule</title>
<path fill="none" stroke="#000000" d="M1709,-122.2222C1709,-140.8285 1709,-167 1709,-167 1709,-167 1364.6427,-167 1364.6427,-167"/>
<polygon fill="#000000" stroke="#000000" points="1364.6427,-163.5001 1354.6427,-167 1364.6427,-170.5001 1364.6427,-163.5001"/>
</g>
<!-- HubModule -->
<g id="node6" class="node">
<title>HubModule</title>
<polygon fill="#8dd3c7" stroke="#000000" points="1627.6571,-122 1624.6571,-126 1603.6571,-126 1600.6571,-122 1544.3429,-122 1544.3429,-86 1627.6571,-86 1627.6571,-122"/>
<text text-anchor="middle" x="1586" y="-99.8" font-family="Times,serif" font-size="14.00" fill="#000000">HubModule</text>
</g>
<!-- HubModule&#45;&gt;TransferenciaAlmacenModule -->
<g id="edge5" class="edge">
<title>HubModule&#45;&gt;TransferenciaAlmacenModule</title>
<path fill="none" stroke="#000000" d="M1586,-122.0336C1586,-139.0597 1586,-162 1586,-162 1586,-162 1364.5674,-162 1364.5674,-162"/>
<polygon fill="#000000" stroke="#000000" points="1364.5675,-158.5001 1354.5674,-162 1364.5674,-165.5001 1364.5675,-158.5001"/>
</g>
<!-- PerfilModule -->
<g id="node7" class="node">
<title>PerfilModule</title>
<polygon fill="#8dd3c7" stroke="#000000" points="1526.1501,-122 1523.1501,-126 1502.1501,-126 1499.1501,-122 1435.8499,-122 1435.8499,-86 1526.1501,-86 1526.1501,-122"/>
<text text-anchor="middle" x="1481" y="-99.8" font-family="Times,serif" font-size="14.00" fill="#000000">PerfilModule</text>
</g>
<!-- PerfilModule&#45;&gt;TransferenciaAlmacenModule -->
<g id="edge6" class="edge">
<title>PerfilModule&#45;&gt;TransferenciaAlmacenModule</title>
<path fill="none" stroke="#000000" d="M1481,-122.2396C1481,-137.5706 1481,-157 1481,-157 1481,-157 1364.6188,-157 1364.6188,-157"/>
<polygon fill="#000000" stroke="#000000" points="1364.6188,-153.5001 1354.6188,-157 1364.6188,-160.5001 1364.6188,-153.5001"/>
</g>
<!-- BloquearPantallaModule -->
<g id="node8" class="node">
<title>BloquearPantallaModule</title>
<polygon fill="#8dd3c7" stroke="#000000" points="1417.965,-122 1414.965,-126 1393.965,-126 1390.965,-122 1262.035,-122 1262.035,-86 1417.965,-86 1417.965,-122"/>
<text text-anchor="middle" x="1340" y="-99.8" font-family="Times,serif" font-size="14.00" fill="#000000">BloquearPantallaModule</text>
</g>
<!-- BloquearPantallaModule&#45;&gt;TransferenciaAlmacenModule -->
<g id="edge7" class="edge">
<title>BloquearPantallaModule&#45;&gt;TransferenciaAlmacenModule</title>
<path fill="none" stroke="#000000" d="M1308.2647,-122.1061C1308.2647,-122.1061 1308.2647,-140.991 1308.2647,-140.991"/>
<polygon fill="#000000" stroke="#000000" points="1304.7648,-140.9909 1308.2647,-150.991 1311.7648,-140.991 1304.7648,-140.9909"/>
</g>
<!-- PaginacionModule -->
<g id="node9" class="node">
<title>PaginacionModule</title>
<polygon fill="#8dd3c7" stroke="#000000" points="1243.7576,-122 1240.7576,-126 1219.7576,-126 1216.7576,-122 1122.2424,-122 1122.2424,-86 1243.7576,-86 1243.7576,-122"/>
<text text-anchor="middle" x="1183" y="-99.8" font-family="Times,serif" font-size="14.00" fill="#000000">PaginacionModule</text>
</g>
<!-- PaginacionModule&#45;&gt;TransferenciaAlmacenModule -->
<g id="edge8" class="edge">
<title>PaginacionModule&#45;&gt;TransferenciaAlmacenModule</title>
<path fill="none" stroke="#000000" d="M1205.6834,-122.1061C1205.6834,-122.1061 1205.6834,-140.991 1205.6834,-140.991"/>
<polygon fill="#000000" stroke="#000000" points="1202.1834,-140.9909 1205.6834,-150.991 1209.1834,-140.991 1202.1834,-140.9909"/>
</g>
<!-- BuscarInsumosModule -->
<g id="node10" class="node">
<title>BuscarInsumosModule</title>
<polygon fill="#8dd3c7" stroke="#000000" points="1103.8613,-122 1100.8613,-126 1079.8613,-126 1076.8613,-122 958.1387,-122 958.1387,-86 1103.8613,-86 1103.8613,-122"/>
<text text-anchor="middle" x="1031" y="-99.8" font-family="Times,serif" font-size="14.00" fill="#000000">BuscarInsumosModule</text>
</g>
<!-- BuscarInsumosModule&#45;&gt;TransferenciaAlmacenModule -->
<g id="edge9" class="edge">
<title>BuscarInsumosModule&#45;&gt;TransferenciaAlmacenModule</title>
<path fill="none" stroke="#000000" d="M1031,-122.2396C1031,-137.5706 1031,-157 1031,-157 1031,-157 1157.4502,-157 1157.4502,-157"/>
<polygon fill="#000000" stroke="#000000" points="1157.4502,-160.5001 1167.4502,-157 1157.4502,-153.5001 1157.4502,-160.5001"/>
</g>
<!-- IndexFarmaciaModule -->
<g id="node11" class="node">
<title>IndexFarmaciaModule</title>
<polygon fill="#8dd3c7" stroke="#000000" points="939.5086,-122 936.5086,-126 915.5086,-126 912.5086,-122 796.4914,-122 796.4914,-86 939.5086,-86 939.5086,-122"/>
<text text-anchor="middle" x="868" y="-99.8" font-family="Times,serif" font-size="14.00" fill="#000000">IndexFarmaciaModule</text>
</g>
<!-- IndexFarmaciaModule&#45;&gt;TransferenciaAlmacenModule -->
<g id="edge10" class="edge">
<title>IndexFarmaciaModule&#45;&gt;TransferenciaAlmacenModule</title>
<path fill="none" stroke="#000000" d="M868,-122.0336C868,-139.0597 868,-162 868,-162 868,-162 1157.366,-162 1157.366,-162"/>
<polygon fill="#000000" stroke="#000000" points="1157.366,-165.5001 1167.366,-162 1157.366,-158.5001 1157.366,-165.5001"/>
</g>
<!-- CrudModule -->
<g id="node12" class="node">
<title>CrudModule</title>
<polygon fill="#8dd3c7" stroke="#000000" points="777.5482,-122 774.5482,-126 753.5482,-126 750.5482,-122 690.4518,-122 690.4518,-86 777.5482,-86 777.5482,-122"/>
<text text-anchor="middle" x="734" y="-99.8" font-family="Times,serif" font-size="14.00" fill="#000000">CrudModule</text>
</g>
<!-- CrudModule&#45;&gt;TransferenciaAlmacenModule -->
<g id="edge11" class="edge">
<title>CrudModule&#45;&gt;TransferenciaAlmacenModule</title>
<path fill="none" stroke="#000000" d="M734,-122.2222C734,-140.8285 734,-167 734,-167 734,-167 1157.3902,-167 1157.3902,-167"/>
<polygon fill="#000000" stroke="#000000" points="1157.3903,-170.5001 1167.3902,-167 1157.3902,-163.5001 1157.3903,-170.5001"/>
</g>
<!-- TransferenciaAlmacenRoutingModule -->
<g id="node13" class="node">
<title>TransferenciaAlmacenRoutingModule</title>
<polygon fill="#8dd3c7" stroke="#000000" points="672.1418,-122 669.1418,-126 648.1418,-126 645.1418,-122 439.8582,-122 439.8582,-86 672.1418,-86 672.1418,-122"/>
<text text-anchor="middle" x="556" y="-99.8" font-family="Times,serif" font-size="14.00" fill="#000000">TransferenciaAlmacenRoutingModule</text>
</g>
<!-- TransferenciaAlmacenRoutingModule&#45;&gt;TransferenciaAlmacenModule -->
<g id="edge12" class="edge">
<title>TransferenciaAlmacenRoutingModule&#45;&gt;TransferenciaAlmacenModule</title>
<path fill="none" stroke="#000000" d="M556,-122.2228C556,-142.3652 556,-172 556,-172 556,-172 1157.3814,-172 1157.3814,-172"/>
<polygon fill="#000000" stroke="#000000" points="1157.3815,-175.5001 1167.3814,-172 1157.3814,-168.5001 1157.3815,-175.5001"/>
</g>
<!-- TransferenciaAlmacenService -->
<g id="node14" class="node">
<title>TransferenciaAlmacenService</title>
<ellipse fill="#fdb462" stroke="#000000" cx="288" cy="-104" rx="127.8426" ry="18"/>
<text text-anchor="middle" x="288" y="-99.8" font-family="Times,serif" font-size="14.00" fill="#000000">TransferenciaAlmacenService</text>
</g>
<!-- TransferenciaAlmacenService&#45;&gt;TransferenciaAlmacenModule -->
<g id="edge13" class="edge">
<title>TransferenciaAlmacenService&#45;&gt;TransferenciaAlmacenModule</title>
<path fill="none" stroke="#000000" d="M288,-122.0449C288,-143.6623 288,-177 288,-177 288,-177 1157.2631,-177 1157.2631,-177"/>
<polygon fill="#000000" stroke="#000000" points="1157.2631,-180.5001 1167.2631,-177 1157.263,-173.5001 1157.2631,-180.5001"/>
</g>
<!-- CrudService -->
<g id="node15" class="node">
<title>CrudService</title>
<ellipse fill="#fdb462" stroke="#000000" cx="83" cy="-104" rx="59.1083" ry="18"/>
<text text-anchor="middle" x="83" y="-99.8" font-family="Times,serif" font-size="14.00" fill="#000000">CrudService</text>
</g>
<!-- CrudService&#45;&gt;TransferenciaAlmacenModule -->
<g id="edge14" class="edge">
<title>CrudService&#45;&gt;TransferenciaAlmacenModule</title>
<path fill="none" stroke="#000000" d="M83,-122.0908C83,-145.1328 83,-182 83,-182 83,-182 1157.0857,-182 1157.0857,-182"/>
<polygon fill="#000000" stroke="#000000" points="1157.0857,-185.5001 1167.0857,-182 1157.0857,-178.5001 1157.0857,-185.5001"/>
</g>
</g>
</svg>
