<?xml version="1.0" encoding="UTF-8" standalone="no"?>
<!DOCTYPE svg PUBLIC "-//W3C//DTD SVG 1.1//EN"
 "http://www.w3.org/Graphics/SVG/1.1/DTD/svg11.dtd">
<!-- Generated by graphviz version 2.40.1 (20161225.0304)
 -->
<!-- Title: dependencies Pages: 1 -->
<svg width="1673pt" height="211pt"
 viewBox="0.00 0.00 1673.00 211.00" xmlns="http://www.w3.org/2000/svg" xmlns:xlink="http://www.w3.org/1999/xlink">
<g id="graph0" class="graph" transform="scale(1 1) rotate(0) translate(4 207)">
<title>dependencies</title>
<polygon fill="#ffffff" stroke="transparent" points="-4,4 -4,-207 1669,-207 1669,4 -4,4"/>
<text text-anchor="start" x="811.5091" y="-42.4" font-family="sans-serif" font-weight="bold" font-size="14.00" fill="#000000">Legend</text>
<polygon fill="#ffffb3" stroke="transparent" points="598.5,-10 598.5,-30 618.5,-30 618.5,-10 598.5,-10"/>
<text text-anchor="start" x="622.129" y="-15.4" font-family="sans-serif" font-size="14.00" fill="#000000"> &#160;Declarations</text>
<polygon fill="#8dd3c7" stroke="transparent" points="711.5,-10 711.5,-30 731.5,-30 731.5,-10 711.5,-10"/>
<text text-anchor="start" x="735.2251" y="-15.4" font-family="sans-serif" font-size="14.00" fill="#000000"> &#160;Module</text>
<polygon fill="#80b1d3" stroke="transparent" points="797.5,-10 797.5,-30 817.5,-30 817.5,-10 797.5,-10"/>
<text text-anchor="start" x="821.2812" y="-15.4" font-family="sans-serif" font-size="14.00" fill="#000000"> &#160;Bootstrap</text>
<polygon fill="#fdb462" stroke="transparent" points="894.5,-10 894.5,-30 914.5,-30 914.5,-10 894.5,-10"/>
<text text-anchor="start" x="918.1732" y="-15.4" font-family="sans-serif" font-size="14.00" fill="#000000"> &#160;Providers</text>
<polygon fill="#fb8072" stroke="transparent" points="990.5,-10 990.5,-30 1010.5,-30 1010.5,-10 990.5,-10"/>
<text text-anchor="start" x="1014.2258" y="-15.4" font-family="sans-serif" font-size="14.00" fill="#000000"> &#160;Exports</text>
<g id="clust1" class="cluster">
<title>cluster_EntradasEstandarModule</title>
<polygon fill="none" stroke="#000000" stroke-dasharray="1,5" points="8,-70 8,-195 1657,-195 1657,-70 8,-70"/>
</g>
<g id="clust2" class="cluster">
<title>cluster_EntradasEstandarModule_declarations</title>
<polygon fill="none" stroke="#000000" points="1313,-78 1313,-130 1649,-130 1649,-78 1313,-78"/>
</g>
<g id="clust5" class="cluster">
<title>cluster_EntradasEstandarModule_imports</title>
<polygon fill="none" stroke="#000000" points="295,-78 295,-130 1305,-130 1305,-78 295,-78"/>
</g>
<g id="clust8" class="cluster">
<title>cluster_EntradasEstandarModule_providers</title>
<polygon fill="none" stroke="#000000" points="16,-78 16,-130 287,-130 287,-78 16,-78"/>
</g>
<!-- ListaEntradasComponent -->
<g id="node1" class="node">
<title>ListaEntradasComponent</title>
<polygon fill="#ffffb3" stroke="#000000" points="1641.3033,-122 1482.6967,-122 1482.6967,-86 1641.3033,-86 1641.3033,-122"/>
<text text-anchor="middle" x="1562" y="-99.8" font-family="Times,serif" font-size="14.00" fill="#000000">ListaEntradasComponent</text>
</g>
<!-- EntradasEstandarModule -->
<g id="node3" class="node">
<title>EntradasEstandarModule</title>
<polygon fill="#8dd3c7" stroke="#000000" points="867.5058,-187 864.5058,-191 843.5058,-191 840.5058,-187 710.4942,-187 710.4942,-151 867.5058,-151 867.5058,-187"/>
<text text-anchor="middle" x="789" y="-164.8" font-family="Times,serif" font-size="14.00" fill="#000000">EntradasEstandarModule</text>
</g>
<!-- ListaEntradasComponent&#45;&gt;EntradasEstandarModule -->
<g id="edge1" class="edge">
<title>ListaEntradasComponent&#45;&gt;EntradasEstandarModule</title>
<path fill="none" stroke="#000000" d="M1562,-122.0908C1562,-145.1328 1562,-182 1562,-182 1562,-182 877.7323,-182 877.7323,-182"/>
<polygon fill="#000000" stroke="#000000" points="877.7323,-178.5001 867.7323,-182 877.7322,-185.5001 877.7323,-178.5001"/>
</g>
<!-- FormularioComponent -->
<g id="node2" class="node">
<title>FormularioComponent</title>
<polygon fill="#ffffb3" stroke="#000000" points="1465.323,-122 1320.677,-122 1320.677,-86 1465.323,-86 1465.323,-122"/>
<text text-anchor="middle" x="1393" y="-99.8" font-family="Times,serif" font-size="14.00" fill="#000000">FormularioComponent</text>
</g>
<!-- FormularioComponent&#45;&gt;EntradasEstandarModule -->
<g id="edge2" class="edge">
<title>FormularioComponent&#45;&gt;EntradasEstandarModule</title>
<path fill="none" stroke="#000000" d="M1393,-122.2843C1393,-143.3211 1393,-175 1393,-175 1393,-175 877.6526,-175 877.6526,-175"/>
<polygon fill="#000000" stroke="#000000" points="877.6526,-171.5001 867.6526,-175 877.6526,-178.5001 877.6526,-171.5001"/>
</g>
<!-- EntradasEstandarRoutingModule -->
<g id="node4" class="node">
<title>EntradasEstandarRoutingModule</title>
<polygon fill="#8dd3c7" stroke="#000000" points="1297.1232,-122 1294.1232,-126 1273.1232,-126 1270.1232,-122 1094.8768,-122 1094.8768,-86 1297.1232,-86 1297.1232,-122"/>
<text text-anchor="middle" x="1196" y="-99.8" font-family="Times,serif" font-size="14.00" fill="#000000">EntradasEstandarRoutingModule</text>
</g>
<!-- EntradasEstandarRoutingModule&#45;&gt;EntradasEstandarModule -->
<g id="edge3" class="edge">
<title>EntradasEstandarRoutingModule&#45;&gt;EntradasEstandarModule</title>
<path fill="none" stroke="#000000" d="M1196,-122.1061C1196,-141.3391 1196,-169 1196,-169 1196,-169 877.9563,-169 877.9563,-169"/>
<polygon fill="#000000" stroke="#000000" points="877.9563,-165.5001 867.9563,-169 877.9562,-172.5001 877.9563,-165.5001"/>
</g>
<!-- HubModule -->
<g id="node5" class="node">
<title>HubModule</title>
<polygon fill="#8dd3c7" stroke="#000000" points="1076.6571,-122 1073.6571,-126 1052.6571,-126 1049.6571,-122 993.3429,-122 993.3429,-86 1076.6571,-86 1076.6571,-122"/>
<text text-anchor="middle" x="1035" y="-99.8" font-family="Times,serif" font-size="14.00" fill="#000000">HubModule</text>
</g>
<!-- HubModule&#45;&gt;EntradasEstandarModule -->
<g id="edge4" class="edge">
<title>HubModule&#45;&gt;EntradasEstandarModule</title>
<path fill="none" stroke="#000000" d="M1035,-122.0225C1035,-139.3734 1035,-163 1035,-163 1035,-163 877.5123,-163 877.5123,-163"/>
<polygon fill="#000000" stroke="#000000" points="877.5123,-159.5001 867.5123,-163 877.5123,-166.5001 877.5123,-159.5001"/>
</g>
<!-- PerfilModule -->
<g id="node6" class="node">
<title>PerfilModule</title>
<polygon fill="#8dd3c7" stroke="#000000" points="975.1501,-122 972.1501,-126 951.1501,-126 948.1501,-122 884.8499,-122 884.8499,-86 975.1501,-86 975.1501,-122"/>
<text text-anchor="middle" x="930" y="-99.8" font-family="Times,serif" font-size="14.00" fill="#000000">PerfilModule</text>
</g>
<!-- PerfilModule&#45;&gt;EntradasEstandarModule -->
<g id="edge5" class="edge">
<title>PerfilModule&#45;&gt;EntradasEstandarModule</title>
<path fill="none" stroke="#000000" d="M930,-122.2396C930,-137.5706 930,-157 930,-157 930,-157 877.7449,-157 877.7449,-157"/>
<polygon fill="#000000" stroke="#000000" points="877.7449,-153.5001 867.7449,-157 877.7449,-160.5001 877.7449,-153.5001"/>
</g>
<!-- BloquearPantallaModule -->
<g id="node7" class="node">
<title>BloquearPantallaModule</title>
<polygon fill="#8dd3c7" stroke="#000000" points="866.965,-122 863.965,-126 842.965,-126 839.965,-122 711.035,-122 711.035,-86 866.965,-86 866.965,-122"/>
<text text-anchor="middle" x="789" y="-99.8" font-family="Times,serif" font-size="14.00" fill="#000000">BloquearPantallaModule</text>
</g>
<!-- BloquearPantallaModule&#45;&gt;EntradasEstandarModule -->
<g id="edge6" class="edge">
<title>BloquearPantallaModule&#45;&gt;EntradasEstandarModule</title>
<path fill="none" stroke="#000000" d="M789,-122.1061C789,-122.1061 789,-140.991 789,-140.991"/>
<polygon fill="#000000" stroke="#000000" points="785.5001,-140.9909 789,-150.991 792.5001,-140.991 785.5001,-140.9909"/>
</g>
<!-- PaginacionModule -->
<g id="node8" class="node">
<title>PaginacionModule</title>
<polygon fill="#8dd3c7" stroke="#000000" points="692.7576,-122 689.7576,-126 668.7576,-126 665.7576,-122 571.2424,-122 571.2424,-86 692.7576,-86 692.7576,-122"/>
<text text-anchor="middle" x="632" y="-99.8" font-family="Times,serif" font-size="14.00" fill="#000000">PaginacionModule</text>
</g>
<!-- PaginacionModule&#45;&gt;EntradasEstandarModule -->
<g id="edge7" class="edge">
<title>PaginacionModule&#45;&gt;EntradasEstandarModule</title>
<path fill="none" stroke="#000000" d="M632,-122.2396C632,-137.5706 632,-157 632,-157 632,-157 700.04,-157 700.04,-157"/>
<polygon fill="#000000" stroke="#000000" points="700.0401,-160.5001 710.04,-157 700.04,-153.5001 700.0401,-160.5001"/>
</g>
<!-- IndexFarmaciaModule -->
<g id="node9" class="node">
<title>IndexFarmaciaModule</title>
<polygon fill="#8dd3c7" stroke="#000000" points="552.5086,-122 549.5086,-126 528.5086,-126 525.5086,-122 409.4914,-122 409.4914,-86 552.5086,-86 552.5086,-122"/>
<text text-anchor="middle" x="481" y="-99.8" font-family="Times,serif" font-size="14.00" fill="#000000">IndexFarmaciaModule</text>
</g>
<!-- IndexFarmaciaModule&#45;&gt;EntradasEstandarModule -->
<g id="edge8" class="edge">
<title>IndexFarmaciaModule&#45;&gt;EntradasEstandarModule</title>
<path fill="none" stroke="#000000" d="M481,-122.0225C481,-139.3734 481,-163 481,-163 481,-163 700.4817,-163 700.4817,-163"/>
<polygon fill="#000000" stroke="#000000" points="700.4817,-166.5001 710.4817,-163 700.4816,-159.5001 700.4817,-166.5001"/>
</g>
<!-- CrudModule -->
<g id="node10" class="node">
<title>CrudModule</title>
<polygon fill="#8dd3c7" stroke="#000000" points="390.5482,-122 387.5482,-126 366.5482,-126 363.5482,-122 303.4518,-122 303.4518,-86 390.5482,-86 390.5482,-122"/>
<text text-anchor="middle" x="347" y="-99.8" font-family="Times,serif" font-size="14.00" fill="#000000">CrudModule</text>
</g>
<!-- CrudModule&#45;&gt;EntradasEstandarModule -->
<g id="edge9" class="edge">
<title>CrudModule&#45;&gt;EntradasEstandarModule</title>
<path fill="none" stroke="#000000" d="M347,-122.1061C347,-141.3391 347,-169 347,-169 347,-169 700.4886,-169 700.4886,-169"/>
<polygon fill="#000000" stroke="#000000" points="700.4886,-172.5001 710.4886,-169 700.4885,-165.5001 700.4886,-172.5001"/>
</g>
<!-- AuthService -->
<g id="node11" class="node">
<title>AuthService</title>
<ellipse fill="#fdb462" stroke="#000000" cx="220" cy="-104" rx="59.1083" ry="18"/>
<text text-anchor="middle" x="220" y="-99.8" font-family="Times,serif" font-size="14.00" fill="#000000">AuthService</text>
</g>
<!-- AuthService&#45;&gt;EntradasEstandarModule -->
<g id="edge10" class="edge">
<title>AuthService&#45;&gt;EntradasEstandarModule</title>
<path fill="none" stroke="#000000" d="M220,-122.2843C220,-143.3211 220,-175 220,-175 220,-175 700.4804,-175 700.4804,-175"/>
<polygon fill="#000000" stroke="#000000" points="700.4804,-178.5001 710.4804,-175 700.4803,-171.5001 700.4804,-178.5001"/>
</g>
<!-- CrudService -->
<g id="node12" class="node">
<title>CrudService</title>
<ellipse fill="#fdb462" stroke="#000000" cx="83" cy="-104" rx="59.1083" ry="18"/>
<text text-anchor="middle" x="83" y="-99.8" font-family="Times,serif" font-size="14.00" fill="#000000">CrudService</text>
</g>
<!-- CrudService&#45;&gt;EntradasEstandarModule -->
<g id="edge11" class="edge">
<title>CrudService&#45;&gt;EntradasEstandarModule</title>
<path fill="none" stroke="#000000" d="M83,-122.0908C83,-145.1328 83,-182 83,-182 83,-182 700.4083,-182 700.4083,-182"/>
<polygon fill="#000000" stroke="#000000" points="700.4083,-185.5001 710.4083,-182 700.4083,-178.5001 700.4083,-185.5001"/>
</g>
</g>
</svg>
