<?xml version="1.0" encoding="UTF-8" standalone="no"?>
<!DOCTYPE svg PUBLIC "-//W3C//DTD SVG 1.1//EN"
 "http://www.w3.org/Graphics/SVG/1.1/DTD/svg11.dtd">
<!-- Generated by graphviz version 2.40.1 (20161225.0304)
 -->
<!-- Title: dependencies Pages: 1 -->
<svg width="1125pt" height="284pt"
 viewBox="0.00 0.00 1125.00 284.00" xmlns="http://www.w3.org/2000/svg" xmlns:xlink="http://www.w3.org/1999/xlink">
<g id="graph0" class="graph" transform="scale(1 1) rotate(0) translate(4 280)">
<title>dependencies</title>
<polygon fill="#ffffff" stroke="transparent" points="-4,4 -4,-280 1121,-280 1121,4 -4,4"/>
<text text-anchor="start" x="537.5091" y="-42.4" font-family="sans-serif" font-weight="bold" font-size="14.00" fill="#000000">Legend</text>
<polygon fill="#ffffb3" stroke="transparent" points="324.5,-10 324.5,-30 344.5,-30 344.5,-10 324.5,-10"/>
<text text-anchor="start" x="348.129" y="-15.4" font-family="sans-serif" font-size="14.00" fill="#000000"> &#160;Declarations</text>
<polygon fill="#8dd3c7" stroke="transparent" points="437.5,-10 437.5,-30 457.5,-30 457.5,-10 437.5,-10"/>
<text text-anchor="start" x="461.2251" y="-15.4" font-family="sans-serif" font-size="14.00" fill="#000000"> &#160;Module</text>
<polygon fill="#80b1d3" stroke="transparent" points="523.5,-10 523.5,-30 543.5,-30 543.5,-10 523.5,-10"/>
<text text-anchor="start" x="547.2812" y="-15.4" font-family="sans-serif" font-size="14.00" fill="#000000"> &#160;Bootstrap</text>
<polygon fill="#fdb462" stroke="transparent" points="620.5,-10 620.5,-30 640.5,-30 640.5,-10 620.5,-10"/>
<text text-anchor="start" x="644.1732" y="-15.4" font-family="sans-serif" font-size="14.00" fill="#000000"> &#160;Providers</text>
<polygon fill="#fb8072" stroke="transparent" points="716.5,-10 716.5,-30 736.5,-30 736.5,-10 716.5,-10"/>
<text text-anchor="start" x="740.2258" y="-15.4" font-family="sans-serif" font-size="14.00" fill="#000000"> &#160;Exports</text>
<g id="clust1" class="cluster">
<title>cluster_IndexAlmacenArticulosModule</title>
<polygon fill="none" stroke="#000000" stroke-dasharray="1,5" points="8,-70 8,-268 1109,-268 1109,-70 8,-70"/>
</g>
<g id="clust2" class="cluster">
<title>cluster_IndexAlmacenArticulosModule_declarations</title>
<polygon fill="none" stroke="#000000" points="663,-78 663,-130 1101,-130 1101,-78 663,-78"/>
</g>
<g id="clust5" class="cluster">
<title>cluster_IndexAlmacenArticulosModule_imports</title>
<polygon fill="none" stroke="#000000" points="16,-78 16,-130 655,-130 655,-78 16,-78"/>
</g>
<g id="clust6" class="cluster">
<title>cluster_IndexAlmacenArticulosModule_exports</title>
<polygon fill="none" stroke="#000000" points="333,-208 333,-260 541,-260 541,-208 333,-208"/>
</g>
<!-- IndexAlmacenArticulosComponent -->
<g id="node1" class="node">
<title>IndexAlmacenArticulosComponent</title>
<polygon fill="#ffffb3" stroke="#000000" points="1092.8375,-122 877.1625,-122 877.1625,-86 1092.8375,-86 1092.8375,-122"/>
<text text-anchor="middle" x="985" y="-99.8" font-family="Times,serif" font-size="14.00" fill="#000000">IndexAlmacenArticulosComponent</text>
</g>
<!-- IndexAlmacenArticulosModule -->
<g id="node3" class="node">
<title>IndexAlmacenArticulosModule</title>
<polygon fill="#8dd3c7" stroke="#000000" points="534.0548,-187 531.0548,-191 510.0548,-191 507.0548,-187 339.9452,-187 339.9452,-151 534.0548,-151 534.0548,-187"/>
<text text-anchor="middle" x="437" y="-164.8" font-family="Times,serif" font-size="14.00" fill="#000000">IndexAlmacenArticulosModule</text>
</g>
<!-- IndexAlmacenArticulosComponent&#45;&gt;IndexAlmacenArticulosModule -->
<g id="edge1" class="edge">
<title>IndexAlmacenArticulosComponent&#45;&gt;IndexAlmacenArticulosModule</title>
<path fill="none" stroke="#000000" d="M985,-122.2843C985,-143.3211 985,-175 985,-175 985,-175 544.34,-175 544.34,-175"/>
<polygon fill="#000000" stroke="#000000" points="544.34,-171.5001 534.34,-175 544.3399,-178.5001 544.34,-171.5001"/>
</g>
<!-- MenuFarmaciaSubComponent -->
<g id="node2" class="node">
<title>MenuFarmaciaSubComponent</title>
<polygon fill="#ffffb3" stroke="#000000" points="858.8571,-122 671.1429,-122 671.1429,-86 858.8571,-86 858.8571,-122"/>
<text text-anchor="middle" x="765" y="-99.8" font-family="Times,serif" font-size="14.00" fill="#000000">MenuFarmaciaSubComponent</text>
</g>
<!-- MenuFarmaciaSubComponent&#45;&gt;IndexAlmacenArticulosModule -->
<g id="edge2" class="edge">
<title>MenuFarmaciaSubComponent&#45;&gt;IndexAlmacenArticulosModule</title>
<path fill="none" stroke="#000000" d="M765,-122.0225C765,-139.3734 765,-163 765,-163 765,-163 544.0795,-163 544.0795,-163"/>
<polygon fill="#000000" stroke="#000000" points="544.0795,-159.5001 534.0795,-163 544.0795,-166.5001 544.0795,-159.5001"/>
</g>
<!-- MenuFarmaciaSubComponent  -->
<g id="node8" class="node">
<title>MenuFarmaciaSubComponent </title>
<polygon fill="#fb8072" stroke="#000000" points="532.8573,-252 341.1427,-252 341.1427,-216 532.8573,-216 532.8573,-252"/>
<text text-anchor="middle" x="437" y="-229.8" font-family="Times,serif" font-size="14.00" fill="#000000">MenuFarmaciaSubComponent </text>
</g>
<!-- IndexAlmacenArticulosModule&#45;&gt;MenuFarmaciaSubComponent  -->
<g id="edge7" class="edge">
<title>IndexAlmacenArticulosModule&#45;&gt;MenuFarmaciaSubComponent </title>
<path fill="none" stroke="#000000" stroke-dasharray="5,2" d="M437,-187.1061C437,-187.1061 437,-205.991 437,-205.991"/>
<polygon fill="#000000" stroke="#000000" points="433.5001,-205.9909 437,-215.991 440.5001,-205.991 433.5001,-205.9909"/>
</g>
<!-- IndexAlmacenArticulosRoutingModule -->
<g id="node4" class="node">
<title>IndexAlmacenArticulosRoutingModule</title>
<polygon fill="#8dd3c7" stroke="#000000" points="646.6727,-122 643.6727,-126 622.6727,-126 619.6727,-122 407.3273,-122 407.3273,-86 646.6727,-86 646.6727,-122"/>
<text text-anchor="middle" x="527" y="-99.8" font-family="Times,serif" font-size="14.00" fill="#000000">IndexAlmacenArticulosRoutingModule</text>
</g>
<!-- IndexAlmacenArticulosRoutingModule&#45;&gt;IndexAlmacenArticulosModule -->
<g id="edge3" class="edge">
<title>IndexAlmacenArticulosRoutingModule&#45;&gt;IndexAlmacenArticulosModule</title>
<path fill="none" stroke="#000000" d="M470.7206,-122.1061C470.7206,-122.1061 470.7206,-140.991 470.7206,-140.991"/>
<polygon fill="#000000" stroke="#000000" points="467.2206,-140.9909 470.7206,-150.991 474.2206,-140.991 467.2206,-140.9909"/>
</g>
<!-- HubModule -->
<g id="node5" class="node">
<title>HubModule</title>
<polygon fill="#8dd3c7" stroke="#000000" points="389.6571,-122 386.6571,-126 365.6571,-126 362.6571,-122 306.3429,-122 306.3429,-86 389.6571,-86 389.6571,-122"/>
<text text-anchor="middle" x="348" y="-99.8" font-family="Times,serif" font-size="14.00" fill="#000000">HubModule</text>
</g>
<!-- HubModule&#45;&gt;IndexAlmacenArticulosModule -->
<g id="edge4" class="edge">
<title>HubModule&#45;&gt;IndexAlmacenArticulosModule</title>
<path fill="none" stroke="#000000" d="M364.9004,-122.1061C364.9004,-122.1061 364.9004,-140.991 364.9004,-140.991"/>
<polygon fill="#000000" stroke="#000000" points="361.4005,-140.9909 364.9004,-150.991 368.4005,-140.991 361.4005,-140.9909"/>
</g>
<!-- PerfilModule -->
<g id="node6" class="node">
<title>PerfilModule</title>
<polygon fill="#8dd3c7" stroke="#000000" points="288.1501,-122 285.1501,-126 264.1501,-126 261.1501,-122 197.8499,-122 197.8499,-86 288.1501,-86 288.1501,-122"/>
<text text-anchor="middle" x="243" y="-99.8" font-family="Times,serif" font-size="14.00" fill="#000000">PerfilModule</text>
</g>
<!-- PerfilModule&#45;&gt;IndexAlmacenArticulosModule -->
<g id="edge5" class="edge">
<title>PerfilModule&#45;&gt;IndexAlmacenArticulosModule</title>
<path fill="none" stroke="#000000" d="M243,-122.0225C243,-139.3734 243,-163 243,-163 243,-163 329.7158,-163 329.7158,-163"/>
<polygon fill="#000000" stroke="#000000" points="329.7159,-166.5001 339.7158,-163 329.7158,-159.5001 329.7159,-166.5001"/>
</g>
<!-- BloquearPantallaModule -->
<g id="node7" class="node">
<title>BloquearPantallaModule</title>
<polygon fill="#8dd3c7" stroke="#000000" points="179.965,-122 176.965,-126 155.965,-126 152.965,-122 24.035,-122 24.035,-86 179.965,-86 179.965,-122"/>
<text text-anchor="middle" x="102" y="-99.8" font-family="Times,serif" font-size="14.00" fill="#000000">BloquearPantallaModule</text>
</g>
<!-- BloquearPantallaModule&#45;&gt;IndexAlmacenArticulosModule -->
<g id="edge6" class="edge">
<title>BloquearPantallaModule&#45;&gt;IndexAlmacenArticulosModule</title>
<path fill="none" stroke="#000000" d="M102,-122.2843C102,-143.3211 102,-175 102,-175 102,-175 329.6541,-175 329.6541,-175"/>
<polygon fill="#000000" stroke="#000000" points="329.6542,-178.5001 339.6541,-175 329.6541,-171.5001 329.6542,-178.5001"/>
</g>
</g>
</svg>
