<?xml version="1.0" encoding="UTF-8" standalone="no"?>
<!DOCTYPE svg PUBLIC "-//W3C//DTD SVG 1.1//EN"
 "http://www.w3.org/Graphics/SVG/1.1/DTD/svg11.dtd">
<!-- Generated by graphviz version 2.40.1 (20161225.0304)
 -->
<!-- Title: dependencies Pages: 1 -->
<svg width="1694pt" height="211pt"
 viewBox="0.00 0.00 1694.00 211.00" xmlns="http://www.w3.org/2000/svg" xmlns:xlink="http://www.w3.org/1999/xlink">
<g id="graph0" class="graph" transform="scale(1 1) rotate(0) translate(4 207)">
<title>dependencies</title>
<polygon fill="#ffffff" stroke="transparent" points="-4,4 -4,-207 1690,-207 1690,4 -4,4"/>
<text text-anchor="start" x="822.0091" y="-42.4" font-family="sans-serif" font-weight="bold" font-size="14.00" fill="#000000">Legend</text>
<polygon fill="#ffffb3" stroke="transparent" points="609,-10 609,-30 629,-30 629,-10 609,-10"/>
<text text-anchor="start" x="632.629" y="-15.4" font-family="sans-serif" font-size="14.00" fill="#000000"> &#160;Declarations</text>
<polygon fill="#8dd3c7" stroke="transparent" points="722,-10 722,-30 742,-30 742,-10 722,-10"/>
<text text-anchor="start" x="745.7251" y="-15.4" font-family="sans-serif" font-size="14.00" fill="#000000"> &#160;Module</text>
<polygon fill="#80b1d3" stroke="transparent" points="808,-10 808,-30 828,-30 828,-10 808,-10"/>
<text text-anchor="start" x="831.7812" y="-15.4" font-family="sans-serif" font-size="14.00" fill="#000000"> &#160;Bootstrap</text>
<polygon fill="#fdb462" stroke="transparent" points="905,-10 905,-30 925,-30 925,-10 905,-10"/>
<text text-anchor="start" x="928.6732" y="-15.4" font-family="sans-serif" font-size="14.00" fill="#000000"> &#160;Providers</text>
<polygon fill="#fb8072" stroke="transparent" points="1001,-10 1001,-30 1021,-30 1021,-10 1001,-10"/>
<text text-anchor="start" x="1024.7258" y="-15.4" font-family="sans-serif" font-size="14.00" fill="#000000"> &#160;Exports</text>
<g id="clust1" class="cluster">
<title>cluster_EgresoModule</title>
<polygon fill="none" stroke="#000000" stroke-dasharray="1,5" points="8,-70 8,-195 1678,-195 1678,-70 8,-70"/>
</g>
<g id="clust2" class="cluster">
<title>cluster_EgresoModule_declarations</title>
<polygon fill="none" stroke="#000000" points="1095,-78 1095,-130 1670,-130 1670,-78 1095,-78"/>
</g>
<g id="clust7" class="cluster">
<title>cluster_EgresoModule_imports</title>
<polygon fill="none" stroke="#000000" points="527,-78 527,-130 1087,-130 1087,-78 527,-78"/>
</g>
<g id="clust10" class="cluster">
<title>cluster_EgresoModule_providers</title>
<polygon fill="none" stroke="#000000" points="16,-78 16,-130 519,-130 519,-78 16,-78"/>
</g>
<!-- ListaComponent -->
<g id="node1" class="node">
<title>ListaComponent</title>
<polygon fill="#ffffb3" stroke="#000000" points="1661.8259,-122 1552.1741,-122 1552.1741,-86 1661.8259,-86 1661.8259,-122"/>
<text text-anchor="middle" x="1607" y="-99.8" font-family="Times,serif" font-size="14.00" fill="#000000">ListaComponent</text>
</g>
<!-- EgresoModule -->
<g id="node5" class="node">
<title>EgresoModule</title>
<polygon fill="#8dd3c7" stroke="#000000" points="920.4231,-187 917.4231,-191 896.4231,-191 893.4231,-187 821.5769,-187 821.5769,-151 920.4231,-151 920.4231,-187"/>
<text text-anchor="middle" x="871" y="-164.8" font-family="Times,serif" font-size="14.00" fill="#000000">EgresoModule</text>
</g>
<!-- ListaComponent&#45;&gt;EgresoModule -->
<g id="edge1" class="edge">
<title>ListaComponent&#45;&gt;EgresoModule</title>
<path fill="none" stroke="#000000" d="M1607,-122.0908C1607,-145.1328 1607,-182 1607,-182 1607,-182 930.4339,-182 930.4339,-182"/>
<polygon fill="#000000" stroke="#000000" points="930.4339,-178.5001 920.4339,-182 930.4338,-185.5001 930.4339,-178.5001"/>
</g>
<!-- EgresoComponent -->
<g id="node2" class="node">
<title>EgresoComponent</title>
<polygon fill="#ffffb3" stroke="#000000" points="1534.205,-122 1413.795,-122 1413.795,-86 1534.205,-86 1534.205,-122"/>
<text text-anchor="middle" x="1474" y="-99.8" font-family="Times,serif" font-size="14.00" fill="#000000">EgresoComponent</text>
</g>
<!-- EgresoComponent&#45;&gt;EgresoModule -->
<g id="edge2" class="edge">
<title>EgresoComponent&#45;&gt;EgresoModule</title>
<path fill="none" stroke="#000000" d="M1474,-122.2843C1474,-143.3211 1474,-175 1474,-175 1474,-175 930.346,-175 930.346,-175"/>
<polygon fill="#000000" stroke="#000000" points="930.3461,-171.5001 920.346,-175 930.346,-178.5001 930.3461,-171.5001"/>
</g>
<!-- IngresoComponent -->
<g id="node3" class="node">
<title>IngresoComponent</title>
<polygon fill="#ffffb3" stroke="#000000" points="1395.8132,-122 1272.1868,-122 1272.1868,-86 1395.8132,-86 1395.8132,-122"/>
<text text-anchor="middle" x="1334" y="-99.8" font-family="Times,serif" font-size="14.00" fill="#000000">IngresoComponent</text>
</g>
<!-- IngresoComponent&#45;&gt;EgresoModule -->
<g id="edge3" class="edge">
<title>IngresoComponent&#45;&gt;EgresoModule</title>
<path fill="none" stroke="#000000" d="M1334,-122.1061C1334,-141.3391 1334,-169 1334,-169 1334,-169 930.5491,-169 930.5491,-169"/>
<polygon fill="#000000" stroke="#000000" points="930.5491,-165.5001 920.5491,-169 930.5491,-172.5001 930.5491,-165.5001"/>
</g>
<!-- VerificacionComponent -->
<g id="node4" class="node">
<title>VerificacionComponent</title>
<polygon fill="#ffffb3" stroke="#000000" points="1254.7907,-122 1103.2093,-122 1103.2093,-86 1254.7907,-86 1254.7907,-122"/>
<text text-anchor="middle" x="1179" y="-99.8" font-family="Times,serif" font-size="14.00" fill="#000000">VerificacionComponent</text>
</g>
<!-- VerificacionComponent&#45;&gt;EgresoModule -->
<g id="edge4" class="edge">
<title>VerificacionComponent&#45;&gt;EgresoModule</title>
<path fill="none" stroke="#000000" d="M1179,-122.0225C1179,-139.3734 1179,-163 1179,-163 1179,-163 930.4855,-163 930.4855,-163"/>
<polygon fill="#000000" stroke="#000000" points="930.4856,-159.5001 920.4855,-163 930.4855,-166.5001 930.4856,-159.5001"/>
</g>
<!-- EgresoRoutingModule -->
<g id="node6" class="node">
<title>EgresoRoutingModule</title>
<polygon fill="#8dd3c7" stroke="#000000" points="1078.5407,-122 1075.5407,-126 1054.5407,-126 1051.5407,-122 935.4593,-122 935.4593,-86 1078.5407,-86 1078.5407,-122"/>
<text text-anchor="middle" x="1007" y="-99.8" font-family="Times,serif" font-size="14.00" fill="#000000">EgresoRoutingModule</text>
</g>
<!-- EgresoRoutingModule&#45;&gt;EgresoModule -->
<g id="edge5" class="edge">
<title>EgresoRoutingModule&#45;&gt;EgresoModule</title>
<path fill="none" stroke="#000000" d="M1007,-122.2396C1007,-137.5706 1007,-157 1007,-157 1007,-157 930.4838,-157 930.4838,-157"/>
<polygon fill="#000000" stroke="#000000" points="930.4839,-153.5001 920.4838,-157 930.4838,-160.5001 930.4839,-153.5001"/>
</g>
<!-- MenuModule -->
<g id="node7" class="node">
<title>MenuModule</title>
<polygon fill="#8dd3c7" stroke="#000000" points="917.2092,-122 914.2092,-126 893.2092,-126 890.2092,-122 824.7908,-122 824.7908,-86 917.2092,-86 917.2092,-122"/>
<text text-anchor="middle" x="871" y="-99.8" font-family="Times,serif" font-size="14.00" fill="#000000">MenuModule</text>
</g>
<!-- MenuModule&#45;&gt;EgresoModule -->
<g id="edge6" class="edge">
<title>MenuModule&#45;&gt;EgresoModule</title>
<path fill="none" stroke="#000000" d="M871,-122.1061C871,-122.1061 871,-140.991 871,-140.991"/>
<polygon fill="#000000" stroke="#000000" points="867.5001,-140.9909 871,-150.991 874.5001,-140.991 867.5001,-140.9909"/>
</g>
<!-- MenuLateralModule -->
<g id="node8" class="node">
<title>MenuLateralModule</title>
<polygon fill="#8dd3c7" stroke="#000000" points="806.8473,-122 803.8473,-126 782.8473,-126 779.8473,-122 675.1527,-122 675.1527,-86 806.8473,-86 806.8473,-122"/>
<text text-anchor="middle" x="741" y="-99.8" font-family="Times,serif" font-size="14.00" fill="#000000">MenuLateralModule</text>
</g>
<!-- MenuLateralModule&#45;&gt;EgresoModule -->
<g id="edge7" class="edge">
<title>MenuLateralModule&#45;&gt;EgresoModule</title>
<path fill="none" stroke="#000000" d="M741,-122.2396C741,-137.5706 741,-157 741,-157 741,-157 811.4817,-157 811.4817,-157"/>
<polygon fill="#000000" stroke="#000000" points="811.4818,-160.5001 821.4817,-157 811.4817,-153.5001 811.4818,-160.5001"/>
</g>
<!-- PaginacionModule -->
<g id="node9" class="node">
<title>PaginacionModule</title>
<polygon fill="#8dd3c7" stroke="#000000" points="656.7576,-122 653.7576,-126 632.7576,-126 629.7576,-122 535.2424,-122 535.2424,-86 656.7576,-86 656.7576,-122"/>
<text text-anchor="middle" x="596" y="-99.8" font-family="Times,serif" font-size="14.00" fill="#000000">PaginacionModule</text>
</g>
<!-- PaginacionModule&#45;&gt;EgresoModule -->
<g id="edge8" class="edge">
<title>PaginacionModule&#45;&gt;EgresoModule</title>
<path fill="none" stroke="#000000" d="M596,-122.0225C596,-139.3734 596,-163 596,-163 596,-163 811.5179,-163 811.5179,-163"/>
<polygon fill="#000000" stroke="#000000" points="811.5179,-166.5001 821.5179,-163 811.5179,-159.5001 811.5179,-166.5001"/>
</g>
<!-- AuthService -->
<g id="node10" class="node">
<title>AuthService</title>
<ellipse fill="#fdb462" stroke="#000000" cx="452" cy="-104" rx="59.1083" ry="18"/>
<text text-anchor="middle" x="452" y="-99.8" font-family="Times,serif" font-size="14.00" fill="#000000">AuthService</text>
</g>
<!-- AuthService&#45;&gt;EgresoModule -->
<g id="edge9" class="edge">
<title>AuthService&#45;&gt;EgresoModule</title>
<path fill="none" stroke="#000000" d="M452,-122.1061C452,-141.3391 452,-169 452,-169 452,-169 811.7033,-169 811.7033,-169"/>
<polygon fill="#000000" stroke="#000000" points="811.7033,-172.5001 821.7033,-169 811.7032,-165.5001 811.7033,-172.5001"/>
</g>
<!-- PacienteEgresoService -->
<g id="node11" class="node">
<title>PacienteEgresoService</title>
<ellipse fill="#fdb462" stroke="#000000" cx="275" cy="-104" rx="99.5327" ry="18"/>
<text text-anchor="middle" x="275" y="-99.8" font-family="Times,serif" font-size="14.00" fill="#000000">PacienteEgresoService</text>
</g>
<!-- PacienteEgresoService&#45;&gt;EgresoModule -->
<g id="edge10" class="edge">
<title>PacienteEgresoService&#45;&gt;EgresoModule</title>
<path fill="none" stroke="#000000" d="M275,-122.2843C275,-143.3211 275,-175 275,-175 275,-175 811.7198,-175 811.7198,-175"/>
<polygon fill="#000000" stroke="#000000" points="811.7198,-178.5001 821.7198,-175 811.7197,-171.5001 811.7198,-178.5001"/>
</g>
<!-- EgresoService -->
<g id="node12" class="node">
<title>EgresoService</title>
<ellipse fill="#fdb462" stroke="#000000" cx="91" cy="-104" rx="66.6113" ry="18"/>
<text text-anchor="middle" x="91" y="-99.8" font-family="Times,serif" font-size="14.00" fill="#000000">EgresoService</text>
</g>
<!-- EgresoService&#45;&gt;EgresoModule -->
<g id="edge11" class="edge">
<title>EgresoService&#45;&gt;EgresoModule</title>
<path fill="none" stroke="#000000" d="M91,-122.0908C91,-145.1328 91,-182 91,-182 91,-182 811.6158,-182 811.6158,-182"/>
<polygon fill="#000000" stroke="#000000" points="811.6158,-185.5001 821.6158,-182 811.6157,-178.5001 811.6158,-185.5001"/>
</g>
</g>
</svg>
