<?xml version="1.0" encoding="UTF-8" standalone="no"?>
<!DOCTYPE svg PUBLIC "-//W3C//DTD SVG 1.1//EN"
 "http://www.w3.org/Graphics/SVG/1.1/DTD/svg11.dtd">
<!-- Generated by graphviz version 2.40.1 (20161225.0304)
 -->
<!-- Title: dependencies Pages: 1 -->
<svg width="1466pt" height="211pt"
 viewBox="0.00 0.00 1466.00 211.00" xmlns="http://www.w3.org/2000/svg" xmlns:xlink="http://www.w3.org/1999/xlink">
<g id="graph0" class="graph" transform="scale(1 1) rotate(0) translate(4 207)">
<title>dependencies</title>
<polygon fill="#ffffff" stroke="transparent" points="-4,4 -4,-207 1462,-207 1462,4 -4,4"/>
<text text-anchor="start" x="708.0091" y="-42.4" font-family="sans-serif" font-weight="bold" font-size="14.00" fill="#000000">Legend</text>
<polygon fill="#ffffb3" stroke="transparent" points="495,-10 495,-30 515,-30 515,-10 495,-10"/>
<text text-anchor="start" x="518.629" y="-15.4" font-family="sans-serif" font-size="14.00" fill="#000000"> &#160;Declarations</text>
<polygon fill="#8dd3c7" stroke="transparent" points="608,-10 608,-30 628,-30 628,-10 608,-10"/>
<text text-anchor="start" x="631.7251" y="-15.4" font-family="sans-serif" font-size="14.00" fill="#000000"> &#160;Module</text>
<polygon fill="#80b1d3" stroke="transparent" points="694,-10 694,-30 714,-30 714,-10 694,-10"/>
<text text-anchor="start" x="717.7812" y="-15.4" font-family="sans-serif" font-size="14.00" fill="#000000"> &#160;Bootstrap</text>
<polygon fill="#fdb462" stroke="transparent" points="791,-10 791,-30 811,-30 811,-10 791,-10"/>
<text text-anchor="start" x="814.6732" y="-15.4" font-family="sans-serif" font-size="14.00" fill="#000000"> &#160;Providers</text>
<polygon fill="#fb8072" stroke="transparent" points="887,-10 887,-30 907,-30 907,-10 887,-10"/>
<text text-anchor="start" x="910.7258" y="-15.4" font-family="sans-serif" font-size="14.00" fill="#000000"> &#160;Exports</text>
<g id="clust1" class="cluster">
<title>cluster_PacienteModule</title>
<polygon fill="none" stroke="#000000" stroke-dasharray="1,5" points="8,-70 8,-195 1450,-195 1450,-70 8,-70"/>
</g>
<g id="clust2" class="cluster">
<title>cluster_PacienteModule_declarations</title>
<polygon fill="none" stroke="#000000" points="898,-78 898,-130 1442,-130 1442,-78 898,-78"/>
</g>
<g id="clust7" class="cluster">
<title>cluster_PacienteModule_imports</title>
<polygon fill="none" stroke="#000000" points="322,-78 322,-130 890,-130 890,-78 322,-78"/>
</g>
<g id="clust10" class="cluster">
<title>cluster_PacienteModule_providers</title>
<polygon fill="none" stroke="#000000" points="16,-78 16,-130 314,-130 314,-78 16,-78"/>
</g>
<!-- ListaComponent -->
<g id="node1" class="node">
<title>ListaComponent</title>
<polygon fill="#ffffb3" stroke="#000000" points="1433.8259,-122 1324.1741,-122 1324.1741,-86 1433.8259,-86 1433.8259,-122"/>
<text text-anchor="middle" x="1379" y="-99.8" font-family="Times,serif" font-size="14.00" fill="#000000">ListaComponent</text>
</g>
<!-- PacienteModule -->
<g id="node5" class="node">
<title>PacienteModule</title>
<polygon fill="#8dd3c7" stroke="#000000" points="781.472,-187 778.472,-191 757.472,-191 754.472,-187 674.528,-187 674.528,-151 781.472,-151 781.472,-187"/>
<text text-anchor="middle" x="728" y="-164.8" font-family="Times,serif" font-size="14.00" fill="#000000">PacienteModule</text>
</g>
<!-- ListaComponent&#45;&gt;PacienteModule -->
<g id="edge1" class="edge">
<title>ListaComponent&#45;&gt;PacienteModule</title>
<path fill="none" stroke="#000000" d="M1379,-122.0109C1379,-144.4852 1379,-180 1379,-180 1379,-180 791.5507,-180 791.5507,-180"/>
<polygon fill="#000000" stroke="#000000" points="791.5507,-176.5001 781.5507,-180 791.5507,-183.5001 791.5507,-176.5001"/>
</g>
<!-- NuevoComponent -->
<g id="node2" class="node">
<title>NuevoComponent</title>
<polygon fill="#ffffb3" stroke="#000000" points="1306.1541,-122 1187.8459,-122 1187.8459,-86 1306.1541,-86 1306.1541,-122"/>
<text text-anchor="middle" x="1247" y="-99.8" font-family="Times,serif" font-size="14.00" fill="#000000">NuevoComponent</text>
</g>
<!-- NuevoComponent&#45;&gt;PacienteModule -->
<g id="edge2" class="edge">
<title>NuevoComponent&#45;&gt;PacienteModule</title>
<path fill="none" stroke="#000000" d="M1247,-122.1289C1247,-142.5724 1247,-173 1247,-173 1247,-173 791.5873,-173 791.5873,-173"/>
<polygon fill="#000000" stroke="#000000" points="791.5874,-169.5001 781.5873,-173 791.5873,-176.5001 791.5874,-169.5001"/>
</g>
<!-- EditarComponent -->
<g id="node3" class="node">
<title>EditarComponent</title>
<polygon fill="#ffffb3" stroke="#000000" points="1169.5423,-122 1054.4577,-122 1054.4577,-86 1169.5423,-86 1169.5423,-122"/>
<text text-anchor="middle" x="1112" y="-99.8" font-family="Times,serif" font-size="14.00" fill="#000000">EditarComponent</text>
</g>
<!-- EditarComponent&#45;&gt;PacienteModule -->
<g id="edge3" class="edge">
<title>EditarComponent&#45;&gt;PacienteModule</title>
<path fill="none" stroke="#000000" d="M1112,-122.2667C1112,-140.5552 1112,-166 1112,-166 1112,-166 791.7979,-166 791.7979,-166"/>
<polygon fill="#000000" stroke="#000000" points="791.7979,-162.5001 781.7979,-166 791.7979,-169.5001 791.7979,-162.5001"/>
</g>
<!-- HistorialComponent -->
<g id="node4" class="node">
<title>HistorialComponent</title>
<polygon fill="#ffffb3" stroke="#000000" points="1036.3216,-122 905.6784,-122 905.6784,-86 1036.3216,-86 1036.3216,-122"/>
<text text-anchor="middle" x="971" y="-99.8" font-family="Times,serif" font-size="14.00" fill="#000000">HistorialComponent</text>
</g>
<!-- HistorialComponent&#45;&gt;PacienteModule -->
<g id="edge4" class="edge">
<title>HistorialComponent&#45;&gt;PacienteModule</title>
<path fill="none" stroke="#000000" d="M971,-122.0091C971,-138.0494 971,-159 971,-159 971,-159 791.6282,-159 791.6282,-159"/>
<polygon fill="#000000" stroke="#000000" points="791.6282,-155.5001 781.6282,-159 791.6282,-162.5001 791.6282,-155.5001"/>
</g>
<!-- PacienteRoutingModule -->
<g id="node6" class="node">
<title>PacienteRoutingModule</title>
<polygon fill="#8dd3c7" stroke="#000000" points="882.0898,-122 879.0898,-126 858.0898,-126 855.0898,-122 729.9102,-122 729.9102,-86 882.0898,-86 882.0898,-122"/>
<text text-anchor="middle" x="806" y="-99.8" font-family="Times,serif" font-size="14.00" fill="#000000">PacienteRoutingModule</text>
</g>
<!-- PacienteRoutingModule&#45;&gt;PacienteModule -->
<g id="edge5" class="edge">
<title>PacienteRoutingModule&#45;&gt;PacienteModule</title>
<path fill="none" stroke="#000000" d="M755.7206,-122.1061C755.7206,-122.1061 755.7206,-140.991 755.7206,-140.991"/>
<polygon fill="#000000" stroke="#000000" points="752.2206,-140.9909 755.7206,-150.991 759.2206,-140.991 752.2206,-140.9909"/>
</g>
<!-- PaginacionModule -->
<g id="node7" class="node">
<title>PaginacionModule</title>
<polygon fill="#8dd3c7" stroke="#000000" points="711.7576,-122 708.7576,-126 687.7576,-126 684.7576,-122 590.2424,-122 590.2424,-86 711.7576,-86 711.7576,-122"/>
<text text-anchor="middle" x="651" y="-99.8" font-family="Times,serif" font-size="14.00" fill="#000000">PaginacionModule</text>
</g>
<!-- PaginacionModule&#45;&gt;PacienteModule -->
<g id="edge6" class="edge">
<title>PaginacionModule&#45;&gt;PacienteModule</title>
<path fill="none" stroke="#000000" d="M693.1963,-122.1061C693.1963,-122.1061 693.1963,-140.991 693.1963,-140.991"/>
<polygon fill="#000000" stroke="#000000" points="689.6964,-140.9909 693.1963,-150.991 696.6964,-140.991 689.6964,-140.9909"/>
</g>
<!-- MenuModule -->
<g id="node8" class="node">
<title>MenuModule</title>
<polygon fill="#8dd3c7" stroke="#000000" points="572.2092,-122 569.2092,-126 548.2092,-126 545.2092,-122 479.7908,-122 479.7908,-86 572.2092,-86 572.2092,-122"/>
<text text-anchor="middle" x="526" y="-99.8" font-family="Times,serif" font-size="14.00" fill="#000000">MenuModule</text>
</g>
<!-- MenuModule&#45;&gt;PacienteModule -->
<g id="edge7" class="edge">
<title>MenuModule&#45;&gt;PacienteModule</title>
<path fill="none" stroke="#000000" d="M526,-122.0091C526,-138.0494 526,-159 526,-159 526,-159 664.398,-159 664.398,-159"/>
<polygon fill="#000000" stroke="#000000" points="664.3981,-162.5001 674.398,-159 664.398,-155.5001 664.3981,-162.5001"/>
</g>
<!-- MenuLateralModule -->
<g id="node9" class="node">
<title>MenuLateralModule</title>
<polygon fill="#8dd3c7" stroke="#000000" points="461.8473,-122 458.8473,-126 437.8473,-126 434.8473,-122 330.1527,-122 330.1527,-86 461.8473,-86 461.8473,-122"/>
<text text-anchor="middle" x="396" y="-99.8" font-family="Times,serif" font-size="14.00" fill="#000000">MenuLateralModule</text>
</g>
<!-- MenuLateralModule&#45;&gt;PacienteModule -->
<g id="edge8" class="edge">
<title>MenuLateralModule&#45;&gt;PacienteModule</title>
<path fill="none" stroke="#000000" d="M396,-122.2667C396,-140.5552 396,-166 396,-166 396,-166 664.2895,-166 664.2895,-166"/>
<polygon fill="#000000" stroke="#000000" points="664.2895,-169.5001 674.2895,-166 664.2894,-162.5001 664.2895,-169.5001"/>
</g>
<!-- AuthService -->
<g id="node10" class="node">
<title>AuthService</title>
<ellipse fill="#fdb462" stroke="#000000" cx="247" cy="-104" rx="59.1083" ry="18"/>
<text text-anchor="middle" x="247" y="-99.8" font-family="Times,serif" font-size="14.00" fill="#000000">AuthService</text>
</g>
<!-- AuthService&#45;&gt;PacienteModule -->
<g id="edge9" class="edge">
<title>AuthService&#45;&gt;PacienteModule</title>
<path fill="none" stroke="#000000" d="M247,-122.1289C247,-142.5724 247,-173 247,-173 247,-173 664.2233,-173 664.2233,-173"/>
<polygon fill="#000000" stroke="#000000" points="664.2233,-176.5001 674.2233,-173 664.2233,-169.5001 664.2233,-176.5001"/>
</g>
<!-- PacienteService -->
<g id="node11" class="node">
<title>PacienteService</title>
<ellipse fill="#fdb462" stroke="#000000" cx="97" cy="-104" rx="72.9063" ry="18"/>
<text text-anchor="middle" x="97" y="-99.8" font-family="Times,serif" font-size="14.00" fill="#000000">PacienteService</text>
</g>
<!-- PacienteService&#45;&gt;PacienteModule -->
<g id="edge10" class="edge">
<title>PacienteService&#45;&gt;PacienteModule</title>
<path fill="none" stroke="#000000" d="M97,-122.0109C97,-144.4852 97,-180 97,-180 97,-180 664.4735,-180 664.4735,-180"/>
<polygon fill="#000000" stroke="#000000" points="664.4735,-183.5001 674.4735,-180 664.4735,-176.5001 664.4735,-183.5001"/>
</g>
</g>
</svg>
