<?xml version="1.0" encoding="UTF-8" standalone="no"?>
<!DOCTYPE svg PUBLIC "-//W3C//DTD SVG 1.1//EN"
 "http://www.w3.org/Graphics/SVG/1.1/DTD/svg11.dtd">
<!-- Generated by graphviz version 2.40.1 (20161225.0304)
 -->
<!-- Title: dependencies Pages: 1 -->
<svg width="2057pt" height="211pt"
 viewBox="0.00 0.00 2057.00 211.00" xmlns="http://www.w3.org/2000/svg" xmlns:xlink="http://www.w3.org/1999/xlink">
<g id="graph0" class="graph" transform="scale(1 1) rotate(0) translate(4 207)">
<title>dependencies</title>
<polygon fill="#ffffff" stroke="transparent" points="-4,4 -4,-207 2053,-207 2053,4 -4,4"/>
<text text-anchor="start" x="1003.5091" y="-42.4" font-family="sans-serif" font-weight="bold" font-size="14.00" fill="#000000">Legend</text>
<polygon fill="#ffffb3" stroke="transparent" points="790.5,-10 790.5,-30 810.5,-30 810.5,-10 790.5,-10"/>
<text text-anchor="start" x="814.129" y="-15.4" font-family="sans-serif" font-size="14.00" fill="#000000"> &#160;Declarations</text>
<polygon fill="#8dd3c7" stroke="transparent" points="903.5,-10 903.5,-30 923.5,-30 923.5,-10 903.5,-10"/>
<text text-anchor="start" x="927.2251" y="-15.4" font-family="sans-serif" font-size="14.00" fill="#000000"> &#160;Module</text>
<polygon fill="#80b1d3" stroke="transparent" points="989.5,-10 989.5,-30 1009.5,-30 1009.5,-10 989.5,-10"/>
<text text-anchor="start" x="1013.2812" y="-15.4" font-family="sans-serif" font-size="14.00" fill="#000000"> &#160;Bootstrap</text>
<polygon fill="#fdb462" stroke="transparent" points="1086.5,-10 1086.5,-30 1106.5,-30 1106.5,-10 1086.5,-10"/>
<text text-anchor="start" x="1110.1732" y="-15.4" font-family="sans-serif" font-size="14.00" fill="#000000"> &#160;Providers</text>
<polygon fill="#fb8072" stroke="transparent" points="1182.5,-10 1182.5,-30 1202.5,-30 1202.5,-10 1182.5,-10"/>
<text text-anchor="start" x="1206.2258" y="-15.4" font-family="sans-serif" font-size="14.00" fill="#000000"> &#160;Exports</text>
<g id="clust1" class="cluster">
<title>cluster_UnidadesMedicasModule</title>
<polygon fill="none" stroke="#000000" stroke-dasharray="1,5" points="8,-70 8,-195 2041,-195 2041,-70 8,-70"/>
</g>
<g id="clust2" class="cluster">
<title>cluster_UnidadesMedicasModule_declarations</title>
<polygon fill="none" stroke="#000000" points="1745,-78 1745,-130 2033,-130 2033,-78 1745,-78"/>
</g>
<g id="clust5" class="cluster">
<title>cluster_UnidadesMedicasModule_imports</title>
<polygon fill="none" stroke="#000000" points="295,-78 295,-130 1737,-130 1737,-78 295,-78"/>
</g>
<g id="clust8" class="cluster">
<title>cluster_UnidadesMedicasModule_providers</title>
<polygon fill="none" stroke="#000000" points="16,-78 16,-130 287,-130 287,-78 16,-78"/>
</g>
<!-- ListaComponent -->
<g id="node1" class="node">
<title>ListaComponent</title>
<polygon fill="#ffffb3" stroke="#000000" points="2024.8259,-122 1915.1741,-122 1915.1741,-86 2024.8259,-86 2024.8259,-122"/>
<text text-anchor="middle" x="1970" y="-99.8" font-family="Times,serif" font-size="14.00" fill="#000000">ListaComponent</text>
</g>
<!-- UnidadesMedicasModule -->
<g id="node3" class="node">
<title>UnidadesMedicasModule</title>
<polygon fill="#8dd3c7" stroke="#000000" points="1070.8445,-187 1067.8445,-191 1046.8445,-191 1043.8445,-187 911.1555,-187 911.1555,-151 1070.8445,-151 1070.8445,-187"/>
<text text-anchor="middle" x="991" y="-164.8" font-family="Times,serif" font-size="14.00" fill="#000000">UnidadesMedicasModule</text>
</g>
<!-- ListaComponent&#45;&gt;UnidadesMedicasModule -->
<g id="edge1" class="edge">
<title>ListaComponent&#45;&gt;UnidadesMedicasModule</title>
<path fill="none" stroke="#000000" d="M1970,-122.0908C1970,-145.1328 1970,-182 1970,-182 1970,-182 1081.1157,-182 1081.1157,-182"/>
<polygon fill="#000000" stroke="#000000" points="1081.1157,-178.5001 1071.1157,-182 1081.1156,-185.5001 1081.1157,-178.5001"/>
</g>
<!-- FormularioComponent -->
<g id="node2" class="node">
<title>FormularioComponent</title>
<polygon fill="#ffffb3" stroke="#000000" points="1897.323,-122 1752.677,-122 1752.677,-86 1897.323,-86 1897.323,-122"/>
<text text-anchor="middle" x="1825" y="-99.8" font-family="Times,serif" font-size="14.00" fill="#000000">FormularioComponent</text>
</g>
<!-- FormularioComponent&#45;&gt;UnidadesMedicasModule -->
<g id="edge2" class="edge">
<title>FormularioComponent&#45;&gt;UnidadesMedicasModule</title>
<path fill="none" stroke="#000000" d="M1825,-122.0449C1825,-143.6623 1825,-177 1825,-177 1825,-177 1080.9674,-177 1080.9674,-177"/>
<polygon fill="#000000" stroke="#000000" points="1080.9675,-173.5001 1070.9674,-177 1080.9674,-180.5001 1080.9675,-173.5001"/>
</g>
<!-- UnidadesMedicasRoutingModule -->
<g id="node4" class="node">
<title>UnidadesMedicasRoutingModule</title>
<polygon fill="#8dd3c7" stroke="#000000" points="1729.4622,-122 1726.4622,-126 1705.4622,-126 1702.4622,-122 1524.5378,-122 1524.5378,-86 1729.4622,-86 1729.4622,-122"/>
<text text-anchor="middle" x="1627" y="-99.8" font-family="Times,serif" font-size="14.00" fill="#000000">UnidadesMedicasRoutingModule</text>
</g>
<!-- UnidadesMedicasRoutingModule&#45;&gt;UnidadesMedicasModule -->
<g id="edge3" class="edge">
<title>UnidadesMedicasRoutingModule&#45;&gt;UnidadesMedicasModule</title>
<path fill="none" stroke="#000000" d="M1627,-122.2228C1627,-142.3652 1627,-172 1627,-172 1627,-172 1080.9059,-172 1080.9059,-172"/>
<polygon fill="#000000" stroke="#000000" points="1080.9059,-168.5001 1070.9059,-172 1080.9058,-175.5001 1080.9059,-168.5001"/>
</g>
<!-- HubModule -->
<g id="node5" class="node">
<title>HubModule</title>
<polygon fill="#8dd3c7" stroke="#000000" points="1506.6571,-122 1503.6571,-126 1482.6571,-126 1479.6571,-122 1423.3429,-122 1423.3429,-86 1506.6571,-86 1506.6571,-122"/>
<text text-anchor="middle" x="1465" y="-99.8" font-family="Times,serif" font-size="14.00" fill="#000000">HubModule</text>
</g>
<!-- HubModule&#45;&gt;UnidadesMedicasModule -->
<g id="edge4" class="edge">
<title>HubModule&#45;&gt;UnidadesMedicasModule</title>
<path fill="none" stroke="#000000" d="M1465,-122.2222C1465,-140.8285 1465,-167 1465,-167 1465,-167 1080.8716,-167 1080.8716,-167"/>
<polygon fill="#000000" stroke="#000000" points="1080.8717,-163.5001 1070.8716,-167 1080.8716,-170.5001 1080.8717,-163.5001"/>
</g>
<!-- PerfilModule -->
<g id="node6" class="node">
<title>PerfilModule</title>
<polygon fill="#8dd3c7" stroke="#000000" points="1405.1501,-122 1402.1501,-126 1381.1501,-126 1378.1501,-122 1314.8499,-122 1314.8499,-86 1405.1501,-86 1405.1501,-122"/>
<text text-anchor="middle" x="1360" y="-99.8" font-family="Times,serif" font-size="14.00" fill="#000000">PerfilModule</text>
</g>
<!-- PerfilModule&#45;&gt;UnidadesMedicasModule -->
<g id="edge5" class="edge">
<title>PerfilModule&#45;&gt;UnidadesMedicasModule</title>
<path fill="none" stroke="#000000" d="M1360,-122.0336C1360,-139.0597 1360,-162 1360,-162 1360,-162 1081.0675,-162 1081.0675,-162"/>
<polygon fill="#000000" stroke="#000000" points="1081.0675,-158.5001 1071.0675,-162 1081.0675,-165.5001 1081.0675,-158.5001"/>
</g>
<!-- BloquearPantallaModule -->
<g id="node7" class="node">
<title>BloquearPantallaModule</title>
<polygon fill="#8dd3c7" stroke="#000000" points="1296.965,-122 1293.965,-126 1272.965,-126 1269.965,-122 1141.035,-122 1141.035,-86 1296.965,-86 1296.965,-122"/>
<text text-anchor="middle" x="1219" y="-99.8" font-family="Times,serif" font-size="14.00" fill="#000000">BloquearPantallaModule</text>
</g>
<!-- BloquearPantallaModule&#45;&gt;UnidadesMedicasModule -->
<g id="edge6" class="edge">
<title>BloquearPantallaModule&#45;&gt;UnidadesMedicasModule</title>
<path fill="none" stroke="#000000" d="M1219,-122.2396C1219,-137.5706 1219,-157 1219,-157 1219,-157 1081.0637,-157 1081.0637,-157"/>
<polygon fill="#000000" stroke="#000000" points="1081.0637,-153.5001 1071.0637,-157 1081.0636,-160.5001 1081.0637,-153.5001"/>
</g>
<!-- PaginacionModule -->
<g id="node8" class="node">
<title>PaginacionModule</title>
<polygon fill="#8dd3c7" stroke="#000000" points="1122.7576,-122 1119.7576,-126 1098.7576,-126 1095.7576,-122 1001.2424,-122 1001.2424,-86 1122.7576,-86 1122.7576,-122"/>
<text text-anchor="middle" x="1062" y="-99.8" font-family="Times,serif" font-size="14.00" fill="#000000">PaginacionModule</text>
</g>
<!-- PaginacionModule&#45;&gt;UnidadesMedicasModule -->
<g id="edge7" class="edge">
<title>PaginacionModule&#45;&gt;UnidadesMedicasModule</title>
<path fill="none" stroke="#000000" d="M1036.0217,-122.1061C1036.0217,-122.1061 1036.0217,-140.991 1036.0217,-140.991"/>
<polygon fill="#000000" stroke="#000000" points="1032.5218,-140.9909 1036.0217,-150.991 1039.5218,-140.991 1032.5218,-140.9909"/>
</g>
<!-- MenuPanelModule -->
<g id="node9" class="node">
<title>MenuPanelModule</title>
<polygon fill="#8dd3c7" stroke="#000000" points="982.8118,-122 979.8118,-126 958.8118,-126 955.8118,-122 859.1882,-122 859.1882,-86 982.8118,-86 982.8118,-122"/>
<text text-anchor="middle" x="921" y="-99.8" font-family="Times,serif" font-size="14.00" fill="#000000">MenuPanelModule</text>
</g>
<!-- MenuPanelModule&#45;&gt;UnidadesMedicasModule -->
<g id="edge8" class="edge">
<title>MenuPanelModule&#45;&gt;UnidadesMedicasModule</title>
<path fill="none" stroke="#000000" d="M946.8668,-122.1061C946.8668,-122.1061 946.8668,-140.991 946.8668,-140.991"/>
<polygon fill="#000000" stroke="#000000" points="943.3668,-140.9909 946.8668,-150.991 950.3668,-140.991 943.3668,-140.9909"/>
</g>
<!-- MenuAsidePanelModule -->
<g id="node10" class="node">
<title>MenuAsidePanelModule</title>
<polygon fill="#8dd3c7" stroke="#000000" points="840.9678,-122 837.9678,-126 816.9678,-126 813.9678,-122 685.0322,-122 685.0322,-86 840.9678,-86 840.9678,-122"/>
<text text-anchor="middle" x="763" y="-99.8" font-family="Times,serif" font-size="14.00" fill="#000000">MenuAsidePanelModule</text>
</g>
<!-- MenuAsidePanelModule&#45;&gt;UnidadesMedicasModule -->
<g id="edge9" class="edge">
<title>MenuAsidePanelModule&#45;&gt;UnidadesMedicasModule</title>
<path fill="none" stroke="#000000" d="M763,-122.2396C763,-137.5706 763,-157 763,-157 763,-157 900.9363,-157 900.9363,-157"/>
<polygon fill="#000000" stroke="#000000" points="900.9364,-160.5001 910.9363,-157 900.9363,-153.5001 900.9364,-160.5001"/>
</g>
<!-- CrudModule -->
<g id="node11" class="node">
<title>CrudModule</title>
<polygon fill="#8dd3c7" stroke="#000000" points="666.5482,-122 663.5482,-126 642.5482,-126 639.5482,-122 579.4518,-122 579.4518,-86 666.5482,-86 666.5482,-122"/>
<text text-anchor="middle" x="623" y="-99.8" font-family="Times,serif" font-size="14.00" fill="#000000">CrudModule</text>
</g>
<!-- CrudModule&#45;&gt;UnidadesMedicasModule -->
<g id="edge10" class="edge">
<title>CrudModule&#45;&gt;UnidadesMedicasModule</title>
<path fill="none" stroke="#000000" d="M623,-122.0336C623,-139.0597 623,-162 623,-162 623,-162 901.1495,-162 901.1495,-162"/>
<polygon fill="#000000" stroke="#000000" points="901.1495,-165.5001 911.1495,-162 901.1494,-158.5001 901.1495,-165.5001"/>
</g>
<!-- IndexCatalogoModule -->
<g id="node12" class="node">
<title>IndexCatalogoModule</title>
<polygon fill="#8dd3c7" stroke="#000000" points="560.972,-122 557.972,-126 536.972,-126 533.972,-122 419.028,-122 419.028,-86 560.972,-86 560.972,-122"/>
<text text-anchor="middle" x="490" y="-99.8" font-family="Times,serif" font-size="14.00" fill="#000000">IndexCatalogoModule</text>
</g>
<!-- IndexCatalogoModule&#45;&gt;UnidadesMedicasModule -->
<g id="edge11" class="edge">
<title>IndexCatalogoModule&#45;&gt;UnidadesMedicasModule</title>
<path fill="none" stroke="#000000" d="M490,-122.2222C490,-140.8285 490,-167 490,-167 490,-167 901.0611,-167 901.0611,-167"/>
<polygon fill="#000000" stroke="#000000" points="901.0611,-170.5001 911.0611,-167 901.061,-163.5001 901.0611,-170.5001"/>
</g>
<!-- ParcialModule -->
<g id="node13" class="node">
<title>ParcialModule</title>
<polygon fill="#8dd3c7" stroke="#000000" points="401.4189,-122 398.4189,-126 377.4189,-126 374.4189,-122 302.5811,-122 302.5811,-86 401.4189,-86 401.4189,-122"/>
<text text-anchor="middle" x="352" y="-99.8" font-family="Times,serif" font-size="14.00" fill="#000000">ParcialModule</text>
</g>
<!-- ParcialModule&#45;&gt;UnidadesMedicasModule -->
<g id="edge12" class="edge">
<title>ParcialModule&#45;&gt;UnidadesMedicasModule</title>
<path fill="none" stroke="#000000" d="M352,-122.2228C352,-142.3652 352,-172 352,-172 352,-172 901.04,-172 901.04,-172"/>
<polygon fill="#000000" stroke="#000000" points="901.04,-175.5001 911.04,-172 901.0399,-168.5001 901.04,-175.5001"/>
</g>
<!-- AuthService -->
<g id="node14" class="node">
<title>AuthService</title>
<ellipse fill="#fdb462" stroke="#000000" cx="220" cy="-104" rx="59.1083" ry="18"/>
<text text-anchor="middle" x="220" y="-99.8" font-family="Times,serif" font-size="14.00" fill="#000000">AuthService</text>
</g>
<!-- AuthService&#45;&gt;UnidadesMedicasModule -->
<g id="edge13" class="edge">
<title>AuthService&#45;&gt;UnidadesMedicasModule</title>
<path fill="none" stroke="#000000" d="M220,-122.0449C220,-143.6623 220,-177 220,-177 220,-177 901.0327,-177 901.0327,-177"/>
<polygon fill="#000000" stroke="#000000" points="901.0328,-180.5001 911.0327,-177 901.0327,-173.5001 901.0328,-180.5001"/>
</g>
<!-- CrudService -->
<g id="node15" class="node">
<title>CrudService</title>
<ellipse fill="#fdb462" stroke="#000000" cx="83" cy="-104" rx="59.1083" ry="18"/>
<text text-anchor="middle" x="83" y="-99.8" font-family="Times,serif" font-size="14.00" fill="#000000">CrudService</text>
</g>
<!-- CrudService&#45;&gt;UnidadesMedicasModule -->
<g id="edge14" class="edge">
<title>CrudService&#45;&gt;UnidadesMedicasModule</title>
<path fill="none" stroke="#000000" d="M83,-122.0908C83,-145.1328 83,-182 83,-182 83,-182 900.8194,-182 900.8194,-182"/>
<polygon fill="#000000" stroke="#000000" points="900.8194,-185.5001 910.8194,-182 900.8193,-178.5001 900.8194,-185.5001"/>
</g>
</g>
</svg>
