<?xml version="1.0" encoding="UTF-8" standalone="no"?>
<!DOCTYPE svg PUBLIC "-//W3C//DTD SVG 1.1//EN"
 "http://www.w3.org/Graphics/SVG/1.1/DTD/svg11.dtd">
<!-- Generated by graphviz version 2.40.1 (20161225.0304)
 -->
<!-- Title: dependencies Pages: 1 -->
<svg width="504pt" height="284pt"
 viewBox="0.00 0.00 504.00 284.00" xmlns="http://www.w3.org/2000/svg" xmlns:xlink="http://www.w3.org/1999/xlink">
<g id="graph0" class="graph" transform="scale(1 1) rotate(0) translate(4 280)">
<title>dependencies</title>
<polygon fill="#ffffff" stroke="transparent" points="-4,4 -4,-280 500,-280 500,4 -4,4"/>
<text text-anchor="start" x="227.0091" y="-42.4" font-family="sans-serif" font-weight="bold" font-size="14.00" fill="#000000">Legend</text>
<polygon fill="#ffffb3" stroke="transparent" points="14,-10 14,-30 34,-30 34,-10 14,-10"/>
<text text-anchor="start" x="37.629" y="-15.4" font-family="sans-serif" font-size="14.00" fill="#000000"> &#160;Declarations</text>
<polygon fill="#8dd3c7" stroke="transparent" points="127,-10 127,-30 147,-30 147,-10 127,-10"/>
<text text-anchor="start" x="150.7251" y="-15.4" font-family="sans-serif" font-size="14.00" fill="#000000"> &#160;Module</text>
<polygon fill="#80b1d3" stroke="transparent" points="213,-10 213,-30 233,-30 233,-10 213,-10"/>
<text text-anchor="start" x="236.7812" y="-15.4" font-family="sans-serif" font-size="14.00" fill="#000000"> &#160;Bootstrap</text>
<polygon fill="#fdb462" stroke="transparent" points="310,-10 310,-30 330,-30 330,-10 310,-10"/>
<text text-anchor="start" x="333.6732" y="-15.4" font-family="sans-serif" font-size="14.00" fill="#000000"> &#160;Providers</text>
<polygon fill="#fb8072" stroke="transparent" points="406,-10 406,-30 426,-30 426,-10 406,-10"/>
<text text-anchor="start" x="429.7258" y="-15.4" font-family="sans-serif" font-size="14.00" fill="#000000"> &#160;Exports</text>
<g id="clust1" class="cluster">
<title>cluster_PipesModule</title>
<polygon fill="none" stroke="#000000" stroke-dasharray="1,5" points="69.5,-70 69.5,-268 426.5,-268 426.5,-70 69.5,-70"/>
</g>
<g id="clust2" class="cluster">
<title>cluster_PipesModule_declarations</title>
<polygon fill="none" stroke="#000000" points="77.5,-78 77.5,-130 418.5,-130 418.5,-78 77.5,-78"/>
</g>
<g id="clust7" class="cluster">
<title>cluster_PipesModule_exports</title>
<polygon fill="none" stroke="#000000" points="119.5,-208 119.5,-260 377.5,-260 377.5,-208 119.5,-208"/>
</g>
<!-- BuscarModuloPipe -->
<g id="node1" class="node">
<title>BuscarModuloPipe</title>
<polygon fill="#ffffb3" stroke="#000000" points="410.594,-122 286.406,-122 286.406,-86 410.594,-86 410.594,-122"/>
<text text-anchor="middle" x="348.5" y="-99.8" font-family="Times,serif" font-size="14.00" fill="#000000">BuscarModuloPipe</text>
</g>
<!-- PipesModule -->
<g id="node4" class="node">
<title>PipesModule</title>
<polygon fill="#8dd3c7" stroke="#000000" points="266.3823,-187 263.3823,-191 242.3823,-191 239.3823,-187 176.6177,-187 176.6177,-151 266.3823,-151 266.3823,-187"/>
<text text-anchor="middle" x="221.5" y="-164.8" font-family="Times,serif" font-size="14.00" fill="#000000">PipesModule</text>
</g>
<!-- BuscarModuloPipe&#45;&gt;PipesModule -->
<g id="edge1" class="edge">
<title>BuscarModuloPipe&#45;&gt;PipesModule</title>
<path fill="none" stroke="#000000" d="M327.875,-122.1061C327.875,-141.3391 327.875,-169 327.875,-169 327.875,-169 276.6126,-169 276.6126,-169"/>
<polygon fill="#000000" stroke="#000000" points="276.6126,-165.5001 266.6126,-169 276.6125,-172.5001 276.6126,-165.5001"/>
</g>
<!-- GroupByPipe -->
<g id="node2" class="node">
<title>GroupByPipe</title>
<polygon fill="#ffffb3" stroke="#000000" points="267.9916,-122 175.0084,-122 175.0084,-86 267.9916,-86 267.9916,-122"/>
<text text-anchor="middle" x="221.5" y="-99.8" font-family="Times,serif" font-size="14.00" fill="#000000">GroupByPipe</text>
</g>
<!-- GroupByPipe&#45;&gt;PipesModule -->
<g id="edge2" class="edge">
<title>GroupByPipe&#45;&gt;PipesModule</title>
<path fill="none" stroke="#000000" d="M221.5,-122.1061C221.5,-122.1061 221.5,-140.991 221.5,-140.991"/>
<polygon fill="#000000" stroke="#000000" points="218.0001,-140.9909 221.5,-150.991 225.0001,-140.991 218.0001,-140.9909"/>
</g>
<!-- FilterPipe -->
<g id="node3" class="node">
<title>FilterPipe</title>
<polygon fill="#ffffb3" stroke="#000000" points="157.2177,-122 85.7823,-122 85.7823,-86 157.2177,-86 157.2177,-122"/>
<text text-anchor="middle" x="121.5" y="-99.8" font-family="Times,serif" font-size="14.00" fill="#000000">FilterPipe</text>
</g>
<!-- FilterPipe&#45;&gt;PipesModule -->
<g id="edge3" class="edge">
<title>FilterPipe&#45;&gt;PipesModule</title>
<path fill="none" stroke="#000000" d="M142.1814,-122.1061C142.1814,-141.3391 142.1814,-169 142.1814,-169 142.1814,-169 166.28,-169 166.28,-169"/>
<polygon fill="#000000" stroke="#000000" points="166.28,-172.5001 176.28,-169 166.2799,-165.5001 166.28,-172.5001"/>
</g>
<!-- BuscarModuloPipe  -->
<g id="node5" class="node">
<title>BuscarModuloPipe </title>
<polygon fill="#fb8072" stroke="#000000" points="369.0946,-252 241.9054,-252 241.9054,-216 369.0946,-216 369.0946,-252"/>
<text text-anchor="middle" x="305.5" y="-229.8" font-family="Times,serif" font-size="14.00" fill="#000000">BuscarModuloPipe </text>
</g>
<!-- PipesModule&#45;&gt;BuscarModuloPipe  -->
<g id="edge4" class="edge">
<title>PipesModule&#45;&gt;BuscarModuloPipe </title>
<path fill="none" stroke="#000000" stroke-dasharray="5,2" d="M254.0721,-187.1061C254.0721,-187.1061 254.0721,-205.991 254.0721,-205.991"/>
<polygon fill="#000000" stroke="#000000" points="250.5721,-205.9909 254.0721,-215.991 257.5721,-205.991 250.5721,-205.9909"/>
</g>
<!-- GroupByPipe  -->
<g id="node6" class="node">
<title>GroupByPipe </title>
<polygon fill="#fb8072" stroke="#000000" points="223.9929,-252 127.0071,-252 127.0071,-216 223.9929,-216 223.9929,-252"/>
<text text-anchor="middle" x="175.5" y="-229.8" font-family="Times,serif" font-size="14.00" fill="#000000">GroupByPipe </text>
</g>
<!-- PipesModule&#45;&gt;GroupByPipe  -->
<g id="edge5" class="edge">
<title>PipesModule&#45;&gt;GroupByPipe </title>
<path fill="none" stroke="#000000" stroke-dasharray="5,2" d="M200.1524,-187.1061C200.1524,-187.1061 200.1524,-205.991 200.1524,-205.991"/>
<polygon fill="#000000" stroke="#000000" points="196.6524,-205.9909 200.1524,-215.991 203.6524,-205.991 196.6524,-205.9909"/>
</g>
</g>
</svg>
