<?xml version="1.0" encoding="UTF-8" standalone="no"?>
<!DOCTYPE svg PUBLIC "-//W3C//DTD SVG 1.1//EN"
 "http://www.w3.org/Graphics/SVG/1.1/DTD/svg11.dtd">
<!-- Generated by graphviz version 2.40.1 (20161225.0304)
 -->
<!-- Title: dependencies Pages: 1 -->
<svg width="1430pt" height="211pt"
 viewBox="0.00 0.00 1430.00 211.00" xmlns="http://www.w3.org/2000/svg" xmlns:xlink="http://www.w3.org/1999/xlink">
<g id="graph0" class="graph" transform="scale(1 1) rotate(0) translate(4 207)">
<title>dependencies</title>
<polygon fill="#ffffff" stroke="transparent" points="-4,4 -4,-207 1426,-207 1426,4 -4,4"/>
<text text-anchor="start" x="690.0091" y="-42.4" font-family="sans-serif" font-weight="bold" font-size="14.00" fill="#000000">Legend</text>
<polygon fill="#ffffb3" stroke="transparent" points="477,-10 477,-30 497,-30 497,-10 477,-10"/>
<text text-anchor="start" x="500.629" y="-15.4" font-family="sans-serif" font-size="14.00" fill="#000000"> &#160;Declarations</text>
<polygon fill="#8dd3c7" stroke="transparent" points="590,-10 590,-30 610,-30 610,-10 590,-10"/>
<text text-anchor="start" x="613.7251" y="-15.4" font-family="sans-serif" font-size="14.00" fill="#000000"> &#160;Module</text>
<polygon fill="#80b1d3" stroke="transparent" points="676,-10 676,-30 696,-30 696,-10 676,-10"/>
<text text-anchor="start" x="699.7812" y="-15.4" font-family="sans-serif" font-size="14.00" fill="#000000"> &#160;Bootstrap</text>
<polygon fill="#fdb462" stroke="transparent" points="773,-10 773,-30 793,-30 793,-10 773,-10"/>
<text text-anchor="start" x="796.6732" y="-15.4" font-family="sans-serif" font-size="14.00" fill="#000000"> &#160;Providers</text>
<polygon fill="#fb8072" stroke="transparent" points="869,-10 869,-30 889,-30 889,-10 869,-10"/>
<text text-anchor="start" x="892.7258" y="-15.4" font-family="sans-serif" font-size="14.00" fill="#000000"> &#160;Exports</text>
<g id="clust1" class="cluster">
<title>cluster_AdministradorProveedoresModule</title>
<polygon fill="none" stroke="#000000" stroke-dasharray="1,5" points="8,-70 8,-195 1414,-195 1414,-70 8,-70"/>
</g>
<g id="clust2" class="cluster">
<title>cluster_AdministradorProveedoresModule_declarations</title>
<polygon fill="none" stroke="#000000" points="1132,-78 1132,-130 1406,-130 1406,-78 1132,-78"/>
</g>
<g id="clust5" class="cluster">
<title>cluster_AdministradorProveedoresModule_imports</title>
<polygon fill="none" stroke="#000000" points="328,-78 328,-130 1124,-130 1124,-78 328,-78"/>
</g>
<g id="clust8" class="cluster">
<title>cluster_AdministradorProveedoresModule_providers</title>
<polygon fill="none" stroke="#000000" points="16,-78 16,-130 320,-130 320,-78 16,-78"/>
</g>
<!-- PedidosComponent -->
<g id="node1" class="node">
<title>PedidosComponent</title>
<polygon fill="#ffffb3" stroke="#000000" points="1397.6652,-122 1272.3348,-122 1272.3348,-86 1397.6652,-86 1397.6652,-122"/>
<text text-anchor="middle" x="1335" y="-99.8" font-family="Times,serif" font-size="14.00" fill="#000000">PedidosComponent</text>
</g>
<!-- AdministradorProveedoresModule -->
<g id="node3" class="node">
<title>AdministradorProveedoresModule</title>
<polygon fill="#8dd3c7" stroke="#000000" points="1003.3918,-187 1000.3918,-191 979.3918,-191 976.3918,-187 792.6082,-187 792.6082,-151 1003.3918,-151 1003.3918,-187"/>
<text text-anchor="middle" x="898" y="-164.8" font-family="Times,serif" font-size="14.00" fill="#000000">AdministradorProveedoresModule</text>
</g>
<!-- PedidosComponent&#45;&gt;AdministradorProveedoresModule -->
<g id="edge1" class="edge">
<title>PedidosComponent&#45;&gt;AdministradorProveedoresModule</title>
<path fill="none" stroke="#000000" d="M1335,-122.2921C1335,-144.2057 1335,-178 1335,-178 1335,-178 1013.2285,-178 1013.2285,-178"/>
<polygon fill="#000000" stroke="#000000" points="1013.2285,-174.5001 1003.2285,-178 1013.2285,-181.5001 1013.2285,-174.5001"/>
</g>
<!-- MenuComponent -->
<g id="node2" class="node">
<title>MenuComponent</title>
<polygon fill="#ffffb3" stroke="#000000" points="1253.9916,-122 1140.0084,-122 1140.0084,-86 1253.9916,-86 1253.9916,-122"/>
<text text-anchor="middle" x="1197" y="-99.8" font-family="Times,serif" font-size="14.00" fill="#000000">MenuComponent</text>
</g>
<!-- MenuComponent&#45;&gt;AdministradorProveedoresModule -->
<g id="edge2" class="edge">
<title>MenuComponent&#45;&gt;AdministradorProveedoresModule</title>
<path fill="none" stroke="#000000" d="M1197,-122.1061C1197,-141.3391 1197,-169 1197,-169 1197,-169 1013.4162,-169 1013.4162,-169"/>
<polygon fill="#000000" stroke="#000000" points="1013.4162,-165.5001 1003.4162,-169 1013.4162,-172.5001 1013.4162,-165.5001"/>
</g>
<!-- HubModule -->
<g id="node4" class="node">
<title>HubModule</title>
<polygon fill="#8dd3c7" stroke="#000000" points="1115.6571,-122 1112.6571,-126 1091.6571,-126 1088.6571,-122 1032.3429,-122 1032.3429,-86 1115.6571,-86 1115.6571,-122"/>
<text text-anchor="middle" x="1074" y="-99.8" font-family="Times,serif" font-size="14.00" fill="#000000">HubModule</text>
</g>
<!-- HubModule&#45;&gt;AdministradorProveedoresModule -->
<g id="edge3" class="edge">
<title>HubModule&#45;&gt;AdministradorProveedoresModule</title>
<path fill="none" stroke="#000000" d="M1074,-122.027C1074,-138.3976 1074,-160 1074,-160 1074,-160 1013.4282,-160 1013.4282,-160"/>
<polygon fill="#000000" stroke="#000000" points="1013.4282,-156.5001 1003.4282,-160 1013.4281,-163.5001 1013.4282,-156.5001"/>
</g>
<!-- PerfilModule -->
<g id="node5" class="node">
<title>PerfilModule</title>
<polygon fill="#8dd3c7" stroke="#000000" points="1014.1501,-122 1011.1501,-126 990.1501,-126 987.1501,-122 923.8499,-122 923.8499,-86 1014.1501,-86 1014.1501,-122"/>
<text text-anchor="middle" x="969" y="-99.8" font-family="Times,serif" font-size="14.00" fill="#000000">PerfilModule</text>
</g>
<!-- PerfilModule&#45;&gt;AdministradorProveedoresModule -->
<g id="edge4" class="edge">
<title>PerfilModule&#45;&gt;AdministradorProveedoresModule</title>
<path fill="none" stroke="#000000" d="M963.4355,-122.1061C963.4355,-122.1061 963.4355,-140.991 963.4355,-140.991"/>
<polygon fill="#000000" stroke="#000000" points="959.9356,-140.9909 963.4355,-150.991 966.9356,-140.991 959.9356,-140.9909"/>
</g>
<!-- BloquearPantallaModule -->
<g id="node6" class="node">
<title>BloquearPantallaModule</title>
<polygon fill="#8dd3c7" stroke="#000000" points="905.965,-122 902.965,-126 881.965,-126 878.965,-122 750.035,-122 750.035,-86 905.965,-86 905.965,-122"/>
<text text-anchor="middle" x="828" y="-99.8" font-family="Times,serif" font-size="14.00" fill="#000000">BloquearPantallaModule</text>
</g>
<!-- BloquearPantallaModule&#45;&gt;AdministradorProveedoresModule -->
<g id="edge5" class="edge">
<title>BloquearPantallaModule&#45;&gt;AdministradorProveedoresModule</title>
<path fill="none" stroke="#000000" d="M849.3934,-122.1061C849.3934,-122.1061 849.3934,-140.991 849.3934,-140.991"/>
<polygon fill="#000000" stroke="#000000" points="845.8935,-140.9909 849.3934,-150.991 852.8935,-140.991 845.8935,-140.9909"/>
</g>
<!-- PaginacionModule -->
<g id="node7" class="node">
<title>PaginacionModule</title>
<polygon fill="#8dd3c7" stroke="#000000" points="731.7576,-122 728.7576,-126 707.7576,-126 704.7576,-122 610.2424,-122 610.2424,-86 731.7576,-86 731.7576,-122"/>
<text text-anchor="middle" x="671" y="-99.8" font-family="Times,serif" font-size="14.00" fill="#000000">PaginacionModule</text>
</g>
<!-- PaginacionModule&#45;&gt;AdministradorProveedoresModule -->
<g id="edge6" class="edge">
<title>PaginacionModule&#45;&gt;AdministradorProveedoresModule</title>
<path fill="none" stroke="#000000" d="M671,-122.027C671,-138.3976 671,-160 671,-160 671,-160 782.4746,-160 782.4746,-160"/>
<polygon fill="#000000" stroke="#000000" points="782.4747,-163.5001 792.4746,-160 782.4746,-156.5001 782.4747,-163.5001"/>
</g>
<!-- AdministradorProveedoresRoutingModule -->
<g id="node8" class="node">
<title>AdministradorProveedoresRoutingModule</title>
<polygon fill="#8dd3c7" stroke="#000000" points="591.5097,-122 588.5097,-126 567.5097,-126 564.5097,-122 336.4903,-122 336.4903,-86 591.5097,-86 591.5097,-122"/>
<text text-anchor="middle" x="464" y="-99.8" font-family="Times,serif" font-size="14.00" fill="#000000">AdministradorProveedoresRoutingModule</text>
</g>
<!-- AdministradorProveedoresRoutingModule&#45;&gt;AdministradorProveedoresModule -->
<g id="edge7" class="edge">
<title>AdministradorProveedoresRoutingModule&#45;&gt;AdministradorProveedoresModule</title>
<path fill="none" stroke="#000000" d="M464,-122.1061C464,-141.3391 464,-169 464,-169 464,-169 782.6638,-169 782.6638,-169"/>
<polygon fill="#000000" stroke="#000000" points="782.6638,-172.5001 792.6638,-169 782.6637,-165.5001 782.6638,-172.5001"/>
</g>
<!-- AdministradorProveedoresService -->
<g id="node9" class="node">
<title>AdministradorProveedoresService</title>
<ellipse fill="#fdb462" stroke="#000000" cx="168" cy="-104" rx="144.0794" ry="18"/>
<text text-anchor="middle" x="168" y="-99.8" font-family="Times,serif" font-size="14.00" fill="#000000">AdministradorProveedoresService</text>
</g>
<!-- AdministradorProveedoresService&#45;&gt;AdministradorProveedoresModule -->
<g id="edge8" class="edge">
<title>AdministradorProveedoresService&#45;&gt;AdministradorProveedoresModule</title>
<path fill="none" stroke="#000000" d="M168,-122.2921C168,-144.2057 168,-178 168,-178 168,-178 782.6314,-178 782.6314,-178"/>
<polygon fill="#000000" stroke="#000000" points="782.6314,-181.5001 792.6314,-178 782.6313,-174.5001 782.6314,-181.5001"/>
</g>
</g>
</svg>
