<?xml version="1.0" encoding="UTF-8" standalone="no"?>
<!DOCTYPE svg PUBLIC "-//W3C//DTD SVG 1.1//EN"
 "http://www.w3.org/Graphics/SVG/1.1/DTD/svg11.dtd">
<!-- Generated by graphviz version 2.40.1 (20161225.0304)
 -->
<!-- Title: dependencies Pages: 1 -->
<svg width="1313pt" height="211pt"
 viewBox="0.00 0.00 1313.00 211.00" xmlns="http://www.w3.org/2000/svg" xmlns:xlink="http://www.w3.org/1999/xlink">
<g id="graph0" class="graph" transform="scale(1 1) rotate(0) translate(4 207)">
<title>dependencies</title>
<polygon fill="#ffffff" stroke="transparent" points="-4,4 -4,-207 1309,-207 1309,4 -4,4"/>
<text text-anchor="start" x="631.5091" y="-42.4" font-family="sans-serif" font-weight="bold" font-size="14.00" fill="#000000">Legend</text>
<polygon fill="#ffffb3" stroke="transparent" points="418.5,-10 418.5,-30 438.5,-30 438.5,-10 418.5,-10"/>
<text text-anchor="start" x="442.129" y="-15.4" font-family="sans-serif" font-size="14.00" fill="#000000"> &#160;Declarations</text>
<polygon fill="#8dd3c7" stroke="transparent" points="531.5,-10 531.5,-30 551.5,-30 551.5,-10 531.5,-10"/>
<text text-anchor="start" x="555.2251" y="-15.4" font-family="sans-serif" font-size="14.00" fill="#000000"> &#160;Module</text>
<polygon fill="#80b1d3" stroke="transparent" points="617.5,-10 617.5,-30 637.5,-30 637.5,-10 617.5,-10"/>
<text text-anchor="start" x="641.2812" y="-15.4" font-family="sans-serif" font-size="14.00" fill="#000000"> &#160;Bootstrap</text>
<polygon fill="#fdb462" stroke="transparent" points="714.5,-10 714.5,-30 734.5,-30 734.5,-10 714.5,-10"/>
<text text-anchor="start" x="738.1732" y="-15.4" font-family="sans-serif" font-size="14.00" fill="#000000"> &#160;Providers</text>
<polygon fill="#fb8072" stroke="transparent" points="810.5,-10 810.5,-30 830.5,-30 830.5,-10 810.5,-10"/>
<text text-anchor="start" x="834.2258" y="-15.4" font-family="sans-serif" font-size="14.00" fill="#000000"> &#160;Exports</text>
<g id="clust1" class="cluster">
<title>cluster_ValidacionPedidosAlternosModule</title>
<polygon fill="none" stroke="#000000" stroke-dasharray="1,5" points="8,-70 8,-195 1297,-195 1297,-70 8,-70"/>
</g>
<g id="clust2" class="cluster">
<title>cluster_ValidacionPedidosAlternosModule_declarations</title>
<polygon fill="none" stroke="#000000" points="1022,-78 1022,-130 1289,-130 1289,-78 1022,-78"/>
</g>
<g id="clust5" class="cluster">
<title>cluster_ValidacionPedidosAlternosModule_imports</title>
<polygon fill="none" stroke="#000000" points="16,-78 16,-130 1014,-130 1014,-78 16,-78"/>
</g>
<!-- ListaComponent -->
<g id="node1" class="node">
<title>ListaComponent</title>
<polygon fill="#ffffb3" stroke="#000000" points="1280.8259,-122 1171.1741,-122 1171.1741,-86 1280.8259,-86 1280.8259,-122"/>
<text text-anchor="middle" x="1226" y="-99.8" font-family="Times,serif" font-size="14.00" fill="#000000">ListaComponent</text>
</g>
<!-- ValidacionPedidosAlternosModule -->
<g id="node3" class="node">
<title>ValidacionPedidosAlternosModule</title>
<polygon fill="#8dd3c7" stroke="#000000" points="741.5126,-187 738.5126,-191 717.5126,-191 714.5126,-187 528.4874,-187 528.4874,-151 741.5126,-151 741.5126,-187"/>
<text text-anchor="middle" x="635" y="-164.8" font-family="Times,serif" font-size="14.00" fill="#000000">ValidacionPedidosAlternosModule</text>
</g>
<!-- ListaComponent&#45;&gt;ValidacionPedidosAlternosModule -->
<g id="edge1" class="edge">
<title>ListaComponent&#45;&gt;ValidacionPedidosAlternosModule</title>
<path fill="none" stroke="#000000" d="M1226,-122.2843C1226,-143.3211 1226,-175 1226,-175 1226,-175 751.6834,-175 751.6834,-175"/>
<polygon fill="#000000" stroke="#000000" points="751.6834,-171.5001 741.6834,-175 751.6834,-178.5001 751.6834,-171.5001"/>
</g>
<!-- ValidarComponent -->
<g id="node2" class="node">
<title>ValidarComponent</title>
<polygon fill="#ffffb3" stroke="#000000" points="1153.8104,-122 1030.1896,-122 1030.1896,-86 1153.8104,-86 1153.8104,-122"/>
<text text-anchor="middle" x="1092" y="-99.8" font-family="Times,serif" font-size="14.00" fill="#000000">ValidarComponent</text>
</g>
<!-- ValidarComponent&#45;&gt;ValidacionPedidosAlternosModule -->
<g id="edge2" class="edge">
<title>ValidarComponent&#45;&gt;ValidacionPedidosAlternosModule</title>
<path fill="none" stroke="#000000" d="M1092,-122.0225C1092,-139.3734 1092,-163 1092,-163 1092,-163 751.5694,-163 751.5694,-163"/>
<polygon fill="#000000" stroke="#000000" points="751.5695,-159.5001 741.5694,-163 751.5694,-166.5001 751.5695,-159.5001"/>
</g>
<!-- ValidacionPedidosAlternosRoutingModule -->
<g id="node4" class="node">
<title>ValidacionPedidosAlternosRoutingModule</title>
<polygon fill="#8dd3c7" stroke="#000000" points="1006.1301,-122 1003.1301,-126 982.1301,-126 979.1301,-122 747.8699,-122 747.8699,-86 1006.1301,-86 1006.1301,-122"/>
<text text-anchor="middle" x="877" y="-99.8" font-family="Times,serif" font-size="14.00" fill="#000000">ValidacionPedidosAlternosRoutingModule</text>
</g>
<!-- ValidacionPedidosAlternosRoutingModule&#45;&gt;ValidacionPedidosAlternosModule -->
<g id="edge3" class="edge">
<title>ValidacionPedidosAlternosRoutingModule&#45;&gt;ValidacionPedidosAlternosModule</title>
<path fill="none" stroke="#000000" d="M747.8314,-104C740.3514,-104 735.7921,-104 735.7921,-104 735.7921,-104 735.7921,-140.8939 735.7921,-140.8939"/>
<polygon fill="#000000" stroke="#000000" points="732.2922,-140.8938 735.7921,-150.8939 739.2922,-140.8939 732.2922,-140.8938"/>
</g>
<!-- HubModule -->
<g id="node5" class="node">
<title>HubModule</title>
<polygon fill="#8dd3c7" stroke="#000000" points="729.6571,-122 726.6571,-126 705.6571,-126 702.6571,-122 646.3429,-122 646.3429,-86 729.6571,-86 729.6571,-122"/>
<text text-anchor="middle" x="688" y="-99.8" font-family="Times,serif" font-size="14.00" fill="#000000">HubModule</text>
</g>
<!-- HubModule&#45;&gt;ValidacionPedidosAlternosModule -->
<g id="edge4" class="edge">
<title>HubModule&#45;&gt;ValidacionPedidosAlternosModule</title>
<path fill="none" stroke="#000000" d="M688,-122.1061C688,-122.1061 688,-140.991 688,-140.991"/>
<polygon fill="#000000" stroke="#000000" points="684.5001,-140.9909 688,-150.991 691.5001,-140.991 684.5001,-140.9909"/>
</g>
<!-- PerfilModule -->
<g id="node6" class="node">
<title>PerfilModule</title>
<polygon fill="#8dd3c7" stroke="#000000" points="628.1501,-122 625.1501,-126 604.1501,-126 601.1501,-122 537.8499,-122 537.8499,-86 628.1501,-86 628.1501,-122"/>
<text text-anchor="middle" x="583" y="-99.8" font-family="Times,serif" font-size="14.00" fill="#000000">PerfilModule</text>
</g>
<!-- PerfilModule&#45;&gt;ValidacionPedidosAlternosModule -->
<g id="edge5" class="edge">
<title>PerfilModule&#45;&gt;ValidacionPedidosAlternosModule</title>
<path fill="none" stroke="#000000" d="M583,-122.1061C583,-122.1061 583,-140.991 583,-140.991"/>
<polygon fill="#000000" stroke="#000000" points="579.5001,-140.9909 583,-150.991 586.5001,-140.991 579.5001,-140.9909"/>
</g>
<!-- BloquearPantallaModule -->
<g id="node7" class="node">
<title>BloquearPantallaModule</title>
<polygon fill="#8dd3c7" stroke="#000000" points="519.965,-122 516.965,-126 495.965,-126 492.965,-122 364.035,-122 364.035,-86 519.965,-86 519.965,-122"/>
<text text-anchor="middle" x="442" y="-99.8" font-family="Times,serif" font-size="14.00" fill="#000000">BloquearPantallaModule</text>
</g>
<!-- BloquearPantallaModule&#45;&gt;ValidacionPedidosAlternosModule -->
<g id="edge6" class="edge">
<title>BloquearPantallaModule&#45;&gt;ValidacionPedidosAlternosModule</title>
<path fill="none" stroke="#000000" d="M520.3121,-104C527.9631,-104 532.9597,-104 532.9597,-104 532.9597,-104 532.9597,-140.8939 532.9597,-140.8939"/>
<polygon fill="#000000" stroke="#000000" points="529.4597,-140.8938 532.9597,-150.8939 536.4597,-140.8939 529.4597,-140.8938"/>
</g>
<!-- PaginacionModule -->
<g id="node8" class="node">
<title>PaginacionModule</title>
<polygon fill="#8dd3c7" stroke="#000000" points="345.7576,-122 342.7576,-126 321.7576,-126 318.7576,-122 224.2424,-122 224.2424,-86 345.7576,-86 345.7576,-122"/>
<text text-anchor="middle" x="285" y="-99.8" font-family="Times,serif" font-size="14.00" fill="#000000">PaginacionModule</text>
</g>
<!-- PaginacionModule&#45;&gt;ValidacionPedidosAlternosModule -->
<g id="edge7" class="edge">
<title>PaginacionModule&#45;&gt;ValidacionPedidosAlternosModule</title>
<path fill="none" stroke="#000000" d="M285,-122.0225C285,-139.3734 285,-163 285,-163 285,-163 518.0867,-163 518.0867,-163"/>
<polygon fill="#000000" stroke="#000000" points="518.0867,-166.5001 528.0867,-163 518.0866,-159.5001 518.0867,-166.5001"/>
</g>
<!-- AdministradorCentralModule -->
<g id="node9" class="node">
<title>AdministradorCentralModule</title>
<polygon fill="#8dd3c7" stroke="#000000" points="206.4073,-122 203.4073,-126 182.4073,-126 179.4073,-122 23.5927,-122 23.5927,-86 206.4073,-86 206.4073,-122"/>
<text text-anchor="middle" x="115" y="-99.8" font-family="Times,serif" font-size="14.00" fill="#000000">AdministradorCentralModule</text>
</g>
<!-- AdministradorCentralModule&#45;&gt;ValidacionPedidosAlternosModule -->
<g id="edge8" class="edge">
<title>AdministradorCentralModule&#45;&gt;ValidacionPedidosAlternosModule</title>
<path fill="none" stroke="#000000" d="M115,-122.2843C115,-143.3211 115,-175 115,-175 115,-175 518.201,-175 518.201,-175"/>
<polygon fill="#000000" stroke="#000000" points="518.201,-178.5001 528.201,-175 518.2009,-171.5001 518.201,-178.5001"/>
</g>
</g>
</svg>
