<?xml version="1.0" encoding="UTF-8" standalone="no"?>
<!DOCTYPE svg PUBLIC "-//W3C//DTD SVG 1.1//EN"
 "http://www.w3.org/Graphics/SVG/1.1/DTD/svg11.dtd">
<!-- Generated by graphviz version 2.40.1 (20161225.0304)
 -->
<!-- Title: dependencies Pages: 1 -->
<svg width="594pt" height="284pt"
 viewBox="0.00 0.00 594.00 284.00" xmlns="http://www.w3.org/2000/svg" xmlns:xlink="http://www.w3.org/1999/xlink">
<g id="graph0" class="graph" transform="scale(1 1) rotate(0) translate(4 280)">
<title>dependencies</title>
<polygon fill="#ffffff" stroke="transparent" points="-4,4 -4,-280 590,-280 590,4 -4,4"/>
<text text-anchor="start" x="272.0091" y="-42.4" font-family="sans-serif" font-weight="bold" font-size="14.00" fill="#000000">Legend</text>
<polygon fill="#ffffb3" stroke="transparent" points="59,-10 59,-30 79,-30 79,-10 59,-10"/>
<text text-anchor="start" x="82.629" y="-15.4" font-family="sans-serif" font-size="14.00" fill="#000000"> &#160;Declarations</text>
<polygon fill="#8dd3c7" stroke="transparent" points="172,-10 172,-30 192,-30 192,-10 172,-10"/>
<text text-anchor="start" x="195.7251" y="-15.4" font-family="sans-serif" font-size="14.00" fill="#000000"> &#160;Module</text>
<polygon fill="#80b1d3" stroke="transparent" points="258,-10 258,-30 278,-30 278,-10 258,-10"/>
<text text-anchor="start" x="281.7812" y="-15.4" font-family="sans-serif" font-size="14.00" fill="#000000"> &#160;Bootstrap</text>
<polygon fill="#fdb462" stroke="transparent" points="355,-10 355,-30 375,-30 375,-10 355,-10"/>
<text text-anchor="start" x="378.6732" y="-15.4" font-family="sans-serif" font-size="14.00" fill="#000000"> &#160;Providers</text>
<polygon fill="#fb8072" stroke="transparent" points="451,-10 451,-30 471,-30 471,-10 451,-10"/>
<text text-anchor="start" x="474.7258" y="-15.4" font-family="sans-serif" font-size="14.00" fill="#000000"> &#160;Exports</text>
<g id="clust1" class="cluster">
<title>cluster_BuscarInsumosModule</title>
<polygon fill="none" stroke="#000000" stroke-dasharray="1,5" points="8,-70 8,-268 578,-268 578,-70 8,-70"/>
</g>
<g id="clust2" class="cluster">
<title>cluster_BuscarInsumosModule_declarations</title>
<polygon fill="none" stroke="#000000" points="386,-78 386,-130 570,-130 570,-78 386,-78"/>
</g>
<g id="clust4" class="cluster">
<title>cluster_BuscarInsumosModule_imports</title>
<polygon fill="none" stroke="#000000" points="240,-78 240,-130 378,-130 378,-78 240,-78"/>
</g>
<g id="clust5" class="cluster">
<title>cluster_BuscarInsumosModule_exports</title>
<polygon fill="none" stroke="#000000" points="215,-208 215,-260 403,-260 403,-208 215,-208"/>
</g>
<g id="clust7" class="cluster">
<title>cluster_BuscarInsumosModule_providers</title>
<polygon fill="none" stroke="#000000" points="16,-78 16,-130 232,-130 232,-78 16,-78"/>
</g>
<!-- BuscarInsumosComponent -->
<g id="node1" class="node">
<title>BuscarInsumosComponent</title>
<polygon fill="#ffffb3" stroke="#000000" points="561.6442,-122 394.3558,-122 394.3558,-86 561.6442,-86 561.6442,-122"/>
<text text-anchor="middle" x="478" y="-99.8" font-family="Times,serif" font-size="14.00" fill="#000000">BuscarInsumosComponent</text>
</g>
<!-- BuscarInsumosModule -->
<g id="node2" class="node">
<title>BuscarInsumosModule</title>
<polygon fill="#8dd3c7" stroke="#000000" points="381.8613,-187 378.8613,-191 357.8613,-191 354.8613,-187 236.1387,-187 236.1387,-151 381.8613,-151 381.8613,-187"/>
<text text-anchor="middle" x="309" y="-164.8" font-family="Times,serif" font-size="14.00" fill="#000000">BuscarInsumosModule</text>
</g>
<!-- BuscarInsumosComponent&#45;&gt;BuscarInsumosModule -->
<g id="edge1" class="edge">
<title>BuscarInsumosComponent&#45;&gt;BuscarInsumosModule</title>
<path fill="none" stroke="#000000" d="M394.1573,-104C383.3216,-104 375.9047,-104 375.9047,-104 375.9047,-104 375.9047,-140.8939 375.9047,-140.8939"/>
<polygon fill="#000000" stroke="#000000" points="372.4047,-140.8938 375.9047,-150.8939 379.4047,-140.8939 372.4047,-140.8938"/>
</g>
<!-- BuscarInsumosComponent  -->
<g id="node4" class="node">
<title>BuscarInsumosComponent </title>
<polygon fill="#fb8072" stroke="#000000" points="394.6439,-252 223.3561,-252 223.3561,-216 394.6439,-216 394.6439,-252"/>
<text text-anchor="middle" x="309" y="-229.8" font-family="Times,serif" font-size="14.00" fill="#000000">BuscarInsumosComponent </text>
</g>
<!-- BuscarInsumosModule&#45;&gt;BuscarInsumosComponent  -->
<g id="edge3" class="edge">
<title>BuscarInsumosModule&#45;&gt;BuscarInsumosComponent </title>
<path fill="none" stroke="#000000" stroke-dasharray="5,2" d="M309,-187.1061C309,-187.1061 309,-205.991 309,-205.991"/>
<polygon fill="#000000" stroke="#000000" points="305.5001,-205.9909 309,-215.991 312.5001,-205.991 305.5001,-205.9909"/>
</g>
<!-- PaginacionModule -->
<g id="node3" class="node">
<title>PaginacionModule</title>
<polygon fill="#8dd3c7" stroke="#000000" points="369.7576,-122 366.7576,-126 345.7576,-126 342.7576,-122 248.2424,-122 248.2424,-86 369.7576,-86 369.7576,-122"/>
<text text-anchor="middle" x="309" y="-99.8" font-family="Times,serif" font-size="14.00" fill="#000000">PaginacionModule</text>
</g>
<!-- PaginacionModule&#45;&gt;BuscarInsumosModule -->
<g id="edge2" class="edge">
<title>PaginacionModule&#45;&gt;BuscarInsumosModule</title>
<path fill="none" stroke="#000000" d="M309,-122.1061C309,-122.1061 309,-140.991 309,-140.991"/>
<polygon fill="#000000" stroke="#000000" points="305.5001,-140.9909 309,-150.991 312.5001,-140.991 305.5001,-140.9909"/>
</g>
<!-- BuscarInsumosService -->
<g id="node5" class="node">
<title>BuscarInsumosService</title>
<ellipse fill="#fdb462" stroke="#000000" cx="124" cy="-104" rx="99.5558" ry="18"/>
<text text-anchor="middle" x="124" y="-99.8" font-family="Times,serif" font-size="14.00" fill="#000000">BuscarInsumosService</text>
</g>
<!-- BuscarInsumosService&#45;&gt;BuscarInsumosModule -->
<g id="edge4" class="edge">
<title>BuscarInsumosService&#45;&gt;BuscarInsumosModule</title>
<path fill="none" stroke="#000000" d="M223.643,-104C234.7144,-104 242.0954,-104 242.0954,-104 242.0954,-104 242.0954,-140.8939 242.0954,-140.8939"/>
<polygon fill="#000000" stroke="#000000" points="238.5954,-140.8938 242.0954,-150.8939 245.5954,-140.8939 238.5954,-140.8938"/>
</g>
</g>
</svg>
