<?xml version="1.0" encoding="UTF-8" standalone="no"?>
<!DOCTYPE svg PUBLIC "-//W3C//DTD SVG 1.1//EN"
 "http://www.w3.org/Graphics/SVG/1.1/DTD/svg11.dtd">
<!-- Generated by graphviz version 2.40.1 (20161225.0304)
 -->
<!-- Title: dependencies Pages: 1 -->
<svg width="1852pt" height="211pt"
 viewBox="0.00 0.00 1852.00 211.00" xmlns="http://www.w3.org/2000/svg" xmlns:xlink="http://www.w3.org/1999/xlink">
<g id="graph0" class="graph" transform="scale(1 1) rotate(0) translate(4 207)">
<title>dependencies</title>
<polygon fill="#ffffff" stroke="transparent" points="-4,4 -4,-207 1848,-207 1848,4 -4,4"/>
<text text-anchor="start" x="901.0091" y="-42.4" font-family="sans-serif" font-weight="bold" font-size="14.00" fill="#000000">Legend</text>
<polygon fill="#ffffb3" stroke="transparent" points="688,-10 688,-30 708,-30 708,-10 688,-10"/>
<text text-anchor="start" x="711.629" y="-15.4" font-family="sans-serif" font-size="14.00" fill="#000000"> &#160;Declarations</text>
<polygon fill="#8dd3c7" stroke="transparent" points="801,-10 801,-30 821,-30 821,-10 801,-10"/>
<text text-anchor="start" x="824.7251" y="-15.4" font-family="sans-serif" font-size="14.00" fill="#000000"> &#160;Module</text>
<polygon fill="#80b1d3" stroke="transparent" points="887,-10 887,-30 907,-30 907,-10 887,-10"/>
<text text-anchor="start" x="910.7812" y="-15.4" font-family="sans-serif" font-size="14.00" fill="#000000"> &#160;Bootstrap</text>
<polygon fill="#fdb462" stroke="transparent" points="984,-10 984,-30 1004,-30 1004,-10 984,-10"/>
<text text-anchor="start" x="1007.6732" y="-15.4" font-family="sans-serif" font-size="14.00" fill="#000000"> &#160;Providers</text>
<polygon fill="#fb8072" stroke="transparent" points="1080,-10 1080,-30 1100,-30 1100,-10 1080,-10"/>
<text text-anchor="start" x="1103.7258" y="-15.4" font-family="sans-serif" font-size="14.00" fill="#000000"> &#160;Exports</text>
<g id="clust1" class="cluster">
<title>cluster_ProgramaModule</title>
<polygon fill="none" stroke="#000000" stroke-dasharray="1,5" points="8,-70 8,-195 1836,-195 1836,-70 8,-70"/>
</g>
<g id="clust2" class="cluster">
<title>cluster_ProgramaModule_declarations</title>
<polygon fill="none" stroke="#000000" points="1540,-78 1540,-130 1828,-130 1828,-78 1540,-78"/>
</g>
<g id="clust5" class="cluster">
<title>cluster_ProgramaModule_imports</title>
<polygon fill="none" stroke="#000000" points="295,-78 295,-130 1532,-130 1532,-78 295,-78"/>
</g>
<g id="clust8" class="cluster">
<title>cluster_ProgramaModule_providers</title>
<polygon fill="none" stroke="#000000" points="16,-78 16,-130 287,-130 287,-78 16,-78"/>
</g>
<!-- ListaComponent -->
<g id="node1" class="node">
<title>ListaComponent</title>
<polygon fill="#ffffb3" stroke="#000000" points="1819.8259,-122 1710.1741,-122 1710.1741,-86 1819.8259,-86 1819.8259,-122"/>
<text text-anchor="middle" x="1765" y="-99.8" font-family="Times,serif" font-size="14.00" fill="#000000">ListaComponent</text>
</g>
<!-- ProgramaModule -->
<g id="node3" class="node">
<title>ProgramaModule</title>
<polygon fill="#8dd3c7" stroke="#000000" points="887.9734,-187 884.9734,-191 863.9734,-191 860.9734,-187 774.0266,-187 774.0266,-151 887.9734,-151 887.9734,-187"/>
<text text-anchor="middle" x="831" y="-164.8" font-family="Times,serif" font-size="14.00" fill="#000000">ProgramaModule</text>
</g>
<!-- ListaComponent&#45;&gt;ProgramaModule -->
<g id="edge1" class="edge">
<title>ListaComponent&#45;&gt;ProgramaModule</title>
<path fill="none" stroke="#000000" d="M1765,-122.0908C1765,-145.1328 1765,-182 1765,-182 1765,-182 898.0199,-182 898.0199,-182"/>
<polygon fill="#000000" stroke="#000000" points="898.0199,-178.5001 888.0199,-182 898.0199,-185.5001 898.0199,-178.5001"/>
</g>
<!-- FormularioComponent -->
<g id="node2" class="node">
<title>FormularioComponent</title>
<polygon fill="#ffffb3" stroke="#000000" points="1692.323,-122 1547.677,-122 1547.677,-86 1692.323,-86 1692.323,-122"/>
<text text-anchor="middle" x="1620" y="-99.8" font-family="Times,serif" font-size="14.00" fill="#000000">FormularioComponent</text>
</g>
<!-- FormularioComponent&#45;&gt;ProgramaModule -->
<g id="edge2" class="edge">
<title>FormularioComponent&#45;&gt;ProgramaModule</title>
<path fill="none" stroke="#000000" d="M1620,-122.0449C1620,-143.6623 1620,-177 1620,-177 1620,-177 898.0603,-177 898.0603,-177"/>
<polygon fill="#000000" stroke="#000000" points="898.0604,-173.5001 888.0603,-177 898.0603,-180.5001 898.0604,-173.5001"/>
</g>
<!-- ProgramaRoutingModule -->
<g id="node4" class="node">
<title>ProgramaRoutingModule</title>
<polygon fill="#8dd3c7" stroke="#000000" points="1523.5912,-122 1520.5912,-126 1499.5912,-126 1496.5912,-122 1364.4088,-122 1364.4088,-86 1523.5912,-86 1523.5912,-122"/>
<text text-anchor="middle" x="1444" y="-99.8" font-family="Times,serif" font-size="14.00" fill="#000000">ProgramaRoutingModule</text>
</g>
<!-- ProgramaRoutingModule&#45;&gt;ProgramaModule -->
<g id="edge3" class="edge">
<title>ProgramaRoutingModule&#45;&gt;ProgramaModule</title>
<path fill="none" stroke="#000000" d="M1444,-122.2228C1444,-142.3652 1444,-172 1444,-172 1444,-172 898.1191,-172 898.1191,-172"/>
<polygon fill="#000000" stroke="#000000" points="898.1191,-168.5001 888.1191,-172 898.119,-175.5001 898.1191,-168.5001"/>
</g>
<!-- HubModule -->
<g id="node5" class="node">
<title>HubModule</title>
<polygon fill="#8dd3c7" stroke="#000000" points="1346.6571,-122 1343.6571,-126 1322.6571,-126 1319.6571,-122 1263.3429,-122 1263.3429,-86 1346.6571,-86 1346.6571,-122"/>
<text text-anchor="middle" x="1305" y="-99.8" font-family="Times,serif" font-size="14.00" fill="#000000">HubModule</text>
</g>
<!-- HubModule&#45;&gt;ProgramaModule -->
<g id="edge4" class="edge">
<title>HubModule&#45;&gt;ProgramaModule</title>
<path fill="none" stroke="#000000" d="M1305,-122.2222C1305,-140.8285 1305,-167 1305,-167 1305,-167 898.1755,-167 898.1755,-167"/>
<polygon fill="#000000" stroke="#000000" points="898.1755,-163.5001 888.1755,-167 898.1754,-170.5001 898.1755,-163.5001"/>
</g>
<!-- PerfilModule -->
<g id="node6" class="node">
<title>PerfilModule</title>
<polygon fill="#8dd3c7" stroke="#000000" points="1245.1501,-122 1242.1501,-126 1221.1501,-126 1218.1501,-122 1154.8499,-122 1154.8499,-86 1245.1501,-86 1245.1501,-122"/>
<text text-anchor="middle" x="1200" y="-99.8" font-family="Times,serif" font-size="14.00" fill="#000000">PerfilModule</text>
</g>
<!-- PerfilModule&#45;&gt;ProgramaModule -->
<g id="edge5" class="edge">
<title>PerfilModule&#45;&gt;ProgramaModule</title>
<path fill="none" stroke="#000000" d="M1200,-122.0336C1200,-139.0597 1200,-162 1200,-162 1200,-162 898.2514,-162 898.2514,-162"/>
<polygon fill="#000000" stroke="#000000" points="898.2514,-158.5001 888.2514,-162 898.2513,-165.5001 898.2514,-158.5001"/>
</g>
<!-- BloquearPantallaModule -->
<g id="node7" class="node">
<title>BloquearPantallaModule</title>
<polygon fill="#8dd3c7" stroke="#000000" points="1136.965,-122 1133.965,-126 1112.965,-126 1109.965,-122 981.035,-122 981.035,-86 1136.965,-86 1136.965,-122"/>
<text text-anchor="middle" x="1059" y="-99.8" font-family="Times,serif" font-size="14.00" fill="#000000">BloquearPantallaModule</text>
</g>
<!-- BloquearPantallaModule&#45;&gt;ProgramaModule -->
<g id="edge6" class="edge">
<title>BloquearPantallaModule&#45;&gt;ProgramaModule</title>
<path fill="none" stroke="#000000" d="M1059,-122.2396C1059,-137.5706 1059,-157 1059,-157 1059,-157 898.2397,-157 898.2397,-157"/>
<polygon fill="#000000" stroke="#000000" points="898.2398,-153.5001 888.2397,-157 898.2397,-160.5001 898.2398,-153.5001"/>
</g>
<!-- PaginacionModule -->
<g id="node8" class="node">
<title>PaginacionModule</title>
<polygon fill="#8dd3c7" stroke="#000000" points="962.7576,-122 959.7576,-126 938.7576,-126 935.7576,-122 841.2424,-122 841.2424,-86 962.7576,-86 962.7576,-122"/>
<text text-anchor="middle" x="902" y="-99.8" font-family="Times,serif" font-size="14.00" fill="#000000">PaginacionModule</text>
</g>
<!-- PaginacionModule&#45;&gt;ProgramaModule -->
<g id="edge7" class="edge">
<title>PaginacionModule&#45;&gt;ProgramaModule</title>
<path fill="none" stroke="#000000" d="M864.554,-122.1061C864.554,-122.1061 864.554,-140.991 864.554,-140.991"/>
<polygon fill="#000000" stroke="#000000" points="861.0541,-140.9909 864.554,-150.991 868.0541,-140.991 861.0541,-140.9909"/>
</g>
<!-- MenuPanelModule -->
<g id="node9" class="node">
<title>MenuPanelModule</title>
<polygon fill="#8dd3c7" stroke="#000000" points="822.8118,-122 819.8118,-126 798.8118,-126 795.8118,-122 699.1882,-122 699.1882,-86 822.8118,-86 822.8118,-122"/>
<text text-anchor="middle" x="761" y="-99.8" font-family="Times,serif" font-size="14.00" fill="#000000">MenuPanelModule</text>
</g>
<!-- MenuPanelModule&#45;&gt;ProgramaModule -->
<g id="edge8" class="edge">
<title>MenuPanelModule&#45;&gt;ProgramaModule</title>
<path fill="none" stroke="#000000" d="M798.3345,-122.1061C798.3345,-122.1061 798.3345,-140.991 798.3345,-140.991"/>
<polygon fill="#000000" stroke="#000000" points="794.8346,-140.9909 798.3345,-150.991 801.8346,-140.991 794.8346,-140.9909"/>
</g>
<!-- MenuAsidePanelModule -->
<g id="node10" class="node">
<title>MenuAsidePanelModule</title>
<polygon fill="#8dd3c7" stroke="#000000" points="680.9678,-122 677.9678,-126 656.9678,-126 653.9678,-122 525.0322,-122 525.0322,-86 680.9678,-86 680.9678,-122"/>
<text text-anchor="middle" x="603" y="-99.8" font-family="Times,serif" font-size="14.00" fill="#000000">MenuAsidePanelModule</text>
</g>
<!-- MenuAsidePanelModule&#45;&gt;ProgramaModule -->
<g id="edge9" class="edge">
<title>MenuAsidePanelModule&#45;&gt;ProgramaModule</title>
<path fill="none" stroke="#000000" d="M603,-122.2396C603,-137.5706 603,-157 603,-157 603,-157 763.7603,-157 763.7603,-157"/>
<polygon fill="#000000" stroke="#000000" points="763.7603,-160.5001 773.7603,-157 763.7602,-153.5001 763.7603,-160.5001"/>
</g>
<!-- CrudModule -->
<g id="node11" class="node">
<title>CrudModule</title>
<polygon fill="#8dd3c7" stroke="#000000" points="506.5482,-122 503.5482,-126 482.5482,-126 479.5482,-122 419.4518,-122 419.4518,-86 506.5482,-86 506.5482,-122"/>
<text text-anchor="middle" x="463" y="-99.8" font-family="Times,serif" font-size="14.00" fill="#000000">CrudModule</text>
</g>
<!-- CrudModule&#45;&gt;ProgramaModule -->
<g id="edge10" class="edge">
<title>CrudModule&#45;&gt;ProgramaModule</title>
<path fill="none" stroke="#000000" d="M463,-122.0336C463,-139.0597 463,-162 463,-162 463,-162 763.9038,-162 763.9038,-162"/>
<polygon fill="#000000" stroke="#000000" points="763.9038,-165.5001 773.9038,-162 763.9037,-158.5001 763.9038,-165.5001"/>
</g>
<!-- ParcialModule -->
<g id="node12" class="node">
<title>ParcialModule</title>
<polygon fill="#8dd3c7" stroke="#000000" points="401.4189,-122 398.4189,-126 377.4189,-126 374.4189,-122 302.5811,-122 302.5811,-86 401.4189,-86 401.4189,-122"/>
<text text-anchor="middle" x="352" y="-99.8" font-family="Times,serif" font-size="14.00" fill="#000000">ParcialModule</text>
</g>
<!-- ParcialModule&#45;&gt;ProgramaModule -->
<g id="edge11" class="edge">
<title>ParcialModule&#45;&gt;ProgramaModule</title>
<path fill="none" stroke="#000000" d="M335.597,-122.2228C335.597,-142.3652 335.597,-172 335.597,-172 335.597,-172 763.687,-172 763.687,-172"/>
<polygon fill="#000000" stroke="#000000" points="763.6871,-175.5001 773.687,-172 763.687,-168.5001 763.6871,-175.5001"/>
</g>
<!-- ParcialModule&#45;&gt;ProgramaModule -->
<g id="edge12" class="edge">
<title>ParcialModule&#45;&gt;ProgramaModule</title>
<path fill="none" stroke="#000000" d="M368.403,-122.2222C368.403,-140.8285 368.403,-167 368.403,-167 368.403,-167 763.8126,-167 763.8126,-167"/>
<polygon fill="#000000" stroke="#000000" points="763.8126,-170.5001 773.8126,-167 763.8125,-163.5001 763.8126,-170.5001"/>
</g>
<!-- AuthService -->
<g id="node13" class="node">
<title>AuthService</title>
<ellipse fill="#fdb462" stroke="#000000" cx="220" cy="-104" rx="59.1083" ry="18"/>
<text text-anchor="middle" x="220" y="-99.8" font-family="Times,serif" font-size="14.00" fill="#000000">AuthService</text>
</g>
<!-- AuthService&#45;&gt;ProgramaModule -->
<g id="edge13" class="edge">
<title>AuthService&#45;&gt;ProgramaModule</title>
<path fill="none" stroke="#000000" d="M220,-122.0449C220,-143.6623 220,-177 220,-177 220,-177 763.7932,-177 763.7932,-177"/>
<polygon fill="#000000" stroke="#000000" points="763.7932,-180.5001 773.7932,-177 763.7932,-173.5001 763.7932,-180.5001"/>
</g>
<!-- CrudService -->
<g id="node14" class="node">
<title>CrudService</title>
<ellipse fill="#fdb462" stroke="#000000" cx="83" cy="-104" rx="59.1083" ry="18"/>
<text text-anchor="middle" x="83" y="-99.8" font-family="Times,serif" font-size="14.00" fill="#000000">CrudService</text>
</g>
<!-- CrudService&#45;&gt;ProgramaModule -->
<g id="edge14" class="edge">
<title>CrudService&#45;&gt;ProgramaModule</title>
<path fill="none" stroke="#000000" d="M83,-122.0908C83,-145.1328 83,-182 83,-182 83,-182 763.8565,-182 763.8565,-182"/>
<polygon fill="#000000" stroke="#000000" points="763.8565,-185.5001 773.8565,-182 763.8564,-178.5001 763.8565,-185.5001"/>
</g>
</g>
</svg>
