<?xml version="1.0" encoding="UTF-8" standalone="no"?>
<!DOCTYPE svg PUBLIC "-//W3C//DTD SVG 1.1//EN"
 "http://www.w3.org/Graphics/SVG/1.1/DTD/svg11.dtd">
<!-- Generated by graphviz version 2.40.1 (20161225.0304)
 -->
<!-- Title: dependencies Pages: 1 -->
<svg width="658pt" height="284pt"
 viewBox="0.00 0.00 658.00 284.00" xmlns="http://www.w3.org/2000/svg" xmlns:xlink="http://www.w3.org/1999/xlink">
<g id="graph0" class="graph" transform="scale(1 1) rotate(0) translate(4 280)">
<title>dependencies</title>
<polygon fill="#ffffff" stroke="transparent" points="-4,4 -4,-280 654,-280 654,4 -4,4"/>
<text text-anchor="start" x="304.0091" y="-42.4" font-family="sans-serif" font-weight="bold" font-size="14.00" fill="#000000">Legend</text>
<polygon fill="#ffffb3" stroke="transparent" points="91,-10 91,-30 111,-30 111,-10 91,-10"/>
<text text-anchor="start" x="114.629" y="-15.4" font-family="sans-serif" font-size="14.00" fill="#000000"> &#160;Declarations</text>
<polygon fill="#8dd3c7" stroke="transparent" points="204,-10 204,-30 224,-30 224,-10 204,-10"/>
<text text-anchor="start" x="227.7251" y="-15.4" font-family="sans-serif" font-size="14.00" fill="#000000"> &#160;Module</text>
<polygon fill="#80b1d3" stroke="transparent" points="290,-10 290,-30 310,-30 310,-10 290,-10"/>
<text text-anchor="start" x="313.7812" y="-15.4" font-family="sans-serif" font-size="14.00" fill="#000000"> &#160;Bootstrap</text>
<polygon fill="#fdb462" stroke="transparent" points="387,-10 387,-30 407,-30 407,-10 387,-10"/>
<text text-anchor="start" x="410.6732" y="-15.4" font-family="sans-serif" font-size="14.00" fill="#000000"> &#160;Providers</text>
<polygon fill="#fb8072" stroke="transparent" points="483,-10 483,-30 503,-30 503,-10 483,-10"/>
<text text-anchor="start" x="506.7258" y="-15.4" font-family="sans-serif" font-size="14.00" fill="#000000"> &#160;Exports</text>
<g id="clust1" class="cluster">
<title>cluster_GraficasModule</title>
<polygon fill="none" stroke="#000000" stroke-dasharray="1,5" points="8,-70 8,-268 642,-268 642,-70 8,-70"/>
</g>
<g id="clust2" class="cluster">
<title>cluster_GraficasModule_declarations</title>
<polygon fill="none" stroke="#000000" points="490,-78 490,-130 634,-130 634,-78 490,-78"/>
</g>
<g id="clust4" class="cluster">
<title>cluster_GraficasModule_imports</title>
<polygon fill="none" stroke="#000000" points="322,-78 322,-130 482,-130 482,-78 322,-78"/>
</g>
<g id="clust5" class="cluster">
<title>cluster_GraficasModule_exports</title>
<polygon fill="none" stroke="#000000" points="250,-208 250,-260 398,-260 398,-208 250,-208"/>
</g>
<g id="clust7" class="cluster">
<title>cluster_GraficasModule_providers</title>
<polygon fill="none" stroke="#000000" points="16,-78 16,-130 314,-130 314,-78 16,-78"/>
</g>
<!-- GraficasComponent -->
<g id="node1" class="node">
<title>GraficasComponent</title>
<polygon fill="#ffffb3" stroke="#000000" points="626.2395,-122 497.7605,-122 497.7605,-86 626.2395,-86 626.2395,-122"/>
<text text-anchor="middle" x="562" y="-99.8" font-family="Times,serif" font-size="14.00" fill="#000000">GraficasComponent</text>
</g>
<!-- GraficasModule -->
<g id="node2" class="node">
<title>GraficasModule</title>
<polygon fill="#8dd3c7" stroke="#000000" points="377.4566,-187 374.4566,-191 353.4566,-191 350.4566,-187 270.5434,-187 270.5434,-151 377.4566,-151 377.4566,-187"/>
<text text-anchor="middle" x="324" y="-164.8" font-family="Times,serif" font-size="14.00" fill="#000000">GraficasModule</text>
</g>
<!-- GraficasComponent&#45;&gt;GraficasModule -->
<g id="edge1" class="edge">
<title>GraficasComponent&#45;&gt;GraficasModule</title>
<path fill="none" stroke="#000000" d="M562,-122.1061C562,-141.3391 562,-169 562,-169 562,-169 387.7086,-169 387.7086,-169"/>
<polygon fill="#000000" stroke="#000000" points="387.7086,-165.5001 377.7086,-169 387.7086,-172.5001 387.7086,-165.5001"/>
</g>
<!-- GraficasComponent  -->
<g id="node4" class="node">
<title>GraficasComponent </title>
<polygon fill="#fb8072" stroke="#000000" points="390.2394,-252 257.7606,-252 257.7606,-216 390.2394,-216 390.2394,-252"/>
<text text-anchor="middle" x="324" y="-229.8" font-family="Times,serif" font-size="14.00" fill="#000000">GraficasComponent </text>
</g>
<!-- GraficasModule&#45;&gt;GraficasComponent  -->
<g id="edge3" class="edge">
<title>GraficasModule&#45;&gt;GraficasComponent </title>
<path fill="none" stroke="#000000" stroke-dasharray="5,2" d="M324,-187.1061C324,-187.1061 324,-205.991 324,-205.991"/>
<polygon fill="#000000" stroke="#000000" points="320.5001,-205.9909 324,-215.991 327.5001,-205.991 320.5001,-205.9909"/>
</g>
<!-- IndexFarmaciaModule -->
<g id="node3" class="node">
<title>IndexFarmaciaModule</title>
<polygon fill="#8dd3c7" stroke="#000000" points="473.5086,-122 470.5086,-126 449.5086,-126 446.5086,-122 330.4914,-122 330.4914,-86 473.5086,-86 473.5086,-122"/>
<text text-anchor="middle" x="402" y="-99.8" font-family="Times,serif" font-size="14.00" fill="#000000">IndexFarmaciaModule</text>
</g>
<!-- IndexFarmaciaModule&#45;&gt;GraficasModule -->
<g id="edge2" class="edge">
<title>IndexFarmaciaModule&#45;&gt;GraficasModule</title>
<path fill="none" stroke="#000000" d="M353.8622,-122.1061C353.8622,-122.1061 353.8622,-140.991 353.8622,-140.991"/>
<polygon fill="#000000" stroke="#000000" points="350.3623,-140.9909 353.8622,-150.991 357.3623,-140.991 350.3623,-140.9909"/>
</g>
<!-- AuthService -->
<g id="node5" class="node">
<title>AuthService</title>
<ellipse fill="#fdb462" stroke="#000000" cx="247" cy="-104" rx="59.1083" ry="18"/>
<text text-anchor="middle" x="247" y="-99.8" font-family="Times,serif" font-size="14.00" fill="#000000">AuthService</text>
</g>
<!-- AuthService&#45;&gt;GraficasModule -->
<g id="edge4" class="edge">
<title>AuthService&#45;&gt;GraficasModule</title>
<path fill="none" stroke="#000000" d="M288.4128,-117.1537C288.4128,-117.1537 288.4128,-140.6938 288.4128,-140.6938"/>
<polygon fill="#000000" stroke="#000000" points="284.9129,-140.6938 288.4128,-150.6938 291.9129,-140.6939 284.9129,-140.6938"/>
</g>
<!-- GraficasService -->
<g id="node6" class="node">
<title>GraficasService</title>
<ellipse fill="#fdb462" stroke="#000000" cx="97" cy="-104" rx="72.885" ry="18"/>
<text text-anchor="middle" x="97" y="-99.8" font-family="Times,serif" font-size="14.00" fill="#000000">GraficasService</text>
</g>
<!-- GraficasService&#45;&gt;GraficasModule -->
<g id="edge5" class="edge">
<title>GraficasService&#45;&gt;GraficasModule</title>
<path fill="none" stroke="#000000" d="M97,-122.1061C97,-141.3391 97,-169 97,-169 97,-169 260.4916,-169 260.4916,-169"/>
<polygon fill="#000000" stroke="#000000" points="260.4917,-172.5001 270.4916,-169 260.4916,-165.5001 260.4917,-172.5001"/>
</g>
</g>
</svg>
