<?xml version="1.0" encoding="UTF-8" standalone="no"?>
<!DOCTYPE svg PUBLIC "-//W3C//DTD SVG 1.1//EN"
 "http://www.w3.org/Graphics/SVG/1.1/DTD/svg11.dtd">
<!-- Generated by graphviz version 2.40.1 (20161225.0304)
 -->
<!-- Title: dependencies Pages: 1 -->
<svg width="1002pt" height="284pt"
 viewBox="0.00 0.00 1002.00 284.00" xmlns="http://www.w3.org/2000/svg" xmlns:xlink="http://www.w3.org/1999/xlink">
<g id="graph0" class="graph" transform="scale(1 1) rotate(0) translate(4 280)">
<title>dependencies</title>
<polygon fill="#ffffff" stroke="transparent" points="-4,4 -4,-280 998,-280 998,4 -4,4"/>
<text text-anchor="start" x="476.0091" y="-42.4" font-family="sans-serif" font-weight="bold" font-size="14.00" fill="#000000">Legend</text>
<polygon fill="#ffffb3" stroke="transparent" points="263,-10 263,-30 283,-30 283,-10 263,-10"/>
<text text-anchor="start" x="286.629" y="-15.4" font-family="sans-serif" font-size="14.00" fill="#000000"> &#160;Declarations</text>
<polygon fill="#8dd3c7" stroke="transparent" points="376,-10 376,-30 396,-30 396,-10 376,-10"/>
<text text-anchor="start" x="399.7251" y="-15.4" font-family="sans-serif" font-size="14.00" fill="#000000"> &#160;Module</text>
<polygon fill="#80b1d3" stroke="transparent" points="462,-10 462,-30 482,-30 482,-10 462,-10"/>
<text text-anchor="start" x="485.7812" y="-15.4" font-family="sans-serif" font-size="14.00" fill="#000000"> &#160;Bootstrap</text>
<polygon fill="#fdb462" stroke="transparent" points="559,-10 559,-30 579,-30 579,-10 559,-10"/>
<text text-anchor="start" x="582.6732" y="-15.4" font-family="sans-serif" font-size="14.00" fill="#000000"> &#160;Providers</text>
<polygon fill="#fb8072" stroke="transparent" points="655,-10 655,-30 675,-30 675,-10 655,-10"/>
<text text-anchor="start" x="678.7258" y="-15.4" font-family="sans-serif" font-size="14.00" fill="#000000"> &#160;Exports</text>
<g id="clust1" class="cluster">
<title>cluster_IndexFarmaciaModule</title>
<polygon fill="none" stroke="#000000" stroke-dasharray="1,5" points="8,-70 8,-268 986,-268 986,-70 8,-70"/>
</g>
<g id="clust2" class="cluster">
<title>cluster_IndexFarmaciaModule_declarations</title>
<polygon fill="none" stroke="#000000" points="612,-78 612,-130 978,-130 978,-78 612,-78"/>
</g>
<g id="clust5" class="cluster">
<title>cluster_IndexFarmaciaModule_imports</title>
<polygon fill="none" stroke="#000000" points="16,-78 16,-130 604,-130 604,-78 16,-78"/>
</g>
<g id="clust6" class="cluster">
<title>cluster_IndexFarmaciaModule_exports</title>
<polygon fill="none" stroke="#000000" points="332,-208 332,-260 518,-260 518,-208 332,-208"/>
</g>
<!-- IndexFarmaciaComponent -->
<g id="node1" class="node">
<title>IndexFarmaciaComponent</title>
<polygon fill="#ffffb3" stroke="#000000" points="969.7907,-122 804.2093,-122 804.2093,-86 969.7907,-86 969.7907,-122"/>
<text text-anchor="middle" x="887" y="-99.8" font-family="Times,serif" font-size="14.00" fill="#000000">IndexFarmaciaComponent</text>
</g>
<!-- IndexFarmaciaModule -->
<g id="node3" class="node">
<title>IndexFarmaciaModule</title>
<polygon fill="#8dd3c7" stroke="#000000" points="496.5086,-187 493.5086,-191 472.5086,-191 469.5086,-187 353.4914,-187 353.4914,-151 496.5086,-151 496.5086,-187"/>
<text text-anchor="middle" x="425" y="-164.8" font-family="Times,serif" font-size="14.00" fill="#000000">IndexFarmaciaModule</text>
</g>
<!-- IndexFarmaciaComponent&#45;&gt;IndexFarmaciaModule -->
<g id="edge1" class="edge">
<title>IndexFarmaciaComponent&#45;&gt;IndexFarmaciaModule</title>
<path fill="none" stroke="#000000" d="M887,-122.2843C887,-143.3211 887,-175 887,-175 887,-175 506.6806,-175 506.6806,-175"/>
<polygon fill="#000000" stroke="#000000" points="506.6806,-171.5001 496.6806,-175 506.6806,-178.5001 506.6806,-171.5001"/>
</g>
<!-- MenuFarmaciaComponent -->
<g id="node2" class="node">
<title>MenuFarmaciaComponent</title>
<polygon fill="#ffffb3" stroke="#000000" points="786.0744,-122 619.9256,-122 619.9256,-86 786.0744,-86 786.0744,-122"/>
<text text-anchor="middle" x="703" y="-99.8" font-family="Times,serif" font-size="14.00" fill="#000000">MenuFarmaciaComponent</text>
</g>
<!-- MenuFarmaciaComponent&#45;&gt;IndexFarmaciaModule -->
<g id="edge2" class="edge">
<title>MenuFarmaciaComponent&#45;&gt;IndexFarmaciaModule</title>
<path fill="none" stroke="#000000" d="M703,-122.0225C703,-139.3734 703,-163 703,-163 703,-163 506.5919,-163 506.5919,-163"/>
<polygon fill="#000000" stroke="#000000" points="506.5919,-159.5001 496.5919,-163 506.5919,-166.5001 506.5919,-159.5001"/>
</g>
<!-- MenuFarmaciaComponent  -->
<g id="node8" class="node">
<title>MenuFarmaciaComponent </title>
<polygon fill="#fb8072" stroke="#000000" points="509.5749,-252 340.4251,-252 340.4251,-216 509.5749,-216 509.5749,-252"/>
<text text-anchor="middle" x="425" y="-229.8" font-family="Times,serif" font-size="14.00" fill="#000000">MenuFarmaciaComponent </text>
</g>
<!-- IndexFarmaciaModule&#45;&gt;MenuFarmaciaComponent  -->
<g id="edge7" class="edge">
<title>IndexFarmaciaModule&#45;&gt;MenuFarmaciaComponent </title>
<path fill="none" stroke="#000000" stroke-dasharray="5,2" d="M425,-187.1061C425,-187.1061 425,-205.991 425,-205.991"/>
<polygon fill="#000000" stroke="#000000" points="421.5001,-205.9909 425,-215.991 428.5001,-205.991 421.5001,-205.9909"/>
</g>
<!-- IndexFarmaciaRoutingModule -->
<g id="node4" class="node">
<title>IndexFarmaciaRoutingModule</title>
<polygon fill="#8dd3c7" stroke="#000000" points="596.126,-122 593.126,-126 572.126,-126 569.126,-122 407.874,-122 407.874,-86 596.126,-86 596.126,-122"/>
<text text-anchor="middle" x="502" y="-99.8" font-family="Times,serif" font-size="14.00" fill="#000000">IndexFarmaciaRoutingModule</text>
</g>
<!-- IndexFarmaciaRoutingModule&#45;&gt;IndexFarmaciaModule -->
<g id="edge3" class="edge">
<title>IndexFarmaciaRoutingModule&#45;&gt;IndexFarmaciaModule</title>
<path fill="none" stroke="#000000" d="M452.2206,-122.1061C452.2206,-122.1061 452.2206,-140.991 452.2206,-140.991"/>
<polygon fill="#000000" stroke="#000000" points="448.7206,-140.9909 452.2206,-150.991 455.7206,-140.991 448.7206,-140.9909"/>
</g>
<!-- HubModule -->
<g id="node5" class="node">
<title>HubModule</title>
<polygon fill="#8dd3c7" stroke="#000000" points="389.6571,-122 386.6571,-126 365.6571,-126 362.6571,-122 306.3429,-122 306.3429,-86 389.6571,-86 389.6571,-122"/>
<text text-anchor="middle" x="348" y="-99.8" font-family="Times,serif" font-size="14.00" fill="#000000">HubModule</text>
</g>
<!-- HubModule&#45;&gt;IndexFarmaciaModule -->
<g id="edge4" class="edge">
<title>HubModule&#45;&gt;IndexFarmaciaModule</title>
<path fill="none" stroke="#000000" d="M371.5372,-122.1061C371.5372,-122.1061 371.5372,-140.991 371.5372,-140.991"/>
<polygon fill="#000000" stroke="#000000" points="368.0372,-140.9909 371.5372,-150.991 375.0372,-140.991 368.0372,-140.9909"/>
</g>
<!-- PerfilModule -->
<g id="node6" class="node">
<title>PerfilModule</title>
<polygon fill="#8dd3c7" stroke="#000000" points="288.1501,-122 285.1501,-126 264.1501,-126 261.1501,-122 197.8499,-122 197.8499,-86 288.1501,-86 288.1501,-122"/>
<text text-anchor="middle" x="243" y="-99.8" font-family="Times,serif" font-size="14.00" fill="#000000">PerfilModule</text>
</g>
<!-- PerfilModule&#45;&gt;IndexFarmaciaModule -->
<g id="edge5" class="edge">
<title>PerfilModule&#45;&gt;IndexFarmaciaModule</title>
<path fill="none" stroke="#000000" d="M243,-122.0225C243,-139.3734 243,-163 243,-163 243,-163 343.33,-163 343.33,-163"/>
<polygon fill="#000000" stroke="#000000" points="343.3301,-166.5001 353.33,-163 343.33,-159.5001 343.3301,-166.5001"/>
</g>
<!-- BloquearPantallaModule -->
<g id="node7" class="node">
<title>BloquearPantallaModule</title>
<polygon fill="#8dd3c7" stroke="#000000" points="179.965,-122 176.965,-126 155.965,-126 152.965,-122 24.035,-122 24.035,-86 179.965,-86 179.965,-122"/>
<text text-anchor="middle" x="102" y="-99.8" font-family="Times,serif" font-size="14.00" fill="#000000">BloquearPantallaModule</text>
</g>
<!-- BloquearPantallaModule&#45;&gt;IndexFarmaciaModule -->
<g id="edge6" class="edge">
<title>BloquearPantallaModule&#45;&gt;IndexFarmaciaModule</title>
<path fill="none" stroke="#000000" d="M102,-122.2843C102,-143.3211 102,-175 102,-175 102,-175 343.3158,-175 343.3158,-175"/>
<polygon fill="#000000" stroke="#000000" points="343.3159,-178.5001 353.3158,-175 343.3158,-171.5001 343.3159,-178.5001"/>
</g>
</g>
</svg>
