<?xml version="1.0" encoding="UTF-8" standalone="no"?>
<!DOCTYPE svg PUBLIC "-//W3C//DTD SVG 1.1//EN"
 "http://www.w3.org/Graphics/SVG/1.1/DTD/svg11.dtd">
<!-- Generated by graphviz version 2.40.1 (20161225.0304)
 -->
<!-- Title: dependencies Pages: 1 -->
<svg width="2092pt" height="211pt"
 viewBox="0.00 0.00 2092.00 211.00" xmlns="http://www.w3.org/2000/svg" xmlns:xlink="http://www.w3.org/1999/xlink">
<g id="graph0" class="graph" transform="scale(1 1) rotate(0) translate(4 207)">
<title>dependencies</title>
<polygon fill="#ffffff" stroke="transparent" points="-4,4 -4,-207 2088,-207 2088,4 -4,4"/>
<text text-anchor="start" x="1021.0091" y="-42.4" font-family="sans-serif" font-weight="bold" font-size="14.00" fill="#000000">Legend</text>
<polygon fill="#ffffb3" stroke="transparent" points="808,-10 808,-30 828,-30 828,-10 808,-10"/>
<text text-anchor="start" x="831.629" y="-15.4" font-family="sans-serif" font-size="14.00" fill="#000000"> &#160;Declarations</text>
<polygon fill="#8dd3c7" stroke="transparent" points="921,-10 921,-30 941,-30 941,-10 921,-10"/>
<text text-anchor="start" x="944.7251" y="-15.4" font-family="sans-serif" font-size="14.00" fill="#000000"> &#160;Module</text>
<polygon fill="#80b1d3" stroke="transparent" points="1007,-10 1007,-30 1027,-30 1027,-10 1007,-10"/>
<text text-anchor="start" x="1030.7812" y="-15.4" font-family="sans-serif" font-size="14.00" fill="#000000"> &#160;Bootstrap</text>
<polygon fill="#fdb462" stroke="transparent" points="1104,-10 1104,-30 1124,-30 1124,-10 1104,-10"/>
<text text-anchor="start" x="1127.6732" y="-15.4" font-family="sans-serif" font-size="14.00" fill="#000000"> &#160;Providers</text>
<polygon fill="#fb8072" stroke="transparent" points="1200,-10 1200,-30 1220,-30 1220,-10 1200,-10"/>
<text text-anchor="start" x="1223.7258" y="-15.4" font-family="sans-serif" font-size="14.00" fill="#000000"> &#160;Exports</text>
<g id="clust1" class="cluster">
<title>cluster_ActasModule</title>
<polygon fill="none" stroke="#000000" stroke-dasharray="1,5" points="8,-70 8,-195 2076,-195 2076,-70 8,-70"/>
</g>
<g id="clust2" class="cluster">
<title>cluster_ActasModule_declarations</title>
<polygon fill="none" stroke="#000000" points="1358,-78 1358,-130 2068,-130 2068,-78 1358,-78"/>
</g>
<g id="clust8" class="cluster">
<title>cluster_ActasModule_imports</title>
<polygon fill="none" stroke="#000000" points="348,-78 348,-130 1350,-130 1350,-78 348,-78"/>
</g>
<g id="clust11" class="cluster">
<title>cluster_ActasModule_providers</title>
<polygon fill="none" stroke="#000000" points="16,-78 16,-130 340,-130 340,-78 16,-78"/>
</g>
<!-- ActasComponent -->
<g id="node1" class="node">
<title>ActasComponent</title>
<polygon fill="#ffffb3" stroke="#000000" points="2059.7036,-122 1946.2964,-122 1946.2964,-86 2059.7036,-86 2059.7036,-122"/>
<text text-anchor="middle" x="2003" y="-99.8" font-family="Times,serif" font-size="14.00" fill="#000000">ActasComponent</text>
</g>
<!-- ActasModule -->
<g id="node6" class="node">
<title>ActasModule</title>
<polygon fill="#8dd3c7" stroke="#000000" points="1169.9218,-187 1166.9218,-191 1145.9218,-191 1142.9218,-187 1078.0782,-187 1078.0782,-151 1169.9218,-151 1169.9218,-187"/>
<text text-anchor="middle" x="1124" y="-164.8" font-family="Times,serif" font-size="14.00" fill="#000000">ActasModule</text>
</g>
<!-- ActasComponent&#45;&gt;ActasModule -->
<g id="edge1" class="edge">
<title>ActasComponent&#45;&gt;ActasModule</title>
<path fill="none" stroke="#000000" d="M2003,-122.0908C2003,-145.1328 2003,-182 2003,-182 2003,-182 1179.7141,-182 1179.7141,-182"/>
<polygon fill="#000000" stroke="#000000" points="1179.7142,-178.5001 1169.7141,-182 1179.7141,-185.5001 1179.7142,-178.5001"/>
</g>
<!-- MenuLateralComponent -->
<g id="node2" class="node">
<title>MenuLateralComponent</title>
<polygon fill="#ffffb3" stroke="#000000" points="1928.6302,-122 1775.3698,-122 1775.3698,-86 1928.6302,-86 1928.6302,-122"/>
<text text-anchor="middle" x="1852" y="-99.8" font-family="Times,serif" font-size="14.00" fill="#000000">MenuLateralComponent</text>
</g>
<!-- MenuLateralComponent&#45;&gt;ActasModule -->
<g id="edge2" class="edge">
<title>MenuLateralComponent&#45;&gt;ActasModule</title>
<path fill="none" stroke="#000000" d="M1852,-122.0449C1852,-143.6623 1852,-177 1852,-177 1852,-177 1179.8154,-177 1179.8154,-177"/>
<polygon fill="#000000" stroke="#000000" points="1179.8155,-173.5001 1169.8154,-177 1179.8154,-180.5001 1179.8155,-173.5001"/>
</g>
<!-- ListaComponent -->
<g id="node3" class="node">
<title>ListaComponent</title>
<polygon fill="#ffffb3" stroke="#000000" points="1757.8259,-122 1648.1741,-122 1648.1741,-86 1757.8259,-86 1757.8259,-122"/>
<text text-anchor="middle" x="1703" y="-99.8" font-family="Times,serif" font-size="14.00" fill="#000000">ListaComponent</text>
</g>
<!-- ListaComponent&#45;&gt;ActasModule -->
<g id="edge3" class="edge">
<title>ListaComponent&#45;&gt;ActasModule</title>
<path fill="none" stroke="#000000" d="M1703,-122.2228C1703,-142.3652 1703,-172 1703,-172 1703,-172 1179.9171,-172 1179.9171,-172"/>
<polygon fill="#000000" stroke="#000000" points="1179.9172,-168.5001 1169.9171,-172 1179.9171,-175.5001 1179.9172,-168.5001"/>
</g>
<!-- VerComponent -->
<g id="node4" class="node">
<title>VerComponent</title>
<polygon fill="#ffffb3" stroke="#000000" points="1630.3147,-122 1527.6853,-122 1527.6853,-86 1630.3147,-86 1630.3147,-122"/>
<text text-anchor="middle" x="1579" y="-99.8" font-family="Times,serif" font-size="14.00" fill="#000000">VerComponent</text>
</g>
<!-- VerComponent&#45;&gt;ActasModule -->
<g id="edge4" class="edge">
<title>VerComponent&#45;&gt;ActasModule</title>
<path fill="none" stroke="#000000" d="M1579,-122.2222C1579,-140.8285 1579,-167 1579,-167 1579,-167 1180.1318,-167 1180.1318,-167"/>
<polygon fill="#000000" stroke="#000000" points="1180.1318,-163.5001 1170.1318,-167 1180.1317,-170.5001 1180.1318,-163.5001"/>
</g>
<!-- FormularioComponent -->
<g id="node5" class="node">
<title>FormularioComponent</title>
<polygon fill="#ffffb3" stroke="#000000" points="1510.323,-122 1365.677,-122 1365.677,-86 1510.323,-86 1510.323,-122"/>
<text text-anchor="middle" x="1438" y="-99.8" font-family="Times,serif" font-size="14.00" fill="#000000">FormularioComponent</text>
</g>
<!-- FormularioComponent&#45;&gt;ActasModule -->
<g id="edge5" class="edge">
<title>FormularioComponent&#45;&gt;ActasModule</title>
<path fill="none" stroke="#000000" d="M1438,-122.0336C1438,-139.0597 1438,-162 1438,-162 1438,-162 1179.9946,-162 1179.9946,-162"/>
<polygon fill="#000000" stroke="#000000" points="1179.9946,-158.5001 1169.9946,-162 1179.9945,-165.5001 1179.9946,-158.5001"/>
</g>
<!-- HubModule -->
<g id="node7" class="node">
<title>HubModule</title>
<polygon fill="#8dd3c7" stroke="#000000" points="1341.6571,-122 1338.6571,-126 1317.6571,-126 1314.6571,-122 1258.3429,-122 1258.3429,-86 1341.6571,-86 1341.6571,-122"/>
<text text-anchor="middle" x="1300" y="-99.8" font-family="Times,serif" font-size="14.00" fill="#000000">HubModule</text>
</g>
<!-- HubModule&#45;&gt;ActasModule -->
<g id="edge6" class="edge">
<title>HubModule&#45;&gt;ActasModule</title>
<path fill="none" stroke="#000000" d="M1300,-122.2396C1300,-137.5706 1300,-157 1300,-157 1300,-157 1179.7825,-157 1179.7825,-157"/>
<polygon fill="#000000" stroke="#000000" points="1179.7825,-153.5001 1169.7825,-157 1179.7824,-160.5001 1179.7825,-153.5001"/>
</g>
<!-- PerfilModule -->
<g id="node8" class="node">
<title>PerfilModule</title>
<polygon fill="#8dd3c7" stroke="#000000" points="1240.1501,-122 1237.1501,-126 1216.1501,-126 1213.1501,-122 1149.8499,-122 1149.8499,-86 1240.1501,-86 1240.1501,-122"/>
<text text-anchor="middle" x="1195" y="-99.8" font-family="Times,serif" font-size="14.00" fill="#000000">PerfilModule</text>
</g>
<!-- PerfilModule&#45;&gt;ActasModule -->
<g id="edge7" class="edge">
<title>PerfilModule&#45;&gt;ActasModule</title>
<path fill="none" stroke="#000000" d="M1159.6929,-122.1061C1159.6929,-122.1061 1159.6929,-140.991 1159.6929,-140.991"/>
<polygon fill="#000000" stroke="#000000" points="1156.1929,-140.9909 1159.6929,-150.991 1163.1929,-140.991 1156.1929,-140.9909"/>
</g>
<!-- BloquearPantallaModule -->
<g id="node9" class="node">
<title>BloquearPantallaModule</title>
<polygon fill="#8dd3c7" stroke="#000000" points="1131.965,-122 1128.965,-126 1107.965,-126 1104.965,-122 976.035,-122 976.035,-86 1131.965,-86 1131.965,-122"/>
<text text-anchor="middle" x="1054" y="-99.8" font-family="Times,serif" font-size="14.00" fill="#000000">BloquearPantallaModule</text>
</g>
<!-- BloquearPantallaModule&#45;&gt;ActasModule -->
<g id="edge8" class="edge">
<title>BloquearPantallaModule&#45;&gt;ActasModule</title>
<path fill="none" stroke="#000000" d="M1105.1361,-122.1061C1105.1361,-122.1061 1105.1361,-140.991 1105.1361,-140.991"/>
<polygon fill="#000000" stroke="#000000" points="1101.6361,-140.9909 1105.1361,-150.991 1108.6361,-140.991 1101.6361,-140.9909"/>
</g>
<!-- PaginacionModule -->
<g id="node10" class="node">
<title>PaginacionModule</title>
<polygon fill="#8dd3c7" stroke="#000000" points="957.7576,-122 954.7576,-126 933.7576,-126 930.7576,-122 836.2424,-122 836.2424,-86 957.7576,-86 957.7576,-122"/>
<text text-anchor="middle" x="897" y="-99.8" font-family="Times,serif" font-size="14.00" fill="#000000">PaginacionModule</text>
</g>
<!-- PaginacionModule&#45;&gt;ActasModule -->
<g id="edge9" class="edge">
<title>PaginacionModule&#45;&gt;ActasModule</title>
<path fill="none" stroke="#000000" d="M897,-122.2396C897,-137.5706 897,-157 897,-157 897,-157 1068.0632,-157 1068.0632,-157"/>
<polygon fill="#000000" stroke="#000000" points="1068.0632,-160.5001 1078.0632,-157 1068.0631,-153.5001 1068.0632,-160.5001"/>
</g>
<!-- BuscarInsumosModule -->
<g id="node11" class="node">
<title>BuscarInsumosModule</title>
<polygon fill="#8dd3c7" stroke="#000000" points="817.8613,-122 814.8613,-126 793.8613,-126 790.8613,-122 672.1387,-122 672.1387,-86 817.8613,-86 817.8613,-122"/>
<text text-anchor="middle" x="745" y="-99.8" font-family="Times,serif" font-size="14.00" fill="#000000">BuscarInsumosModule</text>
</g>
<!-- BuscarInsumosModule&#45;&gt;ActasModule -->
<g id="edge10" class="edge">
<title>BuscarInsumosModule&#45;&gt;ActasModule</title>
<path fill="none" stroke="#000000" d="M745,-122.0336C745,-139.0597 745,-162 745,-162 745,-162 1068.2837,-162 1068.2837,-162"/>
<polygon fill="#000000" stroke="#000000" points="1068.2838,-165.5001 1078.2837,-162 1068.2837,-158.5001 1068.2838,-165.5001"/>
</g>
<!-- ActasRoutingModule -->
<g id="node12" class="node">
<title>ActasRoutingModule</title>
<polygon fill="#8dd3c7" stroke="#000000" points="654.0394,-122 651.0394,-126 630.0394,-126 627.0394,-122 517.9606,-122 517.9606,-86 654.0394,-86 654.0394,-122"/>
<text text-anchor="middle" x="586" y="-99.8" font-family="Times,serif" font-size="14.00" fill="#000000">ActasRoutingModule</text>
</g>
<!-- ActasRoutingModule&#45;&gt;ActasModule -->
<g id="edge11" class="edge">
<title>ActasRoutingModule&#45;&gt;ActasModule</title>
<path fill="none" stroke="#000000" d="M586,-122.2222C586,-140.8285 586,-167 586,-167 586,-167 1068.1304,-167 1068.1304,-167"/>
<polygon fill="#000000" stroke="#000000" points="1068.1305,-170.5001 1078.1304,-167 1068.1304,-163.5001 1068.1305,-170.5001"/>
</g>
<!-- IndexFarmaciaModule -->
<g id="node13" class="node">
<title>IndexFarmaciaModule</title>
<polygon fill="#8dd3c7" stroke="#000000" points="499.5086,-122 496.5086,-126 475.5086,-126 472.5086,-122 356.4914,-122 356.4914,-86 499.5086,-86 499.5086,-122"/>
<text text-anchor="middle" x="428" y="-99.8" font-family="Times,serif" font-size="14.00" fill="#000000">IndexFarmaciaModule</text>
</g>
<!-- IndexFarmaciaModule&#45;&gt;ActasModule -->
<g id="edge12" class="edge">
<title>IndexFarmaciaModule&#45;&gt;ActasModule</title>
<path fill="none" stroke="#000000" d="M428,-122.2228C428,-142.3652 428,-172 428,-172 428,-172 1068.0643,-172 1068.0643,-172"/>
<polygon fill="#000000" stroke="#000000" points="1068.0644,-175.5001 1078.0643,-172 1068.0643,-168.5001 1068.0644,-175.5001"/>
</g>
<!-- ActasService -->
<g id="node14" class="node">
<title>ActasService</title>
<ellipse fill="#fdb462" stroke="#000000" cx="270" cy="-104" rx="61.9519" ry="18"/>
<text text-anchor="middle" x="270" y="-99.8" font-family="Times,serif" font-size="14.00" fill="#000000">ActasService</text>
</g>
<!-- ActasService&#45;&gt;ActasModule -->
<g id="edge13" class="edge">
<title>ActasService&#45;&gt;ActasModule</title>
<path fill="none" stroke="#000000" d="M270,-122.0449C270,-143.6623 270,-177 270,-177 270,-177 1068.0853,-177 1068.0853,-177"/>
<polygon fill="#000000" stroke="#000000" points="1068.0853,-180.5001 1078.0853,-177 1068.0852,-173.5001 1068.0853,-180.5001"/>
</g>
<!-- AlmacenesService -->
<g id="node15" class="node">
<title>AlmacenesService</title>
<ellipse fill="#fdb462" stroke="#000000" cx="107" cy="-104" rx="82.7801" ry="18"/>
<text text-anchor="middle" x="107" y="-99.8" font-family="Times,serif" font-size="14.00" fill="#000000">AlmacenesService</text>
</g>
<!-- AlmacenesService&#45;&gt;ActasModule -->
<g id="edge14" class="edge">
<title>AlmacenesService&#45;&gt;ActasModule</title>
<path fill="none" stroke="#000000" d="M107,-122.0908C107,-145.1328 107,-182 107,-182 107,-182 1067.993,-182 1067.993,-182"/>
<polygon fill="#000000" stroke="#000000" points="1067.993,-185.5001 1077.993,-182 1067.9929,-178.5001 1067.993,-185.5001"/>
</g>
</g>
</svg>
