<?xml version="1.0" encoding="UTF-8" standalone="no"?>
<!DOCTYPE svg PUBLIC "-//W3C//DTD SVG 1.1//EN"
 "http://www.w3.org/Graphics/SVG/1.1/DTD/svg11.dtd">
<!-- Generated by graphviz version 2.40.1 (20161225.0304)
 -->
<!-- Title: dependencies Pages: 1 -->
<svg width="1849pt" height="211pt"
 viewBox="0.00 0.00 1849.00 211.00" xmlns="http://www.w3.org/2000/svg" xmlns:xlink="http://www.w3.org/1999/xlink">
<g id="graph0" class="graph" transform="scale(1 1) rotate(0) translate(4 207)">
<title>dependencies</title>
<polygon fill="#ffffff" stroke="transparent" points="-4,4 -4,-207 1845,-207 1845,4 -4,4"/>
<text text-anchor="start" x="899.5091" y="-42.4" font-family="sans-serif" font-weight="bold" font-size="14.00" fill="#000000">Legend</text>
<polygon fill="#ffffb3" stroke="transparent" points="686.5,-10 686.5,-30 706.5,-30 706.5,-10 686.5,-10"/>
<text text-anchor="start" x="710.129" y="-15.4" font-family="sans-serif" font-size="14.00" fill="#000000"> &#160;Declarations</text>
<polygon fill="#8dd3c7" stroke="transparent" points="799.5,-10 799.5,-30 819.5,-30 819.5,-10 799.5,-10"/>
<text text-anchor="start" x="823.2251" y="-15.4" font-family="sans-serif" font-size="14.00" fill="#000000"> &#160;Module</text>
<polygon fill="#80b1d3" stroke="transparent" points="885.5,-10 885.5,-30 905.5,-30 905.5,-10 885.5,-10"/>
<text text-anchor="start" x="909.2812" y="-15.4" font-family="sans-serif" font-size="14.00" fill="#000000"> &#160;Bootstrap</text>
<polygon fill="#fdb462" stroke="transparent" points="982.5,-10 982.5,-30 1002.5,-30 1002.5,-10 982.5,-10"/>
<text text-anchor="start" x="1006.1732" y="-15.4" font-family="sans-serif" font-size="14.00" fill="#000000"> &#160;Providers</text>
<polygon fill="#fb8072" stroke="transparent" points="1078.5,-10 1078.5,-30 1098.5,-30 1098.5,-10 1078.5,-10"/>
<text text-anchor="start" x="1102.2258" y="-15.4" font-family="sans-serif" font-size="14.00" fill="#000000"> &#160;Exports</text>
<g id="clust1" class="cluster">
<title>cluster_ServiciosModule</title>
<polygon fill="none" stroke="#000000" stroke-dasharray="1,5" points="8,-70 8,-195 1833,-195 1833,-70 8,-70"/>
</g>
<g id="clust2" class="cluster">
<title>cluster_ServiciosModule_declarations</title>
<polygon fill="none" stroke="#000000" points="1537,-78 1537,-130 1825,-130 1825,-78 1537,-78"/>
</g>
<g id="clust5" class="cluster">
<title>cluster_ServiciosModule_imports</title>
<polygon fill="none" stroke="#000000" points="295,-78 295,-130 1529,-130 1529,-78 295,-78"/>
</g>
<g id="clust8" class="cluster">
<title>cluster_ServiciosModule_providers</title>
<polygon fill="none" stroke="#000000" points="16,-78 16,-130 287,-130 287,-78 16,-78"/>
</g>
<!-- ListaComponent -->
<g id="node1" class="node">
<title>ListaComponent</title>
<polygon fill="#ffffb3" stroke="#000000" points="1816.8259,-122 1707.1741,-122 1707.1741,-86 1816.8259,-86 1816.8259,-122"/>
<text text-anchor="middle" x="1762" y="-99.8" font-family="Times,serif" font-size="14.00" fill="#000000">ListaComponent</text>
</g>
<!-- ServiciosModule -->
<g id="node3" class="node">
<title>ServiciosModule</title>
<polygon fill="#8dd3c7" stroke="#000000" points="957.6486,-187 954.6486,-191 933.6486,-191 930.6486,-187 846.3514,-187 846.3514,-151 957.6486,-151 957.6486,-187"/>
<text text-anchor="middle" x="902" y="-164.8" font-family="Times,serif" font-size="14.00" fill="#000000">ServiciosModule</text>
</g>
<!-- ListaComponent&#45;&gt;ServiciosModule -->
<g id="edge1" class="edge">
<title>ListaComponent&#45;&gt;ServiciosModule</title>
<path fill="none" stroke="#000000" d="M1762,-122.0908C1762,-145.1328 1762,-182 1762,-182 1762,-182 967.7644,-182 967.7644,-182"/>
<polygon fill="#000000" stroke="#000000" points="967.7644,-178.5001 957.7644,-182 967.7643,-185.5001 967.7644,-178.5001"/>
</g>
<!-- FormularioComponent -->
<g id="node2" class="node">
<title>FormularioComponent</title>
<polygon fill="#ffffb3" stroke="#000000" points="1689.323,-122 1544.677,-122 1544.677,-86 1689.323,-86 1689.323,-122"/>
<text text-anchor="middle" x="1617" y="-99.8" font-family="Times,serif" font-size="14.00" fill="#000000">FormularioComponent</text>
</g>
<!-- FormularioComponent&#45;&gt;ServiciosModule -->
<g id="edge2" class="edge">
<title>FormularioComponent&#45;&gt;ServiciosModule</title>
<path fill="none" stroke="#000000" d="M1617,-122.0449C1617,-143.6623 1617,-177 1617,-177 1617,-177 967.807,-177 967.807,-177"/>
<polygon fill="#000000" stroke="#000000" points="967.8071,-173.5001 957.807,-177 967.807,-180.5001 967.8071,-173.5001"/>
</g>
<!-- ServiciosRoutingModule -->
<g id="node4" class="node">
<title>ServiciosRoutingModule</title>
<polygon fill="#8dd3c7" stroke="#000000" points="1521.266,-122 1518.266,-126 1497.266,-126 1494.266,-122 1364.734,-122 1364.734,-86 1521.266,-86 1521.266,-122"/>
<text text-anchor="middle" x="1443" y="-99.8" font-family="Times,serif" font-size="14.00" fill="#000000">ServiciosRoutingModule</text>
</g>
<!-- ServiciosRoutingModule&#45;&gt;ServiciosModule -->
<g id="edge3" class="edge">
<title>ServiciosRoutingModule&#45;&gt;ServiciosModule</title>
<path fill="none" stroke="#000000" d="M1443,-122.2228C1443,-142.3652 1443,-172 1443,-172 1443,-172 967.8588,-172 967.8588,-172"/>
<polygon fill="#000000" stroke="#000000" points="967.8589,-168.5001 957.8588,-172 967.8588,-175.5001 967.8589,-168.5001"/>
</g>
<!-- HubModule -->
<g id="node5" class="node">
<title>HubModule</title>
<polygon fill="#8dd3c7" stroke="#000000" points="1346.6571,-122 1343.6571,-126 1322.6571,-126 1319.6571,-122 1263.3429,-122 1263.3429,-86 1346.6571,-86 1346.6571,-122"/>
<text text-anchor="middle" x="1305" y="-99.8" font-family="Times,serif" font-size="14.00" fill="#000000">HubModule</text>
</g>
<!-- HubModule&#45;&gt;ServiciosModule -->
<g id="edge4" class="edge">
<title>HubModule&#45;&gt;ServiciosModule</title>
<path fill="none" stroke="#000000" d="M1305,-122.2222C1305,-140.8285 1305,-167 1305,-167 1305,-167 968.0354,-167 968.0354,-167"/>
<polygon fill="#000000" stroke="#000000" points="968.0355,-163.5001 958.0354,-167 968.0354,-170.5001 968.0355,-163.5001"/>
</g>
<!-- PerfilModule -->
<g id="node6" class="node">
<title>PerfilModule</title>
<polygon fill="#8dd3c7" stroke="#000000" points="1245.1501,-122 1242.1501,-126 1221.1501,-126 1218.1501,-122 1154.8499,-122 1154.8499,-86 1245.1501,-86 1245.1501,-122"/>
<text text-anchor="middle" x="1200" y="-99.8" font-family="Times,serif" font-size="14.00" fill="#000000">PerfilModule</text>
</g>
<!-- PerfilModule&#45;&gt;ServiciosModule -->
<g id="edge5" class="edge">
<title>PerfilModule&#45;&gt;ServiciosModule</title>
<path fill="none" stroke="#000000" d="M1200,-122.0336C1200,-139.0597 1200,-162 1200,-162 1200,-162 967.7019,-162 967.7019,-162"/>
<polygon fill="#000000" stroke="#000000" points="967.702,-158.5001 957.7019,-162 967.7019,-165.5001 967.702,-158.5001"/>
</g>
<!-- BloquearPantallaModule -->
<g id="node7" class="node">
<title>BloquearPantallaModule</title>
<polygon fill="#8dd3c7" stroke="#000000" points="1136.965,-122 1133.965,-126 1112.965,-126 1109.965,-122 981.035,-122 981.035,-86 1136.965,-86 1136.965,-122"/>
<text text-anchor="middle" x="1059" y="-99.8" font-family="Times,serif" font-size="14.00" fill="#000000">BloquearPantallaModule</text>
</g>
<!-- BloquearPantallaModule&#45;&gt;ServiciosModule -->
<g id="edge6" class="edge">
<title>BloquearPantallaModule&#45;&gt;ServiciosModule</title>
<path fill="none" stroke="#000000" d="M1059,-122.2396C1059,-137.5706 1059,-157 1059,-157 1059,-157 967.7944,-157 967.7944,-157"/>
<polygon fill="#000000" stroke="#000000" points="967.7944,-153.5001 957.7944,-157 967.7944,-160.5001 967.7944,-153.5001"/>
</g>
<!-- PaginacionModule -->
<g id="node8" class="node">
<title>PaginacionModule</title>
<polygon fill="#8dd3c7" stroke="#000000" points="962.7576,-122 959.7576,-126 938.7576,-126 935.7576,-122 841.2424,-122 841.2424,-86 962.7576,-86 962.7576,-122"/>
<text text-anchor="middle" x="902" y="-99.8" font-family="Times,serif" font-size="14.00" fill="#000000">PaginacionModule</text>
</g>
<!-- PaginacionModule&#45;&gt;ServiciosModule -->
<g id="edge7" class="edge">
<title>PaginacionModule&#45;&gt;ServiciosModule</title>
<path fill="none" stroke="#000000" d="M902,-122.1061C902,-122.1061 902,-140.991 902,-140.991"/>
<polygon fill="#000000" stroke="#000000" points="898.5001,-140.9909 902,-150.991 905.5001,-140.991 898.5001,-140.9909"/>
</g>
<!-- MenuPanelModule -->
<g id="node9" class="node">
<title>MenuPanelModule</title>
<polygon fill="#8dd3c7" stroke="#000000" points="822.8118,-122 819.8118,-126 798.8118,-126 795.8118,-122 699.1882,-122 699.1882,-86 822.8118,-86 822.8118,-122"/>
<text text-anchor="middle" x="761" y="-99.8" font-family="Times,serif" font-size="14.00" fill="#000000">MenuPanelModule</text>
</g>
<!-- MenuPanelModule&#45;&gt;ServiciosModule -->
<g id="edge8" class="edge">
<title>MenuPanelModule&#45;&gt;ServiciosModule</title>
<path fill="none" stroke="#000000" d="M761,-122.2396C761,-137.5706 761,-157 761,-157 761,-157 836.2731,-157 836.2731,-157"/>
<polygon fill="#000000" stroke="#000000" points="836.2731,-160.5001 846.2731,-157 836.273,-153.5001 836.2731,-160.5001"/>
</g>
<!-- MenuAsidePanelModule -->
<g id="node10" class="node">
<title>MenuAsidePanelModule</title>
<polygon fill="#8dd3c7" stroke="#000000" points="680.9678,-122 677.9678,-126 656.9678,-126 653.9678,-122 525.0322,-122 525.0322,-86 680.9678,-86 680.9678,-122"/>
<text text-anchor="middle" x="603" y="-99.8" font-family="Times,serif" font-size="14.00" fill="#000000">MenuAsidePanelModule</text>
</g>
<!-- MenuAsidePanelModule&#45;&gt;ServiciosModule -->
<g id="edge9" class="edge">
<title>MenuAsidePanelModule&#45;&gt;ServiciosModule</title>
<path fill="none" stroke="#000000" d="M603,-122.0336C603,-139.0597 603,-162 603,-162 603,-162 836.1111,-162 836.1111,-162"/>
<polygon fill="#000000" stroke="#000000" points="836.1112,-165.5001 846.1111,-162 836.1111,-158.5001 836.1112,-165.5001"/>
</g>
<!-- CrudModule -->
<g id="node11" class="node">
<title>CrudModule</title>
<polygon fill="#8dd3c7" stroke="#000000" points="506.5482,-122 503.5482,-126 482.5482,-126 479.5482,-122 419.4518,-122 419.4518,-86 506.5482,-86 506.5482,-122"/>
<text text-anchor="middle" x="463" y="-99.8" font-family="Times,serif" font-size="14.00" fill="#000000">CrudModule</text>
</g>
<!-- CrudModule&#45;&gt;ServiciosModule -->
<g id="edge10" class="edge">
<title>CrudModule&#45;&gt;ServiciosModule</title>
<path fill="none" stroke="#000000" d="M463,-122.2222C463,-140.8285 463,-167 463,-167 463,-167 835.9544,-167 835.9544,-167"/>
<polygon fill="#000000" stroke="#000000" points="835.9545,-170.5001 845.9544,-167 835.9544,-163.5001 835.9545,-170.5001"/>
</g>
<!-- ParcialModule -->
<g id="node12" class="node">
<title>ParcialModule</title>
<polygon fill="#8dd3c7" stroke="#000000" points="401.4189,-122 398.4189,-126 377.4189,-126 374.4189,-122 302.5811,-122 302.5811,-86 401.4189,-86 401.4189,-122"/>
<text text-anchor="middle" x="352" y="-99.8" font-family="Times,serif" font-size="14.00" fill="#000000">ParcialModule</text>
</g>
<!-- ParcialModule&#45;&gt;ServiciosModule -->
<g id="edge11" class="edge">
<title>ParcialModule&#45;&gt;ServiciosModule</title>
<path fill="none" stroke="#000000" d="M352,-122.2228C352,-142.3652 352,-172 352,-172 352,-172 836.2363,-172 836.2363,-172"/>
<polygon fill="#000000" stroke="#000000" points="836.2364,-175.5001 846.2363,-172 836.2363,-168.5001 836.2364,-175.5001"/>
</g>
<!-- AuthService -->
<g id="node13" class="node">
<title>AuthService</title>
<ellipse fill="#fdb462" stroke="#000000" cx="220" cy="-104" rx="59.1083" ry="18"/>
<text text-anchor="middle" x="220" y="-99.8" font-family="Times,serif" font-size="14.00" fill="#000000">AuthService</text>
</g>
<!-- AuthService&#45;&gt;ServiciosModule -->
<g id="edge12" class="edge">
<title>AuthService&#45;&gt;ServiciosModule</title>
<path fill="none" stroke="#000000" d="M220,-122.0449C220,-143.6623 220,-177 220,-177 220,-177 836.1891,-177 836.1891,-177"/>
<polygon fill="#000000" stroke="#000000" points="836.1891,-180.5001 846.1891,-177 836.189,-173.5001 836.1891,-180.5001"/>
</g>
<!-- CrudService -->
<g id="node14" class="node">
<title>CrudService</title>
<ellipse fill="#fdb462" stroke="#000000" cx="83" cy="-104" rx="59.1083" ry="18"/>
<text text-anchor="middle" x="83" y="-99.8" font-family="Times,serif" font-size="14.00" fill="#000000">CrudService</text>
</g>
<!-- CrudService&#45;&gt;ServiciosModule -->
<g id="edge13" class="edge">
<title>CrudService&#45;&gt;ServiciosModule</title>
<path fill="none" stroke="#000000" d="M83,-122.0908C83,-145.1328 83,-182 83,-182 83,-182 836.3507,-182 836.3507,-182"/>
<polygon fill="#000000" stroke="#000000" points="836.3507,-185.5001 846.3507,-182 836.3507,-178.5001 836.3507,-185.5001"/>
</g>
</g>
</svg>
