<?xml version="1.0" encoding="UTF-8" standalone="no"?>
<!DOCTYPE svg PUBLIC "-//W3C//DTD SVG 1.1//EN"
 "http://www.w3.org/Graphics/SVG/1.1/DTD/svg11.dtd">
<!-- Generated by graphviz version 2.40.1 (20161225.0304)
 -->
<!-- Title: dependencies Pages: 1 -->
<svg width="1904pt" height="211pt"
 viewBox="0.00 0.00 1904.00 211.00" xmlns="http://www.w3.org/2000/svg" xmlns:xlink="http://www.w3.org/1999/xlink">
<g id="graph0" class="graph" transform="scale(1 1) rotate(0) translate(4 207)">
<title>dependencies</title>
<polygon fill="#ffffff" stroke="transparent" points="-4,4 -4,-207 1900,-207 1900,4 -4,4"/>
<text text-anchor="start" x="927.0091" y="-42.4" font-family="sans-serif" font-weight="bold" font-size="14.00" fill="#000000">Legend</text>
<polygon fill="#ffffb3" stroke="transparent" points="714,-10 714,-30 734,-30 734,-10 714,-10"/>
<text text-anchor="start" x="737.629" y="-15.4" font-family="sans-serif" font-size="14.00" fill="#000000"> &#160;Declarations</text>
<polygon fill="#8dd3c7" stroke="transparent" points="827,-10 827,-30 847,-30 847,-10 827,-10"/>
<text text-anchor="start" x="850.7251" y="-15.4" font-family="sans-serif" font-size="14.00" fill="#000000"> &#160;Module</text>
<polygon fill="#80b1d3" stroke="transparent" points="913,-10 913,-30 933,-30 933,-10 913,-10"/>
<text text-anchor="start" x="936.7812" y="-15.4" font-family="sans-serif" font-size="14.00" fill="#000000"> &#160;Bootstrap</text>
<polygon fill="#fdb462" stroke="transparent" points="1010,-10 1010,-30 1030,-30 1030,-10 1010,-10"/>
<text text-anchor="start" x="1033.6732" y="-15.4" font-family="sans-serif" font-size="14.00" fill="#000000"> &#160;Providers</text>
<polygon fill="#fb8072" stroke="transparent" points="1106,-10 1106,-30 1126,-30 1126,-10 1106,-10"/>
<text text-anchor="start" x="1129.7258" y="-15.4" font-family="sans-serif" font-size="14.00" fill="#000000"> &#160;Exports</text>
<g id="clust1" class="cluster">
<title>cluster_TiposMovimientosModule</title>
<polygon fill="none" stroke="#000000" stroke-dasharray="1,5" points="8,-70 8,-195 1888,-195 1888,-70 8,-70"/>
</g>
<g id="clust2" class="cluster">
<title>cluster_TiposMovimientosModule_declarations</title>
<polygon fill="none" stroke="#000000" points="1592,-78 1592,-130 1880,-130 1880,-78 1592,-78"/>
</g>
<g id="clust5" class="cluster">
<title>cluster_TiposMovimientosModule_imports</title>
<polygon fill="none" stroke="#000000" points="295,-78 295,-130 1584,-130 1584,-78 295,-78"/>
</g>
<g id="clust8" class="cluster">
<title>cluster_TiposMovimientosModule_providers</title>
<polygon fill="none" stroke="#000000" points="16,-78 16,-130 287,-130 287,-78 16,-78"/>
</g>
<!-- ListaComponent -->
<g id="node1" class="node">
<title>ListaComponent</title>
<polygon fill="#ffffb3" stroke="#000000" points="1871.8259,-122 1762.1741,-122 1762.1741,-86 1871.8259,-86 1871.8259,-122"/>
<text text-anchor="middle" x="1817" y="-99.8" font-family="Times,serif" font-size="14.00" fill="#000000">ListaComponent</text>
</g>
<!-- TiposMovimientosModule -->
<g id="node3" class="node">
<title>TiposMovimientosModule</title>
<polygon fill="#8dd3c7" stroke="#000000" points="985.1038,-187 982.1038,-191 961.1038,-191 958.1038,-187 818.8962,-187 818.8962,-151 985.1038,-151 985.1038,-187"/>
<text text-anchor="middle" x="902" y="-164.8" font-family="Times,serif" font-size="14.00" fill="#000000">TiposMovimientosModule</text>
</g>
<!-- ListaComponent&#45;&gt;TiposMovimientosModule -->
<g id="edge1" class="edge">
<title>ListaComponent&#45;&gt;TiposMovimientosModule</title>
<path fill="none" stroke="#000000" d="M1817,-122.0908C1817,-145.1328 1817,-182 1817,-182 1817,-182 995.2195,-182 995.2195,-182"/>
<polygon fill="#000000" stroke="#000000" points="995.2195,-178.5001 985.2195,-182 995.2194,-185.5001 995.2195,-178.5001"/>
</g>
<!-- FormularioComponent -->
<g id="node2" class="node">
<title>FormularioComponent</title>
<polygon fill="#ffffb3" stroke="#000000" points="1744.323,-122 1599.677,-122 1599.677,-86 1744.323,-86 1744.323,-122"/>
<text text-anchor="middle" x="1672" y="-99.8" font-family="Times,serif" font-size="14.00" fill="#000000">FormularioComponent</text>
</g>
<!-- FormularioComponent&#45;&gt;TiposMovimientosModule -->
<g id="edge2" class="edge">
<title>FormularioComponent&#45;&gt;TiposMovimientosModule</title>
<path fill="none" stroke="#000000" d="M1672,-122.2843C1672,-143.3211 1672,-175 1672,-175 1672,-175 995.1351,-175 995.1351,-175"/>
<polygon fill="#000000" stroke="#000000" points="995.1351,-171.5001 985.1351,-175 995.1351,-178.5001 995.1351,-171.5001"/>
</g>
<!-- TiposMovimientosRoutingModule -->
<g id="node4" class="node">
<title>TiposMovimientosRoutingModule</title>
<polygon fill="#8dd3c7" stroke="#000000" points="1575.7217,-122 1572.7217,-126 1551.7217,-126 1548.7217,-122 1364.2783,-122 1364.2783,-86 1575.7217,-86 1575.7217,-122"/>
<text text-anchor="middle" x="1470" y="-99.8" font-family="Times,serif" font-size="14.00" fill="#000000">TiposMovimientosRoutingModule</text>
</g>
<!-- TiposMovimientosRoutingModule&#45;&gt;TiposMovimientosModule -->
<g id="edge3" class="edge">
<title>TiposMovimientosRoutingModule&#45;&gt;TiposMovimientosModule</title>
<path fill="none" stroke="#000000" d="M1470,-122.1061C1470,-141.3391 1470,-169 1470,-169 1470,-169 995.2004,-169 995.2004,-169"/>
<polygon fill="#000000" stroke="#000000" points="995.2004,-165.5001 985.2004,-169 995.2003,-172.5001 995.2004,-165.5001"/>
</g>
<!-- HubModule -->
<g id="node5" class="node">
<title>HubModule</title>
<polygon fill="#8dd3c7" stroke="#000000" points="1346.6571,-122 1343.6571,-126 1322.6571,-126 1319.6571,-122 1263.3429,-122 1263.3429,-86 1346.6571,-86 1346.6571,-122"/>
<text text-anchor="middle" x="1305" y="-99.8" font-family="Times,serif" font-size="14.00" fill="#000000">HubModule</text>
</g>
<!-- HubModule&#45;&gt;TiposMovimientosModule -->
<g id="edge4" class="edge">
<title>HubModule&#45;&gt;TiposMovimientosModule</title>
<path fill="none" stroke="#000000" d="M1305,-122.0225C1305,-139.3734 1305,-163 1305,-163 1305,-163 995.5019,-163 995.5019,-163"/>
<polygon fill="#000000" stroke="#000000" points="995.5019,-159.5001 985.5019,-163 995.5018,-166.5001 995.5019,-159.5001"/>
</g>
<!-- PerfilModule -->
<g id="node6" class="node">
<title>PerfilModule</title>
<polygon fill="#8dd3c7" stroke="#000000" points="1245.1501,-122 1242.1501,-126 1221.1501,-126 1218.1501,-122 1154.8499,-122 1154.8499,-86 1245.1501,-86 1245.1501,-122"/>
<text text-anchor="middle" x="1200" y="-99.8" font-family="Times,serif" font-size="14.00" fill="#000000">PerfilModule</text>
</g>
<!-- PerfilModule&#45;&gt;TiposMovimientosModule -->
<g id="edge5" class="edge">
<title>PerfilModule&#45;&gt;TiposMovimientosModule</title>
<path fill="none" stroke="#000000" d="M1200,-122.2396C1200,-137.5706 1200,-157 1200,-157 1200,-157 995.4059,-157 995.4059,-157"/>
<polygon fill="#000000" stroke="#000000" points="995.4059,-153.5001 985.4059,-157 995.4058,-160.5001 995.4059,-153.5001"/>
</g>
<!-- BloquearPantallaModule -->
<g id="node7" class="node">
<title>BloquearPantallaModule</title>
<polygon fill="#8dd3c7" stroke="#000000" points="1136.965,-122 1133.965,-126 1112.965,-126 1109.965,-122 981.035,-122 981.035,-86 1136.965,-86 1136.965,-122"/>
<text text-anchor="middle" x="1059" y="-99.8" font-family="Times,serif" font-size="14.00" fill="#000000">BloquearPantallaModule</text>
</g>
<!-- BloquearPantallaModule&#45;&gt;TiposMovimientosModule -->
<g id="edge6" class="edge">
<title>BloquearPantallaModule&#45;&gt;TiposMovimientosModule</title>
<path fill="none" stroke="#000000" d="M980.9363,-104C975.403,-104 971.9481,-104 971.9481,-104 971.9481,-104 971.9481,-140.8939 971.9481,-140.8939"/>
<polygon fill="#000000" stroke="#000000" points="968.4482,-140.8938 971.9481,-150.8939 975.4482,-140.8939 968.4482,-140.8938"/>
</g>
<!-- PaginacionModule -->
<g id="node8" class="node">
<title>PaginacionModule</title>
<polygon fill="#8dd3c7" stroke="#000000" points="962.7576,-122 959.7576,-126 938.7576,-126 935.7576,-122 841.2424,-122 841.2424,-86 962.7576,-86 962.7576,-122"/>
<text text-anchor="middle" x="902" y="-99.8" font-family="Times,serif" font-size="14.00" fill="#000000">PaginacionModule</text>
</g>
<!-- PaginacionModule&#45;&gt;TiposMovimientosModule -->
<g id="edge7" class="edge">
<title>PaginacionModule&#45;&gt;TiposMovimientosModule</title>
<path fill="none" stroke="#000000" d="M902,-122.1061C902,-122.1061 902,-140.991 902,-140.991"/>
<polygon fill="#000000" stroke="#000000" points="898.5001,-140.9909 902,-150.991 905.5001,-140.991 898.5001,-140.9909"/>
</g>
<!-- MenuPanelModule -->
<g id="node9" class="node">
<title>MenuPanelModule</title>
<polygon fill="#8dd3c7" stroke="#000000" points="822.8118,-122 819.8118,-126 798.8118,-126 795.8118,-122 699.1882,-122 699.1882,-86 822.8118,-86 822.8118,-122"/>
<text text-anchor="middle" x="761" y="-99.8" font-family="Times,serif" font-size="14.00" fill="#000000">MenuPanelModule</text>
</g>
<!-- MenuPanelModule&#45;&gt;TiposMovimientosModule -->
<g id="edge8" class="edge">
<title>MenuPanelModule&#45;&gt;TiposMovimientosModule</title>
<path fill="none" stroke="#000000" d="M822.9104,-104C828.3741,-104 831.8885,-104 831.8885,-104 831.8885,-104 831.8885,-140.8939 831.8885,-140.8939"/>
<polygon fill="#000000" stroke="#000000" points="828.3886,-140.8938 831.8885,-150.8939 835.3886,-140.8939 828.3886,-140.8938"/>
</g>
<!-- MenuAsidePanelModule -->
<g id="node10" class="node">
<title>MenuAsidePanelModule</title>
<polygon fill="#8dd3c7" stroke="#000000" points="680.9678,-122 677.9678,-126 656.9678,-126 653.9678,-122 525.0322,-122 525.0322,-86 680.9678,-86 680.9678,-122"/>
<text text-anchor="middle" x="603" y="-99.8" font-family="Times,serif" font-size="14.00" fill="#000000">MenuAsidePanelModule</text>
</g>
<!-- MenuAsidePanelModule&#45;&gt;TiposMovimientosModule -->
<g id="edge9" class="edge">
<title>MenuAsidePanelModule&#45;&gt;TiposMovimientosModule</title>
<path fill="none" stroke="#000000" d="M603,-122.2396C603,-137.5706 603,-157 603,-157 603,-157 808.7118,-157 808.7118,-157"/>
<polygon fill="#000000" stroke="#000000" points="808.7119,-160.5001 818.7118,-157 808.7118,-153.5001 808.7119,-160.5001"/>
</g>
<!-- CrudModule -->
<g id="node11" class="node">
<title>CrudModule</title>
<polygon fill="#8dd3c7" stroke="#000000" points="506.5482,-122 503.5482,-126 482.5482,-126 479.5482,-122 419.4518,-122 419.4518,-86 506.5482,-86 506.5482,-122"/>
<text text-anchor="middle" x="463" y="-99.8" font-family="Times,serif" font-size="14.00" fill="#000000">CrudModule</text>
</g>
<!-- CrudModule&#45;&gt;TiposMovimientosModule -->
<g id="edge10" class="edge">
<title>CrudModule&#45;&gt;TiposMovimientosModule</title>
<path fill="none" stroke="#000000" d="M463,-122.0225C463,-139.3734 463,-163 463,-163 463,-163 808.9114,-163 808.9114,-163"/>
<polygon fill="#000000" stroke="#000000" points="808.9114,-166.5001 818.9114,-163 808.9113,-159.5001 808.9114,-166.5001"/>
</g>
<!-- ParcialModule -->
<g id="node12" class="node">
<title>ParcialModule</title>
<polygon fill="#8dd3c7" stroke="#000000" points="401.4189,-122 398.4189,-126 377.4189,-126 374.4189,-122 302.5811,-122 302.5811,-86 401.4189,-86 401.4189,-122"/>
<text text-anchor="middle" x="352" y="-99.8" font-family="Times,serif" font-size="14.00" fill="#000000">ParcialModule</text>
</g>
<!-- ParcialModule&#45;&gt;TiposMovimientosModule -->
<g id="edge11" class="edge">
<title>ParcialModule&#45;&gt;TiposMovimientosModule</title>
<path fill="none" stroke="#000000" d="M352,-122.1061C352,-141.3391 352,-169 352,-169 352,-169 808.7656,-169 808.7656,-169"/>
<polygon fill="#000000" stroke="#000000" points="808.7656,-172.5001 818.7656,-169 808.7656,-165.5001 808.7656,-172.5001"/>
</g>
<!-- AuthService -->
<g id="node13" class="node">
<title>AuthService</title>
<ellipse fill="#fdb462" stroke="#000000" cx="220" cy="-104" rx="59.1083" ry="18"/>
<text text-anchor="middle" x="220" y="-99.8" font-family="Times,serif" font-size="14.00" fill="#000000">AuthService</text>
</g>
<!-- AuthService&#45;&gt;TiposMovimientosModule -->
<g id="edge12" class="edge">
<title>AuthService&#45;&gt;TiposMovimientosModule</title>
<path fill="none" stroke="#000000" d="M220,-122.2843C220,-143.3211 220,-175 220,-175 220,-175 808.7146,-175 808.7146,-175"/>
<polygon fill="#000000" stroke="#000000" points="808.7146,-178.5001 818.7146,-175 808.7146,-171.5001 808.7146,-178.5001"/>
</g>
<!-- CrudService -->
<g id="node14" class="node">
<title>CrudService</title>
<ellipse fill="#fdb462" stroke="#000000" cx="83" cy="-104" rx="59.1083" ry="18"/>
<text text-anchor="middle" x="83" y="-99.8" font-family="Times,serif" font-size="14.00" fill="#000000">CrudService</text>
</g>
<!-- CrudService&#45;&gt;TiposMovimientosModule -->
<g id="edge13" class="edge">
<title>CrudService&#45;&gt;TiposMovimientosModule</title>
<path fill="none" stroke="#000000" d="M83,-122.0908C83,-145.1328 83,-182 83,-182 83,-182 808.5825,-182 808.5825,-182"/>
<polygon fill="#000000" stroke="#000000" points="808.5825,-185.5001 818.5825,-182 808.5825,-178.5001 808.5825,-185.5001"/>
</g>
</g>
</svg>
