<?xml version="1.0" encoding="UTF-8" standalone="no"?>
<!DOCTYPE svg PUBLIC "-//W3C//DTD SVG 1.1//EN"
 "http://www.w3.org/Graphics/SVG/1.1/DTD/svg11.dtd">
<!-- Generated by graphviz version 2.40.1 (20161225.0304)
 -->
<!-- Title: dependencies Pages: 1 -->
<svg width="1893pt" height="211pt"
 viewBox="0.00 0.00 1893.00 211.00" xmlns="http://www.w3.org/2000/svg" xmlns:xlink="http://www.w3.org/1999/xlink">
<g id="graph0" class="graph" transform="scale(1 1) rotate(0) translate(4 207)">
<title>dependencies</title>
<polygon fill="#ffffff" stroke="transparent" points="-4,4 -4,-207 1889,-207 1889,4 -4,4"/>
<text text-anchor="start" x="921.5091" y="-42.4" font-family="sans-serif" font-weight="bold" font-size="14.00" fill="#000000">Legend</text>
<polygon fill="#ffffb3" stroke="transparent" points="708.5,-10 708.5,-30 728.5,-30 728.5,-10 708.5,-10"/>
<text text-anchor="start" x="732.129" y="-15.4" font-family="sans-serif" font-size="14.00" fill="#000000"> &#160;Declarations</text>
<polygon fill="#8dd3c7" stroke="transparent" points="821.5,-10 821.5,-30 841.5,-30 841.5,-10 821.5,-10"/>
<text text-anchor="start" x="845.2251" y="-15.4" font-family="sans-serif" font-size="14.00" fill="#000000"> &#160;Module</text>
<polygon fill="#80b1d3" stroke="transparent" points="907.5,-10 907.5,-30 927.5,-30 927.5,-10 907.5,-10"/>
<text text-anchor="start" x="931.2812" y="-15.4" font-family="sans-serif" font-size="14.00" fill="#000000"> &#160;Bootstrap</text>
<polygon fill="#fdb462" stroke="transparent" points="1004.5,-10 1004.5,-30 1024.5,-30 1024.5,-10 1004.5,-10"/>
<text text-anchor="start" x="1028.1732" y="-15.4" font-family="sans-serif" font-size="14.00" fill="#000000"> &#160;Providers</text>
<polygon fill="#fb8072" stroke="transparent" points="1100.5,-10 1100.5,-30 1120.5,-30 1120.5,-10 1100.5,-10"/>
<text text-anchor="start" x="1124.2258" y="-15.4" font-family="sans-serif" font-size="14.00" fill="#000000"> &#160;Exports</text>
<g id="clust1" class="cluster">
<title>cluster_UnidadesMedidaModule</title>
<polygon fill="none" stroke="#000000" stroke-dasharray="1,5" points="8,-70 8,-195 1877,-195 1877,-70 8,-70"/>
</g>
<g id="clust2" class="cluster">
<title>cluster_UnidadesMedidaModule_declarations</title>
<polygon fill="none" stroke="#000000" points="1581,-78 1581,-130 1869,-130 1869,-78 1581,-78"/>
</g>
<g id="clust5" class="cluster">
<title>cluster_UnidadesMedidaModule_imports</title>
<polygon fill="none" stroke="#000000" points="295,-78 295,-130 1573,-130 1573,-78 295,-78"/>
</g>
<g id="clust8" class="cluster">
<title>cluster_UnidadesMedidaModule_providers</title>
<polygon fill="none" stroke="#000000" points="16,-78 16,-130 287,-130 287,-78 16,-78"/>
</g>
<!-- ListaComponent -->
<g id="node1" class="node">
<title>ListaComponent</title>
<polygon fill="#ffffb3" stroke="#000000" points="1860.8259,-122 1751.1741,-122 1751.1741,-86 1860.8259,-86 1860.8259,-122"/>
<text text-anchor="middle" x="1806" y="-99.8" font-family="Times,serif" font-size="14.00" fill="#000000">ListaComponent</text>
</g>
<!-- UnidadesMedidaModule -->
<g id="node3" class="node">
<title>UnidadesMedidaModule</title>
<polygon fill="#8dd3c7" stroke="#000000" points="979.6853,-187 976.6853,-191 955.6853,-191 952.6853,-187 824.3147,-187 824.3147,-151 979.6853,-151 979.6853,-187"/>
<text text-anchor="middle" x="902" y="-164.8" font-family="Times,serif" font-size="14.00" fill="#000000">UnidadesMedidaModule</text>
</g>
<!-- ListaComponent&#45;&gt;UnidadesMedidaModule -->
<g id="edge1" class="edge">
<title>ListaComponent&#45;&gt;UnidadesMedidaModule</title>
<path fill="none" stroke="#000000" d="M1806,-122.0908C1806,-145.1328 1806,-182 1806,-182 1806,-182 989.8569,-182 989.8569,-182"/>
<polygon fill="#000000" stroke="#000000" points="989.857,-178.5001 979.8569,-182 989.8569,-185.5001 989.857,-178.5001"/>
</g>
<!-- FormularioComponent -->
<g id="node2" class="node">
<title>FormularioComponent</title>
<polygon fill="#ffffb3" stroke="#000000" points="1733.323,-122 1588.677,-122 1588.677,-86 1733.323,-86 1733.323,-122"/>
<text text-anchor="middle" x="1661" y="-99.8" font-family="Times,serif" font-size="14.00" fill="#000000">FormularioComponent</text>
</g>
<!-- FormularioComponent&#45;&gt;UnidadesMedidaModule -->
<g id="edge2" class="edge">
<title>FormularioComponent&#45;&gt;UnidadesMedidaModule</title>
<path fill="none" stroke="#000000" d="M1661,-122.2843C1661,-143.3211 1661,-175 1661,-175 1661,-175 989.6594,-175 989.6594,-175"/>
<polygon fill="#000000" stroke="#000000" points="989.6595,-171.5001 979.6594,-175 989.6594,-178.5001 989.6595,-171.5001"/>
</g>
<!-- UnidadesMedidaRoutingModule -->
<g id="node4" class="node">
<title>UnidadesMedidaRoutingModule</title>
<polygon fill="#8dd3c7" stroke="#000000" points="1565.3032,-122 1562.3032,-126 1541.3032,-126 1538.3032,-122 1364.6968,-122 1364.6968,-86 1565.3032,-86 1565.3032,-122"/>
<text text-anchor="middle" x="1465" y="-99.8" font-family="Times,serif" font-size="14.00" fill="#000000">UnidadesMedidaRoutingModule</text>
</g>
<!-- UnidadesMedidaRoutingModule&#45;&gt;UnidadesMedidaModule -->
<g id="edge3" class="edge">
<title>UnidadesMedidaRoutingModule&#45;&gt;UnidadesMedidaModule</title>
<path fill="none" stroke="#000000" d="M1465,-122.1061C1465,-141.3391 1465,-169 1465,-169 1465,-169 989.6916,-169 989.6916,-169"/>
<polygon fill="#000000" stroke="#000000" points="989.6917,-165.5001 979.6916,-169 989.6916,-172.5001 989.6917,-165.5001"/>
</g>
<!-- HubModule -->
<g id="node5" class="node">
<title>HubModule</title>
<polygon fill="#8dd3c7" stroke="#000000" points="1346.6571,-122 1343.6571,-126 1322.6571,-126 1319.6571,-122 1263.3429,-122 1263.3429,-86 1346.6571,-86 1346.6571,-122"/>
<text text-anchor="middle" x="1305" y="-99.8" font-family="Times,serif" font-size="14.00" fill="#000000">HubModule</text>
</g>
<!-- HubModule&#45;&gt;UnidadesMedidaModule -->
<g id="edge4" class="edge">
<title>HubModule&#45;&gt;UnidadesMedidaModule</title>
<path fill="none" stroke="#000000" d="M1305,-122.0225C1305,-139.3734 1305,-163 1305,-163 1305,-163 989.7025,-163 989.7025,-163"/>
<polygon fill="#000000" stroke="#000000" points="989.7025,-159.5001 979.7025,-163 989.7024,-166.5001 989.7025,-159.5001"/>
</g>
<!-- PerfilModule -->
<g id="node6" class="node">
<title>PerfilModule</title>
<polygon fill="#8dd3c7" stroke="#000000" points="1245.1501,-122 1242.1501,-126 1221.1501,-126 1218.1501,-122 1154.8499,-122 1154.8499,-86 1245.1501,-86 1245.1501,-122"/>
<text text-anchor="middle" x="1200" y="-99.8" font-family="Times,serif" font-size="14.00" fill="#000000">PerfilModule</text>
</g>
<!-- PerfilModule&#45;&gt;UnidadesMedidaModule -->
<g id="edge5" class="edge">
<title>PerfilModule&#45;&gt;UnidadesMedidaModule</title>
<path fill="none" stroke="#000000" d="M1200,-122.2396C1200,-137.5706 1200,-157 1200,-157 1200,-157 989.9067,-157 989.9067,-157"/>
<polygon fill="#000000" stroke="#000000" points="989.9068,-153.5001 979.9067,-157 989.9067,-160.5001 989.9068,-153.5001"/>
</g>
<!-- BloquearPantallaModule -->
<g id="node7" class="node">
<title>BloquearPantallaModule</title>
<polygon fill="#8dd3c7" stroke="#000000" points="1136.965,-122 1133.965,-126 1112.965,-126 1109.965,-122 981.035,-122 981.035,-86 1136.965,-86 1136.965,-122"/>
<text text-anchor="middle" x="1059" y="-99.8" font-family="Times,serif" font-size="14.00" fill="#000000">BloquearPantallaModule</text>
</g>
<!-- BloquearPantallaModule&#45;&gt;UnidadesMedidaModule -->
<g id="edge6" class="edge">
<title>BloquearPantallaModule&#45;&gt;UnidadesMedidaModule</title>
<path fill="none" stroke="#000000" d="M980.9633,-104C974.9974,-104 971.2357,-104 971.2357,-104 971.2357,-104 971.2357,-140.8939 971.2357,-140.8939"/>
<polygon fill="#000000" stroke="#000000" points="967.7357,-140.8938 971.2357,-150.8939 974.7357,-140.8939 967.7357,-140.8938"/>
</g>
<!-- PaginacionModule -->
<g id="node8" class="node">
<title>PaginacionModule</title>
<polygon fill="#8dd3c7" stroke="#000000" points="962.7576,-122 959.7576,-126 938.7576,-126 935.7576,-122 841.2424,-122 841.2424,-86 962.7576,-86 962.7576,-122"/>
<text text-anchor="middle" x="902" y="-99.8" font-family="Times,serif" font-size="14.00" fill="#000000">PaginacionModule</text>
</g>
<!-- PaginacionModule&#45;&gt;UnidadesMedidaModule -->
<g id="edge7" class="edge">
<title>PaginacionModule&#45;&gt;UnidadesMedidaModule</title>
<path fill="none" stroke="#000000" d="M902,-122.1061C902,-122.1061 902,-140.991 902,-140.991"/>
<polygon fill="#000000" stroke="#000000" points="898.5001,-140.9909 902,-150.991 905.5001,-140.991 898.5001,-140.9909"/>
</g>
<!-- MenuPanelModule -->
<g id="node9" class="node">
<title>MenuPanelModule</title>
<polygon fill="#8dd3c7" stroke="#000000" points="822.8118,-122 819.8118,-126 798.8118,-126 795.8118,-122 699.1882,-122 699.1882,-86 822.8118,-86 822.8118,-122"/>
<text text-anchor="middle" x="761" y="-99.8" font-family="Times,serif" font-size="14.00" fill="#000000">MenuPanelModule</text>
</g>
<!-- MenuPanelModule&#45;&gt;UnidadesMedidaModule -->
<g id="edge8" class="edge">
<title>MenuPanelModule&#45;&gt;UnidadesMedidaModule</title>
<path fill="none" stroke="#000000" d="M822.7858,-104C828.8222,-104 832.7644,-104 832.7644,-104 832.7644,-104 832.7644,-140.8939 832.7644,-140.8939"/>
<polygon fill="#000000" stroke="#000000" points="829.2644,-140.8938 832.7644,-150.8939 836.2644,-140.8939 829.2644,-140.8938"/>
</g>
<!-- MenuAsidePanelModule -->
<g id="node10" class="node">
<title>MenuAsidePanelModule</title>
<polygon fill="#8dd3c7" stroke="#000000" points="680.9678,-122 677.9678,-126 656.9678,-126 653.9678,-122 525.0322,-122 525.0322,-86 680.9678,-86 680.9678,-122"/>
<text text-anchor="middle" x="603" y="-99.8" font-family="Times,serif" font-size="14.00" fill="#000000">MenuAsidePanelModule</text>
</g>
<!-- MenuAsidePanelModule&#45;&gt;UnidadesMedidaModule -->
<g id="edge9" class="edge">
<title>MenuAsidePanelModule&#45;&gt;UnidadesMedidaModule</title>
<path fill="none" stroke="#000000" d="M603,-122.2396C603,-137.5706 603,-157 603,-157 603,-157 814.2218,-157 814.2218,-157"/>
<polygon fill="#000000" stroke="#000000" points="814.2218,-160.5001 824.2218,-157 814.2218,-153.5001 814.2218,-160.5001"/>
</g>
<!-- CrudModule -->
<g id="node11" class="node">
<title>CrudModule</title>
<polygon fill="#8dd3c7" stroke="#000000" points="506.5482,-122 503.5482,-126 482.5482,-126 479.5482,-122 419.4518,-122 419.4518,-86 506.5482,-86 506.5482,-122"/>
<text text-anchor="middle" x="463" y="-99.8" font-family="Times,serif" font-size="14.00" fill="#000000">CrudModule</text>
</g>
<!-- CrudModule&#45;&gt;UnidadesMedidaModule -->
<g id="edge10" class="edge">
<title>CrudModule&#45;&gt;UnidadesMedidaModule</title>
<path fill="none" stroke="#000000" d="M463,-122.0225C463,-139.3734 463,-163 463,-163 463,-163 814.2739,-163 814.2739,-163"/>
<polygon fill="#000000" stroke="#000000" points="814.274,-166.5001 824.2739,-163 814.2739,-159.5001 814.274,-166.5001"/>
</g>
<!-- ParcialModule -->
<g id="node12" class="node">
<title>ParcialModule</title>
<polygon fill="#8dd3c7" stroke="#000000" points="401.4189,-122 398.4189,-126 377.4189,-126 374.4189,-122 302.5811,-122 302.5811,-86 401.4189,-86 401.4189,-122"/>
<text text-anchor="middle" x="352" y="-99.8" font-family="Times,serif" font-size="14.00" fill="#000000">ParcialModule</text>
</g>
<!-- ParcialModule&#45;&gt;UnidadesMedidaModule -->
<g id="edge11" class="edge">
<title>ParcialModule&#45;&gt;UnidadesMedidaModule</title>
<path fill="none" stroke="#000000" d="M352,-122.1061C352,-141.3391 352,-169 352,-169 352,-169 814.365,-169 814.365,-169"/>
<polygon fill="#000000" stroke="#000000" points="814.365,-172.5001 824.365,-169 814.3649,-165.5001 814.365,-172.5001"/>
</g>
<!-- AuthService -->
<g id="node13" class="node">
<title>AuthService</title>
<ellipse fill="#fdb462" stroke="#000000" cx="220" cy="-104" rx="59.1083" ry="18"/>
<text text-anchor="middle" x="220" y="-99.8" font-family="Times,serif" font-size="14.00" fill="#000000">AuthService</text>
</g>
<!-- AuthService&#45;&gt;UnidadesMedidaModule -->
<g id="edge12" class="edge">
<title>AuthService&#45;&gt;UnidadesMedidaModule</title>
<path fill="none" stroke="#000000" d="M220,-122.2843C220,-143.3211 220,-175 220,-175 220,-175 814.0982,-175 814.0982,-175"/>
<polygon fill="#000000" stroke="#000000" points="814.0982,-178.5001 824.0982,-175 814.0982,-171.5001 814.0982,-178.5001"/>
</g>
<!-- CrudService -->
<g id="node14" class="node">
<title>CrudService</title>
<ellipse fill="#fdb462" stroke="#000000" cx="83" cy="-104" rx="59.1083" ry="18"/>
<text text-anchor="middle" x="83" y="-99.8" font-family="Times,serif" font-size="14.00" fill="#000000">CrudService</text>
</g>
<!-- CrudService&#45;&gt;UnidadesMedidaModule -->
<g id="edge13" class="edge">
<title>CrudService&#45;&gt;UnidadesMedidaModule</title>
<path fill="none" stroke="#000000" d="M83,-122.0908C83,-145.1328 83,-182 83,-182 83,-182 814.2121,-182 814.2121,-182"/>
<polygon fill="#000000" stroke="#000000" points="814.2121,-185.5001 824.2121,-182 814.2121,-178.5001 814.2121,-185.5001"/>
</g>
</g>
</svg>
