<?xml version="1.0" encoding="UTF-8" standalone="no"?>
<!DOCTYPE svg PUBLIC "-//W3C//DTD SVG 1.1//EN"
 "http://www.w3.org/Graphics/SVG/1.1/DTD/svg11.dtd">
<!-- Generated by graphviz version 2.40.1 (20161225.0304)
 -->
<!-- Title: dependencies Pages: 1 -->
<svg width="504pt" height="284pt"
 viewBox="0.00 0.00 504.00 284.00" xmlns="http://www.w3.org/2000/svg" xmlns:xlink="http://www.w3.org/1999/xlink">
<g id="graph0" class="graph" transform="scale(1 1) rotate(0) translate(4 280)">
<title>dependencies</title>
<polygon fill="#ffffff" stroke="transparent" points="-4,4 -4,-280 500,-280 500,4 -4,4"/>
<text text-anchor="start" x="227.0091" y="-42.4" font-family="sans-serif" font-weight="bold" font-size="14.00" fill="#000000">Legend</text>
<polygon fill="#ffffb3" stroke="transparent" points="14,-10 14,-30 34,-30 34,-10 14,-10"/>
<text text-anchor="start" x="37.629" y="-15.4" font-family="sans-serif" font-size="14.00" fill="#000000"> &#160;Declarations</text>
<polygon fill="#8dd3c7" stroke="transparent" points="127,-10 127,-30 147,-30 147,-10 127,-10"/>
<text text-anchor="start" x="150.7251" y="-15.4" font-family="sans-serif" font-size="14.00" fill="#000000"> &#160;Module</text>
<polygon fill="#80b1d3" stroke="transparent" points="213,-10 213,-30 233,-30 233,-10 213,-10"/>
<text text-anchor="start" x="236.7812" y="-15.4" font-family="sans-serif" font-size="14.00" fill="#000000"> &#160;Bootstrap</text>
<polygon fill="#fdb462" stroke="transparent" points="310,-10 310,-30 330,-30 330,-10 310,-10"/>
<text text-anchor="start" x="333.6732" y="-15.4" font-family="sans-serif" font-size="14.00" fill="#000000"> &#160;Providers</text>
<polygon fill="#fb8072" stroke="transparent" points="406,-10 406,-30 426,-30 426,-10 406,-10"/>
<text text-anchor="start" x="429.7258" y="-15.4" font-family="sans-serif" font-size="14.00" fill="#000000"> &#160;Exports</text>
<g id="clust1" class="cluster">
<title>cluster_ParcialModule</title>
<polygon fill="none" stroke="#000000" stroke-dasharray="1,5" points="38,-70 38,-268 458,-268 458,-70 38,-70"/>
</g>
<g id="clust2" class="cluster">
<title>cluster_ParcialModule_declarations</title>
<polygon fill="none" stroke="#000000" points="49,-78 49,-130 447,-130 447,-78 49,-78"/>
</g>
<g id="clust6" class="cluster">
<title>cluster_ParcialModule_exports</title>
<polygon fill="none" stroke="#000000" points="46,-208 46,-260 450,-260 450,-208 46,-208"/>
</g>
<!-- FormularioOpcionesComponent -->
<g id="node1" class="node">
<title>FormularioOpcionesComponent</title>
<polygon fill="#ffffb3" stroke="#000000" points="438.6937,-122 241.3063,-122 241.3063,-86 438.6937,-86 438.6937,-122"/>
<text text-anchor="middle" x="340" y="-99.8" font-family="Times,serif" font-size="14.00" fill="#000000">FormularioOpcionesComponent</text>
</g>
<!-- ParcialModule -->
<g id="node3" class="node">
<title>ParcialModule</title>
<polygon fill="#8dd3c7" stroke="#000000" points="190.4189,-187 187.4189,-191 166.4189,-191 163.4189,-187 91.5811,-187 91.5811,-151 190.4189,-151 190.4189,-187"/>
<text text-anchor="middle" x="141" y="-164.8" font-family="Times,serif" font-size="14.00" fill="#000000">ParcialModule</text>
</g>
<!-- FormularioOpcionesComponent&#45;&gt;ParcialModule -->
<g id="edge1" class="edge">
<title>FormularioOpcionesComponent&#45;&gt;ParcialModule</title>
<path fill="none" stroke="#000000" d="M372.9489,-122.0225C372.9489,-139.3734 372.9489,-163 372.9489,-163 372.9489,-163 200.4744,-163 200.4744,-163"/>
<polygon fill="#000000" stroke="#000000" points="200.4744,-159.5001 190.4744,-163 200.4743,-166.5001 200.4744,-159.5001"/>
</g>
<!-- TablaOpcionesComponent -->
<g id="node2" class="node">
<title>TablaOpcionesComponent</title>
<polygon fill="#ffffb3" stroke="#000000" points="223.0758,-122 56.9242,-122 56.9242,-86 223.0758,-86 223.0758,-122"/>
<text text-anchor="middle" x="140" y="-99.8" font-family="Times,serif" font-size="14.00" fill="#000000">TablaOpcionesComponent</text>
</g>
<!-- TablaOpcionesComponent&#45;&gt;ParcialModule -->
<g id="edge2" class="edge">
<title>TablaOpcionesComponent&#45;&gt;ParcialModule</title>
<path fill="none" stroke="#000000" d="M141,-122.1061C141,-122.1061 141,-140.991 141,-140.991"/>
<polygon fill="#000000" stroke="#000000" points="137.5001,-140.9909 141,-150.991 144.5001,-140.991 137.5001,-140.9909"/>
</g>
<!-- FormularioOpcionesComponent  -->
<g id="node4" class="node">
<title>FormularioOpcionesComponent </title>
<polygon fill="#fb8072" stroke="#000000" points="442.1938,-252 241.8062,-252 241.8062,-216 442.1938,-216 442.1938,-252"/>
<text text-anchor="middle" x="342" y="-229.8" font-family="Times,serif" font-size="14.00" fill="#000000">FormularioOpcionesComponent </text>
</g>
<!-- ParcialModule&#45;&gt;FormularioOpcionesComponent  -->
<g id="edge3" class="edge">
<title>ParcialModule&#45;&gt;FormularioOpcionesComponent </title>
<path fill="none" stroke="#000000" stroke-dasharray="5,2" d="M190.4455,-175C239.4666,-175 307.3011,-175 307.3011,-175 307.3011,-175 307.3011,-205.9775 307.3011,-205.9775"/>
<polygon fill="#000000" stroke="#000000" points="303.8012,-205.9774 307.3011,-215.9775 310.8012,-205.9775 303.8012,-205.9774"/>
</g>
<!-- TablaOpcionesComponent  -->
<g id="node5" class="node">
<title>TablaOpcionesComponent </title>
<polygon fill="#fb8072" stroke="#000000" points="223.5763,-252 54.4237,-252 54.4237,-216 223.5763,-216 223.5763,-252"/>
<text text-anchor="middle" x="139" y="-229.8" font-family="Times,serif" font-size="14.00" fill="#000000">TablaOpcionesComponent </text>
</g>
<!-- ParcialModule&#45;&gt;TablaOpcionesComponent  -->
<g id="edge4" class="edge">
<title>ParcialModule&#45;&gt;TablaOpcionesComponent </title>
<path fill="none" stroke="#000000" stroke-dasharray="5,2" d="M141,-187.1061C141,-187.1061 141,-205.991 141,-205.991"/>
<polygon fill="#000000" stroke="#000000" points="137.5001,-205.9909 141,-215.991 144.5001,-205.991 137.5001,-205.9909"/>
</g>
</g>
</svg>
