<?xml version="1.0" encoding="UTF-8" standalone="no"?>
<!DOCTYPE svg PUBLIC "-//W3C//DTD SVG 1.1//EN"
 "http://www.w3.org/Graphics/SVG/1.1/DTD/svg11.dtd">
<!-- Generated by graphviz version 2.40.1 (20161225.0304)
 -->
<!-- Title: dependencies Pages: 1 -->
<svg width="1605pt" height="211pt"
 viewBox="0.00 0.00 1605.00 211.00" xmlns="http://www.w3.org/2000/svg" xmlns:xlink="http://www.w3.org/1999/xlink">
<g id="graph0" class="graph" transform="scale(1 1) rotate(0) translate(4 207)">
<title>dependencies</title>
<polygon fill="#ffffff" stroke="transparent" points="-4,4 -4,-207 1601,-207 1601,4 -4,4"/>
<text text-anchor="start" x="777.5091" y="-42.4" font-family="sans-serif" font-weight="bold" font-size="14.00" fill="#000000">Legend</text>
<polygon fill="#ffffb3" stroke="transparent" points="564.5,-10 564.5,-30 584.5,-30 584.5,-10 564.5,-10"/>
<text text-anchor="start" x="588.129" y="-15.4" font-family="sans-serif" font-size="14.00" fill="#000000"> &#160;Declarations</text>
<polygon fill="#8dd3c7" stroke="transparent" points="677.5,-10 677.5,-30 697.5,-30 697.5,-10 677.5,-10"/>
<text text-anchor="start" x="701.2251" y="-15.4" font-family="sans-serif" font-size="14.00" fill="#000000"> &#160;Module</text>
<polygon fill="#80b1d3" stroke="transparent" points="763.5,-10 763.5,-30 783.5,-30 783.5,-10 763.5,-10"/>
<text text-anchor="start" x="787.2812" y="-15.4" font-family="sans-serif" font-size="14.00" fill="#000000"> &#160;Bootstrap</text>
<polygon fill="#fdb462" stroke="transparent" points="860.5,-10 860.5,-30 880.5,-30 880.5,-10 860.5,-10"/>
<text text-anchor="start" x="884.1732" y="-15.4" font-family="sans-serif" font-size="14.00" fill="#000000"> &#160;Providers</text>
<polygon fill="#fb8072" stroke="transparent" points="956.5,-10 956.5,-30 976.5,-30 976.5,-10 956.5,-10"/>
<text text-anchor="start" x="980.2258" y="-15.4" font-family="sans-serif" font-size="14.00" fill="#000000"> &#160;Exports</text>
<g id="clust1" class="cluster">
<title>cluster_CorreccionesModule</title>
<polygon fill="none" stroke="#000000" stroke-dasharray="1,5" points="8,-70 8,-195 1589,-195 1589,-70 8,-70"/>
</g>
<g id="clust2" class="cluster">
<title>cluster_CorreccionesModule_declarations</title>
<polygon fill="none" stroke="#000000" points="1293,-78 1293,-130 1581,-130 1581,-78 1293,-78"/>
</g>
<g id="clust5" class="cluster">
<title>cluster_CorreccionesModule_imports</title>
<polygon fill="none" stroke="#000000" points="295,-78 295,-130 1285,-130 1285,-78 295,-78"/>
</g>
<g id="clust8" class="cluster">
<title>cluster_CorreccionesModule_providers</title>
<polygon fill="none" stroke="#000000" points="16,-78 16,-130 287,-130 287,-78 16,-78"/>
</g>
<!-- ListaComponent -->
<g id="node1" class="node">
<title>ListaComponent</title>
<polygon fill="#ffffb3" stroke="#000000" points="1572.8259,-122 1463.1741,-122 1463.1741,-86 1572.8259,-86 1572.8259,-122"/>
<text text-anchor="middle" x="1518" y="-99.8" font-family="Times,serif" font-size="14.00" fill="#000000">ListaComponent</text>
</g>
<!-- CorreccionesModule -->
<g id="node3" class="node">
<title>CorreccionesModule</title>
<polygon fill="#8dd3c7" stroke="#000000" points="859.9018,-187 856.9018,-191 835.9018,-191 832.9018,-187 726.0982,-187 726.0982,-151 859.9018,-151 859.9018,-187"/>
<text text-anchor="middle" x="793" y="-164.8" font-family="Times,serif" font-size="14.00" fill="#000000">CorreccionesModule</text>
</g>
<!-- ListaComponent&#45;&gt;CorreccionesModule -->
<g id="edge1" class="edge">
<title>ListaComponent&#45;&gt;CorreccionesModule</title>
<path fill="none" stroke="#000000" d="M1518,-122.0908C1518,-145.1328 1518,-182 1518,-182 1518,-182 869.9067,-182 869.9067,-182"/>
<polygon fill="#000000" stroke="#000000" points="869.9068,-178.5001 859.9067,-182 869.9067,-185.5001 869.9068,-178.5001"/>
</g>
<!-- FormularioComponent -->
<g id="node2" class="node">
<title>FormularioComponent</title>
<polygon fill="#ffffb3" stroke="#000000" points="1445.323,-122 1300.677,-122 1300.677,-86 1445.323,-86 1445.323,-122"/>
<text text-anchor="middle" x="1373" y="-99.8" font-family="Times,serif" font-size="14.00" fill="#000000">FormularioComponent</text>
</g>
<!-- FormularioComponent&#45;&gt;CorreccionesModule -->
<g id="edge2" class="edge">
<title>FormularioComponent&#45;&gt;CorreccionesModule</title>
<path fill="none" stroke="#000000" d="M1373,-122.2843C1373,-143.3211 1373,-175 1373,-175 1373,-175 869.8164,-175 869.8164,-175"/>
<polygon fill="#000000" stroke="#000000" points="869.8165,-171.5001 859.8164,-175 869.8164,-178.5001 869.8165,-171.5001"/>
</g>
<!-- CorreccionesRoutingModule -->
<g id="node4" class="node">
<title>CorreccionesRoutingModule</title>
<polygon fill="#8dd3c7" stroke="#000000" points="1277.0196,-122 1274.0196,-126 1253.0196,-126 1250.0196,-122 1098.9804,-122 1098.9804,-86 1277.0196,-86 1277.0196,-122"/>
<text text-anchor="middle" x="1188" y="-99.8" font-family="Times,serif" font-size="14.00" fill="#000000">CorreccionesRoutingModule</text>
</g>
<!-- CorreccionesRoutingModule&#45;&gt;CorreccionesModule -->
<g id="edge3" class="edge">
<title>CorreccionesRoutingModule&#45;&gt;CorreccionesModule</title>
<path fill="none" stroke="#000000" d="M1188,-122.1061C1188,-141.3391 1188,-169 1188,-169 1188,-169 870.0064,-169 870.0064,-169"/>
<polygon fill="#000000" stroke="#000000" points="870.0064,-165.5001 860.0064,-169 870.0063,-172.5001 870.0064,-165.5001"/>
</g>
<!-- HubModule -->
<g id="node5" class="node">
<title>HubModule</title>
<polygon fill="#8dd3c7" stroke="#000000" points="1080.6571,-122 1077.6571,-126 1056.6571,-126 1053.6571,-122 997.3429,-122 997.3429,-86 1080.6571,-86 1080.6571,-122"/>
<text text-anchor="middle" x="1039" y="-99.8" font-family="Times,serif" font-size="14.00" fill="#000000">HubModule</text>
</g>
<!-- HubModule&#45;&gt;CorreccionesModule -->
<g id="edge4" class="edge">
<title>HubModule&#45;&gt;CorreccionesModule</title>
<path fill="none" stroke="#000000" d="M1039,-122.0225C1039,-139.3734 1039,-163 1039,-163 1039,-163 869.8956,-163 869.8956,-163"/>
<polygon fill="#000000" stroke="#000000" points="869.8957,-159.5001 859.8956,-163 869.8956,-166.5001 869.8957,-159.5001"/>
</g>
<!-- PerfilModule -->
<g id="node6" class="node">
<title>PerfilModule</title>
<polygon fill="#8dd3c7" stroke="#000000" points="979.1501,-122 976.1501,-126 955.1501,-126 952.1501,-122 888.8499,-122 888.8499,-86 979.1501,-86 979.1501,-122"/>
<text text-anchor="middle" x="934" y="-99.8" font-family="Times,serif" font-size="14.00" fill="#000000">PerfilModule</text>
</g>
<!-- PerfilModule&#45;&gt;CorreccionesModule -->
<g id="edge5" class="edge">
<title>PerfilModule&#45;&gt;CorreccionesModule</title>
<path fill="none" stroke="#000000" d="M934,-122.2396C934,-137.5706 934,-157 934,-157 934,-157 869.7838,-157 869.7838,-157"/>
<polygon fill="#000000" stroke="#000000" points="869.7838,-153.5001 859.7838,-157 869.7837,-160.5001 869.7838,-153.5001"/>
</g>
<!-- BloquearPantallaModule -->
<g id="node7" class="node">
<title>BloquearPantallaModule</title>
<polygon fill="#8dd3c7" stroke="#000000" points="870.965,-122 867.965,-126 846.965,-126 843.965,-122 715.035,-122 715.035,-86 870.965,-86 870.965,-122"/>
<text text-anchor="middle" x="793" y="-99.8" font-family="Times,serif" font-size="14.00" fill="#000000">BloquearPantallaModule</text>
</g>
<!-- BloquearPantallaModule&#45;&gt;CorreccionesModule -->
<g id="edge6" class="edge">
<title>BloquearPantallaModule&#45;&gt;CorreccionesModule</title>
<path fill="none" stroke="#000000" d="M793,-122.1061C793,-122.1061 793,-140.991 793,-140.991"/>
<polygon fill="#000000" stroke="#000000" points="789.5001,-140.9909 793,-150.991 796.5001,-140.991 789.5001,-140.9909"/>
</g>
<!-- PaginacionModule -->
<g id="node8" class="node">
<title>PaginacionModule</title>
<polygon fill="#8dd3c7" stroke="#000000" points="696.7576,-122 693.7576,-126 672.7576,-126 669.7576,-122 575.2424,-122 575.2424,-86 696.7576,-86 696.7576,-122"/>
<text text-anchor="middle" x="636" y="-99.8" font-family="Times,serif" font-size="14.00" fill="#000000">PaginacionModule</text>
</g>
<!-- PaginacionModule&#45;&gt;CorreccionesModule -->
<g id="edge7" class="edge">
<title>PaginacionModule&#45;&gt;CorreccionesModule</title>
<path fill="none" stroke="#000000" d="M636,-122.2396C636,-137.5706 636,-157 636,-157 636,-157 715.9625,-157 715.9625,-157"/>
<polygon fill="#000000" stroke="#000000" points="715.9625,-160.5001 725.9625,-157 715.9624,-153.5001 715.9625,-160.5001"/>
</g>
<!-- IndexInventarioModule -->
<g id="node9" class="node">
<title>IndexInventarioModule</title>
<polygon fill="#8dd3c7" stroke="#000000" points="557.4566,-122 554.4566,-126 533.4566,-126 530.4566,-122 408.5434,-122 408.5434,-86 557.4566,-86 557.4566,-122"/>
<text text-anchor="middle" x="483" y="-99.8" font-family="Times,serif" font-size="14.00" fill="#000000">IndexInventarioModule</text>
</g>
<!-- IndexInventarioModule&#45;&gt;CorreccionesModule -->
<g id="edge8" class="edge">
<title>IndexInventarioModule&#45;&gt;CorreccionesModule</title>
<path fill="none" stroke="#000000" d="M483,-122.0225C483,-139.3734 483,-163 483,-163 483,-163 716.1163,-163 716.1163,-163"/>
<polygon fill="#000000" stroke="#000000" points="716.1163,-166.5001 726.1163,-163 716.1162,-159.5001 716.1163,-166.5001"/>
</g>
<!-- CrudModule -->
<g id="node10" class="node">
<title>CrudModule</title>
<polygon fill="#8dd3c7" stroke="#000000" points="390.5482,-122 387.5482,-126 366.5482,-126 363.5482,-122 303.4518,-122 303.4518,-86 390.5482,-86 390.5482,-122"/>
<text text-anchor="middle" x="347" y="-99.8" font-family="Times,serif" font-size="14.00" fill="#000000">CrudModule</text>
</g>
<!-- CrudModule&#45;&gt;CorreccionesModule -->
<g id="edge9" class="edge">
<title>CrudModule&#45;&gt;CorreccionesModule</title>
<path fill="none" stroke="#000000" d="M347,-122.1061C347,-141.3391 347,-169 347,-169 347,-169 716.2293,-169 716.2293,-169"/>
<polygon fill="#000000" stroke="#000000" points="716.2293,-172.5001 726.2293,-169 716.2293,-165.5001 716.2293,-172.5001"/>
</g>
<!-- AuthService -->
<g id="node11" class="node">
<title>AuthService</title>
<ellipse fill="#fdb462" stroke="#000000" cx="220" cy="-104" rx="59.1083" ry="18"/>
<text text-anchor="middle" x="220" y="-99.8" font-family="Times,serif" font-size="14.00" fill="#000000">AuthService</text>
</g>
<!-- AuthService&#45;&gt;CorreccionesModule -->
<g id="edge10" class="edge">
<title>AuthService&#45;&gt;CorreccionesModule</title>
<path fill="none" stroke="#000000" d="M220,-122.2843C220,-143.3211 220,-175 220,-175 220,-175 716.1482,-175 716.1482,-175"/>
<polygon fill="#000000" stroke="#000000" points="716.1482,-178.5001 726.1482,-175 716.1482,-171.5001 716.1482,-178.5001"/>
</g>
<!-- CrudService -->
<g id="node12" class="node">
<title>CrudService</title>
<ellipse fill="#fdb462" stroke="#000000" cx="83" cy="-104" rx="59.1083" ry="18"/>
<text text-anchor="middle" x="83" y="-99.8" font-family="Times,serif" font-size="14.00" fill="#000000">CrudService</text>
</g>
<!-- CrudService&#45;&gt;CorreccionesModule -->
<g id="edge11" class="edge">
<title>CrudService&#45;&gt;CorreccionesModule</title>
<path fill="none" stroke="#000000" d="M83,-122.0908C83,-145.1328 83,-182 83,-182 83,-182 716.2049,-182 716.2049,-182"/>
<polygon fill="#000000" stroke="#000000" points="716.205,-185.5001 726.2049,-182 716.2049,-178.5001 716.205,-185.5001"/>
</g>
</g>
</svg>
