<?xml version="1.0" encoding="UTF-8" standalone="no"?>
<!DOCTYPE svg PUBLIC "-//W3C//DTD SVG 1.1//EN"
 "http://www.w3.org/Graphics/SVG/1.1/DTD/svg11.dtd">
<!-- Generated by graphviz version 2.40.1 (20161225.0304)
 -->
<!-- Title: dependencies Pages: 1 -->
<svg width="1880pt" height="211pt"
 viewBox="0.00 0.00 1880.00 211.00" xmlns="http://www.w3.org/2000/svg" xmlns:xlink="http://www.w3.org/1999/xlink">
<g id="graph0" class="graph" transform="scale(1 1) rotate(0) translate(4 207)">
<title>dependencies</title>
<polygon fill="#ffffff" stroke="transparent" points="-4,4 -4,-207 1876,-207 1876,4 -4,4"/>
<text text-anchor="start" x="915.0091" y="-42.4" font-family="sans-serif" font-weight="bold" font-size="14.00" fill="#000000">Legend</text>
<polygon fill="#ffffb3" stroke="transparent" points="702,-10 702,-30 722,-30 722,-10 702,-10"/>
<text text-anchor="start" x="725.629" y="-15.4" font-family="sans-serif" font-size="14.00" fill="#000000"> &#160;Declarations</text>
<polygon fill="#8dd3c7" stroke="transparent" points="815,-10 815,-30 835,-30 835,-10 815,-10"/>
<text text-anchor="start" x="838.7251" y="-15.4" font-family="sans-serif" font-size="14.00" fill="#000000"> &#160;Module</text>
<polygon fill="#80b1d3" stroke="transparent" points="901,-10 901,-30 921,-30 921,-10 901,-10"/>
<text text-anchor="start" x="924.7812" y="-15.4" font-family="sans-serif" font-size="14.00" fill="#000000"> &#160;Bootstrap</text>
<polygon fill="#fdb462" stroke="transparent" points="998,-10 998,-30 1018,-30 1018,-10 998,-10"/>
<text text-anchor="start" x="1021.6732" y="-15.4" font-family="sans-serif" font-size="14.00" fill="#000000"> &#160;Providers</text>
<polygon fill="#fb8072" stroke="transparent" points="1094,-10 1094,-30 1114,-30 1114,-10 1094,-10"/>
<text text-anchor="start" x="1117.7258" y="-15.4" font-family="sans-serif" font-size="14.00" fill="#000000"> &#160;Exports</text>
<g id="clust1" class="cluster">
<title>cluster_MedicamentosModule</title>
<polygon fill="none" stroke="#000000" stroke-dasharray="1,5" points="8,-70 8,-195 1864,-195 1864,-70 8,-70"/>
</g>
<g id="clust2" class="cluster">
<title>cluster_MedicamentosModule_declarations</title>
<polygon fill="none" stroke="#000000" points="1568,-78 1568,-130 1856,-130 1856,-78 1568,-78"/>
</g>
<g id="clust5" class="cluster">
<title>cluster_MedicamentosModule_imports</title>
<polygon fill="none" stroke="#000000" points="295,-78 295,-130 1560,-130 1560,-78 295,-78"/>
</g>
<g id="clust8" class="cluster">
<title>cluster_MedicamentosModule_providers</title>
<polygon fill="none" stroke="#000000" points="16,-78 16,-130 287,-130 287,-78 16,-78"/>
</g>
<!-- ListaComponent -->
<g id="node1" class="node">
<title>ListaComponent</title>
<polygon fill="#ffffb3" stroke="#000000" points="1847.8259,-122 1738.1741,-122 1738.1741,-86 1847.8259,-86 1847.8259,-122"/>
<text text-anchor="middle" x="1793" y="-99.8" font-family="Times,serif" font-size="14.00" fill="#000000">ListaComponent</text>
</g>
<!-- MedicamentosModule -->
<g id="node3" class="node">
<title>MedicamentosModule</title>
<polygon fill="#8dd3c7" stroke="#000000" points="972.9692,-187 969.9692,-191 948.9692,-191 945.9692,-187 831.0308,-187 831.0308,-151 972.9692,-151 972.9692,-187"/>
<text text-anchor="middle" x="902" y="-164.8" font-family="Times,serif" font-size="14.00" fill="#000000">MedicamentosModule</text>
</g>
<!-- ListaComponent&#45;&gt;MedicamentosModule -->
<g id="edge1" class="edge">
<title>ListaComponent&#45;&gt;MedicamentosModule</title>
<path fill="none" stroke="#000000" d="M1793,-122.0908C1793,-145.1328 1793,-182 1793,-182 1793,-182 983.0337,-182 983.0337,-182"/>
<polygon fill="#000000" stroke="#000000" points="983.0337,-178.5001 973.0337,-182 983.0336,-185.5001 983.0337,-178.5001"/>
</g>
<!-- FormularioComponent -->
<g id="node2" class="node">
<title>FormularioComponent</title>
<polygon fill="#ffffb3" stroke="#000000" points="1720.323,-122 1575.677,-122 1575.677,-86 1720.323,-86 1720.323,-122"/>
<text text-anchor="middle" x="1648" y="-99.8" font-family="Times,serif" font-size="14.00" fill="#000000">FormularioComponent</text>
</g>
<!-- FormularioComponent&#45;&gt;MedicamentosModule -->
<g id="edge2" class="edge">
<title>FormularioComponent&#45;&gt;MedicamentosModule</title>
<path fill="none" stroke="#000000" d="M1648,-122.2843C1648,-143.3211 1648,-175 1648,-175 1648,-175 983.1917,-175 983.1917,-175"/>
<polygon fill="#000000" stroke="#000000" points="983.1917,-171.5001 973.1917,-175 983.1917,-178.5001 983.1917,-171.5001"/>
</g>
<!-- MedicamentosRoutingModule -->
<g id="node4" class="node">
<title>MedicamentosRoutingModule</title>
<polygon fill="#8dd3c7" stroke="#000000" points="1551.587,-122 1548.587,-126 1527.587,-126 1524.587,-122 1364.413,-122 1364.413,-86 1551.587,-86 1551.587,-122"/>
<text text-anchor="middle" x="1458" y="-99.8" font-family="Times,serif" font-size="14.00" fill="#000000">MedicamentosRoutingModule</text>
</g>
<!-- MedicamentosRoutingModule&#45;&gt;MedicamentosModule -->
<g id="edge3" class="edge">
<title>MedicamentosRoutingModule&#45;&gt;MedicamentosModule</title>
<path fill="none" stroke="#000000" d="M1458,-122.1061C1458,-141.3391 1458,-169 1458,-169 1458,-169 982.9825,-169 982.9825,-169"/>
<polygon fill="#000000" stroke="#000000" points="982.9826,-165.5001 972.9825,-169 982.9825,-172.5001 982.9826,-165.5001"/>
</g>
<!-- HubModule -->
<g id="node5" class="node">
<title>HubModule</title>
<polygon fill="#8dd3c7" stroke="#000000" points="1346.6571,-122 1343.6571,-126 1322.6571,-126 1319.6571,-122 1263.3429,-122 1263.3429,-86 1346.6571,-86 1346.6571,-122"/>
<text text-anchor="middle" x="1305" y="-99.8" font-family="Times,serif" font-size="14.00" fill="#000000">HubModule</text>
</g>
<!-- HubModule&#45;&gt;MedicamentosModule -->
<g id="edge4" class="edge">
<title>HubModule&#45;&gt;MedicamentosModule</title>
<path fill="none" stroke="#000000" d="M1305,-122.0225C1305,-139.3734 1305,-163 1305,-163 1305,-163 983.1206,-163 983.1206,-163"/>
<polygon fill="#000000" stroke="#000000" points="983.1207,-159.5001 973.1206,-163 983.1206,-166.5001 983.1207,-159.5001"/>
</g>
<!-- PerfilModule -->
<g id="node6" class="node">
<title>PerfilModule</title>
<polygon fill="#8dd3c7" stroke="#000000" points="1245.1501,-122 1242.1501,-126 1221.1501,-126 1218.1501,-122 1154.8499,-122 1154.8499,-86 1245.1501,-86 1245.1501,-122"/>
<text text-anchor="middle" x="1200" y="-99.8" font-family="Times,serif" font-size="14.00" fill="#000000">PerfilModule</text>
</g>
<!-- PerfilModule&#45;&gt;MedicamentosModule -->
<g id="edge5" class="edge">
<title>PerfilModule&#45;&gt;MedicamentosModule</title>
<path fill="none" stroke="#000000" d="M1200,-122.2396C1200,-137.5706 1200,-157 1200,-157 1200,-157 982.9998,-157 982.9998,-157"/>
<polygon fill="#000000" stroke="#000000" points="982.9999,-153.5001 972.9998,-157 982.9998,-160.5001 982.9999,-153.5001"/>
</g>
<!-- BloquearPantallaModule -->
<g id="node7" class="node">
<title>BloquearPantallaModule</title>
<polygon fill="#8dd3c7" stroke="#000000" points="1136.965,-122 1133.965,-126 1112.965,-126 1109.965,-122 981.035,-122 981.035,-86 1136.965,-86 1136.965,-122"/>
<text text-anchor="middle" x="1059" y="-99.8" font-family="Times,serif" font-size="14.00" fill="#000000">BloquearPantallaModule</text>
</g>
<!-- BloquearPantallaModule&#45;&gt;MedicamentosModule -->
<g id="edge6" class="edge">
<title>BloquearPantallaModule&#45;&gt;MedicamentosModule</title>
<path fill="none" stroke="#000000" d="M980.9795,-104C973.1023,-104 967.9317,-104 967.9317,-104 967.9317,-104 967.9317,-140.8939 967.9317,-140.8939"/>
<polygon fill="#000000" stroke="#000000" points="964.4317,-140.8938 967.9317,-150.8939 971.4317,-140.8939 964.4317,-140.8938"/>
</g>
<!-- PaginacionModule -->
<g id="node8" class="node">
<title>PaginacionModule</title>
<polygon fill="#8dd3c7" stroke="#000000" points="962.7576,-122 959.7576,-126 938.7576,-126 935.7576,-122 841.2424,-122 841.2424,-86 962.7576,-86 962.7576,-122"/>
<text text-anchor="middle" x="902" y="-99.8" font-family="Times,serif" font-size="14.00" fill="#000000">PaginacionModule</text>
</g>
<!-- PaginacionModule&#45;&gt;MedicamentosModule -->
<g id="edge7" class="edge">
<title>PaginacionModule&#45;&gt;MedicamentosModule</title>
<path fill="none" stroke="#000000" d="M902,-122.1061C902,-122.1061 902,-140.991 902,-140.991"/>
<polygon fill="#000000" stroke="#000000" points="898.5001,-140.9909 902,-150.991 905.5001,-140.991 898.5001,-140.9909"/>
</g>
<!-- MenuPanelModule -->
<g id="node9" class="node">
<title>MenuPanelModule</title>
<polygon fill="#8dd3c7" stroke="#000000" points="822.8118,-122 819.8118,-126 798.8118,-126 795.8118,-122 699.1882,-122 699.1882,-86 822.8118,-86 822.8118,-122"/>
<text text-anchor="middle" x="761" y="-99.8" font-family="Times,serif" font-size="14.00" fill="#000000">MenuPanelModule</text>
</g>
<!-- MenuPanelModule&#45;&gt;MedicamentosModule -->
<g id="edge8" class="edge">
<title>MenuPanelModule&#45;&gt;MedicamentosModule</title>
<path fill="none" stroke="#000000" d="M822.9924,-104C830.7718,-104 836.0684,-104 836.0684,-104 836.0684,-104 836.0684,-140.8939 836.0684,-140.8939"/>
<polygon fill="#000000" stroke="#000000" points="832.5684,-140.8938 836.0684,-150.8939 839.5684,-140.8939 832.5684,-140.8938"/>
</g>
<!-- MenuAsidePanelModule -->
<g id="node10" class="node">
<title>MenuAsidePanelModule</title>
<polygon fill="#8dd3c7" stroke="#000000" points="680.9678,-122 677.9678,-126 656.9678,-126 653.9678,-122 525.0322,-122 525.0322,-86 680.9678,-86 680.9678,-122"/>
<text text-anchor="middle" x="603" y="-99.8" font-family="Times,serif" font-size="14.00" fill="#000000">MenuAsidePanelModule</text>
</g>
<!-- MenuAsidePanelModule&#45;&gt;MedicamentosModule -->
<g id="edge9" class="edge">
<title>MenuAsidePanelModule&#45;&gt;MedicamentosModule</title>
<path fill="none" stroke="#000000" d="M603,-122.2396C603,-137.5706 603,-157 603,-157 603,-157 820.7619,-157 820.7619,-157"/>
<polygon fill="#000000" stroke="#000000" points="820.762,-160.5001 830.7619,-157 820.7619,-153.5001 820.762,-160.5001"/>
</g>
<!-- CrudModule -->
<g id="node11" class="node">
<title>CrudModule</title>
<polygon fill="#8dd3c7" stroke="#000000" points="506.5482,-122 503.5482,-126 482.5482,-126 479.5482,-122 419.4518,-122 419.4518,-86 506.5482,-86 506.5482,-122"/>
<text text-anchor="middle" x="463" y="-99.8" font-family="Times,serif" font-size="14.00" fill="#000000">CrudModule</text>
</g>
<!-- CrudModule&#45;&gt;MedicamentosModule -->
<g id="edge10" class="edge">
<title>CrudModule&#45;&gt;MedicamentosModule</title>
<path fill="none" stroke="#000000" d="M463,-122.0225C463,-139.3734 463,-163 463,-163 463,-163 820.9792,-163 820.9792,-163"/>
<polygon fill="#000000" stroke="#000000" points="820.9792,-166.5001 830.9792,-163 820.9791,-159.5001 820.9792,-166.5001"/>
</g>
<!-- ParcialModule -->
<g id="node12" class="node">
<title>ParcialModule</title>
<polygon fill="#8dd3c7" stroke="#000000" points="401.4189,-122 398.4189,-126 377.4189,-126 374.4189,-122 302.5811,-122 302.5811,-86 401.4189,-86 401.4189,-122"/>
<text text-anchor="middle" x="352" y="-99.8" font-family="Times,serif" font-size="14.00" fill="#000000">ParcialModule</text>
</g>
<!-- ParcialModule&#45;&gt;MedicamentosModule -->
<g id="edge11" class="edge">
<title>ParcialModule&#45;&gt;MedicamentosModule</title>
<path fill="none" stroke="#000000" d="M352,-122.1061C352,-141.3391 352,-169 352,-169 352,-169 820.9422,-169 820.9422,-169"/>
<polygon fill="#000000" stroke="#000000" points="820.9423,-172.5001 830.9422,-169 820.9422,-165.5001 820.9423,-172.5001"/>
</g>
<!-- AuthService -->
<g id="node13" class="node">
<title>AuthService</title>
<ellipse fill="#fdb462" stroke="#000000" cx="220" cy="-104" rx="59.1083" ry="18"/>
<text text-anchor="middle" x="220" y="-99.8" font-family="Times,serif" font-size="14.00" fill="#000000">AuthService</text>
</g>
<!-- AuthService&#45;&gt;MedicamentosModule -->
<g id="edge12" class="edge">
<title>AuthService&#45;&gt;MedicamentosModule</title>
<path fill="none" stroke="#000000" d="M220,-122.2843C220,-143.3211 220,-175 220,-175 220,-175 820.9441,-175 820.9441,-175"/>
<polygon fill="#000000" stroke="#000000" points="820.9441,-178.5001 830.9441,-175 820.944,-171.5001 820.9441,-178.5001"/>
</g>
<!-- CrudService -->
<g id="node14" class="node">
<title>CrudService</title>
<ellipse fill="#fdb462" stroke="#000000" cx="83" cy="-104" rx="59.1083" ry="18"/>
<text text-anchor="middle" x="83" y="-99.8" font-family="Times,serif" font-size="14.00" fill="#000000">CrudService</text>
</g>
<!-- CrudService&#45;&gt;MedicamentosModule -->
<g id="edge13" class="edge">
<title>CrudService&#45;&gt;MedicamentosModule</title>
<path fill="none" stroke="#000000" d="M83,-122.0908C83,-145.1328 83,-182 83,-182 83,-182 820.7518,-182 820.7518,-182"/>
<polygon fill="#000000" stroke="#000000" points="820.7519,-185.5001 830.7518,-182 820.7518,-178.5001 820.7519,-185.5001"/>
</g>
</g>
</svg>
