<?xml version="1.0" encoding="UTF-8" standalone="no"?>
<!DOCTYPE svg PUBLIC "-//W3C//DTD SVG 1.1//EN"
 "http://www.w3.org/Graphics/SVG/1.1/DTD/svg11.dtd">
<!-- Generated by graphviz version 2.40.1 (20161225.0304)
 -->
<!-- Title: dependencies Pages: 1 -->
<svg width="997pt" height="284pt"
 viewBox="0.00 0.00 997.00 284.00" xmlns="http://www.w3.org/2000/svg" xmlns:xlink="http://www.w3.org/1999/xlink">
<g id="graph0" class="graph" transform="scale(1 1) rotate(0) translate(4 280)">
<title>dependencies</title>
<polygon fill="#ffffff" stroke="transparent" points="-4,4 -4,-280 993,-280 993,4 -4,4"/>
<text text-anchor="start" x="473.5091" y="-42.4" font-family="sans-serif" font-weight="bold" font-size="14.00" fill="#000000">Legend</text>
<polygon fill="#ffffb3" stroke="transparent" points="260.5,-10 260.5,-30 280.5,-30 280.5,-10 260.5,-10"/>
<text text-anchor="start" x="284.129" y="-15.4" font-family="sans-serif" font-size="14.00" fill="#000000"> &#160;Declarations</text>
<polygon fill="#8dd3c7" stroke="transparent" points="373.5,-10 373.5,-30 393.5,-30 393.5,-10 373.5,-10"/>
<text text-anchor="start" x="397.2251" y="-15.4" font-family="sans-serif" font-size="14.00" fill="#000000"> &#160;Module</text>
<polygon fill="#80b1d3" stroke="transparent" points="459.5,-10 459.5,-30 479.5,-30 479.5,-10 459.5,-10"/>
<text text-anchor="start" x="483.2812" y="-15.4" font-family="sans-serif" font-size="14.00" fill="#000000"> &#160;Bootstrap</text>
<polygon fill="#fdb462" stroke="transparent" points="556.5,-10 556.5,-30 576.5,-30 576.5,-10 556.5,-10"/>
<text text-anchor="start" x="580.1732" y="-15.4" font-family="sans-serif" font-size="14.00" fill="#000000"> &#160;Providers</text>
<polygon fill="#fb8072" stroke="transparent" points="652.5,-10 652.5,-30 672.5,-30 672.5,-10 652.5,-10"/>
<text text-anchor="start" x="676.2258" y="-15.4" font-family="sans-serif" font-size="14.00" fill="#000000"> &#160;Exports</text>
<g id="clust1" class="cluster">
<title>cluster_IndexCatalogoModule</title>
<polygon fill="none" stroke="#000000" stroke-dasharray="1,5" points="8,-70 8,-268 981,-268 981,-70 8,-70"/>
</g>
<g id="clust2" class="cluster">
<title>cluster_IndexCatalogoModule_declarations</title>
<polygon fill="none" stroke="#000000" points="611,-78 611,-130 973,-130 973,-78 611,-78"/>
</g>
<g id="clust5" class="cluster">
<title>cluster_IndexCatalogoModule_imports</title>
<polygon fill="none" stroke="#000000" points="16,-78 16,-130 603,-130 603,-78 16,-78"/>
</g>
<g id="clust6" class="cluster">
<title>cluster_IndexCatalogoModule_exports</title>
<polygon fill="none" stroke="#000000" points="332,-208 332,-260 516,-260 516,-208 332,-208"/>
</g>
<!-- IndexCatalogoComponent -->
<g id="node1" class="node">
<title>IndexCatalogoComponent</title>
<polygon fill="#ffffb3" stroke="#000000" points="964.7548,-122 801.2452,-122 801.2452,-86 964.7548,-86 964.7548,-122"/>
<text text-anchor="middle" x="883" y="-99.8" font-family="Times,serif" font-size="14.00" fill="#000000">IndexCatalogoComponent</text>
</g>
<!-- IndexCatalogoModule -->
<g id="node3" class="node">
<title>IndexCatalogoModule</title>
<polygon fill="#8dd3c7" stroke="#000000" points="494.972,-187 491.972,-191 470.972,-191 467.972,-187 353.028,-187 353.028,-151 494.972,-151 494.972,-187"/>
<text text-anchor="middle" x="424" y="-164.8" font-family="Times,serif" font-size="14.00" fill="#000000">IndexCatalogoModule</text>
</g>
<!-- IndexCatalogoComponent&#45;&gt;IndexCatalogoModule -->
<g id="edge1" class="edge">
<title>IndexCatalogoComponent&#45;&gt;IndexCatalogoModule</title>
<path fill="none" stroke="#000000" d="M883,-122.2843C883,-143.3211 883,-175 883,-175 883,-175 505.2151,-175 505.2151,-175"/>
<polygon fill="#000000" stroke="#000000" points="505.2152,-171.5001 495.2151,-175 505.2151,-178.5001 505.2152,-171.5001"/>
</g>
<!-- MenuCatalogoComponent -->
<g id="node2" class="node">
<title>MenuCatalogoComponent</title>
<polygon fill="#ffffb3" stroke="#000000" points="783.0392,-122 618.9608,-122 618.9608,-86 783.0392,-86 783.0392,-122"/>
<text text-anchor="middle" x="701" y="-99.8" font-family="Times,serif" font-size="14.00" fill="#000000">MenuCatalogoComponent</text>
</g>
<!-- MenuCatalogoComponent&#45;&gt;IndexCatalogoModule -->
<g id="edge2" class="edge">
<title>MenuCatalogoComponent&#45;&gt;IndexCatalogoModule</title>
<path fill="none" stroke="#000000" d="M701,-122.0225C701,-139.3734 701,-163 701,-163 701,-163 504.9747,-163 504.9747,-163"/>
<polygon fill="#000000" stroke="#000000" points="504.9747,-159.5001 494.9747,-163 504.9746,-166.5001 504.9747,-159.5001"/>
</g>
<!-- MenuCatalogoComponent  -->
<g id="node8" class="node">
<title>MenuCatalogoComponent </title>
<polygon fill="#fb8072" stroke="#000000" points="508.0386,-252 339.9614,-252 339.9614,-216 508.0386,-216 508.0386,-252"/>
<text text-anchor="middle" x="424" y="-229.8" font-family="Times,serif" font-size="14.00" fill="#000000">MenuCatalogoComponent </text>
</g>
<!-- IndexCatalogoModule&#45;&gt;MenuCatalogoComponent  -->
<g id="edge7" class="edge">
<title>IndexCatalogoModule&#45;&gt;MenuCatalogoComponent </title>
<path fill="none" stroke="#000000" stroke-dasharray="5,2" d="M424,-187.1061C424,-187.1061 424,-205.991 424,-205.991"/>
<polygon fill="#000000" stroke="#000000" points="420.5001,-205.9909 424,-215.991 427.5001,-205.991 420.5001,-205.9909"/>
</g>
<!-- IndexCatalogoRoutingModule -->
<g id="node4" class="node">
<title>IndexCatalogoRoutingModule</title>
<polygon fill="#8dd3c7" stroke="#000000" points="594.5898,-122 591.5898,-126 570.5898,-126 567.5898,-122 407.4102,-122 407.4102,-86 594.5898,-86 594.5898,-122"/>
<text text-anchor="middle" x="501" y="-99.8" font-family="Times,serif" font-size="14.00" fill="#000000">IndexCatalogoRoutingModule</text>
</g>
<!-- IndexCatalogoRoutingModule&#45;&gt;IndexCatalogoModule -->
<g id="edge3" class="edge">
<title>IndexCatalogoRoutingModule&#45;&gt;IndexCatalogoModule</title>
<path fill="none" stroke="#000000" d="M451.2206,-122.1061C451.2206,-122.1061 451.2206,-140.991 451.2206,-140.991"/>
<polygon fill="#000000" stroke="#000000" points="447.7206,-140.9909 451.2206,-150.991 454.7206,-140.991 447.7206,-140.9909"/>
</g>
<!-- HubModule -->
<g id="node5" class="node">
<title>HubModule</title>
<polygon fill="#8dd3c7" stroke="#000000" points="389.6571,-122 386.6571,-126 365.6571,-126 362.6571,-122 306.3429,-122 306.3429,-86 389.6571,-86 389.6571,-122"/>
<text text-anchor="middle" x="348" y="-99.8" font-family="Times,serif" font-size="14.00" fill="#000000">HubModule</text>
</g>
<!-- HubModule&#45;&gt;IndexCatalogoModule -->
<g id="edge4" class="edge">
<title>HubModule&#45;&gt;IndexCatalogoModule</title>
<path fill="none" stroke="#000000" d="M371.4211,-122.1061C371.4211,-122.1061 371.4211,-140.991 371.4211,-140.991"/>
<polygon fill="#000000" stroke="#000000" points="367.9212,-140.9909 371.4211,-150.991 374.9212,-140.991 367.9212,-140.9909"/>
</g>
<!-- PerfilModule -->
<g id="node6" class="node">
<title>PerfilModule</title>
<polygon fill="#8dd3c7" stroke="#000000" points="288.1501,-122 285.1501,-126 264.1501,-126 261.1501,-122 197.8499,-122 197.8499,-86 288.1501,-86 288.1501,-122"/>
<text text-anchor="middle" x="243" y="-99.8" font-family="Times,serif" font-size="14.00" fill="#000000">PerfilModule</text>
</g>
<!-- PerfilModule&#45;&gt;IndexCatalogoModule -->
<g id="edge5" class="edge">
<title>PerfilModule&#45;&gt;IndexCatalogoModule</title>
<path fill="none" stroke="#000000" d="M243,-122.0225C243,-139.3734 243,-163 243,-163 243,-163 342.9835,-163 342.9835,-163"/>
<polygon fill="#000000" stroke="#000000" points="342.9835,-166.5001 352.9835,-163 342.9835,-159.5001 342.9835,-166.5001"/>
</g>
<!-- BloquearPantallaModule -->
<g id="node7" class="node">
<title>BloquearPantallaModule</title>
<polygon fill="#8dd3c7" stroke="#000000" points="179.965,-122 176.965,-126 155.965,-126 152.965,-122 24.035,-122 24.035,-86 179.965,-86 179.965,-122"/>
<text text-anchor="middle" x="102" y="-99.8" font-family="Times,serif" font-size="14.00" fill="#000000">BloquearPantallaModule</text>
</g>
<!-- BloquearPantallaModule&#45;&gt;IndexCatalogoModule -->
<g id="edge6" class="edge">
<title>BloquearPantallaModule&#45;&gt;IndexCatalogoModule</title>
<path fill="none" stroke="#000000" d="M102,-122.2843C102,-143.3211 102,-175 102,-175 102,-175 342.9371,-175 342.9371,-175"/>
<polygon fill="#000000" stroke="#000000" points="342.9371,-178.5001 352.9371,-175 342.9371,-171.5001 342.9371,-178.5001"/>
</g>
</g>
</svg>
