<?xml version="1.0" encoding="UTF-8" standalone="no"?>
<!DOCTYPE svg PUBLIC "-//W3C//DTD SVG 1.1//EN"
 "http://www.w3.org/Graphics/SVG/1.1/DTD/svg11.dtd">
<!-- Generated by graphviz version 2.40.1 (20161225.0304)
 -->
<!-- Title: dependencies Pages: 1 -->
<svg width="1153pt" height="284pt"
 viewBox="0.00 0.00 1153.00 284.00" xmlns="http://www.w3.org/2000/svg" xmlns:xlink="http://www.w3.org/1999/xlink">
<g id="graph0" class="graph" transform="scale(1 1) rotate(0) translate(4 280)">
<title>dependencies</title>
<polygon fill="#ffffff" stroke="transparent" points="-4,4 -4,-280 1149,-280 1149,4 -4,4"/>
<text text-anchor="start" x="551.5091" y="-42.4" font-family="sans-serif" font-weight="bold" font-size="14.00" fill="#000000">Legend</text>
<polygon fill="#ffffb3" stroke="transparent" points="338.5,-10 338.5,-30 358.5,-30 358.5,-10 338.5,-10"/>
<text text-anchor="start" x="362.129" y="-15.4" font-family="sans-serif" font-size="14.00" fill="#000000"> &#160;Declarations</text>
<polygon fill="#8dd3c7" stroke="transparent" points="451.5,-10 451.5,-30 471.5,-30 471.5,-10 451.5,-10"/>
<text text-anchor="start" x="475.2251" y="-15.4" font-family="sans-serif" font-size="14.00" fill="#000000"> &#160;Module</text>
<polygon fill="#80b1d3" stroke="transparent" points="537.5,-10 537.5,-30 557.5,-30 557.5,-10 537.5,-10"/>
<text text-anchor="start" x="561.2812" y="-15.4" font-family="sans-serif" font-size="14.00" fill="#000000"> &#160;Bootstrap</text>
<polygon fill="#fdb462" stroke="transparent" points="634.5,-10 634.5,-30 654.5,-30 654.5,-10 634.5,-10"/>
<text text-anchor="start" x="658.1732" y="-15.4" font-family="sans-serif" font-size="14.00" fill="#000000"> &#160;Providers</text>
<polygon fill="#fb8072" stroke="transparent" points="730.5,-10 730.5,-30 750.5,-30 750.5,-10 730.5,-10"/>
<text text-anchor="start" x="754.2258" y="-15.4" font-family="sans-serif" font-size="14.00" fill="#000000"> &#160;Exports</text>
<g id="clust1" class="cluster">
<title>cluster_IndexFarmaciaSubrrogadaModule</title>
<polygon fill="none" stroke="#000000" stroke-dasharray="1,5" points="8,-70 8,-268 1137,-268 1137,-70 8,-70"/>
</g>
<g id="clust2" class="cluster">
<title>cluster_IndexFarmaciaSubrrogadaModule_declarations</title>
<polygon fill="none" stroke="#000000" points="677,-78 677,-130 1129,-130 1129,-78 677,-78"/>
</g>
<g id="clust5" class="cluster">
<title>cluster_IndexFarmaciaSubrrogadaModule_imports</title>
<polygon fill="none" stroke="#000000" points="16,-78 16,-130 669,-130 669,-78 16,-78"/>
</g>
<g id="clust6" class="cluster">
<title>cluster_IndexFarmaciaSubrrogadaModule_exports</title>
<polygon fill="none" stroke="#000000" points="337,-208 337,-260 545,-260 545,-208 337,-208"/>
</g>
<!-- IndexFarmaciaSubrrogadaComponent -->
<g id="node1" class="node">
<title>IndexFarmaciaSubrrogadaComponent</title>
<polygon fill="#ffffb3" stroke="#000000" points="1120.8235,-122 891.1765,-122 891.1765,-86 1120.8235,-86 1120.8235,-122"/>
<text text-anchor="middle" x="1006" y="-99.8" font-family="Times,serif" font-size="14.00" fill="#000000">IndexFarmaciaSubrrogadaComponent</text>
</g>
<!-- IndexFarmaciaSubrrogadaModule -->
<g id="node3" class="node">
<title>IndexFarmaciaSubrrogadaModule</title>
<polygon fill="#8dd3c7" stroke="#000000" points="545.0408,-187 542.0408,-191 521.0408,-191 518.0408,-187 336.9592,-187 336.9592,-151 545.0408,-151 545.0408,-187"/>
<text text-anchor="middle" x="441" y="-164.8" font-family="Times,serif" font-size="14.00" fill="#000000">IndexFarmaciaSubrrogadaModule</text>
</g>
<!-- IndexFarmaciaSubrrogadaComponent&#45;&gt;IndexFarmaciaSubrrogadaModule -->
<g id="edge1" class="edge">
<title>IndexFarmaciaSubrrogadaComponent&#45;&gt;IndexFarmaciaSubrrogadaModule</title>
<path fill="none" stroke="#000000" d="M1006,-122.2843C1006,-143.3211 1006,-175 1006,-175 1006,-175 555.2881,-175 555.2881,-175"/>
<polygon fill="#000000" stroke="#000000" points="555.2882,-171.5001 545.2881,-175 555.2881,-178.5001 555.2882,-171.5001"/>
</g>
<!-- MenuFarmaciaSubComponent -->
<g id="node2" class="node">
<title>MenuFarmaciaSubComponent</title>
<polygon fill="#ffffb3" stroke="#000000" points="872.8571,-122 685.1429,-122 685.1429,-86 872.8571,-86 872.8571,-122"/>
<text text-anchor="middle" x="779" y="-99.8" font-family="Times,serif" font-size="14.00" fill="#000000">MenuFarmaciaSubComponent</text>
</g>
<!-- MenuFarmaciaSubComponent&#45;&gt;IndexFarmaciaSubrrogadaModule -->
<g id="edge2" class="edge">
<title>MenuFarmaciaSubComponent&#45;&gt;IndexFarmaciaSubrrogadaModule</title>
<path fill="none" stroke="#000000" d="M779,-122.0225C779,-139.3734 779,-163 779,-163 779,-163 555.1691,-163 555.1691,-163"/>
<polygon fill="#000000" stroke="#000000" points="555.1692,-159.5001 545.1691,-163 555.1691,-166.5001 555.1692,-159.5001"/>
</g>
<!-- MenuFarmaciaSubComponent  -->
<g id="node8" class="node">
<title>MenuFarmaciaSubComponent </title>
<polygon fill="#fb8072" stroke="#000000" points="536.8573,-252 345.1427,-252 345.1427,-216 536.8573,-216 536.8573,-252"/>
<text text-anchor="middle" x="441" y="-229.8" font-family="Times,serif" font-size="14.00" fill="#000000">MenuFarmaciaSubComponent </text>
</g>
<!-- IndexFarmaciaSubrrogadaModule&#45;&gt;MenuFarmaciaSubComponent  -->
<g id="edge7" class="edge">
<title>IndexFarmaciaSubrrogadaModule&#45;&gt;MenuFarmaciaSubComponent </title>
<path fill="none" stroke="#000000" stroke-dasharray="5,2" d="M441,-187.1061C441,-187.1061 441,-205.991 441,-205.991"/>
<polygon fill="#000000" stroke="#000000" points="437.5001,-205.9909 441,-215.991 444.5001,-205.991 437.5001,-205.9909"/>
</g>
<!-- IndexFarmaciaSubrrogadaRoutingModule -->
<g id="node4" class="node">
<title>IndexFarmaciaSubrrogadaRoutingModule</title>
<polygon fill="#8dd3c7" stroke="#000000" points="660.6586,-122 657.6586,-126 636.6586,-126 633.6586,-122 407.3414,-122 407.3414,-86 660.6586,-86 660.6586,-122"/>
<text text-anchor="middle" x="534" y="-99.8" font-family="Times,serif" font-size="14.00" fill="#000000">IndexFarmaciaSubrrogadaRoutingModule</text>
</g>
<!-- IndexFarmaciaSubrrogadaRoutingModule&#45;&gt;IndexFarmaciaSubrrogadaModule -->
<g id="edge3" class="edge">
<title>IndexFarmaciaSubrrogadaRoutingModule&#45;&gt;IndexFarmaciaSubrrogadaModule</title>
<path fill="none" stroke="#000000" d="M476.2206,-122.1061C476.2206,-122.1061 476.2206,-140.991 476.2206,-140.991"/>
<polygon fill="#000000" stroke="#000000" points="472.7206,-140.9909 476.2206,-150.991 479.7206,-140.991 472.7206,-140.9909"/>
</g>
<!-- HubModule -->
<g id="node5" class="node">
<title>HubModule</title>
<polygon fill="#8dd3c7" stroke="#000000" points="389.6571,-122 386.6571,-126 365.6571,-126 362.6571,-122 306.3429,-122 306.3429,-86 389.6571,-86 389.6571,-122"/>
<text text-anchor="middle" x="348" y="-99.8" font-family="Times,serif" font-size="14.00" fill="#000000">HubModule</text>
</g>
<!-- HubModule&#45;&gt;IndexFarmaciaSubrrogadaModule -->
<g id="edge4" class="edge">
<title>HubModule&#45;&gt;IndexFarmaciaSubrrogadaModule</title>
<path fill="none" stroke="#000000" d="M363.4039,-122.1061C363.4039,-122.1061 363.4039,-140.991 363.4039,-140.991"/>
<polygon fill="#000000" stroke="#000000" points="359.904,-140.9909 363.4039,-150.991 366.904,-140.991 359.904,-140.9909"/>
</g>
<!-- PerfilModule -->
<g id="node6" class="node">
<title>PerfilModule</title>
<polygon fill="#8dd3c7" stroke="#000000" points="288.1501,-122 285.1501,-126 264.1501,-126 261.1501,-122 197.8499,-122 197.8499,-86 288.1501,-86 288.1501,-122"/>
<text text-anchor="middle" x="243" y="-99.8" font-family="Times,serif" font-size="14.00" fill="#000000">PerfilModule</text>
</g>
<!-- PerfilModule&#45;&gt;IndexFarmaciaSubrrogadaModule -->
<g id="edge5" class="edge">
<title>PerfilModule&#45;&gt;IndexFarmaciaSubrrogadaModule</title>
<path fill="none" stroke="#000000" d="M243,-122.0225C243,-139.3734 243,-163 243,-163 243,-163 326.7814,-163 326.7814,-163"/>
<polygon fill="#000000" stroke="#000000" points="326.7815,-166.5001 336.7814,-163 326.7814,-159.5001 326.7815,-166.5001"/>
</g>
<!-- BloquearPantallaModule -->
<g id="node7" class="node">
<title>BloquearPantallaModule</title>
<polygon fill="#8dd3c7" stroke="#000000" points="179.965,-122 176.965,-126 155.965,-126 152.965,-122 24.035,-122 24.035,-86 179.965,-86 179.965,-122"/>
<text text-anchor="middle" x="102" y="-99.8" font-family="Times,serif" font-size="14.00" fill="#000000">BloquearPantallaModule</text>
</g>
<!-- BloquearPantallaModule&#45;&gt;IndexFarmaciaSubrrogadaModule -->
<g id="edge6" class="edge">
<title>BloquearPantallaModule&#45;&gt;IndexFarmaciaSubrrogadaModule</title>
<path fill="none" stroke="#000000" d="M102,-122.2843C102,-143.3211 102,-175 102,-175 102,-175 326.5227,-175 326.5227,-175"/>
<polygon fill="#000000" stroke="#000000" points="326.5227,-178.5001 336.5227,-175 326.5227,-171.5001 326.5227,-178.5001"/>
</g>
</g>
</svg>
