<?xml version="1.0" encoding="UTF-8" standalone="no"?>
<!DOCTYPE svg PUBLIC "-//W3C//DTD SVG 1.1//EN"
 "http://www.w3.org/Graphics/SVG/1.1/DTD/svg11.dtd">
<!-- Generated by graphviz version 2.40.1 (20161225.0304)
 -->
<!-- Title: dependencies Pages: 1 -->
<svg width="1427pt" height="211pt"
 viewBox="0.00 0.00 1427.00 211.00" xmlns="http://www.w3.org/2000/svg" xmlns:xlink="http://www.w3.org/1999/xlink">
<g id="graph0" class="graph" transform="scale(1 1) rotate(0) translate(4 207)">
<title>dependencies</title>
<polygon fill="#ffffff" stroke="transparent" points="-4,4 -4,-207 1423,-207 1423,4 -4,4"/>
<text text-anchor="start" x="688.5091" y="-42.4" font-family="sans-serif" font-weight="bold" font-size="14.00" fill="#000000">Legend</text>
<polygon fill="#ffffb3" stroke="transparent" points="475.5,-10 475.5,-30 495.5,-30 495.5,-10 475.5,-10"/>
<text text-anchor="start" x="499.129" y="-15.4" font-family="sans-serif" font-size="14.00" fill="#000000"> &#160;Declarations</text>
<polygon fill="#8dd3c7" stroke="transparent" points="588.5,-10 588.5,-30 608.5,-30 608.5,-10 588.5,-10"/>
<text text-anchor="start" x="612.2251" y="-15.4" font-family="sans-serif" font-size="14.00" fill="#000000"> &#160;Module</text>
<polygon fill="#80b1d3" stroke="transparent" points="674.5,-10 674.5,-30 694.5,-30 694.5,-10 674.5,-10"/>
<text text-anchor="start" x="698.2812" y="-15.4" font-family="sans-serif" font-size="14.00" fill="#000000"> &#160;Bootstrap</text>
<polygon fill="#fdb462" stroke="transparent" points="771.5,-10 771.5,-30 791.5,-30 791.5,-10 771.5,-10"/>
<text text-anchor="start" x="795.1732" y="-15.4" font-family="sans-serif" font-size="14.00" fill="#000000"> &#160;Providers</text>
<polygon fill="#fb8072" stroke="transparent" points="867.5,-10 867.5,-30 887.5,-30 887.5,-10 867.5,-10"/>
<text text-anchor="start" x="891.2258" y="-15.4" font-family="sans-serif" font-size="14.00" fill="#000000"> &#160;Exports</text>
<g id="clust1" class="cluster">
<title>cluster_SyncModule</title>
<polygon fill="none" stroke="#000000" stroke-dasharray="1,5" points="8,-70 8,-195 1411,-195 1411,-70 8,-70"/>
</g>
<g id="clust2" class="cluster">
<title>cluster_SyncModule_declarations</title>
<polygon fill="none" stroke="#000000" points="564,-78 564,-130 1403,-130 1403,-78 564,-78"/>
</g>
<g id="clust9" class="cluster">
<title>cluster_SyncModule_imports</title>
<polygon fill="none" stroke="#000000" points="158,-78 158,-130 556,-130 556,-78 158,-78"/>
</g>
<g id="clust12" class="cluster">
<title>cluster_SyncModule_providers</title>
<polygon fill="none" stroke="#000000" points="16,-78 16,-130 150,-130 150,-78 16,-78"/>
</g>
<!-- EstatusComponent -->
<g id="node1" class="node">
<title>EstatusComponent</title>
<polygon fill="#ffffb3" stroke="#000000" points="1394.7702,-122 1273.2298,-122 1273.2298,-86 1394.7702,-86 1394.7702,-122"/>
<text text-anchor="middle" x="1334" y="-99.8" font-family="Times,serif" font-size="14.00" fill="#000000">EstatusComponent</text>
</g>
<!-- SyncModule -->
<g id="node7" class="node">
<title>SyncModule</title>
<polygon fill="#8dd3c7" stroke="#000000" points="740.5482,-187 737.5482,-191 716.5482,-191 713.5482,-187 653.4518,-187 653.4518,-151 740.5482,-151 740.5482,-187"/>
<text text-anchor="middle" x="697" y="-164.8" font-family="Times,serif" font-size="14.00" fill="#000000">SyncModule</text>
</g>
<!-- EstatusComponent&#45;&gt;SyncModule -->
<g id="edge1" class="edge">
<title>EstatusComponent&#45;&gt;SyncModule</title>
<path fill="none" stroke="#000000" d="M1334,-122.0109C1334,-144.4852 1334,-180 1334,-180 1334,-180 750.7836,-180 750.7836,-180"/>
<polygon fill="#000000" stroke="#000000" points="750.7836,-176.5001 740.7836,-180 750.7836,-183.5001 750.7836,-176.5001"/>
</g>
<!-- LocalComponent -->
<g id="node2" class="node">
<title>LocalComponent</title>
<polygon fill="#ffffb3" stroke="#000000" points="1255.705,-122 1142.295,-122 1142.295,-86 1255.705,-86 1255.705,-122"/>
<text text-anchor="middle" x="1199" y="-99.8" font-family="Times,serif" font-size="14.00" fill="#000000">LocalComponent</text>
</g>
<!-- LocalComponent&#45;&gt;SyncModule -->
<g id="edge2" class="edge">
<title>LocalComponent&#45;&gt;SyncModule</title>
<path fill="none" stroke="#000000" d="M1199,-122.1289C1199,-142.5724 1199,-173 1199,-173 1199,-173 750.671,-173 750.671,-173"/>
<polygon fill="#000000" stroke="#000000" points="750.6711,-169.5001 740.671,-173 750.671,-176.5001 750.6711,-169.5001"/>
</g>
<!-- CentralComponent -->
<g id="node3" class="node">
<title>CentralComponent</title>
<polygon fill="#ffffb3" stroke="#000000" points="1124.0409,-122 1001.9591,-122 1001.9591,-86 1124.0409,-86 1124.0409,-122"/>
<text text-anchor="middle" x="1063" y="-99.8" font-family="Times,serif" font-size="14.00" fill="#000000">CentralComponent</text>
</g>
<!-- CentralComponent&#45;&gt;SyncModule -->
<g id="edge3" class="edge">
<title>CentralComponent&#45;&gt;SyncModule</title>
<path fill="none" stroke="#000000" d="M1063,-122.2667C1063,-140.5552 1063,-166 1063,-166 1063,-166 750.7846,-166 750.7846,-166"/>
<polygon fill="#000000" stroke="#000000" points="750.7846,-162.5001 740.7846,-166 750.7846,-169.5001 750.7846,-162.5001"/>
</g>
<!-- ServidoresComponent -->
<g id="node4" class="node">
<title>ServidoresComponent</title>
<polygon fill="#ffffb3" stroke="#000000" points="983.7007,-122 842.2993,-122 842.2993,-86 983.7007,-86 983.7007,-122"/>
<text text-anchor="middle" x="913" y="-99.8" font-family="Times,serif" font-size="14.00" fill="#000000">ServidoresComponent</text>
</g>
<!-- ServidoresComponent&#45;&gt;SyncModule -->
<g id="edge4" class="edge">
<title>ServidoresComponent&#45;&gt;SyncModule</title>
<path fill="none" stroke="#000000" d="M913,-122.0091C913,-138.0494 913,-159 913,-159 913,-159 750.7108,-159 750.7108,-159"/>
<polygon fill="#000000" stroke="#000000" points="750.7109,-155.5001 740.7108,-159 750.7108,-162.5001 750.7109,-155.5001"/>
</g>
<!-- NuevoComponent -->
<g id="node5" class="node">
<title>NuevoComponent</title>
<polygon fill="#ffffb3" stroke="#000000" points="824.1541,-122 705.8459,-122 705.8459,-86 824.1541,-86 824.1541,-122"/>
<text text-anchor="middle" x="765" y="-99.8" font-family="Times,serif" font-size="14.00" fill="#000000">NuevoComponent</text>
</g>
<!-- NuevoComponent&#45;&gt;SyncModule -->
<g id="edge5" class="edge">
<title>NuevoComponent&#45;&gt;SyncModule</title>
<path fill="none" stroke="#000000" d="M723.2234,-122.1061C723.2234,-122.1061 723.2234,-140.991 723.2234,-140.991"/>
<polygon fill="#000000" stroke="#000000" points="719.7234,-140.9909 723.2234,-150.991 726.7234,-140.991 719.7234,-140.9909"/>
</g>
<!-- EditarComponent -->
<g id="node6" class="node">
<title>EditarComponent</title>
<polygon fill="#ffffb3" stroke="#000000" points="687.5423,-122 572.4577,-122 572.4577,-86 687.5423,-86 687.5423,-122"/>
<text text-anchor="middle" x="630" y="-99.8" font-family="Times,serif" font-size="14.00" fill="#000000">EditarComponent</text>
</g>
<!-- EditarComponent&#45;&gt;SyncModule -->
<g id="edge6" class="edge">
<title>EditarComponent&#45;&gt;SyncModule</title>
<path fill="none" stroke="#000000" d="M670.4986,-122.1061C670.4986,-122.1061 670.4986,-140.991 670.4986,-140.991"/>
<polygon fill="#000000" stroke="#000000" points="666.9987,-140.9909 670.4986,-150.991 673.9987,-140.991 666.9987,-140.9909"/>
</g>
<!-- SyncRoutingModule -->
<g id="node8" class="node">
<title>SyncRoutingModule</title>
<polygon fill="#8dd3c7" stroke="#000000" points="548.1652,-122 545.1652,-126 524.1652,-126 521.1652,-122 415.8348,-122 415.8348,-86 548.1652,-86 548.1652,-122"/>
<text text-anchor="middle" x="482" y="-99.8" font-family="Times,serif" font-size="14.00" fill="#000000">SyncRoutingModule</text>
</g>
<!-- SyncRoutingModule&#45;&gt;SyncModule -->
<g id="edge7" class="edge">
<title>SyncRoutingModule&#45;&gt;SyncModule</title>
<path fill="none" stroke="#000000" d="M482,-122.0091C482,-138.0494 482,-159 482,-159 482,-159 643.2324,-159 643.2324,-159"/>
<polygon fill="#000000" stroke="#000000" points="643.2324,-162.5001 653.2324,-159 643.2324,-155.5001 643.2324,-162.5001"/>
</g>
<!-- MenuModule -->
<g id="node9" class="node">
<title>MenuModule</title>
<polygon fill="#8dd3c7" stroke="#000000" points="398.2092,-122 395.2092,-126 374.2092,-126 371.2092,-122 305.7908,-122 305.7908,-86 398.2092,-86 398.2092,-122"/>
<text text-anchor="middle" x="352" y="-99.8" font-family="Times,serif" font-size="14.00" fill="#000000">MenuModule</text>
</g>
<!-- MenuModule&#45;&gt;SyncModule -->
<g id="edge8" class="edge">
<title>MenuModule&#45;&gt;SyncModule</title>
<path fill="none" stroke="#000000" d="M352,-122.2667C352,-140.5552 352,-166 352,-166 352,-166 643.3055,-166 643.3055,-166"/>
<polygon fill="#000000" stroke="#000000" points="643.3055,-169.5001 653.3055,-166 643.3055,-162.5001 643.3055,-169.5001"/>
</g>
<!-- PaginacionModule -->
<g id="node10" class="node">
<title>PaginacionModule</title>
<polygon fill="#8dd3c7" stroke="#000000" points="287.7576,-122 284.7576,-126 263.7576,-126 260.7576,-122 166.2424,-122 166.2424,-86 287.7576,-86 287.7576,-122"/>
<text text-anchor="middle" x="227" y="-99.8" font-family="Times,serif" font-size="14.00" fill="#000000">PaginacionModule</text>
</g>
<!-- PaginacionModule&#45;&gt;SyncModule -->
<g id="edge9" class="edge">
<title>PaginacionModule&#45;&gt;SyncModule</title>
<path fill="none" stroke="#000000" d="M227,-122.1289C227,-142.5724 227,-173 227,-173 227,-173 643.2056,-173 643.2056,-173"/>
<polygon fill="#000000" stroke="#000000" points="643.2056,-176.5001 653.2056,-173 643.2056,-169.5001 643.2056,-176.5001"/>
</g>
<!-- SyncService -->
<g id="node11" class="node">
<title>SyncService</title>
<ellipse fill="#fdb462" stroke="#000000" cx="83" cy="-104" rx="59.1083" ry="18"/>
<text text-anchor="middle" x="83" y="-99.8" font-family="Times,serif" font-size="14.00" fill="#000000">SyncService</text>
</g>
<!-- SyncService&#45;&gt;SyncModule -->
<g id="edge10" class="edge">
<title>SyncService&#45;&gt;SyncModule</title>
<path fill="none" stroke="#000000" d="M83,-122.0109C83,-144.4852 83,-180 83,-180 83,-180 643.3349,-180 643.3349,-180"/>
<polygon fill="#000000" stroke="#000000" points="643.3349,-183.5001 653.3349,-180 643.3348,-176.5001 643.3349,-183.5001"/>
</g>
</g>
</svg>
