<?xml version="1.0" encoding="UTF-8" standalone="no"?>
<!DOCTYPE svg PUBLIC "-//W3C//DTD SVG 1.1//EN"
 "http://www.w3.org/Graphics/SVG/1.1/DTD/svg11.dtd">
<!-- Generated by graphviz version 2.40.1 (20161225.0304)
 -->
<!-- Title: dependencies Pages: 1 -->
<svg width="1399pt" height="211pt"
 viewBox="0.00 0.00 1399.00 211.00" xmlns="http://www.w3.org/2000/svg" xmlns:xlink="http://www.w3.org/1999/xlink">
<g id="graph0" class="graph" transform="scale(1 1) rotate(0) translate(4 207)">
<title>dependencies</title>
<polygon fill="#ffffff" stroke="transparent" points="-4,4 -4,-207 1395,-207 1395,4 -4,4"/>
<text text-anchor="start" x="674.5091" y="-42.4" font-family="sans-serif" font-weight="bold" font-size="14.00" fill="#000000">Legend</text>
<polygon fill="#ffffb3" stroke="transparent" points="461.5,-10 461.5,-30 481.5,-30 481.5,-10 461.5,-10"/>
<text text-anchor="start" x="485.129" y="-15.4" font-family="sans-serif" font-size="14.00" fill="#000000"> &#160;Declarations</text>
<polygon fill="#8dd3c7" stroke="transparent" points="574.5,-10 574.5,-30 594.5,-30 594.5,-10 574.5,-10"/>
<text text-anchor="start" x="598.2251" y="-15.4" font-family="sans-serif" font-size="14.00" fill="#000000"> &#160;Module</text>
<polygon fill="#80b1d3" stroke="transparent" points="660.5,-10 660.5,-30 680.5,-30 680.5,-10 660.5,-10"/>
<text text-anchor="start" x="684.2812" y="-15.4" font-family="sans-serif" font-size="14.00" fill="#000000"> &#160;Bootstrap</text>
<polygon fill="#fdb462" stroke="transparent" points="757.5,-10 757.5,-30 777.5,-30 777.5,-10 757.5,-10"/>
<text text-anchor="start" x="781.1732" y="-15.4" font-family="sans-serif" font-size="14.00" fill="#000000"> &#160;Providers</text>
<polygon fill="#fb8072" stroke="transparent" points="853.5,-10 853.5,-30 873.5,-30 873.5,-10 853.5,-10"/>
<text text-anchor="start" x="877.2258" y="-15.4" font-family="sans-serif" font-size="14.00" fill="#000000"> &#160;Exports</text>
<g id="clust1" class="cluster">
<title>cluster_MisServiciosModule</title>
<polygon fill="none" stroke="#000000" stroke-dasharray="1,5" points="8,-70 8,-195 1383,-195 1383,-70 8,-70"/>
</g>
<g id="clust2" class="cluster">
<title>cluster_MisServiciosModule_declarations</title>
<polygon fill="none" stroke="#000000" points="1215,-78 1215,-130 1375,-130 1375,-78 1215,-78"/>
</g>
<g id="clust4" class="cluster">
<title>cluster_MisServiciosModule_imports</title>
<polygon fill="none" stroke="#000000" points="295,-78 295,-130 1207,-130 1207,-78 295,-78"/>
</g>
<g id="clust7" class="cluster">
<title>cluster_MisServiciosModule_providers</title>
<polygon fill="none" stroke="#000000" points="16,-78 16,-130 287,-130 287,-78 16,-78"/>
</g>
<!-- FormularioComponent -->
<g id="node1" class="node">
<title>FormularioComponent</title>
<polygon fill="#ffffb3" stroke="#000000" points="1367.323,-122 1222.677,-122 1222.677,-86 1367.323,-86 1367.323,-122"/>
<text text-anchor="middle" x="1295" y="-99.8" font-family="Times,serif" font-size="14.00" fill="#000000">FormularioComponent</text>
</g>
<!-- MisServiciosModule -->
<g id="node2" class="node">
<title>MisServiciosModule</title>
<polygon fill="#8dd3c7" stroke="#000000" points="724.9285,-187 721.9285,-191 700.9285,-191 697.9285,-187 591.0715,-187 591.0715,-151 724.9285,-151 724.9285,-187"/>
<text text-anchor="middle" x="658" y="-164.8" font-family="Times,serif" font-size="14.00" fill="#000000">MisServiciosModule</text>
</g>
<!-- FormularioComponent&#45;&gt;MisServiciosModule -->
<g id="edge1" class="edge">
<title>FormularioComponent&#45;&gt;MisServiciosModule</title>
<path fill="none" stroke="#000000" d="M1295,-122.0109C1295,-144.4852 1295,-180 1295,-180 1295,-180 734.9662,-180 734.9662,-180"/>
<polygon fill="#000000" stroke="#000000" points="734.9662,-176.5001 724.9662,-180 734.9662,-183.5001 734.9662,-176.5001"/>
</g>
<!-- ServiciosRoutingModule -->
<g id="node3" class="node">
<title>ServiciosRoutingModule</title>
<polygon fill="#8dd3c7" stroke="#000000" points="1199.266,-122 1196.266,-126 1175.266,-126 1172.266,-122 1042.734,-122 1042.734,-86 1199.266,-86 1199.266,-122"/>
<text text-anchor="middle" x="1121" y="-99.8" font-family="Times,serif" font-size="14.00" fill="#000000">ServiciosRoutingModule</text>
</g>
<!-- ServiciosRoutingModule&#45;&gt;MisServiciosModule -->
<g id="edge2" class="edge">
<title>ServiciosRoutingModule&#45;&gt;MisServiciosModule</title>
<path fill="none" stroke="#000000" d="M1121,-122.1289C1121,-142.5724 1121,-173 1121,-173 1121,-173 734.8297,-173 734.8297,-173"/>
<polygon fill="#000000" stroke="#000000" points="734.8297,-169.5001 724.8297,-173 734.8297,-176.5001 734.8297,-169.5001"/>
</g>
<!-- HubModule -->
<g id="node4" class="node">
<title>HubModule</title>
<polygon fill="#8dd3c7" stroke="#000000" points="1024.6571,-122 1021.6571,-126 1000.6571,-126 997.6571,-122 941.3429,-122 941.3429,-86 1024.6571,-86 1024.6571,-122"/>
<text text-anchor="middle" x="983" y="-99.8" font-family="Times,serif" font-size="14.00" fill="#000000">HubModule</text>
</g>
<!-- HubModule&#45;&gt;MisServiciosModule -->
<g id="edge3" class="edge">
<title>HubModule&#45;&gt;MisServiciosModule</title>
<path fill="none" stroke="#000000" d="M983,-122.2667C983,-140.5552 983,-166 983,-166 983,-166 734.9461,-166 734.9461,-166"/>
<polygon fill="#000000" stroke="#000000" points="734.9462,-162.5001 724.9461,-166 734.9461,-169.5001 734.9462,-162.5001"/>
</g>
<!-- PerfilModule -->
<g id="node5" class="node">
<title>PerfilModule</title>
<polygon fill="#8dd3c7" stroke="#000000" points="923.1501,-122 920.1501,-126 899.1501,-126 896.1501,-122 832.8499,-122 832.8499,-86 923.1501,-86 923.1501,-122"/>
<text text-anchor="middle" x="878" y="-99.8" font-family="Times,serif" font-size="14.00" fill="#000000">PerfilModule</text>
</g>
<!-- PerfilModule&#45;&gt;MisServiciosModule -->
<g id="edge4" class="edge">
<title>PerfilModule&#45;&gt;MisServiciosModule</title>
<path fill="none" stroke="#000000" d="M878,-122.0091C878,-138.0494 878,-159 878,-159 878,-159 734.9033,-159 734.9033,-159"/>
<polygon fill="#000000" stroke="#000000" points="734.9033,-155.5001 724.9033,-159 734.9033,-162.5001 734.9033,-155.5001"/>
</g>
<!-- BloquearPantallaModule -->
<g id="node6" class="node">
<title>BloquearPantallaModule</title>
<polygon fill="#8dd3c7" stroke="#000000" points="814.965,-122 811.965,-126 790.965,-126 787.965,-122 659.035,-122 659.035,-86 814.965,-86 814.965,-122"/>
<text text-anchor="middle" x="737" y="-99.8" font-family="Times,serif" font-size="14.00" fill="#000000">BloquearPantallaModule</text>
</g>
<!-- BloquearPantallaModule&#45;&gt;MisServiciosModule -->
<g id="edge5" class="edge">
<title>BloquearPantallaModule&#45;&gt;MisServiciosModule</title>
<path fill="none" stroke="#000000" d="M691.8657,-122.1061C691.8657,-122.1061 691.8657,-140.991 691.8657,-140.991"/>
<polygon fill="#000000" stroke="#000000" points="688.3658,-140.9909 691.8657,-150.991 695.3658,-140.991 688.3658,-140.9909"/>
</g>
<!-- PaginacionModule -->
<g id="node7" class="node">
<title>PaginacionModule</title>
<polygon fill="#8dd3c7" stroke="#000000" points="640.7576,-122 637.7576,-126 616.7576,-126 613.7576,-122 519.2424,-122 519.2424,-86 640.7576,-86 640.7576,-122"/>
<text text-anchor="middle" x="580" y="-99.8" font-family="Times,serif" font-size="14.00" fill="#000000">PaginacionModule</text>
</g>
<!-- PaginacionModule&#45;&gt;MisServiciosModule -->
<g id="edge6" class="edge">
<title>PaginacionModule&#45;&gt;MisServiciosModule</title>
<path fill="none" stroke="#000000" d="M616.0824,-122.1061C616.0824,-122.1061 616.0824,-140.991 616.0824,-140.991"/>
<polygon fill="#000000" stroke="#000000" points="612.5825,-140.9909 616.0824,-150.991 619.5825,-140.991 612.5825,-140.9909"/>
</g>
<!-- MenuModule -->
<g id="node8" class="node">
<title>MenuModule</title>
<polygon fill="#8dd3c7" stroke="#000000" points="501.2092,-122 498.2092,-126 477.2092,-126 474.2092,-122 408.7908,-122 408.7908,-86 501.2092,-86 501.2092,-122"/>
<text text-anchor="middle" x="455" y="-99.8" font-family="Times,serif" font-size="14.00" fill="#000000">MenuModule</text>
</g>
<!-- MenuModule&#45;&gt;MisServiciosModule -->
<g id="edge7" class="edge">
<title>MenuModule&#45;&gt;MisServiciosModule</title>
<path fill="none" stroke="#000000" d="M455,-122.0091C455,-138.0494 455,-159 455,-159 455,-159 581.249,-159 581.249,-159"/>
<polygon fill="#000000" stroke="#000000" points="581.2491,-162.5001 591.249,-159 581.249,-155.5001 581.2491,-162.5001"/>
</g>
<!-- CrudModule -->
<g id="node9" class="node">
<title>CrudModule</title>
<polygon fill="#8dd3c7" stroke="#000000" points="390.5482,-122 387.5482,-126 366.5482,-126 363.5482,-122 303.4518,-122 303.4518,-86 390.5482,-86 390.5482,-122"/>
<text text-anchor="middle" x="347" y="-99.8" font-family="Times,serif" font-size="14.00" fill="#000000">CrudModule</text>
</g>
<!-- CrudModule&#45;&gt;MisServiciosModule -->
<g id="edge8" class="edge">
<title>CrudModule&#45;&gt;MisServiciosModule</title>
<path fill="none" stroke="#000000" d="M347,-122.2667C347,-140.5552 347,-166 347,-166 347,-166 581.2827,-166 581.2827,-166"/>
<polygon fill="#000000" stroke="#000000" points="581.2827,-169.5001 591.2827,-166 581.2827,-162.5001 581.2827,-169.5001"/>
</g>
<!-- AuthService -->
<g id="node10" class="node">
<title>AuthService</title>
<ellipse fill="#fdb462" stroke="#000000" cx="220" cy="-104" rx="59.1083" ry="18"/>
<text text-anchor="middle" x="220" y="-99.8" font-family="Times,serif" font-size="14.00" fill="#000000">AuthService</text>
</g>
<!-- AuthService&#45;&gt;MisServiciosModule -->
<g id="edge9" class="edge">
<title>AuthService&#45;&gt;MisServiciosModule</title>
<path fill="none" stroke="#000000" d="M220,-122.1289C220,-142.5724 220,-173 220,-173 220,-173 581.0004,-173 581.0004,-173"/>
<polygon fill="#000000" stroke="#000000" points="581.0005,-176.5001 591.0004,-173 581.0004,-169.5001 581.0005,-176.5001"/>
</g>
<!-- CrudService -->
<g id="node11" class="node">
<title>CrudService</title>
<ellipse fill="#fdb462" stroke="#000000" cx="83" cy="-104" rx="59.1083" ry="18"/>
<text text-anchor="middle" x="83" y="-99.8" font-family="Times,serif" font-size="14.00" fill="#000000">CrudService</text>
</g>
<!-- CrudService&#45;&gt;MisServiciosModule -->
<g id="edge10" class="edge">
<title>CrudService&#45;&gt;MisServiciosModule</title>
<path fill="none" stroke="#000000" d="M83,-122.0109C83,-144.4852 83,-180 83,-180 83,-180 581.1969,-180 581.1969,-180"/>
<polygon fill="#000000" stroke="#000000" points="581.1969,-183.5001 591.1969,-180 581.1969,-176.5001 581.1969,-183.5001"/>
</g>
</g>
</svg>
