<?xml version="1.0" encoding="UTF-8" standalone="no"?>
<!DOCTYPE svg PUBLIC "-//W3C//DTD SVG 1.1//EN"
 "http://www.w3.org/Graphics/SVG/1.1/DTD/svg11.dtd">
<!-- Generated by graphviz version 2.40.1 (20161225.0304)
 -->
<!-- Title: dependencies Pages: 1 -->
<svg width="1877pt" height="211pt"
 viewBox="0.00 0.00 1877.00 211.00" xmlns="http://www.w3.org/2000/svg" xmlns:xlink="http://www.w3.org/1999/xlink">
<g id="graph0" class="graph" transform="scale(1 1) rotate(0) translate(4 207)">
<title>dependencies</title>
<polygon fill="#ffffff" stroke="transparent" points="-4,4 -4,-207 1873,-207 1873,4 -4,4"/>
<text text-anchor="start" x="913.5091" y="-42.4" font-family="sans-serif" font-weight="bold" font-size="14.00" fill="#000000">Legend</text>
<polygon fill="#ffffb3" stroke="transparent" points="700.5,-10 700.5,-30 720.5,-30 720.5,-10 700.5,-10"/>
<text text-anchor="start" x="724.129" y="-15.4" font-family="sans-serif" font-size="14.00" fill="#000000"> &#160;Declarations</text>
<polygon fill="#8dd3c7" stroke="transparent" points="813.5,-10 813.5,-30 833.5,-30 833.5,-10 813.5,-10"/>
<text text-anchor="start" x="837.2251" y="-15.4" font-family="sans-serif" font-size="14.00" fill="#000000"> &#160;Module</text>
<polygon fill="#80b1d3" stroke="transparent" points="899.5,-10 899.5,-30 919.5,-30 919.5,-10 899.5,-10"/>
<text text-anchor="start" x="923.2812" y="-15.4" font-family="sans-serif" font-size="14.00" fill="#000000"> &#160;Bootstrap</text>
<polygon fill="#fdb462" stroke="transparent" points="996.5,-10 996.5,-30 1016.5,-30 1016.5,-10 996.5,-10"/>
<text text-anchor="start" x="1020.1732" y="-15.4" font-family="sans-serif" font-size="14.00" fill="#000000"> &#160;Providers</text>
<polygon fill="#fb8072" stroke="transparent" points="1092.5,-10 1092.5,-30 1112.5,-30 1112.5,-10 1092.5,-10"/>
<text text-anchor="start" x="1116.2258" y="-15.4" font-family="sans-serif" font-size="14.00" fill="#000000"> &#160;Exports</text>
<g id="clust1" class="cluster">
<title>cluster_TiposInsumosModule</title>
<polygon fill="none" stroke="#000000" stroke-dasharray="1,5" points="8,-70 8,-195 1861,-195 1861,-70 8,-70"/>
</g>
<g id="clust2" class="cluster">
<title>cluster_TiposInsumosModule_declarations</title>
<polygon fill="none" stroke="#000000" points="1565,-78 1565,-130 1853,-130 1853,-78 1565,-78"/>
</g>
<g id="clust5" class="cluster">
<title>cluster_TiposInsumosModule_imports</title>
<polygon fill="none" stroke="#000000" points="295,-78 295,-130 1557,-130 1557,-78 295,-78"/>
</g>
<g id="clust8" class="cluster">
<title>cluster_TiposInsumosModule_providers</title>
<polygon fill="none" stroke="#000000" points="16,-78 16,-130 287,-130 287,-78 16,-78"/>
</g>
<!-- ListaComponent -->
<g id="node1" class="node">
<title>ListaComponent</title>
<polygon fill="#ffffb3" stroke="#000000" points="1844.8259,-122 1735.1741,-122 1735.1741,-86 1844.8259,-86 1844.8259,-122"/>
<text text-anchor="middle" x="1790" y="-99.8" font-family="Times,serif" font-size="14.00" fill="#000000">ListaComponent</text>
</g>
<!-- TiposInsumosModule -->
<g id="node3" class="node">
<title>TiposInsumosModule</title>
<polygon fill="#8dd3c7" stroke="#000000" points="971.3781,-187 968.3781,-191 947.3781,-191 944.3781,-187 832.6219,-187 832.6219,-151 971.3781,-151 971.3781,-187"/>
<text text-anchor="middle" x="902" y="-164.8" font-family="Times,serif" font-size="14.00" fill="#000000">TiposInsumosModule</text>
</g>
<!-- ListaComponent&#45;&gt;TiposInsumosModule -->
<g id="edge1" class="edge">
<title>ListaComponent&#45;&gt;TiposInsumosModule</title>
<path fill="none" stroke="#000000" d="M1790,-122.0908C1790,-145.1328 1790,-182 1790,-182 1790,-182 981.6799,-182 981.6799,-182"/>
<polygon fill="#000000" stroke="#000000" points="981.6799,-178.5001 971.6799,-182 981.6798,-185.5001 981.6799,-178.5001"/>
</g>
<!-- FormularioComponent -->
<g id="node2" class="node">
<title>FormularioComponent</title>
<polygon fill="#ffffb3" stroke="#000000" points="1717.323,-122 1572.677,-122 1572.677,-86 1717.323,-86 1717.323,-122"/>
<text text-anchor="middle" x="1645" y="-99.8" font-family="Times,serif" font-size="14.00" fill="#000000">FormularioComponent</text>
</g>
<!-- FormularioComponent&#45;&gt;TiposInsumosModule -->
<g id="edge2" class="edge">
<title>FormularioComponent&#45;&gt;TiposInsumosModule</title>
<path fill="none" stroke="#000000" d="M1645,-122.2843C1645,-143.3211 1645,-175 1645,-175 1645,-175 981.5657,-175 981.5657,-175"/>
<polygon fill="#000000" stroke="#000000" points="981.5657,-171.5001 971.5657,-175 981.5657,-178.5001 981.5657,-171.5001"/>
</g>
<!-- TiposInsumosRoutingModule -->
<g id="node4" class="node">
<title>TiposInsumosRoutingModule</title>
<polygon fill="#8dd3c7" stroke="#000000" points="1548.9958,-122 1545.9958,-126 1524.9958,-126 1521.9958,-122 1365.0042,-122 1365.0042,-86 1548.9958,-86 1548.9958,-122"/>
<text text-anchor="middle" x="1457" y="-99.8" font-family="Times,serif" font-size="14.00" fill="#000000">TiposInsumosRoutingModule</text>
</g>
<!-- TiposInsumosRoutingModule&#45;&gt;TiposInsumosModule -->
<g id="edge3" class="edge">
<title>TiposInsumosRoutingModule&#45;&gt;TiposInsumosModule</title>
<path fill="none" stroke="#000000" d="M1457,-122.1061C1457,-141.3391 1457,-169 1457,-169 1457,-169 981.4488,-169 981.4488,-169"/>
<polygon fill="#000000" stroke="#000000" points="981.4489,-165.5001 971.4488,-169 981.4488,-172.5001 981.4489,-165.5001"/>
</g>
<!-- HubModule -->
<g id="node5" class="node">
<title>HubModule</title>
<polygon fill="#8dd3c7" stroke="#000000" points="1346.6571,-122 1343.6571,-126 1322.6571,-126 1319.6571,-122 1263.3429,-122 1263.3429,-86 1346.6571,-86 1346.6571,-122"/>
<text text-anchor="middle" x="1305" y="-99.8" font-family="Times,serif" font-size="14.00" fill="#000000">HubModule</text>
</g>
<!-- HubModule&#45;&gt;TiposInsumosModule -->
<g id="edge4" class="edge">
<title>HubModule&#45;&gt;TiposInsumosModule</title>
<path fill="none" stroke="#000000" d="M1305,-122.0225C1305,-139.3734 1305,-163 1305,-163 1305,-163 981.7372,-163 981.7372,-163"/>
<polygon fill="#000000" stroke="#000000" points="981.7372,-159.5001 971.7372,-163 981.7371,-166.5001 981.7372,-159.5001"/>
</g>
<!-- PerfilModule -->
<g id="node6" class="node">
<title>PerfilModule</title>
<polygon fill="#8dd3c7" stroke="#000000" points="1245.1501,-122 1242.1501,-126 1221.1501,-126 1218.1501,-122 1154.8499,-122 1154.8499,-86 1245.1501,-86 1245.1501,-122"/>
<text text-anchor="middle" x="1200" y="-99.8" font-family="Times,serif" font-size="14.00" fill="#000000">PerfilModule</text>
</g>
<!-- PerfilModule&#45;&gt;TiposInsumosModule -->
<g id="edge5" class="edge">
<title>PerfilModule&#45;&gt;TiposInsumosModule</title>
<path fill="none" stroke="#000000" d="M1200,-122.2396C1200,-137.5706 1200,-157 1200,-157 1200,-157 981.4917,-157 981.4917,-157"/>
<polygon fill="#000000" stroke="#000000" points="981.4917,-153.5001 971.4917,-157 981.4916,-160.5001 981.4917,-153.5001"/>
</g>
<!-- BloquearPantallaModule -->
<g id="node7" class="node">
<title>BloquearPantallaModule</title>
<polygon fill="#8dd3c7" stroke="#000000" points="1136.965,-122 1133.965,-126 1112.965,-126 1109.965,-122 981.035,-122 981.035,-86 1136.965,-86 1136.965,-122"/>
<text text-anchor="middle" x="1059" y="-99.8" font-family="Times,serif" font-size="14.00" fill="#000000">BloquearPantallaModule</text>
</g>
<!-- BloquearPantallaModule&#45;&gt;TiposInsumosModule -->
<g id="edge6" class="edge">
<title>BloquearPantallaModule&#45;&gt;TiposInsumosModule</title>
<path fill="none" stroke="#000000" d="M980.7103,-104C972.5458,-104 967.1589,-104 967.1589,-104 967.1589,-104 967.1589,-140.8939 967.1589,-140.8939"/>
<polygon fill="#000000" stroke="#000000" points="963.6589,-140.8938 967.1589,-150.8939 970.6589,-140.8939 963.6589,-140.8938"/>
</g>
<!-- PaginacionModule -->
<g id="node8" class="node">
<title>PaginacionModule</title>
<polygon fill="#8dd3c7" stroke="#000000" points="962.7576,-122 959.7576,-126 938.7576,-126 935.7576,-122 841.2424,-122 841.2424,-86 962.7576,-86 962.7576,-122"/>
<text text-anchor="middle" x="902" y="-99.8" font-family="Times,serif" font-size="14.00" fill="#000000">PaginacionModule</text>
</g>
<!-- PaginacionModule&#45;&gt;TiposInsumosModule -->
<g id="edge7" class="edge">
<title>PaginacionModule&#45;&gt;TiposInsumosModule</title>
<path fill="none" stroke="#000000" d="M902,-122.1061C902,-122.1061 902,-140.991 902,-140.991"/>
<polygon fill="#000000" stroke="#000000" points="898.5001,-140.9909 902,-150.991 905.5001,-140.991 898.5001,-140.9909"/>
</g>
<!-- MenuPanelModule -->
<g id="node9" class="node">
<title>MenuPanelModule</title>
<polygon fill="#8dd3c7" stroke="#000000" points="822.8118,-122 819.8118,-126 798.8118,-126 795.8118,-122 699.1882,-122 699.1882,-86 822.8118,-86 822.8118,-122"/>
<text text-anchor="middle" x="761" y="-99.8" font-family="Times,serif" font-size="14.00" fill="#000000">MenuPanelModule</text>
</g>
<!-- MenuPanelModule&#45;&gt;TiposInsumosModule -->
<g id="edge8" class="edge">
<title>MenuPanelModule&#45;&gt;TiposInsumosModule</title>
<path fill="none" stroke="#000000" d="M822.9307,-104C831.1707,-104 836.8412,-104 836.8412,-104 836.8412,-104 836.8412,-140.8939 836.8412,-140.8939"/>
<polygon fill="#000000" stroke="#000000" points="833.3412,-140.8938 836.8412,-150.8939 840.3412,-140.8939 833.3412,-140.8938"/>
</g>
<!-- MenuAsidePanelModule -->
<g id="node10" class="node">
<title>MenuAsidePanelModule</title>
<polygon fill="#8dd3c7" stroke="#000000" points="680.9678,-122 677.9678,-126 656.9678,-126 653.9678,-122 525.0322,-122 525.0322,-86 680.9678,-86 680.9678,-122"/>
<text text-anchor="middle" x="603" y="-99.8" font-family="Times,serif" font-size="14.00" fill="#000000">MenuAsidePanelModule</text>
</g>
<!-- MenuAsidePanelModule&#45;&gt;TiposInsumosModule -->
<g id="edge9" class="edge">
<title>MenuAsidePanelModule&#45;&gt;TiposInsumosModule</title>
<path fill="none" stroke="#000000" d="M603,-122.2396C603,-137.5706 603,-157 603,-157 603,-157 822.2751,-157 822.2751,-157"/>
<polygon fill="#000000" stroke="#000000" points="822.2752,-160.5001 832.2751,-157 822.2751,-153.5001 822.2752,-160.5001"/>
</g>
<!-- CrudModule -->
<g id="node11" class="node">
<title>CrudModule</title>
<polygon fill="#8dd3c7" stroke="#000000" points="506.5482,-122 503.5482,-126 482.5482,-126 479.5482,-122 419.4518,-122 419.4518,-86 506.5482,-86 506.5482,-122"/>
<text text-anchor="middle" x="463" y="-99.8" font-family="Times,serif" font-size="14.00" fill="#000000">CrudModule</text>
</g>
<!-- CrudModule&#45;&gt;TiposInsumosModule -->
<g id="edge10" class="edge">
<title>CrudModule&#45;&gt;TiposInsumosModule</title>
<path fill="none" stroke="#000000" d="M463,-122.0225C463,-139.3734 463,-163 463,-163 463,-163 822.4391,-163 822.4391,-163"/>
<polygon fill="#000000" stroke="#000000" points="822.4392,-166.5001 832.4391,-163 822.4391,-159.5001 822.4392,-166.5001"/>
</g>
<!-- ParcialModule -->
<g id="node12" class="node">
<title>ParcialModule</title>
<polygon fill="#8dd3c7" stroke="#000000" points="401.4189,-122 398.4189,-126 377.4189,-126 374.4189,-122 302.5811,-122 302.5811,-86 401.4189,-86 401.4189,-122"/>
<text text-anchor="middle" x="352" y="-99.8" font-family="Times,serif" font-size="14.00" fill="#000000">ParcialModule</text>
</g>
<!-- ParcialModule&#45;&gt;TiposInsumosModule -->
<g id="edge11" class="edge">
<title>ParcialModule&#45;&gt;TiposInsumosModule</title>
<path fill="none" stroke="#000000" d="M352,-122.1061C352,-141.3391 352,-169 352,-169 352,-169 822.6208,-169 822.6208,-169"/>
<polygon fill="#000000" stroke="#000000" points="822.6208,-172.5001 832.6208,-169 822.6208,-165.5001 822.6208,-172.5001"/>
</g>
<!-- AuthService -->
<g id="node13" class="node">
<title>AuthService</title>
<ellipse fill="#fdb462" stroke="#000000" cx="220" cy="-104" rx="59.1083" ry="18"/>
<text text-anchor="middle" x="220" y="-99.8" font-family="Times,serif" font-size="14.00" fill="#000000">AuthService</text>
</g>
<!-- AuthService&#45;&gt;TiposInsumosModule -->
<g id="edge12" class="edge">
<title>AuthService&#45;&gt;TiposInsumosModule</title>
<path fill="none" stroke="#000000" d="M220,-122.2843C220,-143.3211 220,-175 220,-175 220,-175 822.5364,-175 822.5364,-175"/>
<polygon fill="#000000" stroke="#000000" points="822.5364,-178.5001 832.5364,-175 822.5363,-171.5001 822.5364,-178.5001"/>
</g>
<!-- CrudService -->
<g id="node14" class="node">
<title>CrudService</title>
<ellipse fill="#fdb462" stroke="#000000" cx="83" cy="-104" rx="59.1083" ry="18"/>
<text text-anchor="middle" x="83" y="-99.8" font-family="Times,serif" font-size="14.00" fill="#000000">CrudService</text>
</g>
<!-- CrudService&#45;&gt;TiposInsumosModule -->
<g id="edge13" class="edge">
<title>CrudService&#45;&gt;TiposInsumosModule</title>
<path fill="none" stroke="#000000" d="M83,-122.0908C83,-145.1328 83,-182 83,-182 83,-182 822.5258,-182 822.5258,-182"/>
<polygon fill="#000000" stroke="#000000" points="822.5259,-185.5001 832.5258,-182 822.5258,-178.5001 822.5259,-185.5001"/>
</g>
</g>
</svg>
