<?xml version="1.0" encoding="UTF-8" standalone="no"?>
<!DOCTYPE svg PUBLIC "-//W3C//DTD SVG 1.1//EN"
 "http://www.w3.org/Graphics/SVG/1.1/DTD/svg11.dtd">
<!-- Generated by graphviz version 2.40.1 (20161225.0304)
 -->
<!-- Title: dependencies Pages: 1 -->
<svg width="2917pt" height="211pt"
 viewBox="0.00 0.00 2917.00 211.00" xmlns="http://www.w3.org/2000/svg" xmlns:xlink="http://www.w3.org/1999/xlink">
<g id="graph0" class="graph" transform="scale(1 1) rotate(0) translate(4 207)">
<title>dependencies</title>
<polygon fill="#ffffff" stroke="transparent" points="-4,4 -4,-207 2913,-207 2913,4 -4,4"/>
<text text-anchor="start" x="1433.5091" y="-42.4" font-family="sans-serif" font-weight="bold" font-size="14.00" fill="#000000">Legend</text>
<polygon fill="#ffffb3" stroke="transparent" points="1220.5,-10 1220.5,-30 1240.5,-30 1240.5,-10 1220.5,-10"/>
<text text-anchor="start" x="1244.129" y="-15.4" font-family="sans-serif" font-size="14.00" fill="#000000"> &#160;Declarations</text>
<polygon fill="#8dd3c7" stroke="transparent" points="1333.5,-10 1333.5,-30 1353.5,-30 1353.5,-10 1333.5,-10"/>
<text text-anchor="start" x="1357.2251" y="-15.4" font-family="sans-serif" font-size="14.00" fill="#000000"> &#160;Module</text>
<polygon fill="#80b1d3" stroke="transparent" points="1419.5,-10 1419.5,-30 1439.5,-30 1439.5,-10 1419.5,-10"/>
<text text-anchor="start" x="1443.2812" y="-15.4" font-family="sans-serif" font-size="14.00" fill="#000000"> &#160;Bootstrap</text>
<polygon fill="#fdb462" stroke="transparent" points="1516.5,-10 1516.5,-30 1536.5,-30 1536.5,-10 1516.5,-10"/>
<text text-anchor="start" x="1540.1732" y="-15.4" font-family="sans-serif" font-size="14.00" fill="#000000"> &#160;Providers</text>
<polygon fill="#fb8072" stroke="transparent" points="1612.5,-10 1612.5,-30 1632.5,-30 1632.5,-10 1612.5,-10"/>
<text text-anchor="start" x="1636.2258" y="-15.4" font-family="sans-serif" font-size="14.00" fill="#000000"> &#160;Exports</text>
<g id="clust1" class="cluster">
<title>cluster_PedidosModule</title>
<polygon fill="none" stroke="#000000" stroke-dasharray="1,5" points="8,-70 8,-195 2901,-195 2901,-70 8,-70"/>
</g>
<g id="clust2" class="cluster">
<title>cluster_PedidosModule_declarations</title>
<polygon fill="none" stroke="#000000" points="1852,-78 1852,-130 2893,-130 2893,-78 1852,-78"/>
</g>
<g id="clust10" class="cluster">
<title>cluster_PedidosModule_imports</title>
<polygon fill="none" stroke="#000000" points="830,-78 830,-130 1844,-130 1844,-78 830,-78"/>
</g>
<g id="clust13" class="cluster">
<title>cluster_PedidosModule_providers</title>
<polygon fill="none" stroke="#000000" points="16,-78 16,-130 822,-130 822,-78 16,-78"/>
</g>
<!-- PedidosComponent -->
<g id="node1" class="node">
<title>PedidosComponent</title>
<polygon fill="#ffffb3" stroke="#000000" points="2884.6652,-122 2759.3348,-122 2759.3348,-86 2884.6652,-86 2884.6652,-122"/>
<text text-anchor="middle" x="2822" y="-99.8" font-family="Times,serif" font-size="14.00" fill="#000000">PedidosComponent</text>
</g>
<!-- PedidosModule -->
<g id="node8" class="node">
<title>PedidosModule</title>
<polygon fill="#8dd3c7" stroke="#000000" points="1599.8823,-187 1596.8823,-191 1575.8823,-191 1572.8823,-187 1496.1177,-187 1496.1177,-151 1599.8823,-151 1599.8823,-187"/>
<text text-anchor="middle" x="1548" y="-164.8" font-family="Times,serif" font-size="14.00" fill="#000000">PedidosModule</text>
</g>
<!-- PedidosComponent&#45;&gt;PedidosModule -->
<g id="edge1" class="edge">
<title>PedidosComponent&#45;&gt;PedidosModule</title>
<path fill="none" stroke="#000000" d="M2822,-122.1532C2822,-145.7566 2822,-184 2822,-184 2822,-184 1609.9181,-184 1609.9181,-184"/>
<polygon fill="#000000" stroke="#000000" points="1609.9182,-180.5001 1599.9181,-184 1609.9181,-187.5001 1609.9182,-180.5001"/>
</g>
<!-- MenuLateralComponent -->
<g id="node2" class="node">
<title>MenuLateralComponent</title>
<polygon fill="#ffffb3" stroke="#000000" points="2740.6302,-122 2587.3698,-122 2587.3698,-86 2740.6302,-86 2740.6302,-122"/>
<text text-anchor="middle" x="2664" y="-99.8" font-family="Times,serif" font-size="14.00" fill="#000000">MenuLateralComponent</text>
</g>
<!-- MenuLateralComponent&#45;&gt;PedidosModule -->
<g id="edge2" class="edge">
<title>MenuLateralComponent&#45;&gt;PedidosModule</title>
<path fill="none" stroke="#000000" d="M2664,-122.0109C2664,-144.4852 2664,-180 2664,-180 2664,-180 1609.9589,-180 1609.9589,-180"/>
<polygon fill="#000000" stroke="#000000" points="1609.9589,-176.5001 1599.9589,-180 1609.9588,-183.5001 1609.9589,-176.5001"/>
</g>
<!-- ListaComponent -->
<g id="node3" class="node">
<title>ListaComponent</title>
<polygon fill="#ffffb3" stroke="#000000" points="2569.8259,-122 2460.1741,-122 2460.1741,-86 2569.8259,-86 2569.8259,-122"/>
<text text-anchor="middle" x="2515" y="-99.8" font-family="Times,serif" font-size="14.00" fill="#000000">ListaComponent</text>
</g>
<!-- ListaComponent&#45;&gt;PedidosModule -->
<g id="edge3" class="edge">
<title>ListaComponent&#45;&gt;PedidosModule</title>
<path fill="none" stroke="#000000" d="M2515,-122.0449C2515,-143.6623 2515,-177 2515,-177 2515,-177 1609.9901,-177 1609.9901,-177"/>
<polygon fill="#000000" stroke="#000000" points="1609.9902,-173.5001 1599.9901,-177 1609.9901,-180.5001 1609.9902,-173.5001"/>
</g>
<!-- VerComponent -->
<g id="node4" class="node">
<title>VerComponent</title>
<polygon fill="#ffffb3" stroke="#000000" points="2442.3147,-122 2339.6853,-122 2339.6853,-86 2442.3147,-86 2442.3147,-122"/>
<text text-anchor="middle" x="2391" y="-99.8" font-family="Times,serif" font-size="14.00" fill="#000000">VerComponent</text>
</g>
<!-- VerComponent&#45;&gt;PedidosModule -->
<g id="edge4" class="edge">
<title>VerComponent&#45;&gt;PedidosModule</title>
<path fill="none" stroke="#000000" d="M2391,-122.1289C2391,-142.5724 2391,-173 2391,-173 2391,-173 1610.0972,-173 1610.0972,-173"/>
<polygon fill="#000000" stroke="#000000" points="1610.0973,-169.5001 1600.0972,-173 1610.0972,-176.5001 1610.0973,-169.5001"/>
</g>
<!-- FormularioComponent -->
<g id="node5" class="node">
<title>FormularioComponent</title>
<polygon fill="#ffffb3" stroke="#000000" points="2322.323,-122 2177.677,-122 2177.677,-86 2322.323,-86 2322.323,-122"/>
<text text-anchor="middle" x="2250" y="-99.8" font-family="Times,serif" font-size="14.00" fill="#000000">FormularioComponent</text>
</g>
<!-- FormularioComponent&#45;&gt;PedidosModule -->
<g id="edge5" class="edge">
<title>FormularioComponent&#45;&gt;PedidosModule</title>
<path fill="none" stroke="#000000" d="M2250,-122.1061C2250,-141.3391 2250,-169 2250,-169 2250,-169 1609.9048,-169 1609.9048,-169"/>
<polygon fill="#000000" stroke="#000000" points="1609.9049,-165.5001 1599.9048,-169 1609.9048,-172.5001 1609.9049,-165.5001"/>
</g>
<!-- RecepcionComponent -->
<g id="node6" class="node">
<title>RecepcionComponent</title>
<polygon fill="#ffffb3" stroke="#000000" points="2160.4186,-122 2019.5814,-122 2019.5814,-86 2160.4186,-86 2160.4186,-122"/>
<text text-anchor="middle" x="2090" y="-99.8" font-family="Times,serif" font-size="14.00" fill="#000000">RecepcionComponent</text>
</g>
<!-- RecepcionComponent&#45;&gt;PedidosModule -->
<g id="edge6" class="edge">
<title>RecepcionComponent&#45;&gt;PedidosModule</title>
<path fill="none" stroke="#000000" d="M2090,-122.2667C2090,-140.5552 2090,-166 2090,-166 2090,-166 1609.9692,-166 1609.9692,-166"/>
<polygon fill="#000000" stroke="#000000" points="1609.9693,-162.5001 1599.9692,-166 1609.9692,-169.5001 1609.9693,-162.5001"/>
</g>
<!-- ListaCluesComponent -->
<g id="node7" class="node">
<title>ListaCluesComponent</title>
<polygon fill="#ffffb3" stroke="#000000" points="2001.712,-122 1860.288,-122 1860.288,-86 2001.712,-86 2001.712,-122"/>
<text text-anchor="middle" x="1931" y="-99.8" font-family="Times,serif" font-size="14.00" fill="#000000">ListaCluesComponent</text>
</g>
<!-- ListaCluesComponent&#45;&gt;PedidosModule -->
<g id="edge7" class="edge">
<title>ListaCluesComponent&#45;&gt;PedidosModule</title>
<path fill="none" stroke="#000000" d="M1931,-122.0336C1931,-139.0597 1931,-162 1931,-162 1931,-162 1610.0517,-162 1610.0517,-162"/>
<polygon fill="#000000" stroke="#000000" points="1610.0517,-158.5001 1600.0517,-162 1610.0516,-165.5001 1610.0517,-158.5001"/>
</g>
<!-- HubModule -->
<g id="node9" class="node">
<title>HubModule</title>
<polygon fill="#8dd3c7" stroke="#000000" points="1835.6571,-122 1832.6571,-126 1811.6571,-126 1808.6571,-122 1752.3429,-122 1752.3429,-86 1835.6571,-86 1835.6571,-122"/>
<text text-anchor="middle" x="1794" y="-99.8" font-family="Times,serif" font-size="14.00" fill="#000000">HubModule</text>
</g>
<!-- HubModule&#45;&gt;PedidosModule -->
<g id="edge8" class="edge">
<title>HubModule&#45;&gt;PedidosModule</title>
<path fill="none" stroke="#000000" d="M1794,-122.0091C1794,-138.0494 1794,-159 1794,-159 1794,-159 1610.1703,-159 1610.1703,-159"/>
<polygon fill="#000000" stroke="#000000" points="1610.1703,-155.5001 1600.1703,-159 1610.1702,-162.5001 1610.1703,-155.5001"/>
</g>
<!-- PerfilModule -->
<g id="node10" class="node">
<title>PerfilModule</title>
<polygon fill="#8dd3c7" stroke="#000000" points="1734.1501,-122 1731.1501,-126 1710.1501,-126 1707.1501,-122 1643.8499,-122 1643.8499,-86 1734.1501,-86 1734.1501,-122"/>
<text text-anchor="middle" x="1689" y="-99.8" font-family="Times,serif" font-size="14.00" fill="#000000">PerfilModule</text>
</g>
<!-- PerfilModule&#45;&gt;PedidosModule -->
<g id="edge9" class="edge">
<title>PerfilModule&#45;&gt;PedidosModule</title>
<path fill="none" stroke="#000000" d="M1689,-122.1243C1689,-136.7832 1689,-155 1689,-155 1689,-155 1610.1026,-155 1610.1026,-155"/>
<polygon fill="#000000" stroke="#000000" points="1610.1026,-151.5001 1600.1026,-155 1610.1026,-158.5001 1610.1026,-151.5001"/>
</g>
<!-- BloquearPantallaModule -->
<g id="node11" class="node">
<title>BloquearPantallaModule</title>
<polygon fill="#8dd3c7" stroke="#000000" points="1625.965,-122 1622.965,-126 1601.965,-126 1598.965,-122 1470.035,-122 1470.035,-86 1625.965,-86 1625.965,-122"/>
<text text-anchor="middle" x="1548" y="-99.8" font-family="Times,serif" font-size="14.00" fill="#000000">BloquearPantallaModule</text>
</g>
<!-- BloquearPantallaModule&#45;&gt;PedidosModule -->
<g id="edge10" class="edge">
<title>BloquearPantallaModule&#45;&gt;PedidosModule</title>
<path fill="none" stroke="#000000" d="M1548,-122.1061C1548,-122.1061 1548,-140.991 1548,-140.991"/>
<polygon fill="#000000" stroke="#000000" points="1544.5001,-140.9909 1548,-150.991 1551.5001,-140.991 1544.5001,-140.9909"/>
</g>
<!-- PaginacionModule -->
<g id="node12" class="node">
<title>PaginacionModule</title>
<polygon fill="#8dd3c7" stroke="#000000" points="1451.7576,-122 1448.7576,-126 1427.7576,-126 1424.7576,-122 1330.2424,-122 1330.2424,-86 1451.7576,-86 1451.7576,-122"/>
<text text-anchor="middle" x="1391" y="-99.8" font-family="Times,serif" font-size="14.00" fill="#000000">PaginacionModule</text>
</g>
<!-- PaginacionModule&#45;&gt;PedidosModule -->
<g id="edge11" class="edge">
<title>PaginacionModule&#45;&gt;PedidosModule</title>
<path fill="none" stroke="#000000" d="M1391,-122.1243C1391,-136.7832 1391,-155 1391,-155 1391,-155 1485.7213,-155 1485.7213,-155"/>
<polygon fill="#000000" stroke="#000000" points="1485.7213,-158.5001 1495.7213,-155 1485.7212,-151.5001 1485.7213,-158.5001"/>
</g>
<!-- BuscarInsumosModule -->
<g id="node13" class="node">
<title>BuscarInsumosModule</title>
<polygon fill="#8dd3c7" stroke="#000000" points="1311.8613,-122 1308.8613,-126 1287.8613,-126 1284.8613,-122 1166.1387,-122 1166.1387,-86 1311.8613,-86 1311.8613,-122"/>
<text text-anchor="middle" x="1239" y="-99.8" font-family="Times,serif" font-size="14.00" fill="#000000">BuscarInsumosModule</text>
</g>
<!-- BuscarInsumosModule&#45;&gt;PedidosModule -->
<g id="edge12" class="edge">
<title>BuscarInsumosModule&#45;&gt;PedidosModule</title>
<path fill="none" stroke="#000000" d="M1239,-122.0091C1239,-138.0494 1239,-159 1239,-159 1239,-159 1485.9318,-159 1485.9318,-159"/>
<polygon fill="#000000" stroke="#000000" points="1485.9318,-162.5001 1495.9318,-159 1485.9317,-155.5001 1485.9318,-162.5001"/>
</g>
<!-- PedidosRoutingModule -->
<g id="node14" class="node">
<title>PedidosRoutingModule</title>
<polygon fill="#8dd3c7" stroke="#000000" points="1148.5,-122 1145.5,-126 1124.5,-126 1121.5,-122 999.5,-122 999.5,-86 1148.5,-86 1148.5,-122"/>
<text text-anchor="middle" x="1074" y="-99.8" font-family="Times,serif" font-size="14.00" fill="#000000">PedidosRoutingModule</text>
</g>
<!-- PedidosRoutingModule&#45;&gt;PedidosModule -->
<g id="edge13" class="edge">
<title>PedidosRoutingModule&#45;&gt;PedidosModule</title>
<path fill="none" stroke="#000000" d="M1074,-122.0336C1074,-139.0597 1074,-162 1074,-162 1074,-162 1485.9178,-162 1485.9178,-162"/>
<polygon fill="#000000" stroke="#000000" points="1485.9178,-165.5001 1495.9178,-162 1485.9178,-158.5001 1485.9178,-165.5001"/>
</g>
<!-- IndexFarmaciaModule -->
<g id="node15" class="node">
<title>IndexFarmaciaModule</title>
<polygon fill="#8dd3c7" stroke="#000000" points="981.5086,-122 978.5086,-126 957.5086,-126 954.5086,-122 838.4914,-122 838.4914,-86 981.5086,-86 981.5086,-122"/>
<text text-anchor="middle" x="910" y="-99.8" font-family="Times,serif" font-size="14.00" fill="#000000">IndexFarmaciaModule</text>
</g>
<!-- IndexFarmaciaModule&#45;&gt;PedidosModule -->
<g id="edge14" class="edge">
<title>IndexFarmaciaModule&#45;&gt;PedidosModule</title>
<path fill="none" stroke="#000000" d="M910,-122.2667C910,-140.5552 910,-166 910,-166 910,-166 1486.0603,-166 1486.0603,-166"/>
<polygon fill="#000000" stroke="#000000" points="1486.0603,-169.5001 1496.0603,-166 1486.0603,-162.5001 1486.0603,-169.5001"/>
</g>
<!-- PedidosService -->
<g id="node16" class="node">
<title>PedidosService</title>
<ellipse fill="#fdb462" stroke="#000000" cx="743" cy="-104" rx="70.6432" ry="18"/>
<text text-anchor="middle" x="743" y="-99.8" font-family="Times,serif" font-size="14.00" fill="#000000">PedidosService</text>
</g>
<!-- PedidosService&#45;&gt;PedidosModule -->
<g id="edge15" class="edge">
<title>PedidosService&#45;&gt;PedidosModule</title>
<path fill="none" stroke="#000000" d="M743,-122.1061C743,-141.3391 743,-169 743,-169 743,-169 1486.1109,-169 1486.1109,-169"/>
<polygon fill="#000000" stroke="#000000" points="1486.1109,-172.5001 1496.1109,-169 1486.1109,-165.5001 1486.1109,-172.5001"/>
</g>
<!-- ActasService -->
<g id="node17" class="node">
<title>ActasService</title>
<ellipse fill="#fdb462" stroke="#000000" cx="592" cy="-104" rx="61.9519" ry="18"/>
<text text-anchor="middle" x="592" y="-99.8" font-family="Times,serif" font-size="14.00" fill="#000000">ActasService</text>
</g>
<!-- ActasService&#45;&gt;PedidosModule -->
<g id="edge16" class="edge">
<title>ActasService&#45;&gt;PedidosModule</title>
<path fill="none" stroke="#000000" d="M592,-122.1289C592,-142.5724 592,-173 592,-173 592,-173 1485.9224,-173 1485.9224,-173"/>
<polygon fill="#000000" stroke="#000000" points="1485.9224,-176.5001 1495.9224,-173 1485.9223,-169.5001 1485.9224,-176.5001"/>
</g>
<!-- AlmacenesService -->
<g id="node18" class="node">
<title>AlmacenesService</title>
<ellipse fill="#fdb462" stroke="#000000" cx="429" cy="-104" rx="82.7801" ry="18"/>
<text text-anchor="middle" x="429" y="-99.8" font-family="Times,serif" font-size="14.00" fill="#000000">AlmacenesService</text>
</g>
<!-- AlmacenesService&#45;&gt;PedidosModule -->
<g id="edge17" class="edge">
<title>AlmacenesService&#45;&gt;PedidosModule</title>
<path fill="none" stroke="#000000" d="M429,-122.0449C429,-143.6623 429,-177 429,-177 429,-177 1485.9015,-177 1485.9015,-177"/>
<polygon fill="#000000" stroke="#000000" points="1485.9015,-180.5001 1495.9015,-177 1485.9014,-173.5001 1485.9015,-180.5001"/>
</g>
<!-- StockService -->
<g id="node19" class="node">
<title>StockService</title>
<ellipse fill="#fdb462" stroke="#000000" cx="266" cy="-104" rx="61.975" ry="18"/>
<text text-anchor="middle" x="266" y="-99.8" font-family="Times,serif" font-size="14.00" fill="#000000">StockService</text>
</g>
<!-- StockService&#45;&gt;PedidosModule -->
<g id="edge18" class="edge">
<title>StockService&#45;&gt;PedidosModule</title>
<path fill="none" stroke="#000000" d="M266,-122.0109C266,-144.4852 266,-180 266,-180 266,-180 1485.7558,-180 1485.7558,-180"/>
<polygon fill="#000000" stroke="#000000" points="1485.7559,-183.5001 1495.7558,-180 1485.7558,-176.5001 1485.7559,-183.5001"/>
</g>
<!-- RecepcionService -->
<g id="node20" class="node">
<title>RecepcionService</title>
<ellipse fill="#fdb462" stroke="#000000" cx="105" cy="-104" rx="80.9969" ry="18"/>
<text text-anchor="middle" x="105" y="-99.8" font-family="Times,serif" font-size="14.00" fill="#000000">RecepcionService</text>
</g>
<!-- RecepcionService&#45;&gt;PedidosModule -->
<g id="edge19" class="edge">
<title>RecepcionService&#45;&gt;PedidosModule</title>
<path fill="none" stroke="#000000" d="M105,-122.1532C105,-145.7566 105,-184 105,-184 105,-184 1485.7904,-184 1485.7904,-184"/>
<polygon fill="#000000" stroke="#000000" points="1485.7904,-187.5001 1495.7904,-184 1485.7903,-180.5001 1485.7904,-187.5001"/>
</g>
</g>
</svg>
