<?xml version="1.0" encoding="UTF-8" standalone="no"?>
<!DOCTYPE svg PUBLIC "-//W3C//DTD SVG 1.1//EN"
 "http://www.w3.org/Graphics/SVG/1.1/DTD/svg11.dtd">
<!-- Generated by graphviz version 2.40.1 (20161225.0304)
 -->
<!-- Title: dependencies Pages: 1 -->
<svg width="1764pt" height="211pt"
 viewBox="0.00 0.00 1764.00 211.00" xmlns="http://www.w3.org/2000/svg" xmlns:xlink="http://www.w3.org/1999/xlink">
<g id="graph0" class="graph" transform="scale(1 1) rotate(0) translate(4 207)">
<title>dependencies</title>
<polygon fill="#ffffff" stroke="transparent" points="-4,4 -4,-207 1760,-207 1760,4 -4,4"/>
<text text-anchor="start" x="857.0091" y="-42.4" font-family="sans-serif" font-weight="bold" font-size="14.00" fill="#000000">Legend</text>
<polygon fill="#ffffb3" stroke="transparent" points="644,-10 644,-30 664,-30 664,-10 644,-10"/>
<text text-anchor="start" x="667.629" y="-15.4" font-family="sans-serif" font-size="14.00" fill="#000000"> &#160;Declarations</text>
<polygon fill="#8dd3c7" stroke="transparent" points="757,-10 757,-30 777,-30 777,-10 757,-10"/>
<text text-anchor="start" x="780.7251" y="-15.4" font-family="sans-serif" font-size="14.00" fill="#000000"> &#160;Module</text>
<polygon fill="#80b1d3" stroke="transparent" points="843,-10 843,-30 863,-30 863,-10 843,-10"/>
<text text-anchor="start" x="866.7812" y="-15.4" font-family="sans-serif" font-size="14.00" fill="#000000"> &#160;Bootstrap</text>
<polygon fill="#fdb462" stroke="transparent" points="940,-10 940,-30 960,-30 960,-10 940,-10"/>
<text text-anchor="start" x="963.6732" y="-15.4" font-family="sans-serif" font-size="14.00" fill="#000000"> &#160;Providers</text>
<polygon fill="#fb8072" stroke="transparent" points="1036,-10 1036,-30 1056,-30 1056,-10 1036,-10"/>
<text text-anchor="start" x="1059.7258" y="-15.4" font-family="sans-serif" font-size="14.00" fill="#000000"> &#160;Exports</text>
<g id="clust1" class="cluster">
<title>cluster_EntregasModule</title>
<polygon fill="none" stroke="#000000" stroke-dasharray="1,5" points="8,-70 8,-195 1748,-195 1748,-70 8,-70"/>
</g>
<g id="clust2" class="cluster">
<title>cluster_EntregasModule_declarations</title>
<polygon fill="none" stroke="#000000" points="1044,-78 1044,-130 1740,-130 1740,-78 1044,-78"/>
</g>
<g id="clust8" class="cluster">
<title>cluster_EntregasModule_imports</title>
<polygon fill="none" stroke="#000000" points="16,-78 16,-130 1036,-130 1036,-78 16,-78"/>
</g>
<!-- ListaComponent -->
<g id="node1" class="node">
<title>ListaComponent</title>
<polygon fill="#ffffb3" stroke="#000000" points="1731.8259,-122 1622.1741,-122 1622.1741,-86 1731.8259,-86 1731.8259,-122"/>
<text text-anchor="middle" x="1677" y="-99.8" font-family="Times,serif" font-size="14.00" fill="#000000">ListaComponent</text>
</g>
<!-- EntregasModule -->
<g id="node6" class="node">
<title>EntregasModule</title>
<polygon fill="#8dd3c7" stroke="#000000" points="987.0284,-187 984.0284,-191 963.0284,-191 960.0284,-187 878.9716,-187 878.9716,-151 987.0284,-151 987.0284,-187"/>
<text text-anchor="middle" x="933" y="-164.8" font-family="Times,serif" font-size="14.00" fill="#000000">EntregasModule</text>
</g>
<!-- ListaComponent&#45;&gt;EntregasModule -->
<g id="edge1" class="edge">
<title>ListaComponent&#45;&gt;EntregasModule</title>
<path fill="none" stroke="#000000" d="M1677,-122.0908C1677,-145.1328 1677,-182 1677,-182 1677,-182 997.1059,-182 997.1059,-182"/>
<polygon fill="#000000" stroke="#000000" points="997.106,-178.5001 987.1059,-182 997.1059,-185.5001 997.106,-178.5001"/>
</g>
<!-- MenuLateralComponent -->
<g id="node2" class="node">
<title>MenuLateralComponent</title>
<polygon fill="#ffffb3" stroke="#000000" points="1604.6302,-122 1451.3698,-122 1451.3698,-86 1604.6302,-86 1604.6302,-122"/>
<text text-anchor="middle" x="1528" y="-99.8" font-family="Times,serif" font-size="14.00" fill="#000000">MenuLateralComponent</text>
</g>
<!-- MenuLateralComponent&#45;&gt;EntregasModule -->
<g id="edge2" class="edge">
<title>MenuLateralComponent&#45;&gt;EntregasModule</title>
<path fill="none" stroke="#000000" d="M1528,-122.2843C1528,-143.3211 1528,-175 1528,-175 1528,-175 997.1154,-175 997.1154,-175"/>
<polygon fill="#000000" stroke="#000000" points="997.1154,-171.5001 987.1154,-175 997.1154,-178.5001 997.1154,-171.5001"/>
</g>
<!-- SurtirComponent -->
<g id="node3" class="node">
<title>SurtirComponent</title>
<polygon fill="#ffffb3" stroke="#000000" points="1433.7176,-122 1320.2824,-122 1320.2824,-86 1433.7176,-86 1433.7176,-122"/>
<text text-anchor="middle" x="1377" y="-99.8" font-family="Times,serif" font-size="14.00" fill="#000000">SurtirComponent</text>
</g>
<!-- SurtirComponent&#45;&gt;EntregasModule -->
<g id="edge3" class="edge">
<title>SurtirComponent&#45;&gt;EntregasModule</title>
<path fill="none" stroke="#000000" d="M1377,-122.1061C1377,-141.3391 1377,-169 1377,-169 1377,-169 997.4431,-169 997.4431,-169"/>
<polygon fill="#000000" stroke="#000000" points="997.4432,-165.5001 987.4431,-169 997.4431,-172.5001 997.4432,-165.5001"/>
</g>
<!-- VerComponent -->
<g id="node4" class="node">
<title>VerComponent</title>
<polygon fill="#ffffb3" stroke="#000000" points="1302.3147,-122 1199.6853,-122 1199.6853,-86 1302.3147,-86 1302.3147,-122"/>
<text text-anchor="middle" x="1251" y="-99.8" font-family="Times,serif" font-size="14.00" fill="#000000">VerComponent</text>
</g>
<!-- VerComponent&#45;&gt;EntregasModule -->
<g id="edge4" class="edge">
<title>VerComponent&#45;&gt;EntregasModule</title>
<path fill="none" stroke="#000000" d="M1251,-122.0225C1251,-139.3734 1251,-163 1251,-163 1251,-163 997.3048,-163 997.3048,-163"/>
<polygon fill="#000000" stroke="#000000" points="997.3049,-159.5001 987.3048,-163 997.3048,-166.5001 997.3049,-159.5001"/>
</g>
<!-- HistorialComponent -->
<g id="node5" class="node">
<title>HistorialComponent</title>
<polygon fill="#ffffb3" stroke="#000000" points="1182.3216,-122 1051.6784,-122 1051.6784,-86 1182.3216,-86 1182.3216,-122"/>
<text text-anchor="middle" x="1117" y="-99.8" font-family="Times,serif" font-size="14.00" fill="#000000">HistorialComponent</text>
</g>
<!-- HistorialComponent&#45;&gt;EntregasModule -->
<g id="edge5" class="edge">
<title>HistorialComponent&#45;&gt;EntregasModule</title>
<path fill="none" stroke="#000000" d="M1117,-122.2396C1117,-137.5706 1117,-157 1117,-157 1117,-157 997.2109,-157 997.2109,-157"/>
<polygon fill="#000000" stroke="#000000" points="997.2109,-153.5001 987.2109,-157 997.2108,-160.5001 997.2109,-153.5001"/>
</g>
<!-- HubModule -->
<g id="node7" class="node">
<title>HubModule</title>
<polygon fill="#8dd3c7" stroke="#000000" points="1027.6571,-122 1024.6571,-126 1003.6571,-126 1000.6571,-122 944.3429,-122 944.3429,-86 1027.6571,-86 1027.6571,-122"/>
<text text-anchor="middle" x="986" y="-99.8" font-family="Times,serif" font-size="14.00" fill="#000000">HubModule</text>
</g>
<!-- HubModule&#45;&gt;EntregasModule -->
<g id="edge6" class="edge">
<title>HubModule&#45;&gt;EntregasModule</title>
<path fill="none" stroke="#000000" d="M965.7178,-122.1061C965.7178,-122.1061 965.7178,-140.991 965.7178,-140.991"/>
<polygon fill="#000000" stroke="#000000" points="962.2178,-140.9909 965.7178,-150.991 969.2178,-140.991 962.2178,-140.9909"/>
</g>
<!-- PerfilModule -->
<g id="node8" class="node">
<title>PerfilModule</title>
<polygon fill="#8dd3c7" stroke="#000000" points="926.1501,-122 923.1501,-126 902.1501,-126 899.1501,-122 835.8499,-122 835.8499,-86 926.1501,-86 926.1501,-122"/>
<text text-anchor="middle" x="881" y="-99.8" font-family="Times,serif" font-size="14.00" fill="#000000">PerfilModule</text>
</g>
<!-- PerfilModule&#45;&gt;EntregasModule -->
<g id="edge7" class="edge">
<title>PerfilModule&#45;&gt;EntregasModule</title>
<path fill="none" stroke="#000000" d="M902.5305,-122.1061C902.5305,-122.1061 902.5305,-140.991 902.5305,-140.991"/>
<polygon fill="#000000" stroke="#000000" points="899.0306,-140.9909 902.5305,-150.991 906.0306,-140.991 899.0306,-140.9909"/>
</g>
<!-- BloquearPantallaModule -->
<g id="node9" class="node">
<title>BloquearPantallaModule</title>
<polygon fill="#8dd3c7" stroke="#000000" points="817.965,-122 814.965,-126 793.965,-126 790.965,-122 662.035,-122 662.035,-86 817.965,-86 817.965,-122"/>
<text text-anchor="middle" x="740" y="-99.8" font-family="Times,serif" font-size="14.00" fill="#000000">BloquearPantallaModule</text>
</g>
<!-- BloquearPantallaModule&#45;&gt;EntregasModule -->
<g id="edge8" class="edge">
<title>BloquearPantallaModule&#45;&gt;EntregasModule</title>
<path fill="none" stroke="#000000" d="M740,-122.2396C740,-137.5706 740,-157 740,-157 740,-157 868.7251,-157 868.7251,-157"/>
<polygon fill="#000000" stroke="#000000" points="868.7252,-160.5001 878.7251,-157 868.7251,-153.5001 868.7252,-160.5001"/>
</g>
<!-- PaginacionModule -->
<g id="node10" class="node">
<title>PaginacionModule</title>
<polygon fill="#8dd3c7" stroke="#000000" points="643.7576,-122 640.7576,-126 619.7576,-126 616.7576,-122 522.2424,-122 522.2424,-86 643.7576,-86 643.7576,-122"/>
<text text-anchor="middle" x="583" y="-99.8" font-family="Times,serif" font-size="14.00" fill="#000000">PaginacionModule</text>
</g>
<!-- PaginacionModule&#45;&gt;EntregasModule -->
<g id="edge9" class="edge">
<title>PaginacionModule&#45;&gt;EntregasModule</title>
<path fill="none" stroke="#000000" d="M583,-122.0225C583,-139.3734 583,-163 583,-163 583,-163 868.6965,-163 868.6965,-163"/>
<polygon fill="#000000" stroke="#000000" points="868.6966,-166.5001 878.6965,-163 868.6965,-159.5001 868.6966,-166.5001"/>
</g>
<!-- BuscarInsumosModule -->
<g id="node11" class="node">
<title>BuscarInsumosModule</title>
<polygon fill="#8dd3c7" stroke="#000000" points="503.8613,-122 500.8613,-126 479.8613,-126 476.8613,-122 358.1387,-122 358.1387,-86 503.8613,-86 503.8613,-122"/>
<text text-anchor="middle" x="431" y="-99.8" font-family="Times,serif" font-size="14.00" fill="#000000">BuscarInsumosModule</text>
</g>
<!-- BuscarInsumosModule&#45;&gt;EntregasModule -->
<g id="edge10" class="edge">
<title>BuscarInsumosModule&#45;&gt;EntregasModule</title>
<path fill="none" stroke="#000000" d="M431,-122.1061C431,-141.3391 431,-169 431,-169 431,-169 868.8002,-169 868.8002,-169"/>
<polygon fill="#000000" stroke="#000000" points="868.8003,-172.5001 878.8002,-169 868.8002,-165.5001 868.8003,-172.5001"/>
</g>
<!-- IndexFarmaciaModule -->
<g id="node12" class="node">
<title>IndexFarmaciaModule</title>
<polygon fill="#8dd3c7" stroke="#000000" points="339.5086,-122 336.5086,-126 315.5086,-126 312.5086,-122 196.4914,-122 196.4914,-86 339.5086,-86 339.5086,-122"/>
<text text-anchor="middle" x="268" y="-99.8" font-family="Times,serif" font-size="14.00" fill="#000000">IndexFarmaciaModule</text>
</g>
<!-- IndexFarmaciaModule&#45;&gt;EntregasModule -->
<g id="edge11" class="edge">
<title>IndexFarmaciaModule&#45;&gt;EntregasModule</title>
<path fill="none" stroke="#000000" d="M268,-122.2843C268,-143.3211 268,-175 268,-175 268,-175 868.8622,-175 868.8622,-175"/>
<polygon fill="#000000" stroke="#000000" points="868.8623,-178.5001 878.8622,-175 868.8622,-171.5001 868.8623,-178.5001"/>
</g>
<!-- EntregasRoutingModule -->
<g id="node13" class="node">
<title>EntregasRoutingModule</title>
<polygon fill="#8dd3c7" stroke="#000000" points="177.6456,-122 174.6456,-126 153.6456,-126 150.6456,-122 24.3544,-122 24.3544,-86 177.6456,-86 177.6456,-122"/>
<text text-anchor="middle" x="101" y="-99.8" font-family="Times,serif" font-size="14.00" fill="#000000">EntregasRoutingModule</text>
</g>
<!-- EntregasRoutingModule&#45;&gt;EntregasModule -->
<g id="edge12" class="edge">
<title>EntregasRoutingModule&#45;&gt;EntregasModule</title>
<path fill="none" stroke="#000000" d="M101,-122.0908C101,-145.1328 101,-182 101,-182 101,-182 868.7311,-182 868.7311,-182"/>
<polygon fill="#000000" stroke="#000000" points="868.7311,-185.5001 878.7311,-182 868.7311,-178.5001 868.7311,-185.5001"/>
</g>
</g>
</svg>
