<?xml version="1.0" encoding="UTF-8" standalone="no"?>
<!DOCTYPE svg PUBLIC "-//W3C//DTD SVG 1.1//EN"
 "http://www.w3.org/Graphics/SVG/1.1/DTD/svg11.dtd">
<!-- Generated by graphviz version 2.40.1 (20161225.0304)
 -->
<!-- Title: dependencies Pages: 1 -->
<svg width="1886pt" height="211pt"
 viewBox="0.00 0.00 1886.00 211.00" xmlns="http://www.w3.org/2000/svg" xmlns:xlink="http://www.w3.org/1999/xlink">
<g id="graph0" class="graph" transform="scale(1 1) rotate(0) translate(4 207)">
<title>dependencies</title>
<polygon fill="#ffffff" stroke="transparent" points="-4,4 -4,-207 1882,-207 1882,4 -4,4"/>
<text text-anchor="start" x="918.0091" y="-42.4" font-family="sans-serif" font-weight="bold" font-size="14.00" fill="#000000">Legend</text>
<polygon fill="#ffffb3" stroke="transparent" points="705,-10 705,-30 725,-30 725,-10 705,-10"/>
<text text-anchor="start" x="728.629" y="-15.4" font-family="sans-serif" font-size="14.00" fill="#000000"> &#160;Declarations</text>
<polygon fill="#8dd3c7" stroke="transparent" points="818,-10 818,-30 838,-30 838,-10 818,-10"/>
<text text-anchor="start" x="841.7251" y="-15.4" font-family="sans-serif" font-size="14.00" fill="#000000"> &#160;Module</text>
<polygon fill="#80b1d3" stroke="transparent" points="904,-10 904,-30 924,-30 924,-10 904,-10"/>
<text text-anchor="start" x="927.7812" y="-15.4" font-family="sans-serif" font-size="14.00" fill="#000000"> &#160;Bootstrap</text>
<polygon fill="#fdb462" stroke="transparent" points="1001,-10 1001,-30 1021,-30 1021,-10 1001,-10"/>
<text text-anchor="start" x="1024.6732" y="-15.4" font-family="sans-serif" font-size="14.00" fill="#000000"> &#160;Providers</text>
<polygon fill="#fb8072" stroke="transparent" points="1097,-10 1097,-30 1117,-30 1117,-10 1097,-10"/>
<text text-anchor="start" x="1120.7258" y="-15.4" font-family="sans-serif" font-size="14.00" fill="#000000"> &#160;Exports</text>
<g id="clust1" class="cluster">
<title>cluster_GruposInsumosModule</title>
<polygon fill="none" stroke="#000000" stroke-dasharray="1,5" points="8,-70 8,-195 1870,-195 1870,-70 8,-70"/>
</g>
<g id="clust2" class="cluster">
<title>cluster_GruposInsumosModule_declarations</title>
<polygon fill="none" stroke="#000000" points="1574,-78 1574,-130 1862,-130 1862,-78 1574,-78"/>
</g>
<g id="clust5" class="cluster">
<title>cluster_GruposInsumosModule_imports</title>
<polygon fill="none" stroke="#000000" points="295,-78 295,-130 1566,-130 1566,-78 295,-78"/>
</g>
<g id="clust8" class="cluster">
<title>cluster_GruposInsumosModule_providers</title>
<polygon fill="none" stroke="#000000" points="16,-78 16,-130 287,-130 287,-78 16,-78"/>
</g>
<!-- ListaComponent -->
<g id="node1" class="node">
<title>ListaComponent</title>
<polygon fill="#ffffb3" stroke="#000000" points="1853.8259,-122 1744.1741,-122 1744.1741,-86 1853.8259,-86 1853.8259,-122"/>
<text text-anchor="middle" x="1799" y="-99.8" font-family="Times,serif" font-size="14.00" fill="#000000">ListaComponent</text>
</g>
<!-- GruposInsumosModule -->
<g id="node3" class="node">
<title>GruposInsumosModule</title>
<polygon fill="#8dd3c7" stroke="#000000" points="976.2021,-187 973.2021,-191 952.2021,-191 949.2021,-187 827.7979,-187 827.7979,-151 976.2021,-151 976.2021,-187"/>
<text text-anchor="middle" x="902" y="-164.8" font-family="Times,serif" font-size="14.00" fill="#000000">GruposInsumosModule</text>
</g>
<!-- ListaComponent&#45;&gt;GruposInsumosModule -->
<g id="edge1" class="edge">
<title>ListaComponent&#45;&gt;GruposInsumosModule</title>
<path fill="none" stroke="#000000" d="M1799,-122.0908C1799,-145.1328 1799,-182 1799,-182 1799,-182 986.1684,-182 986.1684,-182"/>
<polygon fill="#000000" stroke="#000000" points="986.1685,-178.5001 976.1684,-182 986.1684,-185.5001 986.1685,-178.5001"/>
</g>
<!-- FormularioComponent -->
<g id="node2" class="node">
<title>FormularioComponent</title>
<polygon fill="#ffffb3" stroke="#000000" points="1726.323,-122 1581.677,-122 1581.677,-86 1726.323,-86 1726.323,-122"/>
<text text-anchor="middle" x="1654" y="-99.8" font-family="Times,serif" font-size="14.00" fill="#000000">FormularioComponent</text>
</g>
<!-- FormularioComponent&#45;&gt;GruposInsumosModule -->
<g id="edge2" class="edge">
<title>FormularioComponent&#45;&gt;GruposInsumosModule</title>
<path fill="none" stroke="#000000" d="M1654,-122.2843C1654,-143.3211 1654,-175 1654,-175 1654,-175 986.1627,-175 986.1627,-175"/>
<polygon fill="#000000" stroke="#000000" points="986.1627,-171.5001 976.1627,-175 986.1627,-178.5001 986.1627,-171.5001"/>
</g>
<!-- GruposInsumosRoutingModule -->
<g id="node4" class="node">
<title>GruposInsumosRoutingModule</title>
<polygon fill="#8dd3c7" stroke="#000000" points="1557.8201,-122 1554.8201,-126 1533.8201,-126 1530.8201,-122 1364.1799,-122 1364.1799,-86 1557.8201,-86 1557.8201,-122"/>
<text text-anchor="middle" x="1461" y="-99.8" font-family="Times,serif" font-size="14.00" fill="#000000">GruposInsumosRoutingModule</text>
</g>
<!-- GruposInsumosRoutingModule&#45;&gt;GruposInsumosModule -->
<g id="edge3" class="edge">
<title>GruposInsumosRoutingModule&#45;&gt;GruposInsumosModule</title>
<path fill="none" stroke="#000000" d="M1461,-122.1061C1461,-141.3391 1461,-169 1461,-169 1461,-169 986.2309,-169 986.2309,-169"/>
<polygon fill="#000000" stroke="#000000" points="986.2309,-165.5001 976.2309,-169 986.2308,-172.5001 986.2309,-165.5001"/>
</g>
<!-- HubModule -->
<g id="node5" class="node">
<title>HubModule</title>
<polygon fill="#8dd3c7" stroke="#000000" points="1346.6571,-122 1343.6571,-126 1322.6571,-126 1319.6571,-122 1263.3429,-122 1263.3429,-86 1346.6571,-86 1346.6571,-122"/>
<text text-anchor="middle" x="1305" y="-99.8" font-family="Times,serif" font-size="14.00" fill="#000000">HubModule</text>
</g>
<!-- HubModule&#45;&gt;GruposInsumosModule -->
<g id="edge4" class="edge">
<title>HubModule&#45;&gt;GruposInsumosModule</title>
<path fill="none" stroke="#000000" d="M1305,-122.0225C1305,-139.3734 1305,-163 1305,-163 1305,-163 986.3861,-163 986.3861,-163"/>
<polygon fill="#000000" stroke="#000000" points="986.3861,-159.5001 976.3861,-163 986.386,-166.5001 986.3861,-159.5001"/>
</g>
<!-- PerfilModule -->
<g id="node6" class="node">
<title>PerfilModule</title>
<polygon fill="#8dd3c7" stroke="#000000" points="1245.1501,-122 1242.1501,-126 1221.1501,-126 1218.1501,-122 1154.8499,-122 1154.8499,-86 1245.1501,-86 1245.1501,-122"/>
<text text-anchor="middle" x="1200" y="-99.8" font-family="Times,serif" font-size="14.00" fill="#000000">PerfilModule</text>
</g>
<!-- PerfilModule&#45;&gt;GruposInsumosModule -->
<g id="edge5" class="edge">
<title>PerfilModule&#45;&gt;GruposInsumosModule</title>
<path fill="none" stroke="#000000" d="M1200,-122.2396C1200,-137.5706 1200,-157 1200,-157 1200,-157 986.4293,-157 986.4293,-157"/>
<polygon fill="#000000" stroke="#000000" points="986.4293,-153.5001 976.4293,-157 986.4292,-160.5001 986.4293,-153.5001"/>
</g>
<!-- BloquearPantallaModule -->
<g id="node7" class="node">
<title>BloquearPantallaModule</title>
<polygon fill="#8dd3c7" stroke="#000000" points="1136.965,-122 1133.965,-126 1112.965,-126 1109.965,-122 981.035,-122 981.035,-86 1136.965,-86 1136.965,-122"/>
<text text-anchor="middle" x="1059" y="-99.8" font-family="Times,serif" font-size="14.00" fill="#000000">BloquearPantallaModule</text>
</g>
<!-- BloquearPantallaModule&#45;&gt;GruposInsumosModule -->
<g id="edge6" class="edge">
<title>BloquearPantallaModule&#45;&gt;GruposInsumosModule</title>
<path fill="none" stroke="#000000" d="M980.8264,-104C973.9274,-104 969.4899,-104 969.4899,-104 969.4899,-104 969.4899,-140.8939 969.4899,-140.8939"/>
<polygon fill="#000000" stroke="#000000" points="965.9899,-140.8938 969.4899,-150.8939 972.9899,-140.8939 965.9899,-140.8938"/>
</g>
<!-- PaginacionModule -->
<g id="node8" class="node">
<title>PaginacionModule</title>
<polygon fill="#8dd3c7" stroke="#000000" points="962.7576,-122 959.7576,-126 938.7576,-126 935.7576,-122 841.2424,-122 841.2424,-86 962.7576,-86 962.7576,-122"/>
<text text-anchor="middle" x="902" y="-99.8" font-family="Times,serif" font-size="14.00" fill="#000000">PaginacionModule</text>
</g>
<!-- PaginacionModule&#45;&gt;GruposInsumosModule -->
<g id="edge7" class="edge">
<title>PaginacionModule&#45;&gt;GruposInsumosModule</title>
<path fill="none" stroke="#000000" d="M902,-122.1061C902,-122.1061 902,-140.991 902,-140.991"/>
<polygon fill="#000000" stroke="#000000" points="898.5001,-140.9909 902,-150.991 905.5001,-140.991 898.5001,-140.9909"/>
</g>
<!-- MenuPanelModule -->
<g id="node9" class="node">
<title>MenuPanelModule</title>
<polygon fill="#8dd3c7" stroke="#000000" points="822.8118,-122 819.8118,-126 798.8118,-126 795.8118,-122 699.1882,-122 699.1882,-86 822.8118,-86 822.8118,-122"/>
<text text-anchor="middle" x="761" y="-99.8" font-family="Times,serif" font-size="14.00" fill="#000000">MenuPanelModule</text>
</g>
<!-- MenuPanelModule&#45;&gt;GruposInsumosModule -->
<g id="edge8" class="edge">
<title>MenuPanelModule&#45;&gt;GruposInsumosModule</title>
<path fill="none" stroke="#000000" d="M822.6995,-104C829.7711,-104 834.5102,-104 834.5102,-104 834.5102,-104 834.5102,-140.8939 834.5102,-140.8939"/>
<polygon fill="#000000" stroke="#000000" points="831.0102,-140.8938 834.5102,-150.8939 838.0102,-140.8939 831.0102,-140.8938"/>
</g>
<!-- MenuAsidePanelModule -->
<g id="node10" class="node">
<title>MenuAsidePanelModule</title>
<polygon fill="#8dd3c7" stroke="#000000" points="680.9678,-122 677.9678,-126 656.9678,-126 653.9678,-122 525.0322,-122 525.0322,-86 680.9678,-86 680.9678,-122"/>
<text text-anchor="middle" x="603" y="-99.8" font-family="Times,serif" font-size="14.00" fill="#000000">MenuAsidePanelModule</text>
</g>
<!-- MenuAsidePanelModule&#45;&gt;GruposInsumosModule -->
<g id="edge9" class="edge">
<title>MenuAsidePanelModule&#45;&gt;GruposInsumosModule</title>
<path fill="none" stroke="#000000" d="M603,-122.2396C603,-137.5706 603,-157 603,-157 603,-157 817.7057,-157 817.7057,-157"/>
<polygon fill="#000000" stroke="#000000" points="817.7057,-160.5001 827.7057,-157 817.7057,-153.5001 817.7057,-160.5001"/>
</g>
<!-- CrudModule -->
<g id="node11" class="node">
<title>CrudModule</title>
<polygon fill="#8dd3c7" stroke="#000000" points="506.5482,-122 503.5482,-126 482.5482,-126 479.5482,-122 419.4518,-122 419.4518,-86 506.5482,-86 506.5482,-122"/>
<text text-anchor="middle" x="463" y="-99.8" font-family="Times,serif" font-size="14.00" fill="#000000">CrudModule</text>
</g>
<!-- CrudModule&#45;&gt;GruposInsumosModule -->
<g id="edge10" class="edge">
<title>CrudModule&#45;&gt;GruposInsumosModule</title>
<path fill="none" stroke="#000000" d="M463,-122.0225C463,-139.3734 463,-163 463,-163 463,-163 817.5296,-163 817.5296,-163"/>
<polygon fill="#000000" stroke="#000000" points="817.5297,-166.5001 827.5296,-163 817.5296,-159.5001 817.5297,-166.5001"/>
</g>
<!-- ParcialModule -->
<g id="node12" class="node">
<title>ParcialModule</title>
<polygon fill="#8dd3c7" stroke="#000000" points="401.4189,-122 398.4189,-126 377.4189,-126 374.4189,-122 302.5811,-122 302.5811,-86 401.4189,-86 401.4189,-122"/>
<text text-anchor="middle" x="352" y="-99.8" font-family="Times,serif" font-size="14.00" fill="#000000">ParcialModule</text>
</g>
<!-- ParcialModule&#45;&gt;GruposInsumosModule -->
<g id="edge11" class="edge">
<title>ParcialModule&#45;&gt;GruposInsumosModule</title>
<path fill="none" stroke="#000000" d="M352,-122.1061C352,-141.3391 352,-169 352,-169 352,-169 817.8246,-169 817.8246,-169"/>
<polygon fill="#000000" stroke="#000000" points="817.8246,-172.5001 827.8246,-169 817.8245,-165.5001 817.8246,-172.5001"/>
</g>
<!-- AuthService -->
<g id="node13" class="node">
<title>AuthService</title>
<ellipse fill="#fdb462" stroke="#000000" cx="220" cy="-104" rx="59.1083" ry="18"/>
<text text-anchor="middle" x="220" y="-99.8" font-family="Times,serif" font-size="14.00" fill="#000000">AuthService</text>
</g>
<!-- AuthService&#45;&gt;GruposInsumosModule -->
<g id="edge12" class="edge">
<title>AuthService&#45;&gt;GruposInsumosModule</title>
<path fill="none" stroke="#000000" d="M220,-122.2843C220,-143.3211 220,-175 220,-175 220,-175 817.7158,-175 817.7158,-175"/>
<polygon fill="#000000" stroke="#000000" points="817.7158,-178.5001 827.7158,-175 817.7157,-171.5001 817.7158,-178.5001"/>
</g>
<!-- CrudService -->
<g id="node14" class="node">
<title>CrudService</title>
<ellipse fill="#fdb462" stroke="#000000" cx="83" cy="-104" rx="59.1083" ry="18"/>
<text text-anchor="middle" x="83" y="-99.8" font-family="Times,serif" font-size="14.00" fill="#000000">CrudService</text>
</g>
<!-- CrudService&#45;&gt;GruposInsumosModule -->
<g id="edge13" class="edge">
<title>CrudService&#45;&gt;GruposInsumosModule</title>
<path fill="none" stroke="#000000" d="M83,-122.0908C83,-145.1328 83,-182 83,-182 83,-182 817.8747,-182 817.8747,-182"/>
<polygon fill="#000000" stroke="#000000" points="817.8748,-185.5001 827.8747,-182 817.8747,-178.5001 817.8748,-185.5001"/>
</g>
</g>
</svg>
