<?xml version="1.0" encoding="UTF-8" standalone="no"?>
<!DOCTYPE svg PUBLIC "-//W3C//DTD SVG 1.1//EN"
 "http://www.w3.org/Graphics/SVG/1.1/DTD/svg11.dtd">
<!-- Generated by graphviz version 2.40.1 (20161225.0304)
 -->
<!-- Title: dependencies Pages: 1 -->
<svg width="1081pt" height="284pt"
 viewBox="0.00 0.00 1081.00 284.00" xmlns="http://www.w3.org/2000/svg" xmlns:xlink="http://www.w3.org/1999/xlink">
<g id="graph0" class="graph" transform="scale(1 1) rotate(0) translate(4 280)">
<title>dependencies</title>
<polygon fill="#ffffff" stroke="transparent" points="-4,4 -4,-280 1077,-280 1077,4 -4,4"/>
<text text-anchor="start" x="515.5091" y="-42.4" font-family="sans-serif" font-weight="bold" font-size="14.00" fill="#000000">Legend</text>
<polygon fill="#ffffb3" stroke="transparent" points="302.5,-10 302.5,-30 322.5,-30 322.5,-10 302.5,-10"/>
<text text-anchor="start" x="326.129" y="-15.4" font-family="sans-serif" font-size="14.00" fill="#000000"> &#160;Declarations</text>
<polygon fill="#8dd3c7" stroke="transparent" points="415.5,-10 415.5,-30 435.5,-30 435.5,-10 415.5,-10"/>
<text text-anchor="start" x="439.2251" y="-15.4" font-family="sans-serif" font-size="14.00" fill="#000000"> &#160;Module</text>
<polygon fill="#80b1d3" stroke="transparent" points="501.5,-10 501.5,-30 521.5,-30 521.5,-10 501.5,-10"/>
<text text-anchor="start" x="525.2812" y="-15.4" font-family="sans-serif" font-size="14.00" fill="#000000"> &#160;Bootstrap</text>
<polygon fill="#fdb462" stroke="transparent" points="598.5,-10 598.5,-30 618.5,-30 618.5,-10 598.5,-10"/>
<text text-anchor="start" x="622.1732" y="-15.4" font-family="sans-serif" font-size="14.00" fill="#000000"> &#160;Providers</text>
<polygon fill="#fb8072" stroke="transparent" points="694.5,-10 694.5,-30 714.5,-30 714.5,-10 694.5,-10"/>
<text text-anchor="start" x="718.2258" y="-15.4" font-family="sans-serif" font-size="14.00" fill="#000000"> &#160;Exports</text>
<g id="clust1" class="cluster">
<title>cluster_IndexEquipamientoModule</title>
<polygon fill="none" stroke="#000000" stroke-dasharray="1,5" points="8,-70 8,-268 1065,-268 1065,-70 8,-70"/>
</g>
<g id="clust2" class="cluster">
<title>cluster_IndexEquipamientoModule_declarations</title>
<polygon fill="none" stroke="#000000" points="639,-78 639,-130 1057,-130 1057,-78 639,-78"/>
</g>
<g id="clust5" class="cluster">
<title>cluster_IndexEquipamientoModule_imports</title>
<polygon fill="none" stroke="#000000" points="16,-78 16,-130 631,-130 631,-78 16,-78"/>
</g>
<g id="clust6" class="cluster">
<title>cluster_IndexEquipamientoModule_exports</title>
<polygon fill="none" stroke="#000000" points="325,-208 325,-260 537,-260 537,-208 325,-208"/>
</g>
<!-- IndexEquipamientoComponent -->
<g id="node1" class="node">
<title>IndexEquipamientoComponent</title>
<polygon fill="#ffffb3" stroke="#000000" points="1048.752,-122 857.248,-122 857.248,-86 1048.752,-86 1048.752,-122"/>
<text text-anchor="middle" x="953" y="-99.8" font-family="Times,serif" font-size="14.00" fill="#000000">IndexEquipamientoComponent</text>
</g>
<!-- IndexEquipamientoModule -->
<g id="node3" class="node">
<title>IndexEquipamientoModule</title>
<polygon fill="#8dd3c7" stroke="#000000" points="515.9692,-187 512.9692,-191 491.9692,-191 488.9692,-187 346.0308,-187 346.0308,-151 515.9692,-151 515.9692,-187"/>
<text text-anchor="middle" x="431" y="-164.8" font-family="Times,serif" font-size="14.00" fill="#000000">IndexEquipamientoModule</text>
</g>
<!-- IndexEquipamientoComponent&#45;&gt;IndexEquipamientoModule -->
<g id="edge1" class="edge">
<title>IndexEquipamientoComponent&#45;&gt;IndexEquipamientoModule</title>
<path fill="none" stroke="#000000" d="M953,-122.2843C953,-143.3211 953,-175 953,-175 953,-175 526.0301,-175 526.0301,-175"/>
<polygon fill="#000000" stroke="#000000" points="526.0301,-171.5001 516.0301,-175 526.0301,-178.5001 526.0301,-171.5001"/>
</g>
<!-- MenuEquipamientoComponent -->
<g id="node2" class="node">
<title>MenuEquipamientoComponent</title>
<polygon fill="#ffffb3" stroke="#000000" points="839.0364,-122 646.9636,-122 646.9636,-86 839.0364,-86 839.0364,-122"/>
<text text-anchor="middle" x="743" y="-99.8" font-family="Times,serif" font-size="14.00" fill="#000000">MenuEquipamientoComponent</text>
</g>
<!-- MenuEquipamientoComponent&#45;&gt;IndexEquipamientoModule -->
<g id="edge2" class="edge">
<title>MenuEquipamientoComponent&#45;&gt;IndexEquipamientoModule</title>
<path fill="none" stroke="#000000" d="M743,-122.0225C743,-139.3734 743,-163 743,-163 743,-163 526.2554,-163 526.2554,-163"/>
<polygon fill="#000000" stroke="#000000" points="526.2554,-159.5001 516.2554,-163 526.2553,-166.5001 526.2554,-159.5001"/>
</g>
<!-- MenuEquipamientoComponent  -->
<g id="node8" class="node">
<title>MenuEquipamientoComponent </title>
<polygon fill="#fb8072" stroke="#000000" points="529.0358,-252 332.9642,-252 332.9642,-216 529.0358,-216 529.0358,-252"/>
<text text-anchor="middle" x="431" y="-229.8" font-family="Times,serif" font-size="14.00" fill="#000000">MenuEquipamientoComponent </text>
</g>
<!-- IndexEquipamientoModule&#45;&gt;MenuEquipamientoComponent  -->
<g id="edge7" class="edge">
<title>IndexEquipamientoModule&#45;&gt;MenuEquipamientoComponent </title>
<path fill="none" stroke="#000000" stroke-dasharray="5,2" d="M431,-187.1061C431,-187.1061 431,-205.991 431,-205.991"/>
<polygon fill="#000000" stroke="#000000" points="427.5001,-205.9909 431,-215.991 434.5001,-205.991 427.5001,-205.9909"/>
</g>
<!-- IndexEquipamientoRoutingModule -->
<g id="node4" class="node">
<title>IndexEquipamientoRoutingModule</title>
<polygon fill="#8dd3c7" stroke="#000000" points="622.587,-122 619.587,-126 598.587,-126 595.587,-122 407.413,-122 407.413,-86 622.587,-86 622.587,-122"/>
<text text-anchor="middle" x="515" y="-99.8" font-family="Times,serif" font-size="14.00" fill="#000000">IndexEquipamientoRoutingModule</text>
</g>
<!-- IndexEquipamientoRoutingModule&#45;&gt;IndexEquipamientoModule -->
<g id="edge3" class="edge">
<title>IndexEquipamientoRoutingModule&#45;&gt;IndexEquipamientoModule</title>
<path fill="none" stroke="#000000" d="M461.7206,-122.1061C461.7206,-122.1061 461.7206,-140.991 461.7206,-140.991"/>
<polygon fill="#000000" stroke="#000000" points="458.2206,-140.9909 461.7206,-150.991 465.2206,-140.991 458.2206,-140.9909"/>
</g>
<!-- HubModule -->
<g id="node5" class="node">
<title>HubModule</title>
<polygon fill="#8dd3c7" stroke="#000000" points="389.6571,-122 386.6571,-126 365.6571,-126 362.6571,-122 306.3429,-122 306.3429,-86 389.6571,-86 389.6571,-122"/>
<text text-anchor="middle" x="348" y="-99.8" font-family="Times,serif" font-size="14.00" fill="#000000">HubModule</text>
</g>
<!-- HubModule&#45;&gt;IndexEquipamientoModule -->
<g id="edge4" class="edge">
<title>HubModule&#45;&gt;IndexEquipamientoModule</title>
<path fill="none" stroke="#000000" d="M367.9218,-122.1061C367.9218,-122.1061 367.9218,-140.991 367.9218,-140.991"/>
<polygon fill="#000000" stroke="#000000" points="364.4219,-140.9909 367.9218,-150.991 371.4219,-140.991 364.4219,-140.9909"/>
</g>
<!-- PerfilModule -->
<g id="node6" class="node">
<title>PerfilModule</title>
<polygon fill="#8dd3c7" stroke="#000000" points="288.1501,-122 285.1501,-126 264.1501,-126 261.1501,-122 197.8499,-122 197.8499,-86 288.1501,-86 288.1501,-122"/>
<text text-anchor="middle" x="243" y="-99.8" font-family="Times,serif" font-size="14.00" fill="#000000">PerfilModule</text>
</g>
<!-- PerfilModule&#45;&gt;IndexEquipamientoModule -->
<g id="edge5" class="edge">
<title>PerfilModule&#45;&gt;IndexEquipamientoModule</title>
<path fill="none" stroke="#000000" d="M243,-122.0225C243,-139.3734 243,-163 243,-163 243,-163 335.801,-163 335.801,-163"/>
<polygon fill="#000000" stroke="#000000" points="335.8011,-166.5001 345.801,-163 335.801,-159.5001 335.8011,-166.5001"/>
</g>
<!-- BloquearPantallaModule -->
<g id="node7" class="node">
<title>BloquearPantallaModule</title>
<polygon fill="#8dd3c7" stroke="#000000" points="179.965,-122 176.965,-126 155.965,-126 152.965,-122 24.035,-122 24.035,-86 179.965,-86 179.965,-122"/>
<text text-anchor="middle" x="102" y="-99.8" font-family="Times,serif" font-size="14.00" fill="#000000">BloquearPantallaModule</text>
</g>
<!-- BloquearPantallaModule&#45;&gt;IndexEquipamientoModule -->
<g id="edge6" class="edge">
<title>BloquearPantallaModule&#45;&gt;IndexEquipamientoModule</title>
<path fill="none" stroke="#000000" d="M102,-122.2843C102,-143.3211 102,-175 102,-175 102,-175 335.8465,-175 335.8465,-175"/>
<polygon fill="#000000" stroke="#000000" points="335.8465,-178.5001 345.8465,-175 335.8464,-171.5001 335.8465,-178.5001"/>
</g>
</g>
</svg>
