<?xml version="1.0" encoding="UTF-8" standalone="no"?>
<!DOCTYPE svg PUBLIC "-//W3C//DTD SVG 1.1//EN"
 "http://www.w3.org/Graphics/SVG/1.1/DTD/svg11.dtd">
<!-- Generated by graphviz version 2.40.1 (20161225.0304)
 -->
<!-- Title: dependencies Pages: 1 -->
<svg width="1162pt" height="211pt"
 viewBox="0.00 0.00 1162.00 211.00" xmlns="http://www.w3.org/2000/svg" xmlns:xlink="http://www.w3.org/1999/xlink">
<g id="graph0" class="graph" transform="scale(1 1) rotate(0) translate(4 207)">
<title>dependencies</title>
<polygon fill="#ffffff" stroke="transparent" points="-4,4 -4,-207 1158,-207 1158,4 -4,4"/>
<text text-anchor="start" x="556.0091" y="-42.4" font-family="sans-serif" font-weight="bold" font-size="14.00" fill="#000000">Legend</text>
<polygon fill="#ffffb3" stroke="transparent" points="343,-10 343,-30 363,-30 363,-10 343,-10"/>
<text text-anchor="start" x="366.629" y="-15.4" font-family="sans-serif" font-size="14.00" fill="#000000"> &#160;Declarations</text>
<polygon fill="#8dd3c7" stroke="transparent" points="456,-10 456,-30 476,-30 476,-10 456,-10"/>
<text text-anchor="start" x="479.7251" y="-15.4" font-family="sans-serif" font-size="14.00" fill="#000000"> &#160;Module</text>
<polygon fill="#80b1d3" stroke="transparent" points="542,-10 542,-30 562,-30 562,-10 542,-10"/>
<text text-anchor="start" x="565.7812" y="-15.4" font-family="sans-serif" font-size="14.00" fill="#000000"> &#160;Bootstrap</text>
<polygon fill="#fdb462" stroke="transparent" points="639,-10 639,-30 659,-30 659,-10 639,-10"/>
<text text-anchor="start" x="662.6732" y="-15.4" font-family="sans-serif" font-size="14.00" fill="#000000"> &#160;Providers</text>
<polygon fill="#fb8072" stroke="transparent" points="735,-10 735,-30 755,-30 755,-10 735,-10"/>
<text text-anchor="start" x="758.7258" y="-15.4" font-family="sans-serif" font-size="14.00" fill="#000000"> &#160;Exports</text>
<g id="clust1" class="cluster">
<title>cluster_RolesModule</title>
<polygon fill="none" stroke="#000000" stroke-dasharray="1,5" points="8,-70 8,-195 1146,-195 1146,-70 8,-70"/>
</g>
<g id="clust2" class="cluster">
<title>cluster_RolesModule_declarations</title>
<polygon fill="none" stroke="#000000" points="742,-78 742,-130 1138,-130 1138,-78 742,-78"/>
</g>
<g id="clust6" class="cluster">
<title>cluster_RolesModule_imports</title>
<polygon fill="none" stroke="#000000" points="332,-78 332,-130 734,-130 734,-78 332,-78"/>
</g>
<g id="clust9" class="cluster">
<title>cluster_RolesModule_providers</title>
<polygon fill="none" stroke="#000000" points="16,-78 16,-130 324,-130 324,-78 16,-78"/>
</g>
<!-- ListaComponent -->
<g id="node1" class="node">
<title>ListaComponent</title>
<polygon fill="#ffffb3" stroke="#000000" points="1129.8259,-122 1020.1741,-122 1020.1741,-86 1129.8259,-86 1129.8259,-122"/>
<text text-anchor="middle" x="1075" y="-99.8" font-family="Times,serif" font-size="14.00" fill="#000000">ListaComponent</text>
</g>
<!-- RolesModule -->
<g id="node4" class="node">
<title>RolesModule</title>
<polygon fill="#8dd3c7" stroke="#000000" points="662.9372,-187 659.9372,-191 638.9372,-191 635.9372,-187 571.0628,-187 571.0628,-151 662.9372,-151 662.9372,-187"/>
<text text-anchor="middle" x="617" y="-164.8" font-family="Times,serif" font-size="14.00" fill="#000000">RolesModule</text>
</g>
<!-- ListaComponent&#45;&gt;RolesModule -->
<g id="edge1" class="edge">
<title>ListaComponent&#45;&gt;RolesModule</title>
<path fill="none" stroke="#000000" d="M1075,-122.2921C1075,-144.2057 1075,-178 1075,-178 1075,-178 673.0118,-178 673.0118,-178"/>
<polygon fill="#000000" stroke="#000000" points="673.0118,-174.5001 663.0118,-178 673.0117,-181.5001 673.0118,-174.5001"/>
</g>
<!-- NuevoComponent -->
<g id="node2" class="node">
<title>NuevoComponent</title>
<polygon fill="#ffffb3" stroke="#000000" points="1002.1541,-122 883.8459,-122 883.8459,-86 1002.1541,-86 1002.1541,-122"/>
<text text-anchor="middle" x="943" y="-99.8" font-family="Times,serif" font-size="14.00" fill="#000000">NuevoComponent</text>
</g>
<!-- NuevoComponent&#45;&gt;RolesModule -->
<g id="edge2" class="edge">
<title>NuevoComponent&#45;&gt;RolesModule</title>
<path fill="none" stroke="#000000" d="M943,-122.1061C943,-141.3391 943,-169 943,-169 943,-169 673.0164,-169 673.0164,-169"/>
<polygon fill="#000000" stroke="#000000" points="673.0164,-165.5001 663.0164,-169 673.0164,-172.5001 673.0164,-165.5001"/>
</g>
<!-- EditarComponent -->
<g id="node3" class="node">
<title>EditarComponent</title>
<polygon fill="#ffffb3" stroke="#000000" points="865.5423,-122 750.4577,-122 750.4577,-86 865.5423,-86 865.5423,-122"/>
<text text-anchor="middle" x="808" y="-99.8" font-family="Times,serif" font-size="14.00" fill="#000000">EditarComponent</text>
</g>
<!-- EditarComponent&#45;&gt;RolesModule -->
<g id="edge3" class="edge">
<title>EditarComponent&#45;&gt;RolesModule</title>
<path fill="none" stroke="#000000" d="M808,-122.027C808,-138.3976 808,-160 808,-160 808,-160 672.7493,-160 672.7493,-160"/>
<polygon fill="#000000" stroke="#000000" points="672.7493,-156.5001 662.7493,-160 672.7492,-163.5001 672.7493,-156.5001"/>
</g>
<!-- MenuModule -->
<g id="node5" class="node">
<title>MenuModule</title>
<polygon fill="#8dd3c7" stroke="#000000" points="726.2092,-122 723.2092,-126 702.2092,-126 699.2092,-122 633.7908,-122 633.7908,-86 726.2092,-86 726.2092,-122"/>
<text text-anchor="middle" x="680" y="-99.8" font-family="Times,serif" font-size="14.00" fill="#000000">MenuModule</text>
</g>
<!-- MenuModule&#45;&gt;RolesModule -->
<g id="edge4" class="edge">
<title>MenuModule&#45;&gt;RolesModule</title>
<path fill="none" stroke="#000000" d="M648.3068,-122.1061C648.3068,-122.1061 648.3068,-140.991 648.3068,-140.991"/>
<polygon fill="#000000" stroke="#000000" points="644.8069,-140.9909 648.3068,-150.991 651.8069,-140.991 644.8069,-140.9909"/>
</g>
<!-- PaginacionModule -->
<g id="node6" class="node">
<title>PaginacionModule</title>
<polygon fill="#8dd3c7" stroke="#000000" points="615.7576,-122 612.7576,-126 591.7576,-126 588.7576,-122 494.2424,-122 494.2424,-86 615.7576,-86 615.7576,-122"/>
<text text-anchor="middle" x="555" y="-99.8" font-family="Times,serif" font-size="14.00" fill="#000000">PaginacionModule</text>
</g>
<!-- PaginacionModule&#45;&gt;RolesModule -->
<g id="edge5" class="edge">
<title>PaginacionModule&#45;&gt;RolesModule</title>
<path fill="none" stroke="#000000" d="M593.5803,-122.1061C593.5803,-122.1061 593.5803,-140.991 593.5803,-140.991"/>
<polygon fill="#000000" stroke="#000000" points="590.0804,-140.9909 593.5803,-150.991 597.0804,-140.991 590.0804,-140.9909"/>
</g>
<!-- RolesRoutingModule -->
<g id="node7" class="node">
<title>RolesRoutingModule</title>
<polygon fill="#8dd3c7" stroke="#000000" points="476.0547,-122 473.0547,-126 452.0547,-126 449.0547,-122 339.9453,-122 339.9453,-86 476.0547,-86 476.0547,-122"/>
<text text-anchor="middle" x="408" y="-99.8" font-family="Times,serif" font-size="14.00" fill="#000000">RolesRoutingModule</text>
</g>
<!-- RolesRoutingModule&#45;&gt;RolesModule -->
<g id="edge6" class="edge">
<title>RolesRoutingModule&#45;&gt;RolesModule</title>
<path fill="none" stroke="#000000" d="M408,-122.027C408,-138.3976 408,-160 408,-160 408,-160 561.1341,-160 561.1341,-160"/>
<polygon fill="#000000" stroke="#000000" points="561.1341,-163.5001 571.1341,-160 561.134,-156.5001 561.1341,-163.5001"/>
</g>
<!-- RolesService -->
<g id="node8" class="node">
<title>RolesService</title>
<ellipse fill="#fdb462" stroke="#000000" cx="254" cy="-104" rx="61.9731" ry="18"/>
<text text-anchor="middle" x="254" y="-99.8" font-family="Times,serif" font-size="14.00" fill="#000000">RolesService</text>
</g>
<!-- RolesService&#45;&gt;RolesModule -->
<g id="edge7" class="edge">
<title>RolesService&#45;&gt;RolesModule</title>
<path fill="none" stroke="#000000" d="M254,-122.1061C254,-141.3391 254,-169 254,-169 254,-169 561.0258,-169 561.0258,-169"/>
<polygon fill="#000000" stroke="#000000" points="561.0258,-172.5001 571.0258,-169 561.0258,-165.5001 561.0258,-172.5001"/>
</g>
<!-- PermisosService -->
<g id="node9" class="node">
<title>PermisosService</title>
<ellipse fill="#fdb462" stroke="#000000" cx="99" cy="-104" rx="75.2944" ry="18"/>
<text text-anchor="middle" x="99" y="-99.8" font-family="Times,serif" font-size="14.00" fill="#000000">PermisosService</text>
</g>
<!-- PermisosService&#45;&gt;RolesModule -->
<g id="edge8" class="edge">
<title>PermisosService&#45;&gt;RolesModule</title>
<path fill="none" stroke="#000000" d="M99,-122.2921C99,-144.2057 99,-178 99,-178 99,-178 561.031,-178 561.031,-178"/>
<polygon fill="#000000" stroke="#000000" points="561.031,-181.5001 571.031,-178 561.0309,-174.5001 561.031,-181.5001"/>
</g>
</g>
</svg>
