<?xml version="1.0" encoding="UTF-8" standalone="no"?>
<svg
   xmlns:dc="http://purl.org/dc/elements/1.1/"
   xmlns:cc="http://creativecommons.org/ns#"
   xmlns:rdf="http://www.w3.org/1999/02/22-rdf-syntax-ns#"
   xmlns:svg="http://www.w3.org/2000/svg"
   xmlns="http://www.w3.org/2000/svg"
   xmlns:sodipodi="http://sodipodi.sourceforge.net/DTD/sodipodi-0.dtd"
   xmlns:inkscape="http://www.inkscape.org/namespaces/inkscape"
   version="1.1"
   id="Layer_1"
   x="0px"
   y="0px"
   viewBox="0 0 40 40"
   style="enable-background:new 0 0 40 40;"
   xml:space="preserve"
   inkscape:version="0.91 r13725"
   sodipodi:docname="catalogo-medicamento.svg"><metadata
     id="metadata25"><rdf:RDF><cc:Work
         rdf:about=""><dc:format>image/svg+xml</dc:format><dc:type
           rdf:resource="http://purl.org/dc/dcmitype/StillImage" /></cc:Work></rdf:RDF></metadata><defs
     id="defs23" /><sodipodi:namedview
     pagecolor="#ffffff"
     bordercolor="#666666"
     borderopacity="1"
     objecttolerance="10"
     gridtolerance="10"
     guidetolerance="10"
     inkscape:pageopacity="0"
     inkscape:pageshadow="2"
     inkscape:window-width="1855"
     inkscape:window-height="1056"
     id="namedview21"
     showgrid="false"
     inkscape:zoom="5.9"
     inkscape:cx="14.489611"
     inkscape:cy="20.604691"
     inkscape:window-x="1985"
     inkscape:window-y="24"
     inkscape:window-maximized="1"
     inkscape:current-layer="Layer_1" /><g
     id="g3"><path
       style="fill:#cfe4ff;fill-opacity:1"
       d="m 6.419513,37.361353 0,-35.0000004 28.5,0 c 0.275,0 0.5,0.224 0.5,0.4999999 l 0,34.0000005 c 0,0.276 -0.225,0.5 -0.5,0.5 l -28.5,0 z"
       id="path5"
       inkscape:connector-curvature="0" /><g
       id="g7"><path
         style="fill:#4788C7;"
         d="M35,3v34H7V3H35 M35,2H6v36h29c0.552,0,1-0.448,1-1V3C36,2.448,35.552,2,35,2L35,2z"
         id="path9" /></g></g><g
     id="g11"><path
       style="fill:#4788C7;"
       d="M9,38H5c-0.552,0-1-0.448-1-1V3c0-0.552,0.448-1,1-1h4V38z"
       id="path13" /></g><g
     id="g4177"
     transform="matrix(1.2372881,0,0,1,-59.412239,-0.84745756)"><rect
       id="rect15"
       height="10"
       width="15"
       style="fill:#ffffff"
       y="9.8644066"
       x="58.237289" /><path
       inkscape:connector-curvature="0"
       id="path17"
       d="m 70.737288,13.864407 -10,0 c -0.275,0 -0.5,-0.225 -0.5,-0.5 l 0,0 c 0,-0.275 0.225,-0.5 0.5,-0.5 l 10,0 c 0.275,0 0.5,0.225 0.5,0.5 l 0,0 c 0,0.275 -0.225,0.5 -0.5,0.5 z"
       style="fill:#4788c7" /><path
       inkscape:connector-curvature="0"
       id="path19"
       d="m 70.737288,16.864407 -10,0 c -0.275,0 -0.5,-0.225 -0.5,-0.5 l 0,0 c 0,-0.275 0.225,-0.5 0.5,-0.5 l 10,0 c 0.275,0 0.5,0.225 0.5,0.5 l 0,0 c 0,0.275 -0.225,0.5 -0.5,0.5 z"
       style="fill:#4788c7" /></g><g
     id="g4169"
     transform="matrix(0.28037845,0,0,0.28037845,1.5191281,21.570108)"><path
       id="path4"
       d="m 55.632402,22.93764 c -4.016,4.016 -4.106,10.438 -0.2,14.344 3.905,3.904 10.325999,3.814 14.342999,-0.201 l 8.99,-8.992 -14.141,-14.142 -8.991999,8.991 z"
       style="fill:#e91e63"
       inkscape:connector-curvature="0" /><path
       id="path6"
       d="m 87.959401,4.7536396 c -3.907,-3.90599997 -10.326,-3.81599995 -14.344,0.202 l -8.991,8.9910004 14.141,14.141 8.99,-8.991 c 4.018,-4.016 4.108,-10.4370004 0.204,-14.3430004 z"
       style="fill:#00bcd4"
       inkscape:connector-curvature="0" /><rect
       id="rect8"
       height="1.9999808"
       width="19.998808"
       transform="matrix(-0.70710678,-0.70710678,0.70710678,-0.70710678,0,0)"
       y="35.834774"
       x="-75.556976"
       style="fill:#00838f" /><path
       id="path10"
       d="m 66.552401,15.87464 -9.191999,9.191 c 0,0 -5.143,5.144 0,10.285 0.447,0.446 0.945,0.812 1.474,1.099 -4.045,-3.668 1.097,-8.812 1.097,-8.812 l 9.191999,-9.192 -2.571,-2.571 z"
       style="fill:#fce4ec"
       inkscape:connector-curvature="0" /><path
       id="path12"
       d="m 78.959401,8.6106396 c 0,0 4.5,-4.499 8.356,-0.643 -0.287,-0.528 -0.649,-1.028 -1.097,-1.475 -5.332,-4.9539999 -9.832,-0.454 -9.832,-0.454 l -9.834,9.8360004 2.571,2.571 9.836,-9.8350004 z"
       style="fill:#e0f7fa"
       inkscape:connector-curvature="0" /><rect
       id="rect14"
       height="1.9999808"
       width="3.6359651"
       transform="matrix(-0.70710678,-0.70710678,0.70710678,-0.70710678,0,0)"
       y="35.834007"
       x="-61.920059"
       style="fill:#80deea" /></g></svg>