<?xml version="1.0" encoding="UTF-8" standalone="no"?>
<svg
   xmlns:dc="http://purl.org/dc/elements/1.1/"
   xmlns:cc="http://creativecommons.org/ns#"
   xmlns:rdf="http://www.w3.org/1999/02/22-rdf-syntax-ns#"
   xmlns:svg="http://www.w3.org/2000/svg"
   xmlns="http://www.w3.org/2000/svg"
   xmlns:sodipodi="http://sodipodi.sourceforge.net/DTD/sodipodi-0.dtd"
   xmlns:inkscape="http://www.inkscape.org/namespaces/inkscape"
   version="1.1"
   x="0px"
   y="0px"
   width="48px"
   height="48px"
   viewBox="0 0 48 48"
   enable-background="new 0 0 48 48"
   xml:space="preserve"
   id="svg2"
   inkscape:version="0.91 r13725"
   sodipodi:docname="hub-almacen-art.svg"><metadata
     id="metadata20"><rdf:RDF><cc:Work
         rdf:about=""><dc:format>image/svg+xml</dc:format><dc:type
           rdf:resource="http://purl.org/dc/dcmitype/StillImage" /><dc:title></dc:title></cc:Work></rdf:RDF></metadata><defs
     id="defs18" /><sodipodi:namedview
     pagecolor="#ffffff"
     bordercolor="#666666"
     borderopacity="1"
     objecttolerance="10"
     gridtolerance="10"
     guidetolerance="10"
     inkscape:pageopacity="0"
     inkscape:pageshadow="2"
     inkscape:window-width="1855"
     inkscape:window-height="1056"
     id="namedview16"
     showgrid="false"
     inkscape:zoom="4.9166667"
     inkscape:cx="24"
     inkscape:cy="24"
     inkscape:window-x="1985"
     inkscape:window-y="24"
     inkscape:window-maximized="1"
     inkscape:current-layer="svg2" /><path
     fill="#EDE7F6"
     d="M24,7L4,18.89V43h40V18.89L24,7z"
     id="path4" /><path
     fill="#455A64"
     d="M45,22.048L24,10L3,22.048V17L24,5l0,0l21,12V22.048z"
     id="path6"
     style="fill:#d32f2f;fill-opacity:1" /><rect
     x="4"
     y="41"
     fill="#B39DDB"
     width="40"
     height="2"
     id="rect14" /><rect
     style="fill:#607d8b"
     x="9.4067822"
     y="24.813557"
     width="30"
     height="18"
     id="rect8" /><polygon
     transform="translate(0.4067842,0.81355967)"
     style="fill:#546e7a"
     points="37,26 37,42 39,42 39,26 39,24 37,24 11,24 9,24 9,26 9,42 11,42 11,26 "
     id="polygon10" /><rect
     style="fill:#01579b"
     x="20.796612"
     y="16.830503"
     width="6"
     height="4"
     id="rect14-7" /><path
     inkscape:connector-curvature="0"
     style="fill:#90a4ae"
     d="m 39.406784,32.813559 -29.9999998,0 0,-2 29.9999998,0 0,2 z m 0,2 -29.9999998,0 0,2 29.9999998,0 0,-2 z m 0,4 -29.9999998,0 0,2 29.9999998,0 0,-2 z m 0,-12 -29.9999998,0 0,2 29.9999998,0 0,-2 z"
     id="path16" /><path
     inkscape:connector-curvature="0"
     style="fill:#78909c"
     d="m 39.406784,28.813559 -2,0 0,-2 2,0 0,2 z m 0,2 -2,0 0,2 2,0 0,-2 z m 0,4 -2,0 0,2 2,0 0,-2 z m 0,4 -2,0 0,2 2,0 0,-2 z m -28,-12 -1.9999998,0 0,2 1.9999998,0 0,-2 z m 0,4 -1.9999998,0 0,2 1.9999998,0 0,-2 z m 0,4 -1.9999998,0 0,2 1.9999998,0 0,-2 z m 0,4 -1.9999998,0 0,2 1.9999998,0 0,-2 z"
     id="path18" /></svg>