<?xml version="1.0" encoding="UTF-8" standalone="no"?>
<svg
   xmlns:dc="http://purl.org/dc/elements/1.1/"
   xmlns:cc="http://creativecommons.org/ns#"
   xmlns:rdf="http://www.w3.org/1999/02/22-rdf-syntax-ns#"
   xmlns:svg="http://www.w3.org/2000/svg"
   xmlns="http://www.w3.org/2000/svg"
   xmlns:sodipodi="http://sodipodi.sourceforge.net/DTD/sodipodi-0.dtd"
   xmlns:inkscape="http://www.inkscape.org/namespaces/inkscape"
   version="1.1"
   x="0px"
   y="0px"
   width="48px"
   height="48px"
   viewBox="0 0 48 48"
   enable-background="new 0 0 48 48"
   xml:space="preserve"
   id="svg2"
   inkscape:version="0.91 r13725"
   sodipodi:docname="hub-laboratorio.svg"><metadata
     id="metadata20"><rdf:RDF><cc:Work
         rdf:about=""><dc:format>image/svg+xml</dc:format><dc:type
           rdf:resource="http://purl.org/dc/dcmitype/StillImage" /><dc:title /></cc:Work></rdf:RDF></metadata><defs
     id="defs18" /><sodipodi:namedview
     pagecolor="#ffffff"
     bordercolor="#666666"
     borderopacity="1"
     objecttolerance="10"
     gridtolerance="10"
     guidetolerance="10"
     inkscape:pageopacity="0"
     inkscape:pageshadow="2"
     inkscape:window-width="1855"
     inkscape:window-height="1056"
     id="namedview16"
     showgrid="false"
     inkscape:zoom="4.9166667"
     inkscape:cx="-10.983051"
     inkscape:cy="24"
     inkscape:window-x="1985"
     inkscape:window-y="24"
     inkscape:window-maximized="1"
     inkscape:current-layer="svg2" /><path
     inkscape:connector-curvature="0"
     style="fill:none;stroke:#36404d;stroke-width:2;stroke-miterlimit:10"
     d="m 18.283306,35.036575 c -5.486788,0 -9.975978,-4.230028 -9.975978,-9.399938 l 0,-0.01993 c 0,-5.169911 4.48919,-9.399939 9.975978,-9.399939"
     id="path3" /><g
     transform="matrix(1.108442,0,0,1.1070473,1.6666558,1.8251562)"
     id="g5"><path
       inkscape:connector-curvature="0"
       style="fill:#4b6477"
       d="m 15.818,16.5 c -1.83,0 -3.318,-1.57 -3.318,-3.5 0,-1.93 1.489,-3.5 3.318,-3.5 l 6.364,0 c 1.83,0 3.318,1.57 3.318,3.5 0,1.93 -1.488,3.5 -3.318,3.5 l -6.364,0 z"
       id="path7" /><g
       id="g9"><path
         inkscape:connector-curvature="0"
         style="fill:#36404d"
         d="m 22.182,10 c 1.554,0 2.818,1.346 2.818,3 0,1.654 -1.264,3 -2.818,3 l -6.364,0 C 14.264,16 13,14.654 13,13 c 0,-1.654 1.264,-3 2.818,-3 l 6.364,0 m 0,-1 -6.364,0 C 13.718,9 12,10.8 12,13 l 0,0 c 0,2.2 1.718,4 3.818,4 l 6.364,0 C 24.282,17 26,15.2 26,13 26,10.8 24.282,9 22.182,9 l 0,0 z"
         id="path11" /></g></g><g
     transform="matrix(1.108442,0,0,1.1070473,1.6666558,1.8251562)"
     id="g13"><rect
       x="16.5"
       y="28.5"
       style="fill:#4b6477"
       width="15"
       height="2"
       id="rect15" /><g
       id="g17"><path
         inkscape:connector-curvature="0"
         style="fill:#36404d"
         d="m 31,29 0,1 -14,0 0,-1 14,0 m 1,-1 -16,0 0,3 16,0 0,-3 0,0 z"
         id="path19" /></g></g><g
     transform="matrix(1.108442,0,0,1.1070473,1.6666558,1.8251562)"
     id="g21"><rect
       x="23.5"
       y="1.5"
       style="fill:#b0c1d4"
       width="5"
       height="23"
       id="rect23" /><g
       id="g25"><path
         inkscape:connector-curvature="0"
         style="fill:#66798f"
         d="m 28,2 0,22 -4,0 0,-22 4,0 m 1,-1 -6,0 0,24 6,0 0,-24 0,0 z"
         id="path27" /></g></g><g
     transform="matrix(1.108442,0,0,1.1070473,1.6666558,1.8251562)"
     id="g29"><path
       inkscape:connector-curvature="0"
       style="fill:#8bd8f0;fill-opacity:1"
       d="m 22,20.5 c -0.276,0 -0.5,-0.225 -0.5,-0.5 l 0,-14.5 9,0 0,14.5 c 0,0.275 -0.224,0.5 -0.5,0.5 l -8,0 z"
       id="path31" /><path
       inkscape:connector-curvature="0"
       style="fill:#4e7ab5"
       d="m 30,6 0,14 -8,0 0,-14 8,0 m 1,-1 -10,0 0,15 c 0,0.552 0.448,1 1,1 l 8,0 c 0.552,0 1,-0.448 1,-1 l 0,-15 0,0 z"
       id="path33" /></g><rect
     x="25.062544"
     y="2.9322042"
     style="fill:#4e7ab5"
     width="11.08442"
     height="1.1070473"
     id="rect35" /><ellipse
     style="fill:#8bb7f0"
     cx="19.40172"
     cy="16.21677"
     id="circle37"
     rx="1.1084421"
     ry="1.1070473" /><g
     transform="matrix(1.108442,0,0,1.1070473,1.6666558,1.8251562)"
     id="g39"><path
       inkscape:connector-curvature="0"
       style="fill:#8bd8f0;fill-opacity:1"
       d="m 7.003,35.5 6.932,-9.199 C 14.296,25.796 14.884,25.5 15.514,25.5 l 0.252,0 c 0.63,0 1.217,0.296 1.571,0.791 l 6.94,9.209 -17.274,0 z"
       id="path41" /><path
       inkscape:connector-curvature="0"
       style="fill:#4e7ab5"
       d="m 15.767,26 c 0.476,0 0.9,0.212 1.18,0.602 L 23.275,35 8.006,35 14.35,26.582 C 14.614,26.212 15.038,26 15.514,26 l 0.253,0 m 0,-1 -0.252,0 c -0.785,0 -1.522,0.362 -1.978,1 L 6,36 25.281,36 17.745,26 c -0.457,-0.638 -1.193,-1 -1.978,-1 l 0,0 z"
       id="path43" /></g><g
     transform="matrix(1.108442,0,0,1.1070473,1.6666558,1.8251562)"
     id="g45"><circle
       style="fill:#4b6477"
       cx="15.569"
       cy="29.5"
       r="1"
       id="circle47" /><path
       inkscape:connector-curvature="0"
       style="fill:#36404d"
       d="m 15.569,29 c 0.276,0 0.5,0.224 0.5,0.5 0,0.276 -0.224,0.5 -0.5,0.5 -0.276,0 -0.5,-0.224 -0.5,-0.5 0,-0.276 0.224,-0.5 0.5,-0.5 m 0,-1 c -0.828,0 -1.5,0.672 -1.5,1.5 0,0.828 0.672,1.5 1.5,1.5 0.828,0 1.5,-0.672 1.5,-1.5 0,-0.828 -0.672,-1.5 -1.5,-1.5 l 0,0 z"
       id="path49" /></g><g
     transform="matrix(1.108442,0,0,1.1070473,1.6666558,1.8251562)"
     id="g51"><path
       inkscape:connector-curvature="0"
       style="fill:#b0c1d4"
       d="m 5.5,38.5 0,-1.5 c 0,-1.379 1.122,-2.5 2.5,-2.5 l 24,0 c 1.378,0 2.5,1.121 2.5,2.5 l 0,1.5 -29,0 z"
       id="path53" /><g
       id="g55"><path
         inkscape:connector-curvature="0"
         style="fill:#66798f"
         d="m 32,35 c 1.103,0 2,0.897 2,2 l 0,1 -28,0 0,-1 c 0,-1.103 0.897,-2 2,-2 l 24,0 m 0,-1 -24,0 c -1.657,0 -3,1.343 -3,3 l 0,2 30,0 0,-2 c 0,-1.657 -1.343,-3 -3,-3 l 0,0 z"
         id="path57" /></g></g></svg>