<?xml version="1.0" encoding="UTF-8" standalone="no"?>
<svg xmlns="http://www.w3.org/2000/svg" xmlns:xlink="http://www.w3.org/1999/xlink" version="1.1" id="Layer_1" x="0px" y="0px" viewBox="0 0 40 40" style="enable-background:new 0 0 40 40;" xml:space="preserve">
<g>
	<path style="fill:#98CCFD;" d="M6.5,37.5v-35H35c0.275,0,0.5,0.224,0.5,0.5v34c0,0.276-0.225,0.5-0.5,0.5H6.5z"></path>
	<g>
		<path style="fill:#4788C7;" d="M35,3v34H7V3H35 M35,2H6v36h29c0.552,0,1-0.448,1-1V3C36,2.448,35.552,2,35,2L35,2z"></path>
	</g>
</g>
<g>
	<path style="fill:#4788C7;" d="M9,38H5c-0.552,0-1-0.448-1-1V3c0-0.552,0.448-1,1-1h4V38z"></path>
</g>
<rect x="14" y="10" style="fill:#FFFFFF;" width="15" height="10"></rect>
<path style="fill:#4788C7;" d="M26.5,14h-10c-0.275,0-0.5-0.225-0.5-0.5v0c0-0.275,0.225-0.5,0.5-0.5h10c0.275,0,0.5,0.225,0.5,0.5  v0C27,13.775,26.775,14,26.5,14z"></path>
<path style="fill:#4788C7;" d="M26.5,17h-10c-0.275,0-0.5-0.225-0.5-0.5l0,0c0-0.275,0.225-0.5,0.5-0.5h10  c0.275,0,0.5,0.225,0.5,0.5l0,0C27,16.775,26.775,17,26.5,17z"></path>
</svg>