<svg version="1.1" xmlns="http://www.w3.org/2000/svg" xmlns:xlink="http://www.w3.org/1999/xlink" x="0px" y="0px" width="48px" height="48px" viewBox="0 0 48 48" enable-background="new 0 0 48 48" xml:space="preserve">
<path fill="#FF9800" d="M37,34H11c-1.105,0-2-0.895-2-2V8c0-1.105,0.895-2,2-2h26c1.105,0,2,0.895,2,2v24C39,33.105,38.105,34,37,34
	"></path>
<path fill="#FF1744" d="M42,16H6c-2.209,0-4,1.791-4,4v18c0,2.209,1.791,4,4,4h36c2.209,0,4-1.791,4-4V20C46,17.791,44.209,16,42,16
	"></path>
<path fill="#8A5100" d="M27.5,12h-7c-0.828,0-1.5-0.672-1.5-1.5S19.672,9,20.5,9h7c0.828,0,1.5,0.672,1.5,1.5S28.328,12,27.5,12"></path>
<path fill="#FFCDD2" d="M42,21c0-0.552-0.448-1-1-1H7c-0.552,0-1,0.448-1,1v16c0,0.552,0.448,1,1,1h34c0.552,0,1-0.448,1-1V21z"></path>
<path fill="#EF9A9A" d="M39,32V20H9v12c0,1.105,0.895,2,2,2h26C38.105,34,39,33.105,39,32z"></path>
<g>
	<g>
		<path fill="#37474F" d="M25,28v1h-1v-1H25 M27,26h-5v5h5V26L27,26z"></path>
	</g>
	<rect x="28" y="21" fill="#37474F" width="2" height="4"></rect>
	<rect x="32" y="23" fill="#37474F" width="2" height="2"></rect>
	<rect x="34" y="25" fill="#37474F" width="2" height="4"></rect>
	<rect x="29" y="27" fill="#37474F" width="2" height="4"></rect>
	<rect x="30" y="25" fill="#37474F" width="2" height="2"></rect>
	<rect x="33" y="28" fill="#37474F" width="3" height="2"></rect>
	<rect x="23" y="23" fill="#37474F" width="7" height="2"></rect>
	<g>
		<polygon fill="#37474F" points="25,20 24,20 22,20 22,22 27,22 27,20 		"></polygon>
		<polygon fill="#37474F" points="34,20 33,20 31,20 31,22 36,22 36,20 		"></polygon>
	</g>
</g>
</svg>