<?xml version="1.0" encoding="UTF-8" standalone="no"?>
<!DOCTYPE svg PUBLIC "-//W3C//DTD SVG 1.1//EN"
 "http://www.w3.org/Graphics/SVG/1.1/DTD/svg11.dtd">
<!-- Generated by graphviz version 2.40.1 (20161225.0304)
 -->
<!-- Title: dependencies Pages: 1 -->
<svg width="896pt" height="211pt"
 viewBox="0.00 0.00 896.00 211.00" xmlns="http://www.w3.org/2000/svg" xmlns:xlink="http://www.w3.org/1999/xlink">
<g id="graph0" class="graph" transform="scale(1 1) rotate(0) translate(4 207)">
<title>dependencies</title>
<polygon fill="#ffffff" stroke="transparent" points="-4,4 -4,-207 892,-207 892,4 -4,4"/>
<text text-anchor="start" x="423.0091" y="-42.4" font-family="sans-serif" font-weight="bold" font-size="14.00" fill="#000000">Legend</text>
<polygon fill="#ffffb3" stroke="transparent" points="210,-10 210,-30 230,-30 230,-10 210,-10"/>
<text text-anchor="start" x="233.629" y="-15.4" font-family="sans-serif" font-size="14.00" fill="#000000"> &#160;Declarations</text>
<polygon fill="#8dd3c7" stroke="transparent" points="323,-10 323,-30 343,-30 343,-10 323,-10"/>
<text text-anchor="start" x="346.7251" y="-15.4" font-family="sans-serif" font-size="14.00" fill="#000000"> &#160;Module</text>
<polygon fill="#80b1d3" stroke="transparent" points="409,-10 409,-30 429,-30 429,-10 409,-10"/>
<text text-anchor="start" x="432.7812" y="-15.4" font-family="sans-serif" font-size="14.00" fill="#000000"> &#160;Bootstrap</text>
<polygon fill="#fdb462" stroke="transparent" points="506,-10 506,-30 526,-30 526,-10 506,-10"/>
<text text-anchor="start" x="529.6732" y="-15.4" font-family="sans-serif" font-size="14.00" fill="#000000"> &#160;Providers</text>
<polygon fill="#fb8072" stroke="transparent" points="602,-10 602,-30 622,-30 622,-10 602,-10"/>
<text text-anchor="start" x="625.7258" y="-15.4" font-family="sans-serif" font-size="14.00" fill="#000000"> &#160;Exports</text>
<g id="clust1" class="cluster">
<title>cluster_DashboardSalidasModule</title>
<polygon fill="none" stroke="#000000" stroke-dasharray="1,5" points="8,-70 8,-195 880,-195 880,-70 8,-70"/>
</g>
<g id="clust2" class="cluster">
<title>cluster_DashboardSalidasModule_declarations</title>
<polygon fill="none" stroke="#000000" points="674,-78 674,-130 872,-130 872,-78 674,-78"/>
</g>
<g id="clust4" class="cluster">
<title>cluster_DashboardSalidasModule_imports</title>
<polygon fill="none" stroke="#000000" points="158,-78 158,-130 666,-130 666,-78 158,-78"/>
</g>
<g id="clust7" class="cluster">
<title>cluster_DashboardSalidasModule_providers</title>
<polygon fill="none" stroke="#000000" points="16,-78 16,-130 150,-130 150,-78 16,-78"/>
</g>
<!-- DashboardSalidasComponent -->
<g id="node1" class="node">
<title>DashboardSalidasComponent</title>
<polygon fill="#ffffb3" stroke="#000000" points="864.4115,-122 681.5885,-122 681.5885,-86 864.4115,-86 864.4115,-122"/>
<text text-anchor="middle" x="773" y="-99.8" font-family="Times,serif" font-size="14.00" fill="#000000">DashboardSalidasComponent</text>
</g>
<!-- DashboardSalidasModule -->
<g id="node2" class="node">
<title>DashboardSalidasModule</title>
<polygon fill="#8dd3c7" stroke="#000000" points="461.1288,-187 458.1288,-191 437.1288,-191 434.1288,-187 300.8712,-187 300.8712,-151 461.1288,-151 461.1288,-187"/>
<text text-anchor="middle" x="381" y="-164.8" font-family="Times,serif" font-size="14.00" fill="#000000">DashboardSalidasModule</text>
</g>
<!-- DashboardSalidasComponent&#45;&gt;DashboardSalidasModule -->
<g id="edge1" class="edge">
<title>DashboardSalidasComponent&#45;&gt;DashboardSalidasModule</title>
<path fill="none" stroke="#000000" d="M773,-122.1061C773,-141.3391 773,-169 773,-169 773,-169 471.273,-169 471.273,-169"/>
<polygon fill="#000000" stroke="#000000" points="471.273,-165.5001 461.273,-169 471.2729,-172.5001 471.273,-165.5001"/>
</g>
<!-- DashboardSalidasRoutingModule -->
<g id="node3" class="node">
<title>DashboardSalidasRoutingModule</title>
<polygon fill="#8dd3c7" stroke="#000000" points="657.7464,-122 654.7464,-126 633.7464,-126 630.7464,-122 452.2536,-122 452.2536,-86 657.7464,-86 657.7464,-122"/>
<text text-anchor="middle" x="555" y="-99.8" font-family="Times,serif" font-size="14.00" fill="#000000">DashboardSalidasRoutingModule</text>
</g>
<!-- DashboardSalidasRoutingModule&#45;&gt;DashboardSalidasModule -->
<g id="edge2" class="edge">
<title>DashboardSalidasRoutingModule&#45;&gt;DashboardSalidasModule</title>
<path fill="none" stroke="#000000" d="M456.7206,-122.1061C456.7206,-122.1061 456.7206,-140.991 456.7206,-140.991"/>
<polygon fill="#000000" stroke="#000000" points="453.2206,-140.9909 456.7206,-150.991 460.2206,-140.991 453.2206,-140.9909"/>
</g>
<!-- GraficasModule -->
<g id="node4" class="node">
<title>GraficasModule</title>
<polygon fill="#8dd3c7" stroke="#000000" points="434.4566,-122 431.4566,-126 410.4566,-126 407.4566,-122 327.5434,-122 327.5434,-86 434.4566,-86 434.4566,-122"/>
<text text-anchor="middle" x="381" y="-99.8" font-family="Times,serif" font-size="14.00" fill="#000000">GraficasModule</text>
</g>
<!-- GraficasModule&#45;&gt;DashboardSalidasModule -->
<g id="edge3" class="edge">
<title>GraficasModule&#45;&gt;DashboardSalidasModule</title>
<path fill="none" stroke="#000000" d="M381,-122.1061C381,-122.1061 381,-140.991 381,-140.991"/>
<polygon fill="#000000" stroke="#000000" points="377.5001,-140.9909 381,-150.991 384.5001,-140.991 377.5001,-140.9909"/>
</g>
<!-- IndexFarmaciaModule -->
<g id="node5" class="node">
<title>IndexFarmaciaModule</title>
<polygon fill="#8dd3c7" stroke="#000000" points="309.5086,-122 306.5086,-126 285.5086,-126 282.5086,-122 166.4914,-122 166.4914,-86 309.5086,-86 309.5086,-122"/>
<text text-anchor="middle" x="238" y="-99.8" font-family="Times,serif" font-size="14.00" fill="#000000">IndexFarmaciaModule</text>
</g>
<!-- IndexFarmaciaModule&#45;&gt;DashboardSalidasModule -->
<g id="edge4" class="edge">
<title>IndexFarmaciaModule&#45;&gt;DashboardSalidasModule</title>
<path fill="none" stroke="#000000" d="M305.2199,-122.1061C305.2199,-122.1061 305.2199,-140.991 305.2199,-140.991"/>
<polygon fill="#000000" stroke="#000000" points="301.7199,-140.9909 305.2199,-150.991 308.7199,-140.991 301.7199,-140.9909"/>
</g>
<!-- AuthService -->
<g id="node6" class="node">
<title>AuthService</title>
<ellipse fill="#fdb462" stroke="#000000" cx="83" cy="-104" rx="59.1083" ry="18"/>
<text text-anchor="middle" x="83" y="-99.8" font-family="Times,serif" font-size="14.00" fill="#000000">AuthService</text>
</g>
<!-- AuthService&#45;&gt;DashboardSalidasModule -->
<g id="edge5" class="edge">
<title>AuthService&#45;&gt;DashboardSalidasModule</title>
<path fill="none" stroke="#000000" d="M83,-122.1061C83,-141.3391 83,-169 83,-169 83,-169 290.7495,-169 290.7495,-169"/>
<polygon fill="#000000" stroke="#000000" points="290.7495,-172.5001 300.7495,-169 290.7494,-165.5001 290.7495,-172.5001"/>
</g>
</g>
</svg>
