<?xml version="1.0" encoding="UTF-8" standalone="no"?>
<svg
   xmlns:dc="http://purl.org/dc/elements/1.1/"
   xmlns:cc="http://creativecommons.org/ns#"
   xmlns:rdf="http://www.w3.org/1999/02/22-rdf-syntax-ns#"
   xmlns:svg="http://www.w3.org/2000/svg"
   xmlns="http://www.w3.org/2000/svg"
   xmlns:sodipodi="http://sodipodi.sourceforge.net/DTD/sodipodi-0.dtd"
   xmlns:inkscape="http://www.inkscape.org/namespaces/inkscape"
   version="1.1"
   id="Layer_1"
   x="0px"
   y="0px"
   viewBox="0 0 40 40"
   style="enable-background:new 0 0 40 40;"
   xml:space="preserve"
   inkscape:version="0.91 r13725"
   sodipodi:docname="catalogo-presentacion.svg"><metadata
     id="metadata25"><rdf:RDF><cc:Work
         rdf:about=""><dc:format>image/svg+xml</dc:format><dc:type
           rdf:resource="http://purl.org/dc/dcmitype/StillImage" /><dc:title></dc:title></cc:Work></rdf:RDF></metadata><defs
     id="defs23" /><sodipodi:namedview
     pagecolor="#ffffff"
     bordercolor="#666666"
     borderopacity="1"
     objecttolerance="10"
     gridtolerance="10"
     guidetolerance="10"
     inkscape:pageopacity="0"
     inkscape:pageshadow="2"
     inkscape:window-width="1855"
     inkscape:window-height="1056"
     id="namedview21"
     showgrid="false"
     inkscape:zoom="16.68772"
     inkscape:cx="18.646361"
     inkscape:cy="14.634985"
     inkscape:window-x="65"
     inkscape:window-y="24"
     inkscape:window-maximized="1"
     inkscape:current-layer="Layer_1" /><g
     id="g3"><path
       style="fill:#e5e4ff;fill-opacity:1"
       d="m 6.419513,37.361353 0,-35.0000004 28.5,0 c 0.275,0 0.5,0.224 0.5,0.4999999 l 0,34.0000005 c 0,0.276 -0.225,0.5 -0.5,0.5 l -28.5,0 z"
       id="path5"
       inkscape:connector-curvature="0" /><g
       id="g7"><path
         style="fill:#4788C7;"
         d="M35,3v34H7V3H35 M35,2H6v36h29c0.552,0,1-0.448,1-1V3C36,2.448,35.552,2,35,2L35,2z"
         id="path9" /></g></g><g
     id="g11"><path
       style="fill:#4788C7;"
       d="M9,38H5c-0.552,0-1-0.448-1-1V3c0-0.552,0.448-1,1-1h4V38z"
       id="path13" /></g><g
     id="g4177"
     transform="matrix(1.2372881,0,0,1,-59.581731,-3.0508474)"><rect
       id="rect15"
       height="10"
       width="15"
       style="fill:#ffffff"
       y="9.8644066"
       x="58.237289" /><path
       inkscape:connector-curvature="0"
       id="path17"
       d="m 70.737288,13.864407 -10,0 c -0.275,0 -0.5,-0.225 -0.5,-0.5 l 0,0 c 0,-0.275 0.225,-0.5 0.5,-0.5 l 10,0 c 0.275,0 0.5,0.225 0.5,0.5 l 0,0 c 0,0.275 -0.225,0.5 -0.5,0.5 z"
       style="fill:#4788c7" /><path
       inkscape:connector-curvature="0"
       id="path19"
       d="m 70.737288,16.864407 -10,0 c -0.275,0 -0.5,-0.225 -0.5,-0.5 l 0,0 c 0,-0.275 0.225,-0.5 0.5,-0.5 l 10,0 c 0.275,0 0.5,0.225 0.5,0.5 l 0,0 c 0,0.275 -0.225,0.5 -0.5,0.5 z"
       style="fill:#4788c7" /></g><g
     id="g4208"
     transform="matrix(0.34174497,0,0,0.34174497,12.946536,11.937167)"><path
       id="path4-5"
       d="m 27.640243,33.65349 -23.9999998,0 c -1.1,0 -2,-0.9 -2,-2 l 0,-4 c 0,-1.1 0.9,-2 2,-2 l 23.9999998,0 c 1.1,0 2,0.9 2,2 l 0,4 c 0,1.1 -0.9,2 -2,2 z"
       style="fill:#b0bec5"
       inkscape:connector-curvature="0" /><path
       id="path6-3"
       d="m 27.640243,64.65349 -23.9999998,0 c -1.105,0 -2,-0.895 -2,-2 l 0,-30 27.9999998,0 0,30 c 0,1.105 -0.895,2 -2,2 z"
       style="fill:#ffc107"
       inkscape:connector-curvature="0" /><path
       id="path8-5"
       d="m 27.640243,64.65349 -23.9999998,0 c -1.105,0 -2,-0.895 -2,-2 l 0,0 27.9999998,0 0,0 c 0,1.105 -0.895,2 -2,2 z"
       style="fill:#ffa000"
       inkscape:connector-curvature="0" /><rect
       id="rect10"
       height="18"
       width="24"
       style="fill:#fff8e1"
       y="39.653492"
       x="3.6402433" /><g
       id="g12"
       transform="translate(-8.2347568,21.65349)"><path
         id="path14"
         d="m 20.875,29 -2,0 0,-9 4,0 c 1.654,0 3,1.346 3,3 0,1.654 -1.346,3 -3,3 l -2,0 0,3 z m 0,-5 2,0 c 0.552,0 1,-0.449 1,-1 0,-0.551 -0.448,-1 -1,-1 l -2,0 0,2 z"
         style="fill:#3e2723"
         inkscape:connector-curvature="0" /><polygon
         id="polygon16"
         points="27.875,34 29.875,34 23.875,25 21.875,25 "
         style="fill:#3e2723" /><polygon
         id="polygon18"
         points="24.875,34 22.875,34 27.875,27 29.875,27 "
         style="fill:#3e2723" /></g><path
       id="path20"
       d="m 31.640243,34.65349 0,-4 c 0,-1.65 -1.35,-3 -3,-3 l -25.9999998,0 c -1.64999998,0 -2.99999998,1.35 -2.99999998,3 l 0,4 31.99999978,0 z"
       style="fill:#cfccea;fill-opacity:1"
       inkscape:connector-curvature="0" /></g><g
     id="g4169"
     transform="matrix(-0.10956643,-0.02865442,0.02865442,-0.10956643,32.288137,36.781848)"><path
       id="path4"
       d="m 55.632402,22.93764 c -4.016,4.016 -4.106,10.438 -0.2,14.344 3.905,3.904 10.325999,3.814 14.342999,-0.201 l 8.99,-8.992 -14.141,-14.142 -8.991999,8.991 z"
       style="fill:#e91e63"
       inkscape:connector-curvature="0" /><path
       id="path6"
       d="m 87.959401,4.7536396 c -3.907,-3.90599997 -10.326,-3.81599995 -14.344,0.202 l -8.991,8.9910004 14.141,14.141 8.99,-8.991 c 4.018,-4.016 4.108,-10.4370004 0.204,-14.3430004 z"
       style="fill:#00bcd4"
       inkscape:connector-curvature="0" /><rect
       id="rect8"
       height="1.9999808"
       width="19.998808"
       transform="matrix(-0.70710678,-0.70710678,0.70710678,-0.70710678,0,0)"
       y="35.834774"
       x="-75.556976"
       style="fill:#00838f" /><path
       id="path10"
       d="m 66.552401,15.87464 -9.191999,9.191 c 0,0 -5.143,5.144 0,10.285 0.447,0.446 0.945,0.812 1.474,1.099 -4.045,-3.668 1.097,-8.812 1.097,-8.812 l 9.191999,-9.192 -2.571,-2.571 z"
       style="fill:#fce4ec"
       inkscape:connector-curvature="0" /><path
       id="path12"
       d="m 78.959401,8.6106396 c 0,0 4.5,-4.499 8.356,-0.643 -0.287,-0.528 -0.649,-1.028 -1.097,-1.475 -5.332,-4.9539999 -9.832,-0.454 -9.832,-0.454 l -9.834,9.8360004 2.571,2.571 9.836,-9.8350004 z"
       style="fill:#e0f7fa"
       inkscape:connector-curvature="0" /><rect
       id="rect14"
       height="1.9999808"
       width="3.6359651"
       transform="matrix(-0.70710678,-0.70710678,0.70710678,-0.70710678,0,0)"
       y="35.834007"
       x="-61.920059"
       style="fill:#80deea" /></g><g
     id="g4180"
     transform="matrix(-0.19655178,-0.11521975,-0.11521975,0.19655178,41.805568,29.608698)"><path
       id="path4-3"
       d="m 60.770982,23.789091 c 0,-0.215 -0.086,-0.42 -0.237,-0.572 l -4.914,-4.911 c -0.315,-0.315 -0.827,-0.315 -1.143,0 0,0 -13.78,13.975 -15.185,15.38 0,0 0.201,-0.219 0,0 l 12.016,0 9.226,-9.325 c 0.151,-0.153 0.237,-0.359 0.237,-0.572 z"
       style="fill:#90caf9"
       inkscape:connector-curvature="0" /><path
       id="path6-6"
       d="m 64.253982,21.710091 c -0.215,0 -0.42,-0.086 -0.572,-0.238 l -6.315,-6.315 c -0.315,-0.315 -0.315,-0.827 0,-1.144 0,0 5.687,-5.6859995 5.779,-5.7799995 0.999,-0.999 2.324,-1.548 3.733,-1.548 1.41,0 2.734,0.549 3.73,1.545 2.057,2.0569995 2.057,5.4029995 0,7.4609995 -0.1,0.098 -5.783,5.781 -5.783,5.781 -0.153,0.152 -0.358,0.238 -0.572,0.238 z"
       style="fill:#ff9800"
       inkscape:connector-curvature="0" /><path
       id="path8"
       d="m 62.067982,26.292091 c -0.48,0 -0.934,-0.188 -1.273,-0.526 l -7.722,-7.722 c -0.339,-0.339 -0.527,-0.792 -0.527,-1.273 0,-0.48 0.188,-0.934 0.527,-1.273 l 2.106,-2.105 c 0.681,-0.681 1.865,-0.681 2.548,0 l 7.721,7.721 c 0.702,0.703 0.702,1.846 0,2.547 l -2.104,2.105 c -0.342,0.339 -0.796,0.526 -1.276,0.526 z"
       style="fill:#f57f17"
       inkscape:connector-curvature="0" /><path
       id="path10-7"
       d="m 39.292982,33.685091 c -0.238,0.259 -0.747,0.766 -0.943,1 -1.061,1.262 -1.551,2.197 -1.725,3.066 -0.156,0.779 -0.303,1.516 -2.235,3.447 -0.046,0.047 -0.132,0.127 -0.236,0.221 l 3.25,3.252 c 0.111,-0.104 0.201,-0.189 0.234,-0.223 1.933,-1.935 2.668,-2.08 3.447,-2.236 1.168,-0.233 2.158,-0.563 4.273,-2.678 l 5.95,-5.851 -12.015,0.002 0,0 z"
       style="fill:#e91e63"
       inkscape:connector-curvature="0" /></g></svg>