<?xml version="1.0" encoding="UTF-8" standalone="no"?>
<svg
   xmlns:dc="http://purl.org/dc/elements/1.1/"
   xmlns:cc="http://creativecommons.org/ns#"
   xmlns:rdf="http://www.w3.org/1999/02/22-rdf-syntax-ns#"
   xmlns:svg="http://www.w3.org/2000/svg"
   xmlns="http://www.w3.org/2000/svg"
   xmlns:sodipodi="http://sodipodi.sourceforge.net/DTD/sodipodi-0.dtd"
   xmlns:inkscape="http://www.inkscape.org/namespaces/inkscape"
   version="1.1"
   id="Layer_1"
   x="0px"
   y="0px"
   viewBox="0 0 40 40"
   style="enable-background:new 0 0 40 40;"
   xml:space="preserve"
   inkscape:version="0.91 r13725"
   sodipodi:docname="catalogo-servicios.svg"><metadata
     id="metadata25"><rdf:RDF><cc:Work
         rdf:about=""><dc:format>image/svg+xml</dc:format><dc:type
           rdf:resource="http://purl.org/dc/dcmitype/StillImage" /><dc:title></dc:title></cc:Work></rdf:RDF></metadata><defs
     id="defs23" /><sodipodi:namedview
     pagecolor="#ffffff"
     bordercolor="#666666"
     borderopacity="1"
     objecttolerance="10"
     gridtolerance="10"
     guidetolerance="10"
     inkscape:pageopacity="0"
     inkscape:pageshadow="2"
     inkscape:window-width="1855"
     inkscape:window-height="1056"
     id="namedview21"
     showgrid="false"
     inkscape:zoom="11.8"
     inkscape:cx="1.9386253"
     inkscape:cy="19.348451"
     inkscape:window-x="65"
     inkscape:window-y="24"
     inkscape:window-maximized="1"
     inkscape:current-layer="g3" /><g
     id="g3"><path
       style="fill:#dae4ff;fill-opacity:1"
       d="m 6.419513,37.361353 0,-35.0000004 28.5,0 c 0.275,0 0.5,0.224 0.5,0.4999999 l 0,34.0000005 c 0,0.276 -0.225,0.5 -0.5,0.5 l -28.5,0 z"
       id="path5"
       inkscape:connector-curvature="0" /><g
       id="g7"><path
         style="fill:#4788C7;"
         d="M35,3v34H7V3H35 M35,2H6v36h29c0.552,0,1-0.448,1-1V3C36,2.448,35.552,2,35,2L35,2z"
         id="path9" /></g></g><g
     id="g11"><path
       style="fill:#4788C7;"
       d="M9,38H5c-0.552,0-1-0.448-1-1V3c0-0.552,0.448-1,1-1h4V38z"
       id="path13" /></g><g
     id="g4177"
     transform="matrix(1.2372881,0,0,1,-59.327493,-4.4915254)"><rect
       id="rect15"
       height="10"
       width="15"
       style="fill:#ffffff"
       y="9.8644066"
       x="58.237289" /><path
       inkscape:connector-curvature="0"
       id="path17"
       d="m 70.737288,13.864407 -10,0 c -0.275,0 -0.5,-0.225 -0.5,-0.5 l 0,0 c 0,-0.275 0.225,-0.5 0.5,-0.5 l 10,0 c 0.275,0 0.5,0.225 0.5,0.5 l 0,0 c 0,0.275 -0.225,0.5 -0.5,0.5 z"
       style="fill:#4788c7" /><path
       inkscape:connector-curvature="0"
       id="path19"
       d="m 70.737288,16.864407 -10,0 c -0.275,0 -0.5,-0.225 -0.5,-0.5 l 0,0 c 0,-0.275 0.225,-0.5 0.5,-0.5 l 10,0 c 0.275,0 0.5,0.225 0.5,0.5 l 0,0 c 0,0.275 -0.225,0.5 -0.5,0.5 z"
       style="fill:#4788c7" /></g><g
     id="g4179"
     transform="matrix(0.47393202,0,0,0.47393202,13.175495,14.36042)"><path
       id="path4"
       d="m 36.966102,41.084746 -38.0000003,0 0,-25.16 c 0,-1.611 1.29599999,-2.84 2.889,-2.84 l 32.2220003,0 c 1.593,0 2.889,1.229 2.889,2.84 l 0,25.16 z"
       style="fill:#d1c4e9"
       inkscape:connector-curvature="0" /><rect
       id="rect6"
       height="2"
       width="38"
       y="41.084747"
       x="-1.0338984"
       style="fill:#b39ddb" /><g
       id="g8"
       transform="translate(-6.0338983,1.0847458)"><rect
         id="rect10"
         height="6"
         width="8"
         y="21"
         x="9"
         style="fill:#311b92" /><rect
         id="rect12"
         height="6"
         width="8"
         y="21"
         x="20"
         style="fill:#311b92" /><rect
         id="rect14"
         height="6"
         width="8"
         y="31"
         x="9"
         style="fill:#311b92" /><rect
         id="rect16"
         height="6"
         width="8"
         y="21"
         x="31"
         style="fill:#311b92" /><rect
         id="rect18"
         height="6"
         width="8"
         y="31"
         x="31"
         style="fill:#311b92" /><rect
         id="rect20"
         height="11"
         width="8"
         y="31"
         x="20"
         style="fill:#311b92" /></g><path
       id="path22"
       d="m 23.966102,17.084746 c 0,1.104 -0.896,2 -2,2 l -8,0 c -1.104,0 -2,-0.896 -2,-2 l 0,-8.0000002 c 0,-1.104 0.896,-2 2,-2 l 8,0 c 1.104,0 2,0.896 2,2 l 0,8.0000002 z"
       style="fill:#f44336"
       inkscape:connector-curvature="0" /><g
       id="g24"
       transform="translate(-6.0338983,1.0847458)"><rect
         id="rect26"
         height="8"
         width="2"
         y="8"
         x="23"
         style="fill:#ffffff" /><rect
         id="rect28"
         height="2"
         width="8"
         y="11"
         x="20"
         style="fill:#ffffff" /></g></g></svg>