<?xml version="1.0" encoding="UTF-8" standalone="no"?>
<svg
   xmlns:dc="http://purl.org/dc/elements/1.1/"
   xmlns:cc="http://creativecommons.org/ns#"
   xmlns:rdf="http://www.w3.org/1999/02/22-rdf-syntax-ns#"
   xmlns:svg="http://www.w3.org/2000/svg"
   xmlns="http://www.w3.org/2000/svg"
   xmlns:sodipodi="http://sodipodi.sourceforge.net/DTD/sodipodi-0.dtd"
   xmlns:inkscape="http://www.inkscape.org/namespaces/inkscape"
   version="1.1"
   id="Layer_1"
   x="0px"
   y="0px"
   viewBox="0 0 40 40"
   style="enable-background:new 0 0 40 40;"
   xml:space="preserve"
   inkscape:version="0.91 r13725"
   sodipodi:docname="catalogo-pedido.svg"><metadata
     id="metadata25"><rdf:RDF><cc:Work
         rdf:about=""><dc:format>image/svg+xml</dc:format><dc:type
           rdf:resource="http://purl.org/dc/dcmitype/StillImage" /><dc:title></dc:title></cc:Work></rdf:RDF></metadata><defs
     id="defs23" /><sodipodi:namedview
     pagecolor="#ffffff"
     bordercolor="#666666"
     borderopacity="1"
     objecttolerance="10"
     gridtolerance="10"
     guidetolerance="10"
     inkscape:pageopacity="0"
     inkscape:pageshadow="2"
     inkscape:window-width="1855"
     inkscape:window-height="1056"
     id="namedview21"
     showgrid="false"
     inkscape:zoom="11.8"
     inkscape:cx="-9.7562899"
     inkscape:cy="26.212857"
     inkscape:window-x="65"
     inkscape:window-y="24"
     inkscape:window-maximized="1"
     inkscape:current-layer="g3" /><g
     id="g3"><path
       style="fill:#f4ebff;fill-opacity:1"
       d="m 6.419513,37.361353 0,-35.0000004 28.5,0 c 0.275,0 0.5,0.224 0.5,0.4999999 l 0,34.0000005 c 0,0.276 -0.225,0.5 -0.5,0.5 l -28.5,0 z"
       id="path5"
       inkscape:connector-curvature="0" /><g
       id="g7"><path
         style="fill:#4788C7;"
         d="M35,3v34H7V3H35 M35,2H6v36h29c0.552,0,1-0.448,1-1V3C36,2.448,35.552,2,35,2L35,2z"
         id="path9" /></g></g><g
     id="g11"><path
       style="fill:#4788C7;"
       d="M9,38H5c-0.552,0-1-0.448-1-1V3c0-0.552,0.448-1,1-1h4V38z"
       id="path13" /></g><g
     id="g4177"
     transform="matrix(1.2372881,0,0,1,-59.327493,-4.4915254)"><rect
       id="rect15"
       height="10"
       width="15"
       style="fill:#ffffff"
       y="9.8644066"
       x="58.237289" /><path
       inkscape:connector-curvature="0"
       id="path17"
       d="m 70.737288,13.864407 -10,0 c -0.275,0 -0.5,-0.225 -0.5,-0.5 l 0,0 c 0,-0.275 0.225,-0.5 0.5,-0.5 l 10,0 c 0.275,0 0.5,0.225 0.5,0.5 l 0,0 c 0,0.275 -0.225,0.5 -0.5,0.5 z"
       style="fill:#4788c7" /><path
       inkscape:connector-curvature="0"
       id="path19"
       d="m 70.737288,16.864407 -10,0 c -0.275,0 -0.5,-0.225 -0.5,-0.5 l 0,0 c 0,-0.275 0.225,-0.5 0.5,-0.5 l 10,0 c 0.275,0 0.5,0.225 0.5,0.5 l 0,0 c 0,0.275 -0.225,0.5 -0.5,0.5 z"
       style="fill:#4788c7" /></g><g
     id="g4208"
     transform="matrix(0.40328818,0,0,0.40328818,32.17999,15.380946)"><path
       id="path4"
       style="clip-rule:evenodd;fill:#1565c0;fill-rule:nonzero"
       d="m -18.789591,40.597451 -25,0 0,-32.9999997 17,0 8,7.9999997 0,25 z"
       inkscape:connector-curvature="0" /><path
       id="path6"
       style="clip-rule:evenodd;fill:#e1f5fe;fill-rule:nonzero"
       d="m -20.289591,16.597451 -7.5,0 0,-7.4999997 7.5,7.4999997 z"
       inkscape:connector-curvature="0" /><path
       id="path8"
       style="clip-rule:evenodd;fill:#42a5f5;fill-rule:nonzero"
       d="m -14.789591,43.597451 -25,0 0,-33 17,0 8,8 0,25 z"
       inkscape:connector-curvature="0" /><path
       id="path10"
       style="clip-rule:evenodd;fill:#e1f5fe;fill-rule:nonzero"
       d="m -16.289591,19.597451 -7.5,0 0,-7.5 7.5,7.5 z"
       inkscape:connector-curvature="0" /><path
       id="path12"
       style="clip-rule:evenodd;fill:#90caf9;fill-rule:nonzero"
       d="m -10.789591,46.597451 -25,0 0,-33 17,0 8,8 0,25 z"
       inkscape:connector-curvature="0" /><path
       id="path14"
       style="clip-rule:evenodd;fill:#e1f5fe;fill-rule:nonzero"
       d="m -12.289591,22.597451 -7.5,0 0,-7.5 7.5,7.5 z"
       inkscape:connector-curvature="0" /><g
       id="g16"
       style="clip-rule:evenodd;fill-rule:evenodd"
       transform="translate(-49.677591,4.0284513)"><rect
         id="rect18"
         style="fill:#1976d2"
         height="2"
         width="15"
         y="22.569"
         x="18.888" /><rect
         id="rect20"
         style="fill:#1976d2"
         height="2"
         width="11"
         y="26.569"
         x="18.888" /><rect
         id="rect22"
         style="fill:#1976d2"
         height="2"
         width="15"
         y="30.569"
         x="18.888" /><rect
         id="rect24"
         style="fill:#1976d2"
         height="2"
         width="11"
         y="34.569"
         x="18.888" /></g><path
       id="path26"
       style="clip-rule:evenodd;fill:#e57373;fill-rule:nonzero"
       d="m -9.4625911,49.157451 1.702,-1.703 c 0.259,-0.259 0.259,-0.681 0,-0.94 l -0.802,-0.801 -2.6419999,2.642 0.802,0.802 c 0.259,0.259 0.6799999,0.259 0.9399999,0"
       inkscape:connector-curvature="0" /><path
       id="path28"
       style="clip-rule:evenodd;fill:#f4b404;fill-rule:evenodd"
       d="m -9.8825911,44.392451 -11.8749999,-11.875 -2.642,2.642 11.875,11.875 2.6419999,-2.642 z"
       inkscape:connector-curvature="0" /><path
       id="path30"
       style="clip-rule:evenodd;fill:#9d770c;fill-rule:nonzero;stroke:#dc7900;stroke-width:3.47146297px"
       d="m -23.079591,33.838451 12.093,12.093"
       inkscape:connector-curvature="0" /><path
       id="path32"
       style="clip-rule:evenodd;fill:#b0bec5;fill-rule:evenodd"
       d="m -12.525591,47.034451 1.321,1.321 2.6419999,-2.644 -1.322,-1.321 -2.6409999,2.644 z"
       inkscape:connector-curvature="0" /><path
       id="path34"
       style="clip-rule:evenodd;fill:#ffe598;fill-rule:nonzero"
       d="m -21.758591,32.516451 -3.531,-0.888 0.889,3.531 2.642,-2.643 z"
       inkscape:connector-curvature="0" /><path
       id="path36"
       style="clip-rule:evenodd;fill:#37474f;fill-rule:nonzero"
       d="m -23.523591,32.059451 -1.785,-0.45 0.45,1.785 1.335,-1.335 z"
       inkscape:connector-curvature="0" /></g></svg>