<?xml version="1.0" encoding="UTF-8" standalone="no"?>
<svg
   xmlns:dc="http://purl.org/dc/elements/1.1/"
   xmlns:cc="http://creativecommons.org/ns#"
   xmlns:rdf="http://www.w3.org/1999/02/22-rdf-syntax-ns#"
   xmlns:svg="http://www.w3.org/2000/svg"
   xmlns="http://www.w3.org/2000/svg"
   xmlns:sodipodi="http://sodipodi.sourceforge.net/DTD/sodipodi-0.dtd"
   xmlns:inkscape="http://www.inkscape.org/namespaces/inkscape"
   viewBox="0 0 48 48"
   version="1.1"
   id="svg21"
   sodipodi:docname="icono-transferencias.svg"
   inkscape:version="0.92.1 r15371">
  <metadata
     id="metadata27">
    <rdf:RDF>
      <cc:Work
         rdf:about="">
        <dc:format>image/svg+xml</dc:format>
        <dc:type
           rdf:resource="http://purl.org/dc/dcmitype/StillImage" />
      </cc:Work>
    </rdf:RDF>
  </metadata>
  <defs
     id="defs25" />
  <sodipodi:namedview
     pagecolor="#ffffff"
     bordercolor="#666666"
     borderopacity="1"
     objecttolerance="10"
     gridtolerance="10"
     guidetolerance="10"
     inkscape:pageopacity="0"
     inkscape:pageshadow="2"
     inkscape:window-width="1920"
     inkscape:window-height="1027"
     id="namedview23"
     showgrid="false"
     inkscape:zoom="4.9166667"
     inkscape:cx="24"
     inkscape:cy="24"
     inkscape:window-x="-8"
     inkscape:window-y="-8"
     inkscape:window-maximized="1"
     inkscape:current-layer="svg21" />
  <g
     id="surface1"
     transform="matrix(0.68104776,0,0,0.68104776,0.63790447,1.9137134)">
    <path
       style="fill:#e8eaf6"
       d="m 24,7.398438 -20,10.5 V 42 H 44 V 17.898438 Z"
       id="path2"
       inkscape:connector-curvature="0" />
    <path
       style="fill:#d32f2f"
       d="M 2,17 24,6 46,17 v 4 L 24,10 2,21 Z"
       id="path4"
       inkscape:connector-curvature="0" />
    <path
       style="fill:#c5cae9"
       d="M 44,42 H 4 V 37 H 44 Z M 24,12.199219 44,22.101563 V 20 L 24,10 4,20 v 2.199219 z"
       id="path6"
       inkscape:connector-curvature="0" />
    <path
       style="fill:#546e7a"
       d="m 9,24 h 30 v 2 H 9 Z"
       id="path8"
       inkscape:connector-curvature="0" />
    <path
       style="fill:#455a64"
       d="M 9,26 H 39 V 42 H 9 Z"
       id="path10"
       inkscape:connector-curvature="0" />
    <path
       style="fill:#90a4ae"
       d="m 9,26 h 30 v 2 H 9 Z"
       id="path12"
       inkscape:connector-curvature="0" />
    <path
       style="fill:#78909c"
       d="m 39,28 h -2 v -2 h 2 z M 11,26 H 9 v 2 h 2 z"
       id="path14"
       inkscape:connector-curvature="0" />
    <path
       style="fill:#01579b"
       d="m 21,17 h 6 v 4 h -6 z"
       id="path16"
       inkscape:connector-curvature="0" />
    <path
       style="fill:#263238"
       d="m 9,28 v 14 l 5,-5 h 20 l 5,5 V 28 Z"
       id="path18"
       inkscape:connector-curvature="0" />
  </g>
  <path
     inkscape:connector-curvature="0"
     style="fill:#ffc107;stroke-width:0.54963678"
     d="m 44.307506,39.414044 h -7.694915 v -12.09201 h 5.803614 c 0.472689,0 0.89316,0.30285 1.042662,0.751903 l 1.947913,5.843738 v 4.397095 c 0,0.607349 -0.491925,1.099274 -1.099274,1.099274"
     id="path2-9" />
  <path
     inkscape:connector-curvature="0"
     style="fill:#009688;stroke-width:0.54963678"
     d="M 36.612591,39.414044 H 23.421307 c -0.607348,0 -1.099273,-0.491925 -1.099273,-1.099274 V 24.573849 c 0,-0.607348 0.491925,-1.099273 1.099273,-1.099273 h 12.09201 c 0.607348,0 1.099274,0.491925 1.099274,1.099273 z"
     id="path4-5" />
  <g
     transform="matrix(0.54963681,0,0,0.54963681,20.673123,19.627118)"
     id="g10">
    <path
       style="fill:#5d4037"
       inkscape:connector-curvature="0"
       d="m 42,36 c 0,2.761 -2.238,5 -5,5 -2.762,0 -5,-2.239 -5,-5 0,-2.761 2.238,-5 5,-5 2.762,0 5,2.239 5,5"
       id="path6-5" />
    <path
       style="fill:#5d4037"
       inkscape:connector-curvature="0"
       d="m 18,36 c 0,2.761 -2.239,5 -5,5 -2.761,0 -5,-2.239 -5,-5 0,-2.761 2.239,-5 5,-5 2.761,0 5,2.239 5,5"
       id="path8-8" />
  </g>
  <g
     transform="matrix(0.54963681,0,0,0.54963681,20.673123,19.627118)"
     id="g16">
    <path
       style="fill:#bcaaa4"
       inkscape:connector-curvature="0"
       d="m 39,36 c 0,1.105 -0.895,2 -2,2 -1.105,0 -2,-0.895 -2,-2 0,-1.105 0.895,-2 2,-2 1.105,0 2,0.895 2,2"
       id="path12-1" />
    <path
       style="fill:#bcaaa4"
       inkscape:connector-curvature="0"
       d="m 15,36 c 0,1.105 -0.895,2 -2,2 -1.105,0 -2,-0.895 -2,-2 0,-1.105 0.895,-2 2,-2 1.105,0 2,0.895 2,2"
       id="path14-5" />
  </g>
  <path
     inkscape:connector-curvature="0"
     style="fill:#795548;stroke-width:0.54963678"
     d="m 43.208232,33.368039 h -3.847457 c -0.3034,0 -0.549637,-0.246237 -0.549637,-0.549637 v -3.847458 c 0,-0.303399 0.246237,-0.549637 0.549637,-0.549637 h 2.748184 c 0.237443,0 0.446855,0.15115 0.521605,0.375952 l 1.099274,3.297821 c 0.01814,0.05607 0.02803,0.114874 0.02803,0.173685 v 0.549637 c 0,0.3034 -0.246238,0.549637 -0.549638,0.549637"
     id="path18-3" />
  <rect
     style="fill:#4db6ac;stroke-width:0.54963678"
     x="22.322033"
     y="28.970945"
     width="14.290557"
     height="4.3970942"
     id="rect20" />
</svg>
