<?xml version="1.0" encoding="UTF-8" standalone="no"?>
<svg
   xmlns:dc="http://purl.org/dc/elements/1.1/"
   xmlns:cc="http://creativecommons.org/ns#"
   xmlns:rdf="http://www.w3.org/1999/02/22-rdf-syntax-ns#"
   xmlns:svg="http://www.w3.org/2000/svg"
   xmlns="http://www.w3.org/2000/svg"
   xmlns:sodipodi="http://sodipodi.sourceforge.net/DTD/sodipodi-0.dtd"
   xmlns:inkscape="http://www.inkscape.org/namespaces/inkscape"
   version="1.1"
   x="0px"
   y="0px"
   width="48px"
   height="48px"
   viewBox="0 0 48 48"
   enable-background="new 0 0 48 48"
   xml:space="preserve"
   id="svg2"
   inkscape:version="0.91 r13725"
   sodipodi:docname="icono-ajuste-mas.svg"><metadata
     id="metadata44"><rdf:RDF><cc:Work
         rdf:about=""><dc:format>image/svg+xml</dc:format><dc:type
           rdf:resource="http://purl.org/dc/dcmitype/StillImage" /><dc:title></dc:title></cc:Work></rdf:RDF></metadata><defs
     id="defs42" /><sodipodi:namedview
     pagecolor="#ffffff"
     bordercolor="#666666"
     borderopacity="1"
     objecttolerance="10"
     gridtolerance="10"
     guidetolerance="10"
     inkscape:pageopacity="0"
     inkscape:pageshadow="2"
     inkscape:window-width="1855"
     inkscape:window-height="1056"
     id="namedview40"
     showgrid="false"
     inkscape:zoom="9.8333333"
     inkscape:cx="7.8091645"
     inkscape:cy="58.063989"
     inkscape:window-x="1985"
     inkscape:window-y="24"
     inkscape:window-maximized="1"
     inkscape:current-layer="g4207" /><g
     id="g4198"
     transform="translate(-0.40677966,1.4237288)"><path
       id="path4"
       d="m 37.40678,35.016949 -26,0 c -1.105,0 -2,-0.895 -2,-2 l 0,-24.0000001 c 0,-1.105 0.895,-2 2,-2 l 26,0 c 1.105,0 2,0.895 2,2 l 0,24.0000001 c 0,1.105 -0.895,2 -2,2"
       style="fill:#ff9800"
       inkscape:connector-curvature="0" /><path
       id="path6"
       d="m 42.40678,17.016949 -36,0 c -2.209,0 -4,1.791 -4,4 l 0,18 c 0,2.209 1.791,4 4,4 l 36,0 c 2.209,0 4,-1.791 4,-4 l 0,-18 c 0,-2.209 -1.791,-4 -4,-4"
       style="fill:#ff1744"
       inkscape:connector-curvature="0" /><path
       id="path8"
       d="m 27.90678,13.016949 -7,0 c -0.828,0 -1.5,-0.672 -1.5,-1.5 0,-0.828 0.672,-1.5 1.5,-1.5 l 7,0 c 0.828,0 1.5,0.672 1.5,1.5 0,0.828 -0.672,1.5 -1.5,1.5"
       style="fill:#8a5100"
       inkscape:connector-curvature="0" /><path
       id="path10"
       d="m 42.40678,22.016949 c 0,-0.552 -0.448,-1 -1,-1 l -34,0 c -0.552,0 -1,0.448 -1,1 l 0,16 c 0,0.552 0.448,1 1,1 l 34,0 c 0.552,0 1,-0.448 1,-1 l 0,-16 z"
       style="fill:#ffcdd2"
       inkscape:connector-curvature="0" /><path
       id="path12"
       d="m 39.40678,33.016949 0,-12 -30,0 0,12 c 0,1.105 0.895,2 2,2 l 26,0 c 1.105,0 2,-0.895 2,-2 z"
       style="fill:#ef9a9a"
       inkscape:connector-curvature="0" /><g
       id="g14"
       transform="translate(0.40678002,1.0169489)"><g
         id="g16"><path
           id="path18"
           d="m 25,28 0,1 -1,0 0,-1 1,0 m 2,-2 -5,0 0,5 5,0 0,-5 0,0 z"
           inkscape:connector-curvature="0"
           style="fill:#37474f" /></g><rect
         id="rect20"
         height="4"
         width="2"
         y="21"
         x="28"
         style="fill:#37474f" /><rect
         id="rect22"
         height="2"
         width="2"
         y="23"
         x="32"
         style="fill:#37474f" /><rect
         id="rect24"
         height="4"
         width="2"
         y="25"
         x="34"
         style="fill:#37474f" /><rect
         id="rect26"
         height="4"
         width="2"
         y="27"
         x="29"
         style="fill:#37474f" /><rect
         id="rect28"
         height="2"
         width="2"
         y="25"
         x="30"
         style="fill:#37474f" /><rect
         id="rect30"
         height="2"
         width="3"
         y="28"
         x="33"
         style="fill:#37474f" /><rect
         id="rect32"
         height="2"
         width="7"
         y="23"
         x="23"
         style="fill:#37474f" /><g
         id="g34"><polygon
           id="polygon36"
           points="24,20 22,20 22,22 27,22 27,20 25,20 "
           style="fill:#37474f" /><polygon
           id="polygon38"
           points="33,20 31,20 31,22 36,22 36,20 34,20 "
           style="fill:#37474f" /></g></g></g><g
     id="g4207"
     transform="matrix(0.07346343,-0.85675491,0.85675491,0.07346343,30.962792,98.501795)"
     style="opacity:1"><g
       transform="matrix(0.04787178,0.55829662,-0.55829662,0.04787178,114.51342,-16.012941)"
       id="surface1"><path
         inkscape:connector-curvature="0"
         style="fill:#4caf50"
         d="M 45,24 C 45,35.597656 35.597656,45 24,45 12.402344,45 3,35.597656 3,24 3,12.402344 12.402344,3 24,3 35.597656,3 45,12.402344 45,24 Z"
         id="path5" /><path
         inkscape:connector-curvature="0"
         style="fill:#ffffff"
         d="m 21,14 6,0 0,20 -6,0 z"
         id="path7" /><path
         inkscape:connector-curvature="0"
         style="fill:#ffffff"
         d="m 14,21 20,0 0,6 -20,0 z"
         id="path9" /></g></g></svg>