<?xml version="1.0" encoding="UTF-8" standalone="no"?>
<svg
   xmlns:dc="http://purl.org/dc/elements/1.1/"
   xmlns:cc="http://creativecommons.org/ns#"
   xmlns:rdf="http://www.w3.org/1999/02/22-rdf-syntax-ns#"
   xmlns:svg="http://www.w3.org/2000/svg"
   xmlns="http://www.w3.org/2000/svg"
   xmlns:sodipodi="http://sodipodi.sourceforge.net/DTD/sodipodi-0.dtd"
   xmlns:inkscape="http://www.inkscape.org/namespaces/inkscape"
   width="100%"
   height="100%"
   viewBox="0 0 48 48"
   version="1.1"
   xml:space="preserve"
   style="fill-rule:evenodd;clip-rule:evenodd;stroke-linejoin:round;stroke-miterlimit:1.41421;"
   id="svg2"
   inkscape:version="0.91 r13725"
   sodipodi:docname="icono-salidas-laboratorio.svg"><metadata
     id="metadata24"><rdf:RDF><cc:Work
         rdf:about=""><dc:format>image/svg+xml</dc:format><dc:type
           rdf:resource="http://purl.org/dc/dcmitype/StillImage" /></cc:Work></rdf:RDF></metadata><defs
     id="defs22" /><sodipodi:namedview
     pagecolor="#ffffff"
     bordercolor="#666666"
     borderopacity="1"
     objecttolerance="10"
     gridtolerance="10"
     guidetolerance="10"
     inkscape:pageopacity="0"
     inkscape:pageshadow="2"
     inkscape:window-width="1855"
     inkscape:window-height="1056"
     id="namedview20"
     showgrid="false"
     inkscape:zoom="4.9166667"
     inkscape:cx="-10.983051"
     inkscape:cy="24"
     inkscape:window-x="1985"
     inkscape:window-y="24"
     inkscape:window-maximized="1"
     inkscape:current-layer="svg2" /><g
     id="g4"><rect
       x="10"
       y="9"
       width="28"
       height="7"
       style="fill:#d17a00;"
       id="rect6" /><g
       id="g8"><path
         d="M10,23l-4,0l0,-8l4,-6l0,14Z"
         style="fill:#8a5100;fill-rule:nonzero;"
         id="path10" /><path
         d="M38,23l4,0l0,-8l-4,-6l0,14Z"
         style="fill:#8a5100;fill-rule:nonzero;"
         id="path12" /></g><path
       d="M40,43l-32,0c-1.1,0 -2,-0.9 -2,-2l0,-26l36,0l0,26c0,1.1 -0.9,2 -2,2Z"
       style="fill:#ff9800;fill-rule:nonzero;"
       id="path14" /><path
       d="M27.5,22l-7,0c-0.8,0 -1.5,-0.7 -1.5,-1.5c0,-0.8 0.7,-1.5 1.5,-1.5l7,0c0.8,0 1.5,0.7 1.5,1.5c0,0.8 -0.7,1.5 -1.5,1.5Z"
       style="fill:#8a5100;fill-rule:nonzero;"
       id="path16" /></g><path
     d="M22,11.5l-4,0l6,-7l6,7l-4,0l0,3.5l-4,0l0,-3.5Z"
     style="fill:#dd2c00;"
     id="path18" /><g
     transform="matrix(0.85714286,0,0,0.85714286,13.324455,22.230251)"
     id="surface1"><path
       inkscape:connector-curvature="0"
       d="M 11.25,2.0625 7.96875,3.5 8.875,5.625 C 6.527344,7.28125 5,9.976563 5,13 c 0,2.820313 1.324219,5.347656 3.375,7 L 7,20 l 0,2 12,0 0,-2 -4,0 3.6875,-1.59375 -0.78125,-1.8125 -6.625,2.84375 C 10.820313,19.242188 10.402344,19.003906 10,18.71875 c 0.511719,-0.296875 0.875,-0.800781 0.96875,-1.40625 l 6.125,-2.6875 -0.8125,-1.84375 -6.03125,2.6875 C 9.90625,15.1875 9.480469,15 9,15 8.414063,15 7.898438,15.257813 7.53125,15.65625 7.191406,14.835938 7,13.941406 7,13 7,10.789063 8.042969,8.804688 9.6875,7.5 L 10.75,9.9375 14.0625,8.5 Z m 3.25,7.34375 -3.3125,1.5 1.3125,1.1875 2,-0.90625 z"
       id="path5" /></g></svg>