<?xml version="1.0" encoding="UTF-8" standalone="no"?>
<!DOCTYPE svg PUBLIC "-//W3C//DTD SVG 1.1//EN"
 "http://www.w3.org/Graphics/SVG/1.1/DTD/svg11.dtd">
<!-- Generated by graphviz version 2.40.1 (20161225.0304)
 -->
<!-- Title: dependencies Pages: 1 -->
<svg width="1445pt" height="211pt"
 viewBox="0.00 0.00 1445.00 211.00" xmlns="http://www.w3.org/2000/svg" xmlns:xlink="http://www.w3.org/1999/xlink">
<g id="graph0" class="graph" transform="scale(1 1) rotate(0) translate(4 207)">
<title>dependencies</title>
<polygon fill="#ffffff" stroke="transparent" points="-4,4 -4,-207 1441,-207 1441,4 -4,4"/>
<text text-anchor="start" x="697.5091" y="-42.4" font-family="sans-serif" font-weight="bold" font-size="14.00" fill="#000000">Legend</text>
<polygon fill="#ffffb3" stroke="transparent" points="484.5,-10 484.5,-30 504.5,-30 504.5,-10 484.5,-10"/>
<text text-anchor="start" x="508.129" y="-15.4" font-family="sans-serif" font-size="14.00" fill="#000000"> &#160;Declarations</text>
<polygon fill="#8dd3c7" stroke="transparent" points="597.5,-10 597.5,-30 617.5,-30 617.5,-10 597.5,-10"/>
<text text-anchor="start" x="621.2251" y="-15.4" font-family="sans-serif" font-size="14.00" fill="#000000"> &#160;Module</text>
<polygon fill="#80b1d3" stroke="transparent" points="683.5,-10 683.5,-30 703.5,-30 703.5,-10 683.5,-10"/>
<text text-anchor="start" x="707.2812" y="-15.4" font-family="sans-serif" font-size="14.00" fill="#000000"> &#160;Bootstrap</text>
<polygon fill="#fdb462" stroke="transparent" points="780.5,-10 780.5,-30 800.5,-30 800.5,-10 780.5,-10"/>
<text text-anchor="start" x="804.1732" y="-15.4" font-family="sans-serif" font-size="14.00" fill="#000000"> &#160;Providers</text>
<polygon fill="#fb8072" stroke="transparent" points="876.5,-10 876.5,-30 896.5,-30 896.5,-10 876.5,-10"/>
<text text-anchor="start" x="900.2258" y="-15.4" font-family="sans-serif" font-size="14.00" fill="#000000"> &#160;Exports</text>
<g id="clust1" class="cluster">
<title>cluster_UsuariosModule</title>
<polygon fill="none" stroke="#000000" stroke-dasharray="1,5" points="8,-70 8,-195 1429,-195 1429,-70 8,-70"/>
</g>
<g id="clust2" class="cluster">
<title>cluster_UsuariosModule_declarations</title>
<polygon fill="none" stroke="#000000" points="895,-78 895,-130 1421,-130 1421,-78 895,-78"/>
</g>
<g id="clust7" class="cluster">
<title>cluster_UsuariosModule_imports</title>
<polygon fill="none" stroke="#000000" points="467,-78 467,-130 887,-130 887,-78 467,-78"/>
</g>
<g id="clust10" class="cluster">
<title>cluster_UsuariosModule_providers</title>
<polygon fill="none" stroke="#000000" points="16,-78 16,-130 459,-130 459,-78 16,-78"/>
</g>
<!-- ListaComponent -->
<g id="node1" class="node">
<title>ListaComponent</title>
<polygon fill="#ffffb3" stroke="#000000" points="1412.8259,-122 1303.1741,-122 1303.1741,-86 1412.8259,-86 1412.8259,-122"/>
<text text-anchor="middle" x="1358" y="-99.8" font-family="Times,serif" font-size="14.00" fill="#000000">ListaComponent</text>
</g>
<!-- UsuariosModule -->
<g id="node5" class="node">
<title>UsuariosModule</title>
<polygon fill="#8dd3c7" stroke="#000000" points="816.8118,-187 813.8118,-191 792.8118,-191 789.8118,-187 707.1882,-187 707.1882,-151 816.8118,-151 816.8118,-187"/>
<text text-anchor="middle" x="762" y="-164.8" font-family="Times,serif" font-size="14.00" fill="#000000">UsuariosModule</text>
</g>
<!-- ListaComponent&#45;&gt;UsuariosModule -->
<g id="edge1" class="edge">
<title>ListaComponent&#45;&gt;UsuariosModule</title>
<path fill="none" stroke="#000000" d="M1358,-122.0109C1358,-144.4852 1358,-180 1358,-180 1358,-180 826.7362,-180 826.7362,-180"/>
<polygon fill="#000000" stroke="#000000" points="826.7362,-176.5001 816.7362,-180 826.7362,-183.5001 826.7362,-176.5001"/>
</g>
<!-- NuevoComponent -->
<g id="node2" class="node">
<title>NuevoComponent</title>
<polygon fill="#ffffb3" stroke="#000000" points="1285.1541,-122 1166.8459,-122 1166.8459,-86 1285.1541,-86 1285.1541,-122"/>
<text text-anchor="middle" x="1226" y="-99.8" font-family="Times,serif" font-size="14.00" fill="#000000">NuevoComponent</text>
</g>
<!-- NuevoComponent&#45;&gt;UsuariosModule -->
<g id="edge2" class="edge">
<title>NuevoComponent&#45;&gt;UsuariosModule</title>
<path fill="none" stroke="#000000" d="M1226,-122.1289C1226,-142.5724 1226,-173 1226,-173 1226,-173 827.049,-173 827.049,-173"/>
<polygon fill="#000000" stroke="#000000" points="827.049,-169.5001 817.049,-173 827.049,-176.5001 827.049,-169.5001"/>
</g>
<!-- EditarComponent -->
<g id="node3" class="node">
<title>EditarComponent</title>
<polygon fill="#ffffb3" stroke="#000000" points="1148.5423,-122 1033.4577,-122 1033.4577,-86 1148.5423,-86 1148.5423,-122"/>
<text text-anchor="middle" x="1091" y="-99.8" font-family="Times,serif" font-size="14.00" fill="#000000">EditarComponent</text>
</g>
<!-- EditarComponent&#45;&gt;UsuariosModule -->
<g id="edge3" class="edge">
<title>EditarComponent&#45;&gt;UsuariosModule</title>
<path fill="none" stroke="#000000" d="M1091,-122.2667C1091,-140.5552 1091,-166 1091,-166 1091,-166 826.697,-166 826.697,-166"/>
<polygon fill="#000000" stroke="#000000" points="826.697,-162.5001 816.697,-166 826.6969,-169.5001 826.697,-162.5001"/>
</g>
<!-- FormComponent -->
<g id="node4" class="node">
<title>FormComponent</title>
<polygon fill="#ffffb3" stroke="#000000" points="1014.6667,-122 903.3333,-122 903.3333,-86 1014.6667,-86 1014.6667,-122"/>
<text text-anchor="middle" x="959" y="-99.8" font-family="Times,serif" font-size="14.00" fill="#000000">FormComponent</text>
</g>
<!-- FormComponent&#45;&gt;UsuariosModule -->
<g id="edge4" class="edge">
<title>FormComponent&#45;&gt;UsuariosModule</title>
<path fill="none" stroke="#000000" d="M959,-122.0091C959,-138.0494 959,-159 959,-159 959,-159 826.8755,-159 826.8755,-159"/>
<polygon fill="#000000" stroke="#000000" points="826.8755,-155.5001 816.8755,-159 826.8754,-162.5001 826.8755,-155.5001"/>
</g>
<!-- MenuModule -->
<g id="node6" class="node">
<title>MenuModule</title>
<polygon fill="#8dd3c7" stroke="#000000" points="879.2092,-122 876.2092,-126 855.2092,-126 852.2092,-122 786.7908,-122 786.7908,-86 879.2092,-86 879.2092,-122"/>
<text text-anchor="middle" x="833" y="-99.8" font-family="Times,serif" font-size="14.00" fill="#000000">MenuModule</text>
</g>
<!-- MenuModule&#45;&gt;UsuariosModule -->
<g id="edge5" class="edge">
<title>MenuModule&#45;&gt;UsuariosModule</title>
<path fill="none" stroke="#000000" d="M801.7756,-122.1061C801.7756,-122.1061 801.7756,-140.991 801.7756,-140.991"/>
<polygon fill="#000000" stroke="#000000" points="798.2757,-140.9909 801.7756,-150.991 805.2757,-140.991 798.2757,-140.9909"/>
</g>
<!-- UsuariosRoutingModule -->
<g id="node7" class="node">
<title>UsuariosRoutingModule</title>
<polygon fill="#8dd3c7" stroke="#000000" points="769.4298,-122 766.4298,-126 745.4298,-126 742.4298,-122 614.5702,-122 614.5702,-86 769.4298,-86 769.4298,-122"/>
<text text-anchor="middle" x="692" y="-99.8" font-family="Times,serif" font-size="14.00" fill="#000000">UsuariosRoutingModule</text>
</g>
<!-- UsuariosRoutingModule&#45;&gt;UsuariosModule -->
<g id="edge6" class="edge">
<title>UsuariosRoutingModule&#45;&gt;UsuariosModule</title>
<path fill="none" stroke="#000000" d="M738.2795,-122.1061C738.2795,-122.1061 738.2795,-140.991 738.2795,-140.991"/>
<polygon fill="#000000" stroke="#000000" points="734.7795,-140.9909 738.2795,-150.991 741.7795,-140.991 734.7795,-140.9909"/>
</g>
<!-- PaginacionModule -->
<g id="node8" class="node">
<title>PaginacionModule</title>
<polygon fill="#8dd3c7" stroke="#000000" points="596.7576,-122 593.7576,-126 572.7576,-126 569.7576,-122 475.2424,-122 475.2424,-86 596.7576,-86 596.7576,-122"/>
<text text-anchor="middle" x="536" y="-99.8" font-family="Times,serif" font-size="14.00" fill="#000000">PaginacionModule</text>
</g>
<!-- PaginacionModule&#45;&gt;UsuariosModule -->
<g id="edge7" class="edge">
<title>PaginacionModule&#45;&gt;UsuariosModule</title>
<path fill="none" stroke="#000000" d="M536,-122.0091C536,-138.0494 536,-159 536,-159 536,-159 697.2917,-159 697.2917,-159"/>
<polygon fill="#000000" stroke="#000000" points="697.2917,-162.5001 707.2917,-159 697.2917,-155.5001 697.2917,-162.5001"/>
</g>
<!-- AuthService -->
<g id="node9" class="node">
<title>AuthService</title>
<ellipse fill="#fdb462" stroke="#000000" cx="392" cy="-104" rx="59.1083" ry="18"/>
<text text-anchor="middle" x="392" y="-99.8" font-family="Times,serif" font-size="14.00" fill="#000000">AuthService</text>
</g>
<!-- AuthService&#45;&gt;UsuariosModule -->
<g id="edge8" class="edge">
<title>AuthService&#45;&gt;UsuariosModule</title>
<path fill="none" stroke="#000000" d="M392,-122.2667C392,-140.5552 392,-166 392,-166 392,-166 697.0068,-166 697.0068,-166"/>
<polygon fill="#000000" stroke="#000000" points="697.0068,-169.5001 707.0068,-166 697.0068,-162.5001 697.0068,-169.5001"/>
</g>
<!-- UsuariosService -->
<g id="node10" class="node">
<title>UsuariosService</title>
<ellipse fill="#fdb462" stroke="#000000" cx="240" cy="-104" rx="74.1335" ry="18"/>
<text text-anchor="middle" x="240" y="-99.8" font-family="Times,serif" font-size="14.00" fill="#000000">UsuariosService</text>
</g>
<!-- UsuariosService&#45;&gt;UsuariosModule -->
<g id="edge9" class="edge">
<title>UsuariosService&#45;&gt;UsuariosModule</title>
<path fill="none" stroke="#000000" d="M240,-122.1289C240,-142.5724 240,-173 240,-173 240,-173 697.1235,-173 697.1235,-173"/>
<polygon fill="#000000" stroke="#000000" points="697.1235,-176.5001 707.1235,-173 697.1234,-169.5001 697.1235,-176.5001"/>
</g>
<!-- RolesService -->
<g id="node11" class="node">
<title>RolesService</title>
<ellipse fill="#fdb462" stroke="#000000" cx="86" cy="-104" rx="61.9731" ry="18"/>
<text text-anchor="middle" x="86" y="-99.8" font-family="Times,serif" font-size="14.00" fill="#000000">RolesService</text>
</g>
<!-- RolesService&#45;&gt;UsuariosModule -->
<g id="edge10" class="edge">
<title>RolesService&#45;&gt;UsuariosModule</title>
<path fill="none" stroke="#000000" d="M86,-122.0109C86,-144.4852 86,-180 86,-180 86,-180 697.2527,-180 697.2527,-180"/>
<polygon fill="#000000" stroke="#000000" points="697.2527,-183.5001 707.2527,-180 697.2527,-176.5001 697.2527,-183.5001"/>
</g>
</g>
</svg>
