<?xml version="1.0" encoding="UTF-8" standalone="no"?>
<!DOCTYPE svg PUBLIC "-//W3C//DTD SVG 1.1//EN"
 "http://www.w3.org/Graphics/SVG/1.1/DTD/svg11.dtd">
<!-- Generated by graphviz version 2.40.1 (20161225.0304)
 -->
<!-- Title: dependencies Pages: 1 -->
<svg width="1044pt" height="284pt"
 viewBox="0.00 0.00 1044.00 284.00" xmlns="http://www.w3.org/2000/svg" xmlns:xlink="http://www.w3.org/1999/xlink">
<g id="graph0" class="graph" transform="scale(1 1) rotate(0) translate(4 280)">
<title>dependencies</title>
<polygon fill="#ffffff" stroke="transparent" points="-4,4 -4,-280 1040,-280 1040,4 -4,4"/>
<text text-anchor="start" x="497.0091" y="-42.4" font-family="sans-serif" font-weight="bold" font-size="14.00" fill="#000000">Legend</text>
<polygon fill="#ffffb3" stroke="transparent" points="284,-10 284,-30 304,-30 304,-10 284,-10"/>
<text text-anchor="start" x="307.629" y="-15.4" font-family="sans-serif" font-size="14.00" fill="#000000"> &#160;Declarations</text>
<polygon fill="#8dd3c7" stroke="transparent" points="397,-10 397,-30 417,-30 417,-10 397,-10"/>
<text text-anchor="start" x="420.7251" y="-15.4" font-family="sans-serif" font-size="14.00" fill="#000000"> &#160;Module</text>
<polygon fill="#80b1d3" stroke="transparent" points="483,-10 483,-30 503,-30 503,-10 483,-10"/>
<text text-anchor="start" x="506.7812" y="-15.4" font-family="sans-serif" font-size="14.00" fill="#000000"> &#160;Bootstrap</text>
<polygon fill="#fdb462" stroke="transparent" points="580,-10 580,-30 600,-30 600,-10 580,-10"/>
<text text-anchor="start" x="603.6732" y="-15.4" font-family="sans-serif" font-size="14.00" fill="#000000"> &#160;Providers</text>
<polygon fill="#fb8072" stroke="transparent" points="676,-10 676,-30 696,-30 696,-10 676,-10"/>
<text text-anchor="start" x="699.7258" y="-15.4" font-family="sans-serif" font-size="14.00" fill="#000000"> &#160;Exports</text>
<g id="clust1" class="cluster">
<title>cluster_IndexLaboratorioModule</title>
<polygon fill="none" stroke="#000000" stroke-dasharray="1,5" points="8,-70 8,-268 1028,-268 1028,-70 8,-70"/>
</g>
<g id="clust2" class="cluster">
<title>cluster_IndexLaboratorioModule_declarations</title>
<polygon fill="none" stroke="#000000" points="626,-78 626,-130 1020,-130 1020,-78 626,-78"/>
</g>
<g id="clust5" class="cluster">
<title>cluster_IndexLaboratorioModule_imports</title>
<polygon fill="none" stroke="#000000" points="16,-78 16,-130 618,-130 618,-78 16,-78"/>
</g>
<g id="clust6" class="cluster">
<title>cluster_IndexLaboratorioModule_exports</title>
<polygon fill="none" stroke="#000000" points="328,-208 328,-260 528,-260 528,-208 328,-208"/>
</g>
<!-- IndexLaboratorioComponent -->
<g id="node1" class="node">
<title>IndexLaboratorioComponent</title>
<polygon fill="#ffffb3" stroke="#000000" points="1011.792,-122 832.208,-122 832.208,-86 1011.792,-86 1011.792,-122"/>
<text text-anchor="middle" x="922" y="-99.8" font-family="Times,serif" font-size="14.00" fill="#000000">IndexLaboratorioComponent</text>
</g>
<!-- IndexLaboratorioModule -->
<g id="node3" class="node">
<title>IndexLaboratorioModule</title>
<polygon fill="#8dd3c7" stroke="#000000" points="506.51,-187 503.51,-191 482.51,-191 479.51,-187 349.49,-187 349.49,-151 506.51,-151 506.51,-187"/>
<text text-anchor="middle" x="428" y="-164.8" font-family="Times,serif" font-size="14.00" fill="#000000">IndexLaboratorioModule</text>
</g>
<!-- IndexLaboratorioComponent&#45;&gt;IndexLaboratorioModule -->
<g id="edge1" class="edge">
<title>IndexLaboratorioComponent&#45;&gt;IndexLaboratorioModule</title>
<path fill="none" stroke="#000000" d="M922,-122.2843C922,-143.3211 922,-175 922,-175 922,-175 516.5487,-175 516.5487,-175"/>
<polygon fill="#000000" stroke="#000000" points="516.5487,-171.5001 506.5487,-175 516.5487,-178.5001 516.5487,-171.5001"/>
</g>
<!-- MenuLaboratorioComponent -->
<g id="node2" class="node">
<title>MenuLaboratorioComponent</title>
<polygon fill="#ffffb3" stroke="#000000" points="814.0758,-122 633.9242,-122 633.9242,-86 814.0758,-86 814.0758,-122"/>
<text text-anchor="middle" x="724" y="-99.8" font-family="Times,serif" font-size="14.00" fill="#000000">MenuLaboratorioComponent</text>
</g>
<!-- MenuLaboratorioComponent&#45;&gt;IndexLaboratorioModule -->
<g id="edge2" class="edge">
<title>MenuLaboratorioComponent&#45;&gt;IndexLaboratorioModule</title>
<path fill="none" stroke="#000000" d="M724,-122.0225C724,-139.3734 724,-163 724,-163 724,-163 516.5454,-163 516.5454,-163"/>
<polygon fill="#000000" stroke="#000000" points="516.5455,-159.5001 506.5454,-163 516.5454,-166.5001 516.5455,-159.5001"/>
</g>
<!-- MenuLaboratorioComponent  -->
<g id="node8" class="node">
<title>MenuLaboratorioComponent </title>
<polygon fill="#fb8072" stroke="#000000" points="519.5763,-252 336.4237,-252 336.4237,-216 519.5763,-216 519.5763,-252"/>
<text text-anchor="middle" x="428" y="-229.8" font-family="Times,serif" font-size="14.00" fill="#000000">MenuLaboratorioComponent </text>
</g>
<!-- IndexLaboratorioModule&#45;&gt;MenuLaboratorioComponent  -->
<g id="edge7" class="edge">
<title>IndexLaboratorioModule&#45;&gt;MenuLaboratorioComponent </title>
<path fill="none" stroke="#000000" stroke-dasharray="5,2" d="M428,-187.1061C428,-187.1061 428,-205.991 428,-205.991"/>
<polygon fill="#000000" stroke="#000000" points="424.5001,-205.9909 428,-215.991 431.5001,-205.991 424.5001,-205.9909"/>
</g>
<!-- IndexLaboratorioRoutingModule -->
<g id="node4" class="node">
<title>IndexLaboratorioRoutingModule</title>
<polygon fill="#8dd3c7" stroke="#000000" points="610.1273,-122 607.1273,-126 586.1273,-126 583.1273,-122 407.8727,-122 407.8727,-86 610.1273,-86 610.1273,-122"/>
<text text-anchor="middle" x="509" y="-99.8" font-family="Times,serif" font-size="14.00" fill="#000000">IndexLaboratorioRoutingModule</text>
</g>
<!-- IndexLaboratorioRoutingModule&#45;&gt;IndexLaboratorioModule -->
<g id="edge3" class="edge">
<title>IndexLaboratorioRoutingModule&#45;&gt;IndexLaboratorioModule</title>
<path fill="none" stroke="#000000" d="M457.2206,-122.1061C457.2206,-122.1061 457.2206,-140.991 457.2206,-140.991"/>
<polygon fill="#000000" stroke="#000000" points="453.7206,-140.9909 457.2206,-150.991 460.7206,-140.991 453.7206,-140.9909"/>
</g>
<!-- HubModule -->
<g id="node5" class="node">
<title>HubModule</title>
<polygon fill="#8dd3c7" stroke="#000000" points="389.6571,-122 386.6571,-126 365.6571,-126 362.6571,-122 306.3429,-122 306.3429,-86 389.6571,-86 389.6571,-122"/>
<text text-anchor="middle" x="348" y="-99.8" font-family="Times,serif" font-size="14.00" fill="#000000">HubModule</text>
</g>
<!-- HubModule&#45;&gt;IndexLaboratorioModule -->
<g id="edge4" class="edge">
<title>HubModule&#45;&gt;IndexLaboratorioModule</title>
<path fill="none" stroke="#000000" d="M369.5368,-122.1061C369.5368,-122.1061 369.5368,-140.991 369.5368,-140.991"/>
<polygon fill="#000000" stroke="#000000" points="366.0369,-140.9909 369.5368,-150.991 373.0369,-140.991 366.0369,-140.9909"/>
</g>
<!-- PerfilModule -->
<g id="node6" class="node">
<title>PerfilModule</title>
<polygon fill="#8dd3c7" stroke="#000000" points="288.1501,-122 285.1501,-126 264.1501,-126 261.1501,-122 197.8499,-122 197.8499,-86 288.1501,-86 288.1501,-122"/>
<text text-anchor="middle" x="243" y="-99.8" font-family="Times,serif" font-size="14.00" fill="#000000">PerfilModule</text>
</g>
<!-- PerfilModule&#45;&gt;IndexLaboratorioModule -->
<g id="edge5" class="edge">
<title>PerfilModule&#45;&gt;IndexLaboratorioModule</title>
<path fill="none" stroke="#000000" d="M243,-122.0225C243,-139.3734 243,-163 243,-163 243,-163 339.2751,-163 339.2751,-163"/>
<polygon fill="#000000" stroke="#000000" points="339.2751,-166.5001 349.2751,-163 339.2751,-159.5001 339.2751,-166.5001"/>
</g>
<!-- BloquearPantallaModule -->
<g id="node7" class="node">
<title>BloquearPantallaModule</title>
<polygon fill="#8dd3c7" stroke="#000000" points="179.965,-122 176.965,-126 155.965,-126 152.965,-122 24.035,-122 24.035,-86 179.965,-86 179.965,-122"/>
<text text-anchor="middle" x="102" y="-99.8" font-family="Times,serif" font-size="14.00" fill="#000000">BloquearPantallaModule</text>
</g>
<!-- BloquearPantallaModule&#45;&gt;IndexLaboratorioModule -->
<g id="edge6" class="edge">
<title>BloquearPantallaModule&#45;&gt;IndexLaboratorioModule</title>
<path fill="none" stroke="#000000" d="M102,-122.2843C102,-143.3211 102,-175 102,-175 102,-175 339.0845,-175 339.0845,-175"/>
<polygon fill="#000000" stroke="#000000" points="339.0845,-178.5001 349.0845,-175 339.0845,-171.5001 339.0845,-178.5001"/>
</g>
</g>
</svg>
