<?xml version="1.0" encoding="UTF-8" standalone="no"?>
<!DOCTYPE svg PUBLIC "-//W3C//DTD SVG 1.1//EN"
 "http://www.w3.org/Graphics/SVG/1.1/DTD/svg11.dtd">
<!-- Generated by graphviz version 2.40.1 (20161225.0304)
 -->
<!-- Title: dependencies Pages: 1 -->
<svg width="1387pt" height="211pt"
 viewBox="0.00 0.00 1387.00 211.00" xmlns="http://www.w3.org/2000/svg" xmlns:xlink="http://www.w3.org/1999/xlink">
<g id="graph0" class="graph" transform="scale(1 1) rotate(0) translate(4 207)">
<title>dependencies</title>
<polygon fill="#ffffff" stroke="transparent" points="-4,4 -4,-207 1383,-207 1383,4 -4,4"/>
<text text-anchor="start" x="668.5091" y="-42.4" font-family="sans-serif" font-weight="bold" font-size="14.00" fill="#000000">Legend</text>
<polygon fill="#ffffb3" stroke="transparent" points="455.5,-10 455.5,-30 475.5,-30 475.5,-10 455.5,-10"/>
<text text-anchor="start" x="479.129" y="-15.4" font-family="sans-serif" font-size="14.00" fill="#000000"> &#160;Declarations</text>
<polygon fill="#8dd3c7" stroke="transparent" points="568.5,-10 568.5,-30 588.5,-30 588.5,-10 568.5,-10"/>
<text text-anchor="start" x="592.2251" y="-15.4" font-family="sans-serif" font-size="14.00" fill="#000000"> &#160;Module</text>
<polygon fill="#80b1d3" stroke="transparent" points="654.5,-10 654.5,-30 674.5,-30 674.5,-10 654.5,-10"/>
<text text-anchor="start" x="678.2812" y="-15.4" font-family="sans-serif" font-size="14.00" fill="#000000"> &#160;Bootstrap</text>
<polygon fill="#fdb462" stroke="transparent" points="751.5,-10 751.5,-30 771.5,-30 771.5,-10 751.5,-10"/>
<text text-anchor="start" x="775.1732" y="-15.4" font-family="sans-serif" font-size="14.00" fill="#000000"> &#160;Providers</text>
<polygon fill="#fb8072" stroke="transparent" points="847.5,-10 847.5,-30 867.5,-30 867.5,-10 847.5,-10"/>
<text text-anchor="start" x="871.2258" y="-15.4" font-family="sans-serif" font-size="14.00" fill="#000000"> &#160;Exports</text>
<g id="clust1" class="cluster">
<title>cluster_AsignacionProveedoresPedidosAlternosModule</title>
<polygon fill="none" stroke="#000000" stroke-dasharray="1,5" points="8,-70 8,-195 1371,-195 1371,-70 8,-70"/>
</g>
<g id="clust2" class="cluster">
<title>cluster_AsignacionProveedoresPedidosAlternosModule_declarations</title>
<polygon fill="none" stroke="#000000" points="1094,-78 1094,-130 1363,-130 1363,-78 1094,-78"/>
</g>
<g id="clust5" class="cluster">
<title>cluster_AsignacionProveedoresPedidosAlternosModule_imports</title>
<polygon fill="none" stroke="#000000" points="16,-78 16,-130 1086,-130 1086,-78 16,-78"/>
</g>
<!-- ListaComponent -->
<g id="node1" class="node">
<title>ListaComponent</title>
<polygon fill="#ffffb3" stroke="#000000" points="1354.8259,-122 1245.1741,-122 1245.1741,-86 1354.8259,-86 1354.8259,-122"/>
<text text-anchor="middle" x="1300" y="-99.8" font-family="Times,serif" font-size="14.00" fill="#000000">ListaComponent</text>
</g>
<!-- AsignacionProveedoresPedidosAlternosModule -->
<g id="node3" class="node">
<title>AsignacionProveedoresPedidosAlternosModule</title>
<polygon fill="#8dd3c7" stroke="#000000" points="1002.5436,-187 999.5436,-191 978.5436,-191 975.5436,-187 717.4564,-187 717.4564,-151 1002.5436,-151 1002.5436,-187"/>
<text text-anchor="middle" x="860" y="-164.8" font-family="Times,serif" font-size="14.00" fill="#000000">AsignacionProveedoresPedidosAlternosModule</text>
</g>
<!-- ListaComponent&#45;&gt;AsignacionProveedoresPedidosAlternosModule -->
<g id="edge1" class="edge">
<title>ListaComponent&#45;&gt;AsignacionProveedoresPedidosAlternosModule</title>
<path fill="none" stroke="#000000" d="M1300,-122.2843C1300,-143.3211 1300,-175 1300,-175 1300,-175 1012.5515,-175 1012.5515,-175"/>
<polygon fill="#000000" stroke="#000000" points="1012.5515,-171.5001 1002.5515,-175 1012.5515,-178.5001 1012.5515,-171.5001"/>
</g>
<!-- AsignarComponent -->
<g id="node2" class="node">
<title>AsignarComponent</title>
<polygon fill="#ffffb3" stroke="#000000" points="1227.6499,-122 1102.3501,-122 1102.3501,-86 1227.6499,-86 1227.6499,-122"/>
<text text-anchor="middle" x="1165" y="-99.8" font-family="Times,serif" font-size="14.00" fill="#000000">AsignarComponent</text>
</g>
<!-- AsignarComponent&#45;&gt;AsignacionProveedoresPedidosAlternosModule -->
<g id="edge2" class="edge">
<title>AsignarComponent&#45;&gt;AsignacionProveedoresPedidosAlternosModule</title>
<path fill="none" stroke="#000000" d="M1165,-122.0225C1165,-139.3734 1165,-163 1165,-163 1165,-163 1012.6769,-163 1012.6769,-163"/>
<polygon fill="#000000" stroke="#000000" points="1012.677,-159.5001 1002.6769,-163 1012.6769,-166.5001 1012.677,-159.5001"/>
</g>
<!-- HubModule -->
<g id="node4" class="node">
<title>HubModule</title>
<polygon fill="#8dd3c7" stroke="#000000" points="1077.6571,-122 1074.6571,-126 1053.6571,-126 1050.6571,-122 994.3429,-122 994.3429,-86 1077.6571,-86 1077.6571,-122"/>
<text text-anchor="middle" x="1036" y="-99.8" font-family="Times,serif" font-size="14.00" fill="#000000">HubModule</text>
</g>
<!-- HubModule&#45;&gt;AsignacionProveedoresPedidosAlternosModule -->
<g id="edge3" class="edge">
<title>HubModule&#45;&gt;AsignacionProveedoresPedidosAlternosModule</title>
<path fill="none" stroke="#000000" d="M998.3468,-122.1061C998.3468,-122.1061 998.3468,-140.991 998.3468,-140.991"/>
<polygon fill="#000000" stroke="#000000" points="994.8469,-140.9909 998.3468,-150.991 1001.8469,-140.991 994.8469,-140.9909"/>
</g>
<!-- PerfilModule -->
<g id="node5" class="node">
<title>PerfilModule</title>
<polygon fill="#8dd3c7" stroke="#000000" points="976.1501,-122 973.1501,-126 952.1501,-126 949.1501,-122 885.8499,-122 885.8499,-86 976.1501,-86 976.1501,-122"/>
<text text-anchor="middle" x="931" y="-99.8" font-family="Times,serif" font-size="14.00" fill="#000000">PerfilModule</text>
</g>
<!-- PerfilModule&#45;&gt;AsignacionProveedoresPedidosAlternosModule -->
<g id="edge4" class="edge">
<title>PerfilModule&#45;&gt;AsignacionProveedoresPedidosAlternosModule</title>
<path fill="none" stroke="#000000" d="M931,-122.1061C931,-122.1061 931,-140.991 931,-140.991"/>
<polygon fill="#000000" stroke="#000000" points="927.5001,-140.9909 931,-150.991 934.5001,-140.991 927.5001,-140.9909"/>
</g>
<!-- BloquearPantallaModule -->
<g id="node6" class="node">
<title>BloquearPantallaModule</title>
<polygon fill="#8dd3c7" stroke="#000000" points="867.965,-122 864.965,-126 843.965,-126 840.965,-122 712.035,-122 712.035,-86 867.965,-86 867.965,-122"/>
<text text-anchor="middle" x="790" y="-99.8" font-family="Times,serif" font-size="14.00" fill="#000000">BloquearPantallaModule</text>
</g>
<!-- BloquearPantallaModule&#45;&gt;AsignacionProveedoresPedidosAlternosModule -->
<g id="edge5" class="edge">
<title>BloquearPantallaModule&#45;&gt;AsignacionProveedoresPedidosAlternosModule</title>
<path fill="none" stroke="#000000" d="M792.7304,-122.1061C792.7304,-122.1061 792.7304,-140.991 792.7304,-140.991"/>
<polygon fill="#000000" stroke="#000000" points="789.2304,-140.9909 792.7304,-150.991 796.2304,-140.991 789.2304,-140.9909"/>
</g>
<!-- PaginacionModule -->
<g id="node7" class="node">
<title>PaginacionModule</title>
<polygon fill="#8dd3c7" stroke="#000000" points="693.7576,-122 690.7576,-126 669.7576,-126 666.7576,-122 572.2424,-122 572.2424,-86 693.7576,-86 693.7576,-122"/>
<text text-anchor="middle" x="633" y="-99.8" font-family="Times,serif" font-size="14.00" fill="#000000">PaginacionModule</text>
</g>
<!-- PaginacionModule&#45;&gt;AsignacionProveedoresPedidosAlternosModule -->
<g id="edge6" class="edge">
<title>PaginacionModule&#45;&gt;AsignacionProveedoresPedidosAlternosModule</title>
<path fill="none" stroke="#000000" d="M633,-122.027C633,-138.3976 633,-160 633,-160 633,-160 707.2038,-160 707.2038,-160"/>
<polygon fill="#000000" stroke="#000000" points="707.2039,-163.5001 717.2038,-160 707.2038,-156.5001 707.2039,-163.5001"/>
</g>
<!-- AdministradorCentralModule -->
<g id="node8" class="node">
<title>AdministradorCentralModule</title>
<polygon fill="#8dd3c7" stroke="#000000" points="554.4073,-122 551.4073,-126 530.4073,-126 527.4073,-122 371.5927,-122 371.5927,-86 554.4073,-86 554.4073,-122"/>
<text text-anchor="middle" x="463" y="-99.8" font-family="Times,serif" font-size="14.00" fill="#000000">AdministradorCentralModule</text>
</g>
<!-- AdministradorCentralModule&#45;&gt;AsignacionProveedoresPedidosAlternosModule -->
<g id="edge7" class="edge">
<title>AdministradorCentralModule&#45;&gt;AsignacionProveedoresPedidosAlternosModule</title>
<path fill="none" stroke="#000000" d="M463,-122.1061C463,-141.3391 463,-169 463,-169 463,-169 707.2348,-169 707.2348,-169"/>
<polygon fill="#000000" stroke="#000000" points="707.2348,-172.5001 717.2348,-169 707.2347,-165.5001 707.2348,-172.5001"/>
</g>
<!-- AsignacionProveedoresPedidosAlternosRoutingModule -->
<g id="node9" class="node">
<title>AsignacionProveedoresPedidosAlternosRoutingModule</title>
<polygon fill="#8dd3c7" stroke="#000000" points="354.1614,-122 351.1614,-126 330.1614,-126 327.1614,-122 23.8386,-122 23.8386,-86 354.1614,-86 354.1614,-122"/>
<text text-anchor="middle" x="189" y="-99.8" font-family="Times,serif" font-size="14.00" fill="#000000">AsignacionProveedoresPedidosAlternosRoutingModule</text>
</g>
<!-- AsignacionProveedoresPedidosAlternosRoutingModule&#45;&gt;AsignacionProveedoresPedidosAlternosModule -->
<g id="edge8" class="edge">
<title>AsignacionProveedoresPedidosAlternosRoutingModule&#45;&gt;AsignacionProveedoresPedidosAlternosModule</title>
<path fill="none" stroke="#000000" d="M189,-122.2921C189,-144.2057 189,-178 189,-178 189,-178 707.2876,-178 707.2876,-178"/>
<polygon fill="#000000" stroke="#000000" points="707.2877,-181.5001 717.2876,-178 707.2876,-174.5001 707.2877,-181.5001"/>
</g>
</g>
</svg>
