<?xml version="1.0" encoding="UTF-8" standalone="no"?>
<svg
   xmlns:dc="http://purl.org/dc/elements/1.1/"
   xmlns:cc="http://creativecommons.org/ns#"
   xmlns:rdf="http://www.w3.org/1999/02/22-rdf-syntax-ns#"
   xmlns:svg="http://www.w3.org/2000/svg"
   xmlns="http://www.w3.org/2000/svg"
   xmlns:sodipodi="http://sodipodi.sourceforge.net/DTD/sodipodi-0.dtd"
   xmlns:inkscape="http://www.inkscape.org/namespaces/inkscape"
   version="1.1"
   id="Layer_1"
   x="0px"
   y="0px"
   viewBox="0 0 40 40"
   style="enable-background:new 0 0 40 40;"
   xml:space="preserve"
   inkscape:version="0.91 r13725"
   sodipodi:docname="catalogo-mc.svg"><metadata
     id="metadata25"><rdf:RDF><cc:Work
         rdf:about=""><dc:format>image/svg+xml</dc:format><dc:type
           rdf:resource="http://purl.org/dc/dcmitype/StillImage" /><dc:title /></cc:Work></rdf:RDF></metadata><defs
     id="defs23" /><sodipodi:namedview
     pagecolor="#ffffff"
     bordercolor="#666666"
     borderopacity="1"
     objecttolerance="10"
     gridtolerance="10"
     guidetolerance="10"
     inkscape:pageopacity="0"
     inkscape:pageshadow="2"
     inkscape:window-width="1855"
     inkscape:window-height="1056"
     id="namedview21"
     showgrid="false"
     inkscape:zoom="11.8"
     inkscape:cx="-11.874934"
     inkscape:cy="20.95862"
     inkscape:window-x="1985"
     inkscape:window-y="24"
     inkscape:window-maximized="1"
     inkscape:current-layer="Layer_1" /><g
     id="g3"><path
       style="fill:#cfe4ff;fill-opacity:1"
       d="m 6.419513,37.361353 0,-35.0000004 28.5,0 c 0.275,0 0.5,0.224 0.5,0.4999999 l 0,34.0000005 c 0,0.276 -0.225,0.5 -0.5,0.5 l -28.5,0 z"
       id="path5"
       inkscape:connector-curvature="0" /><g
       id="g7"><path
         style="fill:#4788C7;"
         d="M35,3v34H7V3H35 M35,2H6v36h29c0.552,0,1-0.448,1-1V3C36,2.448,35.552,2,35,2L35,2z"
         id="path9" /></g></g><g
     id="g11"><path
       style="fill:#4788C7;"
       d="M9,38H5c-0.552,0-1-0.448-1-1V3c0-0.552,0.448-1,1-1h4V38z"
       id="path13" /></g><g
     id="g4177"
     transform="matrix(1.2372881,0,0,1,-59.327493,-4.4915254)"><rect
       id="rect15"
       height="10"
       width="15"
       style="fill:#ffffff"
       y="9.8644066"
       x="58.237289" /><path
       inkscape:connector-curvature="0"
       id="path17"
       d="m 70.737288,13.864407 -10,0 c -0.275,0 -0.5,-0.225 -0.5,-0.5 l 0,0 c 0,-0.275 0.225,-0.5 0.5,-0.5 l 10,0 c 0.275,0 0.5,0.225 0.5,0.5 l 0,0 c 0,0.275 -0.225,0.5 -0.5,0.5 z"
       style="fill:#4788c7" /><path
       inkscape:connector-curvature="0"
       id="path19"
       d="m 70.737288,16.864407 -10,0 c -0.275,0 -0.5,-0.225 -0.5,-0.5 l 0,0 c 0,-0.275 0.225,-0.5 0.5,-0.5 l 10,0 c 0.275,0 0.5,0.225 0.5,0.5 l 0,0 c 0,0.275 -0.225,0.5 -0.5,0.5 z"
       style="fill:#4788c7" /></g><g
     id="g4182"
     transform="matrix(0.43032016,0,0,0.43032016,12.077308,4.4259307)"><path
       id="path4"
       d="m 19.40678,39.355932 0,-4 10,0 0,4 2,0 0,-4 c 0,-1.104 -0.896,-2 -2,-2 l -10,0 c -1.104,0 -2,0.896 -2,2 l 0,4 2,0 z"
       style="fill:#455a64"
       inkscape:connector-curvature="0" /><path
       id="path6"
       d="m 44.40678,64.355932 c 0,2.762 -2.238,5 -5,5 l -30.0000003,0 c -2.762,0 -5,-2.238 -5,-5 l 0,-20 c 0,-2.762 2.238,-5 5,-5 l 30.0000003,0 c 2.762,0 5,2.238 5,5 l 0,20 z"
       style="fill:#f44336"
       inkscape:connector-curvature="0" /><circle
       id="circle8"
       r="10"
       cy="54.35593"
       cx="24.40678"
       style="fill:#ffffff" /><g
       id="g10"
       transform="translate(0.40677966,27.355932)"><rect
         id="rect12"
         height="12"
         width="4"
         y="21"
         x="22"
         style="fill:#f44336" /><rect
         id="rect14"
         height="4"
         width="12"
         y="25"
         x="18"
         style="fill:#f44336" /></g></g></svg>