<?xml version="1.0" encoding="UTF-8" standalone="no"?>
<svg
   xmlns:dc="http://purl.org/dc/elements/1.1/"
   xmlns:cc="http://creativecommons.org/ns#"
   xmlns:rdf="http://www.w3.org/1999/02/22-rdf-syntax-ns#"
   xmlns:svg="http://www.w3.org/2000/svg"
   xmlns="http://www.w3.org/2000/svg"
   xmlns:sodipodi="http://sodipodi.sourceforge.net/DTD/sodipodi-0.dtd"
   xmlns:inkscape="http://www.inkscape.org/namespaces/inkscape"
   version="1.1"
   id="Layer_1"
   x="0px"
   y="0px"
   viewBox="0 0 40 40"
   style="enable-background:new 0 0 40 40;"
   xml:space="preserve"
   inkscape:version="0.91 r13725"
   sodipodi:docname="catalogo-parametros.svg"><metadata
     id="metadata25"><rdf:RDF><cc:Work
         rdf:about=""><dc:format>image/svg+xml</dc:format><dc:type
           rdf:resource="http://purl.org/dc/dcmitype/StillImage" /><dc:title></dc:title></cc:Work></rdf:RDF></metadata><defs
     id="defs23" /><sodipodi:namedview
     pagecolor="#ffffff"
     bordercolor="#666666"
     borderopacity="1"
     objecttolerance="10"
     gridtolerance="10"
     guidetolerance="10"
     inkscape:pageopacity="0"
     inkscape:pageshadow="2"
     inkscape:window-width="1855"
     inkscape:window-height="1056"
     id="namedview21"
     showgrid="false"
     inkscape:zoom="12.763889"
     inkscape:cx="20.957167"
     inkscape:cy="18.107587"
     inkscape:window-x="1985"
     inkscape:window-y="24"
     inkscape:window-maximized="1"
     inkscape:current-layer="Layer_1" /><g
     id="g3"><path
       style="fill:#cfe4ff;fill-opacity:1"
       d="m 6.419513,37.361353 0,-35.0000004 28.5,0 c 0.275,0 0.5,0.224 0.5,0.4999999 l 0,34.0000005 c 0,0.276 -0.225,0.5 -0.5,0.5 l -28.5,0 z"
       id="path5"
       inkscape:connector-curvature="0" /><g
       id="g7"><path
         style="fill:#4788C7;"
         d="M35,3v34H7V3H35 M35,2H6v36h29c0.552,0,1-0.448,1-1V3C36,2.448,35.552,2,35,2L35,2z"
         id="path9" /></g></g><g
     id="g11"><path
       style="fill:#4788C7;"
       d="M9,38H5c-0.552,0-1-0.448-1-1V3c0-0.552,0.448-1,1-1h4V38z"
       id="path13" /></g><g
     id="g4177"
     transform="matrix(1.2372881,0,0,1,-59.327493,-4.4915254)"><rect
       id="rect15"
       height="10"
       width="15"
       style="fill:#ffffff"
       y="9.8644066"
       x="58.237289" /><path
       inkscape:connector-curvature="0"
       id="path17"
       d="m 70.737288,13.864407 -10,0 c -0.275,0 -0.5,-0.225 -0.5,-0.5 l 0,0 c 0,-0.275 0.225,-0.5 0.5,-0.5 l 10,0 c 0.275,0 0.5,0.225 0.5,0.5 l 0,0 c 0,0.275 -0.225,0.5 -0.5,0.5 z"
       style="fill:#4788c7" /><path
       inkscape:connector-curvature="0"
       id="path19"
       d="m 70.737288,16.864407 -10,0 c -0.275,0 -0.5,-0.225 -0.5,-0.5 l 0,0 c 0,-0.275 0.225,-0.5 0.5,-0.5 l 10,0 c 0.275,0 0.5,0.225 0.5,0.5 l 0,0 c 0,0.275 -0.225,0.5 -0.5,0.5 z"
       style="fill:#4788c7" /></g><g
     id="g4223"
     transform="matrix(0.47219518,0,0,0.47219518,11.16274,12.8507)"><circle
       id="circle4"
       r="15"
       cy="27.464636"
       cx="22.48531"
       style="fill:#eeeeee" /><g
       id="g6"
       transform="translate(-1.5146899,3.4646355)"><path
         id="path8"
         d="m 22.485,21.415 c -1.438,0.837 -1.912,2.678 -1.058,4.111 0.853,1.437 2.707,1.919 4.146,1.082 1.438,-0.836 1.911,-2.677 1.056,-4.112 -0.853,-1.434 -2.708,-1.92 -4.144,-1.081"
         inkscape:connector-curvature="0"
         style="fill:#263238" /><polygon
         id="polygon10"
         points="35.299,17.444 25.925,25.238 23.866,21.776 "
         style="fill:#263238" /></g><g
       id="g12"
       transform="translate(-1.5146899,3.4646355)"><path
         id="path14"
         d="M 12.004,23 7.05,23 C 7.031,23.333 7,23.663 7,24 c 0,0.344 0.031,0.681 0.052,1.02 l 4.952,0 0,-2.02 z"
         inkscape:connector-curvature="0"
         style="fill:#ff1744" /><path
         id="path16"
         d="m 13.891,30.54 -0.949,-1.782 -4.378,2.331 c 0.283,0.614 0.603,1.207 0.954,1.78 l 4.373,-2.329 z"
         inkscape:connector-curvature="0"
         style="fill:#ff1744" /></g><g
       id="g18"
       transform="translate(-1.5146899,3.4646355)"><path
         id="path20"
         d="m 17.176,14.081 1.755,-1 -2.454,-4.309 c -0.606,0.3 -1.195,0.627 -1.758,0.995 l 2.457,4.314 z"
         inkscape:connector-curvature="0"
         style="fill:#90a4ae" /><path
         id="path22"
         d="m 8.807,16.406 4.294,2.479 1.01,-1.749 -4.302,-2.484 c -0.371,0.56 -0.7,1.149 -1.002,1.754 z"
         inkscape:connector-curvature="0"
         style="fill:#90a4ae" /><path
         id="path24"
         d="m 35.996,25 4.953,0 C 40.969,24.667 41,24.337 41,24 41,23.656 40.969,23.319 40.948,22.98 l -4.952,0 0,2.02 z"
         inkscape:connector-curvature="0"
         style="fill:#90a4ae" /><path
         id="path26"
         d="m 39.56,30.835 -4.419,-2.268 -0.922,1.797 4.41,2.264 c 0.342,-0.578 0.657,-1.174 0.931,-1.793 z"
         inkscape:connector-curvature="0"
         style="fill:#90a4ae" /><path
         id="path28"
         d="M 33.466,9.88 C 32.908,9.505 32.32,9.174 31.719,8.867 l -2.516,4.276 1.741,1.024 2.522,-4.287 z"
         inkscape:connector-curvature="0"
         style="fill:#90a4ae" /><path
         id="path30"
         d="M 25,7.05 C 24.667,7.031 24.337,7 24,7 23.656,7 23.319,7.031 22.98,7.052 l 0,4.952 2.02,0 0,-4.954 z"
         inkscape:connector-curvature="0"
         style="fill:#90a4ae" /></g><path
       id="path32"
       d="m 22.48531,8.4646355 c -10.493,0 -18.9999999,8.5069995 -18.9999999,18.9999995 0,10.493 8.5069999,19 18.9999999,19 10.493,0 19,-8.507 19,-19 0,-10.493 -8.507,-18.9999995 -19,-18.9999995 z m 0,33.9999995 c -8.284,0 -14.9999999,-6.716 -14.9999999,-15 0,-8.284 6.7159999,-15 14.9999999,-15 8.284,0 15,6.716 15,15 0,8.284 -6.716,15 -15,15 z"
       style="fill:#00acc1"
       inkscape:connector-curvature="0" /><path
       id="path34"
       d="m 21.99731,26.610635 c -0.477,0.277 -0.634,0.894 -0.35,1.371 0.283,0.478 0.904,0.639 1.382,0.359 0.479,-0.277 0.637,-0.893 0.353,-1.372 -0.285,-0.476 -0.906,-0.637 -1.385,-0.358"
       style="fill:#4dd0e1"
       inkscape:connector-curvature="0" /></g></svg>