<?xml version="1.0" encoding="UTF-8" standalone="no"?>
<svg
   xmlns:dc="http://purl.org/dc/elements/1.1/"
   xmlns:cc="http://creativecommons.org/ns#"
   xmlns:rdf="http://www.w3.org/1999/02/22-rdf-syntax-ns#"
   xmlns:svg="http://www.w3.org/2000/svg"
   xmlns="http://www.w3.org/2000/svg"
   xmlns:sodipodi="http://sodipodi.sourceforge.net/DTD/sodipodi-0.dtd"
   xmlns:inkscape="http://www.inkscape.org/namespaces/inkscape"
   version="1.1"
   x="0px"
   y="0px"
   width="48px"
   height="48px"
   viewBox="0 0 48 48"
   enable-background="new 0 0 48 48"
   xml:space="preserve"
   id="svg2"
   inkscape:version="0.91 r13725"
   sodipodi:docname="icono-stock-lab.svg"><metadata
     id="metadata44"><rdf:RDF><cc:Work
         rdf:about=""><dc:format>image/svg+xml</dc:format><dc:type
           rdf:resource="http://purl.org/dc/dcmitype/StillImage" /><dc:title></dc:title></cc:Work></rdf:RDF></metadata><defs
     id="defs42" /><sodipodi:namedview
     pagecolor="#ffffff"
     bordercolor="#666666"
     borderopacity="1"
     objecttolerance="10"
     gridtolerance="10"
     guidetolerance="10"
     inkscape:pageopacity="0"
     inkscape:pageshadow="2"
     inkscape:window-width="1855"
     inkscape:window-height="1056"
     id="namedview40"
     showgrid="false"
     inkscape:zoom="12.763889"
     inkscape:cx="17.067723"
     inkscape:cy="25.457524"
     inkscape:window-x="1985"
     inkscape:window-y="24"
     inkscape:window-maximized="1"
     inkscape:current-layer="surface1-7" /><path
     d="M37,34H11c-1.105,0-2-0.895-2-2V8c0-1.105,0.895-2,2-2h26c1.105,0,2,0.895,2,2v24C39,33.105,38.105,34,37,34  "
     id="path4"
     fill="#FF9800" /><path
     fill="#FF1744"
     d="M42,16H6c-2.209,0-4,1.791-4,4v18c0,2.209,1.791,4,4,4h36c2.209,0,4-1.791,4-4V20C46,17.791,44.209,16,42,16  "
     id="path6" /><path
     fill="#8A5100"
     d="M27.5,12h-7c-0.828,0-1.5-0.672-1.5-1.5S19.672,9,20.5,9h7c0.828,0,1.5,0.672,1.5,1.5S28.328,12,27.5,12"
     id="path8" /><path
     fill="#FFCDD2"
     d="M42,21c0-0.552-0.448-1-1-1H7c-0.552,0-1,0.448-1,1v16c0,0.552,0.448,1,1,1h34c0.552,0,1-0.448,1-1V21z"
     id="path10" /><path
     fill="#EF9A9A"
     d="M39,32V20H9v12c0,1.105,0.895,2,2,2h26C38.105,34,39,33.105,39,32z"
     id="path12" /><g
     id="g14"><g
       id="g16"><path
         fill="#37474F"
         d="M25,28v1h-1v-1H25 M27,26h-5v5h5V26L27,26z"
         id="path18" /></g><rect
       x="28"
       y="21"
       fill="#37474F"
       width="2"
       height="4"
       id="rect20" /><rect
       x="32"
       y="23"
       fill="#37474F"
       width="2"
       height="2"
       id="rect22" /><rect
       x="34"
       y="25"
       fill="#37474F"
       width="2"
       height="4"
       id="rect24" /><rect
       x="29"
       y="27"
       fill="#37474F"
       width="2"
       height="4"
       id="rect26" /><rect
       x="30"
       y="25"
       fill="#37474F"
       width="2"
       height="2"
       id="rect28" /><rect
       x="33"
       y="28"
       fill="#37474F"
       width="3"
       height="2"
       id="rect30" /><rect
       x="23"
       y="23"
       fill="#37474F"
       width="7"
       height="2"
       id="rect32" /><g
       id="g34"><polygon
         fill="#37474F"
         points="25,20 24,20 22,20 22,22 27,22 27,20   "
         id="polygon36" /><polygon
         fill="#37474F"
         points="34,20 33,20 31,20 31,22 36,22 36,20   "
         id="polygon38" /></g></g><g
     style="clip-rule:evenodd;fill-rule:evenodd;stroke-linejoin:round;stroke-miterlimit:1.41420996;stroke:none;"
     transform="matrix(0.85714286,0,0,0.85714286,4.8716633,7.2500679)"
     id="surface1-7"><path
       inkscape:connector-curvature="0"
       d="m 12.003467,15.739594 -1.812551,0.794069 0.50061,1.173843 c -1.2968363,0.914906 -2.1405352,2.403787 -2.1405352,4.07392 0,1.557932 0.7314934,2.954025 1.8643362,3.866774 l -0.7595439,0 0,1.104792 6.6287529,0 0,-1.104792 -2.209584,0 2.03696,-0.880381 -0.431559,-1.001218 -3.659624,1.570876 c -0.25462,-0.10789 -0.485504,-0.239515 -0.707758,-0.397035 0.282672,-0.163992 0.483347,-0.442349 0.535134,-0.776807 l 3.383426,-1.484564 -0.448822,-1.018481 -3.331639,1.484564 c -0.189886,-0.155361 -0.425085,-0.258935 -0.690495,-0.258935 -0.323669,0 -0.608498,0.142414 -0.8113312,0.36251 -0.1877292,-0.453137 -0.2934607,-0.947273 -0.2934607,-1.467303 0,-1.221312 0.5761309,-2.317473 1.4845639,-3.038177 l 0.586921,1.346465 1.829812,-0.79407 z m 1.795286,4.056659 -1.829811,0.828594 0.72502,0.655971 1.104791,-0.500609 z"
       id="path5-5"
       style="fill:#37474f;fill-opacity:1;stroke:none" /></g></svg>