<?xml version="1.0" encoding="UTF-8" standalone="no"?>
<!-- Created with Inkscape (http://www.inkscape.org/) -->

<svg
   xmlns:dc="http://purl.org/dc/elements/1.1/"
   xmlns:cc="http://creativecommons.org/ns#"
   xmlns:rdf="http://www.w3.org/1999/02/22-rdf-syntax-ns#"
   xmlns:svg="http://www.w3.org/2000/svg"
   xmlns="http://www.w3.org/2000/svg"
   xmlns:sodipodi="http://sodipodi.sourceforge.net/DTD/sodipodi-0.dtd"
   xmlns:inkscape="http://www.inkscape.org/namespaces/inkscape"
   width="72.248886mm"
   height="86.02858mm"
   viewBox="0 0 255.99999 304.82568"
   id="svg2"
   version="1.1"
   inkscape:version="0.91 r13725"
   sodipodi:docname="sial-logo.svg">
  <defs
     id="defs4" />
  <sodipodi:namedview
     id="base"
     pagecolor="#ffffff"
     bordercolor="#666666"
     borderopacity="1.0"
     inkscape:pageopacity="0"
     inkscape:pageshadow="2"
     inkscape:zoom="1.4"
     inkscape:cx="259.22635"
     inkscape:cy="170.21731"
     inkscape:document-units="px"
     inkscape:current-layer="layer1"
     showgrid="false"
     fit-margin-top="0"
     fit-margin-left="0"
     fit-margin-right="0"
     fit-margin-bottom="0"
     inkscape:window-width="1855"
     inkscape:window-height="1056"
     inkscape:window-x="1985"
     inkscape:window-y="24"
     inkscape:window-maximized="1" />
  <metadata
     id="metadata7">
    <rdf:RDF>
      <cc:Work
         rdf:about="">
        <dc:format>image/svg+xml</dc:format>
        <dc:type
           rdf:resource="http://purl.org/dc/dcmitype/StillImage" />
        <dc:title></dc:title>
      </cc:Work>
    </rdf:RDF>
  </metadata>
  <g
     inkscape:label="Capa 1"
     inkscape:groupmode="layer"
     id="layer1"
     transform="translate(-1549.167,1329.1775)">
    <path
       style="fill:#ffffff"
       d="m 85.592536,877.04984 0,-10.37946 35.751484,0 35.75147,0 0,-11.3858 c 0,-8.61403 -0.2654,-11.74909 -1.0903,-12.87822 -1.03641,-1.41876 -2.50691,-1.51141 -29.7929,-1.87684 l -28.702593,-0.38442 -3.585141,-2.10757 c -7.27177,-4.27473 -8.62587,-9.59631 -8.19332,-32.19955 0.32907,-17.19191 0.81429,-19.20845 5.74945,-23.89243 5.25186,-4.98453 3.45744,-4.82384 56.580834,-5.06564 l 48.24527,-0.21958 0,10.40683 0,10.40682 -35.75148,0 -35.75147,0 0,8.80555 c 0,9.44323 0.80098,12.53431 3.39938,13.11818 0.87895,0.19752 13.71781,0.4487 28.53076,0.55818 l 26.9327,0.19913 3.81441,1.96426 c 2.70589,1.39338 4.48677,3.05087 6.12788,5.70355 l 2.31339,3.7393 0.25626,19.66846 c 0.29431,22.59032 -0.16707,26.013 -4.13049,30.6434 -4.85505,5.67202 -3.63342,5.55531 -58.15512,5.55531 l -48.300474,0 0,-10.37946 z m 185.292594,-44.97766 0,-55.35711 19.60565,0 19.60564,0 0,55.35711 0,55.35712 -19.60564,0 -19.60565,0 0,-55.35712 z m 111.12262,53.62721 c 0.28162,-0.95145 8.46445,-25.88606 18.18409,-55.41025 l 17.67206,-53.68025 16.65814,0.24526 c 16.47348,0.24265 16.70693,0.26933 21.05922,2.4065 4.99866,2.4547 8.9807,6.67384 12.11021,12.8314 1.18205,2.32576 8.80301,24.46861 16.93547,49.20632 8.13247,24.73771 14.93921,45.23715 15.1261,45.5543 0.18688,0.31715 -8.58966,0.56933 -19.50344,0.56041 l -19.84323,-0.0162 -2.72309,-8.63325 -2.72309,-8.63332 -12.50737,-0.21151 c -11.43921,-0.19337 -12.4714,-0.32469 -12.08613,-1.5377 0.23168,-0.72941 1.75227,-5.30498 3.37907,-10.16795 l 2.95783,-8.84176 5.57719,-0.22728 c 3.95118,-0.16099 5.47801,-0.49729 5.237,-1.15327 -0.18709,-0.50928 -1.8417,-5.42377 -3.67691,-10.92104 l -3.33674,-9.99503 -9.89689,30.17732 -9.8969,30.17732 -19.6073,0 -19.60731,0 0.51202,-1.72991 z m 199.87674,0.80222 c -3.6883,-1.28921 -7.18392,-4.29202 -9.04107,-7.76637 l -1.72281,-3.2231 -0.21391,-49.39854 -0.21392,-49.39853 19.62735,0 19.62735,0 0,43.26889 c 0,37.91739 0.14802,43.48025 1.19686,44.97766 l 1.19688,1.70876 34.5546,0 34.5546,0 0,10.37946 0,10.37946 -48.62969,-0.0607 c -31.78852,-0.04 -49.42848,-0.33998 -50.93624,-0.86703 z M 6.5476457,720.14132 c 0.27763,-17.57004 0.12325,-17.23574 7.9605103,-17.23574 2.60578,0 6.86443,-0.22228 9.46368,-0.49399 l 4.72588,-0.49391 0,-17.18961 0,-17.18954 -11.1483,0 -11.1483103,0 0,-14.18088 c 0,-13.88188 0.0392,-14.22625 1.8554604,-16.33804 l 1.8555399,-2.15716 368.729654,-0.24619 368.72967,-0.24626 0,16.5843 0,16.58423 -12.30158,0 -12.30158,0 0,17.2991 0,17.2991 12.30158,0 12.30158,0 0,16.53025 0,16.53025 -370.63086,0 -370.6308843,0 0.23796,-15.05591 z m 604.7453143,4.29218 125.51459,-1.6e-4 0,-5.76636 0,-5.76637 -360.20571,0 -360.205704,0 0,6.2785 0,6.27849 234.691134,-0.51197 c 129.0801,-0.28163 291.17267,-0.51206 360.20569,-0.51213 z m -548.765884,-39.59587 0,-17.2991 -11.53274,0 -11.53273,0 0,17.2991 0,17.2991 11.53273,0 11.53274,0 0,-17.2991 z m 290.624874,0 0,-17.2991 -139.93049,0 -139.930504,0 0,17.2991 0,17.2991 139.930504,0 139.93049,0 0,-17.2991 z m 33.82935,0 0,-17.2991 -11.53274,0 -11.53273,0 0,17.2991 0,17.2991 11.53273,0 11.53274,0 0,-17.2991 z m 292.16258,0 0,-17.2991 -141.1933,0 -141.1933,0 0.49395,4.72588 c 0.27167,2.59925 0.49395,10.38384 0.49395,17.2991 l 0,12.57322 140.69935,0 140.69935,0 0,-17.2991 z m 33.82935,0 0,-17.2991 -11.91716,0 -11.91716,0 0,17.2991 0,17.2991 11.91716,0 11.91716,0 0,-17.2991 z m 23.83432,-33.44493 0,-6.15079 -360.20571,0 -360.205704,0 0,6.15079 0,6.15079 360.205704,0 360.20571,0 0,-6.15079 z M 79.441746,459.18046 l 0,-136.8551 136.470684,0 136.47067,0 0,136.8551 0,136.85512 -136.47067,0 -136.470684,0 0,-136.85512 z m 256.026674,0 0,-119.94043 -119.55599,0 -119.556004,0 0,119.94043 0,119.94044 119.556004,0 119.55599,0 0,-119.94044 z m -173.48151,96.17202 c -23.41568,-6.35915 -38.12253,-27.04447 -38.03811,-53.50091 0.0408,-12.80471 4.20599,-24.84659 11.76208,-34.00522 1.82417,-2.21107 12.48519,-12.38654 23.69116,-22.61216 11.20597,-10.22563 23.66132,-21.60091 27.67856,-25.27843 22.23949,-20.35879 37.51367,-34.36849 39.21129,-35.96516 8.75535,-8.23475 22.59478,-13.27088 33.42079,-12.16172 21.47095,2.19976 38.70539,18.87675 43.49478,42.0878 1.79964,8.72206 1.86715,13.01202 0.34214,21.75691 -2.41972,13.87607 -7.41494,22.26717 -20.28962,34.08329 -4.90325,4.50014 -9.08802,8.37268 -9.29946,8.60565 -0.21143,0.23296 -2.28732,2.12653 -4.61309,4.20792 -2.32577,2.0814 -6.13157,5.54819 -8.45734,7.704 -2.32576,2.1558 -8.55344,7.87711 -13.83928,12.71404 -5.28583,4.83691 -9.7836,8.98172 -9.99503,9.21067 -0.21144,0.22897 -2.11434,1.95043 -4.22867,3.82547 -2.11434,1.87506 -7.82304,7.09563 -12.68601,11.60129 -23.27136,21.56147 -27.39708,24.67269 -36.1359,27.25026 -6.85367,2.02153 -15.62946,2.21136 -22.01829,0.4763 z m -23.11598,-48.84037 c 0.64314,-3.96364 4.65015,-11.82845 8.19585,-16.08672 1.71177,-2.05573 8.04178,-8.92296 14.06678,-15.26052 6.02493,-6.33756 11.06612,-11.82371 11.20259,-12.19144 0.33845,-0.912 -4.51998,-6.86837 -5.60237,-6.86837 -1.20163,0 -15.89656,14.64045 -20.85618,20.77882 -7.55655,9.35264 -10.47687,18.51111 -9.18913,28.8181 0.58094,4.64946 1.50379,4.99205 2.18246,0.81013 z m 115.73936,-31.35885 c 27.77743,-25.37305 28.71912,-26.34003 31.59492,-32.44329 2.63861,-5.59973 3.90114,-11.21774 3.90114,-17.35886 0,-22.49328 -18.39133,-40.50948 -37.92309,-37.14952 -8.82992,1.51898 -11.54795,3.37903 -30.12004,20.6125 -4.65153,4.31627 -11.83066,10.89439 -15.95361,14.61804 -4.12295,3.72366 -7.48213,6.97617 -7.46475,7.22782 0.0177,0.25163 1.74905,1.2631 3.84824,2.2477 11.57433,5.4288 23.77765,19.31071 31.54425,35.88342 2.89318,6.17372 6.09382,15.1243 6.09382,17.04166 0,0.56446 0.37443,1.02629 0.83205,1.02629 0.45762,0 6.5988,-5.26759 13.64707,-11.70576 z m -65.77572,-26.56677 c 2.41826,-2.44375 4.39682,-4.63348 4.39682,-4.86609 0,-0.23261 -1.71638,-1.22681 -3.81411,-2.20935 l -3.8141,-1.78644 -3.554,2.91221 c -1.95465,1.60171 -3.74391,3.40722 -3.97611,4.01223 -0.44493,1.15956 4.08036,6.38062 5.53041,6.38062 0.45885,0 2.81283,-1.99943 5.23109,-4.44318 z m 207.37291,10.59397 0,-136.8551 136.47068,0 136.47068,0 0,136.8551 0,136.85512 -136.47068,0 -136.47068,0 0,-136.85512 z m 256.02669,0 0,-119.94043 -119.55601,0 -119.556,0 0,119.94043 0,119.94044 119.556,0 119.55601,0 0,-119.94044 z M 468.47928,563.33943 c 0,-6.27811 1.11694,-9.87156 3.81737,-12.28151 1.63207,-1.45651 3.15014,-1.56115 28.74574,-1.98179 29.72189,-0.48837 30.74675,-0.62991 40.86196,-5.64184 12.13164,-6.01107 21.65155,-17.32387 25.93456,-30.81883 2.28437,-7.19758 2.42639,-22.22964 0.27605,-29.21626 -1.77908,-5.78035 -4.49146,-11.2515 -7.88993,-15.91476 l -2.63319,-3.61317 2.25547,-1.16635 c 2.99642,-1.54951 8.31219,-7.66576 9.4876,-10.91629 0.51773,-1.43177 1.2021,-2.60321 1.52082,-2.60321 1.35438,0 8.34673,9.80285 11.66553,16.35435 10.64115,21.00629 10.1852,46.39047 -1.19891,66.74718 -2.78726,4.98408 -10.09584,14.70114 -11.41972,15.18298 -0.38728,0.14101 -0.70414,0.57349 -0.70414,0.96106 0,0.38766 2.95195,0.70481 6.55991,0.70481 11.83044,0 14.54546,2.42533 14.56886,13.01438 l 0.0146,6.59126 -60.93128,0.19683 -60.93127,0.19682 0,-5.79566 z m 33.0605,-41.95127 c -2.74863,-1.64866 -5.10016,-3.47066 -5.22562,-4.04886 -0.24132,-1.11223 6.72782,-13.5656 7.59156,-13.5656 1.03807,0 11.64631,6.47577 11.96387,7.30332 0.56429,1.47051 -6.66698,13.46364 -8.06879,13.38216 -0.69492,-0.0404 -3.51238,-1.42235 -6.26102,-3.07102 z m -24.21874,-14.09379 c -3.2289,-1.97151 -5.28072,-3.71751 -5.12893,-4.36446 0.43697,-1.86232 6.62692,-12.3942 7.48105,-12.72861 1.00382,-0.39301 11.90027,5.83288 12.37533,7.07088 0.53773,1.40129 -6.80713,13.42924 -8.16116,13.36473 -0.65139,-0.0311 -3.60622,-1.53518 -6.56629,-3.34254 z m 46.13094,-0.21086 c -6.78613,-3.64252 -44.74118,-25.85921 -45.59166,-26.68673 -0.81724,-0.79518 -0.74748,-1.41093 0.38443,-3.39337 2.29724,-4.02338 -1.40633,-5.65349 35.03322,15.41969 8.78177,5.07855 16.16018,9.54654 16.39647,9.92886 0.50009,0.80916 -2.03099,5.42199 -3.15412,5.74829 -0.41898,0.12172 -1.79974,-0.33581 -3.06834,-1.01674 z m -15.76141,-25.1286 c -8.39807,-4.91175 -13.3659,-8.26421 -13.21816,-8.92009 0.57943,-2.5724 49.78458,-86.3728 51.29776,-87.36427 1.30561,-0.85547 2.18518,-0.92215 3.84409,-0.29144 1.1831,0.44981 2.41119,0.5455 2.72907,0.21264 0.31789,-0.33287 3.21504,-5.16538 6.43811,-10.73891 4.52562,-7.82599 5.75194,-10.56476 5.38505,-12.02656 -0.52077,-2.0749 1.376,-6.49704 3.0647,-7.14505 1.17271,-0.45001 20.38049,10.35911 20.95875,11.79448 0.66406,1.64838 -2.80512,6.36252 -4.68225,6.36252 -1.39699,0 -2.87203,2.03209 -8.03288,11.06649 l -6.32169,11.06649 2.32923,2.32922 c 1.28108,1.28108 2.32923,2.63371 2.32923,3.00586 0,0.55039 -12.69143,23.15325 -13.39619,23.85802 -0.11385,0.11384 -1.55343,-0.35559 -3.19908,-1.04319 -4.63221,-1.93546 -14.35826,-1.20212 -18.38736,1.38642 -7.10467,4.56446 -10.3361,10.33771 -10.36257,18.51371 -0.0203,6.26743 2.09993,11.08608 6.86447,15.60094 1.71252,1.62278 3.11368,3.18026 3.11368,3.46106 0,1.44129 -15.23802,26.48211 -16.18766,26.60137 -0.61129,0.0767 -7.16613,-3.4016 -14.5663,-7.72971 z m 39.59572,-22.51133 c -0.84573,-0.17765 -2.32488,-0.49129 -3.28699,-0.69699 -0.96211,-0.20571 -3.10429,-1.59816 -4.76038,-3.09435 -8.22398,-7.42987 -6.68721,-20.2808 3.04985,-25.50368 2.90248,-1.55686 4.22618,-1.798 8.2171,-1.49691 5.84797,0.44121 9.55362,2.56647 12.12449,6.95362 3.9839,6.79851 2.98174,15.01353 -2.40893,19.7466 -3.7183,3.26471 -8.96739,4.92513 -12.93514,4.09171 z M 79.441746,141.64586 l 0,-136.8550949 136.470684,0 136.47067,0 0,136.8550949 0,136.85511 -136.47067,0 -136.470684,0 0,-136.85511 z m 256.026674,0 0,-119.940423 -119.55599,0 -119.556004,0 0,119.940423 0,119.94043 119.556004,0 119.55599,0 0,-119.94043 z m -192.21221,96.97495 c -16.38248,-4.2693 -27.67856,-18.65687 -27.67856,-35.25361 0,-7.02264 2.11987,-13.63539 6.47663,-20.20349 2.3486,-3.54069 129.48015,-131.080183 135.82177,-136.257603 19.32825,-15.78003 48.51137,-7.0871 56.72454,16.89687 3.39759,9.92155 1.73006,22.38349 -4.19194,31.32753 -1.39992,2.11434 -32.9218,34.138673 -70.04859,71.165183 -73.45944,73.26115 -70.12556,70.28109 -81.34245,72.70993 -5.99817,1.2988 -9.64228,1.20984 -15.7614,-0.38481 z m 15.11034,-5.9321 c 7.58693,-1.16756 8.79471,-2.27548 79.13562,-72.59047 77.27572,-77.247273 72.19015,-71.262303 72.19015,-84.957803 0,-7.0911 -0.19183,-8.08211 -2.46916,-12.75452 -7.3329,-15.04497 -24.97045,-21.202 -40.18228,-14.02709 -3.60151,1.69872 -14.12552,11.87116 -70.96252,68.591913 -36.70362,36.62857 -67.76381,68.13963 -69.02264,70.0246 -2.7664,4.14255 -5.32728,12.07627 -5.32728,16.5043 0,6.51832 3.50372,15.27427 8.18586,20.45685 5.1489,5.69919 16.59168,10.47029 22.95252,9.57006 1.2686,-0.17954 3.74345,-0.54758 5.49973,-0.81784 z m -27.55039,-10.89035 c -2.53659,-2.97904 -4.38306,-7.00899 -5.67026,-12.3756 -1.13306,-4.72361 -1.2144,-6.4032 -0.49699,-10.26079 1.35679,-7.29585 6.2878,-15.99826 9.06504,-15.99826 1.75213,0 1.26468,1.88487 -1.58098,6.11347 -1.4662,2.17881 -3.0212,5.24092 -3.45552,6.80469 -1.96179,7.06371 -0.10195,17.26248 4.16931,22.8624 1.0737,1.4076 1.95211,2.92835 1.95211,3.37943 0,1.30835 -2.72772,0.94855 -3.98271,-0.52534 z m 34.92004,-9.98202 c -0.53343,-0.18658 -1.32403,-1.00105 -1.75697,-1.80993 -1.75452,-3.27839 2.99643,-6.31038 5.38271,-3.43513 2.03891,2.45672 -0.61623,6.2977 -3.62574,5.24506 z m 11.15715,-2.57336 c -2.58802,-1.50739 -1.21201,-6.0892 1.82879,-6.0892 1.58505,0 3.74537,1.99555 3.74537,3.45982 0,1.29424 -2.10165,3.46794 -3.32251,3.43644 -0.49844,-0.0128 -1.51163,-0.37603 -2.25165,-0.80706 z m -21.94787,-8.06509 c -2.90379,-2.03388 -1.72837,-5.7126 1.82517,-5.7126 3.49934,0 4.45072,3.86281 1.44244,5.85654 -1.34064,0.88855 -1.82394,0.86726 -3.26761,-0.14394 z m 11.81552,-2.3077 c -2.36836,-2.36841 -0.97629,-5.71145 2.37836,-5.71145 1.60958,0 3.33311,1.93327 3.33311,3.73878 0,1.11554 -2.24642,3.18086 -3.45982,3.18086 -0.57387,0 -1.58713,-0.54368 -2.25165,-1.20819 z m 12.01603,-2.02097 c -2.6097,-2.6097 0.45931,-6.95745 3.69048,-5.22818 1.88967,1.01134 2.1151,4.99586 0.32153,5.68411 -1.82525,0.7004 -2.98783,0.56828 -4.01201,-0.45593 z m 11.86457,-2.24158 c -1.46012,-2.08471 -0.52997,-4.82002 1.75474,-5.15995 3.47697,-0.51733 5.33166,3.61594 2.56496,5.71617 -1.91059,1.45035 -3.01373,1.3083 -4.3197,-0.55622 z m -44.89547,-2.75627 c -1.72814,-0.64919 -2.62101,-3.16192 -1.72107,-4.84342 1.5633,-2.92106 6.66115,-1.24024 6.02209,1.98554 -0.31369,1.58312 -2.97937,3.35438 -4.30102,2.85788 z m 11.15715,-2.59846 c -1.54454,-0.89959 -1.7825,-3.80699 -0.42287,-5.16659 2.24842,-2.24845 6.47217,0.18949 5.53502,3.19486 -0.84858,2.72166 -2.63899,3.4122 -5.11215,1.97173 z m 11.87872,-2.39873 c -2.60971,-2.6097 0.45931,-6.95744 3.69047,-5.22817 1.5327,0.82028 1.87046,1.65691 1.55192,3.84424 -0.32491,2.23159 -3.54478,3.08157 -5.24239,1.38393 z m 16.86293,-16.85786 c -8.96324,-8.95762 -16.17059,-16.66557 -16.01643,-17.12879 0.15423,-0.46321 0.77069,-0.935 1.37001,-1.04841 1.42744,-0.27015 33.26786,31.68443 32.84261,32.96033 -0.17953,0.53852 -0.68035,1.0971 -1.11291,1.24129 -0.43255,0.14419 -8.12004,-7.0668 -17.08328,-16.02442 z m -5.3302,14.55131 c -2.04499,-2.04497 -0.46392,-5.22817 2.59679,-5.22817 2.30147,0 3.67479,1.87681 3.087,4.21868 -0.37251,1.48416 -0.98067,1.93211 -2.62308,1.93211 -1.17595,0 -2.55327,-0.41518 -3.06071,-0.92262 z m 8.87367,-18.1128 c -9.19382,-9.20088 -16.71593,-17.29225 -16.71593,-17.98083 0,-1.61275 51.2733,-52.939063 52.88435,-52.939063 1.4379,0 34.76442,33.278783 34.76442,34.714583 0,1.40946 -51.62966,52.93419 -53.04196,52.93419 -0.64629,0 -8.69714,-7.528 -17.89088,-16.72888 z m 40.56154,-14.02333 22.28494,-22.29485 -13.05521,-13.07219 c -7.18044,-7.1897 -13.40727,-13.07219 -13.83751,-13.07219 -0.43033,0 -10.76627,9.98838 -22.96883,22.19639 l -22.18652,22.1964 12.96526,13.11854 c 7.13092,7.2152 13.31354,13.142 13.73917,13.17065 0.42556,0.0287 10.80202,-9.98057 23.0587,-22.24275 z m -82.97901,26.46862 c -2.38397,-2.384 -0.97298,-5.71145 2.42187,-5.71145 1.17911,0 2.09604,0.68301 2.70181,2.01244 0.80922,1.77616 0.70704,2.18238 -0.87056,3.45982 -2.17323,1.75979 -2.70274,1.78956 -4.25312,0.23919 z m 12.19056,-1.68676 c -1.7007,-1.16457 -1.8377,-3.28417 -0.31085,-4.81098 2.49207,-2.4921 5.36449,-1.45357 5.36449,1.93956 0,2.79654 -2.8216,4.39976 -5.05364,2.87142 z m 12.02964,-2.43064 c -0.87672,-0.87672 -1.59406,-1.94003 -1.59406,-2.3629 0,-0.42287 0.71734,-1.48618 1.59406,-2.3629 1.43506,-1.4351 1.76097,-1.48324 3.26761,-0.48286 0.92046,0.61116 1.67355,1.89175 1.67355,2.84576 0,0.95401 -0.75309,2.23461 -1.67355,2.84576 -1.50664,1.00038 -1.83255,0.95224 -3.26761,-0.48286 z m -10.66647,-10.20516 c -2.19814,-2.19809 -0.42418,-5.22817 3.06071,-5.22817 1.64241,0 2.25057,0.44795 2.62308,1.93211 0.27809,1.10815 0.0803,2.41966 -0.46392,3.07539 -1.14259,1.37676 -3.94535,1.49524 -5.21987,0.22067 z m 84.10968,-53.5911 c -11.74609,-11.756033 -15.9277,-16.409863 -15.57372,-17.332263 0.3632,-0.94649 0.82228,-1.07489 1.8407,-0.51488 0.74632,0.41035 8.40129,7.835063 17.01109,16.499333 14.20617,14.29609 16.6628,17.41909 13.70204,17.41909 -0.50737,0 -8.14842,-7.23208 -16.98011,-16.07128 z m 23.04586,7.1746 c -0.66451,-0.6645 -1.20816,-1.67774 -1.20816,-2.25163 0,-1.34618 2.11364,-3.45982 3.45982,-3.45982 1.34617,0 3.45982,2.11364 3.45982,3.45982 0,1.34618 -2.11365,3.45982 -3.45982,3.45982 -0.57387,0 -1.58714,-0.54368 -2.25166,-1.20819 z m -9.99503,-9.99504 c -2.36836,-2.36841 -0.97629,-5.71144 2.37836,-5.71144 1.60958,0 3.33311,1.93327 3.33311,3.73878 0,1.11554 -2.24642,3.18086 -3.45982,3.18086 -0.57387,0 -1.58713,-0.54369 -2.25165,-1.2082 z m 12.01603,-2.02097 c -1.64334,-1.64331 -1.08415,-4.41869 1.08984,-5.40922 1.77612,-0.809273 2.18238,-0.70706 3.45982,0.87051 1.75975,2.17325 1.7895,2.70276 0.23919,4.25314 -1.43897,1.43891 -3.51187,1.56253 -4.78885,0.28557 z m 12.14781,-2.15278 c -1.92489,-1.92487 -1.92673,-2.68634 -0.0115,-4.601763 1.28752,-1.2875 1.82894,-1.38851 3.45982,-0.64544 2.30555,1.0505 2.62623,4.167323 0.58794,5.714623 -1.81118,1.3749 -2.24427,1.32475 -4.03646,-0.46742 z m -34.15888,-5.821283 c -2.58833,-2.58835 -0.56141,-6.29472 2.95923,-5.41109 2.50052,0.62757 3.28267,3.22113 1.54907,5.13668 -1.6275,1.79839 -2.90648,1.87624 -4.5083,0.27441 z m 12.01604,-2.02097 c -1.55416,-1.55418 -1.10276,-4.44087 0.80729,-5.1621 3.28967,-1.2422 5.3335,1.2742 3.95419,4.86856 -0.55004,1.43331 -3.44337,1.61168 -4.76148,0.29354 z m 38.07439,-1.57614 c -0.18829,-0.52859 0.76047,-2.51798 2.10826,-4.42088 6.82684,-9.63816 6.5968,-21.4501 -0.60162,-30.88767 -2.44463,-3.20508 -2.60471,-4.47938 -0.56265,-4.47938 2.8592,0 7.0808,7.11046 8.9135,15.0132 0.97013,4.18283 1.01926,5.91792 0.27871,9.83326 -0.97852,5.17376 -3.55616,10.62852 -6.54613,13.85311 -2.08958,2.25354 -3.06917,2.5505 -3.59007,1.08836 z m -26.54166,-0.73041 c -2.18638,-2.18636 -0.42725,-5.22817 3.02357,-5.22817 2.31901,0 3.42669,1.97372 2.58903,4.61309 -0.55557,1.75044 -4.0899,2.13776 -5.6126,0.61508 z m 12.58713,-1.82327 c -1.41676,-1.41678 -1.49356,-2.20385 -0.41226,-4.22429 1.4592,-2.7266 6.12373,-1.44153 6.12373,1.68709 0,1.58513 -1.99554,3.74539 -3.45982,3.74539 -0.57387,0 -1.58713,-0.54368 -2.25165,-1.20819 z m -45.99362,-3.46379 c -1.54454,-0.90271 -1.78234,-3.80979 -0.42286,-5.16928 1.4409,-1.44094 4.31685,-1.08767 5.2437,0.64411 0.86995,1.62551 0.37082,4.58406 -0.77331,4.58406 -0.35982,0 -1.11491,0.16369 -1.67809,0.36374 -0.56318,0.20006 -1.62942,0.01 -2.36944,-0.42263 z m 11.35836,-2.99681 c -1.28644,-1.42149 -1.29289,-1.64145 -0.10149,-3.45982 2.04522,-3.12135 5.85002,-2.13405 5.85002,1.518 0,3.41884 -3.37893,4.56022 -5.74853,1.94182 z m 13.62039,-0.58773 c -1.71776,-0.59303 -2.62377,-3.1272 -1.72107,-4.81391 1.57291,-2.93906 6.15079,-1.48589 6.15079,1.95248 0,1.71771 -2.69673,3.4597 -4.42972,2.86143 z m 11.15715,-2.56895 c -2.58802,-1.50739 -1.21201,-6.0892 1.82879,-6.0892 1.58506,0 3.74537,1.99555 3.74537,3.45982 0,1.29424 -2.10165,3.46794 -3.32251,3.43644 -0.49844,-0.0128 -1.51163,-0.37603 -2.25165,-0.80706 z m -22.71948,-8.54952 c -2.19814,-2.19809 -0.42418,-5.22817 3.06071,-5.22817 1.64241,0 2.25057,0.44795 2.62308,1.93211 0.27809,1.10815 0.0803,2.41966 -0.46392,3.07539 -1.14259,1.37676 -3.94535,1.49524 -5.21987,0.22067 z m 12.58713,-1.82327 c -1.4389,-1.43892 -1.56253,-3.51187 -0.28555,-4.78883 2.98621,-2.98621 7.67788,1.3276 4.84659,4.4562 -1.6787,1.8549 -2.9463,1.94734 -4.56104,0.33263 z"
       id="path4301"
       inkscape:connector-curvature="0" />
    <path
       style="fill:#ffffff"
       d="m 1576.5479,-1027.9365 0,-3.5847 12.347,0 12.347,0 0,-3.9321 c 0,-2.975 -0.092,-4.0577 -0.3765,-4.4476 -0.358,-0.49 -0.8658,-0.522 -10.2892,-0.6482 l -9.9127,-0.1328 -1.2381,-0.7278 c -2.5114,-1.4763 -2.979,-3.3142 -2.8296,-11.1204 0.1136,-5.9373 0.2812,-6.6338 1.9856,-8.2514 1.8138,-1.7214 1.194,-1.6659 19.5406,-1.7495 l 16.6618,-0.076 0,3.5941 0,3.5941 -12.347,0 -12.347,0 0,3.041 c 0,3.2613 0.2766,4.3288 1.174,4.5305 0.3036,0.068 4.7375,0.1549 9.8533,0.1927 l 9.3014,0.069 1.3173,0.6784 c 0.9345,0.4812 1.5495,1.0536 2.1163,1.9698 l 0.799,1.2913 0.089,6.7927 c 0.1016,7.8017 -0.058,8.9838 -1.4265,10.5829 -1.6767,1.9589 -1.2549,1.9186 -20.0843,1.9186 l -16.6809,0 0,-3.5846 z m 63.9921,-15.5334 0,-19.118 6.7709,0 6.771,0 0,19.118 0,19.118 -6.771,0 -6.7709,0 0,-19.118 z m 38.377,18.5205 c 0.097,-0.3286 2.9232,-8.9399 6.28,-19.1363 l 6.1031,-18.5389 5.7531,0.085 c 5.6892,0.084 5.7698,0.093 7.2729,0.8311 1.7263,0.8477 3.1016,2.3048 4.1824,4.4314 0.4082,0.8032 3.0401,8.4504 5.8488,16.9937 2.8085,8.5434 5.1593,15.623 5.2239,15.7325 0.064,0.1096 -2.9665,0.1966 -6.7357,0.1936 l -6.853,-0.01 -0.9404,-2.9816 -0.9405,-2.9815 -4.3195,-0.073 c -3.9506,-0.067 -4.3071,-0.1121 -4.174,-0.531 0.08,-0.252 0.6051,-1.8322 1.167,-3.5116 l 1.0215,-3.0536 1.9261,-0.079 c 1.3646,-0.056 1.8919,-0.1717 1.8086,-0.3983 -0.065,-0.1759 -0.636,-1.8731 -1.2698,-3.7716 l -1.1524,-3.4519 -3.4179,10.422 -3.418,10.4219 -6.7715,0 -6.7716,0 0.1769,-0.5974 z m 69.0288,0.2771 c -1.2738,-0.4453 -2.481,-1.4823 -3.1224,-2.6822 l -0.5949,-1.1131 -0.074,-17.0601 -0.074,-17.0602 6.7784,0 6.7785,0 0,14.9432 c 0,13.0951 0.051,15.0163 0.4133,15.5334 l 0.4134,0.5901 11.9337,0 11.9336,0 0,3.5847 0,3.5846 -16.7946,-0.021 c -10.9784,-0.014 -17.0704,-0.1174 -17.5912,-0.2994 z m -198.6966,-57.4537 c 0.096,-6.0679 0.043,-5.9525 2.7492,-5.9525 0.8999,0 2.3707,-0.077 3.2683,-0.1706 l 1.6321,-0.1706 0,-5.9365 0,-5.9366 -3.8501,0 -3.8502,0 0,-4.8974 c 0,-4.7943 0.014,-4.9132 0.6408,-5.6425 l 0.6409,-0.745 127.3434,-0.085 127.3434,-0.085 0,5.7275 0,5.7275 -4.2484,0 -4.2485,0 0,5.9744 0,5.9744 4.2485,0 4.2484,0 0,5.7088 0,5.7088 -128,0 -128,0 0.082,-5.1996 z m 208.8531,1.4823 43.3473,0 0,-1.9915 0,-1.9915 -124.3996,0 -124.3996,0 0,2.1684 0,2.1683 81.0523,-0.1768 c 44.5787,-0.097 100.5585,-0.1769 124.3996,-0.1769 z m -189.5203,-13.6747 0,-5.9744 -3.9829,0 -3.9829,0 0,5.9744 0,5.9744 3.9829,0 3.9829,0 0,-5.9744 z m 100.3694,0 0,-5.9744 -48.326,0 -48.326,0 0,5.9744 0,5.9744 48.326,0 48.326,0 0,-5.9744 z m 11.6832,0 0,-5.9744 -3.9829,0 -3.9829,0 0,5.9744 0,5.9744 3.9829,0 3.9829,0 0,-5.9744 z m 100.9005,0 0,-5.9744 -48.7622,0 -48.7621,0 0.1706,1.6321 c 0.094,0.8977 0.1706,3.5862 0.1706,5.9744 l 0,4.3423 48.5915,0 48.5916,0 0,-5.9744 z m 11.6832,0 0,-5.9744 -4.1157,0 -4.1157,0 0,5.9744 0,5.9744 4.1157,0 4.1157,0 0,-5.9744 z m 8.2313,-11.5505 0,-2.1242 -124.3996,0 -124.3996,0 0,2.1242 0,2.1243 124.3996,0 124.3996,0 0,-2.1243 z m -227.0259,-66.3818 0,-47.2639 47.1311,0 47.1311,0 0,47.2639 0,47.2639 -47.1311,0 -47.1311,0 0,-47.2639 z m 88.4206,0 0,-41.4223 -41.2895,0 -41.2895,0 0,41.4223 0,41.4223 41.2895,0 41.2895,0 0,-41.4223 z m -59.9131,33.2137 c -8.0868,-2.1962 -13.1659,-9.34 -13.1367,-18.4769 0.014,-4.4222 1.4525,-8.581 4.0621,-11.744 0.63,-0.7636 4.3118,-4.2778 8.1819,-7.8093 3.8701,-3.5315 8.1716,-7.46 9.559,-8.73 7.6806,-7.0311 12.9556,-11.8695 13.5419,-12.4209 3.0237,-2.8439 7.8033,-4.5832 11.5421,-4.2001 7.4151,0.7597 13.3672,6.5192 15.0212,14.5353 0.6216,3.0122 0.6449,4.4938 0.1182,7.5139 -0.8357,4.7922 -2.5608,7.6901 -7.0072,11.7709 -1.6933,1.5542 -3.1386,2.8916 -3.2116,2.9721 -0.073,0.08 -0.7899,0.7344 -1.5932,1.4532 -0.8032,0.7188 -2.1176,1.9161 -2.9208,2.6606 -0.8032,0.7445 -2.954,2.7204 -4.7795,4.3909 -1.8255,1.6705 -3.3788,3.1019 -3.4518,3.181 -0.073,0.079 -0.7302,0.6736 -1.4604,1.3211 -0.7302,0.6476 -2.7018,2.4505 -4.3812,4.0066 -8.037,7.4464 -9.4618,8.5209 -12.4798,9.4111 -2.367,0.6981 -5.3977,0.7637 -7.6042,0.1645 z m -7.9833,-16.8674 c 0.2222,-1.3689 1.606,-4.085 2.8306,-5.5557 0.5911,-0.7099 2.7772,-3.0816 4.858,-5.2703 2.0808,-2.1887 3.8218,-4.0834 3.8689,-4.2104 0.1169,-0.315 -1.561,-2.372 -1.9348,-2.372 -0.415,0 -5.49,5.0561 -7.2028,7.1761 -2.6098,3.23 -3.6183,6.3929 -3.1736,9.9525 0.2006,1.6057 0.5194,1.7241 0.7537,0.2798 z m 39.9715,-10.83 c 9.5931,-8.7628 9.9183,-9.0967 10.9115,-11.2045 0.9112,-1.9339 1.3473,-3.8741 1.3473,-5.995 0,-7.7682 -6.3516,-13.9903 -13.097,-12.8299 -3.0495,0.5246 -3.9882,1.167 -10.4022,7.1187 -1.6064,1.4906 -4.0858,3.7624 -5.5097,5.0484 -1.4239,1.286 -2.584,2.4093 -2.578,2.4962 0.01,0.087 0.604,0.4363 1.329,0.7763 3.9973,1.8748 8.2118,6.6691 10.894,12.3926 0.9992,2.1321 2.1046,5.2233 2.1046,5.8854 0,0.195 0.1293,0.3545 0.2873,0.3545 0.1581,0 2.279,-1.8192 4.7132,-4.0427 z m -22.7162,-9.175 c 0.8352,-0.844 1.5185,-1.6002 1.5185,-1.6806 0,-0.08 -0.5928,-0.4236 -1.3172,-0.763 l -1.3172,-0.6169 -1.2274,1.0057 c -0.6751,0.5532 -1.293,1.1767 -1.3732,1.3857 -0.1537,0.4004 1.4092,2.2036 1.9099,2.2036 0.1585,0 0.9715,-0.6906 1.8066,-1.5345 z m 71.6178,3.6587 0,-47.2639 47.1311,0 47.1311,0 0,47.2639 0,47.2639 -47.1311,0 -47.1311,0 0,-47.2639 z m 88.4206,0 0,-41.4223 -41.2895,0 -41.2895,0 0,41.4223 0,41.4223 41.2895,0 41.2895,0 0,-41.4223 z m -63.4611,35.972 c 0,-2.1682 0.3858,-3.4092 1.3184,-4.2415 0.5636,-0.503 1.0879,-0.5391 9.9275,-0.6844 10.2647,-0.1687 10.6187,-0.2176 14.112,-1.9484 4.1898,-2.076 7.4775,-5.983 8.9567,-10.6436 0.7889,-2.4857 0.838,-7.6771 0.095,-10.09 -0.6144,-1.9963 -1.5511,-3.8858 -2.7248,-5.4963 l -0.9094,-1.2478 0.7789,-0.4028 c 1.0349,-0.5352 2.8707,-2.6475 3.2766,-3.77 0.1788,-0.4945 0.4152,-0.8991 0.5253,-0.8991 0.4677,0 2.8826,3.3855 4.0287,5.6481 3.6751,7.2547 3.5176,16.0213 -0.414,23.0516 -0.9626,1.7213 -3.4867,5.0772 -3.9439,5.2436 -0.1337,0.049 -0.2432,0.198 -0.2432,0.3319 0,0.1339 1.0195,0.2434 2.2655,0.2434 4.0858,0 5.0234,0.8376 5.0315,4.4946 l 0.01,2.2763 -21.0431,0.068 -21.043,0.068 0,-2.0016 z m 11.4177,-14.4881 c -0.9492,-0.5694 -1.7614,-1.1987 -1.8047,-1.3984 -0.083,-0.3841 2.3235,-4.6849 2.6218,-4.6849 0.3585,0 4.0222,2.2364 4.1318,2.5222 0.1949,0.5079 -2.3025,4.6498 -2.7866,4.6217 -0.24,-0.014 -1.213,-0.4913 -2.1623,-1.0606 z m -8.3641,-4.8674 c -1.1151,-0.6809 -1.8237,-1.2839 -1.7713,-1.5073 0.1509,-0.6432 2.2887,-4.2804 2.5836,-4.396 0.3467,-0.1357 4.1099,2.0145 4.2739,2.442 0.1857,0.484 -2.3509,4.6379 -2.8185,4.6156 -0.2249,-0.011 -1.2454,-0.5301 -2.2677,-1.1543 z m 15.9317,-0.073 c -2.3437,-1.2579 -15.4517,-8.9306 -15.7455,-9.2164 -0.2822,-0.2746 -0.2581,-0.4873 0.1328,-1.1719 0.7934,-1.3895 -0.4857,-1.9525 12.099,5.3253 3.0328,1.7539 5.581,3.2969 5.6626,3.429 0.1727,0.2794 -0.7014,1.8725 -1.0893,1.9852 -0.1447,0.042 -0.6215,-0.116 -1.0596,-0.3512 z m -5.4434,-8.6783 c -2.9003,-1.6963 -4.616,-2.8541 -4.5649,-3.0806 0.2001,-0.8884 17.1934,-29.8295 17.716,-30.1719 0.4509,-0.2954 0.7547,-0.3184 1.3276,-0.1006 0.4086,0.1553 0.8327,0.1884 0.9425,0.073 0.1098,-0.115 1.1103,-1.7839 2.2234,-3.7088 1.563,-2.7027 1.9865,-3.6486 1.8598,-4.1534 -0.1799,-0.7166 0.4752,-2.2438 1.0584,-2.4676 0.405,-0.1554 7.0385,3.5776 7.2383,4.0733 0.2293,0.5693 -0.9688,2.1973 -1.6171,2.1973 -0.4824,0 -0.9919,0.7018 -2.7742,3.8219 l -2.1832,3.8219 0.8044,0.8044 c 0.4424,0.4425 0.8044,0.9096 0.8044,1.0381 0,0.1901 -4.3831,7.9962 -4.6265,8.2396 -0.039,0.039 -0.5365,-0.1229 -1.1048,-0.3603 -1.5998,-0.6684 -4.9587,-0.4152 -6.3502,0.4788 -2.4537,1.5764 -3.5696,3.5702 -3.5788,6.3938 -0.01,2.1645 0.7252,3.8287 2.3707,5.3879 0.5914,0.5605 1.0753,1.0984 1.0753,1.1954 0,0.4977 -5.2625,9.1457 -5.5905,9.1869 -0.2111,0.027 -2.4749,-1.1748 -5.0306,-2.6695 z m 13.6747,-7.7745 c -0.2921,-0.061 -0.8029,-0.1696 -1.1352,-0.2407 -0.3323,-0.071 -1.0721,-0.5519 -1.644,-1.0686 -2.8402,-2.566 -2.3095,-7.0041 1.0533,-8.8079 1.0024,-0.5377 1.4595,-0.6209 2.8378,-0.517 2.0197,0.1524 3.2994,0.8864 4.1873,2.4015 1.3758,2.3479 1.0298,5.1851 -0.832,6.8197 -1.2841,1.1274 -3.0969,1.7009 -4.4672,1.413 z m -161.5734,-109.7536 0,-47.2639 47.1311,0 47.1311,0 0,47.2639 0,47.2638 -47.1311,0 -47.1311,0 0,-47.2638 z m 88.4206,0 0,-41.4223 -41.2895,0 -41.2895,0 0,41.4223 0,41.4222 41.2895,0 41.2895,0 0,-41.4222 z m -66.3819,33.4909 c -5.6578,-1.4744 -9.559,-6.4432 -9.559,-12.175 0,-2.4254 0.7322,-4.7091 2.2368,-6.9775 0.8111,-1.2228 44.7169,-45.2694 46.907,-47.0575 6.6752,-5.4497 16.7538,-2.4476 19.5903,5.8355 1.1733,3.4264 0.5974,7.7303 -1.4478,10.8191 -0.4835,0.7302 -11.3698,11.7901 -24.1917,24.5774 -25.3698,25.3013 -24.2184,24.2721 -28.0923,25.1109 -2.0715,0.4486 -3.33,0.4179 -5.4433,-0.1329 z m 5.2185,-2.0486 c 2.6202,-0.4033 3.0373,-0.7859 27.33,-25.0697 26.6878,-26.6779 24.9315,-24.6109 24.9315,-29.3408 0,-2.4489 -0.066,-2.7912 -0.8528,-4.4048 -2.5325,-5.1959 -8.6237,-7.3223 -13.8773,-4.8444 -1.2438,0.5867 -4.8783,4.0998 -24.5074,23.6887 -12.6758,12.65 -23.4027,23.5325 -23.8374,24.1835 -0.9554,1.4307 -1.8398,4.1706 -1.8398,5.6999 0,2.2511 1.21,5.2751 2.827,7.0649 1.7782,1.9683 5.7301,3.616 7.9268,3.3051 0.4381,-0.062 1.2928,-0.1891 1.8994,-0.2824 z m -9.5147,-3.7611 c -0.8761,-1.0289 -1.5137,-2.4206 -1.9583,-4.274 -0.3913,-1.6313 -0.4194,-2.2114 -0.1716,-3.5436 0.4685,-2.5197 2.1715,-5.5252 3.1306,-5.5252 0.6052,0 0.4368,0.651 -0.5459,2.1114 -0.5064,0.7524 -1.0435,1.8099 -1.1934,2.35 -0.6776,2.4395 -0.035,5.9617 1.4399,7.8957 0.3708,0.4861 0.6741,1.0113 0.6741,1.1671 0,0.4519 -0.942,0.3276 -1.3754,-0.1814 z m 12.0599,-3.4474 c -0.1843,-0.064 -0.4573,-0.3457 -0.6068,-0.6251 -0.606,-1.1322 1.0348,-2.1793 1.8589,-1.1863 0.7042,0.8485 -0.2128,2.175 -1.2521,1.8114 z m 3.8532,-0.8887 c -0.8938,-0.5206 -0.4186,-2.103 0.6315,-2.103 0.5475,0 1.2935,0.6892 1.2935,1.1949 0,0.447 -0.7258,1.1977 -1.1474,1.1868 -0.1721,0 -0.5221,-0.1298 -0.7776,-0.2787 z m -7.5799,-2.7853 c -1.0028,-0.7025 -0.5969,-1.9729 0.6304,-1.9729 1.2085,0 1.537,1.334 0.4981,2.0226 -0.463,0.3068 -0.6299,0.2995 -1.1285,-0.05 z m 4.0806,-0.797 c -0.818,-0.818 -0.3372,-1.9725 0.8214,-1.9725 0.5558,0 1.1511,0.6677 1.1511,1.2912 0,0.3852 -0.7758,1.0985 -1.1949,1.0985 -0.1982,0 -0.5481,-0.1877 -0.7776,-0.4172 z m 4.1498,-0.698 c -0.9013,-0.9013 0.1586,-2.4028 1.2745,-1.8056 0.6526,0.3493 0.7305,1.7254 0.1111,1.9631 -0.6304,0.2419 -1.0319,0.1962 -1.3856,-0.1575 z m 4.0975,-0.7741 c -0.5043,-0.72 -0.183,-1.6646 0.606,-1.7821 1.2008,-0.1786 1.8414,1.2488 0.8859,1.9742 -0.6599,0.5008 -1.0408,0.4518 -1.4919,-0.1921 z m -15.505,-0.9519 c -0.5968,-0.2242 -0.9051,-1.092 -0.5943,-1.6727 0.5399,-1.0088 2.3005,-0.4284 2.0797,0.6857 -0.1083,0.5467 -1.0289,1.1584 -1.4854,0.987 z m 3.8532,-0.8974 c -0.5333,-0.3107 -0.6155,-1.3148 -0.146,-1.7843 0.7765,-0.7765 2.2352,0.065 1.9116,1.1033 -0.2931,0.94 -0.9114,1.1784 -1.7656,0.681 z m 4.1024,-0.8284 c -0.9012,-0.9013 0.1587,-2.4028 1.2746,-1.8056 0.5293,0.2833 0.6459,0.5722 0.5359,1.3276 -0.1122,0.7707 -1.2242,1.0642 -1.8105,0.478 z m 5.8238,-5.822 c -3.0955,-3.0936 -5.5847,-5.7556 -5.5314,-5.9156 0.053,-0.16 0.2662,-0.3229 0.4731,-0.362 0.493,-0.093 11.4893,10.9424 11.3425,11.383 -0.062,0.186 -0.235,0.3789 -0.3844,0.4287 -0.1494,0.05 -2.8043,-2.4405 -5.8998,-5.5341 z m -1.8408,5.0254 c -0.7063,-0.7063 -0.1603,-1.8056 0.8968,-1.8056 0.7948,0 1.2691,0.6482 1.0661,1.4569 -0.1287,0.5126 -0.3387,0.6673 -0.9059,0.6673 -0.4061,0 -0.8818,-0.1434 -1.057,-0.3186 z m 3.0645,-6.2554 c -3.1751,-3.1776 -5.7729,-5.972 -5.7729,-6.2098 0,-0.557 17.7076,-18.2829 18.264,-18.2829 0.4965,0 12.0061,11.4931 12.0061,11.9889 0,0.4868 -17.8306,18.2812 -18.3184,18.2812 -0.2232,0 -3.0036,-2.5998 -6.1788,-5.7774 z m 14.0083,-4.8431 7.6962,-7.6996 -4.5087,-4.5146 c -2.4798,-2.483 -4.6303,-4.5146 -4.7789,-4.5146 -0.1486,0 -3.7182,3.4496 -7.9324,7.6657 l -7.6623,7.6657 4.4777,4.5306 c 2.4627,2.4918 4.5979,4.5386 4.7449,4.5485 0.1469,0.01 3.7305,-3.4468 7.9635,-7.6817 z m -28.6574,9.1412 c -0.8234,-0.8234 -0.3361,-1.9725 0.8364,-1.9725 0.4072,0 0.7239,0.2358 0.9331,0.695 0.2795,0.6134 0.2441,0.7537 -0.3007,1.1949 -0.7505,0.6077 -0.9334,0.618 -1.4688,0.083 z m 4.2101,-0.5826 c -0.5874,-0.4022 -0.6347,-1.1342 -0.1074,-1.6615 0.8607,-0.8606 1.8527,-0.502 1.8527,0.6699 0,0.9658 -0.9745,1.5194 -1.7453,0.9916 z m 4.1545,-0.8394 c -0.3028,-0.3028 -0.5505,-0.67 -0.5505,-0.8161 0,-0.146 0.2477,-0.5132 0.5505,-0.816 0.4956,-0.4956 0.6081,-0.5123 1.1285,-0.1667 0.3179,0.211 0.5779,0.6533 0.5779,0.9827 0,0.3295 -0.26,0.7718 -0.5779,0.9828 -0.5204,0.3455 -0.6329,0.3289 -1.1285,-0.1667 z m -3.6838,-3.5244 c -0.7591,-0.7591 -0.1465,-1.8056 1.0571,-1.8056 0.5672,0 0.7772,0.1547 0.9059,0.6673 0.096,0.3827 0.028,0.8356 -0.1602,1.0621 -0.3946,0.4754 -1.3626,0.5164 -1.8028,0.076 z m 29.0479,-18.5081 c -4.0566,-4.06 -5.5007,-5.6673 -5.3785,-5.9858 0.1255,-0.3269 0.284,-0.3712 0.6357,-0.1779 0.2578,0.1418 2.9015,2.706 5.8749,5.6982 4.9062,4.9373 5.7546,6.0158 4.7321,6.0158 -0.1752,0 -2.8141,-2.4976 -5.8642,-5.5503 z m 7.9591,2.4778 c -0.2295,-0.2295 -0.4173,-0.5794 -0.4173,-0.7776 0,-0.4649 0.73,-1.1949 1.1949,-1.1949 0.4649,0 1.1949,0.73 1.1949,1.1949 0,0.4649 -0.73,1.1949 -1.1949,1.1949 -0.1982,0 -0.5481,-0.1878 -0.7776,-0.4173 z m -3.4519,-3.4519 c -0.8179,-0.8179 -0.3372,-1.9724 0.8214,-1.9724 0.5559,0 1.1511,0.6676 1.1511,1.2912 0,0.3852 -0.7758,1.0985 -1.1949,1.0985 -0.1982,0 -0.5481,-0.1878 -0.7776,-0.4173 z m 4.1498,-0.6979 c -0.5675,-0.5676 -0.3744,-1.5261 0.3764,-1.8681 0.6134,-0.2795 0.7537,-0.2442 1.1949,0.3006 0.6077,0.7506 0.618,0.9334 0.083,1.4689 -0.4969,0.4969 -1.2128,0.5396 -1.6539,0.099 z m 4.1954,-0.7435 c -0.6648,-0.6648 -0.6654,-0.9277 0,-1.5893 0.4446,-0.4446 0.6316,-0.4795 1.1949,-0.2229 0.7962,0.3629 0.907,1.4393 0.203,1.9736 -0.6255,0.4749 -0.7751,0.4576 -1.394,-0.1614 z m -11.797,-2.0104 c -0.8939,-0.8939 -0.1939,-2.1739 1.022,-1.8688 0.8635,0.2168 1.1336,1.1125 0.535,1.774 -0.5621,0.6211 -1.0038,0.648 -1.557,0.095 z m 4.1498,-0.698 c -0.5368,-0.5367 -0.3809,-1.5337 0.2788,-1.7828 1.1361,-0.4289 1.8419,0.4401 1.3656,1.6814 -0.19,0.495 -1.1892,0.5566 -1.6444,0.1014 z m 13.1493,-0.5443 c -0.065,-0.1826 0.2626,-0.8696 0.7281,-1.5268 2.3576,-3.3286 2.2782,-7.4079 -0.2078,-10.6673 -0.8443,-1.1069 -0.8996,-1.547 -0.1943,-1.547 0.9874,0 2.4454,2.4557 3.0783,5.185 0.335,1.4445 0.352,2.0438 0.096,3.3959 -0.338,1.7869 -1.2282,3.6707 -2.2608,4.7843 -0.7217,0.7783 -1.0599,0.8808 -1.2398,0.3759 z m -9.1664,-0.2523 c -0.7551,-0.755 -0.1475,-1.8055 1.0442,-1.8055 0.8009,0 1.1835,0.6816 0.8941,1.5931 -0.1918,0.6045 -1.4124,0.7383 -1.9383,0.2124 z m 4.347,-0.6296 c -0.4892,-0.4893 -0.5158,-0.7612 -0.1423,-1.4589 0.5039,-0.9417 2.1148,-0.4979 2.1148,0.5826 0,0.5475 -0.6891,1.2935 -1.1948,1.2935 -0.1982,0 -0.5482,-0.1877 -0.7777,-0.4172 z m -15.8842,-1.1963 c -0.5334,-0.3117 -0.6155,-1.3157 -0.146,-1.7852 0.4976,-0.4977 1.4909,-0.3757 1.8109,0.2224 0.3005,0.5614 0.1281,1.5832 -0.267,1.5832 -0.1243,0 -0.3851,0.056 -0.5796,0.1256 -0.1945,0.069 -0.5627,0 -0.8183,-0.146 z m 3.9227,-1.035 c -0.4443,-0.4909 -0.4465,-0.5668 -0.035,-1.1948 0.7063,-1.078 2.0203,-0.737 2.0203,0.5242 0,1.1807 -1.1669,1.5749 -1.9853,0.6706 z m 4.7039,-0.2029 c -0.5932,-0.2048 -0.9061,-1.08 -0.5944,-1.6625 0.5432,-1.0151 2.1242,-0.5132 2.1242,0.6743 0,0.5932 -0.9313,1.1948 -1.5298,0.9882 z m 3.8532,-0.8872 c -0.8938,-0.5206 -0.4185,-2.103 0.6316,-2.103 0.5474,0 1.2935,0.6892 1.2935,1.1949 0,0.447 -0.7258,1.1977 -1.1475,1.1868 -0.1721,0 -0.522,-0.1299 -0.7776,-0.2787 z m -7.8463,-2.9527 c -0.7591,-0.7591 -0.1465,-1.8056 1.057,-1.8056 0.5672,0 0.7773,0.1547 0.9059,0.6673 0.096,0.3827 0.028,0.8357 -0.1602,1.0621 -0.3946,0.4755 -1.3625,0.5164 -1.8027,0.076 z m 4.347,-0.6296 c -0.4969,-0.497 -0.5396,-1.2129 -0.099,-1.6539 1.0313,-1.0313 2.6517,0.4585 1.6738,1.539 -0.5797,0.6406 -1.0175,0.6725 -1.5752,0.1149 z"
       id="path4943"
       inkscape:connector-curvature="0" />
  </g>
</svg>
