<?xml version="1.0" encoding="UTF-8" standalone="no"?>
<!DOCTYPE svg PUBLIC "-//W3C//DTD SVG 1.1//EN"
 "http://www.w3.org/Graphics/SVG/1.1/DTD/svg11.dtd">
<!-- Generated by graphviz version 2.40.1 (20161225.0304)
 -->
<!-- Title: dependencies Pages: 1 -->
<svg width="1328pt" height="211pt"
 viewBox="0.00 0.00 1328.00 211.00" xmlns="http://www.w3.org/2000/svg" xmlns:xlink="http://www.w3.org/1999/xlink">
<g id="graph0" class="graph" transform="scale(1 1) rotate(0) translate(4 207)">
<title>dependencies</title>
<polygon fill="#ffffff" stroke="transparent" points="-4,4 -4,-207 1324,-207 1324,4 -4,4"/>
<text text-anchor="start" x="639.0091" y="-42.4" font-family="sans-serif" font-weight="bold" font-size="14.00" fill="#000000">Legend</text>
<polygon fill="#ffffb3" stroke="transparent" points="426,-10 426,-30 446,-30 446,-10 426,-10"/>
<text text-anchor="start" x="449.629" y="-15.4" font-family="sans-serif" font-size="14.00" fill="#000000"> &#160;Declarations</text>
<polygon fill="#8dd3c7" stroke="transparent" points="539,-10 539,-30 559,-30 559,-10 539,-10"/>
<text text-anchor="start" x="562.7251" y="-15.4" font-family="sans-serif" font-size="14.00" fill="#000000"> &#160;Module</text>
<polygon fill="#80b1d3" stroke="transparent" points="625,-10 625,-30 645,-30 645,-10 625,-10"/>
<text text-anchor="start" x="648.7812" y="-15.4" font-family="sans-serif" font-size="14.00" fill="#000000"> &#160;Bootstrap</text>
<polygon fill="#fdb462" stroke="transparent" points="722,-10 722,-30 742,-30 742,-10 722,-10"/>
<text text-anchor="start" x="745.6732" y="-15.4" font-family="sans-serif" font-size="14.00" fill="#000000"> &#160;Providers</text>
<polygon fill="#fb8072" stroke="transparent" points="818,-10 818,-30 838,-30 838,-10 818,-10"/>
<text text-anchor="start" x="841.7258" y="-15.4" font-family="sans-serif" font-size="14.00" fill="#000000"> &#160;Exports</text>
<g id="clust1" class="cluster">
<title>cluster_MisFirmantesModule</title>
<polygon fill="none" stroke="#000000" stroke-dasharray="1,5" points="8,-70 8,-195 1312,-195 1312,-70 8,-70"/>
</g>
<g id="clust2" class="cluster">
<title>cluster_MisFirmantesModule_declarations</title>
<polygon fill="none" stroke="#000000" points="1144,-78 1144,-130 1304,-130 1304,-78 1144,-78"/>
</g>
<g id="clust4" class="cluster">
<title>cluster_MisFirmantesModule_imports</title>
<polygon fill="none" stroke="#000000" points="326,-78 326,-130 1136,-130 1136,-78 326,-78"/>
</g>
<g id="clust7" class="cluster">
<title>cluster_MisFirmantesModule_providers</title>
<polygon fill="none" stroke="#000000" points="16,-78 16,-130 318,-130 318,-78 16,-78"/>
</g>
<!-- FormularioComponent -->
<g id="node1" class="node">
<title>FormularioComponent</title>
<polygon fill="#ffffb3" stroke="#000000" points="1296.323,-122 1151.677,-122 1151.677,-86 1296.323,-86 1296.323,-122"/>
<text text-anchor="middle" x="1224" y="-99.8" font-family="Times,serif" font-size="14.00" fill="#000000">FormularioComponent</text>
</g>
<!-- MisFirmantesModule -->
<g id="node2" class="node">
<title>MisFirmantesModule</title>
<polygon fill="#8dd3c7" stroke="#000000" points="730.8188,-187 727.8188,-191 706.8188,-191 703.8188,-187 593.1812,-187 593.1812,-151 730.8188,-151 730.8188,-187"/>
<text text-anchor="middle" x="662" y="-164.8" font-family="Times,serif" font-size="14.00" fill="#000000">MisFirmantesModule</text>
</g>
<!-- FormularioComponent&#45;&gt;MisFirmantesModule -->
<g id="edge1" class="edge">
<title>FormularioComponent&#45;&gt;MisFirmantesModule</title>
<path fill="none" stroke="#000000" d="M1224,-122.0109C1224,-144.4852 1224,-180 1224,-180 1224,-180 740.9122,-180 740.9122,-180"/>
<polygon fill="#000000" stroke="#000000" points="740.9123,-176.5001 730.9122,-180 740.9122,-183.5001 740.9123,-176.5001"/>
</g>
<!-- FirmantesRoutingModule -->
<g id="node3" class="node">
<title>FirmantesRoutingModule</title>
<polygon fill="#8dd3c7" stroke="#000000" points="1128.1568,-122 1125.1568,-126 1104.1568,-126 1101.1568,-122 967.8432,-122 967.8432,-86 1128.1568,-86 1128.1568,-122"/>
<text text-anchor="middle" x="1048" y="-99.8" font-family="Times,serif" font-size="14.00" fill="#000000">FirmantesRoutingModule</text>
</g>
<!-- FirmantesRoutingModule&#45;&gt;MisFirmantesModule -->
<g id="edge2" class="edge">
<title>FirmantesRoutingModule&#45;&gt;MisFirmantesModule</title>
<path fill="none" stroke="#000000" d="M1048,-122.1289C1048,-142.5724 1048,-173 1048,-173 1048,-173 741.0091,-173 741.0091,-173"/>
<polygon fill="#000000" stroke="#000000" points="741.0091,-169.5001 731.0091,-173 741.009,-176.5001 741.0091,-169.5001"/>
</g>
<!-- HubModule -->
<g id="node4" class="node">
<title>HubModule</title>
<polygon fill="#8dd3c7" stroke="#000000" points="949.6571,-122 946.6571,-126 925.6571,-126 922.6571,-122 866.3429,-122 866.3429,-86 949.6571,-86 949.6571,-122"/>
<text text-anchor="middle" x="908" y="-99.8" font-family="Times,serif" font-size="14.00" fill="#000000">HubModule</text>
</g>
<!-- HubModule&#45;&gt;MisFirmantesModule -->
<g id="edge3" class="edge">
<title>HubModule&#45;&gt;MisFirmantesModule</title>
<path fill="none" stroke="#000000" d="M908,-122.2667C908,-140.5552 908,-166 908,-166 908,-166 740.8518,-166 740.8518,-166"/>
<polygon fill="#000000" stroke="#000000" points="740.8519,-162.5001 730.8518,-166 740.8518,-169.5001 740.8519,-162.5001"/>
</g>
<!-- PerfilModule -->
<g id="node5" class="node">
<title>PerfilModule</title>
<polygon fill="#8dd3c7" stroke="#000000" points="848.1501,-122 845.1501,-126 824.1501,-126 821.1501,-122 757.8499,-122 757.8499,-86 848.1501,-86 848.1501,-122"/>
<text text-anchor="middle" x="803" y="-99.8" font-family="Times,serif" font-size="14.00" fill="#000000">PerfilModule</text>
</g>
<!-- PerfilModule&#45;&gt;MisFirmantesModule -->
<g id="edge4" class="edge">
<title>PerfilModule&#45;&gt;MisFirmantesModule</title>
<path fill="none" stroke="#000000" d="M803,-122.0091C803,-138.0494 803,-159 803,-159 803,-159 740.8478,-159 740.8478,-159"/>
<polygon fill="#000000" stroke="#000000" points="740.8478,-155.5001 730.8478,-159 740.8478,-162.5001 740.8478,-155.5001"/>
</g>
<!-- BloquearPantallaModule -->
<g id="node6" class="node">
<title>BloquearPantallaModule</title>
<polygon fill="#8dd3c7" stroke="#000000" points="739.965,-122 736.965,-126 715.965,-126 712.965,-122 584.035,-122 584.035,-86 739.965,-86 739.965,-122"/>
<text text-anchor="middle" x="662" y="-99.8" font-family="Times,serif" font-size="14.00" fill="#000000">BloquearPantallaModule</text>
</g>
<!-- BloquearPantallaModule&#45;&gt;MisFirmantesModule -->
<g id="edge5" class="edge">
<title>BloquearPantallaModule&#45;&gt;MisFirmantesModule</title>
<path fill="none" stroke="#000000" d="M662,-122.1061C662,-122.1061 662,-140.991 662,-140.991"/>
<polygon fill="#000000" stroke="#000000" points="658.5001,-140.9909 662,-150.991 665.5001,-140.991 658.5001,-140.9909"/>
</g>
<!-- PaginacionModule -->
<g id="node7" class="node">
<title>PaginacionModule</title>
<polygon fill="#8dd3c7" stroke="#000000" points="565.7576,-122 562.7576,-126 541.7576,-126 538.7576,-122 444.2424,-122 444.2424,-86 565.7576,-86 565.7576,-122"/>
<text text-anchor="middle" x="505" y="-99.8" font-family="Times,serif" font-size="14.00" fill="#000000">PaginacionModule</text>
</g>
<!-- PaginacionModule&#45;&gt;MisFirmantesModule -->
<g id="edge6" class="edge">
<title>PaginacionModule&#45;&gt;MisFirmantesModule</title>
<path fill="none" stroke="#000000" d="M505,-122.0091C505,-138.0494 505,-159 505,-159 505,-159 583.1375,-159 583.1375,-159"/>
<polygon fill="#000000" stroke="#000000" points="583.1375,-162.5001 593.1375,-159 583.1375,-155.5001 583.1375,-162.5001"/>
</g>
<!-- MenuModule -->
<g id="node8" class="node">
<title>MenuModule</title>
<polygon fill="#8dd3c7" stroke="#000000" points="426.2092,-122 423.2092,-126 402.2092,-126 399.2092,-122 333.7908,-122 333.7908,-86 426.2092,-86 426.2092,-122"/>
<text text-anchor="middle" x="380" y="-99.8" font-family="Times,serif" font-size="14.00" fill="#000000">MenuModule</text>
</g>
<!-- MenuModule&#45;&gt;MisFirmantesModule -->
<g id="edge7" class="edge">
<title>MenuModule&#45;&gt;MisFirmantesModule</title>
<path fill="none" stroke="#000000" d="M380,-122.2667C380,-140.5552 380,-166 380,-166 380,-166 583.015,-166 583.015,-166"/>
<polygon fill="#000000" stroke="#000000" points="583.0151,-169.5001 593.015,-166 583.015,-162.5001 583.0151,-169.5001"/>
</g>
<!-- AuthService -->
<g id="node9" class="node">
<title>AuthService</title>
<ellipse fill="#fdb462" stroke="#000000" cx="251" cy="-104" rx="59.1083" ry="18"/>
<text text-anchor="middle" x="251" y="-99.8" font-family="Times,serif" font-size="14.00" fill="#000000">AuthService</text>
</g>
<!-- AuthService&#45;&gt;MisFirmantesModule -->
<g id="edge8" class="edge">
<title>AuthService&#45;&gt;MisFirmantesModule</title>
<path fill="none" stroke="#000000" d="M251,-122.1289C251,-142.5724 251,-173 251,-173 251,-173 583.2078,-173 583.2078,-173"/>
<polygon fill="#000000" stroke="#000000" points="583.2079,-176.5001 593.2078,-173 583.2078,-169.5001 583.2079,-176.5001"/>
</g>
<!-- FirmanteService -->
<g id="node10" class="node">
<title>FirmanteService</title>
<ellipse fill="#fdb462" stroke="#000000" cx="99" cy="-104" rx="74.713" ry="18"/>
<text text-anchor="middle" x="99" y="-99.8" font-family="Times,serif" font-size="14.00" fill="#000000">FirmanteService</text>
</g>
<!-- FirmanteService&#45;&gt;MisFirmantesModule -->
<g id="edge9" class="edge">
<title>FirmanteService&#45;&gt;MisFirmantesModule</title>
<path fill="none" stroke="#000000" d="M99,-122.0109C99,-144.4852 99,-180 99,-180 99,-180 583.2468,-180 583.2468,-180"/>
<polygon fill="#000000" stroke="#000000" points="583.2468,-183.5001 593.2468,-180 583.2468,-176.5001 583.2468,-183.5001"/>
</g>
</g>
</svg>
