<?xml version="1.0" encoding="UTF-8" standalone="no"?>
<!DOCTYPE svg PUBLIC "-//W3C//DTD SVG 1.1//EN"
 "http://www.w3.org/Graphics/SVG/1.1/DTD/svg11.dtd">
<!-- Generated by graphviz version 2.40.1 (20161225.0304)
 -->
<!-- Title: dependencies Pages: 1 -->
<svg width="1946pt" height="211pt"
 viewBox="0.00 0.00 1946.00 211.00" xmlns="http://www.w3.org/2000/svg" xmlns:xlink="http://www.w3.org/1999/xlink">
<g id="graph0" class="graph" transform="scale(1 1) rotate(0) translate(4 207)">
<title>dependencies</title>
<polygon fill="#ffffff" stroke="transparent" points="-4,4 -4,-207 1942,-207 1942,4 -4,4"/>
<text text-anchor="start" x="948.0091" y="-42.4" font-family="sans-serif" font-weight="bold" font-size="14.00" fill="#000000">Legend</text>
<polygon fill="#ffffb3" stroke="transparent" points="735,-10 735,-30 755,-30 755,-10 735,-10"/>
<text text-anchor="start" x="758.629" y="-15.4" font-family="sans-serif" font-size="14.00" fill="#000000"> &#160;Declarations</text>
<polygon fill="#8dd3c7" stroke="transparent" points="848,-10 848,-30 868,-30 868,-10 848,-10"/>
<text text-anchor="start" x="871.7251" y="-15.4" font-family="sans-serif" font-size="14.00" fill="#000000"> &#160;Module</text>
<polygon fill="#80b1d3" stroke="transparent" points="934,-10 934,-30 954,-30 954,-10 934,-10"/>
<text text-anchor="start" x="957.7812" y="-15.4" font-family="sans-serif" font-size="14.00" fill="#000000"> &#160;Bootstrap</text>
<polygon fill="#fdb462" stroke="transparent" points="1031,-10 1031,-30 1051,-30 1051,-10 1031,-10"/>
<text text-anchor="start" x="1054.6732" y="-15.4" font-family="sans-serif" font-size="14.00" fill="#000000"> &#160;Providers</text>
<polygon fill="#fb8072" stroke="transparent" points="1127,-10 1127,-30 1147,-30 1147,-10 1127,-10"/>
<text text-anchor="start" x="1150.7258" y="-15.4" font-family="sans-serif" font-size="14.00" fill="#000000"> &#160;Exports</text>
<g id="clust1" class="cluster">
<title>cluster_PresentacionMedicamentoModule</title>
<polygon fill="none" stroke="#000000" stroke-dasharray="1,5" points="8,-70 8,-195 1930,-195 1930,-70 8,-70"/>
</g>
<g id="clust2" class="cluster">
<title>cluster_PresentacionMedicamentoModule_declarations</title>
<polygon fill="none" stroke="#000000" points="1634,-78 1634,-130 1922,-130 1922,-78 1634,-78"/>
</g>
<g id="clust5" class="cluster">
<title>cluster_PresentacionMedicamentoModule_imports</title>
<polygon fill="none" stroke="#000000" points="295,-78 295,-130 1626,-130 1626,-78 295,-78"/>
</g>
<g id="clust8" class="cluster">
<title>cluster_PresentacionMedicamentoModule_providers</title>
<polygon fill="none" stroke="#000000" points="16,-78 16,-130 287,-130 287,-78 16,-78"/>
</g>
<!-- ListaComponent -->
<g id="node1" class="node">
<title>ListaComponent</title>
<polygon fill="#ffffb3" stroke="#000000" points="1913.8259,-122 1804.1741,-122 1804.1741,-86 1913.8259,-86 1913.8259,-122"/>
<text text-anchor="middle" x="1859" y="-99.8" font-family="Times,serif" font-size="14.00" fill="#000000">ListaComponent</text>
</g>
<!-- PresentacionMedicamentoModule -->
<g id="node3" class="node">
<title>PresentacionMedicamentoModule</title>
<polygon fill="#8dd3c7" stroke="#000000" points="1006.052,-187 1003.052,-191 982.052,-191 979.052,-187 797.948,-187 797.948,-151 1006.052,-151 1006.052,-187"/>
<text text-anchor="middle" x="902" y="-164.8" font-family="Times,serif" font-size="14.00" fill="#000000">PresentacionMedicamentoModule</text>
</g>
<!-- ListaComponent&#45;&gt;PresentacionMedicamentoModule -->
<g id="edge1" class="edge">
<title>ListaComponent&#45;&gt;PresentacionMedicamentoModule</title>
<path fill="none" stroke="#000000" d="M1859,-122.0908C1859,-145.1328 1859,-182 1859,-182 1859,-182 1016.2375,-182 1016.2375,-182"/>
<polygon fill="#000000" stroke="#000000" points="1016.2376,-178.5001 1006.2375,-182 1016.2375,-185.5001 1016.2376,-178.5001"/>
</g>
<!-- FormularioComponent -->
<g id="node2" class="node">
<title>FormularioComponent</title>
<polygon fill="#ffffb3" stroke="#000000" points="1786.323,-122 1641.677,-122 1641.677,-86 1786.323,-86 1786.323,-122"/>
<text text-anchor="middle" x="1714" y="-99.8" font-family="Times,serif" font-size="14.00" fill="#000000">FormularioComponent</text>
</g>
<!-- FormularioComponent&#45;&gt;PresentacionMedicamentoModule -->
<g id="edge2" class="edge">
<title>FormularioComponent&#45;&gt;PresentacionMedicamentoModule</title>
<path fill="none" stroke="#000000" d="M1714,-122.2843C1714,-143.3211 1714,-175 1714,-175 1714,-175 1016.0785,-175 1016.0785,-175"/>
<polygon fill="#000000" stroke="#000000" points="1016.0785,-171.5001 1006.0785,-175 1016.0784,-178.5001 1016.0785,-171.5001"/>
</g>
<!-- PresentacionMedicamentoRoutingModule -->
<g id="node4" class="node">
<title>PresentacionMedicamentoRoutingModule</title>
<polygon fill="#8dd3c7" stroke="#000000" points="1617.6699,-122 1614.6699,-126 1593.6699,-126 1590.6699,-122 1364.3301,-122 1364.3301,-86 1617.6699,-86 1617.6699,-122"/>
<text text-anchor="middle" x="1491" y="-99.8" font-family="Times,serif" font-size="14.00" fill="#000000">PresentacionMedicamentoRoutingModule</text>
</g>
<!-- PresentacionMedicamentoRoutingModule&#45;&gt;PresentacionMedicamentoModule -->
<g id="edge3" class="edge">
<title>PresentacionMedicamentoRoutingModule&#45;&gt;PresentacionMedicamentoModule</title>
<path fill="none" stroke="#000000" d="M1491,-122.1061C1491,-141.3391 1491,-169 1491,-169 1491,-169 1016.2839,-169 1016.2839,-169"/>
<polygon fill="#000000" stroke="#000000" points="1016.284,-165.5001 1006.2839,-169 1016.2839,-172.5001 1016.284,-165.5001"/>
</g>
<!-- HubModule -->
<g id="node5" class="node">
<title>HubModule</title>
<polygon fill="#8dd3c7" stroke="#000000" points="1346.6571,-122 1343.6571,-126 1322.6571,-126 1319.6571,-122 1263.3429,-122 1263.3429,-86 1346.6571,-86 1346.6571,-122"/>
<text text-anchor="middle" x="1305" y="-99.8" font-family="Times,serif" font-size="14.00" fill="#000000">HubModule</text>
</g>
<!-- HubModule&#45;&gt;PresentacionMedicamentoModule -->
<g id="edge4" class="edge">
<title>HubModule&#45;&gt;PresentacionMedicamentoModule</title>
<path fill="none" stroke="#000000" d="M1305,-122.0225C1305,-139.3734 1305,-163 1305,-163 1305,-163 1016.0445,-163 1016.0445,-163"/>
<polygon fill="#000000" stroke="#000000" points="1016.0445,-159.5001 1006.0445,-163 1016.0444,-166.5001 1016.0445,-159.5001"/>
</g>
<!-- PerfilModule -->
<g id="node6" class="node">
<title>PerfilModule</title>
<polygon fill="#8dd3c7" stroke="#000000" points="1245.1501,-122 1242.1501,-126 1221.1501,-126 1218.1501,-122 1154.8499,-122 1154.8499,-86 1245.1501,-86 1245.1501,-122"/>
<text text-anchor="middle" x="1200" y="-99.8" font-family="Times,serif" font-size="14.00" fill="#000000">PerfilModule</text>
</g>
<!-- PerfilModule&#45;&gt;PresentacionMedicamentoModule -->
<g id="edge5" class="edge">
<title>PerfilModule&#45;&gt;PresentacionMedicamentoModule</title>
<path fill="none" stroke="#000000" d="M1200,-122.2396C1200,-137.5706 1200,-157 1200,-157 1200,-157 1016.2259,-157 1016.2259,-157"/>
<polygon fill="#000000" stroke="#000000" points="1016.226,-153.5001 1006.2259,-157 1016.2259,-160.5001 1016.226,-153.5001"/>
</g>
<!-- BloquearPantallaModule -->
<g id="node7" class="node">
<title>BloquearPantallaModule</title>
<polygon fill="#8dd3c7" stroke="#000000" points="1136.965,-122 1133.965,-126 1112.965,-126 1109.965,-122 981.035,-122 981.035,-86 1136.965,-86 1136.965,-122"/>
<text text-anchor="middle" x="1059" y="-99.8" font-family="Times,serif" font-size="14.00" fill="#000000">BloquearPantallaModule</text>
</g>
<!-- BloquearPantallaModule&#45;&gt;PresentacionMedicamentoModule -->
<g id="edge6" class="edge">
<title>BloquearPantallaModule&#45;&gt;PresentacionMedicamentoModule</title>
<path fill="none" stroke="#000000" d="M993.5218,-122.1061C993.5218,-122.1061 993.5218,-140.991 993.5218,-140.991"/>
<polygon fill="#000000" stroke="#000000" points="990.0218,-140.9909 993.5218,-150.991 997.0218,-140.991 990.0218,-140.9909"/>
</g>
<!-- PaginacionModule -->
<g id="node8" class="node">
<title>PaginacionModule</title>
<polygon fill="#8dd3c7" stroke="#000000" points="962.7576,-122 959.7576,-126 938.7576,-126 935.7576,-122 841.2424,-122 841.2424,-86 962.7576,-86 962.7576,-122"/>
<text text-anchor="middle" x="902" y="-99.8" font-family="Times,serif" font-size="14.00" fill="#000000">PaginacionModule</text>
</g>
<!-- PaginacionModule&#45;&gt;PresentacionMedicamentoModule -->
<g id="edge7" class="edge">
<title>PaginacionModule&#45;&gt;PresentacionMedicamentoModule</title>
<path fill="none" stroke="#000000" d="M902,-122.1061C902,-122.1061 902,-140.991 902,-140.991"/>
<polygon fill="#000000" stroke="#000000" points="898.5001,-140.9909 902,-150.991 905.5001,-140.991 898.5001,-140.9909"/>
</g>
<!-- MenuPanelModule -->
<g id="node9" class="node">
<title>MenuPanelModule</title>
<polygon fill="#8dd3c7" stroke="#000000" points="822.8118,-122 819.8118,-126 798.8118,-126 795.8118,-122 699.1882,-122 699.1882,-86 822.8118,-86 822.8118,-122"/>
<text text-anchor="middle" x="761" y="-99.8" font-family="Times,serif" font-size="14.00" fill="#000000">MenuPanelModule</text>
</g>
<!-- MenuPanelModule&#45;&gt;PresentacionMedicamentoModule -->
<g id="edge8" class="edge">
<title>MenuPanelModule&#45;&gt;PresentacionMedicamentoModule</title>
<path fill="none" stroke="#000000" d="M810.3149,-122.1061C810.3149,-122.1061 810.3149,-140.991 810.3149,-140.991"/>
<polygon fill="#000000" stroke="#000000" points="806.8149,-140.9909 810.3149,-150.991 813.8149,-140.991 806.8149,-140.9909"/>
</g>
<!-- MenuAsidePanelModule -->
<g id="node10" class="node">
<title>MenuAsidePanelModule</title>
<polygon fill="#8dd3c7" stroke="#000000" points="680.9678,-122 677.9678,-126 656.9678,-126 653.9678,-122 525.0322,-122 525.0322,-86 680.9678,-86 680.9678,-122"/>
<text text-anchor="middle" x="603" y="-99.8" font-family="Times,serif" font-size="14.00" fill="#000000">MenuAsidePanelModule</text>
</g>
<!-- MenuAsidePanelModule&#45;&gt;PresentacionMedicamentoModule -->
<g id="edge9" class="edge">
<title>MenuAsidePanelModule&#45;&gt;PresentacionMedicamentoModule</title>
<path fill="none" stroke="#000000" d="M603,-122.2396C603,-137.5706 603,-157 603,-157 603,-157 787.8441,-157 787.8441,-157"/>
<polygon fill="#000000" stroke="#000000" points="787.8441,-160.5001 797.8441,-157 787.844,-153.5001 787.8441,-160.5001"/>
</g>
<!-- CrudModule -->
<g id="node11" class="node">
<title>CrudModule</title>
<polygon fill="#8dd3c7" stroke="#000000" points="506.5482,-122 503.5482,-126 482.5482,-126 479.5482,-122 419.4518,-122 419.4518,-86 506.5482,-86 506.5482,-122"/>
<text text-anchor="middle" x="463" y="-99.8" font-family="Times,serif" font-size="14.00" fill="#000000">CrudModule</text>
</g>
<!-- CrudModule&#45;&gt;PresentacionMedicamentoModule -->
<g id="edge10" class="edge">
<title>CrudModule&#45;&gt;PresentacionMedicamentoModule</title>
<path fill="none" stroke="#000000" d="M463,-122.0225C463,-139.3734 463,-163 463,-163 463,-163 787.9631,-163 787.9631,-163"/>
<polygon fill="#000000" stroke="#000000" points="787.9632,-166.5001 797.9631,-163 787.9631,-159.5001 787.9632,-166.5001"/>
</g>
<!-- ParcialModule -->
<g id="node12" class="node">
<title>ParcialModule</title>
<polygon fill="#8dd3c7" stroke="#000000" points="401.4189,-122 398.4189,-126 377.4189,-126 374.4189,-122 302.5811,-122 302.5811,-86 401.4189,-86 401.4189,-122"/>
<text text-anchor="middle" x="352" y="-99.8" font-family="Times,serif" font-size="14.00" fill="#000000">ParcialModule</text>
</g>
<!-- ParcialModule&#45;&gt;PresentacionMedicamentoModule -->
<g id="edge11" class="edge">
<title>ParcialModule&#45;&gt;PresentacionMedicamentoModule</title>
<path fill="none" stroke="#000000" d="M352,-122.1061C352,-141.3391 352,-169 352,-169 352,-169 787.9026,-169 787.9026,-169"/>
<polygon fill="#000000" stroke="#000000" points="787.9026,-172.5001 797.9026,-169 787.9026,-165.5001 787.9026,-172.5001"/>
</g>
<!-- AuthService -->
<g id="node13" class="node">
<title>AuthService</title>
<ellipse fill="#fdb462" stroke="#000000" cx="220" cy="-104" rx="59.1083" ry="18"/>
<text text-anchor="middle" x="220" y="-99.8" font-family="Times,serif" font-size="14.00" fill="#000000">AuthService</text>
</g>
<!-- AuthService&#45;&gt;PresentacionMedicamentoModule -->
<g id="edge12" class="edge">
<title>AuthService&#45;&gt;PresentacionMedicamentoModule</title>
<path fill="none" stroke="#000000" d="M220,-122.2843C220,-143.3211 220,-175 220,-175 220,-175 787.6765,-175 787.6765,-175"/>
<polygon fill="#000000" stroke="#000000" points="787.6765,-178.5001 797.6765,-175 787.6765,-171.5001 787.6765,-178.5001"/>
</g>
<!-- CrudService -->
<g id="node14" class="node">
<title>CrudService</title>
<ellipse fill="#fdb462" stroke="#000000" cx="83" cy="-104" rx="59.1083" ry="18"/>
<text text-anchor="middle" x="83" y="-99.8" font-family="Times,serif" font-size="14.00" fill="#000000">CrudService</text>
</g>
<!-- CrudService&#45;&gt;PresentacionMedicamentoModule -->
<g id="edge13" class="edge">
<title>CrudService&#45;&gt;PresentacionMedicamentoModule</title>
<path fill="none" stroke="#000000" d="M83,-122.0908C83,-145.1328 83,-182 83,-182 83,-182 787.8575,-182 787.8575,-182"/>
<polygon fill="#000000" stroke="#000000" points="787.8575,-185.5001 797.8575,-182 787.8574,-178.5001 787.8575,-185.5001"/>
</g>
</g>
</svg>
