<?xml version="1.0" encoding="UTF-8" standalone="no"?>
<!DOCTYPE svg PUBLIC "-//W3C//DTD SVG 1.1//EN"
 "http://www.w3.org/Graphics/SVG/1.1/DTD/svg11.dtd">
<!-- Generated by graphviz version 2.40.1 (20161225.0304)
 -->
<!-- Title: dependencies Pages: 1 -->
<svg width="1665pt" height="211pt"
 viewBox="0.00 0.00 1665.00 211.00" xmlns="http://www.w3.org/2000/svg" xmlns:xlink="http://www.w3.org/1999/xlink">
<g id="graph0" class="graph" transform="scale(1 1) rotate(0) translate(4 207)">
<title>dependencies</title>
<polygon fill="#ffffff" stroke="transparent" points="-4,4 -4,-207 1661,-207 1661,4 -4,4"/>
<text text-anchor="start" x="807.5091" y="-42.4" font-family="sans-serif" font-weight="bold" font-size="14.00" fill="#000000">Legend</text>
<polygon fill="#ffffb3" stroke="transparent" points="594.5,-10 594.5,-30 614.5,-30 614.5,-10 594.5,-10"/>
<text text-anchor="start" x="618.129" y="-15.4" font-family="sans-serif" font-size="14.00" fill="#000000"> &#160;Declarations</text>
<polygon fill="#8dd3c7" stroke="transparent" points="707.5,-10 707.5,-30 727.5,-30 727.5,-10 707.5,-10"/>
<text text-anchor="start" x="731.2251" y="-15.4" font-family="sans-serif" font-size="14.00" fill="#000000"> &#160;Module</text>
<polygon fill="#80b1d3" stroke="transparent" points="793.5,-10 793.5,-30 813.5,-30 813.5,-10 793.5,-10"/>
<text text-anchor="start" x="817.2812" y="-15.4" font-family="sans-serif" font-size="14.00" fill="#000000"> &#160;Bootstrap</text>
<polygon fill="#fdb462" stroke="transparent" points="890.5,-10 890.5,-30 910.5,-30 910.5,-10 890.5,-10"/>
<text text-anchor="start" x="914.1732" y="-15.4" font-family="sans-serif" font-size="14.00" fill="#000000"> &#160;Providers</text>
<polygon fill="#fb8072" stroke="transparent" points="986.5,-10 986.5,-30 1006.5,-30 1006.5,-10 986.5,-10"/>
<text text-anchor="start" x="1010.2258" y="-15.4" font-family="sans-serif" font-size="14.00" fill="#000000"> &#160;Exports</text>
<g id="clust1" class="cluster">
<title>cluster_SalidasEstandarModule</title>
<polygon fill="none" stroke="#000000" stroke-dasharray="1,5" points="8,-70 8,-195 1649,-195 1649,-70 8,-70"/>
</g>
<g id="clust2" class="cluster">
<title>cluster_SalidasEstandarModule_declarations</title>
<polygon fill="none" stroke="#000000" points="1305,-78 1305,-130 1641,-130 1641,-78 1305,-78"/>
</g>
<g id="clust5" class="cluster">
<title>cluster_SalidasEstandarModule_imports</title>
<polygon fill="none" stroke="#000000" points="295,-78 295,-130 1297,-130 1297,-78 295,-78"/>
</g>
<g id="clust8" class="cluster">
<title>cluster_SalidasEstandarModule_providers</title>
<polygon fill="none" stroke="#000000" points="16,-78 16,-130 287,-130 287,-78 16,-78"/>
</g>
<!-- ListaEstandarComponent -->
<g id="node1" class="node">
<title>ListaEstandarComponent</title>
<polygon fill="#ffffb3" stroke="#000000" points="1633.3033,-122 1474.6967,-122 1474.6967,-86 1633.3033,-86 1633.3033,-122"/>
<text text-anchor="middle" x="1554" y="-99.8" font-family="Times,serif" font-size="14.00" fill="#000000">ListaEstandarComponent</text>
</g>
<!-- SalidasEstandarModule -->
<g id="node3" class="node">
<title>SalidasEstandarModule</title>
<polygon fill="#8dd3c7" stroke="#000000" points="863.465,-187 860.465,-191 839.465,-191 836.465,-187 714.535,-187 714.535,-151 863.465,-151 863.465,-187"/>
<text text-anchor="middle" x="789" y="-164.8" font-family="Times,serif" font-size="14.00" fill="#000000">SalidasEstandarModule</text>
</g>
<!-- ListaEstandarComponent&#45;&gt;SalidasEstandarModule -->
<g id="edge1" class="edge">
<title>ListaEstandarComponent&#45;&gt;SalidasEstandarModule</title>
<path fill="none" stroke="#000000" d="M1554,-122.0908C1554,-145.1328 1554,-182 1554,-182 1554,-182 873.7443,-182 873.7443,-182"/>
<polygon fill="#000000" stroke="#000000" points="873.7443,-178.5001 863.7443,-182 873.7443,-185.5001 873.7443,-178.5001"/>
</g>
<!-- FormularioComponent -->
<g id="node2" class="node">
<title>FormularioComponent</title>
<polygon fill="#ffffb3" stroke="#000000" points="1457.323,-122 1312.677,-122 1312.677,-86 1457.323,-86 1457.323,-122"/>
<text text-anchor="middle" x="1385" y="-99.8" font-family="Times,serif" font-size="14.00" fill="#000000">FormularioComponent</text>
</g>
<!-- FormularioComponent&#45;&gt;SalidasEstandarModule -->
<g id="edge2" class="edge">
<title>FormularioComponent&#45;&gt;SalidasEstandarModule</title>
<path fill="none" stroke="#000000" d="M1385,-122.2843C1385,-143.3211 1385,-175 1385,-175 1385,-175 873.5793,-175 873.5793,-175"/>
<polygon fill="#000000" stroke="#000000" points="873.5793,-171.5001 863.5793,-175 873.5793,-178.5001 873.5793,-171.5001"/>
</g>
<!-- SalidasEstandarRoutingModule -->
<g id="node4" class="node">
<title>SalidasEstandarRoutingModule</title>
<polygon fill="#8dd3c7" stroke="#000000" points="1289.0828,-122 1286.0828,-126 1265.0828,-126 1262.0828,-122 1094.9172,-122 1094.9172,-86 1289.0828,-86 1289.0828,-122"/>
<text text-anchor="middle" x="1192" y="-99.8" font-family="Times,serif" font-size="14.00" fill="#000000">SalidasEstandarRoutingModule</text>
</g>
<!-- SalidasEstandarRoutingModule&#45;&gt;SalidasEstandarModule -->
<g id="edge3" class="edge">
<title>SalidasEstandarRoutingModule&#45;&gt;SalidasEstandarModule</title>
<path fill="none" stroke="#000000" d="M1192,-122.1061C1192,-141.3391 1192,-169 1192,-169 1192,-169 873.8567,-169 873.8567,-169"/>
<polygon fill="#000000" stroke="#000000" points="873.8568,-165.5001 863.8567,-169 873.8567,-172.5001 873.8568,-165.5001"/>
</g>
<!-- HubModule -->
<g id="node5" class="node">
<title>HubModule</title>
<polygon fill="#8dd3c7" stroke="#000000" points="1076.6571,-122 1073.6571,-126 1052.6571,-126 1049.6571,-122 993.3429,-122 993.3429,-86 1076.6571,-86 1076.6571,-122"/>
<text text-anchor="middle" x="1035" y="-99.8" font-family="Times,serif" font-size="14.00" fill="#000000">HubModule</text>
</g>
<!-- HubModule&#45;&gt;SalidasEstandarModule -->
<g id="edge4" class="edge">
<title>HubModule&#45;&gt;SalidasEstandarModule</title>
<path fill="none" stroke="#000000" d="M1035,-122.0225C1035,-139.3734 1035,-163 1035,-163 1035,-163 873.4757,-163 873.4757,-163"/>
<polygon fill="#000000" stroke="#000000" points="873.4757,-159.5001 863.4757,-163 873.4757,-166.5001 873.4757,-159.5001"/>
</g>
<!-- PerfilModule -->
<g id="node6" class="node">
<title>PerfilModule</title>
<polygon fill="#8dd3c7" stroke="#000000" points="975.1501,-122 972.1501,-126 951.1501,-126 948.1501,-122 884.8499,-122 884.8499,-86 975.1501,-86 975.1501,-122"/>
<text text-anchor="middle" x="930" y="-99.8" font-family="Times,serif" font-size="14.00" fill="#000000">PerfilModule</text>
</g>
<!-- PerfilModule&#45;&gt;SalidasEstandarModule -->
<g id="edge5" class="edge">
<title>PerfilModule&#45;&gt;SalidasEstandarModule</title>
<path fill="none" stroke="#000000" d="M930,-122.2396C930,-137.5706 930,-157 930,-157 930,-157 873.6288,-157 873.6288,-157"/>
<polygon fill="#000000" stroke="#000000" points="873.6288,-153.5001 863.6288,-157 873.6287,-160.5001 873.6288,-153.5001"/>
</g>
<!-- BloquearPantallaModule -->
<g id="node7" class="node">
<title>BloquearPantallaModule</title>
<polygon fill="#8dd3c7" stroke="#000000" points="866.965,-122 863.965,-126 842.965,-126 839.965,-122 711.035,-122 711.035,-86 866.965,-86 866.965,-122"/>
<text text-anchor="middle" x="789" y="-99.8" font-family="Times,serif" font-size="14.00" fill="#000000">BloquearPantallaModule</text>
</g>
<!-- BloquearPantallaModule&#45;&gt;SalidasEstandarModule -->
<g id="edge6" class="edge">
<title>BloquearPantallaModule&#45;&gt;SalidasEstandarModule</title>
<path fill="none" stroke="#000000" d="M789,-122.1061C789,-122.1061 789,-140.991 789,-140.991"/>
<polygon fill="#000000" stroke="#000000" points="785.5001,-140.9909 789,-150.991 792.5001,-140.991 785.5001,-140.9909"/>
</g>
<!-- PaginacionModule -->
<g id="node8" class="node">
<title>PaginacionModule</title>
<polygon fill="#8dd3c7" stroke="#000000" points="692.7576,-122 689.7576,-126 668.7576,-126 665.7576,-122 571.2424,-122 571.2424,-86 692.7576,-86 692.7576,-122"/>
<text text-anchor="middle" x="632" y="-99.8" font-family="Times,serif" font-size="14.00" fill="#000000">PaginacionModule</text>
</g>
<!-- PaginacionModule&#45;&gt;SalidasEstandarModule -->
<g id="edge7" class="edge">
<title>PaginacionModule&#45;&gt;SalidasEstandarModule</title>
<path fill="none" stroke="#000000" d="M632,-122.2396C632,-137.5706 632,-157 632,-157 632,-157 704.1785,-157 704.1785,-157"/>
<polygon fill="#000000" stroke="#000000" points="704.1785,-160.5001 714.1785,-157 704.1785,-153.5001 704.1785,-160.5001"/>
</g>
<!-- IndexFarmaciaModule -->
<g id="node9" class="node">
<title>IndexFarmaciaModule</title>
<polygon fill="#8dd3c7" stroke="#000000" points="552.5086,-122 549.5086,-126 528.5086,-126 525.5086,-122 409.4914,-122 409.4914,-86 552.5086,-86 552.5086,-122"/>
<text text-anchor="middle" x="481" y="-99.8" font-family="Times,serif" font-size="14.00" fill="#000000">IndexFarmaciaModule</text>
</g>
<!-- IndexFarmaciaModule&#45;&gt;SalidasEstandarModule -->
<g id="edge8" class="edge">
<title>IndexFarmaciaModule&#45;&gt;SalidasEstandarModule</title>
<path fill="none" stroke="#000000" d="M481,-122.0225C481,-139.3734 481,-163 481,-163 481,-163 704.4418,-163 704.4418,-163"/>
<polygon fill="#000000" stroke="#000000" points="704.4418,-166.5001 714.4418,-163 704.4418,-159.5001 704.4418,-166.5001"/>
</g>
<!-- CrudModule -->
<g id="node10" class="node">
<title>CrudModule</title>
<polygon fill="#8dd3c7" stroke="#000000" points="390.5482,-122 387.5482,-126 366.5482,-126 363.5482,-122 303.4518,-122 303.4518,-86 390.5482,-86 390.5482,-122"/>
<text text-anchor="middle" x="347" y="-99.8" font-family="Times,serif" font-size="14.00" fill="#000000">CrudModule</text>
</g>
<!-- CrudModule&#45;&gt;SalidasEstandarModule -->
<g id="edge9" class="edge">
<title>CrudModule&#45;&gt;SalidasEstandarModule</title>
<path fill="none" stroke="#000000" d="M347,-122.1061C347,-141.3391 347,-169 347,-169 347,-169 704.5205,-169 704.5205,-169"/>
<polygon fill="#000000" stroke="#000000" points="704.5206,-172.5001 714.5205,-169 704.5205,-165.5001 704.5206,-172.5001"/>
</g>
<!-- AuthService -->
<g id="node11" class="node">
<title>AuthService</title>
<ellipse fill="#fdb462" stroke="#000000" cx="220" cy="-104" rx="59.1083" ry="18"/>
<text text-anchor="middle" x="220" y="-99.8" font-family="Times,serif" font-size="14.00" fill="#000000">AuthService</text>
</g>
<!-- AuthService&#45;&gt;SalidasEstandarModule -->
<g id="edge10" class="edge">
<title>AuthService&#45;&gt;SalidasEstandarModule</title>
<path fill="none" stroke="#000000" d="M220,-122.2843C220,-143.3211 220,-175 220,-175 220,-175 704.3209,-175 704.3209,-175"/>
<polygon fill="#000000" stroke="#000000" points="704.3209,-178.5001 714.3209,-175 704.3208,-171.5001 704.3209,-178.5001"/>
</g>
<!-- CrudService -->
<g id="node12" class="node">
<title>CrudService</title>
<ellipse fill="#fdb462" stroke="#000000" cx="83" cy="-104" rx="59.1083" ry="18"/>
<text text-anchor="middle" x="83" y="-99.8" font-family="Times,serif" font-size="14.00" fill="#000000">CrudService</text>
</g>
<!-- CrudService&#45;&gt;SalidasEstandarModule -->
<g id="edge11" class="edge">
<title>CrudService&#45;&gt;SalidasEstandarModule</title>
<path fill="none" stroke="#000000" d="M83,-122.0908C83,-145.1328 83,-182 83,-182 83,-182 704.4473,-182 704.4473,-182"/>
<polygon fill="#000000" stroke="#000000" points="704.4474,-185.5001 714.4473,-182 704.4473,-178.5001 704.4474,-185.5001"/>
</g>
</g>
</svg>
