<?xml version="1.0" encoding="UTF-8" standalone="no"?>
<!DOCTYPE svg PUBLIC "-//W3C//DTD SVG 1.1//EN"
 "http://www.w3.org/Graphics/SVG/1.1/DTD/svg11.dtd">
<!-- Generated by graphviz version 2.40.1 (20161225.0304)
 -->
<!-- Title: dependencies Pages: 1 -->
<svg width="560pt" height="284pt"
 viewBox="0.00 0.00 560.00 284.00" xmlns="http://www.w3.org/2000/svg" xmlns:xlink="http://www.w3.org/1999/xlink">
<g id="graph0" class="graph" transform="scale(1 1) rotate(0) translate(4 280)">
<title>dependencies</title>
<polygon fill="#ffffff" stroke="transparent" points="-4,4 -4,-280 556,-280 556,4 -4,4"/>
<text text-anchor="start" x="255.0091" y="-42.4" font-family="sans-serif" font-weight="bold" font-size="14.00" fill="#000000">Legend</text>
<polygon fill="#ffffb3" stroke="transparent" points="42,-10 42,-30 62,-30 62,-10 42,-10"/>
<text text-anchor="start" x="65.629" y="-15.4" font-family="sans-serif" font-size="14.00" fill="#000000"> &#160;Declarations</text>
<polygon fill="#8dd3c7" stroke="transparent" points="155,-10 155,-30 175,-30 175,-10 155,-10"/>
<text text-anchor="start" x="178.7251" y="-15.4" font-family="sans-serif" font-size="14.00" fill="#000000"> &#160;Module</text>
<polygon fill="#80b1d3" stroke="transparent" points="241,-10 241,-30 261,-30 261,-10 241,-10"/>
<text text-anchor="start" x="264.7812" y="-15.4" font-family="sans-serif" font-size="14.00" fill="#000000"> &#160;Bootstrap</text>
<polygon fill="#fdb462" stroke="transparent" points="338,-10 338,-30 358,-30 358,-10 338,-10"/>
<text text-anchor="start" x="361.6732" y="-15.4" font-family="sans-serif" font-size="14.00" fill="#000000"> &#160;Providers</text>
<polygon fill="#fb8072" stroke="transparent" points="434,-10 434,-30 454,-30 454,-10 434,-10"/>
<text text-anchor="start" x="457.7258" y="-15.4" font-family="sans-serif" font-size="14.00" fill="#000000"> &#160;Exports</text>
<g id="clust1" class="cluster">
<title>cluster_MenuPanelModule</title>
<polygon fill="none" stroke="#000000" stroke-dasharray="1,5" points="8,-70 8,-268 544,-268 544,-70 8,-70"/>
</g>
<g id="clust2" class="cluster">
<title>cluster_MenuPanelModule_declarations</title>
<polygon fill="none" stroke="#000000" points="406,-78 406,-130 536,-130 536,-78 406,-78"/>
</g>
<g id="clust4" class="cluster">
<title>cluster_MenuPanelModule_imports</title>
<polygon fill="none" stroke="#000000" points="16,-78 16,-130 398,-130 398,-78 16,-78"/>
</g>
<g id="clust5" class="cluster">
<title>cluster_MenuPanelModule_exports</title>
<polygon fill="none" stroke="#000000" points="228,-208 228,-260 362,-260 362,-208 228,-208"/>
</g>
<!-- MenuComponent -->
<g id="node1" class="node">
<title>MenuComponent</title>
<polygon fill="#ffffb3" stroke="#000000" points="527.9916,-122 414.0084,-122 414.0084,-86 527.9916,-86 527.9916,-122"/>
<text text-anchor="middle" x="471" y="-99.8" font-family="Times,serif" font-size="14.00" fill="#000000">MenuComponent</text>
</g>
<!-- MenuPanelModule -->
<g id="node2" class="node">
<title>MenuPanelModule</title>
<polygon fill="#8dd3c7" stroke="#000000" points="356.8118,-187 353.8118,-191 332.8118,-191 329.8118,-187 233.1882,-187 233.1882,-151 356.8118,-151 356.8118,-187"/>
<text text-anchor="middle" x="295" y="-164.8" font-family="Times,serif" font-size="14.00" fill="#000000">MenuPanelModule</text>
</g>
<!-- MenuComponent&#45;&gt;MenuPanelModule -->
<g id="edge1" class="edge">
<title>MenuComponent&#45;&gt;MenuPanelModule</title>
<path fill="none" stroke="#000000" d="M471,-122.1061C471,-141.3391 471,-169 471,-169 471,-169 367.051,-169 367.051,-169"/>
<polygon fill="#000000" stroke="#000000" points="367.0511,-165.5001 357.051,-169 367.051,-172.5001 367.0511,-165.5001"/>
</g>
<!-- MenuComponent  -->
<g id="node6" class="node">
<title>MenuComponent </title>
<polygon fill="#fb8072" stroke="#000000" points="353.9926,-252 236.0074,-252 236.0074,-216 353.9926,-216 353.9926,-252"/>
<text text-anchor="middle" x="295" y="-229.8" font-family="Times,serif" font-size="14.00" fill="#000000">MenuComponent </text>
</g>
<!-- MenuPanelModule&#45;&gt;MenuComponent  -->
<g id="edge5" class="edge">
<title>MenuPanelModule&#45;&gt;MenuComponent </title>
<path fill="none" stroke="#000000" stroke-dasharray="5,2" d="M295,-187.1061C295,-187.1061 295,-205.991 295,-205.991"/>
<polygon fill="#000000" stroke="#000000" points="291.5001,-205.9909 295,-215.991 298.5001,-205.991 291.5001,-205.9909"/>
</g>
<!-- HubModule -->
<g id="node3" class="node">
<title>HubModule</title>
<polygon fill="#8dd3c7" stroke="#000000" points="389.6571,-122 386.6571,-126 365.6571,-126 362.6571,-122 306.3429,-122 306.3429,-86 389.6571,-86 389.6571,-122"/>
<text text-anchor="middle" x="348" y="-99.8" font-family="Times,serif" font-size="14.00" fill="#000000">HubModule</text>
</g>
<!-- HubModule&#45;&gt;MenuPanelModule -->
<g id="edge2" class="edge">
<title>HubModule&#45;&gt;MenuPanelModule</title>
<path fill="none" stroke="#000000" d="M331.4138,-122.1061C331.4138,-122.1061 331.4138,-140.991 331.4138,-140.991"/>
<polygon fill="#000000" stroke="#000000" points="327.9138,-140.9909 331.4138,-150.991 334.9138,-140.991 327.9138,-140.9909"/>
</g>
<!-- PerfilModule -->
<g id="node4" class="node">
<title>PerfilModule</title>
<polygon fill="#8dd3c7" stroke="#000000" points="288.1501,-122 285.1501,-126 264.1501,-126 261.1501,-122 197.8499,-122 197.8499,-86 288.1501,-86 288.1501,-122"/>
<text text-anchor="middle" x="243" y="-99.8" font-family="Times,serif" font-size="14.00" fill="#000000">PerfilModule</text>
</g>
<!-- PerfilModule&#45;&gt;MenuPanelModule -->
<g id="edge3" class="edge">
<title>PerfilModule&#45;&gt;MenuPanelModule</title>
<path fill="none" stroke="#000000" d="M260.8345,-122.1061C260.8345,-122.1061 260.8345,-140.991 260.8345,-140.991"/>
<polygon fill="#000000" stroke="#000000" points="257.3346,-140.9909 260.8345,-150.991 264.3346,-140.991 257.3346,-140.9909"/>
</g>
<!-- MenuAsidePanelModule -->
<g id="node5" class="node">
<title>MenuAsidePanelModule</title>
<polygon fill="#8dd3c7" stroke="#000000" points="179.9678,-122 176.9678,-126 155.9678,-126 152.9678,-122 24.0322,-122 24.0322,-86 179.9678,-86 179.9678,-122"/>
<text text-anchor="middle" x="102" y="-99.8" font-family="Times,serif" font-size="14.00" fill="#000000">MenuAsidePanelModule</text>
</g>
<!-- MenuAsidePanelModule&#45;&gt;MenuPanelModule -->
<g id="edge4" class="edge">
<title>MenuAsidePanelModule&#45;&gt;MenuPanelModule</title>
<path fill="none" stroke="#000000" d="M102,-122.1061C102,-141.3391 102,-169 102,-169 102,-169 223.1372,-169 223.1372,-169"/>
<polygon fill="#000000" stroke="#000000" points="223.1373,-172.5001 233.1372,-169 223.1372,-165.5001 223.1373,-172.5001"/>
</g>
</g>
</svg>
