<?xml version="1.0" encoding="UTF-8" standalone="no"?>
<!DOCTYPE svg PUBLIC "-//W3C//DTD SVG 1.1//EN"
 "http://www.w3.org/Graphics/SVG/1.1/DTD/svg11.dtd">
<!-- Generated by graphviz version 2.40.1 (20161225.0304)
 -->
<!-- Title: dependencies Pages: 1 -->
<svg width="2260pt" height="284pt"
 viewBox="0.00 0.00 2260.00 284.00" xmlns="http://www.w3.org/2000/svg" xmlns:xlink="http://www.w3.org/1999/xlink">
<g id="graph0" class="graph" transform="scale(1 1) rotate(0) translate(4 280)">
<title>dependencies</title>
<polygon fill="#ffffff" stroke="transparent" points="-4,4 -4,-280 2256,-280 2256,4 -4,4"/>
<text text-anchor="start" x="1105.0091" y="-42.4" font-family="sans-serif" font-weight="bold" font-size="14.00" fill="#000000">Legend</text>
<polygon fill="#ffffb3" stroke="transparent" points="892,-10 892,-30 912,-30 912,-10 892,-10"/>
<text text-anchor="start" x="915.629" y="-15.4" font-family="sans-serif" font-size="14.00" fill="#000000"> &#160;Declarations</text>
<polygon fill="#8dd3c7" stroke="transparent" points="1005,-10 1005,-30 1025,-30 1025,-10 1005,-10"/>
<text text-anchor="start" x="1028.7251" y="-15.4" font-family="sans-serif" font-size="14.00" fill="#000000"> &#160;Module</text>
<polygon fill="#80b1d3" stroke="transparent" points="1091,-10 1091,-30 1111,-30 1111,-10 1091,-10"/>
<text text-anchor="start" x="1114.7812" y="-15.4" font-family="sans-serif" font-size="14.00" fill="#000000"> &#160;Bootstrap</text>
<polygon fill="#fdb462" stroke="transparent" points="1188,-10 1188,-30 1208,-30 1208,-10 1188,-10"/>
<text text-anchor="start" x="1211.6732" y="-15.4" font-family="sans-serif" font-size="14.00" fill="#000000"> &#160;Providers</text>
<polygon fill="#fb8072" stroke="transparent" points="1284,-10 1284,-30 1304,-30 1304,-10 1284,-10"/>
<text text-anchor="start" x="1307.7258" y="-15.4" font-family="sans-serif" font-size="14.00" fill="#000000"> &#160;Exports</text>
<g id="clust1" class="cluster">
<title>cluster_AdministradorCentralModule</title>
<polygon fill="none" stroke="#000000" stroke-dasharray="1,5" points="8,-70 8,-268 2244,-268 2244,-70 8,-70"/>
</g>
<g id="clust2" class="cluster">
<title>cluster_AdministradorCentralModule_declarations</title>
<polygon fill="none" stroke="#000000" points="1066,-78 1066,-130 2236,-130 2236,-78 1066,-78"/>
</g>
<g id="clust10" class="cluster">
<title>cluster_AdministradorCentralModule_imports</title>
<polygon fill="none" stroke="#000000" points="290,-78 290,-130 1058,-130 1058,-78 290,-78"/>
</g>
<g id="clust11" class="cluster">
<title>cluster_AdministradorCentralModule_exports</title>
<polygon fill="none" stroke="#000000" points="1010,-208 1010,-260 1319,-260 1319,-208 1010,-208"/>
</g>
<g id="clust13" class="cluster">
<title>cluster_AdministradorCentralModule_providers</title>
<polygon fill="none" stroke="#000000" points="16,-78 16,-130 282,-130 282,-78 16,-78"/>
</g>
<!-- PedidosComponent -->
<g id="node1" class="node">
<title>PedidosComponent</title>
<polygon fill="#ffffb3" stroke="#000000" points="2227.6652,-122 2102.3348,-122 2102.3348,-86 2227.6652,-86 2227.6652,-122"/>
<text text-anchor="middle" x="2165" y="-99.8" font-family="Times,serif" font-size="14.00" fill="#000000">PedidosComponent</text>
</g>
<!-- AdministradorCentralModule -->
<g id="node8" class="node">
<title>AdministradorCentralModule</title>
<polygon fill="#8dd3c7" stroke="#000000" points="1246.4073,-187 1243.4073,-191 1222.4073,-191 1219.4073,-187 1063.5927,-187 1063.5927,-151 1246.4073,-151 1246.4073,-187"/>
<text text-anchor="middle" x="1155" y="-164.8" font-family="Times,serif" font-size="14.00" fill="#000000">AdministradorCentralModule</text>
</g>
<!-- PedidosComponent&#45;&gt;AdministradorCentralModule -->
<g id="edge1" class="edge">
<title>PedidosComponent&#45;&gt;AdministradorCentralModule</title>
<path fill="none" stroke="#000000" d="M2165,-122.2479C2165,-145.0179 2165,-181 2165,-181 2165,-181 1256.4121,-181 1256.4121,-181"/>
<polygon fill="#000000" stroke="#000000" points="1256.4122,-177.5001 1246.4121,-181 1256.4121,-184.5001 1256.4122,-177.5001"/>
</g>
<!-- AbastoComponent -->
<g id="node2" class="node">
<title>AbastoComponent</title>
<polygon fill="#ffffb3" stroke="#000000" points="2084.4888,-122 1963.5112,-122 1963.5112,-86 2084.4888,-86 2084.4888,-122"/>
<text text-anchor="middle" x="2024" y="-99.8" font-family="Times,serif" font-size="14.00" fill="#000000">AbastoComponent</text>
</g>
<!-- AbastoComponent&#45;&gt;AdministradorCentralModule -->
<g id="edge2" class="edge">
<title>AbastoComponent&#45;&gt;AdministradorCentralModule</title>
<path fill="none" stroke="#000000" d="M2024,-122.2843C2024,-143.3211 2024,-175 2024,-175 2024,-175 1256.3558,-175 1256.3558,-175"/>
<polygon fill="#000000" stroke="#000000" points="1256.3558,-171.5001 1246.3558,-175 1256.3557,-178.5001 1256.3558,-171.5001"/>
</g>
<!-- TransferenciasRecursosComponent -->
<g id="node3" class="node">
<title>TransferenciasRecursosComponent</title>
<polygon fill="#ffffb3" stroke="#000000" points="1945.5352,-122 1730.4648,-122 1730.4648,-86 1945.5352,-86 1945.5352,-122"/>
<text text-anchor="middle" x="1838" y="-99.8" font-family="Times,serif" font-size="14.00" fill="#000000">TransferenciasRecursosComponent</text>
</g>
<!-- TransferenciasRecursosComponent&#45;&gt;AdministradorCentralModule -->
<g id="edge3" class="edge">
<title>TransferenciasRecursosComponent&#45;&gt;AdministradorCentralModule</title>
<path fill="none" stroke="#000000" d="M1838,-122.1061C1838,-141.3391 1838,-169 1838,-169 1838,-169 1256.4037,-169 1256.4037,-169"/>
<polygon fill="#000000" stroke="#000000" points="1256.4038,-165.5001 1246.4037,-169 1256.4037,-172.5001 1256.4038,-165.5001"/>
</g>
<!-- MenuComponent -->
<g id="node4" class="node">
<title>MenuComponent</title>
<polygon fill="#ffffb3" stroke="#000000" points="1711.9916,-122 1598.0084,-122 1598.0084,-86 1711.9916,-86 1711.9916,-122"/>
<text text-anchor="middle" x="1655" y="-99.8" font-family="Times,serif" font-size="14.00" fill="#000000">MenuComponent</text>
</g>
<!-- MenuComponent&#45;&gt;AdministradorCentralModule -->
<g id="edge4" class="edge">
<title>MenuComponent&#45;&gt;AdministradorCentralModule</title>
<path fill="none" stroke="#000000" d="M1655,-122.0225C1655,-139.3734 1655,-163 1655,-163 1655,-163 1256.4168,-163 1256.4168,-163"/>
<polygon fill="#000000" stroke="#000000" points="1256.4169,-159.5001 1246.4168,-163 1256.4168,-166.5001 1256.4169,-159.5001"/>
</g>
<!-- MenuLateralComponent -->
<g id="node5" class="node">
<title>MenuLateralComponent</title>
<polygon fill="#ffffb3" stroke="#000000" points="1579.6302,-122 1426.3698,-122 1426.3698,-86 1579.6302,-86 1579.6302,-122"/>
<text text-anchor="middle" x="1503" y="-99.8" font-family="Times,serif" font-size="14.00" fill="#000000">MenuLateralComponent</text>
</g>
<!-- MenuLateralComponent&#45;&gt;AdministradorCentralModule -->
<g id="edge5" class="edge">
<title>MenuLateralComponent&#45;&gt;AdministradorCentralModule</title>
<path fill="none" stroke="#000000" d="M1503,-122.2396C1503,-137.5706 1503,-157 1503,-157 1503,-157 1256.4329,-157 1256.4329,-157"/>
<polygon fill="#000000" stroke="#000000" points="1256.4329,-153.5001 1246.4329,-157 1256.4329,-160.5001 1256.4329,-153.5001"/>
</g>
<!-- EntregasMesComponent -->
<g id="node6" class="node">
<title>EntregasMesComponent</title>
<polygon fill="#ffffb3" stroke="#000000" points="1408.4144,-122 1253.5856,-122 1253.5856,-86 1408.4144,-86 1408.4144,-122"/>
<text text-anchor="middle" x="1331" y="-99.8" font-family="Times,serif" font-size="14.00" fill="#000000">EntregasMesComponent</text>
</g>
<!-- EntregasMesComponent&#45;&gt;AdministradorCentralModule -->
<g id="edge6" class="edge">
<title>EntregasMesComponent&#45;&gt;AdministradorCentralModule</title>
<path fill="none" stroke="#000000" d="M1253.6506,-104C1246.0936,-104 1241.1585,-104 1241.1585,-104 1241.1585,-104 1241.1585,-140.8939 1241.1585,-140.8939"/>
<polygon fill="#000000" stroke="#000000" points="1237.6586,-140.8938 1241.1585,-150.8939 1244.6586,-140.8939 1237.6586,-140.8938"/>
</g>
<!-- CumplimientoComponent -->
<g id="node7" class="node">
<title>CumplimientoComponent</title>
<polygon fill="#ffffb3" stroke="#000000" points="1236.2274,-122 1073.7726,-122 1073.7726,-86 1236.2274,-86 1236.2274,-122"/>
<text text-anchor="middle" x="1155" y="-99.8" font-family="Times,serif" font-size="14.00" fill="#000000">CumplimientoComponent</text>
</g>
<!-- CumplimientoComponent&#45;&gt;AdministradorCentralModule -->
<g id="edge7" class="edge">
<title>CumplimientoComponent&#45;&gt;AdministradorCentralModule</title>
<path fill="none" stroke="#000000" d="M1155,-122.1061C1155,-122.1061 1155,-140.991 1155,-140.991"/>
<polygon fill="#000000" stroke="#000000" points="1151.5001,-140.9909 1155,-150.991 1158.5001,-140.991 1151.5001,-140.9909"/>
</g>
<!-- MenuLateralComponent  -->
<g id="node14" class="node">
<title>MenuLateralComponent </title>
<polygon fill="#fb8072" stroke="#000000" points="1310.6299,-252 1153.3701,-252 1153.3701,-216 1310.6299,-216 1310.6299,-252"/>
<text text-anchor="middle" x="1232" y="-229.8" font-family="Times,serif" font-size="14.00" fill="#000000">MenuLateralComponent </text>
</g>
<!-- AdministradorCentralModule&#45;&gt;MenuLateralComponent  -->
<g id="edge13" class="edge">
<title>AdministradorCentralModule&#45;&gt;MenuLateralComponent </title>
<path fill="none" stroke="#000000" stroke-dasharray="5,2" d="M1199.8193,-187.1061C1199.8193,-187.1061 1199.8193,-205.991 1199.8193,-205.991"/>
<polygon fill="#000000" stroke="#000000" points="1196.3193,-205.9909 1199.8193,-215.991 1203.3193,-205.991 1196.3193,-205.9909"/>
</g>
<!-- MenuComponent  -->
<g id="node15" class="node">
<title>MenuComponent </title>
<polygon fill="#fb8072" stroke="#000000" points="1135.9926,-252 1018.0074,-252 1018.0074,-216 1135.9926,-216 1135.9926,-252"/>
<text text-anchor="middle" x="1077" y="-229.8" font-family="Times,serif" font-size="14.00" fill="#000000">MenuComponent </text>
</g>
<!-- AdministradorCentralModule&#45;&gt;MenuComponent  -->
<g id="edge14" class="edge">
<title>AdministradorCentralModule&#45;&gt;MenuComponent </title>
<path fill="none" stroke="#000000" stroke-dasharray="5,2" d="M1099.7712,-187.1061C1099.7712,-187.1061 1099.7712,-205.991 1099.7712,-205.991"/>
<polygon fill="#000000" stroke="#000000" points="1096.2713,-205.9909 1099.7712,-215.991 1103.2713,-205.991 1096.2713,-205.9909"/>
</g>
<!-- HubModule -->
<g id="node9" class="node">
<title>HubModule</title>
<polygon fill="#8dd3c7" stroke="#000000" points="1049.6571,-122 1046.6571,-126 1025.6571,-126 1022.6571,-122 966.3429,-122 966.3429,-86 1049.6571,-86 1049.6571,-122"/>
<text text-anchor="middle" x="1008" y="-99.8" font-family="Times,serif" font-size="14.00" fill="#000000">HubModule</text>
</g>
<!-- HubModule&#45;&gt;AdministradorCentralModule -->
<g id="edge8" class="edge">
<title>HubModule&#45;&gt;AdministradorCentralModule</title>
<path fill="none" stroke="#000000" d="M1049.9244,-104C1060.463,-104 1068.8415,-104 1068.8415,-104 1068.8415,-104 1068.8415,-140.8939 1068.8415,-140.8939"/>
<polygon fill="#000000" stroke="#000000" points="1065.3416,-140.8938 1068.8415,-150.8939 1072.3416,-140.8939 1065.3416,-140.8938"/>
</g>
<!-- PerfilModule -->
<g id="node10" class="node">
<title>PerfilModule</title>
<polygon fill="#8dd3c7" stroke="#000000" points="948.1501,-122 945.1501,-126 924.1501,-126 921.1501,-122 857.8499,-122 857.8499,-86 948.1501,-86 948.1501,-122"/>
<text text-anchor="middle" x="903" y="-99.8" font-family="Times,serif" font-size="14.00" fill="#000000">PerfilModule</text>
</g>
<!-- PerfilModule&#45;&gt;AdministradorCentralModule -->
<g id="edge9" class="edge">
<title>PerfilModule&#45;&gt;AdministradorCentralModule</title>
<path fill="none" stroke="#000000" d="M903,-122.2396C903,-137.5706 903,-157 903,-157 903,-157 1053.6659,-157 1053.6659,-157"/>
<polygon fill="#000000" stroke="#000000" points="1053.666,-160.5001 1063.6659,-157 1053.6659,-153.5001 1053.666,-160.5001"/>
</g>
<!-- BloquearPantallaModule -->
<g id="node11" class="node">
<title>BloquearPantallaModule</title>
<polygon fill="#8dd3c7" stroke="#000000" points="839.965,-122 836.965,-126 815.965,-126 812.965,-122 684.035,-122 684.035,-86 839.965,-86 839.965,-122"/>
<text text-anchor="middle" x="762" y="-99.8" font-family="Times,serif" font-size="14.00" fill="#000000">BloquearPantallaModule</text>
</g>
<!-- BloquearPantallaModule&#45;&gt;AdministradorCentralModule -->
<g id="edge10" class="edge">
<title>BloquearPantallaModule&#45;&gt;AdministradorCentralModule</title>
<path fill="none" stroke="#000000" d="M762,-122.0225C762,-139.3734 762,-163 762,-163 762,-163 1053.3549,-163 1053.3549,-163"/>
<polygon fill="#000000" stroke="#000000" points="1053.355,-166.5001 1063.3549,-163 1053.3549,-159.5001 1053.355,-166.5001"/>
</g>
<!-- PaginacionModule -->
<g id="node12" class="node">
<title>PaginacionModule</title>
<polygon fill="#8dd3c7" stroke="#000000" points="665.7576,-122 662.7576,-126 641.7576,-126 638.7576,-122 544.2424,-122 544.2424,-86 665.7576,-86 665.7576,-122"/>
<text text-anchor="middle" x="605" y="-99.8" font-family="Times,serif" font-size="14.00" fill="#000000">PaginacionModule</text>
</g>
<!-- PaginacionModule&#45;&gt;AdministradorCentralModule -->
<g id="edge11" class="edge">
<title>PaginacionModule&#45;&gt;AdministradorCentralModule</title>
<path fill="none" stroke="#000000" d="M605,-122.1061C605,-141.3391 605,-169 605,-169 605,-169 1053.5613,-169 1053.5613,-169"/>
<polygon fill="#000000" stroke="#000000" points="1053.5613,-172.5001 1063.5613,-169 1053.5613,-165.5001 1053.5613,-172.5001"/>
</g>
<!-- AdministradorCentralRoutingModule -->
<g id="node13" class="node">
<title>AdministradorCentralRoutingModule</title>
<polygon fill="#8dd3c7" stroke="#000000" points="525.5251,-122 522.5251,-126 501.5251,-126 498.5251,-122 298.4749,-122 298.4749,-86 525.5251,-86 525.5251,-122"/>
<text text-anchor="middle" x="412" y="-99.8" font-family="Times,serif" font-size="14.00" fill="#000000">AdministradorCentralRoutingModule</text>
</g>
<!-- AdministradorCentralRoutingModule&#45;&gt;AdministradorCentralModule -->
<g id="edge12" class="edge">
<title>AdministradorCentralRoutingModule&#45;&gt;AdministradorCentralModule</title>
<path fill="none" stroke="#000000" d="M412,-122.2843C412,-143.3211 412,-175 412,-175 412,-175 1053.5213,-175 1053.5213,-175"/>
<polygon fill="#000000" stroke="#000000" points="1053.5213,-178.5001 1063.5213,-175 1053.5213,-171.5001 1053.5213,-178.5001"/>
</g>
<!-- AdministradorCentralService -->
<g id="node16" class="node">
<title>AdministradorCentralService</title>
<ellipse fill="#fdb462" stroke="#000000" cx="149" cy="-104" rx="124.9733" ry="18"/>
<text text-anchor="middle" x="149" y="-99.8" font-family="Times,serif" font-size="14.00" fill="#000000">AdministradorCentralService</text>
</g>
<!-- AdministradorCentralService&#45;&gt;AdministradorCentralModule -->
<g id="edge15" class="edge">
<title>AdministradorCentralService&#45;&gt;AdministradorCentralModule</title>
<path fill="none" stroke="#000000" d="M149,-122.2479C149,-145.0179 149,-181 149,-181 149,-181 1053.5041,-181 1053.5041,-181"/>
<polygon fill="#000000" stroke="#000000" points="1053.5041,-184.5001 1063.5041,-181 1053.504,-177.5001 1053.5041,-184.5001"/>
</g>
</g>
</svg>
