<?xml version="1.0" encoding="UTF-8" standalone="no"?>
<!DOCTYPE svg PUBLIC "-//W3C//DTD SVG 1.1//EN"
 "http://www.w3.org/Graphics/SVG/1.1/DTD/svg11.dtd">
<!-- Generated by graphviz version 2.40.1 (20161225.0304)
 -->
<!-- Title: dependencies Pages: 1 -->
<svg width="1663pt" height="211pt"
 viewBox="0.00 0.00 1663.00 211.00" xmlns="http://www.w3.org/2000/svg" xmlns:xlink="http://www.w3.org/1999/xlink">
<g id="graph0" class="graph" transform="scale(1 1) rotate(0) translate(4 207)">
<title>dependencies</title>
<polygon fill="#ffffff" stroke="transparent" points="-4,4 -4,-207 1659,-207 1659,4 -4,4"/>
<text text-anchor="start" x="806.5091" y="-42.4" font-family="sans-serif" font-weight="bold" font-size="14.00" fill="#000000">Legend</text>
<polygon fill="#ffffb3" stroke="transparent" points="593.5,-10 593.5,-30 613.5,-30 613.5,-10 593.5,-10"/>
<text text-anchor="start" x="617.129" y="-15.4" font-family="sans-serif" font-size="14.00" fill="#000000"> &#160;Declarations</text>
<polygon fill="#8dd3c7" stroke="transparent" points="706.5,-10 706.5,-30 726.5,-30 726.5,-10 706.5,-10"/>
<text text-anchor="start" x="730.2251" y="-15.4" font-family="sans-serif" font-size="14.00" fill="#000000"> &#160;Module</text>
<polygon fill="#80b1d3" stroke="transparent" points="792.5,-10 792.5,-30 812.5,-30 812.5,-10 792.5,-10"/>
<text text-anchor="start" x="816.2812" y="-15.4" font-family="sans-serif" font-size="14.00" fill="#000000"> &#160;Bootstrap</text>
<polygon fill="#fdb462" stroke="transparent" points="889.5,-10 889.5,-30 909.5,-30 909.5,-10 889.5,-10"/>
<text text-anchor="start" x="913.1732" y="-15.4" font-family="sans-serif" font-size="14.00" fill="#000000"> &#160;Providers</text>
<polygon fill="#fb8072" stroke="transparent" points="985.5,-10 985.5,-30 1005.5,-30 1005.5,-10 985.5,-10"/>
<text text-anchor="start" x="1009.2258" y="-15.4" font-family="sans-serif" font-size="14.00" fill="#000000"> &#160;Exports</text>
<g id="clust1" class="cluster">
<title>cluster_AjusteMenosInventarioModule</title>
<polygon fill="none" stroke="#000000" stroke-dasharray="1,5" points="8,-70 8,-195 1647,-195 1647,-70 8,-70"/>
</g>
<g id="clust2" class="cluster">
<title>cluster_AjusteMenosInventarioModule_declarations</title>
<polygon fill="none" stroke="#000000" points="1351,-78 1351,-130 1639,-130 1639,-78 1351,-78"/>
</g>
<g id="clust5" class="cluster">
<title>cluster_AjusteMenosInventarioModule_imports</title>
<polygon fill="none" stroke="#000000" points="295,-78 295,-130 1343,-130 1343,-78 295,-78"/>
</g>
<g id="clust8" class="cluster">
<title>cluster_AjusteMenosInventarioModule_providers</title>
<polygon fill="none" stroke="#000000" points="16,-78 16,-130 287,-130 287,-78 16,-78"/>
</g>
<!-- ListaComponent -->
<g id="node1" class="node">
<title>ListaComponent</title>
<polygon fill="#ffffb3" stroke="#000000" points="1630.8259,-122 1521.1741,-122 1521.1741,-86 1630.8259,-86 1630.8259,-122"/>
<text text-anchor="middle" x="1576" y="-99.8" font-family="Times,serif" font-size="14.00" fill="#000000">ListaComponent</text>
</g>
<!-- AjusteMenosInventarioModule -->
<g id="node3" class="node">
<title>AjusteMenosInventarioModule</title>
<polygon fill="#8dd3c7" stroke="#000000" points="888.7324,-187 885.7324,-191 864.7324,-191 861.7324,-187 697.2676,-187 697.2676,-151 888.7324,-151 888.7324,-187"/>
<text text-anchor="middle" x="793" y="-164.8" font-family="Times,serif" font-size="14.00" fill="#000000">AjusteMenosInventarioModule</text>
</g>
<!-- ListaComponent&#45;&gt;AjusteMenosInventarioModule -->
<g id="edge1" class="edge">
<title>ListaComponent&#45;&gt;AjusteMenosInventarioModule</title>
<path fill="none" stroke="#000000" d="M1576,-122.0109C1576,-144.4852 1576,-180 1576,-180 1576,-180 899.0112,-180 899.0112,-180"/>
<polygon fill="#000000" stroke="#000000" points="899.0112,-176.5001 889.0112,-180 899.0111,-183.5001 899.0112,-176.5001"/>
</g>
<!-- FormularioComponent -->
<g id="node2" class="node">
<title>FormularioComponent</title>
<polygon fill="#ffffb3" stroke="#000000" points="1503.323,-122 1358.677,-122 1358.677,-86 1503.323,-86 1503.323,-122"/>
<text text-anchor="middle" x="1431" y="-99.8" font-family="Times,serif" font-size="14.00" fill="#000000">FormularioComponent</text>
</g>
<!-- FormularioComponent&#45;&gt;AjusteMenosInventarioModule -->
<g id="edge2" class="edge">
<title>FormularioComponent&#45;&gt;AjusteMenosInventarioModule</title>
<path fill="none" stroke="#000000" d="M1431,-122.1289C1431,-142.5724 1431,-173 1431,-173 1431,-173 898.8602,-173 898.8602,-173"/>
<polygon fill="#000000" stroke="#000000" points="898.8602,-169.5001 888.8602,-173 898.8602,-176.5001 898.8602,-169.5001"/>
</g>
<!-- AjusteMenosInventarioRoutingModule -->
<g id="node4" class="node">
<title>AjusteMenosInventarioRoutingModule</title>
<polygon fill="#8dd3c7" stroke="#000000" points="1335.35,-122 1332.35,-126 1311.35,-126 1308.35,-122 1098.65,-122 1098.65,-86 1335.35,-86 1335.35,-122"/>
<text text-anchor="middle" x="1217" y="-99.8" font-family="Times,serif" font-size="14.00" fill="#000000">AjusteMenosInventarioRoutingModule</text>
</g>
<!-- AjusteMenosInventarioRoutingModule&#45;&gt;AjusteMenosInventarioModule -->
<g id="edge3" class="edge">
<title>AjusteMenosInventarioRoutingModule&#45;&gt;AjusteMenosInventarioModule</title>
<path fill="none" stroke="#000000" d="M1217,-122.2667C1217,-140.5552 1217,-166 1217,-166 1217,-166 898.9472,-166 898.9472,-166"/>
<polygon fill="#000000" stroke="#000000" points="898.9473,-162.5001 888.9472,-166 898.9472,-169.5001 898.9473,-162.5001"/>
</g>
<!-- HubModule -->
<g id="node5" class="node">
<title>HubModule</title>
<polygon fill="#8dd3c7" stroke="#000000" points="1080.6571,-122 1077.6571,-126 1056.6571,-126 1053.6571,-122 997.3429,-122 997.3429,-86 1080.6571,-86 1080.6571,-122"/>
<text text-anchor="middle" x="1039" y="-99.8" font-family="Times,serif" font-size="14.00" fill="#000000">HubModule</text>
</g>
<!-- HubModule&#45;&gt;AjusteMenosInventarioModule -->
<g id="edge4" class="edge">
<title>HubModule&#45;&gt;AjusteMenosInventarioModule</title>
<path fill="none" stroke="#000000" d="M1039,-122.0091C1039,-138.0494 1039,-159 1039,-159 1039,-159 898.8144,-159 898.8144,-159"/>
<polygon fill="#000000" stroke="#000000" points="898.8145,-155.5001 888.8144,-159 898.8144,-162.5001 898.8145,-155.5001"/>
</g>
<!-- PerfilModule -->
<g id="node6" class="node">
<title>PerfilModule</title>
<polygon fill="#8dd3c7" stroke="#000000" points="979.1501,-122 976.1501,-126 955.1501,-126 952.1501,-122 888.8499,-122 888.8499,-86 979.1501,-86 979.1501,-122"/>
<text text-anchor="middle" x="934" y="-99.8" font-family="Times,serif" font-size="14.00" fill="#000000">PerfilModule</text>
</g>
<!-- PerfilModule&#45;&gt;AjusteMenosInventarioModule -->
<g id="edge5" class="edge">
<title>PerfilModule&#45;&gt;AjusteMenosInventarioModule</title>
<path fill="none" stroke="#000000" d="M888.7742,-104C883.4295,-104 879.8289,-104 879.8289,-104 879.8289,-104 879.8289,-140.8939 879.8289,-140.8939"/>
<polygon fill="#000000" stroke="#000000" points="876.329,-140.8938 879.8289,-150.8939 883.329,-140.8939 876.329,-140.8938"/>
</g>
<!-- BloquearPantallaModule -->
<g id="node7" class="node">
<title>BloquearPantallaModule</title>
<polygon fill="#8dd3c7" stroke="#000000" points="870.965,-122 867.965,-126 846.965,-126 843.965,-122 715.035,-122 715.035,-86 870.965,-86 870.965,-122"/>
<text text-anchor="middle" x="793" y="-99.8" font-family="Times,serif" font-size="14.00" fill="#000000">BloquearPantallaModule</text>
</g>
<!-- BloquearPantallaModule&#45;&gt;AjusteMenosInventarioModule -->
<g id="edge6" class="edge">
<title>BloquearPantallaModule&#45;&gt;AjusteMenosInventarioModule</title>
<path fill="none" stroke="#000000" d="M793,-122.1061C793,-122.1061 793,-140.991 793,-140.991"/>
<polygon fill="#000000" stroke="#000000" points="789.5001,-140.9909 793,-150.991 796.5001,-140.991 789.5001,-140.9909"/>
</g>
<!-- PaginacionModule -->
<g id="node8" class="node">
<title>PaginacionModule</title>
<polygon fill="#8dd3c7" stroke="#000000" points="696.7576,-122 693.7576,-126 672.7576,-126 669.7576,-122 575.2424,-122 575.2424,-86 696.7576,-86 696.7576,-122"/>
<text text-anchor="middle" x="636" y="-99.8" font-family="Times,serif" font-size="14.00" fill="#000000">PaginacionModule</text>
</g>
<!-- PaginacionModule&#45;&gt;AjusteMenosInventarioModule -->
<g id="edge7" class="edge">
<title>PaginacionModule&#45;&gt;AjusteMenosInventarioModule</title>
<path fill="none" stroke="#000000" d="M696.9145,-104C702.4787,-104 706.0757,-104 706.0757,-104 706.0757,-104 706.0757,-140.8939 706.0757,-140.8939"/>
<polygon fill="#000000" stroke="#000000" points="702.5758,-140.8938 706.0757,-150.8939 709.5758,-140.8939 702.5758,-140.8938"/>
</g>
<!-- IndexInventarioModule -->
<g id="node9" class="node">
<title>IndexInventarioModule</title>
<polygon fill="#8dd3c7" stroke="#000000" points="557.4566,-122 554.4566,-126 533.4566,-126 530.4566,-122 408.5434,-122 408.5434,-86 557.4566,-86 557.4566,-122"/>
<text text-anchor="middle" x="483" y="-99.8" font-family="Times,serif" font-size="14.00" fill="#000000">IndexInventarioModule</text>
</g>
<!-- IndexInventarioModule&#45;&gt;AjusteMenosInventarioModule -->
<g id="edge8" class="edge">
<title>IndexInventarioModule&#45;&gt;AjusteMenosInventarioModule</title>
<path fill="none" stroke="#000000" d="M483,-122.0091C483,-138.0494 483,-159 483,-159 483,-159 687.037,-159 687.037,-159"/>
<polygon fill="#000000" stroke="#000000" points="687.0371,-162.5001 697.037,-159 687.037,-155.5001 687.0371,-162.5001"/>
</g>
<!-- CrudModule -->
<g id="node10" class="node">
<title>CrudModule</title>
<polygon fill="#8dd3c7" stroke="#000000" points="390.5482,-122 387.5482,-126 366.5482,-126 363.5482,-122 303.4518,-122 303.4518,-86 390.5482,-86 390.5482,-122"/>
<text text-anchor="middle" x="347" y="-99.8" font-family="Times,serif" font-size="14.00" fill="#000000">CrudModule</text>
</g>
<!-- CrudModule&#45;&gt;AjusteMenosInventarioModule -->
<g id="edge9" class="edge">
<title>CrudModule&#45;&gt;AjusteMenosInventarioModule</title>
<path fill="none" stroke="#000000" d="M347,-122.2667C347,-140.5552 347,-166 347,-166 347,-166 687.0479,-166 687.0479,-166"/>
<polygon fill="#000000" stroke="#000000" points="687.0479,-169.5001 697.0479,-166 687.0479,-162.5001 687.0479,-169.5001"/>
</g>
<!-- AuthService -->
<g id="node11" class="node">
<title>AuthService</title>
<ellipse fill="#fdb462" stroke="#000000" cx="220" cy="-104" rx="59.1083" ry="18"/>
<text text-anchor="middle" x="220" y="-99.8" font-family="Times,serif" font-size="14.00" fill="#000000">AuthService</text>
</g>
<!-- AuthService&#45;&gt;AjusteMenosInventarioModule -->
<g id="edge10" class="edge">
<title>AuthService&#45;&gt;AjusteMenosInventarioModule</title>
<path fill="none" stroke="#000000" d="M220,-122.1289C220,-142.5724 220,-173 220,-173 220,-173 687.0927,-173 687.0927,-173"/>
<polygon fill="#000000" stroke="#000000" points="687.0927,-176.5001 697.0927,-173 687.0926,-169.5001 687.0927,-176.5001"/>
</g>
<!-- CrudService -->
<g id="node12" class="node">
<title>CrudService</title>
<ellipse fill="#fdb462" stroke="#000000" cx="83" cy="-104" rx="59.1083" ry="18"/>
<text text-anchor="middle" x="83" y="-99.8" font-family="Times,serif" font-size="14.00" fill="#000000">CrudService</text>
</g>
<!-- CrudService&#45;&gt;AjusteMenosInventarioModule -->
<g id="edge11" class="edge">
<title>CrudService&#45;&gt;AjusteMenosInventarioModule</title>
<path fill="none" stroke="#000000" d="M83,-122.0109C83,-144.4852 83,-180 83,-180 83,-180 687.2462,-180 687.2462,-180"/>
<polygon fill="#000000" stroke="#000000" points="687.2463,-183.5001 697.2462,-180 687.2462,-176.5001 687.2463,-183.5001"/>
</g>
</g>
</svg>
