<?xml version="1.0" encoding="UTF-8" standalone="no"?>
<!DOCTYPE svg PUBLIC "-//W3C//DTD SVG 1.1//EN"
 "http://www.w3.org/Graphics/SVG/1.1/DTD/svg11.dtd">
<!-- Generated by graphviz version 2.40.1 (20161225.0304)
 -->
<!-- Title: dependencies Pages: 1 -->
<svg width="3076pt" height="211pt"
 viewBox="0.00 0.00 3076.00 211.00" xmlns="http://www.w3.org/2000/svg" xmlns:xlink="http://www.w3.org/1999/xlink">
<g id="graph0" class="graph" transform="scale(1 1) rotate(0) translate(4 207)">
<title>dependencies</title>
<polygon fill="#ffffff" stroke="transparent" points="-4,4 -4,-207 3072,-207 3072,4 -4,4"/>
<text text-anchor="start" x="1513.0091" y="-42.4" font-family="sans-serif" font-weight="bold" font-size="14.00" fill="#000000">Legend</text>
<polygon fill="#ffffb3" stroke="transparent" points="1300,-10 1300,-30 1320,-30 1320,-10 1300,-10"/>
<text text-anchor="start" x="1323.629" y="-15.4" font-family="sans-serif" font-size="14.00" fill="#000000"> &#160;Declarations</text>
<polygon fill="#8dd3c7" stroke="transparent" points="1413,-10 1413,-30 1433,-30 1433,-10 1413,-10"/>
<text text-anchor="start" x="1436.7251" y="-15.4" font-family="sans-serif" font-size="14.00" fill="#000000"> &#160;Module</text>
<polygon fill="#80b1d3" stroke="transparent" points="1499,-10 1499,-30 1519,-30 1519,-10 1499,-10"/>
<text text-anchor="start" x="1522.7812" y="-15.4" font-family="sans-serif" font-size="14.00" fill="#000000"> &#160;Bootstrap</text>
<polygon fill="#fdb462" stroke="transparent" points="1596,-10 1596,-30 1616,-30 1616,-10 1596,-10"/>
<text text-anchor="start" x="1619.6732" y="-15.4" font-family="sans-serif" font-size="14.00" fill="#000000"> &#160;Providers</text>
<polygon fill="#fb8072" stroke="transparent" points="1692,-10 1692,-30 1712,-30 1712,-10 1692,-10"/>
<text text-anchor="start" x="1715.7258" y="-15.4" font-family="sans-serif" font-size="14.00" fill="#000000"> &#160;Exports</text>
<g id="clust1" class="cluster">
<title>cluster_PedidosJurisdiccionalesModule</title>
<polygon fill="none" stroke="#000000" stroke-dasharray="1,5" points="8,-70 8,-195 3060,-195 3060,-70 8,-70"/>
</g>
<g id="clust2" class="cluster">
<title>cluster_PedidosJurisdiccionalesModule_declarations</title>
<polygon fill="none" stroke="#000000" points="1922,-78 1922,-130 3052,-130 3052,-78 1922,-78"/>
</g>
<g id="clust10" class="cluster">
<title>cluster_PedidosJurisdiccionalesModule_imports</title>
<polygon fill="none" stroke="#000000" points="810,-78 810,-130 1914,-130 1914,-78 810,-78"/>
</g>
<g id="clust13" class="cluster">
<title>cluster_PedidosJurisdiccionalesModule_providers</title>
<polygon fill="none" stroke="#000000" points="16,-78 16,-130 802,-130 802,-78 16,-78"/>
</g>
<!-- PedidosJurisdiccionalesComponent -->
<g id="node1" class="node">
<title>PedidosJurisdiccionalesComponent</title>
<polygon fill="#ffffb3" stroke="#000000" points="3043.58,-122 2828.42,-122 2828.42,-86 3043.58,-86 3043.58,-122"/>
<text text-anchor="middle" x="2936" y="-99.8" font-family="Times,serif" font-size="14.00" fill="#000000">PedidosJurisdiccionalesComponent</text>
</g>
<!-- PedidosJurisdiccionalesModule -->
<g id="node8" class="node">
<title>PedidosJurisdiccionalesModule</title>
<polygon fill="#8dd3c7" stroke="#000000" points="1784.7976,-187 1781.7976,-191 1760.7976,-191 1757.7976,-187 1591.2024,-187 1591.2024,-151 1784.7976,-151 1784.7976,-187"/>
<text text-anchor="middle" x="1688" y="-164.8" font-family="Times,serif" font-size="14.00" fill="#000000">PedidosJurisdiccionalesModule</text>
</g>
<!-- PedidosJurisdiccionalesComponent&#45;&gt;PedidosJurisdiccionalesModule -->
<g id="edge1" class="edge">
<title>PedidosJurisdiccionalesComponent&#45;&gt;PedidosJurisdiccionalesModule</title>
<path fill="none" stroke="#000000" d="M2936,-122.3228C2936,-145.6602 2936,-183 2936,-183 2936,-183 1794.89,-183 1794.89,-183"/>
<polygon fill="#000000" stroke="#000000" points="1794.89,-179.5001 1784.89,-183 1794.89,-186.5001 1794.89,-179.5001"/>
</g>
<!-- MenuLateralComponent -->
<g id="node2" class="node">
<title>MenuLateralComponent</title>
<polygon fill="#ffffb3" stroke="#000000" points="2810.6302,-122 2657.3698,-122 2657.3698,-86 2810.6302,-86 2810.6302,-122"/>
<text text-anchor="middle" x="2734" y="-99.8" font-family="Times,serif" font-size="14.00" fill="#000000">MenuLateralComponent</text>
</g>
<!-- MenuLateralComponent&#45;&gt;PedidosJurisdiccionalesModule -->
<g id="edge2" class="edge">
<title>MenuLateralComponent&#45;&gt;PedidosJurisdiccionalesModule</title>
<path fill="none" stroke="#000000" d="M2734,-122.1554C2734,-144.3519 2734,-179 2734,-179 2734,-179 1794.9976,-179 1794.9976,-179"/>
<polygon fill="#000000" stroke="#000000" points="1794.9976,-175.5001 1784.9976,-179 1794.9976,-182.5001 1794.9976,-175.5001"/>
</g>
<!-- ListaComponent -->
<g id="node3" class="node">
<title>ListaComponent</title>
<polygon fill="#ffffb3" stroke="#000000" points="2639.8259,-122 2530.1741,-122 2530.1741,-86 2639.8259,-86 2639.8259,-122"/>
<text text-anchor="middle" x="2585" y="-99.8" font-family="Times,serif" font-size="14.00" fill="#000000">ListaComponent</text>
</g>
<!-- ListaComponent&#45;&gt;PedidosJurisdiccionalesModule -->
<g id="edge3" class="edge">
<title>ListaComponent&#45;&gt;PedidosJurisdiccionalesModule</title>
<path fill="none" stroke="#000000" d="M2585,-122.2843C2585,-143.3211 2585,-175 2585,-175 2585,-175 1794.847,-175 1794.847,-175"/>
<polygon fill="#000000" stroke="#000000" points="1794.847,-171.5001 1784.847,-175 1794.8469,-178.5001 1794.847,-171.5001"/>
</g>
<!-- VerComponent -->
<g id="node4" class="node">
<title>VerComponent</title>
<polygon fill="#ffffb3" stroke="#000000" points="2512.3147,-122 2409.6853,-122 2409.6853,-86 2512.3147,-86 2512.3147,-122"/>
<text text-anchor="middle" x="2461" y="-99.8" font-family="Times,serif" font-size="14.00" fill="#000000">VerComponent</text>
</g>
<!-- VerComponent&#45;&gt;PedidosJurisdiccionalesModule -->
<g id="edge4" class="edge">
<title>VerComponent&#45;&gt;PedidosJurisdiccionalesModule</title>
<path fill="none" stroke="#000000" d="M2461,-122.308C2461,-142.1455 2461,-171 2461,-171 2461,-171 1794.7279,-171 1794.7279,-171"/>
<polygon fill="#000000" stroke="#000000" points="1794.7279,-167.5001 1784.7279,-171 1794.7278,-174.5001 1794.7279,-167.5001"/>
</g>
<!-- FormularioComponent -->
<g id="node5" class="node">
<title>FormularioComponent</title>
<polygon fill="#ffffb3" stroke="#000000" points="2392.323,-122 2247.677,-122 2247.677,-86 2392.323,-86 2392.323,-122"/>
<text text-anchor="middle" x="2320" y="-99.8" font-family="Times,serif" font-size="14.00" fill="#000000">FormularioComponent</text>
</g>
<!-- FormularioComponent&#45;&gt;PedidosJurisdiccionalesModule -->
<g id="edge5" class="edge">
<title>FormularioComponent&#45;&gt;PedidosJurisdiccionalesModule</title>
<path fill="none" stroke="#000000" d="M2320,-122.2222C2320,-140.8285 2320,-167 2320,-167 2320,-167 1794.6752,-167 1794.6752,-167"/>
<polygon fill="#000000" stroke="#000000" points="1794.6752,-163.5001 1784.6752,-167 1794.6751,-170.5001 1794.6752,-163.5001"/>
</g>
<!-- RecepcionComponent -->
<g id="node6" class="node">
<title>RecepcionComponent</title>
<polygon fill="#ffffb3" stroke="#000000" points="2230.4186,-122 2089.5814,-122 2089.5814,-86 2230.4186,-86 2230.4186,-122"/>
<text text-anchor="middle" x="2160" y="-99.8" font-family="Times,serif" font-size="14.00" fill="#000000">RecepcionComponent</text>
</g>
<!-- RecepcionComponent&#45;&gt;PedidosJurisdiccionalesModule -->
<g id="edge6" class="edge">
<title>RecepcionComponent&#45;&gt;PedidosJurisdiccionalesModule</title>
<path fill="none" stroke="#000000" d="M2160,-122.0225C2160,-139.3734 2160,-163 2160,-163 2160,-163 1794.6552,-163 1794.6552,-163"/>
<polygon fill="#000000" stroke="#000000" points="1794.6553,-159.5001 1784.6552,-163 1794.6552,-166.5001 1794.6553,-159.5001"/>
</g>
<!-- ListaCluesComponent -->
<g id="node7" class="node">
<title>ListaCluesComponent</title>
<polygon fill="#ffffb3" stroke="#000000" points="2071.712,-122 1930.288,-122 1930.288,-86 2071.712,-86 2071.712,-122"/>
<text text-anchor="middle" x="2001" y="-99.8" font-family="Times,serif" font-size="14.00" fill="#000000">ListaCluesComponent</text>
</g>
<!-- ListaCluesComponent&#45;&gt;PedidosJurisdiccionalesModule -->
<g id="edge7" class="edge">
<title>ListaCluesComponent&#45;&gt;PedidosJurisdiccionalesModule</title>
<path fill="none" stroke="#000000" d="M2001,-122.0091C2001,-138.0494 2001,-159 2001,-159 2001,-159 1794.8916,-159 1794.8916,-159"/>
<polygon fill="#000000" stroke="#000000" points="1794.8917,-155.5001 1784.8916,-159 1794.8916,-162.5001 1794.8917,-155.5001"/>
</g>
<!-- HubModule -->
<g id="node9" class="node">
<title>HubModule</title>
<polygon fill="#8dd3c7" stroke="#000000" points="1905.6571,-122 1902.6571,-126 1881.6571,-126 1878.6571,-122 1822.3429,-122 1822.3429,-86 1905.6571,-86 1905.6571,-122"/>
<text text-anchor="middle" x="1864" y="-99.8" font-family="Times,serif" font-size="14.00" fill="#000000">HubModule</text>
</g>
<!-- HubModule&#45;&gt;PedidosJurisdiccionalesModule -->
<g id="edge8" class="edge">
<title>HubModule&#45;&gt;PedidosJurisdiccionalesModule</title>
<path fill="none" stroke="#000000" d="M1864,-122.1243C1864,-136.7832 1864,-155 1864,-155 1864,-155 1794.7527,-155 1794.7527,-155"/>
<polygon fill="#000000" stroke="#000000" points="1794.7528,-151.5001 1784.7527,-155 1794.7527,-158.5001 1794.7528,-151.5001"/>
</g>
<!-- PerfilModule -->
<g id="node10" class="node">
<title>PerfilModule</title>
<polygon fill="#8dd3c7" stroke="#000000" points="1804.1501,-122 1801.1501,-126 1780.1501,-126 1777.1501,-122 1713.8499,-122 1713.8499,-86 1804.1501,-86 1804.1501,-122"/>
<text text-anchor="middle" x="1759" y="-99.8" font-family="Times,serif" font-size="14.00" fill="#000000">PerfilModule</text>
</g>
<!-- PerfilModule&#45;&gt;PedidosJurisdiccionalesModule -->
<g id="edge9" class="edge">
<title>PerfilModule&#45;&gt;PedidosJurisdiccionalesModule</title>
<path fill="none" stroke="#000000" d="M1749.162,-122.1061C1749.162,-122.1061 1749.162,-140.991 1749.162,-140.991"/>
<polygon fill="#000000" stroke="#000000" points="1745.6621,-140.9909 1749.162,-150.991 1752.6621,-140.991 1745.6621,-140.9909"/>
</g>
<!-- BloquearPantallaModule -->
<g id="node11" class="node">
<title>BloquearPantallaModule</title>
<polygon fill="#8dd3c7" stroke="#000000" points="1695.965,-122 1692.965,-126 1671.965,-126 1668.965,-122 1540.035,-122 1540.035,-86 1695.965,-86 1695.965,-122"/>
<text text-anchor="middle" x="1618" y="-99.8" font-family="Times,serif" font-size="14.00" fill="#000000">BloquearPantallaModule</text>
</g>
<!-- BloquearPantallaModule&#45;&gt;PedidosJurisdiccionalesModule -->
<g id="edge10" class="edge">
<title>BloquearPantallaModule&#45;&gt;PedidosJurisdiccionalesModule</title>
<path fill="none" stroke="#000000" d="M1643.6669,-122.1061C1643.6669,-122.1061 1643.6669,-140.991 1643.6669,-140.991"/>
<polygon fill="#000000" stroke="#000000" points="1640.167,-140.9909 1643.6669,-150.991 1647.167,-140.991 1640.167,-140.9909"/>
</g>
<!-- PaginacionModule -->
<g id="node12" class="node">
<title>PaginacionModule</title>
<polygon fill="#8dd3c7" stroke="#000000" points="1521.7576,-122 1518.7576,-126 1497.7576,-126 1494.7576,-122 1400.2424,-122 1400.2424,-86 1521.7576,-86 1521.7576,-122"/>
<text text-anchor="middle" x="1461" y="-99.8" font-family="Times,serif" font-size="14.00" fill="#000000">PaginacionModule</text>
</g>
<!-- PaginacionModule&#45;&gt;PedidosJurisdiccionalesModule -->
<g id="edge11" class="edge">
<title>PaginacionModule&#45;&gt;PedidosJurisdiccionalesModule</title>
<path fill="none" stroke="#000000" d="M1461,-122.1243C1461,-136.7832 1461,-155 1461,-155 1461,-155 1581.0731,-155 1581.0731,-155"/>
<polygon fill="#000000" stroke="#000000" points="1581.0732,-158.5001 1591.0731,-155 1581.0731,-151.5001 1581.0732,-158.5001"/>
</g>
<!-- BuscarInsumosModule -->
<g id="node13" class="node">
<title>BuscarInsumosModule</title>
<polygon fill="#8dd3c7" stroke="#000000" points="1381.8613,-122 1378.8613,-126 1357.8613,-126 1354.8613,-122 1236.1387,-122 1236.1387,-86 1381.8613,-86 1381.8613,-122"/>
<text text-anchor="middle" x="1309" y="-99.8" font-family="Times,serif" font-size="14.00" fill="#000000">BuscarInsumosModule</text>
</g>
<!-- BuscarInsumosModule&#45;&gt;PedidosJurisdiccionalesModule -->
<g id="edge12" class="edge">
<title>BuscarInsumosModule&#45;&gt;PedidosJurisdiccionalesModule</title>
<path fill="none" stroke="#000000" d="M1309,-122.0091C1309,-138.0494 1309,-159 1309,-159 1309,-159 1580.8902,-159 1580.8902,-159"/>
<polygon fill="#000000" stroke="#000000" points="1580.8903,-162.5001 1590.8902,-159 1580.8902,-155.5001 1580.8903,-162.5001"/>
</g>
<!-- PedidosJurisdiccionalesRoutingModule -->
<g id="node14" class="node">
<title>PedidosJurisdiccionalesRoutingModule</title>
<polygon fill="#8dd3c7" stroke="#000000" points="1218.4156,-122 1215.4156,-126 1194.4156,-126 1191.4156,-122 979.5844,-122 979.5844,-86 1218.4156,-86 1218.4156,-122"/>
<text text-anchor="middle" x="1099" y="-99.8" font-family="Times,serif" font-size="14.00" fill="#000000">PedidosJurisdiccionalesRoutingModule</text>
</g>
<!-- PedidosJurisdiccionalesRoutingModule&#45;&gt;PedidosJurisdiccionalesModule -->
<g id="edge13" class="edge">
<title>PedidosJurisdiccionalesRoutingModule&#45;&gt;PedidosJurisdiccionalesModule</title>
<path fill="none" stroke="#000000" d="M1099,-122.0225C1099,-139.3734 1099,-163 1099,-163 1099,-163 1581.0686,-163 1581.0686,-163"/>
<polygon fill="#000000" stroke="#000000" points="1581.0686,-166.5001 1591.0686,-163 1581.0686,-159.5001 1581.0686,-166.5001"/>
</g>
<!-- IndexFarmaciaModule -->
<g id="node15" class="node">
<title>IndexFarmaciaModule</title>
<polygon fill="#8dd3c7" stroke="#000000" points="961.5086,-122 958.5086,-126 937.5086,-126 934.5086,-122 818.4914,-122 818.4914,-86 961.5086,-86 961.5086,-122"/>
<text text-anchor="middle" x="890" y="-99.8" font-family="Times,serif" font-size="14.00" fill="#000000">IndexFarmaciaModule</text>
</g>
<!-- IndexFarmaciaModule&#45;&gt;PedidosJurisdiccionalesModule -->
<g id="edge14" class="edge">
<title>IndexFarmaciaModule&#45;&gt;PedidosJurisdiccionalesModule</title>
<path fill="none" stroke="#000000" d="M890,-122.2222C890,-140.8285 890,-167 890,-167 890,-167 1581.3453,-167 1581.3453,-167"/>
<polygon fill="#000000" stroke="#000000" points="1581.3453,-170.5001 1591.3453,-167 1581.3452,-163.5001 1581.3453,-170.5001"/>
</g>
<!-- PedidosJurisdiccionalesService -->
<g id="node16" class="node">
<title>PedidosJurisdiccionalesService</title>
<ellipse fill="#fdb462" stroke="#000000" cx="662" cy="-104" rx="132.4976" ry="18"/>
<text text-anchor="middle" x="662" y="-99.8" font-family="Times,serif" font-size="14.00" fill="#000000">PedidosJurisdiccionalesService</text>
</g>
<!-- PedidosJurisdiccionalesService&#45;&gt;PedidosJurisdiccionalesModule -->
<g id="edge15" class="edge">
<title>PedidosJurisdiccionalesService&#45;&gt;PedidosJurisdiccionalesModule</title>
<path fill="none" stroke="#000000" d="M662,-122.308C662,-142.1455 662,-171 662,-171 662,-171 1581.0144,-171 1581.0144,-171"/>
<polygon fill="#000000" stroke="#000000" points="1581.0144,-174.5001 1591.0144,-171 1581.0143,-167.5001 1581.0144,-174.5001"/>
</g>
<!-- AlmacenesService -->
<g id="node17" class="node">
<title>AlmacenesService</title>
<ellipse fill="#fdb462" stroke="#000000" cx="429" cy="-104" rx="82.7801" ry="18"/>
<text text-anchor="middle" x="429" y="-99.8" font-family="Times,serif" font-size="14.00" fill="#000000">AlmacenesService</text>
</g>
<!-- AlmacenesService&#45;&gt;PedidosJurisdiccionalesModule -->
<g id="edge16" class="edge">
<title>AlmacenesService&#45;&gt;PedidosJurisdiccionalesModule</title>
<path fill="none" stroke="#000000" d="M429,-122.2843C429,-143.3211 429,-175 429,-175 429,-175 1581.2989,-175 1581.2989,-175"/>
<polygon fill="#000000" stroke="#000000" points="1581.2989,-178.5001 1591.2989,-175 1581.2989,-171.5001 1581.2989,-178.5001"/>
</g>
<!-- StockService -->
<g id="node18" class="node">
<title>StockService</title>
<ellipse fill="#fdb462" stroke="#000000" cx="266" cy="-104" rx="61.975" ry="18"/>
<text text-anchor="middle" x="266" y="-99.8" font-family="Times,serif" font-size="14.00" fill="#000000">StockService</text>
</g>
<!-- StockService&#45;&gt;PedidosJurisdiccionalesModule -->
<g id="edge17" class="edge">
<title>StockService&#45;&gt;PedidosJurisdiccionalesModule</title>
<path fill="none" stroke="#000000" d="M266,-122.1554C266,-144.3519 266,-179 266,-179 266,-179 1581.0992,-179 1581.0992,-179"/>
<polygon fill="#000000" stroke="#000000" points="1581.0992,-182.5001 1591.0992,-179 1581.0991,-175.5001 1581.0992,-182.5001"/>
</g>
<!-- RecepcionService -->
<g id="node19" class="node">
<title>RecepcionService</title>
<ellipse fill="#fdb462" stroke="#000000" cx="105" cy="-104" rx="80.9969" ry="18"/>
<text text-anchor="middle" x="105" y="-99.8" font-family="Times,serif" font-size="14.00" fill="#000000">RecepcionService</text>
</g>
<!-- RecepcionService&#45;&gt;PedidosJurisdiccionalesModule -->
<g id="edge18" class="edge">
<title>RecepcionService&#45;&gt;PedidosJurisdiccionalesModule</title>
<path fill="none" stroke="#000000" d="M105,-122.3228C105,-145.6602 105,-183 105,-183 105,-183 1581.0627,-183 1581.0627,-183"/>
<polygon fill="#000000" stroke="#000000" points="1581.0627,-186.5001 1591.0627,-183 1581.0627,-179.5001 1581.0627,-186.5001"/>
</g>
</g>
</svg>
