<?xml version="1.0" encoding="UTF-8" standalone="no"?>
<!DOCTYPE svg PUBLIC "-//W3C//DTD SVG 1.1//EN"
 "http://www.w3.org/Graphics/SVG/1.1/DTD/svg11.dtd">
<!-- Generated by graphviz version 2.40.1 (20161225.0304)
 -->
<!-- Title: dependencies Pages: 1 -->
<svg width="1649pt" height="211pt"
 viewBox="0.00 0.00 1649.00 211.00" xmlns="http://www.w3.org/2000/svg" xmlns:xlink="http://www.w3.org/1999/xlink">
<g id="graph0" class="graph" transform="scale(1 1) rotate(0) translate(4 207)">
<title>dependencies</title>
<polygon fill="#ffffff" stroke="transparent" points="-4,4 -4,-207 1645,-207 1645,4 -4,4"/>
<text text-anchor="start" x="799.5091" y="-42.4" font-family="sans-serif" font-weight="bold" font-size="14.00" fill="#000000">Legend</text>
<polygon fill="#ffffb3" stroke="transparent" points="586.5,-10 586.5,-30 606.5,-30 606.5,-10 586.5,-10"/>
<text text-anchor="start" x="610.129" y="-15.4" font-family="sans-serif" font-size="14.00" fill="#000000"> &#160;Declarations</text>
<polygon fill="#8dd3c7" stroke="transparent" points="699.5,-10 699.5,-30 719.5,-30 719.5,-10 699.5,-10"/>
<text text-anchor="start" x="723.2251" y="-15.4" font-family="sans-serif" font-size="14.00" fill="#000000"> &#160;Module</text>
<polygon fill="#80b1d3" stroke="transparent" points="785.5,-10 785.5,-30 805.5,-30 805.5,-10 785.5,-10"/>
<text text-anchor="start" x="809.2812" y="-15.4" font-family="sans-serif" font-size="14.00" fill="#000000"> &#160;Bootstrap</text>
<polygon fill="#fdb462" stroke="transparent" points="882.5,-10 882.5,-30 902.5,-30 902.5,-10 882.5,-10"/>
<text text-anchor="start" x="906.1732" y="-15.4" font-family="sans-serif" font-size="14.00" fill="#000000"> &#160;Providers</text>
<polygon fill="#fb8072" stroke="transparent" points="978.5,-10 978.5,-30 998.5,-30 998.5,-10 978.5,-10"/>
<text text-anchor="start" x="1002.2258" y="-15.4" font-family="sans-serif" font-size="14.00" fill="#000000"> &#160;Exports</text>
<g id="clust1" class="cluster">
<title>cluster_AjusteMasInventarioModule</title>
<polygon fill="none" stroke="#000000" stroke-dasharray="1,5" points="8,-70 8,-195 1633,-195 1633,-70 8,-70"/>
</g>
<g id="clust2" class="cluster">
<title>cluster_AjusteMasInventarioModule_declarations</title>
<polygon fill="none" stroke="#000000" points="1337,-78 1337,-130 1625,-130 1625,-78 1337,-78"/>
</g>
<g id="clust5" class="cluster">
<title>cluster_AjusteMasInventarioModule_imports</title>
<polygon fill="none" stroke="#000000" points="295,-78 295,-130 1329,-130 1329,-78 295,-78"/>
</g>
<g id="clust8" class="cluster">
<title>cluster_AjusteMasInventarioModule_providers</title>
<polygon fill="none" stroke="#000000" points="16,-78 16,-130 287,-130 287,-78 16,-78"/>
</g>
<!-- ListaComponent -->
<g id="node1" class="node">
<title>ListaComponent</title>
<polygon fill="#ffffb3" stroke="#000000" points="1616.8259,-122 1507.1741,-122 1507.1741,-86 1616.8259,-86 1616.8259,-122"/>
<text text-anchor="middle" x="1562" y="-99.8" font-family="Times,serif" font-size="14.00" fill="#000000">ListaComponent</text>
</g>
<!-- AjusteMasInventarioModule -->
<g id="node3" class="node">
<title>AjusteMasInventarioModule</title>
<polygon fill="#8dd3c7" stroke="#000000" points="881.7324,-187 878.7324,-191 857.7324,-191 854.7324,-187 704.2676,-187 704.2676,-151 881.7324,-151 881.7324,-187"/>
<text text-anchor="middle" x="793" y="-164.8" font-family="Times,serif" font-size="14.00" fill="#000000">AjusteMasInventarioModule</text>
</g>
<!-- ListaComponent&#45;&gt;AjusteMasInventarioModule -->
<g id="edge1" class="edge">
<title>ListaComponent&#45;&gt;AjusteMasInventarioModule</title>
<path fill="none" stroke="#000000" d="M1562,-122.0109C1562,-144.4852 1562,-180 1562,-180 1562,-180 891.9653,-180 891.9653,-180"/>
<polygon fill="#000000" stroke="#000000" points="891.9654,-176.5001 881.9653,-180 891.9653,-183.5001 891.9654,-176.5001"/>
</g>
<!-- FormularioComponent -->
<g id="node2" class="node">
<title>FormularioComponent</title>
<polygon fill="#ffffb3" stroke="#000000" points="1489.323,-122 1344.677,-122 1344.677,-86 1489.323,-86 1489.323,-122"/>
<text text-anchor="middle" x="1417" y="-99.8" font-family="Times,serif" font-size="14.00" fill="#000000">FormularioComponent</text>
</g>
<!-- FormularioComponent&#45;&gt;AjusteMasInventarioModule -->
<g id="edge2" class="edge">
<title>FormularioComponent&#45;&gt;AjusteMasInventarioModule</title>
<path fill="none" stroke="#000000" d="M1417,-122.1289C1417,-142.5724 1417,-173 1417,-173 1417,-173 891.7413,-173 891.7413,-173"/>
<polygon fill="#000000" stroke="#000000" points="891.7413,-169.5001 881.7413,-173 891.7413,-176.5001 891.7413,-169.5001"/>
</g>
<!-- AjusteMasInventarioRoutingModule -->
<g id="node4" class="node">
<title>AjusteMasInventarioRoutingModule</title>
<polygon fill="#8dd3c7" stroke="#000000" points="1321.3501,-122 1318.3501,-126 1297.3501,-126 1294.3501,-122 1098.6499,-122 1098.6499,-86 1321.3501,-86 1321.3501,-122"/>
<text text-anchor="middle" x="1210" y="-99.8" font-family="Times,serif" font-size="14.00" fill="#000000">AjusteMasInventarioRoutingModule</text>
</g>
<!-- AjusteMasInventarioRoutingModule&#45;&gt;AjusteMasInventarioModule -->
<g id="edge3" class="edge">
<title>AjusteMasInventarioRoutingModule&#45;&gt;AjusteMasInventarioModule</title>
<path fill="none" stroke="#000000" d="M1210,-122.2667C1210,-140.5552 1210,-166 1210,-166 1210,-166 891.9455,-166 891.9455,-166"/>
<polygon fill="#000000" stroke="#000000" points="891.9455,-162.5001 881.9455,-166 891.9455,-169.5001 891.9455,-162.5001"/>
</g>
<!-- HubModule -->
<g id="node5" class="node">
<title>HubModule</title>
<polygon fill="#8dd3c7" stroke="#000000" points="1080.6571,-122 1077.6571,-126 1056.6571,-126 1053.6571,-122 997.3429,-122 997.3429,-86 1080.6571,-86 1080.6571,-122"/>
<text text-anchor="middle" x="1039" y="-99.8" font-family="Times,serif" font-size="14.00" fill="#000000">HubModule</text>
</g>
<!-- HubModule&#45;&gt;AjusteMasInventarioModule -->
<g id="edge4" class="edge">
<title>HubModule&#45;&gt;AjusteMasInventarioModule</title>
<path fill="none" stroke="#000000" d="M1039,-122.0091C1039,-138.0494 1039,-159 1039,-159 1039,-159 891.8116,-159 891.8116,-159"/>
<polygon fill="#000000" stroke="#000000" points="891.8117,-155.5001 881.8116,-159 891.8116,-162.5001 891.8117,-155.5001"/>
</g>
<!-- PerfilModule -->
<g id="node6" class="node">
<title>PerfilModule</title>
<polygon fill="#8dd3c7" stroke="#000000" points="979.1501,-122 976.1501,-126 955.1501,-126 952.1501,-122 888.8499,-122 888.8499,-86 979.1501,-86 979.1501,-122"/>
<text text-anchor="middle" x="934" y="-99.8" font-family="Times,serif" font-size="14.00" fill="#000000">PerfilModule</text>
</g>
<!-- PerfilModule&#45;&gt;AjusteMasInventarioModule -->
<g id="edge5" class="edge">
<title>PerfilModule&#45;&gt;AjusteMasInventarioModule</title>
<path fill="none" stroke="#000000" d="M888.6346,-104C881.4987,-104 876.4243,-104 876.4243,-104 876.4243,-104 876.4243,-140.8939 876.4243,-140.8939"/>
<polygon fill="#000000" stroke="#000000" points="872.9244,-140.8938 876.4243,-150.8939 879.9244,-140.8939 872.9244,-140.8938"/>
</g>
<!-- BloquearPantallaModule -->
<g id="node7" class="node">
<title>BloquearPantallaModule</title>
<polygon fill="#8dd3c7" stroke="#000000" points="870.965,-122 867.965,-126 846.965,-126 843.965,-122 715.035,-122 715.035,-86 870.965,-86 870.965,-122"/>
<text text-anchor="middle" x="793" y="-99.8" font-family="Times,serif" font-size="14.00" fill="#000000">BloquearPantallaModule</text>
</g>
<!-- BloquearPantallaModule&#45;&gt;AjusteMasInventarioModule -->
<g id="edge6" class="edge">
<title>BloquearPantallaModule&#45;&gt;AjusteMasInventarioModule</title>
<path fill="none" stroke="#000000" d="M793,-122.1061C793,-122.1061 793,-140.991 793,-140.991"/>
<polygon fill="#000000" stroke="#000000" points="789.5001,-140.9909 793,-150.991 796.5001,-140.991 789.5001,-140.9909"/>
</g>
<!-- PaginacionModule -->
<g id="node8" class="node">
<title>PaginacionModule</title>
<polygon fill="#8dd3c7" stroke="#000000" points="696.7576,-122 693.7576,-126 672.7576,-126 669.7576,-122 575.2424,-122 575.2424,-86 696.7576,-86 696.7576,-122"/>
<text text-anchor="middle" x="636" y="-99.8" font-family="Times,serif" font-size="14.00" fill="#000000">PaginacionModule</text>
</g>
<!-- PaginacionModule&#45;&gt;AjusteMasInventarioModule -->
<g id="edge7" class="edge">
<title>PaginacionModule&#45;&gt;AjusteMasInventarioModule</title>
<path fill="none" stroke="#000000" d="M696.7598,-104C704.3844,-104 709.5757,-104 709.5757,-104 709.5757,-104 709.5757,-140.8939 709.5757,-140.8939"/>
<polygon fill="#000000" stroke="#000000" points="706.0758,-140.8938 709.5757,-150.8939 713.0758,-140.8939 706.0758,-140.8938"/>
</g>
<!-- IndexInventarioModule -->
<g id="node9" class="node">
<title>IndexInventarioModule</title>
<polygon fill="#8dd3c7" stroke="#000000" points="557.4566,-122 554.4566,-126 533.4566,-126 530.4566,-122 408.5434,-122 408.5434,-86 557.4566,-86 557.4566,-122"/>
<text text-anchor="middle" x="483" y="-99.8" font-family="Times,serif" font-size="14.00" fill="#000000">IndexInventarioModule</text>
</g>
<!-- IndexInventarioModule&#45;&gt;AjusteMasInventarioModule -->
<g id="edge8" class="edge">
<title>IndexInventarioModule&#45;&gt;AjusteMasInventarioModule</title>
<path fill="none" stroke="#000000" d="M483,-122.0091C483,-138.0494 483,-159 483,-159 483,-159 694.1664,-159 694.1664,-159"/>
<polygon fill="#000000" stroke="#000000" points="694.1665,-162.5001 704.1664,-159 694.1664,-155.5001 694.1665,-162.5001"/>
</g>
<!-- CrudModule -->
<g id="node10" class="node">
<title>CrudModule</title>
<polygon fill="#8dd3c7" stroke="#000000" points="390.5482,-122 387.5482,-126 366.5482,-126 363.5482,-122 303.4518,-122 303.4518,-86 390.5482,-86 390.5482,-122"/>
<text text-anchor="middle" x="347" y="-99.8" font-family="Times,serif" font-size="14.00" fill="#000000">CrudModule</text>
</g>
<!-- CrudModule&#45;&gt;AjusteMasInventarioModule -->
<g id="edge9" class="edge">
<title>CrudModule&#45;&gt;AjusteMasInventarioModule</title>
<path fill="none" stroke="#000000" d="M347,-122.2667C347,-140.5552 347,-166 347,-166 347,-166 694.0845,-166 694.0845,-166"/>
<polygon fill="#000000" stroke="#000000" points="694.0845,-169.5001 704.0845,-166 694.0844,-162.5001 694.0845,-169.5001"/>
</g>
<!-- AuthService -->
<g id="node11" class="node">
<title>AuthService</title>
<ellipse fill="#fdb462" stroke="#000000" cx="220" cy="-104" rx="59.1083" ry="18"/>
<text text-anchor="middle" x="220" y="-99.8" font-family="Times,serif" font-size="14.00" fill="#000000">AuthService</text>
</g>
<!-- AuthService&#45;&gt;AjusteMasInventarioModule -->
<g id="edge10" class="edge">
<title>AuthService&#45;&gt;AjusteMasInventarioModule</title>
<path fill="none" stroke="#000000" d="M220,-122.1289C220,-142.5724 220,-173 220,-173 220,-173 694.0974,-173 694.0974,-173"/>
<polygon fill="#000000" stroke="#000000" points="694.0975,-176.5001 704.0974,-173 694.0974,-169.5001 694.0975,-176.5001"/>
</g>
<!-- CrudService -->
<g id="node12" class="node">
<title>CrudService</title>
<ellipse fill="#fdb462" stroke="#000000" cx="83" cy="-104" rx="59.1083" ry="18"/>
<text text-anchor="middle" x="83" y="-99.8" font-family="Times,serif" font-size="14.00" fill="#000000">CrudService</text>
</g>
<!-- CrudService&#45;&gt;AjusteMasInventarioModule -->
<g id="edge11" class="edge">
<title>CrudService&#45;&gt;AjusteMasInventarioModule</title>
<path fill="none" stroke="#000000" d="M83,-122.0109C83,-144.4852 83,-180 83,-180 83,-180 694.1555,-180 694.1555,-180"/>
<polygon fill="#000000" stroke="#000000" points="694.1556,-183.5001 704.1555,-180 694.1555,-176.5001 694.1556,-183.5001"/>
</g>
</g>
</svg>
