<?xml version="1.0" encoding="UTF-8" standalone="no"?>
<!DOCTYPE svg PUBLIC "-//W3C//DTD SVG 1.1//EN"
 "http://www.w3.org/Graphics/SVG/1.1/DTD/svg11.dtd">
<!-- Generated by graphviz version 2.40.1 (20161225.0304)
 -->
<!-- Title: dependencies Pages: 1 -->
<svg width="1657pt" height="211pt"
 viewBox="0.00 0.00 1657.00 211.00" xmlns="http://www.w3.org/2000/svg" xmlns:xlink="http://www.w3.org/1999/xlink">
<g id="graph0" class="graph" transform="scale(1 1) rotate(0) translate(4 207)">
<title>dependencies</title>
<polygon fill="#ffffff" stroke="transparent" points="-4,4 -4,-207 1653,-207 1653,4 -4,4"/>
<text text-anchor="start" x="803.5091" y="-42.4" font-family="sans-serif" font-weight="bold" font-size="14.00" fill="#000000">Legend</text>
<polygon fill="#ffffb3" stroke="transparent" points="590.5,-10 590.5,-30 610.5,-30 610.5,-10 590.5,-10"/>
<text text-anchor="start" x="614.129" y="-15.4" font-family="sans-serif" font-size="14.00" fill="#000000"> &#160;Declarations</text>
<polygon fill="#8dd3c7" stroke="transparent" points="703.5,-10 703.5,-30 723.5,-30 723.5,-10 703.5,-10"/>
<text text-anchor="start" x="727.2251" y="-15.4" font-family="sans-serif" font-size="14.00" fill="#000000"> &#160;Module</text>
<polygon fill="#80b1d3" stroke="transparent" points="789.5,-10 789.5,-30 809.5,-30 809.5,-10 789.5,-10"/>
<text text-anchor="start" x="813.2812" y="-15.4" font-family="sans-serif" font-size="14.00" fill="#000000"> &#160;Bootstrap</text>
<polygon fill="#fdb462" stroke="transparent" points="886.5,-10 886.5,-30 906.5,-30 906.5,-10 886.5,-10"/>
<text text-anchor="start" x="910.1732" y="-15.4" font-family="sans-serif" font-size="14.00" fill="#000000"> &#160;Providers</text>
<polygon fill="#fb8072" stroke="transparent" points="982.5,-10 982.5,-30 1002.5,-30 1002.5,-10 982.5,-10"/>
<text text-anchor="start" x="1006.2258" y="-15.4" font-family="sans-serif" font-size="14.00" fill="#000000"> &#160;Exports</text>
<g id="clust1" class="cluster">
<title>cluster_EntradasLaboratorioModule</title>
<polygon fill="none" stroke="#000000" stroke-dasharray="1,5" points="8,-70 8,-195 1641,-195 1641,-70 8,-70"/>
</g>
<g id="clust2" class="cluster">
<title>cluster_EntradasLaboratorioModule_declarations</title>
<polygon fill="none" stroke="#000000" points="1345,-78 1345,-130 1633,-130 1633,-78 1345,-78"/>
</g>
<g id="clust5" class="cluster">
<title>cluster_EntradasLaboratorioModule_imports</title>
<polygon fill="none" stroke="#000000" points="295,-78 295,-130 1337,-130 1337,-78 295,-78"/>
</g>
<g id="clust8" class="cluster">
<title>cluster_EntradasLaboratorioModule_providers</title>
<polygon fill="none" stroke="#000000" points="16,-78 16,-130 287,-130 287,-78 16,-78"/>
</g>
<!-- ListaComponent -->
<g id="node1" class="node">
<title>ListaComponent</title>
<polygon fill="#ffffb3" stroke="#000000" points="1624.8259,-122 1515.1741,-122 1515.1741,-86 1624.8259,-86 1624.8259,-122"/>
<text text-anchor="middle" x="1570" y="-99.8" font-family="Times,serif" font-size="14.00" fill="#000000">ListaComponent</text>
</g>
<!-- EntradasLaboratorioModule -->
<g id="node3" class="node">
<title>EntradasLaboratorioModule</title>
<polygon fill="#8dd3c7" stroke="#000000" points="890.112,-187 887.112,-191 866.112,-191 863.112,-187 715.888,-187 715.888,-151 890.112,-151 890.112,-187"/>
<text text-anchor="middle" x="803" y="-164.8" font-family="Times,serif" font-size="14.00" fill="#000000">EntradasLaboratorioModule</text>
</g>
<!-- ListaComponent&#45;&gt;EntradasLaboratorioModule -->
<g id="edge1" class="edge">
<title>ListaComponent&#45;&gt;EntradasLaboratorioModule</title>
<path fill="none" stroke="#000000" d="M1570,-122.0109C1570,-144.4852 1570,-180 1570,-180 1570,-180 900.2379,-180 900.2379,-180"/>
<polygon fill="#000000" stroke="#000000" points="900.2379,-176.5001 890.2379,-180 900.2379,-183.5001 900.2379,-176.5001"/>
</g>
<!-- FormularioComponent -->
<g id="node2" class="node">
<title>FormularioComponent</title>
<polygon fill="#ffffb3" stroke="#000000" points="1497.323,-122 1352.677,-122 1352.677,-86 1497.323,-86 1497.323,-122"/>
<text text-anchor="middle" x="1425" y="-99.8" font-family="Times,serif" font-size="14.00" fill="#000000">FormularioComponent</text>
</g>
<!-- FormularioComponent&#45;&gt;EntradasLaboratorioModule -->
<g id="edge2" class="edge">
<title>FormularioComponent&#45;&gt;EntradasLaboratorioModule</title>
<path fill="none" stroke="#000000" d="M1425,-122.1289C1425,-142.5724 1425,-173 1425,-173 1425,-173 900.1414,-173 900.1414,-173"/>
<polygon fill="#000000" stroke="#000000" points="900.1414,-169.5001 890.1414,-173 900.1413,-176.5001 900.1414,-169.5001"/>
</g>
<!-- EntradasLaboratorioRoutingModule -->
<g id="node4" class="node">
<title>EntradasLaboratorioRoutingModule</title>
<polygon fill="#8dd3c7" stroke="#000000" points="1328.7296,-122 1325.7296,-126 1304.7296,-126 1301.7296,-122 1109.2704,-122 1109.2704,-86 1328.7296,-86 1328.7296,-122"/>
<text text-anchor="middle" x="1219" y="-99.8" font-family="Times,serif" font-size="14.00" fill="#000000">EntradasLaboratorioRoutingModule</text>
</g>
<!-- EntradasLaboratorioRoutingModule&#45;&gt;EntradasLaboratorioModule -->
<g id="edge3" class="edge">
<title>EntradasLaboratorioRoutingModule&#45;&gt;EntradasLaboratorioModule</title>
<path fill="none" stroke="#000000" d="M1219,-122.2667C1219,-140.5552 1219,-166 1219,-166 1219,-166 900.2072,-166 900.2072,-166"/>
<polygon fill="#000000" stroke="#000000" points="900.2073,-162.5001 890.2072,-166 900.2072,-169.5001 900.2073,-162.5001"/>
</g>
<!-- HubModule -->
<g id="node5" class="node">
<title>HubModule</title>
<polygon fill="#8dd3c7" stroke="#000000" points="1090.6571,-122 1087.6571,-126 1066.6571,-126 1063.6571,-122 1007.3429,-122 1007.3429,-86 1090.6571,-86 1090.6571,-122"/>
<text text-anchor="middle" x="1049" y="-99.8" font-family="Times,serif" font-size="14.00" fill="#000000">HubModule</text>
</g>
<!-- HubModule&#45;&gt;EntradasLaboratorioModule -->
<g id="edge4" class="edge">
<title>HubModule&#45;&gt;EntradasLaboratorioModule</title>
<path fill="none" stroke="#000000" d="M1049,-122.0091C1049,-138.0494 1049,-159 1049,-159 1049,-159 900.4231,-159 900.4231,-159"/>
<polygon fill="#000000" stroke="#000000" points="900.4231,-155.5001 890.4231,-159 900.423,-162.5001 900.4231,-155.5001"/>
</g>
<!-- PerfilModule -->
<g id="node6" class="node">
<title>PerfilModule</title>
<polygon fill="#8dd3c7" stroke="#000000" points="989.1501,-122 986.1501,-126 965.1501,-126 962.1501,-122 898.8499,-122 898.8499,-86 989.1501,-86 989.1501,-122"/>
<text text-anchor="middle" x="944" y="-99.8" font-family="Times,serif" font-size="14.00" fill="#000000">PerfilModule</text>
</g>
<!-- PerfilModule&#45;&gt;EntradasLaboratorioModule -->
<g id="edge5" class="edge">
<title>PerfilModule&#45;&gt;EntradasLaboratorioModule</title>
<path fill="none" stroke="#000000" d="M898.5952,-104C891.0616,-104 885.6442,-104 885.6442,-104 885.6442,-104 885.6442,-140.8939 885.6442,-140.8939"/>
<polygon fill="#000000" stroke="#000000" points="882.1442,-140.8938 885.6442,-150.8939 889.1442,-140.8939 882.1442,-140.8938"/>
</g>
<!-- BloquearPantallaModule -->
<g id="node7" class="node">
<title>BloquearPantallaModule</title>
<polygon fill="#8dd3c7" stroke="#000000" points="880.965,-122 877.965,-126 856.965,-126 853.965,-122 725.035,-122 725.035,-86 880.965,-86 880.965,-122"/>
<text text-anchor="middle" x="803" y="-99.8" font-family="Times,serif" font-size="14.00" fill="#000000">BloquearPantallaModule</text>
</g>
<!-- BloquearPantallaModule&#45;&gt;EntradasLaboratorioModule -->
<g id="edge6" class="edge">
<title>BloquearPantallaModule&#45;&gt;EntradasLaboratorioModule</title>
<path fill="none" stroke="#000000" d="M803,-122.1061C803,-122.1061 803,-140.991 803,-140.991"/>
<polygon fill="#000000" stroke="#000000" points="799.5001,-140.9909 803,-150.991 806.5001,-140.991 799.5001,-140.9909"/>
</g>
<!-- PaginacionModule -->
<g id="node8" class="node">
<title>PaginacionModule</title>
<polygon fill="#8dd3c7" stroke="#000000" points="706.7576,-122 703.7576,-126 682.7576,-126 679.7576,-122 585.2424,-122 585.2424,-86 706.7576,-86 706.7576,-122"/>
<text text-anchor="middle" x="646" y="-99.8" font-family="Times,serif" font-size="14.00" fill="#000000">PaginacionModule</text>
</g>
<!-- PaginacionModule&#45;&gt;EntradasLaboratorioModule -->
<g id="edge7" class="edge">
<title>PaginacionModule&#45;&gt;EntradasLaboratorioModule</title>
<path fill="none" stroke="#000000" d="M707.0625,-104C714.9541,-104 720.3559,-104 720.3559,-104 720.3559,-104 720.3559,-140.8939 720.3559,-140.8939"/>
<polygon fill="#000000" stroke="#000000" points="716.8559,-140.8938 720.3559,-150.8939 723.8559,-140.8939 716.8559,-140.8938"/>
</g>
<!-- IndexLaboratorioModule -->
<g id="node9" class="node">
<title>IndexLaboratorioModule</title>
<polygon fill="#8dd3c7" stroke="#000000" points="566.51,-122 563.51,-126 542.51,-126 539.51,-122 409.49,-122 409.49,-86 566.51,-86 566.51,-122"/>
<text text-anchor="middle" x="488" y="-99.8" font-family="Times,serif" font-size="14.00" fill="#000000">IndexLaboratorioModule</text>
</g>
<!-- IndexLaboratorioModule&#45;&gt;EntradasLaboratorioModule -->
<g id="edge8" class="edge">
<title>IndexLaboratorioModule&#45;&gt;EntradasLaboratorioModule</title>
<path fill="none" stroke="#000000" d="M488,-122.0091C488,-138.0494 488,-159 488,-159 488,-159 705.6733,-159 705.6733,-159"/>
<polygon fill="#000000" stroke="#000000" points="705.6733,-162.5001 715.6733,-159 705.6732,-155.5001 705.6733,-162.5001"/>
</g>
<!-- CrudModule -->
<g id="node10" class="node">
<title>CrudModule</title>
<polygon fill="#8dd3c7" stroke="#000000" points="390.5482,-122 387.5482,-126 366.5482,-126 363.5482,-122 303.4518,-122 303.4518,-86 390.5482,-86 390.5482,-122"/>
<text text-anchor="middle" x="347" y="-99.8" font-family="Times,serif" font-size="14.00" fill="#000000">CrudModule</text>
</g>
<!-- CrudModule&#45;&gt;EntradasLaboratorioModule -->
<g id="edge9" class="edge">
<title>CrudModule&#45;&gt;EntradasLaboratorioModule</title>
<path fill="none" stroke="#000000" d="M347,-122.2667C347,-140.5552 347,-166 347,-166 347,-166 705.8875,-166 705.8875,-166"/>
<polygon fill="#000000" stroke="#000000" points="705.8875,-169.5001 715.8875,-166 705.8875,-162.5001 705.8875,-169.5001"/>
</g>
<!-- AuthService -->
<g id="node11" class="node">
<title>AuthService</title>
<ellipse fill="#fdb462" stroke="#000000" cx="220" cy="-104" rx="59.1083" ry="18"/>
<text text-anchor="middle" x="220" y="-99.8" font-family="Times,serif" font-size="14.00" fill="#000000">AuthService</text>
</g>
<!-- AuthService&#45;&gt;EntradasLaboratorioModule -->
<g id="edge10" class="edge">
<title>AuthService&#45;&gt;EntradasLaboratorioModule</title>
<path fill="none" stroke="#000000" d="M220,-122.1289C220,-142.5724 220,-173 220,-173 220,-173 705.719,-173 705.719,-173"/>
<polygon fill="#000000" stroke="#000000" points="705.719,-176.5001 715.719,-173 705.719,-169.5001 705.719,-176.5001"/>
</g>
<!-- CrudService -->
<g id="node12" class="node">
<title>CrudService</title>
<ellipse fill="#fdb462" stroke="#000000" cx="83" cy="-104" rx="59.1083" ry="18"/>
<text text-anchor="middle" x="83" y="-99.8" font-family="Times,serif" font-size="14.00" fill="#000000">CrudService</text>
</g>
<!-- CrudService&#45;&gt;EntradasLaboratorioModule -->
<g id="edge11" class="edge">
<title>CrudService&#45;&gt;EntradasLaboratorioModule</title>
<path fill="none" stroke="#000000" d="M83,-122.0109C83,-144.4852 83,-180 83,-180 83,-180 705.7927,-180 705.7927,-180"/>
<polygon fill="#000000" stroke="#000000" points="705.7928,-183.5001 715.7927,-180 705.7927,-176.5001 705.7928,-183.5001"/>
</g>
</g>
</svg>
